<?xml version="1.0" encoding="UTF-8"?>
<svg xmlns="http://www.w3.org/2000/svg" xmlns:xlink="http://www.w3.org/1999/xlink" width="595.275591pt" height="841.889764pt" viewBox="0 0 595.275591 841.889764" version="1.2">
<pageSet>
<page>
<g id="surface50845">
<rect x="0" y="0" width="595.275591" height="841.889764" style="fill:rgb(100%,100%,100%);fill-opacity:1;stroke:none;"/>
<path style="fill:none;stroke-width:7;stroke-linecap:round;stroke-linejoin:round;stroke:rgb(0%,0%,0%);stroke-opacity:1;stroke-miterlimit:10;" d="M 3428.515625 2496.484375 L 3428.515625 2468.489583 " transform="matrix(0.12,0,0,0.12,0,0)"/>
<path style="fill:none;stroke-width:7;stroke-linecap:round;stroke-linejoin:round;stroke:rgb(0%,0%,0%);stroke-opacity:1;stroke-miterlimit:10;" d="M 3428.515625 2472.49349 L 3430.501302 2470.507812 L 3435.514323 2468.489583 L 3442.513021 2468.489583 L 3446.484375 2470.507812 L 3448.502604 2474.511719 L 3448.502604 2496.484375 " transform="matrix(0.12,0,0,0.12,0,0)"/>
<path style="fill:none;stroke-width:7;stroke-linecap:round;stroke-linejoin:round;stroke:rgb(0%,0%,0%);stroke-opacity:1;stroke-miterlimit:10;" d="M 3448.502604 2474.511719 L 3451.497396 2470.507812 L 3455.501302 2468.489583 L 3462.5 2468.489583 L 3466.503906 2470.507812 L 3469.498698 2474.511719 L 3469.498698 2496.484375 " transform="matrix(0.12,0,0,0.12,0,0)"/>
<path style="fill:none;stroke-width:7;stroke-linecap:round;stroke-linejoin:round;stroke:rgb(0%,0%,0%);stroke-opacity:1;stroke-miterlimit:10;" d="M 3491.503906 2496.484375 L 3491.503906 2454.492188 " transform="matrix(0.12,0,0,0.12,0,0)"/>
<path style="fill:none;stroke-width:7;stroke-linecap:round;stroke-linejoin:round;stroke:rgb(0%,0%,0%);stroke-opacity:1;stroke-miterlimit:10;" d="M 3496.484375 2480.501302 L 3509.505208 2496.484375 " transform="matrix(0.12,0,0,0.12,0,0)"/>
<path style="fill:none;stroke-width:7;stroke-linecap:round;stroke-linejoin:round;stroke:rgb(0%,0%,0%);stroke-opacity:1;stroke-miterlimit:10;" d="M 3509.505208 2468.489583 L 3491.503906 2484.505208 " transform="matrix(0.12,0,0,0.12,0,0)"/>
<path style="fill:none;stroke-width:7;stroke-linecap:round;stroke-linejoin:round;stroke:rgb(0%,0%,0%);stroke-opacity:1;stroke-miterlimit:10;" d="M 3588.509115 2454.492188 L 3565.494792 2454.492188 L 3563.509115 2474.511719 L 3565.494792 2472.49349 L 3570.507813 2470.507812 L 3581.510417 2470.507812 L 3586.490885 2472.49349 L 3588.509115 2474.511719 L 3590.494792 2478.515625 L 3590.494792 2488.509115 L 3588.509115 2492.513021 L 3586.490885 2494.498698 L 3581.510417 2496.484375 L 3570.507813 2496.484375 L 3565.494792 2494.498698 L 3563.509115 2492.513021 " transform="matrix(0.12,0,0,0.12,0,0)"/>
</g>
</page>
<page>
<g id="surface50845">
<rect x="0" y="0" width="595.275591" height="841.889764" style="fill:rgb(100%,100%,100%);fill-opacity:1;stroke:none;"/>
</g>
</page>
</pageSet>
</svg>
