  0
SECTION
  2
HEADER
  9
$ANGBASE
  50
0.0
  9
$ANGDIR
  70
1
  9
$MEASUREMENT
  70
1
  0
ENDSEC
  0
SECTION
  2
TABLES
  0
TABLE
  2
LTYPE
  70
4
  0
LTYPE
  5
40F
  2
CONTINUOUS
  70
0
  3
Solid line
  72
65
  73
0
  40
0.0
  0
LTYPE
  5
410
  2
DASHDOT
 70
0
  3
Dash Dot ____ _ ____ _
 72
65
 73
4
 40
2.0
 49
1.25
 49
-0.25
 49
0.25
 49
-0.25
  0
LTYPE
  5
411
  2
DASHED
 70
0
  3
Dashed __ __ __ __ __
 72
65
 73
2
 40
0.75
 49
0.5
 49
-0.25
  0
LTYPE
  5
43B
  2
DOTTED
 70
0
  3
Dotted .  .  .  .
 72
65
 73
2
 40
0.2
 49
0.0
 49
-0.2
  0
ENDTAB
  0
TABLE
  2
STYLE
  70
4
  0
STYLE
  2
KICAD
  70
0
  40
0
  41
1
  42
1
  50
0
  71
0
  3
isocp.shx
  0
STYLE
  2
KICADB
  70
0
  40
0
  41
1
  42
1
  50
0
  71
0
  3
isocp.shx
  0
STYLE
  2
KICADI
  70
0
  40
0
  41
1
  42
1
  50
15
  71
0
  3
isocp.shx
  0
STYLE
  2
KICADBI
  70
0
  40
0
  41
1
  42
1
  50
15
  71
0
  3
isocp.shx
  0
ENDTAB
  0
TABLE
  2
LAYER
  70
1
  0
LAYER
  2
BLACK
  70
0
  62
7
  6
CONTINUOUS
  0
ENDTAB
  0
ENDSEC
  0
SECTION
  2
ENTITIES
0
LINE
8
BLACK
6
CONTINUOUS
10
219.634
20
-130.594
11
220.349
21
-130.594
0
LINE
8
BLACK
6
CONTINUOUS
10
219.92
20
-130.165
11
219.634
21
-131.451
0
LINE
8
BLACK
6
CONTINUOUS
10
220.253
20
-131.022
11
219.539
21
-131.022
0
LINE
8
BLACK
6
CONTINUOUS
10
219.968
20
-131.451
11
220.253
21
-130.165
0
LINE
8
BLACK
6
CONTINUOUS
10
221.206
20
-131.26
11
220.634
21
-131.26
0
LINE
8
BLACK
6
CONTINUOUS
10
220.92
20
-131.26
11
220.92
21
-130.26
0
LINE
8
BLACK
6
CONTINUOUS
10
220.92
20
-130.26
11
220.825
21
-130.403
0
LINE
8
BLACK
6
CONTINUOUS
10
220.825
20
-130.403
11
220.73
21
-130.498
0
LINE
8
BLACK
6
CONTINUOUS
10
220.73
20
-130.498
11
220.634
21
-130.546
0
LINE
8
BLACK
6
CONTINUOUS
10
192.963
20
-128.311
11
193.663
21
-128.311
0
LINE
8
BLACK
6
CONTINUOUS
10
193.663
20
-128.311
11
193.663
21
-128.549
0
LINE
8
BLACK
6
CONTINUOUS
10
193.663
20
-128.549
11
193.63
21
-128.692
0
LINE
8
BLACK
6
CONTINUOUS
10
193.63
20
-128.692
11
193.563
21
-128.787
0
LINE
8
BLACK
6
CONTINUOUS
10
193.563
20
-128.787
11
193.497
21
-128.835
0
LINE
8
BLACK
6
CONTINUOUS
10
193.497
20
-128.835
11
193.363
21
-128.882
0
LINE
8
BLACK
6
CONTINUOUS
10
193.363
20
-128.882
11
193.263
21
-128.882
0
LINE
8
BLACK
6
CONTINUOUS
10
193.263
20
-128.882
11
193.13
21
-128.835
0
LINE
8
BLACK
6
CONTINUOUS
10
193.13
20
-128.835
11
193.063
21
-128.787
0
LINE
8
BLACK
6
CONTINUOUS
10
193.063
20
-128.787
11
192.997
21
-128.692
0
LINE
8
BLACK
6
CONTINUOUS
10
192.997
20
-128.692
11
192.963
21
-128.549
0
LINE
8
BLACK
6
CONTINUOUS
10
192.963
20
-128.549
11
192.963
21
-128.311
0
LINE
8
BLACK
6
CONTINUOUS
10
192.997
20
-129.692
11
192.963
21
-129.597
0
LINE
8
BLACK
6
CONTINUOUS
10
192.963
20
-129.597
11
192.963
21
-129.406
0
LINE
8
BLACK
6
CONTINUOUS
10
192.963
20
-129.406
11
192.997
21
-129.311
0
LINE
8
BLACK
6
CONTINUOUS
10
192.997
20
-129.311
11
193.063
21
-129.263
0
LINE
8
BLACK
6
CONTINUOUS
10
193.063
20
-129.263
11
193.33
21
-129.263
0
LINE
8
BLACK
6
CONTINUOUS
10
193.33
20
-129.263
11
193.397
21
-129.311
0
LINE
8
BLACK
6
CONTINUOUS
10
193.397
20
-129.311
11
193.43
21
-129.406
0
LINE
8
BLACK
6
CONTINUOUS
10
193.43
20
-129.406
11
193.43
21
-129.597
0
LINE
8
BLACK
6
CONTINUOUS
10
193.43
20
-129.597
11
193.397
21
-129.692
0
LINE
8
BLACK
6
CONTINUOUS
10
193.397
20
-129.692
11
193.33
21
-129.74
0
LINE
8
BLACK
6
CONTINUOUS
10
193.33
20
-129.74
11
193.263
21
-129.74
0
LINE
8
BLACK
6
CONTINUOUS
10
193.263
20
-129.74
11
193.197
21
-129.263
0
LINE
8
BLACK
6
CONTINUOUS
10
192.997
20
-130.12
11
192.963
21
-130.216
0
LINE
8
BLACK
6
CONTINUOUS
10
192.963
20
-130.216
11
192.963
21
-130.406
0
LINE
8
BLACK
6
CONTINUOUS
10
192.963
20
-130.406
11
192.997
21
-130.501
0
LINE
8
BLACK
6
CONTINUOUS
10
192.997
20
-130.501
11
193.063
21
-130.549
0
LINE
8
BLACK
6
CONTINUOUS
10
193.063
20
-130.549
11
193.097
21
-130.549
0
LINE
8
BLACK
6
CONTINUOUS
10
193.097
20
-130.549
11
193.163
21
-130.501
0
LINE
8
BLACK
6
CONTINUOUS
10
193.163
20
-130.501
11
193.197
21
-130.406
0
LINE
8
BLACK
6
CONTINUOUS
10
193.197
20
-130.406
11
193.197
21
-130.263
0
LINE
8
BLACK
6
CONTINUOUS
10
193.197
20
-130.263
11
193.23
21
-130.168
0
LINE
8
BLACK
6
CONTINUOUS
10
193.23
20
-130.168
11
193.297
21
-130.12
0
LINE
8
BLACK
6
CONTINUOUS
10
193.297
20
-130.12
11
193.33
21
-130.12
0
LINE
8
BLACK
6
CONTINUOUS
10
193.33
20
-130.12
11
193.397
21
-130.168
0
LINE
8
BLACK
6
CONTINUOUS
10
193.397
20
-130.168
11
193.43
21
-130.263
0
LINE
8
BLACK
6
CONTINUOUS
10
193.43
20
-130.263
11
193.43
21
-130.406
0
LINE
8
BLACK
6
CONTINUOUS
10
193.43
20
-130.406
11
193.397
21
-130.501
0
LINE
8
BLACK
6
CONTINUOUS
10
192.963
20
-130.978
11
193.43
21
-130.978
0
LINE
8
BLACK
6
CONTINUOUS
10
193.663
20
-130.978
11
193.63
21
-130.93
0
LINE
8
BLACK
6
CONTINUOUS
10
193.63
20
-130.93
11
193.597
21
-130.978
0
LINE
8
BLACK
6
CONTINUOUS
10
193.597
20
-130.978
11
193.63
21
-131.025
0
LINE
8
BLACK
6
CONTINUOUS
10
193.63
20
-131.025
11
193.663
21
-130.978
0
LINE
8
BLACK
6
CONTINUOUS
10
193.663
20
-130.978
11
193.597
21
-130.978
0
LINE
8
BLACK
6
CONTINUOUS
10
193.43
20
-131.882
11
192.863
21
-131.882
0
LINE
8
BLACK
6
CONTINUOUS
10
192.863
20
-131.882
11
192.797
21
-131.835
0
LINE
8
BLACK
6
CONTINUOUS
10
192.797
20
-131.835
11
192.763
21
-131.787
0
LINE
8
BLACK
6
CONTINUOUS
10
192.763
20
-131.787
11
192.73
21
-131.692
0
LINE
8
BLACK
6
CONTINUOUS
10
192.73
20
-131.692
11
192.73
21
-131.549
0
LINE
8
BLACK
6
CONTINUOUS
10
192.73
20
-131.549
11
192.763
21
-131.454
0
LINE
8
BLACK
6
CONTINUOUS
10
192.997
20
-131.882
11
192.963
21
-131.787
0
LINE
8
BLACK
6
CONTINUOUS
10
192.963
20
-131.787
11
192.963
21
-131.597
0
LINE
8
BLACK
6
CONTINUOUS
10
192.963
20
-131.597
11
192.997
21
-131.501
0
LINE
8
BLACK
6
CONTINUOUS
10
192.997
20
-131.501
11
193.03
21
-131.454
0
LINE
8
BLACK
6
CONTINUOUS
10
193.03
20
-131.454
11
193.097
21
-131.406
0
LINE
8
BLACK
6
CONTINUOUS
10
193.097
20
-131.406
11
193.297
21
-131.406
0
LINE
8
BLACK
6
CONTINUOUS
10
193.297
20
-131.406
11
193.363
21
-131.454
0
LINE
8
BLACK
6
CONTINUOUS
10
193.363
20
-131.454
11
193.397
21
-131.501
0
LINE
8
BLACK
6
CONTINUOUS
10
193.397
20
-131.501
11
193.43
21
-131.597
0
LINE
8
BLACK
6
CONTINUOUS
10
193.43
20
-131.597
11
193.43
21
-131.787
0
LINE
8
BLACK
6
CONTINUOUS
10
193.43
20
-131.787
11
193.397
21
-131.882
0
LINE
8
BLACK
6
CONTINUOUS
10
193.43
20
-132.359
11
192.963
21
-132.359
0
LINE
8
BLACK
6
CONTINUOUS
10
193.363
20
-132.359
11
193.397
21
-132.406
0
LINE
8
BLACK
6
CONTINUOUS
10
193.397
20
-132.406
11
193.43
21
-132.501
0
LINE
8
BLACK
6
CONTINUOUS
10
193.43
20
-132.501
11
193.43
21
-132.644
0
LINE
8
BLACK
6
CONTINUOUS
10
193.43
20
-132.644
11
193.397
21
-132.74
0
LINE
8
BLACK
6
CONTINUOUS
10
193.397
20
-132.74
11
193.33
21
-132.787
0
LINE
8
BLACK
6
CONTINUOUS
10
193.33
20
-132.787
11
192.963
21
-132.787
0
LINE
8
BLACK
6
CONTINUOUS
10
192.997
20
-133.644
11
192.963
21
-133.549
0
LINE
8
BLACK
6
CONTINUOUS
10
192.963
20
-133.549
11
192.963
21
-133.359
0
LINE
8
BLACK
6
CONTINUOUS
10
192.963
20
-133.359
11
192.997
21
-133.263
0
LINE
8
BLACK
6
CONTINUOUS
10
192.997
20
-133.263
11
193.063
21
-133.216
0
LINE
8
BLACK
6
CONTINUOUS
10
193.063
20
-133.216
11
193.33
21
-133.216
0
LINE
8
BLACK
6
CONTINUOUS
10
193.33
20
-133.216
11
193.397
21
-133.263
0
LINE
8
BLACK
6
CONTINUOUS
10
193.397
20
-133.263
11
193.43
21
-133.359
0
LINE
8
BLACK
6
CONTINUOUS
10
193.43
20
-133.359
11
193.43
21
-133.549
0
LINE
8
BLACK
6
CONTINUOUS
10
193.43
20
-133.549
11
193.397
21
-133.644
0
LINE
8
BLACK
6
CONTINUOUS
10
193.397
20
-133.644
11
193.33
21
-133.692
0
LINE
8
BLACK
6
CONTINUOUS
10
193.33
20
-133.692
11
193.263
21
-133.692
0
LINE
8
BLACK
6
CONTINUOUS
10
193.263
20
-133.692
11
193.197
21
-133.216
0
LINE
8
BLACK
6
CONTINUOUS
10
192.963
20
-134.549
11
193.663
21
-134.549
0
LINE
8
BLACK
6
CONTINUOUS
10
192.997
20
-134.549
11
192.963
21
-134.454
0
LINE
8
BLACK
6
CONTINUOUS
10
192.963
20
-134.454
11
192.963
21
-134.263
0
LINE
8
BLACK
6
CONTINUOUS
10
192.963
20
-134.263
11
192.997
21
-134.168
0
LINE
8
BLACK
6
CONTINUOUS
10
192.997
20
-134.168
11
193.03
21
-134.12
0
LINE
8
BLACK
6
CONTINUOUS
10
193.03
20
-134.12
11
193.097
21
-134.073
0
LINE
8
BLACK
6
CONTINUOUS
10
193.097
20
-134.073
11
193.297
21
-134.073
0
LINE
8
BLACK
6
CONTINUOUS
10
193.297
20
-134.073
11
193.363
21
-134.12
0
LINE
8
BLACK
6
CONTINUOUS
10
193.363
20
-134.12
11
193.397
21
-134.168
0
LINE
8
BLACK
6
CONTINUOUS
10
193.397
20
-134.168
11
193.43
21
-134.263
0
LINE
8
BLACK
6
CONTINUOUS
10
193.43
20
-134.263
11
193.43
21
-134.454
0
LINE
8
BLACK
6
CONTINUOUS
10
193.43
20
-134.454
11
193.397
21
-134.549
0
LINE
8
BLACK
6
CONTINUOUS
10
191.763
20
-129.287
11
192.463
21
-129.287
0
LINE
8
BLACK
6
CONTINUOUS
10
192.197
20
-129.287
11
192.23
21
-129.382
0
LINE
8
BLACK
6
CONTINUOUS
10
192.23
20
-129.382
11
192.23
21
-129.573
0
LINE
8
BLACK
6
CONTINUOUS
10
192.23
20
-129.573
11
192.197
21
-129.668
0
LINE
8
BLACK
6
CONTINUOUS
10
192.197
20
-129.668
11
192.163
21
-129.716
0
LINE
8
BLACK
6
CONTINUOUS
10
192.163
20
-129.716
11
192.097
21
-129.763
0
LINE
8
BLACK
6
CONTINUOUS
10
192.097
20
-129.763
11
191.897
21
-129.763
0
LINE
8
BLACK
6
CONTINUOUS
10
191.897
20
-129.763
11
191.83
21
-129.716
0
LINE
8
BLACK
6
CONTINUOUS
10
191.83
20
-129.716
11
191.797
21
-129.668
0
LINE
8
BLACK
6
CONTINUOUS
10
191.797
20
-129.668
11
191.763
21
-129.573
0
LINE
8
BLACK
6
CONTINUOUS
10
191.763
20
-129.573
11
191.763
21
-129.382
0
LINE
8
BLACK
6
CONTINUOUS
10
191.763
20
-129.382
11
191.797
21
-129.287
0
LINE
8
BLACK
6
CONTINUOUS
10
192.23
20
-130.097
11
191.763
21
-130.335
0
LINE
8
BLACK
6
CONTINUOUS
10
192.23
20
-130.573
11
191.763
21
-130.335
0
LINE
8
BLACK
6
CONTINUOUS
10
191.763
20
-130.335
11
191.597
21
-130.24
0
LINE
8
BLACK
6
CONTINUOUS
10
191.597
20
-130.24
11
191.563
21
-130.192
0
LINE
8
BLACK
6
CONTINUOUS
10
191.563
20
-130.192
11
191.53
21
-130.097
0
LINE
8
BLACK
6
CONTINUOUS
10
192.13
20
-132.049
11
192.097
21
-132.192
0
LINE
8
BLACK
6
CONTINUOUS
10
192.097
20
-132.192
11
192.063
21
-132.24
0
LINE
8
BLACK
6
CONTINUOUS
10
192.063
20
-132.24
11
191.997
21
-132.287
0
LINE
8
BLACK
6
CONTINUOUS
10
191.997
20
-132.287
11
191.897
21
-132.287
0
LINE
8
BLACK
6
CONTINUOUS
10
191.897
20
-132.287
11
191.83
21
-132.24
0
LINE
8
BLACK
6
CONTINUOUS
10
191.83
20
-132.24
11
191.797
21
-132.192
0
LINE
8
BLACK
6
CONTINUOUS
10
191.797
20
-132.192
11
191.763
21
-132.097
0
LINE
8
BLACK
6
CONTINUOUS
10
191.763
20
-132.097
11
191.763
21
-131.716
0
LINE
8
BLACK
6
CONTINUOUS
10
191.763
20
-131.716
11
192.463
21
-131.716
0
LINE
8
BLACK
6
CONTINUOUS
10
192.463
20
-131.716
11
192.463
21
-132.049
0
LINE
8
BLACK
6
CONTINUOUS
10
192.463
20
-132.049
11
192.43
21
-132.144
0
LINE
8
BLACK
6
CONTINUOUS
10
192.43
20
-132.144
11
192.397
21
-132.192
0
LINE
8
BLACK
6
CONTINUOUS
10
192.397
20
-132.192
11
192.33
21
-132.24
0
LINE
8
BLACK
6
CONTINUOUS
10
192.33
20
-132.24
11
192.263
21
-132.24
0
LINE
8
BLACK
6
CONTINUOUS
10
192.263
20
-132.24
11
192.197
21
-132.192
0
LINE
8
BLACK
6
CONTINUOUS
10
192.197
20
-132.192
11
192.163
21
-132.144
0
LINE
8
BLACK
6
CONTINUOUS
10
192.163
20
-132.144
11
192.13
21
-132.049
0
LINE
8
BLACK
6
CONTINUOUS
10
192.13
20
-132.049
11
192.13
21
-131.716
0
LINE
8
BLACK
6
CONTINUOUS
10
191.763
20
-133.144
11
192.13
21
-133.144
0
LINE
8
BLACK
6
CONTINUOUS
10
192.13
20
-133.144
11
192.197
21
-133.097
0
LINE
8
BLACK
6
CONTINUOUS
10
192.197
20
-133.097
11
192.23
21
-133.001
0
LINE
8
BLACK
6
CONTINUOUS
10
192.23
20
-133.001
11
192.23
21
-132.811
0
LINE
8
BLACK
6
CONTINUOUS
10
192.23
20
-132.811
11
192.197
21
-132.716
0
LINE
8
BLACK
6
CONTINUOUS
10
191.797
20
-133.144
11
191.763
21
-133.049
0
LINE
8
BLACK
6
CONTINUOUS
10
191.763
20
-133.049
11
191.763
21
-132.811
0
LINE
8
BLACK
6
CONTINUOUS
10
191.763
20
-132.811
11
191.797
21
-132.716
0
LINE
8
BLACK
6
CONTINUOUS
10
191.797
20
-132.716
11
191.863
21
-132.668
0
LINE
8
BLACK
6
CONTINUOUS
10
191.863
20
-132.668
11
191.93
21
-132.668
0
LINE
8
BLACK
6
CONTINUOUS
10
191.93
20
-132.668
11
191.997
21
-132.716
0
LINE
8
BLACK
6
CONTINUOUS
10
191.997
20
-132.716
11
192.03
21
-132.811
0
LINE
8
BLACK
6
CONTINUOUS
10
192.03
20
-132.811
11
192.03
21
-133.049
0
LINE
8
BLACK
6
CONTINUOUS
10
192.03
20
-133.049
11
192.063
21
-133.144
0
LINE
8
BLACK
6
CONTINUOUS
10
191.763
20
-133.62
11
192.23
21
-133.62
0
LINE
8
BLACK
6
CONTINUOUS
10
192.097
20
-133.62
11
192.163
21
-133.668
0
LINE
8
BLACK
6
CONTINUOUS
10
192.163
20
-133.668
11
192.197
21
-133.716
0
LINE
8
BLACK
6
CONTINUOUS
10
192.197
20
-133.716
11
192.23
21
-133.811
0
LINE
8
BLACK
6
CONTINUOUS
10
192.23
20
-133.811
11
192.23
21
-133.906
0
LINE
8
BLACK
6
CONTINUOUS
10
192.23
20
-134.097
11
192.23
21
-134.478
0
LINE
8
BLACK
6
CONTINUOUS
10
192.463
20
-134.24
11
191.863
21
-134.24
0
LINE
8
BLACK
6
CONTINUOUS
10
191.863
20
-134.24
11
191.797
21
-134.287
0
LINE
8
BLACK
6
CONTINUOUS
10
191.797
20
-134.287
11
191.763
21
-134.382
0
LINE
8
BLACK
6
CONTINUOUS
10
191.763
20
-134.382
11
191.763
21
-134.478
0
LINE
8
BLACK
6
CONTINUOUS
10
196.916
20
-97.2245
11
196.483
21
-96.5513
0
LINE
8
BLACK
6
CONTINUOUS
10
191.499
20
-102.483
11
190.838
21
-102.034
0
LINE
8
BLACK
6
CONTINUOUS
10
189.051
20
-107.978
11
188.275
21
-107.783
0
LINE
8
BLACK
6
CONTINUOUS
10
188.461
20
-113.689
11
187.663
21
-113.735
0
LINE
8
BLACK
6
CONTINUOUS
10
194.904
20
-126.584
11
194.387
21
-127.194
0
LINE
8
BLACK
6
CONTINUOUS
10
222.487
20
-121.579
11
223.179
21
-121.979
0
LINE
8
BLACK
6
CONTINUOUS
10
224.337
20
-116.82
11
225.117
21
-116.997
0
LINE
8
BLACK
6
CONTINUOUS
10
224.799
20
-113.945
11
225.597
21
-114
0
LINE
8
BLACK
6
CONTINUOUS
10
224.691
20
-110.454
11
225.485
21
-110.357
0
CIRCLE
8
BLACK
10
219.96
20
-94.18
40
1.2
0
CIRCLE
8
BLACK
10
188.08
20
-119.87
40
1.2
0
CIRCLE
8
BLACK
10
226.43
20
-117.97
40
1.2
0
CIRCLE
8
BLACK
10
193.32
20
-94.18
40
1.2
0
LINE
8
BLACK
6
CONTINUOUS
10
199.908
20
-95.6944
11
199.602
21
-94.9553
0
LINE
8
BLACK
6
CONTINUOUS
10
193.219
20
-103.673
11
193.381
21
-103.673
0
LINE
8
BLACK
6
CONTINUOUS
10
193.381
20
-103.673
11
193.543
21
-103.73
0
LINE
8
BLACK
6
CONTINUOUS
10
193.543
20
-103.73
11
193.624
21
-103.787
0
LINE
8
BLACK
6
CONTINUOUS
10
193.624
20
-103.787
11
193.705
21
-103.901
0
LINE
8
BLACK
6
CONTINUOUS
10
193.705
20
-103.901
11
193.786
21
-104.13
0
LINE
8
BLACK
6
CONTINUOUS
10
193.786
20
-104.13
11
193.786
21
-104.416
0
LINE
8
BLACK
6
CONTINUOUS
10
193.786
20
-104.416
11
193.705
21
-104.644
0
LINE
8
BLACK
6
CONTINUOUS
10
193.705
20
-104.644
11
193.624
21
-104.759
0
LINE
8
BLACK
6
CONTINUOUS
10
193.624
20
-104.759
11
193.543
21
-104.816
0
LINE
8
BLACK
6
CONTINUOUS
10
193.543
20
-104.816
11
193.381
21
-104.873
0
LINE
8
BLACK
6
CONTINUOUS
10
193.381
20
-104.873
11
193.219
21
-104.873
0
LINE
8
BLACK
6
CONTINUOUS
10
193.219
20
-104.873
11
193.057
21
-104.816
0
LINE
8
BLACK
6
CONTINUOUS
10
193.057
20
-104.816
11
192.976
21
-104.759
0
LINE
8
BLACK
6
CONTINUOUS
10
192.976
20
-104.759
11
192.895
21
-104.644
0
LINE
8
BLACK
6
CONTINUOUS
10
192.895
20
-104.644
11
192.814
21
-104.416
0
LINE
8
BLACK
6
CONTINUOUS
10
192.814
20
-104.416
11
192.814
21
-104.13
0
LINE
8
BLACK
6
CONTINUOUS
10
192.814
20
-104.13
11
192.895
21
-103.901
0
LINE
8
BLACK
6
CONTINUOUS
10
192.895
20
-103.901
11
192.976
21
-103.787
0
LINE
8
BLACK
6
CONTINUOUS
10
192.976
20
-103.787
11
193.057
21
-103.73
0
LINE
8
BLACK
6
CONTINUOUS
10
193.057
20
-103.73
11
193.219
21
-103.673
0
LINE
8
BLACK
6
CONTINUOUS
10
215.382
20
-101.889
11
216.019
21
-101.118
0
LINE
8
BLACK
6
CONTINUOUS
10
207.502
20
-98.7915
11
207.564
21
-97.7935
0
LINE
8
BLACK
6
CONTINUOUS
10
220.468
20
-112.6
11
221.468
21
-112.6
0
LINE
8
BLACK
6
CONTINUOUS
10
220.449
20
-111.748
11
221.447
21
-111.686
0
LINE
8
BLACK
6
CONTINUOUS
10
220.361
20
-110.897
11
221.353
21
-110.771
0
LINE
8
BLACK
6
CONTINUOUS
10
220.246
20
-110.045
11
221.228
21
-109.857
0
LINE
8
BLACK
6
CONTINUOUS
10
220.042
20
-109.213
11
221.01
21
-108.964
0
LINE
8
BLACK
6
CONTINUOUS
10
219.845
20
-108.35
11
221.271
21
-107.886
0
LINE
8
BLACK
6
CONTINUOUS
10
219.529
20
-107.577
11
220.459
21
-107.208
0
LINE
8
BLACK
6
CONTINUOUS
10
219.191
20
-106.793
11
220.095
21
-106.367
0
LINE
8
BLACK
6
CONTINUOUS
10
210.84
20
-99.4202
11
211.149
21
-98.4692
0
LINE
8
BLACK
6
CONTINUOUS
10
218.368
20
-105.282
11
219.212
21
-104.747
0
LINE
8
BLACK
6
CONTINUOUS
10
213.192
20
-100.426
11
213.674
21
-99.5501
0
LINE
8
BLACK
6
CONTINUOUS
10
209.205
20
-99.0244
11
209.393
21
-98.0421
0
LINE
8
BLACK
6
CONTINUOUS
10
217.904
20
-104.566
11
218.713
21
-103.978
0
LINE
8
BLACK
6
CONTINUOUS
10
216.1
20
-102.51
11
216.785
21
-101.781
0
LINE
8
BLACK
6
CONTINUOUS
10
213.938
20
-100.852
11
214.473
21
-100.008
0
LINE
8
BLACK
6
CONTINUOUS
10
217.351
20
-103.848
11
218.122
21
-103.211
0
LINE
8
BLACK
6
CONTINUOUS
10
214.741
20
-101.299
11
215.623
21
-100.085
0
LINE
8
BLACK
6
CONTINUOUS
10
218.804
20
-106.028
11
219.68
21
-105.546
0
LINE
8
BLACK
6
CONTINUOUS
10
210.037
20
-99.1882
11
210.286
21
-98.2196
0
LINE
8
BLACK
6
CONTINUOUS
10
212.437
20
-100.039
11
212.863
21
-99.1345
0
LINE
8
BLACK
6
CONTINUOUS
10
216.76
20
-103.17
11
217.489
21
-102.485
0
LINE
8
BLACK
6
CONTINUOUS
10
211.643
20
-99.7106
11
212.012
21
-98.7808
0
LINE
8
BLACK
6
CONTINUOUS
10
208.353
20
-98.8788
11
208.479
21
-97.8867
0
LINE
8
BLACK
6
CONTINUOUS
10
217.351
20
-121.342
11
218.122
21
-121.979
0
LINE
8
BLACK
6
CONTINUOUS
10
220.449
20
-113.462
11
221.447
21
-113.524
0
LINE
8
BLACK
6
CONTINUOUS
10
206.65
20
-126.472
11
206.65
21
-127.772
0
LINE
8
BLACK
6
CONTINUOUS
10
207.492
20
-126.409
11
207.554
21
-127.407
0
LINE
8
BLACK
6
CONTINUOUS
10
208.343
20
-126.321
11
208.469
21
-127.313
0
LINE
8
BLACK
6
CONTINUOUS
10
209.195
20
-126.206
11
209.383
21
-127.188
0
LINE
8
BLACK
6
CONTINUOUS
10
210.027
20
-126.002
11
210.276
21
-126.97
0
LINE
8
BLACK
6
CONTINUOUS
10
210.85
20
-125.76
11
211.159
21
-126.711
0
LINE
8
BLACK
6
CONTINUOUS
10
211.663
20
-125.489
11
212.032
21
-126.419
0
LINE
8
BLACK
6
CONTINUOUS
10
212.447
20
-125.151
11
212.873
21
-126.055
0
LINE
8
BLACK
6
CONTINUOUS
10
219.865
20
-116.83
11
221.291
21
-117.294
0
LINE
8
BLACK
6
CONTINUOUS
10
213.958
20
-124.328
11
214.493
21
-125.172
0
LINE
8
BLACK
6
CONTINUOUS
10
218.814
20
-119.152
11
219.69
21
-119.634
0
LINE
8
BLACK
6
CONTINUOUS
10
220.216
20
-115.165
11
221.198
21
-115.353
0
LINE
8
BLACK
6
CONTINUOUS
10
214.741
20
-123.881
11
215.623
21
-125.095
0
LINE
8
BLACK
6
CONTINUOUS
10
216.73
20
-122.06
11
217.459
21
-122.745
0
LINE
8
BLACK
6
CONTINUOUS
10
218.388
20
-119.898
11
219.232
21
-120.433
0
LINE
8
BLACK
6
CONTINUOUS
10
215.392
20
-123.311
11
216.029
21
-124.082
0
LINE
8
BLACK
6
CONTINUOUS
10
217.914
20
-120.634
11
218.723
21
-121.222
0
LINE
8
BLACK
6
CONTINUOUS
10
213.212
20
-124.764
11
213.694
21
-125.64
0
LINE
8
BLACK
6
CONTINUOUS
10
220.052
20
-115.997
11
221.02
21
-116.246
0
LINE
8
BLACK
6
CONTINUOUS
10
219.201
20
-118.397
11
220.105
21
-118.823
0
LINE
8
BLACK
6
CONTINUOUS
10
216.07
20
-122.72
11
216.755
21
-123.449
0
LINE
8
BLACK
6
CONTINUOUS
10
219.529
20
-117.603
11
220.459
21
-117.972
0
LINE
8
BLACK
6
CONTINUOUS
10
220.361
20
-114.313
11
221.353
21
-114.439
0
LINE
8
BLACK
6
CONTINUOUS
10
197.898
20
-123.311
11
197.261
21
-124.082
0
LINE
8
BLACK
6
CONTINUOUS
10
205.778
20
-126.409
11
205.716
21
-127.407
0
LINE
8
BLACK
6
CONTINUOUS
10
192.831
20
-113.452
11
191.833
21
-113.514
0
LINE
8
BLACK
6
CONTINUOUS
10
192.919
20
-114.303
11
191.927
21
-114.429
0
LINE
8
BLACK
6
CONTINUOUS
10
193.034
20
-115.155
11
192.052
21
-115.343
0
LINE
8
BLACK
6
CONTINUOUS
10
193.238
20
-115.987
11
192.27
21
-116.236
0
LINE
8
BLACK
6
CONTINUOUS
10
193.415
20
-116.81
11
191.989
21
-117.274
0
LINE
8
BLACK
6
CONTINUOUS
10
193.751
20
-117.623
11
192.821
21
-117.992
0
LINE
8
BLACK
6
CONTINUOUS
10
194.089
20
-118.407
11
193.184
21
-118.833
0
LINE
8
BLACK
6
CONTINUOUS
10
202.44
20
-125.78
11
202.131
21
-126.731
0
LINE
8
BLACK
6
CONTINUOUS
10
194.912
20
-119.918
11
194.068
21
-120.453
0
LINE
8
BLACK
6
CONTINUOUS
10
200.088
20
-124.774
11
199.606
21
-125.65
0
LINE
8
BLACK
6
CONTINUOUS
10
204.075
20
-126.176
11
203.887
21
-127.158
0
LINE
8
BLACK
6
CONTINUOUS
10
195.376
20
-120.634
11
194.567
21
-121.222
0
LINE
8
BLACK
6
CONTINUOUS
10
197.18
20
-122.69
11
196.495
21
-123.419
0
LINE
8
BLACK
6
CONTINUOUS
10
199.342
20
-124.348
11
198.807
21
-125.192
0
LINE
8
BLACK
6
CONTINUOUS
10
195.929
20
-121.352
11
195.158
21
-121.989
0
LINE
8
BLACK
6
CONTINUOUS
10
198.599
20
-123.911
11
197.717
21
-125.125
0
LINE
8
BLACK
6
CONTINUOUS
10
194.476
20
-119.172
11
193.6
21
-119.654
0
LINE
8
BLACK
6
CONTINUOUS
10
203.243
20
-126.012
11
202.994
21
-126.98
0
LINE
8
BLACK
6
CONTINUOUS
10
200.843
20
-125.161
11
200.417
21
-126.066
0
LINE
8
BLACK
6
CONTINUOUS
10
196.52
20
-122.03
11
195.791
21
-122.715
0
LINE
8
BLACK
6
CONTINUOUS
10
201.637
20
-125.489
11
201.268
21
-126.419
0
LINE
8
BLACK
6
CONTINUOUS
10
204.927
20
-126.321
11
204.801
21
-127.313
0
LINE
8
BLACK
6
CONTINUOUS
10
192.782
20
-112.6
11
191.782
21
-112.6
0
LINE
8
BLACK
6
CONTINUOUS
10
192.831
20
-111.738
11
191.833
21
-111.676
0
LINE
8
BLACK
6
CONTINUOUS
10
192.919
20
-110.887
11
191.927
21
-110.761
0
LINE
8
BLACK
6
CONTINUOUS
10
193.064
20
-110.035
11
192.082
21
-109.847
0
LINE
8
BLACK
6
CONTINUOUS
10
193.228
20
-109.203
11
192.26
21
-108.954
0
LINE
8
BLACK
6
CONTINUOUS
10
193.415
20
-108.37
11
191.989
21
-107.906
0
LINE
8
BLACK
6
CONTINUOUS
10
193.751
20
-107.597
11
192.821
21
-107.228
0
LINE
8
BLACK
6
CONTINUOUS
10
194.079
20
-106.803
11
193.174
21
-106.377
0
LINE
8
BLACK
6
CONTINUOUS
10
194.466
20
-106.048
11
193.59
21
-105.566
0
LINE
8
BLACK
6
CONTINUOUS
10
194.892
20
-105.302
11
194.048
21
-104.767
0
LINE
8
BLACK
6
CONTINUOUS
10
195.366
20
-104.566
11
194.557
21
-103.978
0
LINE
8
BLACK
6
CONTINUOUS
10
195.929
20
-103.858
11
195.158
21
-103.221
0
LINE
8
BLACK
6
CONTINUOUS
10
196.55
20
-103.14
11
195.821
21
-102.455
0
LINE
8
BLACK
6
CONTINUOUS
10
197.21
20
-102.48
11
196.525
21
-101.751
0
LINE
8
BLACK
6
CONTINUOUS
10
197.888
20
-101.889
11
197.251
21
-101.118
0
LINE
8
BLACK
6
CONTINUOUS
10
198.579
20
-101.319
11
197.697
21
-100.105
0
LINE
8
BLACK
6
CONTINUOUS
10
199.322
20
-100.872
11
198.787
21
-100.028
0
LINE
8
BLACK
6
CONTINUOUS
10
200.068
20
-100.436
11
199.586
21
-99.5601
0
LINE
8
BLACK
6
CONTINUOUS
10
200.833
20
-100.049
11
200.407
21
-99.1445
0
LINE
8
BLACK
6
CONTINUOUS
10
201.617
20
-99.7106
11
201.248
21
-98.7808
0
LINE
8
BLACK
6
CONTINUOUS
10
202.43
20
-99.4402
11
202.121
21
-98.4892
0
LINE
8
BLACK
6
CONTINUOUS
10
203.253
20
-99.1982
11
203.004
21
-98.2296
0
LINE
8
BLACK
6
CONTINUOUS
10
204.085
20
-98.9944
11
203.897
21
-98.0121
0
LINE
8
BLACK
6
CONTINUOUS
10
204.937
20
-98.8788
11
204.811
21
-97.8867
0
LINE
8
BLACK
6
CONTINUOUS
10
205.788
20
-98.7915
11
205.726
21
-97.7935
0
LINE
8
BLACK
6
CONTINUOUS
10
206.64
20
-98.7281
11
206.64
21
-97.4281
0
LINE
8
BLACK
6
CONTINUOUS
10
189.199
20
-112.63
11
189.008
21
-112.821
0
LINE
8
BLACK
6
CONTINUOUS
10
189.008
20
-112.821
11
188.818
21
-112.63
0
LINE
8
BLACK
6
CONTINUOUS
10
188.818
20
-112.63
11
189.008
21
-112.44
0
LINE
8
BLACK
6
CONTINUOUS
10
189.008
20
-112.44
11
189.199
21
-112.63
0
LINE
8
BLACK
6
CONTINUOUS
10
189.199
20
-112.63
11
188.818
21
-112.63
0
LINE
8
BLACK
6
CONTINUOUS
10
206.665
20
-130.036
11
206.856
21
-130.227
0
LINE
8
BLACK
6
CONTINUOUS
10
206.856
20
-130.227
11
206.665
21
-130.417
0
LINE
8
BLACK
6
CONTINUOUS
10
206.665
20
-130.417
11
206.475
21
-130.227
0
LINE
8
BLACK
6
CONTINUOUS
10
206.475
20
-130.227
11
206.665
21
-130.036
0
LINE
8
BLACK
6
CONTINUOUS
10
206.665
20
-130.036
11
206.665
21
-130.417
0
LINE
8
BLACK
6
CONTINUOUS
10
220.442
20
-122.471
11
221.251
21
-123.059
0
LINE
8
BLACK
6
CONTINUOUS
10
213.335
20
-128.242
11
213.741
21
-129.155
0
LINE
8
BLACK
6
CONTINUOUS
10
218.004
20
-125.258
11
218.673
21
-126.001
0
LINE
8
BLACK
6
CONTINUOUS
10
218.707
20
-124.936
11
219.197
21
-125.436
0
LINE
8
BLACK
6
CONTINUOUS
10
208.069
20
-129.876
11
208.128
21
-130.574
0
LINE
8
BLACK
6
CONTINUOUS
10
218.982
20
-124.674
11
219.482
21
-125.164
0
LINE
8
BLACK
6
CONTINUOUS
10
212.507
20
-128.904
11
212.751
21
-129.56
0
LINE
8
BLACK
6
CONTINUOUS
10
208.755
20
-129.763
11
208.842
21
-130.458
0
LINE
8
BLACK
6
CONTINUOUS
10
212.221
20
-129.016
11
212.451
21
-129.677
0
LINE
8
BLACK
6
CONTINUOUS
10
209.776
20
-129.614
11
209.907
21
-130.302
0
LINE
8
BLACK
6
CONTINUOUS
10
214.076
20
-128.232
11
214.388
21
-128.859
0
LINE
8
BLACK
6
CONTINUOUS
10
215.775
20
-127.295
11
216.15
21
-127.886
0
LINE
8
BLACK
6
CONTINUOUS
10
216.437
20
-126.833
11
216.836
21
-127.408
0
LINE
8
BLACK
6
CONTINUOUS
10
207.435
20
-129.901
11
207.464
21
-130.6
0
LINE
8
BLACK
6
CONTINUOUS
10
210.097
20
-129.254
11
210.305
21
-130.232
0
LINE
8
BLACK
6
CONTINUOUS
10
210.836
20
-129.428
11
211.01
21
-130.106
0
LINE
8
BLACK
6
CONTINUOUS
10
210.525
20
-129.502
11
210.685
21
-130.184
0
LINE
8
BLACK
6
CONTINUOUS
10
215.319
20
-128.142
11
215.059
21
-128.072
0
LINE
8
BLACK
6
CONTINUOUS
10
215.059
20
-128.072
11
215.128
21
-127.812
0
LINE
8
BLACK
6
CONTINUOUS
10
215.128
20
-127.812
11
215.389
21
-127.882
0
LINE
8
BLACK
6
CONTINUOUS
10
215.389
20
-127.882
11
215.319
21
-128.142
0
LINE
8
BLACK
6
CONTINUOUS
10
215.319
20
-128.142
11
215.128
21
-127.812
0
LINE
8
BLACK
6
CONTINUOUS
10
221.103
20
-122.054
11
221.686
21
-122.441
0
LINE
8
BLACK
6
CONTINUOUS
10
214.375
20
-128.07
11
214.699
21
-128.69
0
LINE
8
BLACK
6
CONTINUOUS
10
217.922
20
-125.71
11
218.379
21
-126.24
0
LINE
8
BLACK
6
CONTINUOUS
10
207.746
20
-129.876
11
207.79
21
-130.574
0
LINE
8
BLACK
6
CONTINUOUS
10
217.373
20
-126.134
11
217.808
21
-126.682
0
LINE
8
BLACK
6
CONTINUOUS
10
212.805
20
-128.805
11
213.063
21
-129.456
0
LINE
8
BLACK
6
CONTINUOUS
10
216.567
20
-126.371
11
217.155
21
-127.18
0
LINE
8
BLACK
6
CONTINUOUS
10
220.268
20
-123.277
11
220.817
21
-123.712
0
LINE
8
BLACK
6
CONTINUOUS
10
208.404
20
-129.539
11
208.509
21
-130.533
0
LINE
8
BLACK
6
CONTINUOUS
10
216.125
20
-127.07
11
216.512
21
-127.653
0
LINE
8
BLACK
6
CONTINUOUS
10
219.317
20
-123.933
11
220.06
21
-124.602
0
LINE
8
BLACK
6
CONTINUOUS
10
211.509
20
-129.228
11
211.712
21
-129.898
0
LINE
8
BLACK
6
CONTINUOUS
10
213.777
20
-128.394
11
214.076
21
-129.027
0
LINE
8
BLACK
6
CONTINUOUS
10
217.086
20
-126.371
11
217.51
21
-126.928
0
LINE
8
BLACK
6
CONTINUOUS
10
220.48
20
-122.952
11
221.038
21
-123.375
0
LINE
8
BLACK
6
CONTINUOUS
10
209.402
20
-129.702
11
209.519
21
-130.392
0
LINE
8
BLACK
6
CONTINUOUS
10
221.29
20
-121.78
11
221.881
21
-122.155
0
LINE
8
BLACK
6
CONTINUOUS
10
220.917
20
-122.34
11
221.491
21
-122.74
0
LINE
8
BLACK
6
CONTINUOUS
10
219.756
20
-123.813
11
220.286
21
-124.27
0
LINE
8
BLACK
6
CONTINUOUS
10
223.896
20
-113.437
11
224.595
21
-113.466
0
LINE
8
BLACK
6
CONTINUOUS
10
223.874
20
-113.776
11
224.573
21
-113.82
0
LINE
8
BLACK
6
CONTINUOUS
10
223.858
20
-114.138
11
224.556
21
-114.196
0
LINE
8
BLACK
6
CONTINUOUS
10
222.153
20
-121.386
11
221.893
21
-121.455
0
LINE
8
BLACK
6
CONTINUOUS
10
221.893
20
-121.455
11
221.823
21
-121.195
0
LINE
8
BLACK
6
CONTINUOUS
10
221.823
20
-121.195
11
222.083
21
-121.126
0
LINE
8
BLACK
6
CONTINUOUS
10
222.083
20
-121.126
11
222.153
21
-121.386
0
LINE
8
BLACK
6
CONTINUOUS
10
222.153
20
-121.386
11
221.823
21
-121.195
0
LINE
8
BLACK
6
CONTINUOUS
10
223.721
20
-115.198
11
224.413
21
-115.3
0
LINE
8
BLACK
6
CONTINUOUS
10
223.681
20
-115.577
11
224.372
21
-115.694
0
LINE
8
BLACK
6
CONTINUOUS
10
223.784
20
-114.836
11
224.478
21
-114.924
0
LINE
8
BLACK
6
CONTINUOUS
10
223.611
20
-115.926
11
224.299
21
-116.057
0
LINE
8
BLACK
6
CONTINUOUS
10
223.308
20
-117.083
11
223.986
21
-117.257
0
LINE
8
BLACK
6
CONTINUOUS
10
223.221
20
-117.432
11
223.895
21
-117.62
0
LINE
8
BLACK
6
CONTINUOUS
10
223.421
20
-116.721
11
224.103
21
-116.881
0
LINE
8
BLACK
6
CONTINUOUS
10
223.134
20
-117.756
11
223.804
21
-117.958
0
LINE
8
BLACK
6
CONTINUOUS
10
223.521
20
-114.447
11
224.515
21
-114.552
0
LINE
8
BLACK
6
CONTINUOUS
10
223.236
20
-116.293
11
224.214
21
-116.501
0
LINE
8
BLACK
6
CONTINUOUS
10
222.753
20
-118.012
11
223.704
21
-118.321
0
LINE
8
BLACK
6
CONTINUOUS
10
222.16
20
-119.505
11
223.074
21
-119.912
0
LINE
8
BLACK
6
CONTINUOUS
10
219.244
20
-124.412
11
219.754
21
-124.892
0
LINE
8
BLACK
6
CONTINUOUS
10
211.779
20
-128.822
11
212.088
21
-129.773
0
LINE
8
BLACK
6
CONTINUOUS
10
213.129
20
-128.668
11
213.4
21
-129.313
0
LINE
8
BLACK
6
CONTINUOUS
10
222.798
20
-118.715
11
223.454
21
-118.959
0
LINE
8
BLACK
6
CONTINUOUS
10
222.673
20
-119.001
11
223.324
21
-119.258
0
LINE
8
BLACK
6
CONTINUOUS
10
222.897
20
-118.416
11
223.558
21
-118.646
0
LINE
8
BLACK
6
CONTINUOUS
10
222.561
20
-119.325
11
223.206
21
-119.596
0
LINE
8
BLACK
6
CONTINUOUS
10
222.125
20
-120.221
11
222.752
21
-120.532
0
LINE
8
BLACK
6
CONTINUOUS
10
222.001
20
-120.495
11
222.621
21
-120.819
0
LINE
8
BLACK
6
CONTINUOUS
10
222.287
20
-119.948
11
222.921
21
-120.246
0
LINE
8
BLACK
6
CONTINUOUS
10
220.031
20
-123.576
11
220.57
21
-124.023
0
LINE
8
BLACK
6
CONTINUOUS
10
209.065
20
-129.726
11
209.168
21
-130.419
0
LINE
8
BLACK
6
CONTINUOUS
10
211.16
20
-129.315
11
211.348
21
-129.989
0
LINE
8
BLACK
6
CONTINUOUS
10
217.66
20
-125.909
11
218.106
21
-126.448
0
LINE
8
BLACK
6
CONTINUOUS
10
218.445
20
-125.211
11
218.925
21
-125.721
0
LINE
8
BLACK
6
CONTINUOUS
10
196.769
20
-126.402
11
196.181
21
-127.211
0
LINE
8
BLACK
6
CONTINUOUS
10
190.998
20
-119.295
11
190.085
21
-119.701
0
LINE
8
BLACK
6
CONTINUOUS
10
193.982
20
-123.964
11
193.239
21
-124.633
0
LINE
8
BLACK
6
CONTINUOUS
10
194.304
20
-124.667
11
193.804
21
-125.157
0
LINE
8
BLACK
6
CONTINUOUS
10
189.364
20
-114.029
11
188.666
21
-114.088
0
LINE
8
BLACK
6
CONTINUOUS
10
194.566
20
-124.942
11
194.076
21
-125.442
0
LINE
8
BLACK
6
CONTINUOUS
10
190.336
20
-118.467
11
189.68
21
-118.711
0
LINE
8
BLACK
6
CONTINUOUS
10
189.477
20
-114.715
11
188.782
21
-114.802
0
LINE
8
BLACK
6
CONTINUOUS
10
190.224
20
-118.181
11
189.563
21
-118.411
0
LINE
8
BLACK
6
CONTINUOUS
10
189.626
20
-115.736
11
188.938
21
-115.867
0
LINE
8
BLACK
6
CONTINUOUS
10
191.008
20
-120.036
11
190.381
21
-120.348
0
LINE
8
BLACK
6
CONTINUOUS
10
191.945
20
-121.735
11
191.354
21
-122.11
0
LINE
8
BLACK
6
CONTINUOUS
10
192.407
20
-122.397
11
191.832
21
-122.796
0
LINE
8
BLACK
6
CONTINUOUS
10
189.339
20
-113.395
11
188.64
21
-113.424
0
LINE
8
BLACK
6
CONTINUOUS
10
189.986
20
-116.057
11
189.008
21
-116.265
0
LINE
8
BLACK
6
CONTINUOUS
10
189.812
20
-116.796
11
189.134
21
-116.97
0
LINE
8
BLACK
6
CONTINUOUS
10
189.738
20
-116.485
11
189.056
21
-116.645
0
LINE
8
BLACK
6
CONTINUOUS
10
191.098
20
-121.279
11
191.168
21
-121.019
0
LINE
8
BLACK
6
CONTINUOUS
10
191.168
20
-121.019
11
191.428
21
-121.088
0
LINE
8
BLACK
6
CONTINUOUS
10
191.428
20
-121.088
11
191.358
21
-121.349
0
LINE
8
BLACK
6
CONTINUOUS
10
191.358
20
-121.349
11
191.098
21
-121.279
0
LINE
8
BLACK
6
CONTINUOUS
10
191.098
20
-121.279
11
191.428
21
-121.088
0
LINE
8
BLACK
6
CONTINUOUS
10
197.186
20
-127.063
11
196.799
21
-127.646
0
LINE
8
BLACK
6
CONTINUOUS
10
191.17
20
-120.335
11
190.55
21
-120.659
0
LINE
8
BLACK
6
CONTINUOUS
10
193.53
20
-123.882
11
193
21
-124.339
0
LINE
8
BLACK
6
CONTINUOUS
10
189.364
20
-113.706
11
188.666
21
-113.75
0
LINE
8
BLACK
6
CONTINUOUS
10
193.106
20
-123.333
11
192.558
21
-123.768
0
LINE
8
BLACK
6
CONTINUOUS
10
190.435
20
-118.765
11
189.784
21
-119.023
0
LINE
8
BLACK
6
CONTINUOUS
10
192.869
20
-122.527
11
192.06
21
-123.115
0
LINE
8
BLACK
6
CONTINUOUS
10
195.963
20
-126.228
11
195.528
21
-126.777
0
LINE
8
BLACK
6
CONTINUOUS
10
189.72
20
-114.353
11
188.725
21
-114.457
0
LINE
8
BLACK
6
CONTINUOUS
10
192.17
20
-122.085
11
191.587
21
-122.472
0
LINE
8
BLACK
6
CONTINUOUS
10
195.307
20
-125.277
11
194.638
21
-126.02
0
LINE
8
BLACK
6
CONTINUOUS
10
190.012
20
-117.469
11
189.342
21
-117.672
0
LINE
8
BLACK
6
CONTINUOUS
10
190.846
20
-119.737
11
190.213
21
-120.036
0
LINE
8
BLACK
6
CONTINUOUS
10
192.869
20
-123.046
11
192.312
21
-123.47
0
LINE
8
BLACK
6
CONTINUOUS
10
196.288
20
-126.44
11
195.865
21
-126.998
0
LINE
8
BLACK
6
CONTINUOUS
10
189.538
20
-115.362
11
188.848
21
-115.479
0
LINE
8
BLACK
6
CONTINUOUS
10
197.46
20
-127.25
11
197.085
21
-127.841
0
LINE
8
BLACK
6
CONTINUOUS
10
196.9
20
-126.877
11
196.5
21
-127.451
0
LINE
8
BLACK
6
CONTINUOUS
10
195.367
20
-125.76
11
194.91
21
-126.29
0
LINE
8
BLACK
6
CONTINUOUS
10
205.803
20
-129.856
11
205.774
21
-130.555
0
LINE
8
BLACK
6
CONTINUOUS
10
205.464
20
-129.834
11
205.42
21
-130.533
0
LINE
8
BLACK
6
CONTINUOUS
10
205.102
20
-129.818
11
205.044
21
-130.516
0
LINE
8
BLACK
6
CONTINUOUS
10
197.854
20
-128.113
11
197.785
21
-127.853
0
LINE
8
BLACK
6
CONTINUOUS
10
197.785
20
-127.853
11
198.045
21
-127.783
0
LINE
8
BLACK
6
CONTINUOUS
10
198.045
20
-127.783
11
198.114
21
-128.043
0
LINE
8
BLACK
6
CONTINUOUS
10
198.114
20
-128.043
11
197.854
21
-128.113
0
LINE
8
BLACK
6
CONTINUOUS
10
197.854
20
-128.113
11
198.045
21
-127.783
0
LINE
8
BLACK
6
CONTINUOUS
10
204.042
20
-129.681
11
203.94
21
-130.373
0
LINE
8
BLACK
6
CONTINUOUS
10
203.663
20
-129.641
11
203.546
21
-130.332
0
LINE
8
BLACK
6
CONTINUOUS
10
204.404
20
-129.744
11
204.316
21
-130.438
0
LINE
8
BLACK
6
CONTINUOUS
10
203.314
20
-129.571
11
203.183
21
-130.259
0
LINE
8
BLACK
6
CONTINUOUS
10
202.157
20
-129.268
11
201.983
21
-129.946
0
LINE
8
BLACK
6
CONTINUOUS
10
201.808
20
-129.181
11
201.62
21
-129.855
0
LINE
8
BLACK
6
CONTINUOUS
10
202.519
20
-129.381
11
202.359
21
-130.063
0
LINE
8
BLACK
6
CONTINUOUS
10
201.484
20
-129.094
11
201.282
21
-129.764
0
LINE
8
BLACK
6
CONTINUOUS
10
204.793
20
-129.481
11
204.688
21
-130.475
0
LINE
8
BLACK
6
CONTINUOUS
10
202.947
20
-129.196
11
202.739
21
-130.174
0
LINE
8
BLACK
6
CONTINUOUS
10
201.228
20
-128.713
11
200.919
21
-129.664
0
LINE
8
BLACK
6
CONTINUOUS
10
199.735
20
-128.12
11
199.328
21
-129.034
0
LINE
8
BLACK
6
CONTINUOUS
10
194.828
20
-125.204
11
194.348
21
-125.714
0
LINE
8
BLACK
6
CONTINUOUS
10
190.418
20
-117.739
11
189.467
21
-118.048
0
LINE
8
BLACK
6
CONTINUOUS
10
190.572
20
-119.089
11
189.927
21
-119.36
0
LINE
8
BLACK
6
CONTINUOUS
10
200.525
20
-128.758
11
200.281
21
-129.414
0
LINE
8
BLACK
6
CONTINUOUS
10
200.239
20
-128.633
11
199.982
21
-129.284
0
LINE
8
BLACK
6
CONTINUOUS
10
200.824
20
-128.857
11
200.594
21
-129.518
0
LINE
8
BLACK
6
CONTINUOUS
10
199.915
20
-128.521
11
199.644
21
-129.166
0
LINE
8
BLACK
6
CONTINUOUS
10
199.011
20
-128.136
11
198.7
21
-128.763
0
LINE
8
BLACK
6
CONTINUOUS
10
198.745
20
-127.961
11
198.421
21
-128.581
0
LINE
8
BLACK
6
CONTINUOUS
10
199.292
20
-128.247
11
198.994
21
-128.881
0
LINE
8
BLACK
6
CONTINUOUS
10
195.664
20
-125.991
11
195.217
21
-126.53
0
LINE
8
BLACK
6
CONTINUOUS
10
189.514
20
-115.025
11
188.821
21
-115.128
0
LINE
8
BLACK
6
CONTINUOUS
10
189.925
20
-117.12
11
189.251
21
-117.308
0
LINE
8
BLACK
6
CONTINUOUS
10
193.331
20
-123.62
11
192.792
21
-124.066
0
LINE
8
BLACK
6
CONTINUOUS
10
194.029
20
-124.405
11
193.519
21
-124.885
0
LINE
8
BLACK
6
CONTINUOUS
10
192.838
20
-102.729
11
192.029
21
-102.141
0
LINE
8
BLACK
6
CONTINUOUS
10
199.945
20
-96.9583
11
199.539
21
-96.0447
0
LINE
8
BLACK
6
CONTINUOUS
10
195.276
20
-99.9419
11
194.607
21
-99.1987
0
LINE
8
BLACK
6
CONTINUOUS
10
194.573
20
-100.264
11
194.083
21
-99.7636
0
LINE
8
BLACK
6
CONTINUOUS
10
205.211
20
-95.3239
11
205.152
21
-94.6263
0
LINE
8
BLACK
6
CONTINUOUS
10
194.298
20
-100.526
11
193.798
21
-100.036
0
LINE
8
BLACK
6
CONTINUOUS
10
200.773
20
-96.2957
11
200.529
21
-95.6396
0
LINE
8
BLACK
6
CONTINUOUS
10
204.525
20
-95.4368
11
204.438
21
-94.7423
0
LINE
8
BLACK
6
CONTINUOUS
10
201.059
20
-96.1837
11
200.829
21
-95.5226
0
LINE
8
BLACK
6
CONTINUOUS
10
203.504
20
-95.5861
11
203.373
21
-94.8985
0
LINE
8
BLACK
6
CONTINUOUS
10
199.204
20
-96.9683
11
198.892
21
-96.3413
0
LINE
8
BLACK
6
CONTINUOUS
10
197.505
20
-97.9046
11
197.13
21
-97.3135
0
LINE
8
BLACK
6
CONTINUOUS
10
196.843
20
-98.3671
11
196.444
21
-97.7923
0
LINE
8
BLACK
6
CONTINUOUS
10
205.845
20
-95.2993
11
205.816
21
-94.5999
0
LINE
8
BLACK
6
CONTINUOUS
10
203.183
20
-95.9461
11
202.975
21
-94.9679
0
LINE
8
BLACK
6
CONTINUOUS
10
202.444
20
-95.7722
11
202.27
21
-95.0942
0
LINE
8
BLACK
6
CONTINUOUS
10
202.755
20
-95.6976
11
202.595
21
-95.0161
0
LINE
8
BLACK
6
CONTINUOUS
10
197.961
20
-97.0583
11
198.221
21
-97.128
0
LINE
8
BLACK
6
CONTINUOUS
10
198.221
20
-97.128
11
198.152
21
-97.3882
0
LINE
8
BLACK
6
CONTINUOUS
10
198.152
20
-97.3882
11
197.891
21
-97.3185
0
LINE
8
BLACK
6
CONTINUOUS
10
197.891
20
-97.3185
11
197.961
21
-97.0583
0
LINE
8
BLACK
6
CONTINUOUS
10
197.961
20
-97.0583
11
198.152
21
-97.3882
0
LINE
8
BLACK
6
CONTINUOUS
10
192.177
20
-103.146
11
191.594
21
-102.759
0
LINE
8
BLACK
6
CONTINUOUS
10
198.905
20
-97.1304
11
198.581
21
-96.5101
0
LINE
8
BLACK
6
CONTINUOUS
10
195.358
20
-99.4898
11
194.901
21
-98.9599
0
LINE
8
BLACK
6
CONTINUOUS
10
205.534
20
-95.3243
11
205.49
21
-94.6257
0
LINE
8
BLACK
6
CONTINUOUS
10
195.907
20
-99.0665
11
195.472
21
-98.5179
0
LINE
8
BLACK
6
CONTINUOUS
10
200.475
20
-96.3949
11
200.217
21
-95.7441
0
LINE
8
BLACK
6
CONTINUOUS
10
196.713
20
-98.8287
11
196.125
21
-98.0197
0
LINE
8
BLACK
6
CONTINUOUS
10
193.012
20
-101.923
11
192.463
21
-101.488
0
LINE
8
BLACK
6
CONTINUOUS
10
204.887
20
-95.6799
11
204.783
21
-94.6854
0
LINE
8
BLACK
6
CONTINUOUS
10
197.155
20
-98.1296
11
196.768
21
-97.5465
0
LINE
8
BLACK
6
CONTINUOUS
10
193.963
20
-101.267
11
193.22
21
-100.598
0
LINE
8
BLACK
6
CONTINUOUS
10
201.771
20
-95.9719
11
201.568
21
-95.3017
0
LINE
8
BLACK
6
CONTINUOUS
10
199.503
20
-96.8061
11
199.204
21
-96.1727
0
LINE
8
BLACK
6
CONTINUOUS
10
196.194
20
-98.8292
11
195.77
21
-98.2717
0
LINE
8
BLACK
6
CONTINUOUS
10
192.8
20
-102.248
11
192.242
21
-101.825
0
LINE
8
BLACK
6
CONTINUOUS
10
203.878
20
-95.4983
11
203.761
21
-94.8081
0
LINE
8
BLACK
6
CONTINUOUS
10
191.99
20
-103.42
11
191.399
21
-103.045
0
LINE
8
BLACK
6
CONTINUOUS
10
192.363
20
-102.86
11
191.789
21
-102.46
0
LINE
8
BLACK
6
CONTINUOUS
10
193.524
20
-101.387
11
192.994
21
-100.93
0
LINE
8
BLACK
6
CONTINUOUS
10
189.384
20
-111.763
11
188.685
21
-111.734
0
LINE
8
BLACK
6
CONTINUOUS
10
189.406
20
-111.424
11
188.707
21
-111.38
0
LINE
8
BLACK
6
CONTINUOUS
10
189.422
20
-111.062
11
188.724
21
-111.004
0
LINE
8
BLACK
6
CONTINUOUS
10
191.127
20
-103.814
11
191.387
21
-103.745
0
LINE
8
BLACK
6
CONTINUOUS
10
191.387
20
-103.745
11
191.457
21
-104.005
0
LINE
8
BLACK
6
CONTINUOUS
10
191.457
20
-104.005
11
191.197
21
-104.074
0
LINE
8
BLACK
6
CONTINUOUS
10
191.197
20
-104.074
11
191.127
21
-103.814
0
LINE
8
BLACK
6
CONTINUOUS
10
191.127
20
-103.814
11
191.457
21
-104.005
0
LINE
8
BLACK
6
CONTINUOUS
10
189.559
20
-110.002
11
188.867
21
-109.9
0
LINE
8
BLACK
6
CONTINUOUS
10
189.599
20
-109.623
11
188.908
21
-109.506
0
LINE
8
BLACK
6
CONTINUOUS
10
189.496
20
-110.364
11
188.802
21
-110.276
0
LINE
8
BLACK
6
CONTINUOUS
10
189.669
20
-109.274
11
188.981
21
-109.143
0
LINE
8
BLACK
6
CONTINUOUS
10
189.972
20
-108.117
11
189.294
21
-107.943
0
LINE
8
BLACK
6
CONTINUOUS
10
190.059
20
-107.768
11
189.385
21
-107.58
0
LINE
8
BLACK
6
CONTINUOUS
10
189.859
20
-108.479
11
189.177
21
-108.319
0
LINE
8
BLACK
6
CONTINUOUS
10
190.146
20
-107.444
11
189.476
21
-107.242
0
LINE
8
BLACK
6
CONTINUOUS
10
189.759
20
-110.753
11
188.765
21
-110.648
0
LINE
8
BLACK
6
CONTINUOUS
10
190.044
20
-108.907
11
189.066
21
-108.699
0
LINE
8
BLACK
6
CONTINUOUS
10
190.527
20
-107.188
11
189.576
21
-106.879
0
LINE
8
BLACK
6
CONTINUOUS
10
191.12
20
-105.695
11
190.206
21
-105.288
0
LINE
8
BLACK
6
CONTINUOUS
10
194.036
20
-100.788
11
193.526
21
-100.308
0
LINE
8
BLACK
6
CONTINUOUS
10
201.501
20
-96.3783
11
201.192
21
-95.4273
0
LINE
8
BLACK
6
CONTINUOUS
10
200.151
20
-96.5321
11
199.88
21
-95.8868
0
LINE
8
BLACK
6
CONTINUOUS
10
190.482
20
-106.485
11
189.826
21
-106.241
0
LINE
8
BLACK
6
CONTINUOUS
10
190.607
20
-106.199
11
189.956
21
-105.942
0
LINE
8
BLACK
6
CONTINUOUS
10
190.383
20
-106.784
11
189.722
21
-106.554
0
LINE
8
BLACK
6
CONTINUOUS
10
190.719
20
-105.875
11
190.074
21
-105.604
0
LINE
8
BLACK
6
CONTINUOUS
10
191.155
20
-104.979
11
190.528
21
-104.668
0
LINE
8
BLACK
6
CONTINUOUS
10
191.279
20
-104.705
11
190.659
21
-104.381
0
LINE
8
BLACK
6
CONTINUOUS
10
190.993
20
-105.252
11
190.359
21
-104.954
0
LINE
8
BLACK
6
CONTINUOUS
10
193.249
20
-101.624
11
192.71
21
-101.177
0
LINE
8
BLACK
6
CONTINUOUS
10
204.215
20
-95.474
11
204.112
21
-94.7815
0
LINE
8
BLACK
6
CONTINUOUS
10
202.12
20
-95.8848
11
201.932
21
-95.2106
0
LINE
8
BLACK
6
CONTINUOUS
10
195.62
20
-99.2909
11
195.174
21
-98.7515
0
LINE
8
BLACK
6
CONTINUOUS
10
194.835
20
-99.9889
11
194.355
21
-99.4787
0
LINE
8
BLACK
6
CONTINUOUS
10
224.454
20
-112.579
11
224.264
21
-112.77
0
LINE
8
BLACK
6
CONTINUOUS
10
224.264
20
-112.77
11
224.073
21
-112.579
0
LINE
8
BLACK
6
CONTINUOUS
10
224.073
20
-112.579
11
224.264
21
-112.389
0
LINE
8
BLACK
6
CONTINUOUS
10
224.264
20
-112.389
11
224.454
21
-112.579
0
LINE
8
BLACK
6
CONTINUOUS
10
224.454
20
-112.579
11
224.073
21
-112.579
0
LINE
8
BLACK
6
CONTINUOUS
10
222.282
20
-105.905
11
223.195
21
-105.499
0
LINE
8
BLACK
6
CONTINUOUS
10
223.294
20
-109.143
11
224.272
21
-108.935
0
LINE
8
BLACK
6
CONTINUOUS
10
223.468
20
-108.404
11
224.146
21
-108.23
0
LINE
8
BLACK
6
CONTINUOUS
10
223.355
20
-108.08
11
224.029
21
-107.892
0
LINE
8
BLACK
6
CONTINUOUS
10
223.941
20
-111.805
11
224.64
21
-111.776
0
LINE
8
BLACK
6
CONTINUOUS
10
223.916
20
-111.171
11
224.614
21
-111.112
0
LINE
8
BLACK
6
CONTINUOUS
10
222.272
20
-105.164
11
222.899
21
-104.852
0
LINE
8
BLACK
6
CONTINUOUS
10
223.654
20
-109.464
11
224.342
21
-109.333
0
LINE
8
BLACK
6
CONTINUOUS
10
223.766
20
-110.175
11
224.459
21
-110.072
0
LINE
8
BLACK
6
CONTINUOUS
10
223.579
20
-110.836
11
224.573
21
-110.731
0
LINE
8
BLACK
6
CONTINUOUS
10
222.845
20
-106.435
11
223.496
21
-106.177
0
LINE
8
BLACK
6
CONTINUOUS
10
223.916
20
-111.494
11
224.614
21
-111.45
0
LINE
8
BLACK
6
CONTINUOUS
10
222.862
20
-107.461
11
223.813
21
-107.152
0
LINE
8
BLACK
6
CONTINUOUS
10
223.803
20
-110.485
11
224.498
21
-110.398
0
LINE
8
BLACK
6
CONTINUOUS
10
222.708
20
-106.111
11
223.353
21
-105.84
0
LINE
8
BLACK
6
CONTINUOUS
10
222.11
20
-104.865
11
222.73
21
-104.541
0
LINE
8
BLACK
6
CONTINUOUS
10
222.434
20
-105.463
11
223.067
21
-105.164
0
LINE
8
BLACK
6
CONTINUOUS
10
223.056
20
-107.019
11
223.717
21
-106.789
0
LINE
8
BLACK
6
CONTINUOUS
10
223.268
20
-107.731
11
223.938
21
-107.528
0
LINE
8
BLACK
6
CONTINUOUS
10
222.944
20
-106.733
11
223.6
21
-106.489
0
LINE
8
BLACK
6
CONTINUOUS
10
223.742
20
-109.838
11
224.432
21
-109.721
0
LINE
8
BLACK
6
CONTINUOUS
10
223.542
20
-108.715
11
224.224
21
-108.555
0
LINE
8
BLACK
6
CONTINUOUS
10
222.182
20
-103.921
11
222.112
21
-104.181
0
LINE
8
BLACK
6
CONTINUOUS
10
222.112
20
-104.181
11
221.852
21
-104.112
0
LINE
8
BLACK
6
CONTINUOUS
10
221.852
20
-104.112
11
221.922
21
-103.851
0
LINE
8
BLACK
6
CONTINUOUS
10
221.922
20
-103.851
11
222.182
21
-103.921
0
LINE
8
BLACK
6
CONTINUOUS
10
222.182
20
-103.921
11
221.852
21
-104.112
0
LINE
8
BLACK
6
CONTINUOUS
10
221.335
20
-103.465
11
221.926
21
-103.09
0
LINE
8
BLACK
6
CONTINUOUS
10
220.873
20
-102.803
11
221.448
21
-102.404
0
LINE
8
BLACK
6
CONTINUOUS
10
221.11
20
-103.115
11
221.693
21
-102.728
0
LINE
8
BLACK
6
CONTINUOUS
10
220.411
20
-102.673
11
221.22
21
-102.085
0
LINE
8
BLACK
6
CONTINUOUS
10
220.174
20
-101.867
11
220.722
21
-101.432
0
LINE
8
BLACK
6
CONTINUOUS
10
219.75
20
-101.318
11
220.28
21
-100.861
0
LINE
8
BLACK
6
CONTINUOUS
10
219.949
20
-101.58
11
220.488
21
-101.134
0
LINE
8
BLACK
6
CONTINUOUS
10
220.411
20
-102.154
11
220.968
21
-101.73
0
LINE
8
BLACK
6
CONTINUOUS
10
219.298
20
-101.236
11
220.041
21
-100.567
0
LINE
8
BLACK
6
CONTINUOUS
10
218.976
20
-100.533
11
219.476
21
-100.043
0
LINE
8
BLACK
6
CONTINUOUS
10
218.452
20
-99.9959
11
218.932
21
-99.4857
0
LINE
8
BLACK
6
CONTINUOUS
10
218.714
20
-100.258
11
219.204
21
-99.7579
0
LINE
8
BLACK
6
CONTINUOUS
10
219.251
20
-100.795
11
219.761
21
-100.315
0
LINE
8
BLACK
6
CONTINUOUS
10
217.973
20
-99.9235
11
218.642
21
-99.1803
0
LINE
8
BLACK
6
CONTINUOUS
10
217.616
20
-99.209
11
218.063
21
-98.6696
0
LINE
8
BLACK
6
CONTINUOUS
10
216.992
20
-98.76
11
217.415
21
-98.2025
0
LINE
8
BLACK
6
CONTINUOUS
10
217.317
20
-98.9719
11
217.752
21
-98.4233
0
LINE
8
BLACK
6
CONTINUOUS
10
217.853
20
-99.4841
11
218.31
21
-98.9542
0
LINE
8
BLACK
6
CONTINUOUS
10
215.82
20
-97.9497
11
216.195
21
-97.3586
0
LINE
8
BLACK
6
CONTINUOUS
10
216.094
20
-98.1366
11
216.481
21
-97.5535
0
LINE
8
BLACK
6
CONTINUOUS
10
216.38
20
-98.3233
11
216.78
21
-97.7485
0
LINE
8
BLACK
6
CONTINUOUS
10
216.511
20
-98.7976
11
217.099
21
-97.9886
0
LINE
8
BLACK
6
CONTINUOUS
10
213.988
20
-96.9528
11
214.286
21
-96.3194
0
LINE
8
BLACK
6
CONTINUOUS
10
214.535
20
-97.239
11
214.859
21
-96.6187
0
LINE
8
BLACK
6
CONTINUOUS
10
214.261
20
-97.115
11
214.572
21
-96.488
0
LINE
8
BLACK
6
CONTINUOUS
10
213.365
20
-96.6788
11
213.636
21
-96.0335
0
LINE
8
BLACK
6
CONTINUOUS
10
212.456
20
-96.3431
11
212.686
21
-95.682
0
LINE
8
BLACK
6
CONTINUOUS
10
213.041
20
-96.567
11
213.298
21
-95.9162
0
LINE
8
BLACK
6
CONTINUOUS
10
212.755
20
-96.4424
11
212.999
21
-95.7863
0
LINE
8
BLACK
6
CONTINUOUS
10
211.796
20
-96.1059
11
211.998
21
-95.4357
0
LINE
8
BLACK
6
CONTINUOUS
10
210.761
20
-95.8189
11
210.921
21
-95.1374
0
LINE
8
BLACK
6
CONTINUOUS
10
211.472
20
-96.0188
11
211.66
21
-95.3446
0
LINE
8
BLACK
6
CONTINUOUS
10
211.123
20
-95.9316
11
211.297
21
-95.2536
0
LINE
8
BLACK
6
CONTINUOUS
10
209.966
20
-95.6286
11
210.097
21
-94.941
0
LINE
8
BLACK
6
CONTINUOUS
10
208.876
20
-95.4565
11
208.964
21
-94.762
0
LINE
8
BLACK
6
CONTINUOUS
10
209.617
20
-95.5587
11
209.734
21
-94.8685
0
LINE
8
BLACK
6
CONTINUOUS
10
209.238
20
-95.5191
11
209.34
21
-94.8266
0
LINE
8
BLACK
6
CONTINUOUS
10
206.64
20
-94.7686
11
206.83
21
-94.959
0
LINE
8
BLACK
6
CONTINUOUS
10
206.83
20
-94.959
11
206.64
21
-95.1495
0
LINE
8
BLACK
6
CONTINUOUS
10
206.64
20
-95.1495
11
206.45
21
-94.959
0
LINE
8
BLACK
6
CONTINUOUS
10
206.45
20
-94.959
11
206.64
21
-94.7686
0
LINE
8
BLACK
6
CONTINUOUS
10
206.64
20
-94.7686
11
206.64
21
-95.1495
0
LINE
8
BLACK
6
CONTINUOUS
10
215.426
20
-97.0872
11
215.495
21
-97.3474
0
LINE
8
BLACK
6
CONTINUOUS
10
215.495
20
-97.3474
11
215.235
21
-97.4171
0
LINE
8
BLACK
6
CONTINUOUS
10
215.235
20
-97.4171
11
215.166
21
-97.1569
0
LINE
8
BLACK
6
CONTINUOUS
10
215.166
20
-97.1569
11
215.426
21
-97.0872
0
LINE
8
BLACK
6
CONTINUOUS
10
215.426
20
-97.0872
11
215.235
21
-97.4171
0
LINE
8
BLACK
6
CONTINUOUS
10
208.178
20
-95.3817
11
208.236
21
-94.6841
0
LINE
8
BLACK
6
CONTINUOUS
10
207.816
20
-95.366
11
207.86
21
-94.6674
0
LINE
8
BLACK
6
CONTINUOUS
10
207.477
20
-95.3444
11
207.506
21
-94.645
0
LINE
8
BLACK
6
CONTINUOUS
10
213.545
20
-97.0796
11
213.952
21
-96.166
0
LINE
8
BLACK
6
CONTINUOUS
10
212.052
20
-96.4869
11
212.361
21
-95.5359
0
LINE
8
BLACK
6
CONTINUOUS
10
210.333
20
-96.0039
11
210.541
21
-95.0257
0
LINE
8
BLACK
6
CONTINUOUS
10
208.487
20
-95.7192
11
208.592
21
-94.7247
0
LINE
8
BLACK
6
CONTINUOUS
10
217.297
20
-127.367
11
217.768
21
-128.014
0
LINE
8
BLACK
6
CONTINUOUS
10
223.289
20
-119.915
11
224.021
21
-120.236
0
LINE
8
BLACK
6
CONTINUOUS
10
210.914
20
-130.299
11
211.105
21
-131.075
0
LINE
8
BLACK
6
CONTINUOUS
10
204.109
20
-130.641
11
204.001
21
-131.434
0
LINE
8
BLACK
6
CONTINUOUS
10
224.642
20
-115.228
11
225.434
21
-115.342
0
LINE
8
BLACK
6
CONTINUOUS
10
224.387
20
-108.631
11
225.167
21
-108.452
0
LINE
8
BLACK
6
CONTINUOUS
10
221.417
20
-101.963
11
222.064
21
-101.492
0
LINE
8
BLACK
6
CONTINUOUS
10
193.756
20
-125.474
11
193.19
21
-126.04
0
LINE
8
BLACK
6
CONTINUOUS
10
201.328
20
-95.1953
11
201.089
21
-94.432
0
LINE
8
BLACK
6
CONTINUOUS
10
203.132
20
-94.7548
11
202.973
21
-93.9705
0
LINE
8
BLACK
6
CONTINUOUS
10
204.758
20
-94.4999
11
204.674
21
-93.7043
0
LINE
8
BLACK
6
CONTINUOUS
10
192.716
20
-124.336
11
192.105
21
-124.853
0
LINE
8
BLACK
6
CONTINUOUS
10
188.56
20
-114.678
11
187.765
21
-114.77
0
LINE
8
BLACK
6
CONTINUOUS
10
190.332
20
-120.664
11
189.621
21
-121.031
0
LINE
8
BLACK
6
CONTINUOUS
10
188.893
20
-116.599
11
188.113
21
-116.778
0
LINE
8
BLACK
6
CONTINUOUS
10
189.786
20
-105.755
11
189.044
21
-105.457
0
LINE
8
BLACK
6
CONTINUOUS
10
188.481
20
-111.461
11
187.683
21
-111.415
0
LINE
8
BLACK
6
CONTINUOUS
10
190.246
20
-104.698
11
189.526
21
-104.349
0
LINE
8
BLACK
6
CONTINUOUS
10
198.718
20
-129.034
11
198.369
21
-129.754
0
LINE
8
BLACK
6
CONTINUOUS
10
195.492
20
-98.236
11
195.001
21
-97.6038
0
LINE
8
BLACK
6
CONTINUOUS
10
194.394
20
-99.1377
11
193.855
21
-98.546
0
LINE
8
BLACK
6
CONTINUOUS
10
193.374
20
-100.148
11
192.791
21
-99.6001
0
LINE
8
BLACK
6
CONTINUOUS
10
190.813
20
-103.611
11
190.121
21
-103.211
0
LINE
8
BLACK
6
CONTINUOUS
10
188.579
20
-110.333
11
187.785
21
-110.237
0
LINE
8
BLACK
6
CONTINUOUS
10
188.776
20
-109.186
11
187.989
21
-109.04
0
LINE
8
BLACK
6
CONTINUOUS
10
188.697
20
-115.618
11
187.908
21
-115.755
0
LINE
8
BLACK
6
CONTINUOUS
10
189.088
20
-117.471
11
188.319
21
-117.69
0
LINE
8
BLACK
6
CONTINUOUS
10
189.382
20
-118.392
11
188.626
21
-118.653
0
LINE
8
BLACK
6
CONTINUOUS
10
189.646
20
-119.087
11
188.903
21
-119.381
0
LINE
8
BLACK
6
CONTINUOUS
10
189.979
20
-119.939
11
189.252
21
-120.272
0
LINE
8
BLACK
6
CONTINUOUS
10
191.716
20
-123.032
11
191.062
21
-123.492
0
LINE
8
BLACK
6
CONTINUOUS
10
221.231
20
-123.472
11
221.869
21
-123.954
0
LINE
8
BLACK
6
CONTINUOUS
10
222.961
20
-104.582
11
223.666
21
-104.202
0
LINE
8
BLACK
6
CONTINUOUS
10
220.191
20
-100.442
11
220.786
21
-99.9069
0
LINE
8
BLACK
6
CONTINUOUS
10
221.071
20
-120.229
11
221.071
21
-121.229
0
LINE
8
BLACK
6
CONTINUOUS
10
220.595
20
-119.657
11
220.119
21
-120.729
0
LINE
8
BLACK
6
CONTINUOUS
10
220.119
20
-120.729
11
221.357
21
-120.729
0
LINE
8
BLACK
6
CONTINUOUS
10
214.281
20
-99.0177
11
215.031
21
-97.7186
0
LINE
8
BLACK
6
CONTINUOUS
10
191.089
20
-112.6
11
189.589
21
-112.6
0
LINE
8
BLACK
6
CONTINUOUS
10
199.019
20
-126.132
11
198.269
21
-127.431
0
LINE
8
BLACK
6
CONTINUOUS
10
219.919
20
-126.623
11
219.596
21
-126.946
0
LINE
8
BLACK
6
CONTINUOUS
10
219.757
20
-126.785
11
219.191
21
-126.219
0
LINE
8
BLACK
6
CONTINUOUS
10
219.191
20
-126.219
11
219.218
21
-126.354
0
LINE
8
BLACK
6
CONTINUOUS
10
219.218
20
-126.354
11
219.218
21
-126.461
0
LINE
8
BLACK
6
CONTINUOUS
10
219.218
20
-126.461
11
219.191
21
-126.542
0
LINE
8
BLACK
6
CONTINUOUS
10
219.838
20
-125.572
11
219.73
21
-125.68
0
LINE
8
BLACK
6
CONTINUOUS
10
219.73
20
-125.68
11
219.703
21
-125.761
0
LINE
8
BLACK
6
CONTINUOUS
10
219.703
20
-125.761
11
219.703
21
-125.815
0
LINE
8
BLACK
6
CONTINUOUS
10
219.703
20
-125.815
11
219.73
21
-125.95
0
LINE
8
BLACK
6
CONTINUOUS
10
219.73
20
-125.95
11
219.811
21
-126.084
0
LINE
8
BLACK
6
CONTINUOUS
10
219.811
20
-126.084
11
220.027
21
-126.3
0
LINE
8
BLACK
6
CONTINUOUS
10
220.027
20
-126.3
11
220.107
21
-126.327
0
LINE
8
BLACK
6
CONTINUOUS
10
220.107
20
-126.327
11
220.161
21
-126.327
0
LINE
8
BLACK
6
CONTINUOUS
10
220.161
20
-126.327
11
220.242
21
-126.3
0
LINE
8
BLACK
6
CONTINUOUS
10
220.242
20
-126.3
11
220.35
21
-126.192
0
LINE
8
BLACK
6
CONTINUOUS
10
220.35
20
-126.192
11
220.377
21
-126.111
0
LINE
8
BLACK
6
CONTINUOUS
10
220.377
20
-126.111
11
220.377
21
-126.057
0
LINE
8
BLACK
6
CONTINUOUS
10
220.377
20
-126.057
11
220.35
21
-125.977
0
LINE
8
BLACK
6
CONTINUOUS
10
220.35
20
-125.977
11
220.215
21
-125.842
0
LINE
8
BLACK
6
CONTINUOUS
10
220.215
20
-125.842
11
220.134
21
-125.815
0
LINE
8
BLACK
6
CONTINUOUS
10
220.134
20
-125.815
11
220.08
21
-125.815
0
LINE
8
BLACK
6
CONTINUOUS
10
220.08
20
-125.815
11
220
21
-125.842
0
LINE
8
BLACK
6
CONTINUOUS
10
220
20
-125.842
11
219.892
21
-125.95
0
LINE
8
BLACK
6
CONTINUOUS
10
219.892
20
-125.95
11
219.865
21
-126.03
0
LINE
8
BLACK
6
CONTINUOUS
10
219.865
20
-126.03
11
219.865
21
-126.084
0
LINE
8
BLACK
6
CONTINUOUS
10
219.865
20
-126.084
11
219.892
21
-126.165
0
LINE
8
BLACK
6
CONTINUOUS
10
220.242
20
-125.168
11
220.296
21
-125.115
0
LINE
8
BLACK
6
CONTINUOUS
10
220.296
20
-125.115
11
220.377
21
-125.088
0
LINE
8
BLACK
6
CONTINUOUS
10
220.377
20
-125.088
11
220.431
21
-125.088
0
LINE
8
BLACK
6
CONTINUOUS
10
220.431
20
-125.088
11
220.511
21
-125.115
0
LINE
8
BLACK
6
CONTINUOUS
10
220.511
20
-125.115
11
220.646
21
-125.195
0
LINE
8
BLACK
6
CONTINUOUS
10
220.646
20
-125.195
11
220.781
21
-125.33
0
LINE
8
BLACK
6
CONTINUOUS
10
220.781
20
-125.33
11
220.862
21
-125.465
0
LINE
8
BLACK
6
CONTINUOUS
10
220.862
20
-125.465
11
220.889
21
-125.546
0
LINE
8
BLACK
6
CONTINUOUS
10
220.889
20
-125.546
11
220.889
21
-125.599
0
LINE
8
BLACK
6
CONTINUOUS
10
220.889
20
-125.599
11
220.862
21
-125.68
0
LINE
8
BLACK
6
CONTINUOUS
10
220.862
20
-125.68
11
220.808
21
-125.734
0
LINE
8
BLACK
6
CONTINUOUS
10
220.808
20
-125.734
11
220.727
21
-125.761
0
LINE
8
BLACK
6
CONTINUOUS
10
220.727
20
-125.761
11
220.673
21
-125.761
0
LINE
8
BLACK
6
CONTINUOUS
10
220.673
20
-125.761
11
220.592
21
-125.734
0
LINE
8
BLACK
6
CONTINUOUS
10
220.592
20
-125.734
11
220.458
21
-125.653
0
LINE
8
BLACK
6
CONTINUOUS
10
220.458
20
-125.653
11
220.323
21
-125.519
0
LINE
8
BLACK
6
CONTINUOUS
10
220.323
20
-125.519
11
220.242
21
-125.384
0
LINE
8
BLACK
6
CONTINUOUS
10
220.242
20
-125.384
11
220.215
21
-125.303
0
LINE
8
BLACK
6
CONTINUOUS
10
220.215
20
-125.303
11
220.215
21
-125.249
0
LINE
8
BLACK
6
CONTINUOUS
10
220.215
20
-125.249
11
220.242
21
-125.168
0
LINE
8
BLACK
6
CONTINUOUS
10
212.002
20
-94.8018
11
212.213
21
-94.1342
0
LINE
8
BLACK
6
CONTINUOUS
10
212.213
20
-94.1342
11
212.285
21
-94.6813
0
LINE
8
BLACK
6
CONTINUOUS
10
212.285
20
-94.6813
11
212.658
21
-94.2746
0
LINE
8
BLACK
6
CONTINUOUS
10
212.658
20
-94.2746
11
212.447
21
-94.9422
0
LINE
8
BLACK
6
CONTINUOUS
10
192.35
20
-120.401
11
192.159
21
-120.33
0
LINE
8
BLACK
6
CONTINUOUS
10
192.159
20
-120.33
11
192.064
21
-120.259
0
LINE
8
BLACK
6
CONTINUOUS
10
192.064
20
-120.259
11
191.969
21
-120.116
0
LINE
8
BLACK
6
CONTINUOUS
10
191.969
20
-120.116
11
191.969
21
-120.044
0
LINE
8
BLACK
6
CONTINUOUS
10
191.969
20
-120.044
11
192.064
21
-119.901
0
LINE
8
BLACK
6
CONTINUOUS
10
192.064
20
-119.901
11
192.159
21
-119.83
0
LINE
8
BLACK
6
CONTINUOUS
10
192.159
20
-119.83
11
192.35
21
-119.759
0
LINE
8
BLACK
6
CONTINUOUS
10
192.35
20
-119.759
11
192.73
21
-119.759
0
LINE
8
BLACK
6
CONTINUOUS
10
192.73
20
-119.759
11
192.921
21
-119.83
0
LINE
8
BLACK
6
CONTINUOUS
10
192.921
20
-119.83
11
193.016
21
-119.901
0
LINE
8
BLACK
6
CONTINUOUS
10
193.016
20
-119.901
11
193.111
21
-120.044
0
LINE
8
BLACK
6
CONTINUOUS
10
193.111
20
-120.044
11
193.111
21
-120.116
0
LINE
8
BLACK
6
CONTINUOUS
10
193.111
20
-120.116
11
193.016
21
-120.259
0
LINE
8
BLACK
6
CONTINUOUS
10
193.016
20
-120.259
11
192.921
21
-120.33
0
LINE
8
BLACK
6
CONTINUOUS
10
192.921
20
-120.33
11
192.73
21
-120.401
0
LINE
8
BLACK
6
CONTINUOUS
10
192.73
20
-120.401
11
192.35
21
-120.401
0
LINE
8
BLACK
6
CONTINUOUS
10
192.35
20
-120.401
11
192.159
21
-120.473
0
LINE
8
BLACK
6
CONTINUOUS
10
192.159
20
-120.473
11
192.064
21
-120.544
0
LINE
8
BLACK
6
CONTINUOUS
10
192.064
20
-120.544
11
191.969
21
-120.687
0
LINE
8
BLACK
6
CONTINUOUS
10
191.969
20
-120.687
11
191.969
21
-120.973
0
LINE
8
BLACK
6
CONTINUOUS
10
191.969
20
-120.973
11
192.064
21
-121.116
0
LINE
8
BLACK
6
CONTINUOUS
10
192.064
20
-121.116
11
192.159
21
-121.187
0
LINE
8
BLACK
6
CONTINUOUS
10
192.159
20
-121.187
11
192.35
21
-121.259
0
LINE
8
BLACK
6
CONTINUOUS
10
192.35
20
-121.259
11
192.73
21
-121.259
0
LINE
8
BLACK
6
CONTINUOUS
10
192.73
20
-121.259
11
192.921
21
-121.187
0
LINE
8
BLACK
6
CONTINUOUS
10
192.921
20
-121.187
11
193.016
21
-121.116
0
LINE
8
BLACK
6
CONTINUOUS
10
193.016
20
-121.116
11
193.111
21
-120.973
0
LINE
8
BLACK
6
CONTINUOUS
10
193.111
20
-120.973
11
193.111
21
-120.687
0
LINE
8
BLACK
6
CONTINUOUS
10
193.111
20
-120.687
11
193.016
21
-120.544
0
LINE
8
BLACK
6
CONTINUOUS
10
193.016
20
-120.544
11
192.921
21
-120.473
0
LINE
8
BLACK
6
CONTINUOUS
10
192.921
20
-120.473
11
192.73
21
-120.401
0
LINE
8
BLACK
6
CONTINUOUS
10
220.249
20
-104.201
11
220.344
21
-104.13
0
LINE
8
BLACK
6
CONTINUOUS
10
220.344
20
-104.13
11
220.534
21
-104.059
0
LINE
8
BLACK
6
CONTINUOUS
10
220.534
20
-104.059
11
221.01
21
-104.059
0
LINE
8
BLACK
6
CONTINUOUS
10
221.01
20
-104.059
11
221.201
21
-104.13
0
LINE
8
BLACK
6
CONTINUOUS
10
221.201
20
-104.13
11
221.296
21
-104.201
0
LINE
8
BLACK
6
CONTINUOUS
10
221.296
20
-104.201
11
221.391
21
-104.344
0
LINE
8
BLACK
6
CONTINUOUS
10
221.391
20
-104.344
11
221.391
21
-104.487
0
LINE
8
BLACK
6
CONTINUOUS
10
221.391
20
-104.487
11
221.296
21
-104.701
0
LINE
8
BLACK
6
CONTINUOUS
10
221.296
20
-104.701
11
220.153
21
-105.559
0
LINE
8
BLACK
6
CONTINUOUS
10
220.153
20
-105.559
11
221.391
21
-105.559
0
LINE
8
BLACK
6
CONTINUOUS
10
192.806
20
-105.199
11
191.834
21
-105.199
0
LINE
8
BLACK
6
CONTINUOUS
10
192.32
20
-105.199
11
192.32
21
-103.699
0
LINE
8
BLACK
6
CONTINUOUS
10
192.32
20
-103.699
11
192.158
21
-103.913
0
LINE
8
BLACK
6
CONTINUOUS
10
192.158
20
-103.913
11
191.996
21
-104.056
0
LINE
8
BLACK
6
CONTINUOUS
10
191.996
20
-104.056
11
191.834
21
-104.127
0
LINE
8
BLACK
6
CONTINUOUS
10
222.151
20
-112.6
11
223.651
21
-112.6
0
LINE
8
BLACK
6
CONTINUOUS
10
199.119
20
-99.0077
11
198.369
21
-97.7086
0
LINE
8
BLACK
6
CONTINUOUS
10
206.259
20
-97.3886
11
205.116
21
-97.3886
0
LINE
8
BLACK
6
CONTINUOUS
10
205.688
20
-97.3886
11
205.688
21
-95.8886
0
LINE
8
BLACK
6
CONTINUOUS
10
205.688
20
-95.8886
11
205.497
21
-96.1029
0
LINE
8
BLACK
6
CONTINUOUS
10
205.497
20
-96.1029
11
205.307
21
-96.2457
0
LINE
8
BLACK
6
CONTINUOUS
10
205.307
20
-96.2457
11
205.116
21
-96.3171
0
LINE
8
BLACK
6
CONTINUOUS
10
207.021
20
-96.0314
11
207.116
21
-95.96
0
LINE
8
BLACK
6
CONTINUOUS
10
207.116
20
-95.96
11
207.307
21
-95.8886
0
LINE
8
BLACK
6
CONTINUOUS
10
207.307
20
-95.8886
11
207.783
21
-95.8886
0
LINE
8
BLACK
6
CONTINUOUS
10
207.783
20
-95.8886
11
207.973
21
-95.96
0
LINE
8
BLACK
6
CONTINUOUS
10
207.973
20
-95.96
11
208.069
21
-96.0314
0
LINE
8
BLACK
6
CONTINUOUS
10
208.069
20
-96.0314
11
208.164
21
-96.1743
0
LINE
8
BLACK
6
CONTINUOUS
10
208.164
20
-96.1743
11
208.164
21
-96.3171
0
LINE
8
BLACK
6
CONTINUOUS
10
208.164
20
-96.3171
11
208.069
21
-96.5314
0
LINE
8
BLACK
6
CONTINUOUS
10
208.069
20
-96.5314
11
206.926
21
-97.3886
0
LINE
8
BLACK
6
CONTINUOUS
10
206.926
20
-97.3886
11
208.164
21
-97.3886
0
LINE
8
BLACK
6
CONTINUOUS
10
207.051
20
-128.079
11
206.67
21
-128.079
0
LINE
8
BLACK
6
CONTINUOUS
10
206.67
20
-128.079
11
206.48
21
-128.15
0
LINE
8
BLACK
6
CONTINUOUS
10
206.48
20
-128.15
11
206.384
21
-128.221
0
LINE
8
BLACK
6
CONTINUOUS
10
206.384
20
-128.221
11
206.194
21
-128.436
0
LINE
8
BLACK
6
CONTINUOUS
10
206.194
20
-128.436
11
206.099
21
-128.721
0
LINE
8
BLACK
6
CONTINUOUS
10
206.099
20
-128.721
11
206.099
21
-129.293
0
LINE
8
BLACK
6
CONTINUOUS
10
206.099
20
-129.293
11
206.194
21
-129.436
0
LINE
8
BLACK
6
CONTINUOUS
10
206.194
20
-129.436
11
206.289
21
-129.507
0
LINE
8
BLACK
6
CONTINUOUS
10
206.289
20
-129.507
11
206.48
21
-129.579
0
LINE
8
BLACK
6
CONTINUOUS
10
206.48
20
-129.579
11
206.86
21
-129.579
0
LINE
8
BLACK
6
CONTINUOUS
10
206.86
20
-129.579
11
207.051
21
-129.507
0
LINE
8
BLACK
6
CONTINUOUS
10
207.051
20
-129.507
11
207.146
21
-129.436
0
LINE
8
BLACK
6
CONTINUOUS
10
207.146
20
-129.436
11
207.241
21
-129.293
0
LINE
8
BLACK
6
CONTINUOUS
10
207.241
20
-129.293
11
207.241
21
-128.936
0
LINE
8
BLACK
6
CONTINUOUS
10
207.241
20
-128.936
11
207.146
21
-128.793
0
LINE
8
BLACK
6
CONTINUOUS
10
207.146
20
-128.793
11
207.051
21
-128.721
0
LINE
8
BLACK
6
CONTINUOUS
10
207.051
20
-128.721
11
206.86
21
-128.65
0
LINE
8
BLACK
6
CONTINUOUS
10
206.86
20
-128.65
11
206.48
21
-128.65
0
LINE
8
BLACK
6
CONTINUOUS
10
206.48
20
-128.65
11
206.289
21
-128.721
0
LINE
8
BLACK
6
CONTINUOUS
10
206.289
20
-128.721
11
206.194
21
-128.793
0
LINE
8
BLACK
6
CONTINUOUS
10
206.194
20
-128.793
11
206.099
21
-128.936
0
LINE
8
BLACK
6
CONTINUOUS
10
214.151
20
-126.192
11
214.901
21
-127.491
0
LINE
8
BLACK
6
CONTINUOUS
10
200.557
20
-130.888
11
200.118
21
-130.759
0
LINE
8
BLACK
6
CONTINUOUS
10
200.337
20
-130.824
11
200.562
21
-130.056
0
LINE
8
BLACK
6
CONTINUOUS
10
200.562
20
-130.056
11
200.456
21
-130.144
0
LINE
8
BLACK
6
CONTINUOUS
10
200.456
20
-130.144
11
200.362
21
-130.196
0
LINE
8
BLACK
6
CONTINUOUS
10
200.362
20
-130.196
11
200.278
21
-130.211
0
LINE
8
BLACK
6
CONTINUOUS
10
201.288
20
-131.102
11
200.849
21
-130.973
0
LINE
8
BLACK
6
CONTINUOUS
10
201.068
20
-131.037
11
201.293
21
-130.27
0
LINE
8
BLACK
6
CONTINUOUS
10
201.293
20
-130.27
11
201.188
21
-130.358
0
LINE
8
BLACK
6
CONTINUOUS
10
201.188
20
-130.358
11
201.093
21
-130.41
0
LINE
8
BLACK
6
CONTINUOUS
10
201.093
20
-130.41
11
201.009
21
-130.425
0
LINE
8
BLACK
6
CONTINUOUS
10
201.988
20
-130.473
11
202.061
21
-130.494
0
LINE
8
BLACK
6
CONTINUOUS
10
202.061
20
-130.494
11
202.123
21
-130.552
0
LINE
8
BLACK
6
CONTINUOUS
10
202.123
20
-130.552
11
202.149
21
-130.599
0
LINE
8
BLACK
6
CONTINUOUS
10
202.149
20
-130.599
11
202.164
21
-130.683
0
LINE
8
BLACK
6
CONTINUOUS
10
202.164
20
-130.683
11
202.158
21
-130.84
0
LINE
8
BLACK
6
CONTINUOUS
10
202.158
20
-130.84
11
202.105
21
-131.023
0
LINE
8
BLACK
6
CONTINUOUS
10
202.105
20
-131.023
11
202.025
21
-131.158
0
LINE
8
BLACK
6
CONTINUOUS
10
202.025
20
-131.158
11
201.967
21
-131.221
0
LINE
8
BLACK
6
CONTINUOUS
10
201.967
20
-131.221
11
201.92
21
-131.247
0
LINE
8
BLACK
6
CONTINUOUS
10
201.92
20
-131.247
11
201.836
21
-131.262
0
LINE
8
BLACK
6
CONTINUOUS
10
201.836
20
-131.262
11
201.763
21
-131.241
0
LINE
8
BLACK
6
CONTINUOUS
10
201.763
20
-131.241
11
201.701
21
-131.183
0
LINE
8
BLACK
6
CONTINUOUS
10
201.701
20
-131.183
11
201.675
21
-131.135
0
LINE
8
BLACK
6
CONTINUOUS
10
201.675
20
-131.135
11
201.66
21
-131.051
0
LINE
8
BLACK
6
CONTINUOUS
10
201.66
20
-131.051
11
201.666
21
-130.895
0
LINE
8
BLACK
6
CONTINUOUS
10
201.666
20
-130.895
11
201.719
21
-130.712
0
LINE
8
BLACK
6
CONTINUOUS
10
201.719
20
-130.712
11
201.799
21
-130.576
0
LINE
8
BLACK
6
CONTINUOUS
10
201.799
20
-130.576
11
201.857
21
-130.514
0
LINE
8
BLACK
6
CONTINUOUS
10
201.857
20
-130.514
11
201.904
21
-130.488
0
LINE
8
BLACK
6
CONTINUOUS
10
201.904
20
-130.488
11
201.988
21
-130.473
0
LINE
8
BLACK
6
CONTINUOUS
10
195.016
20
-127.939
11
194.646
21
-127.671
0
LINE
8
BLACK
6
CONTINUOUS
10
194.831
20
-127.805
11
195.301
21
-127.158
0
LINE
8
BLACK
6
CONTINUOUS
10
195.301
20
-127.158
11
195.172
21
-127.205
0
LINE
8
BLACK
6
CONTINUOUS
10
195.172
20
-127.205
11
195.066
21
-127.222
0
LINE
8
BLACK
6
CONTINUOUS
10
195.066
20
-127.222
11
194.982
21
-127.208
0
LINE
8
BLACK
6
CONTINUOUS
10
195.887
20
-127.583
11
195.948
21
-127.628
0
LINE
8
BLACK
6
CONTINUOUS
10
195.948
20
-127.628
11
195.988
21
-127.704
0
LINE
8
BLACK
6
CONTINUOUS
10
195.988
20
-127.704
11
195.996
21
-127.757
0
LINE
8
BLACK
6
CONTINUOUS
10
195.996
20
-127.757
11
195.982
21
-127.841
0
LINE
8
BLACK
6
CONTINUOUS
10
195.982
20
-127.841
11
195.923
21
-127.986
0
LINE
8
BLACK
6
CONTINUOUS
10
195.923
20
-127.986
11
195.811
21
-128.141
0
LINE
8
BLACK
6
CONTINUOUS
10
195.811
20
-128.141
11
195.691
21
-128.241
0
LINE
8
BLACK
6
CONTINUOUS
10
195.691
20
-128.241
11
195.615
21
-128.281
0
LINE
8
BLACK
6
CONTINUOUS
10
195.615
20
-128.281
11
195.562
21
-128.289
0
LINE
8
BLACK
6
CONTINUOUS
10
195.562
20
-128.289
11
195.478
21
-128.275
0
LINE
8
BLACK
6
CONTINUOUS
10
195.478
20
-128.275
11
195.416
21
-128.23
0
LINE
8
BLACK
6
CONTINUOUS
10
195.416
20
-128.23
11
195.377
21
-128.155
0
LINE
8
BLACK
6
CONTINUOUS
10
195.377
20
-128.155
11
195.369
21
-128.102
0
LINE
8
BLACK
6
CONTINUOUS
10
195.369
20
-128.102
11
195.383
21
-128.018
0
LINE
8
BLACK
6
CONTINUOUS
10
195.383
20
-128.018
11
195.441
21
-127.872
0
LINE
8
BLACK
6
CONTINUOUS
10
195.441
20
-127.872
11
195.553
21
-127.718
0
LINE
8
BLACK
6
CONTINUOUS
10
195.553
20
-127.718
11
195.674
21
-127.617
0
LINE
8
BLACK
6
CONTINUOUS
10
195.674
20
-127.617
11
195.749
21
-127.578
0
LINE
8
BLACK
6
CONTINUOUS
10
195.749
20
-127.578
11
195.803
21
-127.569
0
LINE
8
BLACK
6
CONTINUOUS
10
195.803
20
-127.569
11
195.887
21
-127.583
0
LINE
8
BLACK
6
CONTINUOUS
10
196.503
20
-128.031
11
196.565
21
-128.076
0
LINE
8
BLACK
6
CONTINUOUS
10
196.565
20
-128.076
11
196.604
21
-128.151
0
LINE
8
BLACK
6
CONTINUOUS
10
196.604
20
-128.151
11
196.612
21
-128.205
0
LINE
8
BLACK
6
CONTINUOUS
10
196.612
20
-128.205
11
196.598
21
-128.289
0
LINE
8
BLACK
6
CONTINUOUS
10
196.598
20
-128.289
11
196.54
21
-128.434
0
LINE
8
BLACK
6
CONTINUOUS
10
196.54
20
-128.434
11
196.428
21
-128.588
0
LINE
8
BLACK
6
CONTINUOUS
10
196.428
20
-128.588
11
196.307
21
-128.689
0
LINE
8
BLACK
6
CONTINUOUS
10
196.307
20
-128.689
11
196.232
21
-128.729
0
LINE
8
BLACK
6
CONTINUOUS
10
196.232
20
-128.729
11
196.179
21
-128.737
0
LINE
8
BLACK
6
CONTINUOUS
10
196.179
20
-128.737
11
196.094
21
-128.723
0
LINE
8
BLACK
6
CONTINUOUS
10
196.094
20
-128.723
11
196.033
21
-128.678
0
LINE
8
BLACK
6
CONTINUOUS
10
196.033
20
-128.678
11
195.994
21
-128.603
0
LINE
8
BLACK
6
CONTINUOUS
10
195.994
20
-128.603
11
195.985
21
-128.549
0
LINE
8
BLACK
6
CONTINUOUS
10
195.985
20
-128.549
11
195.999
21
-128.465
0
LINE
8
BLACK
6
CONTINUOUS
10
195.999
20
-128.465
11
196.058
21
-128.32
0
LINE
8
BLACK
6
CONTINUOUS
10
196.058
20
-128.32
11
196.17
21
-128.166
0
LINE
8
BLACK
6
CONTINUOUS
10
196.17
20
-128.166
11
196.29
21
-128.065
0
LINE
8
BLACK
6
CONTINUOUS
10
196.29
20
-128.065
11
196.366
21
-128.025
0
LINE
8
BLACK
6
CONTINUOUS
10
196.366
20
-128.025
11
196.419
21
-128.017
0
LINE
8
BLACK
6
CONTINUOUS
10
196.419
20
-128.017
11
196.503
21
-128.031
0
LINE
8
BLACK
6
CONTINUOUS
10
189.55
20
-121.529
11
189.626
21
-121.661
0
LINE
8
BLACK
6
CONTINUOUS
10
189.626
20
-121.661
11
189.697
21
-121.708
0
LINE
8
BLACK
6
CONTINUOUS
10
189.697
20
-121.708
11
189.749
21
-121.722
0
LINE
8
BLACK
6
CONTINUOUS
10
189.749
20
-121.722
11
189.886
21
-121.731
0
LINE
8
BLACK
6
CONTINUOUS
10
189.886
20
-121.731
11
190.037
21
-121.688
0
LINE
8
BLACK
6
CONTINUOUS
10
190.037
20
-121.688
11
190.301
21
-121.535
0
LINE
8
BLACK
6
CONTINUOUS
10
190.301
20
-121.535
11
190.348
21
-121.464
0
LINE
8
BLACK
6
CONTINUOUS
10
190.348
20
-121.464
11
190.362
21
-121.412
0
LINE
8
BLACK
6
CONTINUOUS
10
190.362
20
-121.412
11
190.357
21
-121.327
0
LINE
8
BLACK
6
CONTINUOUS
10
190.357
20
-121.327
11
190.281
21
-121.195
0
LINE
8
BLACK
6
CONTINUOUS
10
190.281
20
-121.195
11
190.21
21
-121.148
0
LINE
8
BLACK
6
CONTINUOUS
10
190.21
20
-121.148
11
190.158
21
-121.134
0
LINE
8
BLACK
6
CONTINUOUS
10
190.158
20
-121.134
11
190.073
21
-121.139
0
LINE
8
BLACK
6
CONTINUOUS
10
190.073
20
-121.139
11
189.908
21
-121.235
0
LINE
8
BLACK
6
CONTINUOUS
10
189.908
20
-121.235
11
189.861
21
-121.306
0
LINE
8
BLACK
6
CONTINUOUS
10
189.861
20
-121.306
11
189.847
21
-121.358
0
LINE
8
BLACK
6
CONTINUOUS
10
189.847
20
-121.358
11
189.852
21
-121.443
0
LINE
8
BLACK
6
CONTINUOUS
10
189.852
20
-121.443
11
189.928
21
-121.575
0
LINE
8
BLACK
6
CONTINUOUS
10
189.928
20
-121.575
11
189.999
21
-121.622
0
LINE
8
BLACK
6
CONTINUOUS
10
189.999
20
-121.622
11
190.051
21
-121.636
0
LINE
8
BLACK
6
CONTINUOUS
10
190.051
20
-121.636
11
190.136
21
-121.63
0
LINE
8
BLACK
6
CONTINUOUS
10
190.681
20
-121.888
11
190.719
21
-121.954
0
LINE
8
BLACK
6
CONTINUOUS
10
190.719
20
-121.954
11
190.724
21
-122.039
0
LINE
8
BLACK
6
CONTINUOUS
10
190.724
20
-122.039
11
190.71
21
-122.091
0
LINE
8
BLACK
6
CONTINUOUS
10
190.71
20
-122.091
11
190.663
21
-122.162
0
LINE
8
BLACK
6
CONTINUOUS
10
190.663
20
-122.162
11
190.55
21
-122.271
0
LINE
8
BLACK
6
CONTINUOUS
10
190.55
20
-122.271
11
190.385
21
-122.366
0
LINE
8
BLACK
6
CONTINUOUS
10
190.385
20
-122.366
11
190.234
21
-122.41
0
LINE
8
BLACK
6
CONTINUOUS
10
190.234
20
-122.41
11
190.149
21
-122.415
0
LINE
8
BLACK
6
CONTINUOUS
10
190.149
20
-122.415
11
190.097
21
-122.401
0
LINE
8
BLACK
6
CONTINUOUS
10
190.097
20
-122.401
11
190.026
21
-122.354
0
LINE
8
BLACK
6
CONTINUOUS
10
190.026
20
-122.354
11
189.988
21
-122.288
0
LINE
8
BLACK
6
CONTINUOUS
10
189.988
20
-122.288
11
189.983
21
-122.203
0
LINE
8
BLACK
6
CONTINUOUS
10
189.983
20
-122.203
11
189.997
21
-122.151
0
LINE
8
BLACK
6
CONTINUOUS
10
189.997
20
-122.151
11
190.044
21
-122.08
0
LINE
8
BLACK
6
CONTINUOUS
10
190.044
20
-122.08
11
190.157
21
-121.971
0
LINE
8
BLACK
6
CONTINUOUS
10
190.157
20
-121.971
11
190.322
21
-121.875
0
LINE
8
BLACK
6
CONTINUOUS
10
190.322
20
-121.875
11
190.473
21
-121.832
0
LINE
8
BLACK
6
CONTINUOUS
10
190.473
20
-121.832
11
190.558
21
-121.827
0
LINE
8
BLACK
6
CONTINUOUS
10
190.558
20
-121.827
11
190.61
21
-121.841
0
LINE
8
BLACK
6
CONTINUOUS
10
190.61
20
-121.841
11
190.681
21
-121.888
0
LINE
8
BLACK
6
CONTINUOUS
10
188.163
20
-107.131
11
188.328
21
-106.623
0
LINE
8
BLACK
6
CONTINUOUS
10
188.328
20
-106.623
11
188.983
21
-107.197
0
LINE
8
BLACK
6
CONTINUOUS
10
188.54
20
-105.971
11
188.422
21
-106.333
0
LINE
8
BLACK
6
CONTINUOUS
10
188.422
20
-106.333
11
188.773
21
-106.487
0
LINE
8
BLACK
6
CONTINUOUS
10
188.773
20
-106.487
11
188.748
21
-106.439
0
LINE
8
BLACK
6
CONTINUOUS
10
188.748
20
-106.439
11
188.736
21
-106.355
0
LINE
8
BLACK
6
CONTINUOUS
10
188.736
20
-106.355
11
188.794
21
-106.174
0
LINE
8
BLACK
6
CONTINUOUS
10
188.794
20
-106.174
11
188.854
21
-106.113
0
LINE
8
BLACK
6
CONTINUOUS
10
188.854
20
-106.113
11
188.902
21
-106.089
0
LINE
8
BLACK
6
CONTINUOUS
10
188.902
20
-106.089
11
188.986
21
-106.076
0
LINE
8
BLACK
6
CONTINUOUS
10
188.986
20
-106.076
11
189.168
21
-106.135
0
LINE
8
BLACK
6
CONTINUOUS
10
189.168
20
-106.135
11
189.228
21
-106.195
0
LINE
8
BLACK
6
CONTINUOUS
10
189.228
20
-106.195
11
189.253
21
-106.243
0
LINE
8
BLACK
6
CONTINUOUS
10
189.253
20
-106.243
11
189.265
21
-106.327
0
LINE
8
BLACK
6
CONTINUOUS
10
189.265
20
-106.327
11
189.207
21
-106.508
0
LINE
8
BLACK
6
CONTINUOUS
10
189.207
20
-106.508
11
189.147
21
-106.569
0
LINE
8
BLACK
6
CONTINUOUS
10
189.147
20
-106.569
11
189.099
21
-106.593
0
LINE
8
BLACK
6
CONTINUOUS
10
191.104
20
-101.165
11
191.436
21
-100.747
0
LINE
8
BLACK
6
CONTINUOUS
10
191.436
20
-100.747
11
191.85
21
-101.513
0
LINE
8
BLACK
6
CONTINUOUS
10
191.72
20
-100.389
11
191.767
21
-100.329
0
LINE
8
BLACK
6
CONTINUOUS
10
191.767
20
-100.329
11
191.844
21
-100.293
0
LINE
8
BLACK
6
CONTINUOUS
10
191.844
20
-100.293
11
191.898
21
-100.287
0
LINE
8
BLACK
6
CONTINUOUS
10
191.898
20
-100.287
11
191.981
21
-100.305
0
LINE
8
BLACK
6
CONTINUOUS
10
191.981
20
-100.305
11
192.124
21
-100.37
0
LINE
8
BLACK
6
CONTINUOUS
10
192.124
20
-100.37
11
192.273
21
-100.488
0
LINE
8
BLACK
6
CONTINUOUS
10
192.273
20
-100.488
11
192.369
21
-100.612
0
LINE
8
BLACK
6
CONTINUOUS
10
192.369
20
-100.612
11
192.405
21
-100.689
0
LINE
8
BLACK
6
CONTINUOUS
10
192.405
20
-100.689
11
192.411
21
-100.743
0
LINE
8
BLACK
6
CONTINUOUS
10
192.411
20
-100.743
11
192.394
21
-100.826
0
LINE
8
BLACK
6
CONTINUOUS
10
192.394
20
-100.826
11
192.347
21
-100.886
0
LINE
8
BLACK
6
CONTINUOUS
10
192.347
20
-100.886
11
192.269
21
-100.922
0
LINE
8
BLACK
6
CONTINUOUS
10
192.269
20
-100.922
11
192.216
21
-100.928
0
LINE
8
BLACK
6
CONTINUOUS
10
192.216
20
-100.928
11
192.133
21
-100.911
0
LINE
8
BLACK
6
CONTINUOUS
10
192.133
20
-100.911
11
191.989
21
-100.846
0
LINE
8
BLACK
6
CONTINUOUS
10
191.989
20
-100.846
11
191.84
21
-100.728
0
LINE
8
BLACK
6
CONTINUOUS
10
191.84
20
-100.728
11
191.744
21
-100.603
0
LINE
8
BLACK
6
CONTINUOUS
10
191.744
20
-100.603
11
191.708
21
-100.526
0
LINE
8
BLACK
6
CONTINUOUS
10
191.708
20
-100.526
11
191.702
21
-100.473
0
LINE
8
BLACK
6
CONTINUOUS
10
191.702
20
-100.473
11
191.72
21
-100.389
0
LINE
8
BLACK
6
CONTINUOUS
10
219.423
20
-98.1595
11
219.146
21
-97.8987
0
LINE
8
BLACK
6
CONTINUOUS
10
219.146
20
-97.8987
11
218.857
21
-98.1503
0
LINE
8
BLACK
6
CONTINUOUS
10
218.857
20
-98.1503
11
218.911
21
-98.1486
0
LINE
8
BLACK
6
CONTINUOUS
10
218.911
20
-98.1486
11
218.993
21
-98.173
0
LINE
8
BLACK
6
CONTINUOUS
10
218.993
20
-98.173
11
219.131
21
-98.3034
0
LINE
8
BLACK
6
CONTINUOUS
10
219.131
20
-98.3034
11
219.161
21
-98.3833
0
LINE
8
BLACK
6
CONTINUOUS
10
219.161
20
-98.3833
11
219.163
21
-98.4372
0
LINE
8
BLACK
6
CONTINUOUS
10
219.163
20
-98.4372
11
219.138
21
-98.5188
0
LINE
8
BLACK
6
CONTINUOUS
10
219.138
20
-98.5188
11
219.008
21
-98.6576
0
LINE
8
BLACK
6
CONTINUOUS
10
219.008
20
-98.6576
11
218.928
21
-98.6871
0
LINE
8
BLACK
6
CONTINUOUS
10
218.928
20
-98.6871
11
218.874
21
-98.6888
0
LINE
8
BLACK
6
CONTINUOUS
10
218.874
20
-98.6888
11
218.792
21
-98.6644
0
LINE
8
BLACK
6
CONTINUOUS
10
218.792
20
-98.6644
11
218.654
21
-98.534
0
LINE
8
BLACK
6
CONTINUOUS
10
218.654
20
-98.534
11
218.624
21
-98.4541
0
LINE
8
BLACK
6
CONTINUOUS
10
218.624
20
-98.4541
11
218.622
21
-98.4002
0
LINE
8
BLACK
6
CONTINUOUS
10
219.812
20
-98.5246
11
219.868
21
-98.5767
0
LINE
8
BLACK
6
CONTINUOUS
10
219.868
20
-98.5767
11
219.897
21
-98.6566
0
LINE
8
BLACK
6
CONTINUOUS
10
219.897
20
-98.6566
11
219.899
21
-98.7105
0
LINE
8
BLACK
6
CONTINUOUS
10
219.899
20
-98.7105
11
219.874
21
-98.7921
0
LINE
8
BLACK
6
CONTINUOUS
10
219.874
20
-98.7921
11
219.798
21
-98.9293
0
LINE
8
BLACK
6
CONTINUOUS
10
219.798
20
-98.9293
11
219.668
21
-99.0681
0
LINE
8
BLACK
6
CONTINUOUS
10
219.668
20
-99.0681
11
219.535
21
-99.1531
0
LINE
8
BLACK
6
CONTINUOUS
10
219.535
20
-99.1531
11
219.455
21
-99.1826
0
LINE
8
BLACK
6
CONTINUOUS
10
219.455
20
-99.1826
11
219.402
21
-99.1843
0
LINE
8
BLACK
6
CONTINUOUS
10
219.402
20
-99.1843
11
219.32
21
-99.1599
0
LINE
8
BLACK
6
CONTINUOUS
10
219.32
20
-99.1599
11
219.264
21
-99.1077
0
LINE
8
BLACK
6
CONTINUOUS
10
219.264
20
-99.1077
11
219.235
21
-99.0278
0
LINE
8
BLACK
6
CONTINUOUS
10
219.235
20
-99.0278
11
219.233
21
-98.974
0
LINE
8
BLACK
6
CONTINUOUS
10
219.233
20
-98.974
11
219.258
21
-98.8923
0
LINE
8
BLACK
6
CONTINUOUS
10
219.258
20
-98.8923
11
219.334
21
-98.7552
0
LINE
8
BLACK
6
CONTINUOUS
10
219.334
20
-98.7552
11
219.465
21
-98.6163
0
LINE
8
BLACK
6
CONTINUOUS
10
219.465
20
-98.6163
11
219.597
21
-98.5313
0
LINE
8
BLACK
6
CONTINUOUS
10
219.597
20
-98.5313
11
219.677
21
-98.5019
0
LINE
8
BLACK
6
CONTINUOUS
10
219.677
20
-98.5019
11
219.731
21
-98.5002
0
LINE
8
BLACK
6
CONTINUOUS
10
219.731
20
-98.5002
11
219.812
21
-98.5246
0
LINE
8
BLACK
6
CONTINUOUS
10
220.368
20
-99.0461
11
220.423
21
-99.0983
0
LINE
8
BLACK
6
CONTINUOUS
10
220.423
20
-99.0983
11
220.453
21
-99.1782
0
LINE
8
BLACK
6
CONTINUOUS
10
220.453
20
-99.1782
11
220.454
21
-99.2321
0
LINE
8
BLACK
6
CONTINUOUS
10
220.454
20
-99.2321
11
220.43
21
-99.3137
0
LINE
8
BLACK
6
CONTINUOUS
10
220.43
20
-99.3137
11
220.353
21
-99.4508
0
LINE
8
BLACK
6
CONTINUOUS
10
220.353
20
-99.4508
11
220.223
21
-99.5897
0
LINE
8
BLACK
6
CONTINUOUS
10
220.223
20
-99.5897
11
220.091
21
-99.6747
0
LINE
8
BLACK
6
CONTINUOUS
10
220.091
20
-99.6747
11
220.011
21
-99.7041
0
LINE
8
BLACK
6
CONTINUOUS
10
220.011
20
-99.7041
11
219.957
21
-99.7058
0
LINE
8
BLACK
6
CONTINUOUS
10
219.957
20
-99.7058
11
219.875
21
-99.6815
0
LINE
8
BLACK
6
CONTINUOUS
10
219.875
20
-99.6815
11
219.82
21
-99.6293
0
LINE
8
BLACK
6
CONTINUOUS
10
219.82
20
-99.6293
11
219.79
21
-99.5494
0
LINE
8
BLACK
6
CONTINUOUS
10
219.79
20
-99.5494
11
219.789
21
-99.4955
0
LINE
8
BLACK
6
CONTINUOUS
10
219.789
20
-99.4955
11
219.813
21
-99.4139
0
LINE
8
BLACK
6
CONTINUOUS
10
219.813
20
-99.4139
11
219.89
21
-99.2767
0
LINE
8
BLACK
6
CONTINUOUS
10
219.89
20
-99.2767
11
220.02
21
-99.1379
0
LINE
8
BLACK
6
CONTINUOUS
10
220.02
20
-99.1379
11
220.152
21
-99.0529
0
LINE
8
BLACK
6
CONTINUOUS
10
220.152
20
-99.0529
11
220.232
21
-99.0234
0
LINE
8
BLACK
6
CONTINUOUS
10
220.232
20
-99.0234
11
220.286
21
-99.0217
0
LINE
8
BLACK
6
CONTINUOUS
10
220.286
20
-99.0217
11
220.368
21
-99.0461
0
LINE
8
BLACK
6
CONTINUOUS
10
224.719
20
-105.826
11
224.872
21
-106.297
0
LINE
8
BLACK
6
CONTINUOUS
10
224.872
20
-106.297
11
224.5
21
-106.138
0
LINE
8
BLACK
6
CONTINUOUS
10
224.5
20
-106.138
11
224.535
21
-106.247
0
LINE
8
BLACK
6
CONTINUOUS
10
224.535
20
-106.247
11
224.522
21
-106.331
0
LINE
8
BLACK
6
CONTINUOUS
10
224.522
20
-106.331
11
224.498
21
-106.379
0
LINE
8
BLACK
6
CONTINUOUS
10
224.498
20
-106.379
11
224.437
21
-106.439
0
LINE
8
BLACK
6
CONTINUOUS
10
224.437
20
-106.439
11
224.256
21
-106.498
0
LINE
8
BLACK
6
CONTINUOUS
10
224.256
20
-106.498
11
224.172
21
-106.485
0
LINE
8
BLACK
6
CONTINUOUS
10
224.172
20
-106.485
11
224.124
21
-106.46
0
LINE
8
BLACK
6
CONTINUOUS
10
224.124
20
-106.46
11
224.064
21
-106.4
0
LINE
8
BLACK
6
CONTINUOUS
10
224.064
20
-106.4
11
223.993
21
-106.182
0
LINE
8
BLACK
6
CONTINUOUS
10
223.993
20
-106.182
11
224.006
21
-106.098
0
LINE
8
BLACK
6
CONTINUOUS
10
224.006
20
-106.098
11
224.03
21
-106.05
0
LINE
8
BLACK
6
CONTINUOUS
10
225.025
20
-106.768
11
225.048
21
-106.841
0
LINE
8
BLACK
6
CONTINUOUS
10
225.048
20
-106.841
11
225.036
21
-106.925
0
LINE
8
BLACK
6
CONTINUOUS
10
225.036
20
-106.925
11
225.011
21
-106.973
0
LINE
8
BLACK
6
CONTINUOUS
10
225.011
20
-106.973
11
224.951
21
-107.033
0
LINE
8
BLACK
6
CONTINUOUS
10
224.951
20
-107.033
11
224.817
21
-107.116
0
LINE
8
BLACK
6
CONTINUOUS
10
224.817
20
-107.116
11
224.636
21
-107.175
0
LINE
8
BLACK
6
CONTINUOUS
10
224.636
20
-107.175
11
224.48
21
-107.186
0
LINE
8
BLACK
6
CONTINUOUS
10
224.48
20
-107.186
11
224.395
21
-107.173
0
LINE
8
BLACK
6
CONTINUOUS
10
224.395
20
-107.173
11
224.347
21
-107.149
0
LINE
8
BLACK
6
CONTINUOUS
10
224.347
20
-107.149
11
224.288
21
-107.088
0
LINE
8
BLACK
6
CONTINUOUS
10
224.288
20
-107.088
11
224.264
21
-107.016
0
LINE
8
BLACK
6
CONTINUOUS
10
224.264
20
-107.016
11
224.277
21
-106.931
0
LINE
8
BLACK
6
CONTINUOUS
10
224.277
20
-106.931
11
224.301
21
-106.883
0
LINE
8
BLACK
6
CONTINUOUS
10
224.301
20
-106.883
11
224.362
21
-106.824
0
LINE
8
BLACK
6
CONTINUOUS
10
224.362
20
-106.824
11
224.495
21
-106.74
0
LINE
8
BLACK
6
CONTINUOUS
10
224.495
20
-106.74
11
224.676
21
-106.681
0
LINE
8
BLACK
6
CONTINUOUS
10
224.676
20
-106.681
11
224.833
21
-106.671
0
LINE
8
BLACK
6
CONTINUOUS
10
224.833
20
-106.671
11
224.917
21
-106.683
0
LINE
8
BLACK
6
CONTINUOUS
10
224.917
20
-106.683
11
224.965
21
-106.708
0
LINE
8
BLACK
6
CONTINUOUS
10
224.965
20
-106.708
11
225.025
21
-106.768
0
LINE
8
BLACK
6
CONTINUOUS
10
225.26
20
-107.493
11
225.284
21
-107.565
0
LINE
8
BLACK
6
CONTINUOUS
10
225.284
20
-107.565
11
225.271
21
-107.65
0
LINE
8
BLACK
6
CONTINUOUS
10
225.271
20
-107.65
11
225.247
21
-107.698
0
LINE
8
BLACK
6
CONTINUOUS
10
225.247
20
-107.698
11
225.186
21
-107.757
0
LINE
8
BLACK
6
CONTINUOUS
10
225.186
20
-107.757
11
225.053
21
-107.841
0
LINE
8
BLACK
6
CONTINUOUS
10
225.053
20
-107.841
11
224.872
21
-107.9
0
LINE
8
BLACK
6
CONTINUOUS
10
224.872
20
-107.9
11
224.715
21
-107.911
0
LINE
8
BLACK
6
CONTINUOUS
10
224.715
20
-107.911
11
224.631
21
-107.898
0
LINE
8
BLACK
6
CONTINUOUS
10
224.631
20
-107.898
11
224.583
21
-107.873
0
LINE
8
BLACK
6
CONTINUOUS
10
224.583
20
-107.873
11
224.523
21
-107.813
0
LINE
8
BLACK
6
CONTINUOUS
10
224.523
20
-107.813
11
224.499
21
-107.74
0
LINE
8
BLACK
6
CONTINUOUS
10
224.499
20
-107.74
11
224.512
21
-107.656
0
LINE
8
BLACK
6
CONTINUOUS
10
224.512
20
-107.656
11
224.537
21
-107.608
0
LINE
8
BLACK
6
CONTINUOUS
10
224.537
20
-107.608
11
224.597
21
-107.548
0
LINE
8
BLACK
6
CONTINUOUS
10
224.597
20
-107.548
11
224.73
21
-107.465
0
LINE
8
BLACK
6
CONTINUOUS
10
224.73
20
-107.465
11
224.912
21
-107.406
0
LINE
8
BLACK
6
CONTINUOUS
10
224.912
20
-107.406
11
225.068
21
-107.395
0
LINE
8
BLACK
6
CONTINUOUS
10
225.068
20
-107.395
11
225.153
21
-107.408
0
LINE
8
BLACK
6
CONTINUOUS
10
225.153
20
-107.408
11
225.201
21
-107.432
0
LINE
8
BLACK
6
CONTINUOUS
10
225.201
20
-107.432
11
225.26
21
-107.493
0
LINE
8
BLACK
6
CONTINUOUS
10
223.93
20
-119.44
11
223.905
21
-119.392
0
LINE
8
BLACK
6
CONTINUOUS
10
223.905
20
-119.392
11
223.893
21
-119.308
0
LINE
8
BLACK
6
CONTINUOUS
10
223.893
20
-119.308
11
223.951
21
-119.127
0
LINE
8
BLACK
6
CONTINUOUS
10
223.951
20
-119.127
11
224.011
21
-119.066
0
LINE
8
BLACK
6
CONTINUOUS
10
224.011
20
-119.066
11
224.059
21
-119.042
0
LINE
8
BLACK
6
CONTINUOUS
10
224.059
20
-119.042
11
224.143
21
-119.029
0
LINE
8
BLACK
6
CONTINUOUS
10
224.143
20
-119.029
11
224.216
21
-119.052
0
LINE
8
BLACK
6
CONTINUOUS
10
224.216
20
-119.052
11
224.313
21
-119.124
0
LINE
8
BLACK
6
CONTINUOUS
10
224.313
20
-119.124
11
224.606
21
-119.7
0
LINE
8
BLACK
6
CONTINUOUS
10
224.606
20
-119.7
11
224.759
21
-119.229
0
LINE
8
BLACK
6
CONTINUOUS
10
224.152
20
-118.511
11
224.175
21
-118.438
0
LINE
8
BLACK
6
CONTINUOUS
10
224.175
20
-118.438
11
224.235
21
-118.378
0
LINE
8
BLACK
6
CONTINUOUS
10
224.235
20
-118.378
11
224.283
21
-118.353
0
LINE
8
BLACK
6
CONTINUOUS
10
224.283
20
-118.353
11
224.367
21
-118.341
0
LINE
8
BLACK
6
CONTINUOUS
10
224.367
20
-118.341
11
224.524
21
-118.351
0
LINE
8
BLACK
6
CONTINUOUS
10
224.524
20
-118.351
11
224.705
21
-118.41
0
LINE
8
BLACK
6
CONTINUOUS
10
224.705
20
-118.41
11
224.838
21
-118.494
0
LINE
8
BLACK
6
CONTINUOUS
10
224.838
20
-118.494
11
224.899
21
-118.553
0
LINE
8
BLACK
6
CONTINUOUS
10
224.899
20
-118.553
11
224.923
21
-118.601
0
LINE
8
BLACK
6
CONTINUOUS
10
224.923
20
-118.601
11
224.936
21
-118.686
0
LINE
8
BLACK
6
CONTINUOUS
10
224.936
20
-118.686
11
224.912
21
-118.758
0
LINE
8
BLACK
6
CONTINUOUS
10
224.912
20
-118.758
11
224.853
21
-118.819
0
LINE
8
BLACK
6
CONTINUOUS
10
224.853
20
-118.819
11
224.805
21
-118.843
0
LINE
8
BLACK
6
CONTINUOUS
10
224.805
20
-118.843
11
224.72
21
-118.856
0
LINE
8
BLACK
6
CONTINUOUS
10
224.72
20
-118.856
11
224.564
21
-118.845
0
LINE
8
BLACK
6
CONTINUOUS
10
224.564
20
-118.845
11
224.383
21
-118.786
0
LINE
8
BLACK
6
CONTINUOUS
10
224.383
20
-118.786
11
224.249
21
-118.703
0
LINE
8
BLACK
6
CONTINUOUS
10
224.249
20
-118.703
11
224.189
21
-118.643
0
LINE
8
BLACK
6
CONTINUOUS
10
224.189
20
-118.643
11
224.164
21
-118.595
0
LINE
8
BLACK
6
CONTINUOUS
10
224.164
20
-118.595
11
224.152
21
-118.511
0
LINE
8
BLACK
6
CONTINUOUS
10
224.387
20
-117.786
11
224.411
21
-117.714
0
LINE
8
BLACK
6
CONTINUOUS
10
224.411
20
-117.714
11
224.47
21
-117.653
0
LINE
8
BLACK
6
CONTINUOUS
10
224.47
20
-117.653
11
224.518
21
-117.629
0
LINE
8
BLACK
6
CONTINUOUS
10
224.518
20
-117.629
11
224.603
21
-117.616
0
LINE
8
BLACK
6
CONTINUOUS
10
224.603
20
-117.616
11
224.759
21
-117.627
0
LINE
8
BLACK
6
CONTINUOUS
10
224.759
20
-117.627
11
224.94
21
-117.686
0
LINE
8
BLACK
6
CONTINUOUS
10
224.94
20
-117.686
11
225.074
21
-117.769
0
LINE
8
BLACK
6
CONTINUOUS
10
225.074
20
-117.769
11
225.134
21
-117.829
0
LINE
8
BLACK
6
CONTINUOUS
10
225.134
20
-117.829
11
225.159
21
-117.877
0
LINE
8
BLACK
6
CONTINUOUS
10
225.159
20
-117.877
11
225.171
21
-117.961
0
LINE
8
BLACK
6
CONTINUOUS
10
225.171
20
-117.961
11
225.148
21
-118.033
0
LINE
8
BLACK
6
CONTINUOUS
10
225.148
20
-118.033
11
225.088
21
-118.094
0
LINE
8
BLACK
6
CONTINUOUS
10
225.088
20
-118.094
11
225.04
21
-118.119
0
LINE
8
BLACK
6
CONTINUOUS
10
225.04
20
-118.119
11
224.956
21
-118.131
0
LINE
8
BLACK
6
CONTINUOUS
10
224.956
20
-118.131
11
224.799
21
-118.12
0
LINE
8
BLACK
6
CONTINUOUS
10
224.799
20
-118.12
11
224.618
21
-118.062
0
LINE
8
BLACK
6
CONTINUOUS
10
224.618
20
-118.062
11
224.485
21
-117.978
0
LINE
8
BLACK
6
CONTINUOUS
10
224.485
20
-117.978
11
224.424
21
-117.918
0
LINE
8
BLACK
6
CONTINUOUS
10
224.424
20
-117.918
11
224.4
21
-117.87
0
LINE
8
BLACK
6
CONTINUOUS
10
224.4
20
-117.87
11
224.387
21
-117.786
0
LINE
8
BLACK
6
CONTINUOUS
10
214.271
20
-130.329
11
213.847
21
-130.501
0
LINE
8
BLACK
6
CONTINUOUS
10
214.059
20
-130.415
11
213.759
21
-129.673
0
LINE
8
BLACK
6
CONTINUOUS
10
213.759
20
-129.673
11
213.732
21
-129.808
0
LINE
8
BLACK
6
CONTINUOUS
10
213.732
20
-129.808
11
213.69
21
-129.907
0
LINE
8
BLACK
6
CONTINUOUS
10
213.69
20
-129.907
11
213.633
21
-129.971
0
LINE
8
BLACK
6
CONTINUOUS
10
214.707
20
-129.578
11
214.907
21
-130.072
0
LINE
8
BLACK
6
CONTINUOUS
10
214.416
20
-129.367
11
214.454
21
-129.968
0
LINE
8
BLACK
6
CONTINUOUS
10
214.454
20
-129.968
11
214.913
21
-129.782
0
LINE
8
BLACK
6
CONTINUOUS
10
215.137
20
-129.117
11
215.208
21
-129.088
0
LINE
8
BLACK
6
CONTINUOUS
10
215.208
20
-129.088
11
215.293
21
-129.095
0
LINE
8
BLACK
6
CONTINUOUS
10
215.293
20
-129.095
11
215.342
21
-129.116
0
LINE
8
BLACK
6
CONTINUOUS
10
215.342
20
-129.116
11
215.406
21
-129.172
0
LINE
8
BLACK
6
CONTINUOUS
10
215.406
20
-129.172
11
215.498
21
-129.299
0
LINE
8
BLACK
6
CONTINUOUS
10
215.498
20
-129.299
11
215.57
21
-129.476
0
LINE
8
BLACK
6
CONTINUOUS
10
215.57
20
-129.476
11
215.592
21
-129.631
0
LINE
8
BLACK
6
CONTINUOUS
10
215.592
20
-129.631
11
215.585
21
-129.716
0
LINE
8
BLACK
6
CONTINUOUS
10
215.585
20
-129.716
11
215.564
21
-129.766
0
LINE
8
BLACK
6
CONTINUOUS
10
215.564
20
-129.766
11
215.507
21
-129.83
0
LINE
8
BLACK
6
CONTINUOUS
10
215.507
20
-129.83
11
215.437
21
-129.858
0
LINE
8
BLACK
6
CONTINUOUS
10
215.437
20
-129.858
11
215.352
21
-129.852
0
LINE
8
BLACK
6
CONTINUOUS
10
215.352
20
-129.852
11
215.302
21
-129.831
0
LINE
8
BLACK
6
CONTINUOUS
10
215.302
20
-129.831
11
215.238
21
-129.774
0
LINE
8
BLACK
6
CONTINUOUS
10
215.238
20
-129.774
11
215.146
21
-129.647
0
LINE
8
BLACK
6
CONTINUOUS
10
215.146
20
-129.647
11
215.075
21
-129.471
0
LINE
8
BLACK
6
CONTINUOUS
10
215.075
20
-129.471
11
215.053
21
-129.315
0
LINE
8
BLACK
6
CONTINUOUS
10
215.053
20
-129.315
11
215.06
21
-129.23
0
LINE
8
BLACK
6
CONTINUOUS
10
215.06
20
-129.23
11
215.081
21
-129.181
0
LINE
8
BLACK
6
CONTINUOUS
10
215.081
20
-129.181
11
215.137
21
-129.117
0
LINE
8
BLACK
6
CONTINUOUS
10
206.147
20
-131.852
11
205.69
21
-131.852
0
LINE
8
BLACK
6
CONTINUOUS
10
205.918
20
-131.852
11
205.918
21
-131.052
0
LINE
8
BLACK
6
CONTINUOUS
10
205.918
20
-131.052
11
205.842
21
-131.166
0
LINE
8
BLACK
6
CONTINUOUS
10
205.842
20
-131.166
11
205.766
21
-131.242
0
LINE
8
BLACK
6
CONTINUOUS
10
205.766
20
-131.242
11
205.69
21
-131.28
0
LINE
8
BLACK
6
CONTINUOUS
10
206.451
20
-131.128
11
206.49
21
-131.09
0
LINE
8
BLACK
6
CONTINUOUS
10
206.49
20
-131.09
11
206.566
21
-131.052
0
LINE
8
BLACK
6
CONTINUOUS
10
206.566
20
-131.052
11
206.756
21
-131.052
0
LINE
8
BLACK
6
CONTINUOUS
10
206.756
20
-131.052
11
206.832
21
-131.09
0
LINE
8
BLACK
6
CONTINUOUS
10
206.832
20
-131.09
11
206.87
21
-131.128
0
LINE
8
BLACK
6
CONTINUOUS
10
206.87
20
-131.128
11
206.909
21
-131.204
0
LINE
8
BLACK
6
CONTINUOUS
10
206.909
20
-131.204
11
206.909
21
-131.28
0
LINE
8
BLACK
6
CONTINUOUS
10
206.909
20
-131.28
11
206.87
21
-131.395
0
LINE
8
BLACK
6
CONTINUOUS
10
206.87
20
-131.395
11
206.413
21
-131.852
0
LINE
8
BLACK
6
CONTINUOUS
10
206.413
20
-131.852
11
206.909
21
-131.852
0
LINE
8
BLACK
6
CONTINUOUS
10
207.404
20
-131.052
11
207.48
21
-131.052
0
LINE
8
BLACK
6
CONTINUOUS
10
207.48
20
-131.052
11
207.556
21
-131.09
0
LINE
8
BLACK
6
CONTINUOUS
10
207.556
20
-131.09
11
207.594
21
-131.128
0
LINE
8
BLACK
6
CONTINUOUS
10
207.594
20
-131.128
11
207.632
21
-131.204
0
LINE
8
BLACK
6
CONTINUOUS
10
207.632
20
-131.204
11
207.67
21
-131.357
0
LINE
8
BLACK
6
CONTINUOUS
10
207.67
20
-131.357
11
207.67
21
-131.547
0
LINE
8
BLACK
6
CONTINUOUS
10
207.67
20
-131.547
11
207.632
21
-131.7
0
LINE
8
BLACK
6
CONTINUOUS
10
207.632
20
-131.7
11
207.594
21
-131.776
0
LINE
8
BLACK
6
CONTINUOUS
10
207.594
20
-131.776
11
207.556
21
-131.814
0
LINE
8
BLACK
6
CONTINUOUS
10
207.556
20
-131.814
11
207.48
21
-131.852
0
LINE
8
BLACK
6
CONTINUOUS
10
207.48
20
-131.852
11
207.404
21
-131.852
0
LINE
8
BLACK
6
CONTINUOUS
10
207.404
20
-131.852
11
207.328
21
-131.814
0
LINE
8
BLACK
6
CONTINUOUS
10
207.328
20
-131.814
11
207.29
21
-131.776
0
LINE
8
BLACK
6
CONTINUOUS
10
207.29
20
-131.776
11
207.251
21
-131.7
0
LINE
8
BLACK
6
CONTINUOUS
10
207.251
20
-131.7
11
207.213
21
-131.547
0
LINE
8
BLACK
6
CONTINUOUS
10
207.213
20
-131.547
11
207.213
21
-131.357
0
LINE
8
BLACK
6
CONTINUOUS
10
207.213
20
-131.357
11
207.251
21
-131.204
0
LINE
8
BLACK
6
CONTINUOUS
10
207.251
20
-131.204
11
207.29
21
-131.128
0
LINE
8
BLACK
6
CONTINUOUS
10
207.29
20
-131.128
11
207.328
21
-131.09
0
LINE
8
BLACK
6
CONTINUOUS
10
207.328
20
-131.09
11
207.404
21
-131.052
0
LINE
8
BLACK
6
CONTINUOUS
10
215.446
20
-96.2409
11
215.393
21
-95.8375
0
LINE
8
BLACK
6
CONTINUOUS
10
215.091
20
-96.0562
11
215.414
21
-95.4353
0
LINE
8
BLACK
6
CONTINUOUS
10
215.414
20
-95.4353
11
215.651
21
-95.5585
0
LINE
8
BLACK
6
CONTINUOUS
10
215.651
20
-95.5585
11
215.695
21
-95.6188
0
LINE
8
BLACK
6
CONTINUOUS
10
215.695
20
-95.6188
11
215.709
21
-95.6638
0
LINE
8
BLACK
6
CONTINUOUS
10
215.709
20
-95.6638
11
215.708
21
-95.7383
0
LINE
8
BLACK
6
CONTINUOUS
10
215.708
20
-95.7383
11
215.661
21
-95.827
0
LINE
8
BLACK
6
CONTINUOUS
10
215.661
20
-95.827
11
215.601
21
-95.8707
0
LINE
8
BLACK
6
CONTINUOUS
10
215.601
20
-95.8707
11
215.556
21
-95.8849
0
LINE
8
BLACK
6
CONTINUOUS
10
215.556
20
-95.8849
11
215.482
21
-95.8837
0
LINE
8
BLACK
6
CONTINUOUS
10
215.482
20
-95.8837
11
215.245
21
-95.7606
0
LINE
8
BLACK
6
CONTINUOUS
10
213.762
20
-94.6793
11
214.131
21
-94.8324
0
LINE
8
BLACK
6
CONTINUOUS
10
213.679
20
-95.4026
11
213.947
21
-94.7558
0
LINE
8
BLACK
6
CONTINUOUS
10
213.016
20
-94.7517
11
213.235
21
-94.8315
0
LINE
8
BLACK
6
CONTINUOUS
10
213.204
20
-95.2103
11
212.891
21
-95.0963
0
LINE
8
BLACK
6
CONTINUOUS
10
212.891
20
-95.0963
11
213.13
21
-94.4385
0
LINE
8
BLACK
6
CONTINUOUS
10
213.13
20
-94.4385
11
213.443
21
-94.5525
0
LINE
8
BLACK
6
CONTINUOUS
10
214.485
20
-95.3513
11
214.697
21
-95.4499
0
LINE
8
BLACK
6
CONTINUOUS
10
214.632
20
-95.8245
11
214.33
21
-95.6836
0
LINE
8
BLACK
6
CONTINUOUS
10
214.33
20
-95.6836
11
214.626
21
-95.0492
0
LINE
8
BLACK
6
CONTINUOUS
10
214.626
20
-95.0492
11
214.928
21
-95.1901
0
LINE
8
BLACK
6
CONTINUOUS
10
208.294
20
-93.3907
11
208.693
21
-93.4256
0
LINE
8
BLACK
6
CONTINUOUS
10
208.432
20
-94.1055
11
208.493
21
-93.4081
0
LINE
8
BLACK
6
CONTINUOUS
10
210.566
20
-94.4359
11
210.718
21
-93.7525
0
LINE
8
BLACK
6
CONTINUOUS
10
210.646
20
-94.0779
11
211.036
21
-94.1645
0
LINE
8
BLACK
6
CONTINUOUS
10
210.957
20
-94.5224
11
211.108
21
-93.839
0
LINE
8
BLACK
6
CONTINUOUS
10
211.524
20
-94.3239
11
211.438
21
-94.6459
0
LINE
8
BLACK
6
CONTINUOUS
10
211.394
20
-93.9093
11
211.524
21
-94.3239
0
LINE
8
BLACK
6
CONTINUOUS
10
211.524
20
-94.3239
11
211.845
21
-94.0301
0
LINE
8
BLACK
6
CONTINUOUS
10
210.23
20
-94.2738
11
210.191
21
-94.3009
0
LINE
8
BLACK
6
CONTINUOUS
10
210.191
20
-94.3009
11
210.087
21
-94.3163
0
LINE
8
BLACK
6
CONTINUOUS
10
210.087
20
-94.3163
11
210.021
21
-94.3047
0
LINE
8
BLACK
6
CONTINUOUS
10
210.021
20
-94.3047
11
209.929
21
-94.2546
0
LINE
8
BLACK
6
CONTINUOUS
10
209.929
20
-94.2546
11
209.875
21
-94.1773
0
LINE
8
BLACK
6
CONTINUOUS
10
209.875
20
-94.1773
11
209.853
21
-94.1059
0
LINE
8
BLACK
6
CONTINUOUS
10
209.853
20
-94.1059
11
209.844
21
-93.9688
0
LINE
8
BLACK
6
CONTINUOUS
10
209.844
20
-93.9688
11
209.861
21
-93.8703
0
LINE
8
BLACK
6
CONTINUOUS
10
209.861
20
-93.8703
11
209.917
21
-93.7448
0
LINE
8
BLACK
6
CONTINUOUS
10
209.917
20
-93.7448
11
209.961
21
-93.6849
0
LINE
8
BLACK
6
CONTINUOUS
10
209.961
20
-93.6849
11
210.039
21
-93.6308
0
LINE
8
BLACK
6
CONTINUOUS
10
210.039
20
-93.6308
11
210.143
21
-93.6154
0
LINE
8
BLACK
6
CONTINUOUS
10
210.143
20
-93.6154
11
210.209
21
-93.627
0
LINE
8
BLACK
6
CONTINUOUS
10
210.209
20
-93.627
11
210.301
21
-93.6772
0
LINE
8
BLACK
6
CONTINUOUS
10
210.301
20
-93.6772
11
210.328
21
-93.7158
0
LINE
8
BLACK
6
CONTINUOUS
10
219.206
20
-133.292
11
219.206
21
-132.292
0
LINE
8
BLACK
6
CONTINUOUS
10
219.206
20
-132.292
11
219.539
21
-133.007
0
LINE
8
BLACK
6
CONTINUOUS
10
219.539
20
-133.007
11
219.872
21
-132.292
0
LINE
8
BLACK
6
CONTINUOUS
10
219.872
20
-132.292
11
219.872
21
-133.292
0
LINE
8
BLACK
6
CONTINUOUS
10
220.349
20
-133.292
11
220.349
21
-132.292
0
LINE
8
BLACK
6
CONTINUOUS
10
220.444
20
-132.911
11
220.73
21
-133.292
0
LINE
8
BLACK
6
CONTINUOUS
10
220.73
20
-132.626
11
220.349
21
-133.007
0
LINE
8
BLACK
6
CONTINUOUS
10
221.634
20
-132.292
11
221.158
21
-132.292
0
LINE
8
BLACK
6
CONTINUOUS
10
221.158
20
-132.292
11
221.11
21
-132.769
0
LINE
8
BLACK
6
CONTINUOUS
10
221.11
20
-132.769
11
221.158
21
-132.721
0
LINE
8
BLACK
6
CONTINUOUS
10
221.158
20
-132.721
11
221.253
21
-132.673
0
LINE
8
BLACK
6
CONTINUOUS
10
221.253
20
-132.673
11
221.491
21
-132.673
0
LINE
8
BLACK
6
CONTINUOUS
10
221.491
20
-132.673
11
221.587
21
-132.721
0
LINE
8
BLACK
6
CONTINUOUS
10
221.587
20
-132.721
11
221.634
21
-132.769
0
LINE
8
BLACK
6
CONTINUOUS
10
221.634
20
-132.769
11
221.682
21
-132.864
0
LINE
8
BLACK
6
CONTINUOUS
10
221.682
20
-132.864
11
221.682
21
-133.102
0
LINE
8
BLACK
6
CONTINUOUS
10
221.682
20
-133.102
11
221.634
21
-133.197
0
LINE
8
BLACK
6
CONTINUOUS
10
221.634
20
-133.197
11
221.587
21
-133.245
0
LINE
8
BLACK
6
CONTINUOUS
10
221.587
20
-133.245
11
221.491
21
-133.292
0
LINE
8
BLACK
6
CONTINUOUS
10
221.491
20
-133.292
11
221.253
21
-133.292
0
LINE
8
BLACK
6
CONTINUOUS
10
221.253
20
-133.292
11
221.158
21
-133.245
0
LINE
8
BLACK
6
CONTINUOUS
10
221.158
20
-133.245
11
221.11
21
-133.197
0
CIRCLE
8
BLACK
10
206.64
20
-112.6
40
18.0348
0
CIRCLE
8
BLACK
10
206.64
20
-112.6
40
19.8504
0
LINE
8
BLACK
6
CONTINUOUS
10
206.421
20
-93.3019
11
206.269
21
-93.3019
0
LINE
8
BLACK
6
CONTINUOUS
10
206.269
20
-93.3019
11
206.193
21
-93.34
0
LINE
8
BLACK
6
CONTINUOUS
10
206.193
20
-93.34
11
206.155
21
-93.3781
0
LINE
8
BLACK
6
CONTINUOUS
10
206.155
20
-93.3781
11
206.079
21
-93.4924
0
LINE
8
BLACK
6
CONTINUOUS
10
206.079
20
-93.4924
11
206.04
21
-93.6448
0
LINE
8
BLACK
6
CONTINUOUS
10
206.04
20
-93.6448
11
206.04
21
-93.9495
0
LINE
8
BLACK
6
CONTINUOUS
10
206.04
20
-93.9495
11
206.079
21
-94.0257
0
LINE
8
BLACK
6
CONTINUOUS
10
206.079
20
-94.0257
11
206.117
21
-94.0638
0
LINE
8
BLACK
6
CONTINUOUS
10
206.117
20
-94.0638
11
206.193
21
-94.1019
0
LINE
8
BLACK
6
CONTINUOUS
10
206.193
20
-94.1019
11
206.345
21
-94.1019
0
LINE
8
BLACK
6
CONTINUOUS
10
206.345
20
-94.1019
11
206.421
21
-94.0638
0
LINE
8
BLACK
6
CONTINUOUS
10
206.421
20
-94.0638
11
206.46
21
-94.0257
0
LINE
8
BLACK
6
CONTINUOUS
10
206.46
20
-94.0257
11
206.498
21
-93.9495
0
LINE
8
BLACK
6
CONTINUOUS
10
206.498
20
-93.9495
11
206.498
21
-93.759
0
LINE
8
BLACK
6
CONTINUOUS
10
206.498
20
-93.759
11
206.46
21
-93.6829
0
LINE
8
BLACK
6
CONTINUOUS
10
206.46
20
-93.6829
11
206.421
21
-93.6448
0
LINE
8
BLACK
6
CONTINUOUS
10
206.421
20
-93.6448
11
206.345
21
-93.6067
0
LINE
8
BLACK
6
CONTINUOUS
10
206.345
20
-93.6067
11
206.193
21
-93.6067
0
LINE
8
BLACK
6
CONTINUOUS
10
206.193
20
-93.6067
11
206.117
21
-93.6448
0
LINE
8
BLACK
6
CONTINUOUS
10
206.117
20
-93.6448
11
206.079
21
-93.6829
0
LINE
8
BLACK
6
CONTINUOUS
10
206.079
20
-93.6829
11
206.04
21
-93.759
0
LINE
8
BLACK
6
CONTINUOUS
10
206.993
20
-93.3019
11
207.069
21
-93.3019
0
LINE
8
BLACK
6
CONTINUOUS
10
207.069
20
-93.3019
11
207.145
21
-93.34
0
LINE
8
BLACK
6
CONTINUOUS
10
207.145
20
-93.34
11
207.183
21
-93.3781
0
LINE
8
BLACK
6
CONTINUOUS
10
207.183
20
-93.3781
11
207.221
21
-93.4543
0
LINE
8
BLACK
6
CONTINUOUS
10
207.221
20
-93.4543
11
207.26
21
-93.6067
0
LINE
8
BLACK
6
CONTINUOUS
10
207.26
20
-93.6067
11
207.26
21
-93.7971
0
LINE
8
BLACK
6
CONTINUOUS
10
207.26
20
-93.7971
11
207.221
21
-93.9495
0
LINE
8
BLACK
6
CONTINUOUS
10
207.221
20
-93.9495
11
207.183
21
-94.0257
0
LINE
8
BLACK
6
CONTINUOUS
10
207.183
20
-94.0257
11
207.145
21
-94.0638
0
LINE
8
BLACK
6
CONTINUOUS
10
207.145
20
-94.0638
11
207.069
21
-94.1019
0
LINE
8
BLACK
6
CONTINUOUS
10
207.069
20
-94.1019
11
206.993
21
-94.1019
0
LINE
8
BLACK
6
CONTINUOUS
10
206.993
20
-94.1019
11
206.917
21
-94.0638
0
LINE
8
BLACK
6
CONTINUOUS
10
206.917
20
-94.0638
11
206.879
21
-94.0257
0
LINE
8
BLACK
6
CONTINUOUS
10
206.879
20
-94.0257
11
206.84
21
-93.9495
0
LINE
8
BLACK
6
CONTINUOUS
10
206.84
20
-93.9495
11
206.802
21
-93.7971
0
LINE
8
BLACK
6
CONTINUOUS
10
206.802
20
-93.7971
11
206.802
21
-93.6067
0
LINE
8
BLACK
6
CONTINUOUS
10
206.802
20
-93.6067
11
206.84
21
-93.4543
0
LINE
8
BLACK
6
CONTINUOUS
10
206.84
20
-93.4543
11
206.879
21
-93.3781
0
LINE
8
BLACK
6
CONTINUOUS
10
206.879
20
-93.3781
11
206.917
21
-93.34
0
LINE
8
BLACK
6
CONTINUOUS
10
206.917
20
-93.34
11
206.993
21
-93.3019
0
LINE
8
BLACK
6
CONTINUOUS
10
197.784
20
-95.4877
11
197.649
21
-95.5583
0
LINE
8
BLACK
6
CONTINUOUS
10
197.649
20
-95.5583
11
197.6
21
-95.6273
0
LINE
8
BLACK
6
CONTINUOUS
10
197.6
20
-95.6273
11
197.583
21
-95.6787
0
LINE
8
BLACK
6
CONTINUOUS
10
197.583
20
-95.6787
11
197.569
21
-95.8153
0
LINE
8
BLACK
6
CONTINUOUS
10
197.569
20
-95.8153
11
197.606
21
-95.968
0
LINE
8
BLACK
6
CONTINUOUS
10
197.606
20
-95.968
11
197.747
21
-96.2381
0
LINE
8
BLACK
6
CONTINUOUS
10
197.747
20
-96.2381
11
197.816
21
-96.2879
0
LINE
8
BLACK
6
CONTINUOUS
10
197.816
20
-96.2879
11
197.867
21
-96.3041
0
LINE
8
BLACK
6
CONTINUOUS
10
197.867
20
-96.3041
11
197.953
21
-96.3025
0
LINE
8
BLACK
6
CONTINUOUS
10
197.953
20
-96.3025
11
198.088
21
-96.2319
0
LINE
8
BLACK
6
CONTINUOUS
10
198.088
20
-96.2319
11
198.137
21
-96.1629
0
LINE
8
BLACK
6
CONTINUOUS
10
198.137
20
-96.1629
11
198.154
21
-96.1114
0
LINE
8
BLACK
6
CONTINUOUS
10
198.154
20
-96.1114
11
198.152
21
-96.0263
0
LINE
8
BLACK
6
CONTINUOUS
10
198.152
20
-96.0263
11
198.064
21
-95.8575
0
LINE
8
BLACK
6
CONTINUOUS
10
198.064
20
-95.8575
11
197.995
21
-95.8076
0
LINE
8
BLACK
6
CONTINUOUS
10
197.995
20
-95.8076
11
197.943
21
-95.7915
0
LINE
8
BLACK
6
CONTINUOUS
10
197.943
20
-95.7915
11
197.858
21
-95.793
0
LINE
8
BLACK
6
CONTINUOUS
10
197.858
20
-95.793
11
197.723
21
-95.8636
0
LINE
8
BLACK
6
CONTINUOUS
10
197.723
20
-95.8636
11
197.673
21
-95.9327
0
LINE
8
BLACK
6
CONTINUOUS
10
197.673
20
-95.9327
11
197.657
21
-95.9841
0
LINE
8
BLACK
6
CONTINUOUS
10
197.657
20
-95.9841
11
197.659
21
-96.0693
0
LINE
8
BLACK
6
CONTINUOUS
10
198.493
20
-95.117
11
198.156
21
-95.2935
0
LINE
8
BLACK
6
CONTINUOUS
10
198.156
20
-95.2935
11
198.299
21
-95.6488
0
LINE
8
BLACK
6
CONTINUOUS
10
198.299
20
-95.6488
11
198.315
21
-95.5974
0
LINE
8
BLACK
6
CONTINUOUS
10
198.315
20
-95.5974
11
198.365
21
-95.5283
0
LINE
8
BLACK
6
CONTINUOUS
10
198.365
20
-95.5283
11
198.533
21
-95.44
0
LINE
8
BLACK
6
CONTINUOUS
10
198.533
20
-95.44
11
198.619
21
-95.4385
0
LINE
8
BLACK
6
CONTINUOUS
10
198.619
20
-95.4385
11
198.67
21
-95.4546
0
LINE
8
BLACK
6
CONTINUOUS
10
198.67
20
-95.4546
11
198.739
21
-95.5045
0
LINE
8
BLACK
6
CONTINUOUS
10
198.739
20
-95.5045
11
198.827
21
-95.6733
0
LINE
8
BLACK
6
CONTINUOUS
10
198.827
20
-95.6733
11
198.829
21
-95.7585
0
LINE
8
BLACK
6
CONTINUOUS
10
198.829
20
-95.7585
11
198.813
21
-95.8099
0
LINE
8
BLACK
6
CONTINUOUS
10
198.813
20
-95.8099
11
198.763
21
-95.8789
0
LINE
8
BLACK
6
CONTINUOUS
10
198.763
20
-95.8789
11
198.594
21
-95.9672
0
LINE
8
BLACK
6
CONTINUOUS
10
198.594
20
-95.9672
11
198.509
21
-95.9687
0
LINE
8
BLACK
6
CONTINUOUS
10
198.509
20
-95.9687
11
198.457
21
-95.9526
0
LINE
8
BLACK
6
CONTINUOUS
10
187.705
20
-113.117
11
187.667
21
-113.193
0
LINE
8
BLACK
6
CONTINUOUS
10
187.667
20
-113.193
11
187.629
21
-113.231
0
LINE
8
BLACK
6
CONTINUOUS
10
187.629
20
-113.231
11
187.552
21
-113.27
0
LINE
8
BLACK
6
CONTINUOUS
10
187.552
20
-113.27
11
187.514
21
-113.27
0
LINE
8
BLACK
6
CONTINUOUS
10
187.514
20
-113.27
11
187.438
21
-113.231
0
LINE
8
BLACK
6
CONTINUOUS
10
187.438
20
-113.231
11
187.4
21
-113.193
0
LINE
8
BLACK
6
CONTINUOUS
10
187.4
20
-113.193
11
187.362
21
-113.117
0
LINE
8
BLACK
6
CONTINUOUS
10
187.362
20
-113.117
11
187.362
21
-112.965
0
LINE
8
BLACK
6
CONTINUOUS
10
187.362
20
-112.965
11
187.4
21
-112.889
0
LINE
8
BLACK
6
CONTINUOUS
10
187.4
20
-112.889
11
187.438
21
-112.85
0
LINE
8
BLACK
6
CONTINUOUS
10
187.438
20
-112.85
11
187.514
21
-112.812
0
LINE
8
BLACK
6
CONTINUOUS
10
187.514
20
-112.812
11
187.552
21
-112.812
0
LINE
8
BLACK
6
CONTINUOUS
10
187.552
20
-112.812
11
187.629
21
-112.85
0
LINE
8
BLACK
6
CONTINUOUS
10
187.629
20
-112.85
11
187.667
21
-112.889
0
LINE
8
BLACK
6
CONTINUOUS
10
187.667
20
-112.889
11
187.705
21
-112.965
0
LINE
8
BLACK
6
CONTINUOUS
10
187.705
20
-112.965
11
187.705
21
-113.117
0
LINE
8
BLACK
6
CONTINUOUS
10
187.705
20
-113.117
11
187.743
21
-113.193
0
LINE
8
BLACK
6
CONTINUOUS
10
187.743
20
-113.193
11
187.781
21
-113.231
0
LINE
8
BLACK
6
CONTINUOUS
10
187.781
20
-113.231
11
187.857
21
-113.27
0
LINE
8
BLACK
6
CONTINUOUS
10
187.857
20
-113.27
11
188.01
21
-113.27
0
LINE
8
BLACK
6
CONTINUOUS
10
188.01
20
-113.27
11
188.086
21
-113.231
0
LINE
8
BLACK
6
CONTINUOUS
10
188.086
20
-113.231
11
188.124
21
-113.193
0
LINE
8
BLACK
6
CONTINUOUS
10
188.124
20
-113.193
11
188.162
21
-113.117
0
LINE
8
BLACK
6
CONTINUOUS
10
188.162
20
-113.117
11
188.162
21
-112.965
0
LINE
8
BLACK
6
CONTINUOUS
10
188.162
20
-112.965
11
188.124
21
-112.889
0
LINE
8
BLACK
6
CONTINUOUS
10
188.124
20
-112.889
11
188.086
21
-112.85
0
LINE
8
BLACK
6
CONTINUOUS
10
188.086
20
-112.85
11
188.01
21
-112.812
0
LINE
8
BLACK
6
CONTINUOUS
10
188.01
20
-112.812
11
187.857
21
-112.812
0
LINE
8
BLACK
6
CONTINUOUS
10
187.857
20
-112.812
11
187.781
21
-112.85
0
LINE
8
BLACK
6
CONTINUOUS
10
187.781
20
-112.85
11
187.743
21
-112.889
0
LINE
8
BLACK
6
CONTINUOUS
10
187.743
20
-112.889
11
187.705
21
-112.965
0
LINE
8
BLACK
6
CONTINUOUS
10
187.362
20
-112.317
11
187.362
21
-112.241
0
LINE
8
BLACK
6
CONTINUOUS
10
187.362
20
-112.241
11
187.4
21
-112.165
0
LINE
8
BLACK
6
CONTINUOUS
10
187.4
20
-112.165
11
187.438
21
-112.127
0
LINE
8
BLACK
6
CONTINUOUS
10
187.438
20
-112.127
11
187.514
21
-112.089
0
LINE
8
BLACK
6
CONTINUOUS
10
187.514
20
-112.089
11
187.667
21
-112.05
0
LINE
8
BLACK
6
CONTINUOUS
10
187.667
20
-112.05
11
187.857
21
-112.05
0
LINE
8
BLACK
6
CONTINUOUS
10
187.857
20
-112.05
11
188.01
21
-112.089
0
LINE
8
BLACK
6
CONTINUOUS
10
188.01
20
-112.089
11
188.086
21
-112.127
0
LINE
8
BLACK
6
CONTINUOUS
10
188.086
20
-112.127
11
188.124
21
-112.165
0
LINE
8
BLACK
6
CONTINUOUS
10
188.124
20
-112.165
11
188.162
21
-112.241
0
LINE
8
BLACK
6
CONTINUOUS
10
188.162
20
-112.241
11
188.162
21
-112.317
0
LINE
8
BLACK
6
CONTINUOUS
10
188.162
20
-112.317
11
188.124
21
-112.393
0
LINE
8
BLACK
6
CONTINUOUS
10
188.124
20
-112.393
11
188.086
21
-112.431
0
LINE
8
BLACK
6
CONTINUOUS
10
188.086
20
-112.431
11
188.01
21
-112.47
0
LINE
8
BLACK
6
CONTINUOUS
10
188.01
20
-112.47
11
187.857
21
-112.508
0
LINE
8
BLACK
6
CONTINUOUS
10
187.857
20
-112.508
11
187.667
21
-112.508
0
LINE
8
BLACK
6
CONTINUOUS
10
187.667
20
-112.508
11
187.514
21
-112.47
0
LINE
8
BLACK
6
CONTINUOUS
10
187.514
20
-112.47
11
187.438
21
-112.431
0
LINE
8
BLACK
6
CONTINUOUS
10
187.438
20
-112.431
11
187.4
21
-112.393
0
LINE
8
BLACK
6
CONTINUOUS
10
187.4
20
-112.393
11
187.362
21
-112.317
0
LINE
8
BLACK
6
CONTINUOUS
10
225.812
20
-111.67
11
225.85
21
-111.708
0
LINE
8
BLACK
6
CONTINUOUS
10
225.85
20
-111.708
11
225.888
21
-111.784
0
LINE
8
BLACK
6
CONTINUOUS
10
225.888
20
-111.784
11
225.888
21
-111.974
0
LINE
8
BLACK
6
CONTINUOUS
10
225.888
20
-111.974
11
225.85
21
-112.05
0
LINE
8
BLACK
6
CONTINUOUS
10
225.85
20
-112.05
11
225.812
21
-112.089
0
LINE
8
BLACK
6
CONTINUOUS
10
225.812
20
-112.089
11
225.736
21
-112.127
0
LINE
8
BLACK
6
CONTINUOUS
10
225.736
20
-112.127
11
225.66
21
-112.127
0
LINE
8
BLACK
6
CONTINUOUS
10
225.66
20
-112.127
11
225.545
21
-112.089
0
LINE
8
BLACK
6
CONTINUOUS
10
225.545
20
-112.089
11
225.088
21
-111.631
0
LINE
8
BLACK
6
CONTINUOUS
10
225.088
20
-111.631
11
225.088
21
-112.127
0
LINE
8
BLACK
6
CONTINUOUS
10
225.621
20
-112.812
11
225.088
21
-112.812
0
LINE
8
BLACK
6
CONTINUOUS
10
225.926
20
-112.622
11
225.355
21
-112.431
0
LINE
8
BLACK
6
CONTINUOUS
10
225.355
20
-112.431
11
225.355
21
-112.927
0
LINE
8
BLACK
6
CONTINUOUS
10
225.888
20
-113.384
11
225.888
21
-113.46
0
LINE
8
BLACK
6
CONTINUOUS
10
225.888
20
-113.46
11
225.85
21
-113.536
0
LINE
8
BLACK
6
CONTINUOUS
10
225.85
20
-113.536
11
225.812
21
-113.574
0
LINE
8
BLACK
6
CONTINUOUS
10
225.812
20
-113.574
11
225.736
21
-113.612
0
LINE
8
BLACK
6
CONTINUOUS
10
225.736
20
-113.612
11
225.583
21
-113.65
0
LINE
8
BLACK
6
CONTINUOUS
10
225.583
20
-113.65
11
225.393
21
-113.65
0
LINE
8
BLACK
6
CONTINUOUS
10
225.393
20
-113.65
11
225.24
21
-113.612
0
LINE
8
BLACK
6
CONTINUOUS
10
225.24
20
-113.612
11
225.164
21
-113.574
0
LINE
8
BLACK
6
CONTINUOUS
10
225.164
20
-113.574
11
225.126
21
-113.536
0
LINE
8
BLACK
6
CONTINUOUS
10
225.126
20
-113.536
11
225.088
21
-113.46
0
LINE
8
BLACK
6
CONTINUOUS
10
225.088
20
-113.46
11
225.088
21
-113.384
0
LINE
8
BLACK
6
CONTINUOUS
10
225.088
20
-113.384
11
225.126
21
-113.308
0
LINE
8
BLACK
6
CONTINUOUS
10
225.126
20
-113.308
11
225.164
21
-113.27
0
LINE
8
BLACK
6
CONTINUOUS
10
225.164
20
-113.27
11
225.24
21
-113.231
0
LINE
8
BLACK
6
CONTINUOUS
10
225.24
20
-113.231
11
225.393
21
-113.193
0
LINE
8
BLACK
6
CONTINUOUS
10
225.393
20
-113.193
11
225.583
21
-113.193
0
LINE
8
BLACK
6
CONTINUOUS
10
225.583
20
-113.193
11
225.736
21
-113.231
0
LINE
8
BLACK
6
CONTINUOUS
10
225.736
20
-113.231
11
225.812
21
-113.27
0
LINE
8
BLACK
6
CONTINUOUS
10
225.812
20
-113.27
11
225.85
21
-113.308
0
LINE
8
BLACK
6
CONTINUOUS
10
225.85
20
-113.308
11
225.888
21
-113.384
0
LINE
8
BLACK
6
CONTINUOUS
10
209.07
20
-93.9739
11
209.4
21
-94.0174
0
LINE
8
BLACK
6
CONTINUOUS
10
208.977
20
-94.1635
11
209.3
21
-93.4999
0
LINE
8
BLACK
6
CONTINUOUS
10
209.3
20
-93.4999
11
209.44
21
-94.2244
  0
ENDSEC
  0
EOF
