  0
SECTION
  2
HEADER
  9
$ANGBASE
  50
0.0
  9
$ANGDIR
  70
1
  9
$MEASUREMENT
  70
0
  0
ENDSEC
  0
SECTION
  2
TABLES
  0
TABLE
  2
LTYPE
  70
4
  0
LTYPE
  5
40F
  2
CONTINUOUS
  70
0
  3
Solid line
  72
65
  73
0
  40
0.0
  0
LTYPE
  5
410
  2
DASHDOT
 70
0
  3
Dash Dot ____ _ ____ _
 72
65
 73
4
 40
2.0
 49
1.25
 49
-0.25
 49
0.25
 49
-0.25
  0
LTYPE
  5
411
  2
DASHED
 70
0
  3
Dashed __ __ __ __ __
 72
65
 73
2
 40
0.75
 49
0.5
 49
-0.25
  0
LTYPE
  5
43B
  2
DOTTED
 70
0
  3
Dotted .  .  .  .
 72
65
 73
2
 40
0.2
 49
0.0
 49
-0.2
  0
ENDTAB
  0
TABLE
  2
STYLE
  70
4
  0
STYLE
  2
KICAD
  70
0
  40
0
  41
1
  42
1
  50
0
  71
0
  3
isocp.shx
  0
STYLE
  2
KICADB
  70
0
  40
0
  41
1
  42
1
  50
0
  71
0
  3
isocp.shx
  0
STYLE
  2
KICADI
  70
0
  40
0
  41
1
  42
1
  50
15
  71
0
  3
isocp.shx
  0
STYLE
  2
KICADBI
  70
0
  40
0
  41
1
  42
1
  50
15
  71
0
  3
isocp.shx
  0
ENDTAB
  0
TABLE
  2
LAYER
  70
1
  0
LAYER
  2
BLACK
  70
0
  62
7
  6
CONTINUOUS
  0
ENDTAB
  0
ENDSEC
  0
SECTION
  2
ENTITIES
0
LINE
8
BLACK
6
CONTINUOUS
10
9.10733
20
-1.86673
11
9.10744
21
-1.86674
0
LINE
8
BLACK
6
CONTINUOUS
10
9.10744
20
-1.86674
11
9.10749
21
-1.86675
0
LINE
8
BLACK
6
CONTINUOUS
10
9.10749
20
-1.86675
11
9.38918
21
-1.91172
0
LINE
8
BLACK
6
CONTINUOUS
10
9.38918
20
-1.91172
11
9.38923
21
-1.91173
0
LINE
8
BLACK
6
CONTINUOUS
10
9.38923
20
-1.91173
11
9.38931
21
-1.91175
0
LINE
8
BLACK
6
CONTINUOUS
10
9.38931
20
-1.91175
11
9.38941
21
-1.91177
0
LINE
8
BLACK
6
CONTINUOUS
10
9.38941
20
-1.91177
11
9.38942
21
-1.91178
0
LINE
8
BLACK
6
CONTINUOUS
10
9.38942
20
-1.91178
11
9.38942
21
-1.91178
0
LINE
8
BLACK
6
CONTINUOUS
10
9.38942
20
-1.91178
11
9.38949
21
-1.91181
0
LINE
8
BLACK
6
CONTINUOUS
10
9.38949
20
-1.91181
11
9.38959
21
-1.91186
0
LINE
8
BLACK
6
CONTINUOUS
10
9.38959
20
-1.91186
11
9.38959
21
-1.91186
0
LINE
8
BLACK
6
CONTINUOUS
10
9.38959
20
-1.91186
11
9.38959
21
-1.91186
0
LINE
8
BLACK
6
CONTINUOUS
10
9.38959
20
-1.91186
11
9.38966
21
-1.91191
0
LINE
8
BLACK
6
CONTINUOUS
10
9.38966
20
-1.91191
11
9.38974
21
-1.91198
0
LINE
8
BLACK
6
CONTINUOUS
10
9.38974
20
-1.91198
11
9.38974
21
-1.91198
0
LINE
8
BLACK
6
CONTINUOUS
10
9.38974
20
-1.91198
11
9.38975
21
-1.91198
0
LINE
8
BLACK
6
CONTINUOUS
10
9.38975
20
-1.91198
11
9.38981
21
-1.91205
0
LINE
8
BLACK
6
CONTINUOUS
10
9.38981
20
-1.91205
11
9.38987
21
-1.91212
0
LINE
8
BLACK
6
CONTINUOUS
10
9.38987
20
-1.91212
11
9.38987
21
-1.91212
0
LINE
8
BLACK
6
CONTINUOUS
10
9.38987
20
-1.91212
11
9.38987
21
-1.91212
0
LINE
8
BLACK
6
CONTINUOUS
10
9.38987
20
-1.91212
11
9.38992
21
-1.9122
0
LINE
8
BLACK
6
CONTINUOUS
10
9.38992
20
-1.9122
11
9.38997
21
-1.91229
0
LINE
8
BLACK
6
CONTINUOUS
10
9.38997
20
-1.91229
11
9.38997
21
-1.91229
0
LINE
8
BLACK
6
CONTINUOUS
10
9.38997
20
-1.91229
11
9.38997
21
-1.91229
0
LINE
8
BLACK
6
CONTINUOUS
10
9.38997
20
-1.91229
11
9.39
21
-1.91239
0
LINE
8
BLACK
6
CONTINUOUS
10
9.39
20
-1.91239
11
9.39003
21
-1.91247
0
LINE
8
BLACK
6
CONTINUOUS
10
9.39003
20
-1.91247
11
9.39003
21
-1.91247
0
LINE
8
BLACK
6
CONTINUOUS
10
9.39003
20
-1.91247
11
9.39003
21
-1.91247
0
LINE
8
BLACK
6
CONTINUOUS
10
9.39003
20
-1.91247
11
9.39005
21
-1.91258
0
LINE
8
BLACK
6
CONTINUOUS
10
9.39005
20
-1.91258
11
9.39006
21
-1.91266
0
LINE
8
BLACK
6
CONTINUOUS
10
9.39006
20
-1.91266
11
9.39006
21
-1.91267
0
LINE
8
BLACK
6
CONTINUOUS
10
9.39006
20
-1.91267
11
9.39006
21
-1.91267
0
LINE
8
BLACK
6
CONTINUOUS
10
9.39006
20
-1.91267
11
9.39005
21
-1.91277
0
LINE
8
BLACK
6
CONTINUOUS
10
9.39005
20
-1.91277
11
9.39005
21
-1.91286
0
LINE
8
BLACK
6
CONTINUOUS
10
9.39005
20
-1.91286
11
9.39005
21
-1.91286
0
LINE
8
BLACK
6
CONTINUOUS
10
9.39005
20
-1.91286
11
9.39005
21
-1.91286
0
LINE
8
BLACK
6
CONTINUOUS
10
9.39005
20
-1.91286
11
9.39002
21
-1.91296
0
LINE
8
BLACK
6
CONTINUOUS
10
9.39002
20
-1.91296
11
9.39
21
-1.91305
0
LINE
8
BLACK
6
CONTINUOUS
10
9.39
20
-1.91305
11
9.38998
21
-1.91309
0
LINE
8
BLACK
6
CONTINUOUS
10
9.38998
20
-1.91309
11
9.28073
21
-2.2058
0
LINE
8
BLACK
6
CONTINUOUS
10
9.28073
20
-2.2058
11
9.28067
21
-2.20593
0
LINE
8
BLACK
6
CONTINUOUS
10
9.28067
20
-2.20593
11
9.28059
21
-2.20602
0
LINE
8
BLACK
6
CONTINUOUS
10
9.28059
20
-2.20602
11
9.17529
21
-2.44807
0
LINE
8
BLACK
6
CONTINUOUS
10
9.17529
20
-2.44807
11
9.17527
21
-2.44811
0
LINE
8
BLACK
6
CONTINUOUS
10
9.17527
20
-2.44811
11
9.17527
21
-2.44811
0
LINE
8
BLACK
6
CONTINUOUS
10
9.17527
20
-2.44811
11
9.17527
21
-2.44811
0
LINE
8
BLACK
6
CONTINUOUS
10
9.17527
20
-2.44811
11
9.17522
21
-2.4482
0
LINE
8
BLACK
6
CONTINUOUS
10
9.17522
20
-2.4482
11
9.1751
21
-2.44835
0
LINE
8
BLACK
6
CONTINUOUS
10
9.1751
20
-2.44835
11
9.17494
21
-2.44847
0
LINE
8
BLACK
6
CONTINUOUS
10
9.17494
20
-2.44847
11
9.17488
21
-2.4485
0
LINE
8
BLACK
6
CONTINUOUS
10
9.17488
20
-2.4485
11
9.14341
21
-2.46609
0
LINE
8
BLACK
6
CONTINUOUS
10
9.14341
20
-2.46609
11
9.09748
21
-2.49762
0
LINE
8
BLACK
6
CONTINUOUS
10
9.09748
20
-2.49762
11
9.05536
21
-2.53407
0
LINE
8
BLACK
6
CONTINUOUS
10
9.05536
20
-2.53407
11
9.01757
21
-2.57498
0
LINE
8
BLACK
6
CONTINUOUS
10
9.01757
20
-2.57498
11
8.98457
21
-2.61985
0
LINE
8
BLACK
6
CONTINUOUS
10
8.98457
20
-2.61985
11
8.95678
21
-2.66812
0
LINE
8
BLACK
6
CONTINUOUS
10
8.95678
20
-2.66812
11
8.93454
21
-2.71919
0
LINE
8
BLACK
6
CONTINUOUS
10
8.93454
20
-2.71919
11
8.91814
21
-2.77242
0
LINE
8
BLACK
6
CONTINUOUS
10
8.91814
20
-2.77242
11
8.90777
21
-2.82714
0
LINE
8
BLACK
6
CONTINUOUS
10
8.90777
20
-2.82714
11
8.90356
21
-2.88268
0
LINE
8
BLACK
6
CONTINUOUS
10
8.90356
20
-2.88268
11
8.90557
21
-2.93834
0
LINE
8
BLACK
6
CONTINUOUS
10
8.90557
20
-2.93834
11
8.91378
21
-2.99343
0
LINE
8
BLACK
6
CONTINUOUS
10
8.91378
20
-2.99343
11
8.92807
21
-3.04727
0
LINE
8
BLACK
6
CONTINUOUS
10
8.92807
20
-3.04727
11
8.94828
21
-3.09917
0
LINE
8
BLACK
6
CONTINUOUS
10
8.94828
20
-3.09917
11
8.97414
21
-3.1485
0
LINE
8
BLACK
6
CONTINUOUS
10
8.97414
20
-3.1485
11
9.00534
21
-3.19464
0
LINE
8
BLACK
6
CONTINUOUS
10
9.00534
20
-3.19464
11
9.0415
21
-3.23701
0
LINE
8
BLACK
6
CONTINUOUS
10
9.0415
20
-3.23701
11
9.08214
21
-3.27509
0
LINE
8
BLACK
6
CONTINUOUS
10
9.08214
20
-3.27509
11
9.12678
21
-3.3084
0
LINE
8
BLACK
6
CONTINUOUS
10
9.12678
20
-3.3084
11
9.17488
21
-3.33654
0
LINE
8
BLACK
6
CONTINUOUS
10
9.17488
20
-3.33654
11
9.17494
21
-3.33657
0
LINE
8
BLACK
6
CONTINUOUS
10
9.17494
20
-3.33657
11
9.17509
21
-3.33669
0
LINE
8
BLACK
6
CONTINUOUS
10
9.17509
20
-3.33669
11
9.17522
21
-3.33684
0
LINE
8
BLACK
6
CONTINUOUS
10
9.17522
20
-3.33684
11
9.17529
21
-3.33696
0
LINE
8
BLACK
6
CONTINUOUS
10
9.17529
20
-3.33696
11
9.28115
21
-3.57893
0
LINE
8
BLACK
6
CONTINUOUS
10
9.28115
20
-3.57893
11
9.28116
21
-3.57895
0
LINE
8
BLACK
6
CONTINUOUS
10
9.28116
20
-3.57895
11
9.28116
21
-3.57897
0
LINE
8
BLACK
6
CONTINUOUS
10
9.28116
20
-3.57897
11
9.28117
21
-3.57899
0
LINE
8
BLACK
6
CONTINUOUS
10
9.28117
20
-3.57899
11
9.28118
21
-3.57902
0
LINE
8
BLACK
6
CONTINUOUS
10
9.28118
20
-3.57902
11
9.38998
21
-3.87195
0
LINE
8
BLACK
6
CONTINUOUS
10
9.38998
20
-3.87195
11
9.39
21
-3.87199
0
LINE
8
BLACK
6
CONTINUOUS
10
9.39
20
-3.87199
11
9.39002
21
-3.87209
0
LINE
8
BLACK
6
CONTINUOUS
10
9.39002
20
-3.87209
11
9.39005
21
-3.87218
0
LINE
8
BLACK
6
CONTINUOUS
10
9.39005
20
-3.87218
11
9.39005
21
-3.87218
0
LINE
8
BLACK
6
CONTINUOUS
10
9.39005
20
-3.87218
11
9.39005
21
-3.87218
0
LINE
8
BLACK
6
CONTINUOUS
10
9.39005
20
-3.87218
11
9.39005
21
-3.87229
0
LINE
8
BLACK
6
CONTINUOUS
10
9.39005
20
-3.87229
11
9.39006
21
-3.87237
0
LINE
8
BLACK
6
CONTINUOUS
10
9.39006
20
-3.87237
11
9.39006
21
-3.87237
0
LINE
8
BLACK
6
CONTINUOUS
10
9.39006
20
-3.87237
11
9.39006
21
-3.87238
0
LINE
8
BLACK
6
CONTINUOUS
10
9.39006
20
-3.87238
11
9.39005
21
-3.87248
0
LINE
8
BLACK
6
CONTINUOUS
10
9.39005
20
-3.87248
11
9.39003
21
-3.87257
0
LINE
8
BLACK
6
CONTINUOUS
10
9.39003
20
-3.87257
11
9.39003
21
-3.87257
0
LINE
8
BLACK
6
CONTINUOUS
10
9.39003
20
-3.87257
11
9.39003
21
-3.87257
0
LINE
8
BLACK
6
CONTINUOUS
10
9.39003
20
-3.87257
11
9.39
21
-3.87266
0
LINE
8
BLACK
6
CONTINUOUS
10
9.39
20
-3.87266
11
9.38997
21
-3.87275
0
LINE
8
BLACK
6
CONTINUOUS
10
9.38997
20
-3.87275
11
9.38997
21
-3.87275
0
LINE
8
BLACK
6
CONTINUOUS
10
9.38997
20
-3.87275
11
9.38997
21
-3.87275
0
LINE
8
BLACK
6
CONTINUOUS
10
9.38997
20
-3.87275
11
9.38991
21
-3.87285
0
LINE
8
BLACK
6
CONTINUOUS
10
9.38991
20
-3.87285
11
9.38987
21
-3.87292
0
LINE
8
BLACK
6
CONTINUOUS
10
9.38987
20
-3.87292
11
9.38987
21
-3.87292
0
LINE
8
BLACK
6
CONTINUOUS
10
9.38987
20
-3.87292
11
9.38987
21
-3.87292
0
LINE
8
BLACK
6
CONTINUOUS
10
9.38987
20
-3.87292
11
9.38979
21
-3.87301
0
LINE
8
BLACK
6
CONTINUOUS
10
9.38979
20
-3.87301
11
9.38974
21
-3.87306
0
LINE
8
BLACK
6
CONTINUOUS
10
9.38974
20
-3.87306
11
9.38974
21
-3.87306
0
LINE
8
BLACK
6
CONTINUOUS
10
9.38974
20
-3.87306
11
9.38974
21
-3.87306
0
LINE
8
BLACK
6
CONTINUOUS
10
9.38974
20
-3.87306
11
9.38965
21
-3.87313
0
LINE
8
BLACK
6
CONTINUOUS
10
9.38965
20
-3.87313
11
9.38959
21
-3.87318
0
LINE
8
BLACK
6
CONTINUOUS
10
9.38959
20
-3.87318
11
9.38959
21
-3.87318
0
LINE
8
BLACK
6
CONTINUOUS
10
9.38959
20
-3.87318
11
9.38959
21
-3.87318
0
LINE
8
BLACK
6
CONTINUOUS
10
9.38959
20
-3.87318
11
9.38949
21
-3.87323
0
LINE
8
BLACK
6
CONTINUOUS
10
9.38949
20
-3.87323
11
9.38942
21
-3.87326
0
LINE
8
BLACK
6
CONTINUOUS
10
9.38942
20
-3.87326
11
9.38941
21
-3.87326
0
LINE
8
BLACK
6
CONTINUOUS
10
9.38941
20
-3.87326
11
9.38941
21
-3.87327
0
LINE
8
BLACK
6
CONTINUOUS
10
9.38941
20
-3.87327
11
9.38928
21
-3.8733
0
LINE
8
BLACK
6
CONTINUOUS
10
9.38928
20
-3.8733
11
9.38923
21
-3.87331
0
LINE
8
BLACK
6
CONTINUOUS
10
9.38923
20
-3.87331
11
9.38918
21
-3.87332
0
LINE
8
BLACK
6
CONTINUOUS
10
9.38918
20
-3.87332
11
9.10795
21
-3.91801
0
LINE
8
BLACK
6
CONTINUOUS
10
9.10795
20
-3.91801
11
9.1079
21
-3.91802
0
LINE
8
BLACK
6
CONTINUOUS
10
9.1079
20
-3.91802
11
9.1078
21
-3.91802
0
LINE
8
BLACK
6
CONTINUOUS
10
9.1078
20
-3.91802
11
9.10771
21
-3.91803
0
LINE
8
BLACK
6
CONTINUOUS
10
9.10771
20
-3.91803
11
9.10771
21
-3.91803
0
LINE
8
BLACK
6
CONTINUOUS
10
9.10771
20
-3.91803
11
9.10771
21
-3.91803
0
LINE
8
BLACK
6
CONTINUOUS
10
9.10771
20
-3.91803
11
9.10761
21
-3.91801
0
LINE
8
BLACK
6
CONTINUOUS
10
9.10761
20
-3.91801
11
9.10752
21
-3.918
0
LINE
8
BLACK
6
CONTINUOUS
10
9.10752
20
-3.918
11
9.10752
21
-3.918
0
LINE
8
BLACK
6
CONTINUOUS
10
9.10752
20
-3.918
11
9.10752
21
-3.918
0
LINE
8
BLACK
6
CONTINUOUS
10
9.10752
20
-3.918
11
9.10742
21
-3.91797
0
LINE
8
BLACK
6
CONTINUOUS
10
9.10742
20
-3.91797
11
9.10734
21
-3.91794
0
LINE
8
BLACK
6
CONTINUOUS
10
9.10734
20
-3.91794
11
9.10734
21
-3.91794
0
LINE
8
BLACK
6
CONTINUOUS
10
9.10734
20
-3.91794
11
9.10734
21
-3.91794
0
LINE
8
BLACK
6
CONTINUOUS
10
9.10734
20
-3.91794
11
9.10724
21
-3.91788
0
LINE
8
BLACK
6
CONTINUOUS
10
9.10724
20
-3.91788
11
9.10717
21
-3.91784
0
LINE
8
BLACK
6
CONTINUOUS
10
9.10717
20
-3.91784
11
9.10717
21
-3.91784
0
LINE
8
BLACK
6
CONTINUOUS
10
9.10717
20
-3.91784
11
9.10717
21
-3.91784
0
LINE
8
BLACK
6
CONTINUOUS
10
9.10717
20
-3.91784
11
9.10708
21
-3.91776
0
LINE
8
BLACK
6
CONTINUOUS
10
9.10708
20
-3.91776
11
9.10703
21
-3.91771
0
LINE
8
BLACK
6
CONTINUOUS
10
9.10703
20
-3.91771
11
9.10703
21
-3.91771
0
LINE
8
BLACK
6
CONTINUOUS
10
9.10703
20
-3.91771
11
9.10702
21
-3.91771
0
LINE
8
BLACK
6
CONTINUOUS
10
9.10702
20
-3.91771
11
9.10695
21
-3.91761
0
LINE
8
BLACK
6
CONTINUOUS
10
9.10695
20
-3.91761
11
9.10691
21
-3.91756
0
LINE
8
BLACK
6
CONTINUOUS
10
9.10691
20
-3.91756
11
9.10691
21
-3.91756
0
LINE
8
BLACK
6
CONTINUOUS
10
9.10691
20
-3.91756
11
9.10691
21
-3.91756
0
LINE
8
BLACK
6
CONTINUOUS
10
9.10691
20
-3.91756
11
9.10685
21
-3.91744
0
LINE
8
BLACK
6
CONTINUOUS
10
9.10685
20
-3.91744
11
9.10682
21
-3.91738
0
LINE
8
BLACK
6
CONTINUOUS
10
9.10682
20
-3.91738
11
9.10681
21
-3.91734
0
LINE
8
BLACK
6
CONTINUOUS
10
9.10681
20
-3.91734
11
9.07057
21
-3.8187
0
LINE
8
BLACK
6
CONTINUOUS
10
9.07057
20
-3.8187
11
7.97982
21
-3.8187
0
LINE
8
BLACK
6
CONTINUOUS
10
7.97982
20
-3.8187
11
7.94326
21
-3.91762
0
LINE
8
BLACK
6
CONTINUOUS
10
7.94326
20
-3.91762
11
7.94325
21
-3.91767
0
LINE
8
BLACK
6
CONTINUOUS
10
7.94325
20
-3.91767
11
7.94323
21
-3.91771
0
LINE
8
BLACK
6
CONTINUOUS
10
7.94323
20
-3.91771
11
7.94317
21
-3.91784
0
LINE
8
BLACK
6
CONTINUOUS
10
7.94317
20
-3.91784
11
7.94317
21
-3.91784
0
LINE
8
BLACK
6
CONTINUOUS
10
7.94317
20
-3.91784
11
7.94317
21
-3.91784
0
LINE
8
BLACK
6
CONTINUOUS
10
7.94317
20
-3.91784
11
7.9431
21
-3.91793
0
LINE
8
BLACK
6
CONTINUOUS
10
7.9431
20
-3.91793
11
7.94305
21
-3.91799
0
LINE
8
BLACK
6
CONTINUOUS
10
7.94305
20
-3.91799
11
7.94305
21
-3.91799
0
LINE
8
BLACK
6
CONTINUOUS
10
7.94305
20
-3.91799
11
7.94305
21
-3.918
0
LINE
8
BLACK
6
CONTINUOUS
10
7.94305
20
-3.918
11
7.94297
21
-3.91807
0
LINE
8
BLACK
6
CONTINUOUS
10
7.94297
20
-3.91807
11
7.9429
21
-3.91812
0
LINE
8
BLACK
6
CONTINUOUS
10
7.9429
20
-3.91812
11
7.9429
21
-3.91812
0
LINE
8
BLACK
6
CONTINUOUS
10
7.9429
20
-3.91812
11
7.9429
21
-3.91812
0
LINE
8
BLACK
6
CONTINUOUS
10
7.9429
20
-3.91812
11
7.94284
21
-3.91816
0
LINE
8
BLACK
6
CONTINUOUS
10
7.94284
20
-3.91816
11
7.94274
21
-3.91822
0
LINE
8
BLACK
6
CONTINUOUS
10
7.94274
20
-3.91822
11
7.94274
21
-3.91822
0
LINE
8
BLACK
6
CONTINUOUS
10
7.94274
20
-3.91822
11
7.94274
21
-3.91822
0
LINE
8
BLACK
6
CONTINUOUS
10
7.94274
20
-3.91822
11
7.9427
21
-3.91823
0
LINE
8
BLACK
6
CONTINUOUS
10
7.9427
20
-3.91823
11
7.94255
21
-3.91828
0
LINE
8
BLACK
6
CONTINUOUS
10
7.94255
20
-3.91828
11
7.94255
21
-3.91828
0
LINE
8
BLACK
6
CONTINUOUS
10
7.94255
20
-3.91828
11
7.94255
21
-3.91828
0
LINE
8
BLACK
6
CONTINUOUS
10
7.94255
20
-3.91828
11
7.94247
21
-3.9183
0
LINE
8
BLACK
6
CONTINUOUS
10
7.94247
20
-3.9183
11
7.94236
21
-3.91831
0
LINE
8
BLACK
6
CONTINUOUS
10
7.94236
20
-3.91831
11
7.94236
21
-3.91831
0
LINE
8
BLACK
6
CONTINUOUS
10
7.94236
20
-3.91831
11
7.94236
21
-3.91831
0
LINE
8
BLACK
6
CONTINUOUS
10
7.94236
20
-3.91831
11
7.94228
21
-3.91831
0
LINE
8
BLACK
6
CONTINUOUS
10
7.94228
20
-3.91831
11
7.94217
21
-3.9183
0
LINE
8
BLACK
6
CONTINUOUS
10
7.94217
20
-3.9183
11
7.94212
21
-3.91829
0
LINE
8
BLACK
6
CONTINUOUS
10
7.94212
20
-3.91829
11
7.66043
21
-3.87332
0
LINE
8
BLACK
6
CONTINUOUS
10
7.66043
20
-3.87332
11
7.66038
21
-3.87331
0
LINE
8
BLACK
6
CONTINUOUS
10
7.66038
20
-3.87331
11
7.66028
21
-3.87329
0
LINE
8
BLACK
6
CONTINUOUS
10
7.66028
20
-3.87329
11
7.66019
21
-3.87326
0
LINE
8
BLACK
6
CONTINUOUS
10
7.66019
20
-3.87326
11
7.66019
21
-3.87326
0
LINE
8
BLACK
6
CONTINUOUS
10
7.66019
20
-3.87326
11
7.66019
21
-3.87326
0
LINE
8
BLACK
6
CONTINUOUS
10
7.66019
20
-3.87326
11
7.6601
21
-3.87322
0
LINE
8
BLACK
6
CONTINUOUS
10
7.6601
20
-3.87322
11
7.66002
21
-3.87318
0
LINE
8
BLACK
6
CONTINUOUS
10
7.66002
20
-3.87318
11
7.66002
21
-3.87318
0
LINE
8
BLACK
6
CONTINUOUS
10
7.66002
20
-3.87318
11
7.66002
21
-3.87318
0
LINE
8
BLACK
6
CONTINUOUS
10
7.66002
20
-3.87318
11
7.65994
21
-3.87312
0
LINE
8
BLACK
6
CONTINUOUS
10
7.65994
20
-3.87312
11
7.65986
21
-3.87306
0
LINE
8
BLACK
6
CONTINUOUS
10
7.65986
20
-3.87306
11
7.65986
21
-3.87306
0
LINE
8
BLACK
6
CONTINUOUS
10
7.65986
20
-3.87306
11
7.65986
21
-3.87306
0
LINE
8
BLACK
6
CONTINUOUS
10
7.65986
20
-3.87306
11
7.6598
21
-3.87299
0
LINE
8
BLACK
6
CONTINUOUS
10
7.6598
20
-3.87299
11
7.65973
21
-3.87292
0
LINE
8
BLACK
6
CONTINUOUS
10
7.65973
20
-3.87292
11
7.65973
21
-3.87292
0
LINE
8
BLACK
6
CONTINUOUS
10
7.65973
20
-3.87292
11
7.65973
21
-3.87292
0
LINE
8
BLACK
6
CONTINUOUS
10
7.65973
20
-3.87292
11
7.65969
21
-3.87283
0
LINE
8
BLACK
6
CONTINUOUS
10
7.65969
20
-3.87283
11
7.65964
21
-3.87275
0
LINE
8
BLACK
6
CONTINUOUS
10
7.65964
20
-3.87275
11
7.65964
21
-3.87275
0
LINE
8
BLACK
6
CONTINUOUS
10
7.65964
20
-3.87275
11
7.65964
21
-3.87275
0
LINE
8
BLACK
6
CONTINUOUS
10
7.65964
20
-3.87275
11
7.6596
21
-3.87266
0
LINE
8
BLACK
6
CONTINUOUS
10
7.6596
20
-3.87266
11
7.65957
21
-3.87257
0
LINE
8
BLACK
6
CONTINUOUS
10
7.65957
20
-3.87257
11
7.65957
21
-3.87257
0
LINE
8
BLACK
6
CONTINUOUS
10
7.65957
20
-3.87257
11
7.65957
21
-3.87256
0
LINE
8
BLACK
6
CONTINUOUS
10
7.65957
20
-3.87256
11
7.65956
21
-3.87246
0
LINE
8
BLACK
6
CONTINUOUS
10
7.65956
20
-3.87246
11
7.65955
21
-3.87238
0
LINE
8
BLACK
6
CONTINUOUS
10
7.65955
20
-3.87238
11
7.65955
21
-3.87237
0
LINE
8
BLACK
6
CONTINUOUS
10
7.65955
20
-3.87237
11
7.65955
21
-3.87237
0
LINE
8
BLACK
6
CONTINUOUS
10
7.65955
20
-3.87237
11
7.65955
21
-3.87227
0
LINE
8
BLACK
6
CONTINUOUS
10
7.65955
20
-3.87227
11
7.65956
21
-3.87218
0
LINE
8
BLACK
6
CONTINUOUS
10
7.65956
20
-3.87218
11
7.65956
21
-3.87218
0
LINE
8
BLACK
6
CONTINUOUS
10
7.65956
20
-3.87218
11
7.65956
21
-3.87218
0
LINE
8
BLACK
6
CONTINUOUS
10
7.65956
20
-3.87218
11
7.65958
21
-3.87209
0
LINE
8
BLACK
6
CONTINUOUS
10
7.65958
20
-3.87209
11
7.65961
21
-3.87199
0
LINE
8
BLACK
6
CONTINUOUS
10
7.65961
20
-3.87199
11
7.65963
21
-3.87195
0
LINE
8
BLACK
6
CONTINUOUS
10
7.65963
20
-3.87195
11
7.76888
21
-3.57924
0
LINE
8
BLACK
6
CONTINUOUS
10
7.76888
20
-3.57924
11
7.76894
21
-3.57911
0
LINE
8
BLACK
6
CONTINUOUS
10
7.76894
20
-3.57911
11
7.76901
21
-3.57902
0
LINE
8
BLACK
6
CONTINUOUS
10
7.76901
20
-3.57902
11
7.87431
21
-3.33696
0
LINE
8
BLACK
6
CONTINUOUS
10
7.87431
20
-3.33696
11
7.87433
21
-3.33693
0
LINE
8
BLACK
6
CONTINUOUS
10
7.87433
20
-3.33693
11
7.87433
21
-3.33693
0
LINE
8
BLACK
6
CONTINUOUS
10
7.87433
20
-3.33693
11
7.87433
21
-3.33693
0
LINE
8
BLACK
6
CONTINUOUS
10
7.87433
20
-3.33693
11
7.87438
21
-3.33684
0
LINE
8
BLACK
6
CONTINUOUS
10
7.87438
20
-3.33684
11
7.87451
21
-3.33669
0
LINE
8
BLACK
6
CONTINUOUS
10
7.87451
20
-3.33669
11
7.87466
21
-3.33657
0
LINE
8
BLACK
6
CONTINUOUS
10
7.87466
20
-3.33657
11
7.87473
21
-3.33653
0
LINE
8
BLACK
6
CONTINUOUS
10
7.87473
20
-3.33653
11
7.9062
21
-3.31895
0
LINE
8
BLACK
6
CONTINUOUS
10
7.9062
20
-3.31895
11
7.95213
21
-3.28742
0
LINE
8
BLACK
6
CONTINUOUS
10
7.95213
20
-3.28742
11
7.99424
21
-3.25097
0
LINE
8
BLACK
6
CONTINUOUS
10
7.99424
20
-3.25097
11
8.03204
21
-3.21006
0
LINE
8
BLACK
6
CONTINUOUS
10
8.03204
20
-3.21006
11
8.06504
21
-3.16519
0
LINE
8
BLACK
6
CONTINUOUS
10
8.06504
20
-3.16519
11
8.09283
21
-3.11692
0
LINE
8
BLACK
6
CONTINUOUS
10
8.09283
20
-3.11692
11
8.11506
21
-3.06585
0
LINE
8
BLACK
6
CONTINUOUS
10
8.11506
20
-3.06585
11
8.13147
21
-3.01262
0
LINE
8
BLACK
6
CONTINUOUS
10
8.13147
20
-3.01262
11
8.14184
21
-2.9579
0
LINE
8
BLACK
6
CONTINUOUS
10
8.14184
20
-2.9579
11
8.14604
21
-2.90236
0
LINE
8
BLACK
6
CONTINUOUS
10
8.14604
20
-2.90236
11
8.14403
21
-2.8467
0
LINE
8
BLACK
6
CONTINUOUS
10
8.14403
20
-2.8467
11
8.13583
21
-2.79161
0
LINE
8
BLACK
6
CONTINUOUS
10
8.13583
20
-2.79161
11
8.12153
21
-2.73777
0
LINE
8
BLACK
6
CONTINUOUS
10
8.12153
20
-2.73777
11
8.10133
21
-2.68587
0
LINE
8
BLACK
6
CONTINUOUS
10
8.10133
20
-2.68587
11
8.07546
21
-2.63654
0
LINE
8
BLACK
6
CONTINUOUS
10
8.07546
20
-2.63654
11
8.04426
21
-2.5904
0
LINE
8
BLACK
6
CONTINUOUS
10
8.04426
20
-2.5904
11
8.00811
21
-2.54803
0
LINE
8
BLACK
6
CONTINUOUS
10
8.00811
20
-2.54803
11
7.96746
21
-2.50995
0
LINE
8
BLACK
6
CONTINUOUS
10
7.96746
20
-2.50995
11
7.92282
21
-2.47664
0
LINE
8
BLACK
6
CONTINUOUS
10
7.92282
20
-2.47664
11
7.87472
21
-2.4485
0
LINE
8
BLACK
6
CONTINUOUS
10
7.87472
20
-2.4485
11
7.87466
21
-2.44847
0
LINE
8
BLACK
6
CONTINUOUS
10
7.87466
20
-2.44847
11
7.87451
21
-2.44835
0
LINE
8
BLACK
6
CONTINUOUS
10
7.87451
20
-2.44835
11
7.87439
21
-2.4482
0
LINE
8
BLACK
6
CONTINUOUS
10
7.87439
20
-2.4482
11
7.87431
21
-2.44808
0
LINE
8
BLACK
6
CONTINUOUS
10
7.87431
20
-2.44808
11
7.76846
21
-2.20611
0
LINE
8
BLACK
6
CONTINUOUS
10
7.76846
20
-2.20611
11
7.76845
21
-2.20609
0
LINE
8
BLACK
6
CONTINUOUS
10
7.76845
20
-2.20609
11
7.76844
21
-2.20607
0
LINE
8
BLACK
6
CONTINUOUS
10
7.76844
20
-2.20607
11
7.76843
21
-2.20605
0
LINE
8
BLACK
6
CONTINUOUS
10
7.76843
20
-2.20605
11
7.76843
21
-2.20602
0
LINE
8
BLACK
6
CONTINUOUS
10
7.76843
20
-2.20602
11
7.65963
21
-1.91309
0
LINE
8
BLACK
6
CONTINUOUS
10
7.65963
20
-1.91309
11
7.65961
21
-1.91304
0
LINE
8
BLACK
6
CONTINUOUS
10
7.65961
20
-1.91304
11
7.65958
21
-1.91295
0
LINE
8
BLACK
6
CONTINUOUS
10
7.65958
20
-1.91295
11
7.65956
21
-1.91286
0
LINE
8
BLACK
6
CONTINUOUS
10
7.65956
20
-1.91286
11
7.65956
21
-1.91286
0
LINE
8
BLACK
6
CONTINUOUS
10
7.65956
20
-1.91286
11
7.65956
21
-1.91286
0
LINE
8
BLACK
6
CONTINUOUS
10
7.65956
20
-1.91286
11
7.65955
21
-1.91276
0
LINE
8
BLACK
6
CONTINUOUS
10
7.65955
20
-1.91276
11
7.65955
21
-1.91267
0
LINE
8
BLACK
6
CONTINUOUS
10
7.65955
20
-1.91267
11
7.65955
21
-1.91266
0
LINE
8
BLACK
6
CONTINUOUS
10
7.65955
20
-1.91266
11
7.65955
21
-1.91266
0
LINE
8
BLACK
6
CONTINUOUS
10
7.65955
20
-1.91266
11
7.65956
21
-1.91258
0
LINE
8
BLACK
6
CONTINUOUS
10
7.65956
20
-1.91258
11
7.65957
21
-1.91247
0
LINE
8
BLACK
6
CONTINUOUS
10
7.65957
20
-1.91247
11
7.65957
21
-1.91247
0
LINE
8
BLACK
6
CONTINUOUS
10
7.65957
20
-1.91247
11
7.65957
21
-1.91247
0
LINE
8
BLACK
6
CONTINUOUS
10
7.65957
20
-1.91247
11
7.6596
21
-1.91239
0
LINE
8
BLACK
6
CONTINUOUS
10
7.6596
20
-1.91239
11
7.65964
21
-1.91229
0
LINE
8
BLACK
6
CONTINUOUS
10
7.65964
20
-1.91229
11
7.65964
21
-1.91229
0
LINE
8
BLACK
6
CONTINUOUS
10
7.65964
20
-1.91229
11
7.65964
21
-1.91229
0
LINE
8
BLACK
6
CONTINUOUS
10
7.65964
20
-1.91229
11
7.65969
21
-1.9122
0
LINE
8
BLACK
6
CONTINUOUS
10
7.65969
20
-1.9122
11
7.65973
21
-1.91212
0
LINE
8
BLACK
6
CONTINUOUS
10
7.65973
20
-1.91212
11
7.65973
21
-1.91212
0
LINE
8
BLACK
6
CONTINUOUS
10
7.65973
20
-1.91212
11
7.65973
21
-1.91212
0
LINE
8
BLACK
6
CONTINUOUS
10
7.65973
20
-1.91212
11
7.6598
21
-1.91205
0
LINE
8
BLACK
6
CONTINUOUS
10
7.6598
20
-1.91205
11
7.65986
21
-1.91198
0
LINE
8
BLACK
6
CONTINUOUS
10
7.65986
20
-1.91198
11
7.65986
21
-1.91198
0
LINE
8
BLACK
6
CONTINUOUS
10
7.65986
20
-1.91198
11
7.65986
21
-1.91198
0
LINE
8
BLACK
6
CONTINUOUS
10
7.65986
20
-1.91198
11
7.65993
21
-1.91192
0
LINE
8
BLACK
6
CONTINUOUS
10
7.65993
20
-1.91192
11
7.66002
21
-1.91186
0
LINE
8
BLACK
6
CONTINUOUS
10
7.66002
20
-1.91186
11
7.66002
21
-1.91186
0
LINE
8
BLACK
6
CONTINUOUS
10
7.66002
20
-1.91186
11
7.66002
21
-1.91186
0
LINE
8
BLACK
6
CONTINUOUS
10
7.66002
20
-1.91186
11
7.6601
21
-1.91182
0
LINE
8
BLACK
6
CONTINUOUS
10
7.6601
20
-1.91182
11
7.66019
21
-1.91177
0
LINE
8
BLACK
6
CONTINUOUS
10
7.66019
20
-1.91177
11
7.66019
21
-1.91177
0
LINE
8
BLACK
6
CONTINUOUS
10
7.66019
20
-1.91177
11
7.66019
21
-1.91177
0
LINE
8
BLACK
6
CONTINUOUS
10
7.66019
20
-1.91177
11
7.6603
21
-1.91175
0
LINE
8
BLACK
6
CONTINUOUS
10
7.6603
20
-1.91175
11
7.66038
21
-1.91173
0
LINE
8
BLACK
6
CONTINUOUS
10
7.66038
20
-1.91173
11
7.66043
21
-1.91172
0
LINE
8
BLACK
6
CONTINUOUS
10
7.66043
20
-1.91172
11
7.94165
21
-1.86703
0
LINE
8
BLACK
6
CONTINUOUS
10
7.94165
20
-1.86703
11
7.9417
21
-1.86702
0
LINE
8
BLACK
6
CONTINUOUS
10
7.9417
20
-1.86702
11
7.9418
21
-1.86702
0
LINE
8
BLACK
6
CONTINUOUS
10
7.9418
20
-1.86702
11
7.94189
21
-1.86701
0
LINE
8
BLACK
6
CONTINUOUS
10
7.94189
20
-1.86701
11
7.94189
21
-1.86701
0
LINE
8
BLACK
6
CONTINUOUS
10
7.94189
20
-1.86701
11
7.9419
21
-1.86701
0
LINE
8
BLACK
6
CONTINUOUS
10
7.9419
20
-1.86701
11
7.94199
21
-1.86702
0
LINE
8
BLACK
6
CONTINUOUS
10
7.94199
20
-1.86702
11
7.94209
21
-1.86704
0
LINE
8
BLACK
6
CONTINUOUS
10
7.94209
20
-1.86704
11
7.94209
21
-1.86704
0
LINE
8
BLACK
6
CONTINUOUS
10
7.94209
20
-1.86704
11
7.94209
21
-1.86704
0
LINE
8
BLACK
6
CONTINUOUS
10
7.94209
20
-1.86704
11
7.94218
21
-1.86707
0
LINE
8
BLACK
6
CONTINUOUS
10
7.94218
20
-1.86707
11
7.94227
21
-1.8671
0
LINE
8
BLACK
6
CONTINUOUS
10
7.94227
20
-1.8671
11
7.94227
21
-1.8671
0
LINE
8
BLACK
6
CONTINUOUS
10
7.94227
20
-1.8671
11
7.94227
21
-1.8671
0
LINE
8
BLACK
6
CONTINUOUS
10
7.94227
20
-1.8671
11
7.94235
21
-1.86715
0
LINE
8
BLACK
6
CONTINUOUS
10
7.94235
20
-1.86715
11
7.94244
21
-1.8672
0
LINE
8
BLACK
6
CONTINUOUS
10
7.94244
20
-1.8672
11
7.94244
21
-1.8672
0
LINE
8
BLACK
6
CONTINUOUS
10
7.94244
20
-1.8672
11
7.94244
21
-1.8672
0
LINE
8
BLACK
6
CONTINUOUS
10
7.94244
20
-1.8672
11
7.94249
21
-1.86725
0
LINE
8
BLACK
6
CONTINUOUS
10
7.94249
20
-1.86725
11
7.94258
21
-1.86733
0
LINE
8
BLACK
6
CONTINUOUS
10
7.94258
20
-1.86733
11
7.94258
21
-1.86733
0
LINE
8
BLACK
6
CONTINUOUS
10
7.94258
20
-1.86733
11
7.94258
21
-1.86733
0
LINE
8
BLACK
6
CONTINUOUS
10
7.94258
20
-1.86733
11
7.94263
21
-1.86739
0
LINE
8
BLACK
6
CONTINUOUS
10
7.94263
20
-1.86739
11
7.9427
21
-1.86748
0
LINE
8
BLACK
6
CONTINUOUS
10
7.9427
20
-1.86748
11
7.9427
21
-1.86748
0
LINE
8
BLACK
6
CONTINUOUS
10
7.9427
20
-1.86748
11
7.9427
21
-1.86748
0
LINE
8
BLACK
6
CONTINUOUS
10
7.9427
20
-1.86748
11
7.94274
21
-1.86757
0
LINE
8
BLACK
6
CONTINUOUS
10
7.94274
20
-1.86757
11
7.94278
21
-1.86766
0
LINE
8
BLACK
6
CONTINUOUS
10
7.94278
20
-1.86766
11
7.9428
21
-1.8677
0
LINE
8
BLACK
6
CONTINUOUS
10
7.9428
20
-1.8677
11
7.97903
21
-1.96634
0
LINE
8
BLACK
6
CONTINUOUS
10
7.97903
20
-1.96634
11
9.06979
21
-1.96634
0
LINE
8
BLACK
6
CONTINUOUS
10
9.06979
20
-1.96634
11
9.10634
21
-1.86742
0
LINE
8
BLACK
6
CONTINUOUS
10
9.10634
20
-1.86742
11
9.10636
21
-1.86737
0
LINE
8
BLACK
6
CONTINUOUS
10
9.10636
20
-1.86737
11
9.10639
21
-1.8673
0
LINE
8
BLACK
6
CONTINUOUS
10
9.10639
20
-1.8673
11
9.10644
21
-1.8672
0
LINE
8
BLACK
6
CONTINUOUS
10
9.10644
20
-1.8672
11
9.10644
21
-1.8672
0
LINE
8
BLACK
6
CONTINUOUS
10
9.10644
20
-1.8672
11
9.10644
21
-1.8672
0
LINE
8
BLACK
6
CONTINUOUS
10
9.10644
20
-1.8672
11
9.10649
21
-1.86714
0
LINE
8
BLACK
6
CONTINUOUS
10
9.10649
20
-1.86714
11
9.10656
21
-1.86704
0
LINE
8
BLACK
6
CONTINUOUS
10
9.10656
20
-1.86704
11
9.10656
21
-1.86704
0
LINE
8
BLACK
6
CONTINUOUS
10
9.10656
20
-1.86704
11
9.10656
21
-1.86704
0
LINE
8
BLACK
6
CONTINUOUS
10
9.10656
20
-1.86704
11
9.10662
21
-1.86699
0
LINE
8
BLACK
6
CONTINUOUS
10
9.10662
20
-1.86699
11
9.1067
21
-1.86692
0
LINE
8
BLACK
6
CONTINUOUS
10
9.1067
20
-1.86692
11
9.1067
21
-1.86692
0
LINE
8
BLACK
6
CONTINUOUS
10
9.1067
20
-1.86692
11
9.1067
21
-1.86692
0
LINE
8
BLACK
6
CONTINUOUS
10
9.1067
20
-1.86692
11
9.10674
21
-1.86689
0
LINE
8
BLACK
6
CONTINUOUS
10
9.10674
20
-1.86689
11
9.10687
21
-1.86682
0
LINE
8
BLACK
6
CONTINUOUS
10
9.10687
20
-1.86682
11
9.10705
21
-1.86675
0
LINE
8
BLACK
6
CONTINUOUS
10
9.10705
20
-1.86675
11
9.10705
21
-1.86675
0
LINE
8
BLACK
6
CONTINUOUS
10
9.10705
20
-1.86675
11
9.10705
21
-1.86675
0
LINE
8
BLACK
6
CONTINUOUS
10
9.10705
20
-1.86675
11
9.10713
21
-1.86674
0
LINE
8
BLACK
6
CONTINUOUS
10
9.10713
20
-1.86674
11
9.10725
21
-1.86673
0
LINE
8
BLACK
6
CONTINUOUS
10
9.10725
20
-1.86673
11
9.10725
21
-1.86673
0
LINE
8
BLACK
6
CONTINUOUS
10
9.10725
20
-1.86673
11
9.10725
21
-1.86673
0
LINE
8
BLACK
6
CONTINUOUS
10
9.10725
20
-1.86673
11
9.10733
21
-1.86673
0
LINE
8
BLACK
6
CONTINUOUS
10
9.07141
20
-1.96764
11
9.07139
21
-1.9677
0
LINE
8
BLACK
6
CONTINUOUS
10
9.07139
20
-1.9677
11
9.07135
21
-1.96777
0
LINE
8
BLACK
6
CONTINUOUS
10
9.07135
20
-1.96777
11
9.07132
21
-1.96784
0
LINE
8
BLACK
6
CONTINUOUS
10
9.07132
20
-1.96784
11
9.0713
21
-1.96786
0
LINE
8
BLACK
6
CONTINUOUS
10
9.0713
20
-1.96786
11
9.07129
21
-1.96787
0
LINE
8
BLACK
6
CONTINUOUS
10
9.07129
20
-1.96787
11
9.07124
21
-1.96793
0
LINE
8
BLACK
6
CONTINUOUS
10
9.07124
20
-1.96793
11
9.0712
21
-1.96799
0
LINE
8
BLACK
6
CONTINUOUS
10
9.0712
20
-1.96799
11
9.07118
21
-1.96801
0
LINE
8
BLACK
6
CONTINUOUS
10
9.07118
20
-1.96801
11
9.07117
21
-1.96802
0
LINE
8
BLACK
6
CONTINUOUS
10
9.07117
20
-1.96802
11
9.07111
21
-1.96807
0
LINE
8
BLACK
6
CONTINUOUS
10
9.07111
20
-1.96807
11
9.07105
21
-1.96812
0
LINE
8
BLACK
6
CONTINUOUS
10
9.07105
20
-1.96812
11
9.07104
21
-1.96813
0
LINE
8
BLACK
6
CONTINUOUS
10
9.07104
20
-1.96813
11
9.07102
21
-1.96815
0
LINE
8
BLACK
6
CONTINUOUS
10
9.07102
20
-1.96815
11
9.07095
21
-1.96818
0
LINE
8
BLACK
6
CONTINUOUS
10
9.07095
20
-1.96818
11
9.07089
21
-1.96822
0
LINE
8
BLACK
6
CONTINUOUS
10
9.07089
20
-1.96822
11
9.07087
21
-1.96823
0
LINE
8
BLACK
6
CONTINUOUS
10
9.07087
20
-1.96823
11
9.07085
21
-1.96824
0
LINE
8
BLACK
6
CONTINUOUS
10
9.07085
20
-1.96824
11
9.07078
21
-1.96826
0
LINE
8
BLACK
6
CONTINUOUS
10
9.07078
20
-1.96826
11
9.0707
21
-1.96828
0
LINE
8
BLACK
6
CONTINUOUS
10
9.0707
20
-1.96828
11
9.07068
21
-1.96829
0
LINE
8
BLACK
6
CONTINUOUS
10
9.07068
20
-1.96829
11
9.07067
21
-1.96829
0
LINE
8
BLACK
6
CONTINUOUS
10
9.07067
20
-1.96829
11
9.07059
21
-1.9683
0
LINE
8
BLACK
6
CONTINUOUS
10
9.07059
20
-1.9683
11
9.07051
21
-1.96831
0
LINE
8
BLACK
6
CONTINUOUS
10
9.07051
20
-1.96831
11
9.07044
21
-1.96831
0
LINE
8
BLACK
6
CONTINUOUS
10
9.07044
20
-1.96831
11
7.97837
21
-1.96831
0
LINE
8
BLACK
6
CONTINUOUS
10
7.97837
20
-1.96831
11
7.97831
21
-1.96831
0
LINE
8
BLACK
6
CONTINUOUS
10
7.97831
20
-1.96831
11
7.97823
21
-1.9683
0
LINE
8
BLACK
6
CONTINUOUS
10
7.97823
20
-1.9683
11
7.97815
21
-1.96829
0
LINE
8
BLACK
6
CONTINUOUS
10
7.97815
20
-1.96829
11
7.97813
21
-1.96829
0
LINE
8
BLACK
6
CONTINUOUS
10
7.97813
20
-1.96829
11
7.97811
21
-1.96828
0
LINE
8
BLACK
6
CONTINUOUS
10
7.97811
20
-1.96828
11
7.97804
21
-1.96826
0
LINE
8
BLACK
6
CONTINUOUS
10
7.97804
20
-1.96826
11
7.97797
21
-1.96824
0
LINE
8
BLACK
6
CONTINUOUS
10
7.97797
20
-1.96824
11
7.97795
21
-1.96823
0
LINE
8
BLACK
6
CONTINUOUS
10
7.97795
20
-1.96823
11
7.97793
21
-1.96822
0
LINE
8
BLACK
6
CONTINUOUS
10
7.97793
20
-1.96822
11
7.97786
21
-1.96818
0
LINE
8
BLACK
6
CONTINUOUS
10
7.97786
20
-1.96818
11
7.9778
21
-1.96815
0
LINE
8
BLACK
6
CONTINUOUS
10
7.9778
20
-1.96815
11
7.97778
21
-1.96813
0
LINE
8
BLACK
6
CONTINUOUS
10
7.97778
20
-1.96813
11
7.97776
21
-1.96812
0
LINE
8
BLACK
6
CONTINUOUS
10
7.97776
20
-1.96812
11
7.97771
21
-1.96807
0
LINE
8
BLACK
6
CONTINUOUS
10
7.97771
20
-1.96807
11
7.97765
21
-1.96802
0
LINE
8
BLACK
6
CONTINUOUS
10
7.97765
20
-1.96802
11
7.97763
21
-1.96801
0
LINE
8
BLACK
6
CONTINUOUS
10
7.97763
20
-1.96801
11
7.97762
21
-1.96799
0
LINE
8
BLACK
6
CONTINUOUS
10
7.97762
20
-1.96799
11
7.97757
21
-1.96793
0
LINE
8
BLACK
6
CONTINUOUS
10
7.97757
20
-1.96793
11
7.97752
21
-1.96787
0
LINE
8
BLACK
6
CONTINUOUS
10
7.97752
20
-1.96787
11
7.97751
21
-1.96785
0
LINE
8
BLACK
6
CONTINUOUS
10
7.97751
20
-1.96785
11
7.9775
21
-1.96784
0
LINE
8
BLACK
6
CONTINUOUS
10
7.9775
20
-1.96784
11
7.97747
21
-1.96777
0
LINE
8
BLACK
6
CONTINUOUS
10
7.97747
20
-1.96777
11
7.97743
21
-1.9677
0
LINE
8
BLACK
6
CONTINUOUS
10
7.97743
20
-1.9677
11
7.97741
21
-1.96764
0
LINE
8
BLACK
6
CONTINUOUS
10
7.97741
20
-1.96764
11
7.94121
21
-1.8691
0
LINE
8
BLACK
6
CONTINUOUS
10
7.94121
20
-1.8691
11
7.66188
21
-1.91349
0
LINE
8
BLACK
6
CONTINUOUS
10
7.66188
20
-1.91349
11
7.77027
21
-2.20533
0
LINE
8
BLACK
6
CONTINUOUS
10
7.77027
20
-2.20533
11
7.87597
21
-2.44695
0
LINE
8
BLACK
6
CONTINUOUS
10
7.87597
20
-2.44695
11
7.92386
21
-2.47497
0
LINE
8
BLACK
6
CONTINUOUS
10
7.92386
20
-2.47497
11
7.92388
21
-2.47498
0
LINE
8
BLACK
6
CONTINUOUS
10
7.92388
20
-2.47498
11
7.92392
21
-2.47501
0
LINE
8
BLACK
6
CONTINUOUS
10
7.92392
20
-2.47501
11
7.92396
21
-2.47503
0
LINE
8
BLACK
6
CONTINUOUS
10
7.92396
20
-2.47503
11
7.96868
21
-2.50841
0
LINE
8
BLACK
6
CONTINUOUS
10
7.96868
20
-2.50841
11
7.96868
21
-2.50841
0
LINE
8
BLACK
6
CONTINUOUS
10
7.96868
20
-2.50841
11
7.96868
21
-2.50841
0
LINE
8
BLACK
6
CONTINUOUS
10
7.96868
20
-2.50841
11
7.96869
21
-2.50842
0
LINE
8
BLACK
6
CONTINUOUS
10
7.96869
20
-2.50842
11
7.96873
21
-2.50845
0
LINE
8
BLACK
6
CONTINUOUS
10
7.96873
20
-2.50845
11
7.96877
21
-2.50848
0
LINE
8
BLACK
6
CONTINUOUS
10
7.96877
20
-2.50848
11
8.0095
21
-2.54663
0
LINE
8
BLACK
6
CONTINUOUS
10
8.0095
20
-2.54663
11
8.00951
21
-2.54664
0
LINE
8
BLACK
6
CONTINUOUS
10
8.00951
20
-2.54664
11
8.00954
21
-2.54668
0
LINE
8
BLACK
6
CONTINUOUS
10
8.00954
20
-2.54668
11
8.00957
21
-2.54671
0
LINE
8
BLACK
6
CONTINUOUS
10
8.00957
20
-2.54671
11
8.0458
21
-2.58917
0
LINE
8
BLACK
6
CONTINUOUS
10
8.0458
20
-2.58917
11
8.0458
21
-2.58918
0
LINE
8
BLACK
6
CONTINUOUS
10
8.0458
20
-2.58918
11
8.04583
21
-2.58922
0
LINE
8
BLACK
6
CONTINUOUS
10
8.04583
20
-2.58922
11
8.04586
21
-2.58925
0
LINE
8
BLACK
6
CONTINUOUS
10
8.04586
20
-2.58925
11
8.07713
21
-2.63548
0
LINE
8
BLACK
6
CONTINUOUS
10
8.07713
20
-2.63548
11
8.07713
21
-2.6355
0
LINE
8
BLACK
6
CONTINUOUS
10
8.07713
20
-2.6355
11
8.07716
21
-2.63554
0
LINE
8
BLACK
6
CONTINUOUS
10
8.07716
20
-2.63554
11
8.07718
21
-2.63558
0
LINE
8
BLACK
6
CONTINUOUS
10
8.07718
20
-2.63558
11
8.1031
21
-2.685
0
LINE
8
BLACK
6
CONTINUOUS
10
8.1031
20
-2.685
11
8.1031
21
-2.685
0
LINE
8
BLACK
6
CONTINUOUS
10
8.1031
20
-2.685
11
8.1031
21
-2.685
0
LINE
8
BLACK
6
CONTINUOUS
10
8.1031
20
-2.685
11
8.1031
21
-2.68502
0
LINE
8
BLACK
6
CONTINUOUS
10
8.1031
20
-2.68502
11
8.10312
21
-2.68506
0
LINE
8
BLACK
6
CONTINUOUS
10
8.10312
20
-2.68506
11
8.10314
21
-2.6851
0
LINE
8
BLACK
6
CONTINUOUS
10
8.10314
20
-2.6851
11
8.12339
21
-2.73711
0
LINE
8
BLACK
6
CONTINUOUS
10
8.12339
20
-2.73711
11
8.12339
21
-2.73712
0
LINE
8
BLACK
6
CONTINUOUS
10
8.12339
20
-2.73712
11
8.12341
21
-2.73717
0
LINE
8
BLACK
6
CONTINUOUS
10
8.12341
20
-2.73717
11
8.12342
21
-2.73722
0
LINE
8
BLACK
6
CONTINUOUS
10
8.12342
20
-2.73722
11
8.13774
21
-2.79115
0
LINE
8
BLACK
6
CONTINUOUS
10
8.13774
20
-2.79115
11
8.13775
21
-2.79117
0
LINE
8
BLACK
6
CONTINUOUS
10
8.13775
20
-2.79117
11
8.13776
21
-2.79122
0
LINE
8
BLACK
6
CONTINUOUS
10
8.13776
20
-2.79122
11
8.13777
21
-2.79126
0
LINE
8
BLACK
6
CONTINUOUS
10
8.13777
20
-2.79126
11
8.14599
21
-2.84646
0
LINE
8
BLACK
6
CONTINUOUS
10
8.14599
20
-2.84646
11
8.14599
21
-2.84648
0
LINE
8
BLACK
6
CONTINUOUS
10
8.14599
20
-2.84648
11
8.14599
21
-2.84652
0
LINE
8
BLACK
6
CONTINUOUS
10
8.14599
20
-2.84652
11
8.146
21
-2.84657
0
LINE
8
BLACK
6
CONTINUOUS
10
8.146
20
-2.84657
11
8.14801
21
-2.90234
0
LINE
8
BLACK
6
CONTINUOUS
10
8.14801
20
-2.90234
11
8.14801
21
-2.90236
0
LINE
8
BLACK
6
CONTINUOUS
10
8.14801
20
-2.90236
11
8.14801
21
-2.90241
0
LINE
8
BLACK
6
CONTINUOUS
10
8.14801
20
-2.90241
11
8.14801
21
-2.90245
0
LINE
8
BLACK
6
CONTINUOUS
10
8.14801
20
-2.90245
11
8.1438
21
-2.9581
0
LINE
8
BLACK
6
CONTINUOUS
10
8.1438
20
-2.9581
11
8.1438
21
-2.95812
0
LINE
8
BLACK
6
CONTINUOUS
10
8.1438
20
-2.95812
11
8.14379
21
-2.95816
0
LINE
8
BLACK
6
CONTINUOUS
10
8.14379
20
-2.95816
11
8.14378
21
-2.95821
0
LINE
8
BLACK
6
CONTINUOUS
10
8.14378
20
-2.95821
11
8.13339
21
-3.01304
0
LINE
8
BLACK
6
CONTINUOUS
10
8.13339
20
-3.01304
11
8.13339
21
-3.01306
0
LINE
8
BLACK
6
CONTINUOUS
10
8.13339
20
-3.01306
11
8.13338
21
-3.0131
0
LINE
8
BLACK
6
CONTINUOUS
10
8.13338
20
-3.0131
11
8.13337
21
-3.01315
0
LINE
8
BLACK
6
CONTINUOUS
10
8.13337
20
-3.01315
11
8.11693
21
-3.06648
0
LINE
8
BLACK
6
CONTINUOUS
10
8.11693
20
-3.06648
11
8.11692
21
-3.0665
0
LINE
8
BLACK
6
CONTINUOUS
10
8.11692
20
-3.0665
11
8.11691
21
-3.06654
0
LINE
8
BLACK
6
CONTINUOUS
10
8.11691
20
-3.06654
11
8.11689
21
-3.06659
0
LINE
8
BLACK
6
CONTINUOUS
10
8.11689
20
-3.06659
11
8.09461
21
-3.11775
0
LINE
8
BLACK
6
CONTINUOUS
10
8.09461
20
-3.11775
11
8.0946
21
-3.11777
0
LINE
8
BLACK
6
CONTINUOUS
10
8.0946
20
-3.11777
11
8.09458
21
-3.11781
0
LINE
8
BLACK
6
CONTINUOUS
10
8.09458
20
-3.11781
11
8.09456
21
-3.11785
0
LINE
8
BLACK
6
CONTINUOUS
10
8.09456
20
-3.11785
11
8.06671
21
-3.16622
0
LINE
8
BLACK
6
CONTINUOUS
10
8.06671
20
-3.16622
11
8.06671
21
-3.16623
0
LINE
8
BLACK
6
CONTINUOUS
10
8.06671
20
-3.16623
11
8.06668
21
-3.16627
0
LINE
8
BLACK
6
CONTINUOUS
10
8.06668
20
-3.16627
11
8.06665
21
-3.16631
0
LINE
8
BLACK
6
CONTINUOUS
10
8.06665
20
-3.16631
11
8.03359
21
-3.21127
0
LINE
8
BLACK
6
CONTINUOUS
10
8.03359
20
-3.21127
11
8.03358
21
-3.21128
0
LINE
8
BLACK
6
CONTINUOUS
10
8.03358
20
-3.21128
11
8.03355
21
-3.21132
0
LINE
8
BLACK
6
CONTINUOUS
10
8.03355
20
-3.21132
11
8.03352
21
-3.21135
0
LINE
8
BLACK
6
CONTINUOUS
10
8.03352
20
-3.21135
11
7.99565
21
-3.25235
0
LINE
8
BLACK
6
CONTINUOUS
10
7.99565
20
-3.25235
11
7.99564
21
-3.25236
0
LINE
8
BLACK
6
CONTINUOUS
10
7.99564
20
-3.25236
11
7.99561
21
-3.25239
0
LINE
8
BLACK
6
CONTINUOUS
10
7.99561
20
-3.25239
11
7.99557
21
-3.25243
0
LINE
8
BLACK
6
CONTINUOUS
10
7.99557
20
-3.25243
11
7.95337
21
-3.28894
0
LINE
8
BLACK
6
CONTINUOUS
10
7.95337
20
-3.28894
11
7.95336
21
-3.28895
0
LINE
8
BLACK
6
CONTINUOUS
10
7.95336
20
-3.28895
11
7.95332
21
-3.28898
0
LINE
8
BLACK
6
CONTINUOUS
10
7.95332
20
-3.28898
11
7.95328
21
-3.28901
0
LINE
8
BLACK
6
CONTINUOUS
10
7.95328
20
-3.28901
11
7.90727
21
-3.3206
0
LINE
8
BLACK
6
CONTINUOUS
10
7.90727
20
-3.3206
11
7.90726
21
-3.3206
0
LINE
8
BLACK
6
CONTINUOUS
10
7.90726
20
-3.3206
11
7.90723
21
-3.32062
0
LINE
8
BLACK
6
CONTINUOUS
10
7.90723
20
-3.32062
11
7.9072
21
-3.32064
0
LINE
8
BLACK
6
CONTINUOUS
10
7.9072
20
-3.32064
11
7.87597
21
-3.3381
0
LINE
8
BLACK
6
CONTINUOUS
10
7.87597
20
-3.3381
11
7.77071
21
-3.58006
0
LINE
8
BLACK
6
CONTINUOUS
10
7.77071
20
-3.58006
11
7.77064
21
-3.58019
0
LINE
8
BLACK
6
CONTINUOUS
10
7.77064
20
-3.58019
11
7.77062
21
-3.58021
0
LINE
8
BLACK
6
CONTINUOUS
10
7.77062
20
-3.58021
11
7.66188
21
-3.87156
0
LINE
8
BLACK
6
CONTINUOUS
10
7.66188
20
-3.87156
11
7.94168
21
-3.91622
0
LINE
8
BLACK
6
CONTINUOUS
10
7.94168
20
-3.91622
11
7.9782
21
-3.8174
0
LINE
8
BLACK
6
CONTINUOUS
10
7.9782
20
-3.8174
11
7.97822
21
-3.81734
0
LINE
8
BLACK
6
CONTINUOUS
10
7.97822
20
-3.81734
11
7.97826
21
-3.81727
0
LINE
8
BLACK
6
CONTINUOUS
10
7.97826
20
-3.81727
11
7.97829
21
-3.8172
0
LINE
8
BLACK
6
CONTINUOUS
10
7.97829
20
-3.8172
11
7.9783
21
-3.81718
0
LINE
8
BLACK
6
CONTINUOUS
10
7.9783
20
-3.81718
11
7.97831
21
-3.81717
0
LINE
8
BLACK
6
CONTINUOUS
10
7.97831
20
-3.81717
11
7.97836
21
-3.81711
0
LINE
8
BLACK
6
CONTINUOUS
10
7.97836
20
-3.81711
11
7.97841
21
-3.81704
0
LINE
8
BLACK
6
CONTINUOUS
10
7.97841
20
-3.81704
11
7.97842
21
-3.81703
0
LINE
8
BLACK
6
CONTINUOUS
10
7.97842
20
-3.81703
11
7.97843
21
-3.81702
0
LINE
8
BLACK
6
CONTINUOUS
10
7.97843
20
-3.81702
11
7.97849
21
-3.81697
0
LINE
8
BLACK
6
CONTINUOUS
10
7.97849
20
-3.81697
11
7.97855
21
-3.81692
0
LINE
8
BLACK
6
CONTINUOUS
10
7.97855
20
-3.81692
11
7.97857
21
-3.81691
0
LINE
8
BLACK
6
CONTINUOUS
10
7.97857
20
-3.81691
11
7.97858
21
-3.81689
0
LINE
8
BLACK
6
CONTINUOUS
10
7.97858
20
-3.81689
11
7.97865
21
-3.81686
0
LINE
8
BLACK
6
CONTINUOUS
10
7.97865
20
-3.81686
11
7.97872
21
-3.81682
0
LINE
8
BLACK
6
CONTINUOUS
10
7.97872
20
-3.81682
11
7.97874
21
-3.81681
0
LINE
8
BLACK
6
CONTINUOUS
10
7.97874
20
-3.81681
11
7.97876
21
-3.8168
0
LINE
8
BLACK
6
CONTINUOUS
10
7.97876
20
-3.8168
11
7.97883
21
-3.81678
0
LINE
8
BLACK
6
CONTINUOUS
10
7.97883
20
-3.81678
11
7.9789
21
-3.81675
0
LINE
8
BLACK
6
CONTINUOUS
10
7.9789
20
-3.81675
11
7.97892
21
-3.81675
0
LINE
8
BLACK
6
CONTINUOUS
10
7.97892
20
-3.81675
11
7.97894
21
-3.81675
0
LINE
8
BLACK
6
CONTINUOUS
10
7.97894
20
-3.81675
11
7.97902
21
-3.81674
0
LINE
8
BLACK
6
CONTINUOUS
10
7.97902
20
-3.81674
11
7.9791
21
-3.81673
0
LINE
8
BLACK
6
CONTINUOUS
10
7.9791
20
-3.81673
11
7.97916
21
-3.81673
0
LINE
8
BLACK
6
CONTINUOUS
10
7.97916
20
-3.81673
11
9.07123
21
-3.81673
0
LINE
8
BLACK
6
CONTINUOUS
10
9.07123
20
-3.81673
11
9.0713
21
-3.81673
0
LINE
8
BLACK
6
CONTINUOUS
10
9.0713
20
-3.81673
11
9.07138
21
-3.81674
0
LINE
8
BLACK
6
CONTINUOUS
10
9.07138
20
-3.81674
11
9.07145
21
-3.81675
0
LINE
8
BLACK
6
CONTINUOUS
10
9.07145
20
-3.81675
11
9.07147
21
-3.81675
0
LINE
8
BLACK
6
CONTINUOUS
10
9.07147
20
-3.81675
11
9.07149
21
-3.81676
0
LINE
8
BLACK
6
CONTINUOUS
10
9.07149
20
-3.81676
11
9.07156
21
-3.81678
0
LINE
8
BLACK
6
CONTINUOUS
10
9.07156
20
-3.81678
11
9.07164
21
-3.8168
0
LINE
8
BLACK
6
CONTINUOUS
10
9.07164
20
-3.8168
11
9.07166
21
-3.81681
0
LINE
8
BLACK
6
CONTINUOUS
10
9.07166
20
-3.81681
11
9.07168
21
-3.81682
0
LINE
8
BLACK
6
CONTINUOUS
10
9.07168
20
-3.81682
11
9.07174
21
-3.81686
0
LINE
8
BLACK
6
CONTINUOUS
10
9.07174
20
-3.81686
11
9.07181
21
-3.81689
0
LINE
8
BLACK
6
CONTINUOUS
10
9.07181
20
-3.81689
11
9.07183
21
-3.81691
0
LINE
8
BLACK
6
CONTINUOUS
10
9.07183
20
-3.81691
11
9.07184
21
-3.81692
0
LINE
8
BLACK
6
CONTINUOUS
10
9.07184
20
-3.81692
11
9.0719
21
-3.81697
0
LINE
8
BLACK
6
CONTINUOUS
10
9.0719
20
-3.81697
11
9.07196
21
-3.81702
0
LINE
8
BLACK
6
CONTINUOUS
10
9.07196
20
-3.81702
11
9.07197
21
-3.81703
0
LINE
8
BLACK
6
CONTINUOUS
10
9.07197
20
-3.81703
11
9.07199
21
-3.81705
0
LINE
8
BLACK
6
CONTINUOUS
10
9.07199
20
-3.81705
11
9.07203
21
-3.81711
0
LINE
8
BLACK
6
CONTINUOUS
10
9.07203
20
-3.81711
11
9.07208
21
-3.81717
0
LINE
8
BLACK
6
CONTINUOUS
10
9.07208
20
-3.81717
11
9.07209
21
-3.81719
0
LINE
8
BLACK
6
CONTINUOUS
10
9.07209
20
-3.81719
11
9.0721
21
-3.8172
0
LINE
8
BLACK
6
CONTINUOUS
10
9.0721
20
-3.8172
11
9.07214
21
-3.81727
0
LINE
8
BLACK
6
CONTINUOUS
10
9.07214
20
-3.81727
11
9.07217
21
-3.81734
0
LINE
8
BLACK
6
CONTINUOUS
10
9.07217
20
-3.81734
11
9.07219
21
-3.8174
0
LINE
8
BLACK
6
CONTINUOUS
10
9.07219
20
-3.8174
11
9.1084
21
-3.91594
0
LINE
8
BLACK
6
CONTINUOUS
10
9.1084
20
-3.91594
11
9.38773
21
-3.87155
0
LINE
8
BLACK
6
CONTINUOUS
10
9.38773
20
-3.87155
11
9.27934
21
-3.57971
0
LINE
8
BLACK
6
CONTINUOUS
10
9.27934
20
-3.57971
11
9.17364
21
-3.33809
0
LINE
8
BLACK
6
CONTINUOUS
10
9.17364
20
-3.33809
11
9.12574
21
-3.31007
0
LINE
8
BLACK
6
CONTINUOUS
10
9.12574
20
-3.31007
11
9.12573
21
-3.31006
0
LINE
8
BLACK
6
CONTINUOUS
10
9.12573
20
-3.31006
11
9.12569
21
-3.31003
0
LINE
8
BLACK
6
CONTINUOUS
10
9.12569
20
-3.31003
11
9.12565
21
-3.31001
0
LINE
8
BLACK
6
CONTINUOUS
10
9.12565
20
-3.31001
11
9.08092
21
-3.27663
0
LINE
8
BLACK
6
CONTINUOUS
10
9.08092
20
-3.27663
11
9.08091
21
-3.27662
0
LINE
8
BLACK
6
CONTINUOUS
10
9.08091
20
-3.27662
11
9.08087
21
-3.27659
0
LINE
8
BLACK
6
CONTINUOUS
10
9.08087
20
-3.27659
11
9.08084
21
-3.27656
0
LINE
8
BLACK
6
CONTINUOUS
10
9.08084
20
-3.27656
11
9.04011
21
-3.23841
0
LINE
8
BLACK
6
CONTINUOUS
10
9.04011
20
-3.23841
11
9.0401
21
-3.2384
0
LINE
8
BLACK
6
CONTINUOUS
10
9.0401
20
-3.2384
11
9.04007
21
-3.23836
0
LINE
8
BLACK
6
CONTINUOUS
10
9.04007
20
-3.23836
11
9.04003
21
-3.23833
0
LINE
8
BLACK
6
CONTINUOUS
10
9.04003
20
-3.23833
11
9.00381
21
-3.19587
0
LINE
8
BLACK
6
CONTINUOUS
10
9.00381
20
-3.19587
11
9.0038
21
-3.19586
0
LINE
8
BLACK
6
CONTINUOUS
10
9.0038
20
-3.19586
11
9.00377
21
-3.19582
0
LINE
8
BLACK
6
CONTINUOUS
10
9.00377
20
-3.19582
11
9.00374
21
-3.19578
0
LINE
8
BLACK
6
CONTINUOUS
10
9.00374
20
-3.19578
11
8.97248
21
-3.14956
0
LINE
8
BLACK
6
CONTINUOUS
10
8.97248
20
-3.14956
11
8.97247
21
-3.14954
0
LINE
8
BLACK
6
CONTINUOUS
10
8.97247
20
-3.14954
11
8.97245
21
-3.1495
0
LINE
8
BLACK
6
CONTINUOUS
10
8.97245
20
-3.1495
11
8.97242
21
-3.14946
0
LINE
8
BLACK
6
CONTINUOUS
10
8.97242
20
-3.14946
11
8.94651
21
-3.10004
0
LINE
8
BLACK
6
CONTINUOUS
10
8.94651
20
-3.10004
11
8.9465
21
-3.10002
0
LINE
8
BLACK
6
CONTINUOUS
10
8.9465
20
-3.10002
11
8.94648
21
-3.09998
0
LINE
8
BLACK
6
CONTINUOUS
10
8.94648
20
-3.09998
11
8.94646
21
-3.09994
0
LINE
8
BLACK
6
CONTINUOUS
10
8.94646
20
-3.09994
11
8.92622
21
-3.04793
0
LINE
8
BLACK
6
CONTINUOUS
10
8.92622
20
-3.04793
11
8.92621
21
-3.04792
0
LINE
8
BLACK
6
CONTINUOUS
10
8.92621
20
-3.04792
11
8.9262
21
-3.04787
0
LINE
8
BLACK
6
CONTINUOUS
10
8.9262
20
-3.04787
11
8.92618
21
-3.04782
0
LINE
8
BLACK
6
CONTINUOUS
10
8.92618
20
-3.04782
11
8.91186
21
-2.99388
0
LINE
8
BLACK
6
CONTINUOUS
10
8.91186
20
-2.99388
11
8.91186
21
-2.99387
0
LINE
8
BLACK
6
CONTINUOUS
10
8.91186
20
-2.99387
11
8.91185
21
-2.99382
0
LINE
8
BLACK
6
CONTINUOUS
10
8.91185
20
-2.99382
11
8.91184
21
-2.99378
0
LINE
8
BLACK
6
CONTINUOUS
10
8.91184
20
-2.99378
11
8.90362
21
-2.93858
0
LINE
8
BLACK
6
CONTINUOUS
10
8.90362
20
-2.93858
11
8.90362
21
-2.93856
0
LINE
8
BLACK
6
CONTINUOUS
10
8.90362
20
-2.93856
11
8.90361
21
-2.93851
0
LINE
8
BLACK
6
CONTINUOUS
10
8.90361
20
-2.93851
11
8.90361
21
-2.93847
0
LINE
8
BLACK
6
CONTINUOUS
10
8.90361
20
-2.93847
11
8.90159
21
-2.8827
0
LINE
8
BLACK
6
CONTINUOUS
10
8.90159
20
-2.8827
11
8.90159
21
-2.88268
0
LINE
8
BLACK
6
CONTINUOUS
10
8.90159
20
-2.88268
11
8.90159
21
-2.88263
0
LINE
8
BLACK
6
CONTINUOUS
10
8.90159
20
-2.88263
11
8.9016
21
-2.88259
0
LINE
8
BLACK
6
CONTINUOUS
10
8.9016
20
-2.88259
11
8.90581
21
-2.82694
0
LINE
8
BLACK
6
CONTINUOUS
10
8.90581
20
-2.82694
11
8.90581
21
-2.82692
0
LINE
8
BLACK
6
CONTINUOUS
10
8.90581
20
-2.82692
11
8.90582
21
-2.82687
0
LINE
8
BLACK
6
CONTINUOUS
10
8.90582
20
-2.82687
11
8.90582
21
-2.82683
0
LINE
8
BLACK
6
CONTINUOUS
10
8.90582
20
-2.82683
11
8.91621
21
-2.772
0
LINE
8
BLACK
6
CONTINUOUS
10
8.91621
20
-2.772
11
8.91622
21
-2.77198
0
LINE
8
BLACK
6
CONTINUOUS
10
8.91622
20
-2.77198
11
8.91623
21
-2.77193
0
LINE
8
BLACK
6
CONTINUOUS
10
8.91623
20
-2.77193
11
8.91624
21
-2.77189
0
LINE
8
BLACK
6
CONTINUOUS
10
8.91624
20
-2.77189
11
8.93268
21
-2.71856
0
LINE
8
BLACK
6
CONTINUOUS
10
8.93268
20
-2.71856
11
8.93268
21
-2.71854
0
LINE
8
BLACK
6
CONTINUOUS
10
8.93268
20
-2.71854
11
8.9327
21
-2.7185
0
LINE
8
BLACK
6
CONTINUOUS
10
8.9327
20
-2.7185
11
8.93272
21
-2.71845
0
LINE
8
BLACK
6
CONTINUOUS
10
8.93272
20
-2.71845
11
8.955
21
-2.66729
0
LINE
8
BLACK
6
CONTINUOUS
10
8.955
20
-2.66729
11
8.955
21
-2.66727
0
LINE
8
BLACK
6
CONTINUOUS
10
8.955
20
-2.66727
11
8.95503
21
-2.66723
0
LINE
8
BLACK
6
CONTINUOUS
10
8.95503
20
-2.66723
11
8.95505
21
-2.66719
0
LINE
8
BLACK
6
CONTINUOUS
10
8.95505
20
-2.66719
11
8.98289
21
-2.61882
0
LINE
8
BLACK
6
CONTINUOUS
10
8.98289
20
-2.61882
11
8.9829
21
-2.61881
0
LINE
8
BLACK
6
CONTINUOUS
10
8.9829
20
-2.61881
11
8.98293
21
-2.61877
0
LINE
8
BLACK
6
CONTINUOUS
10
8.98293
20
-2.61877
11
8.98295
21
-2.61873
0
LINE
8
BLACK
6
CONTINUOUS
10
8.98295
20
-2.61873
11
9.01601
21
-2.57377
0
LINE
8
BLACK
6
CONTINUOUS
10
9.01601
20
-2.57377
11
9.01602
21
-2.57376
0
LINE
8
BLACK
6
CONTINUOUS
10
9.01602
20
-2.57376
11
9.01605
21
-2.57372
0
LINE
8
BLACK
6
CONTINUOUS
10
9.01605
20
-2.57372
11
9.01608
21
-2.57368
0
LINE
8
BLACK
6
CONTINUOUS
10
9.01608
20
-2.57368
11
9.05395
21
-2.53269
0
LINE
8
BLACK
6
CONTINUOUS
10
9.05395
20
-2.53269
11
9.05396
21
-2.53268
0
LINE
8
BLACK
6
CONTINUOUS
10
9.05396
20
-2.53268
11
9.054
21
-2.53265
0
LINE
8
BLACK
6
CONTINUOUS
10
9.054
20
-2.53265
11
9.05403
21
-2.53261
0
LINE
8
BLACK
6
CONTINUOUS
10
9.05403
20
-2.53261
11
9.09623
21
-2.4961
0
LINE
8
BLACK
6
CONTINUOUS
10
9.09623
20
-2.4961
11
9.09624
21
-2.49609
0
LINE
8
BLACK
6
CONTINUOUS
10
9.09624
20
-2.49609
11
9.09628
21
-2.49606
0
LINE
8
BLACK
6
CONTINUOUS
10
9.09628
20
-2.49606
11
9.09632
21
-2.49603
0
LINE
8
BLACK
6
CONTINUOUS
10
9.09632
20
-2.49603
11
9.14233
21
-2.46444
0
LINE
8
BLACK
6
CONTINUOUS
10
9.14233
20
-2.46444
11
9.14234
21
-2.46444
0
LINE
8
BLACK
6
CONTINUOUS
10
9.14234
20
-2.46444
11
9.14238
21
-2.46442
0
LINE
8
BLACK
6
CONTINUOUS
10
9.14238
20
-2.46442
11
9.14241
21
-2.4644
0
LINE
8
BLACK
6
CONTINUOUS
10
9.14241
20
-2.4644
11
9.17364
21
-2.44694
0
LINE
8
BLACK
6
CONTINUOUS
10
9.17364
20
-2.44694
11
9.2789
21
-2.20498
0
LINE
8
BLACK
6
CONTINUOUS
10
9.2789
20
-2.20498
11
9.27897
21
-2.20485
0
LINE
8
BLACK
6
CONTINUOUS
10
9.27897
20
-2.20485
11
9.27899
21
-2.20483
0
LINE
8
BLACK
6
CONTINUOUS
10
9.27899
20
-2.20483
11
9.38773
21
-1.91348
0
LINE
8
BLACK
6
CONTINUOUS
10
9.38773
20
-1.91348
11
9.10793
21
-1.86882
0
LINE
8
BLACK
6
CONTINUOUS
10
9.10793
20
-1.86882
11
9.07141
21
-1.96764
0
LINE
8
BLACK
6
CONTINUOUS
10
9.01698
20
-3.65925
11
9.01698
21
-3.65925
0
LINE
8
BLACK
6
CONTINUOUS
10
9.01698
20
-3.65925
11
9.01712
21
-3.65927
0
LINE
8
BLACK
6
CONTINUOUS
10
9.01712
20
-3.65927
11
9.01731
21
-3.65932
0
LINE
8
BLACK
6
CONTINUOUS
10
9.01731
20
-3.65932
11
9.01748
21
-3.65941
0
LINE
8
BLACK
6
CONTINUOUS
10
9.01748
20
-3.65941
11
9.01763
21
-3.65954
0
LINE
8
BLACK
6
CONTINUOUS
10
9.01763
20
-3.65954
11
9.01775
21
-3.65969
0
LINE
8
BLACK
6
CONTINUOUS
10
9.01775
20
-3.65969
11
9.01784
21
-3.65986
0
LINE
8
BLACK
6
CONTINUOUS
10
9.01784
20
-3.65986
11
9.0179
21
-3.66004
0
LINE
8
BLACK
6
CONTINUOUS
10
9.0179
20
-3.66004
11
9.01792
21
-3.66024
0
LINE
8
BLACK
6
CONTINUOUS
10
9.01792
20
-3.66024
11
9.01791
21
-3.66028
0
LINE
8
BLACK
6
CONTINUOUS
10
9.01791
20
-3.66028
11
9.01791
21
-3.73893
0
LINE
8
BLACK
6
CONTINUOUS
10
9.01791
20
-3.73893
11
9.01792
21
-3.73898
0
LINE
8
BLACK
6
CONTINUOUS
10
9.01792
20
-3.73898
11
9.01791
21
-3.73902
0
LINE
8
BLACK
6
CONTINUOUS
10
9.01791
20
-3.73902
11
9.01791
21
-3.73902
0
LINE
8
BLACK
6
CONTINUOUS
10
9.01791
20
-3.73902
11
9.0179
21
-3.73917
0
LINE
8
BLACK
6
CONTINUOUS
10
9.0179
20
-3.73917
11
9.01784
21
-3.73935
0
LINE
8
BLACK
6
CONTINUOUS
10
9.01784
20
-3.73935
11
9.01775
21
-3.73953
0
LINE
8
BLACK
6
CONTINUOUS
10
9.01775
20
-3.73953
11
9.01763
21
-3.73968
0
LINE
8
BLACK
6
CONTINUOUS
10
9.01763
20
-3.73968
11
9.01748
21
-3.7398
0
LINE
8
BLACK
6
CONTINUOUS
10
9.01748
20
-3.7398
11
9.01731
21
-3.73989
0
LINE
8
BLACK
6
CONTINUOUS
10
9.01731
20
-3.73989
11
9.01712
21
-3.73995
0
LINE
8
BLACK
6
CONTINUOUS
10
9.01712
20
-3.73995
11
9.01693
21
-3.73997
0
LINE
8
BLACK
6
CONTINUOUS
10
9.01693
20
-3.73997
11
9.01688
21
-3.73996
0
LINE
8
BLACK
6
CONTINUOUS
10
9.01688
20
-3.73996
11
8.03273
21
-3.73996
0
LINE
8
BLACK
6
CONTINUOUS
10
8.03273
20
-3.73996
11
8.03268
21
-3.73997
0
LINE
8
BLACK
6
CONTINUOUS
10
8.03268
20
-3.73997
11
8.03248
21
-3.73995
0
LINE
8
BLACK
6
CONTINUOUS
10
8.03248
20
-3.73995
11
8.0323
21
-3.73989
0
LINE
8
BLACK
6
CONTINUOUS
10
8.0323
20
-3.73989
11
8.03213
21
-3.7398
0
LINE
8
BLACK
6
CONTINUOUS
10
8.03213
20
-3.7398
11
8.03198
21
-3.73968
0
LINE
8
BLACK
6
CONTINUOUS
10
8.03198
20
-3.73968
11
8.03185
21
-3.73953
0
LINE
8
BLACK
6
CONTINUOUS
10
8.03185
20
-3.73953
11
8.03176
21
-3.73935
0
LINE
8
BLACK
6
CONTINUOUS
10
8.03176
20
-3.73935
11
8.03171
21
-3.73917
0
LINE
8
BLACK
6
CONTINUOUS
10
8.03171
20
-3.73917
11
8.03169
21
-3.73898
0
LINE
8
BLACK
6
CONTINUOUS
10
8.03169
20
-3.73898
11
8.03169
21
-3.73893
0
LINE
8
BLACK
6
CONTINUOUS
10
8.03169
20
-3.73893
11
8.03169
21
-3.66028
0
LINE
8
BLACK
6
CONTINUOUS
10
8.03169
20
-3.66028
11
8.03169
21
-3.66024
0
LINE
8
BLACK
6
CONTINUOUS
10
8.03169
20
-3.66024
11
8.03171
21
-3.66004
0
LINE
8
BLACK
6
CONTINUOUS
10
8.03171
20
-3.66004
11
8.03176
21
-3.65986
0
LINE
8
BLACK
6
CONTINUOUS
10
8.03176
20
-3.65986
11
8.03185
21
-3.65969
0
LINE
8
BLACK
6
CONTINUOUS
10
8.03185
20
-3.65969
11
8.03198
21
-3.65954
0
LINE
8
BLACK
6
CONTINUOUS
10
8.03198
20
-3.65954
11
8.03213
21
-3.65941
0
LINE
8
BLACK
6
CONTINUOUS
10
8.03213
20
-3.65941
11
8.0323
21
-3.65932
0
LINE
8
BLACK
6
CONTINUOUS
10
8.0323
20
-3.65932
11
8.03248
21
-3.65927
0
LINE
8
BLACK
6
CONTINUOUS
10
8.03248
20
-3.65927
11
8.03263
21
-3.65925
0
LINE
8
BLACK
6
CONTINUOUS
10
8.03263
20
-3.65925
11
8.03263
21
-3.65925
0
LINE
8
BLACK
6
CONTINUOUS
10
8.03263
20
-3.65925
11
8.03268
21
-3.65925
0
LINE
8
BLACK
6
CONTINUOUS
10
8.03268
20
-3.65925
11
8.03273
21
-3.65925
0
LINE
8
BLACK
6
CONTINUOUS
10
8.03273
20
-3.65925
11
9.01688
21
-3.65925
0
LINE
8
BLACK
6
CONTINUOUS
10
9.01688
20
-3.65925
11
9.01693
21
-3.65925
0
LINE
8
BLACK
6
CONTINUOUS
10
9.01693
20
-3.65925
11
9.01698
21
-3.65925
0
LINE
8
BLACK
6
CONTINUOUS
10
8.03366
20
-3.66122
11
8.03366
21
-3.73799
0
LINE
8
BLACK
6
CONTINUOUS
10
8.03366
20
-3.73799
11
9.01594
21
-3.73799
0
LINE
8
BLACK
6
CONTINUOUS
10
9.01594
20
-3.73799
11
9.01594
21
-3.66122
0
LINE
8
BLACK
6
CONTINUOUS
10
9.01594
20
-3.66122
11
8.03366
21
-3.66122
0
LINE
8
BLACK
6
CONTINUOUS
10
9.01698
20
-2.04508
11
9.01698
21
-2.04508
0
LINE
8
BLACK
6
CONTINUOUS
10
9.01698
20
-2.04508
11
9.01712
21
-2.04509
0
LINE
8
BLACK
6
CONTINUOUS
10
9.01712
20
-2.04509
11
9.01731
21
-2.04515
0
LINE
8
BLACK
6
CONTINUOUS
10
9.01731
20
-2.04515
11
9.01748
21
-2.04524
0
LINE
8
BLACK
6
CONTINUOUS
10
9.01748
20
-2.04524
11
9.01763
21
-2.04536
0
LINE
8
BLACK
6
CONTINUOUS
10
9.01763
20
-2.04536
11
9.01775
21
-2.04551
0
LINE
8
BLACK
6
CONTINUOUS
10
9.01775
20
-2.04551
11
9.01784
21
-2.04568
0
LINE
8
BLACK
6
CONTINUOUS
10
9.01784
20
-2.04568
11
9.0179
21
-2.04587
0
LINE
8
BLACK
6
CONTINUOUS
10
9.0179
20
-2.04587
11
9.01792
21
-2.04606
0
LINE
8
BLACK
6
CONTINUOUS
10
9.01792
20
-2.04606
11
9.01791
21
-2.04611
0
LINE
8
BLACK
6
CONTINUOUS
10
9.01791
20
-2.04611
11
9.01791
21
-2.12476
0
LINE
8
BLACK
6
CONTINUOUS
10
9.01791
20
-2.12476
11
9.01792
21
-2.1248
0
LINE
8
BLACK
6
CONTINUOUS
10
9.01792
20
-2.1248
11
9.01791
21
-2.12485
0
LINE
8
BLACK
6
CONTINUOUS
10
9.01791
20
-2.12485
11
9.01791
21
-2.12485
0
LINE
8
BLACK
6
CONTINUOUS
10
9.01791
20
-2.12485
11
9.0179
21
-2.125
0
LINE
8
BLACK
6
CONTINUOUS
10
9.0179
20
-2.125
11
9.01784
21
-2.12518
0
LINE
8
BLACK
6
CONTINUOUS
10
9.01784
20
-2.12518
11
9.01775
21
-2.12535
0
LINE
8
BLACK
6
CONTINUOUS
10
9.01775
20
-2.12535
11
9.01763
21
-2.1255
0
LINE
8
BLACK
6
CONTINUOUS
10
9.01763
20
-2.1255
11
9.01748
21
-2.12563
0
LINE
8
BLACK
6
CONTINUOUS
10
9.01748
20
-2.12563
11
9.01731
21
-2.12572
0
LINE
8
BLACK
6
CONTINUOUS
10
9.01731
20
-2.12572
11
9.01712
21
-2.12577
0
LINE
8
BLACK
6
CONTINUOUS
10
9.01712
20
-2.12577
11
9.01693
21
-2.12579
0
LINE
8
BLACK
6
CONTINUOUS
10
9.01693
20
-2.12579
11
9.01688
21
-2.12579
0
LINE
8
BLACK
6
CONTINUOUS
10
9.01688
20
-2.12579
11
8.03273
21
-2.12579
0
LINE
8
BLACK
6
CONTINUOUS
10
8.03273
20
-2.12579
11
8.03268
21
-2.12579
0
LINE
8
BLACK
6
CONTINUOUS
10
8.03268
20
-2.12579
11
8.03248
21
-2.12577
0
LINE
8
BLACK
6
CONTINUOUS
10
8.03248
20
-2.12577
11
8.0323
21
-2.12572
0
LINE
8
BLACK
6
CONTINUOUS
10
8.0323
20
-2.12572
11
8.03213
21
-2.12563
0
LINE
8
BLACK
6
CONTINUOUS
10
8.03213
20
-2.12563
11
8.03198
21
-2.1255
0
LINE
8
BLACK
6
CONTINUOUS
10
8.03198
20
-2.1255
11
8.03185
21
-2.12535
0
LINE
8
BLACK
6
CONTINUOUS
10
8.03185
20
-2.12535
11
8.03176
21
-2.12518
0
LINE
8
BLACK
6
CONTINUOUS
10
8.03176
20
-2.12518
11
8.03171
21
-2.125
0
LINE
8
BLACK
6
CONTINUOUS
10
8.03171
20
-2.125
11
8.03169
21
-2.1248
0
LINE
8
BLACK
6
CONTINUOUS
10
8.03169
20
-2.1248
11
8.03169
21
-2.12476
0
LINE
8
BLACK
6
CONTINUOUS
10
8.03169
20
-2.12476
11
8.03169
21
-2.04611
0
LINE
8
BLACK
6
CONTINUOUS
10
8.03169
20
-2.04611
11
8.03169
21
-2.04606
0
LINE
8
BLACK
6
CONTINUOUS
10
8.03169
20
-2.04606
11
8.03171
21
-2.04587
0
LINE
8
BLACK
6
CONTINUOUS
10
8.03171
20
-2.04587
11
8.03176
21
-2.04568
0
LINE
8
BLACK
6
CONTINUOUS
10
8.03176
20
-2.04568
11
8.03185
21
-2.04551
0
LINE
8
BLACK
6
CONTINUOUS
10
8.03185
20
-2.04551
11
8.03198
21
-2.04536
0
LINE
8
BLACK
6
CONTINUOUS
10
8.03198
20
-2.04536
11
8.03213
21
-2.04524
0
LINE
8
BLACK
6
CONTINUOUS
10
8.03213
20
-2.04524
11
8.0323
21
-2.04515
0
LINE
8
BLACK
6
CONTINUOUS
10
8.0323
20
-2.04515
11
8.03248
21
-2.04509
0
LINE
8
BLACK
6
CONTINUOUS
10
8.03248
20
-2.04509
11
8.03263
21
-2.04508
0
LINE
8
BLACK
6
CONTINUOUS
10
8.03263
20
-2.04508
11
8.03263
21
-2.04508
0
LINE
8
BLACK
6
CONTINUOUS
10
8.03263
20
-2.04508
11
8.03268
21
-2.04507
0
LINE
8
BLACK
6
CONTINUOUS
10
8.03268
20
-2.04507
11
8.03273
21
-2.04508
0
LINE
8
BLACK
6
CONTINUOUS
10
8.03273
20
-2.04508
11
9.01688
21
-2.04508
0
LINE
8
BLACK
6
CONTINUOUS
10
9.01688
20
-2.04508
11
9.01693
21
-2.04507
0
LINE
8
BLACK
6
CONTINUOUS
10
9.01693
20
-2.04507
11
9.01698
21
-2.04508
0
LINE
8
BLACK
6
CONTINUOUS
10
8.03366
20
-2.04705
11
8.03366
21
-2.12382
0
LINE
8
BLACK
6
CONTINUOUS
10
8.03366
20
-2.12382
11
9.01594
21
-2.12382
0
LINE
8
BLACK
6
CONTINUOUS
10
9.01594
20
-2.12382
11
9.01594
21
-2.04705
0
LINE
8
BLACK
6
CONTINUOUS
10
9.01594
20
-2.04705
11
8.03366
21
-2.04705
0
LINE
8
BLACK
6
CONTINUOUS
10
7.75842
20
-3.78989
11
7.76259
21
-3.77982
0
LINE
8
BLACK
6
CONTINUOUS
10
7.76259
20
-3.77982
11
7.76865
21
-3.77075
0
LINE
8
BLACK
6
CONTINUOUS
10
7.76865
20
-3.77075
11
7.77636
21
-3.76304
0
LINE
8
BLACK
6
CONTINUOUS
10
7.77636
20
-3.76304
11
7.78543
21
-3.75698
0
LINE
8
BLACK
6
CONTINUOUS
10
7.78543
20
-3.75698
11
7.7955
21
-3.75281
0
LINE
8
BLACK
6
CONTINUOUS
10
7.7955
20
-3.75281
11
7.8062
21
-3.75068
0
LINE
8
BLACK
6
CONTINUOUS
10
7.8062
20
-3.75068
11
7.8171
21
-3.75068
0
LINE
8
BLACK
6
CONTINUOUS
10
7.8171
20
-3.75068
11
7.8278
21
-3.75281
0
LINE
8
BLACK
6
CONTINUOUS
10
7.8278
20
-3.75281
11
7.83787
21
-3.75698
0
LINE
8
BLACK
6
CONTINUOUS
10
7.83787
20
-3.75698
11
7.84694
21
-3.76304
0
LINE
8
BLACK
6
CONTINUOUS
10
7.84694
20
-3.76304
11
7.85465
21
-3.77075
0
LINE
8
BLACK
6
CONTINUOUS
10
7.85465
20
-3.77075
11
7.8607
21
-3.77982
0
LINE
8
BLACK
6
CONTINUOUS
10
7.8607
20
-3.77982
11
7.86488
21
-3.78989
0
LINE
8
BLACK
6
CONTINUOUS
10
7.86488
20
-3.78989
11
7.867
21
-3.80058
0
LINE
8
BLACK
6
CONTINUOUS
10
7.867
20
-3.80058
11
7.867
21
-3.81149
0
LINE
8
BLACK
6
CONTINUOUS
10
7.867
20
-3.81149
11
7.86488
21
-3.82218
0
LINE
8
BLACK
6
CONTINUOUS
10
7.86488
20
-3.82218
11
7.8607
21
-3.83226
0
LINE
8
BLACK
6
CONTINUOUS
10
7.8607
20
-3.83226
11
7.85465
21
-3.84132
0
LINE
8
BLACK
6
CONTINUOUS
10
7.85465
20
-3.84132
11
7.84694
21
-3.84903
0
LINE
8
BLACK
6
CONTINUOUS
10
7.84694
20
-3.84903
11
7.83787
21
-3.85509
0
LINE
8
BLACK
6
CONTINUOUS
10
7.83787
20
-3.85509
11
7.8278
21
-3.85927
0
LINE
8
BLACK
6
CONTINUOUS
10
7.8278
20
-3.85927
11
7.8171
21
-3.86139
0
LINE
8
BLACK
6
CONTINUOUS
10
7.8171
20
-3.86139
11
7.8062
21
-3.86139
0
LINE
8
BLACK
6
CONTINUOUS
10
7.8062
20
-3.86139
11
7.7955
21
-3.85927
0
LINE
8
BLACK
6
CONTINUOUS
10
7.7955
20
-3.85927
11
7.78543
21
-3.85509
0
LINE
8
BLACK
6
CONTINUOUS
10
7.78543
20
-3.85509
11
7.77636
21
-3.84903
0
LINE
8
BLACK
6
CONTINUOUS
10
7.77636
20
-3.84903
11
7.76865
21
-3.84132
0
LINE
8
BLACK
6
CONTINUOUS
10
7.76865
20
-3.84132
11
7.76259
21
-3.83226
0
LINE
8
BLACK
6
CONTINUOUS
10
7.76259
20
-3.83226
11
7.75842
21
-3.82218
0
LINE
8
BLACK
6
CONTINUOUS
10
7.75842
20
-3.82218
11
7.75629
21
-3.81149
0
LINE
8
BLACK
6
CONTINUOUS
10
7.75629
20
-3.81149
11
7.75629
21
-3.80058
0
LINE
8
BLACK
6
CONTINUOUS
10
7.75629
20
-3.80058
11
7.75842
21
-3.78989
0
LINE
8
BLACK
6
CONTINUOUS
10
7.76106
20
-3.82138
11
7.76502
21
-3.83096
0
LINE
8
BLACK
6
CONTINUOUS
10
7.76502
20
-3.83096
11
7.77078
21
-3.83958
0
LINE
8
BLACK
6
CONTINUOUS
10
7.77078
20
-3.83958
11
7.77811
21
-3.8469
0
LINE
8
BLACK
6
CONTINUOUS
10
7.77811
20
-3.8469
11
7.78673
21
-3.85266
0
LINE
8
BLACK
6
CONTINUOUS
10
7.78673
20
-3.85266
11
7.7963
21
-3.85663
0
LINE
8
BLACK
6
CONTINUOUS
10
7.7963
20
-3.85663
11
7.80647
21
-3.85865
0
LINE
8
BLACK
6
CONTINUOUS
10
7.80647
20
-3.85865
11
7.81683
21
-3.85865
0
LINE
8
BLACK
6
CONTINUOUS
10
7.81683
20
-3.85865
11
7.827
21
-3.85663
0
LINE
8
BLACK
6
CONTINUOUS
10
7.827
20
-3.85663
11
7.83657
21
-3.85266
0
LINE
8
BLACK
6
CONTINUOUS
10
7.83657
20
-3.85266
11
7.84519
21
-3.8469
0
LINE
8
BLACK
6
CONTINUOUS
10
7.84519
20
-3.8469
11
7.85252
21
-3.83958
0
LINE
8
BLACK
6
CONTINUOUS
10
7.85252
20
-3.83958
11
7.85827
21
-3.83096
0
LINE
8
BLACK
6
CONTINUOUS
10
7.85827
20
-3.83096
11
7.86224
21
-3.82138
0
LINE
8
BLACK
6
CONTINUOUS
10
7.86224
20
-3.82138
11
7.86426
21
-3.81122
0
LINE
8
BLACK
6
CONTINUOUS
10
7.86426
20
-3.81122
11
7.86426
21
-3.80085
0
LINE
8
BLACK
6
CONTINUOUS
10
7.86426
20
-3.80085
11
7.86224
21
-3.79069
0
LINE
8
BLACK
6
CONTINUOUS
10
7.86224
20
-3.79069
11
7.85827
21
-3.78112
0
LINE
8
BLACK
6
CONTINUOUS
10
7.85827
20
-3.78112
11
7.85252
21
-3.7725
0
LINE
8
BLACK
6
CONTINUOUS
10
7.85252
20
-3.7725
11
7.84519
21
-3.76517
0
LINE
8
BLACK
6
CONTINUOUS
10
7.84519
20
-3.76517
11
7.83657
21
-3.75941
0
LINE
8
BLACK
6
CONTINUOUS
10
7.83657
20
-3.75941
11
7.827
21
-3.75545
0
LINE
8
BLACK
6
CONTINUOUS
10
7.827
20
-3.75545
11
7.81683
21
-3.75342
0
LINE
8
BLACK
6
CONTINUOUS
10
7.81683
20
-3.75342
11
7.80647
21
-3.75342
0
LINE
8
BLACK
6
CONTINUOUS
10
7.80647
20
-3.75342
11
7.7963
21
-3.75545
0
LINE
8
BLACK
6
CONTINUOUS
10
7.7963
20
-3.75545
11
7.78673
21
-3.75941
0
LINE
8
BLACK
6
CONTINUOUS
10
7.78673
20
-3.75941
11
7.77811
21
-3.76517
0
LINE
8
BLACK
6
CONTINUOUS
10
7.77811
20
-3.76517
11
7.77078
21
-3.7725
0
LINE
8
BLACK
6
CONTINUOUS
10
7.77078
20
-3.7725
11
7.76502
21
-3.78112
0
LINE
8
BLACK
6
CONTINUOUS
10
7.76502
20
-3.78112
11
7.76106
21
-3.79069
0
LINE
8
BLACK
6
CONTINUOUS
10
7.76106
20
-3.79069
11
7.75904
21
-3.80085
0
LINE
8
BLACK
6
CONTINUOUS
10
7.75904
20
-3.80085
11
7.75904
21
-3.81122
0
LINE
8
BLACK
6
CONTINUOUS
10
7.75904
20
-3.81122
11
7.76106
21
-3.82138
0
LINE
8
BLACK
6
CONTINUOUS
10
9.1852
20
-3.78961
11
9.18937
21
-3.77953
0
LINE
8
BLACK
6
CONTINUOUS
10
9.18937
20
-3.77953
11
9.19543
21
-3.77047
0
LINE
8
BLACK
6
CONTINUOUS
10
9.19543
20
-3.77047
11
9.20314
21
-3.76276
0
LINE
8
BLACK
6
CONTINUOUS
10
9.20314
20
-3.76276
11
9.2122
21
-3.7567
0
LINE
8
BLACK
6
CONTINUOUS
10
9.2122
20
-3.7567
11
9.22228
21
-3.75253
0
LINE
8
BLACK
6
CONTINUOUS
10
9.22228
20
-3.75253
11
9.23297
21
-3.7504
0
LINE
8
BLACK
6
CONTINUOUS
10
9.23297
20
-3.7504
11
9.24388
21
-3.7504
0
LINE
8
BLACK
6
CONTINUOUS
10
9.24388
20
-3.7504
11
9.25457
21
-3.75253
0
LINE
8
BLACK
6
CONTINUOUS
10
9.25457
20
-3.75253
11
9.26465
21
-3.7567
0
LINE
8
BLACK
6
CONTINUOUS
10
9.26465
20
-3.7567
11
9.27371
21
-3.76276
0
LINE
8
BLACK
6
CONTINUOUS
10
9.27371
20
-3.76276
11
9.28142
21
-3.77047
0
LINE
8
BLACK
6
CONTINUOUS
10
9.28142
20
-3.77047
11
9.28748
21
-3.77953
0
LINE
8
BLACK
6
CONTINUOUS
10
9.28748
20
-3.77953
11
9.29165
21
-3.78961
0
LINE
8
BLACK
6
CONTINUOUS
10
9.29165
20
-3.78961
11
9.29378
21
-3.8003
0
LINE
8
BLACK
6
CONTINUOUS
10
9.29378
20
-3.8003
11
9.29378
21
-3.81121
0
LINE
8
BLACK
6
CONTINUOUS
10
9.29378
20
-3.81121
11
9.29165
21
-3.8219
0
LINE
8
BLACK
6
CONTINUOUS
10
9.29165
20
-3.8219
11
9.28748
21
-3.83198
0
LINE
8
BLACK
6
CONTINUOUS
10
9.28748
20
-3.83198
11
9.28142
21
-3.84104
0
LINE
8
BLACK
6
CONTINUOUS
10
9.28142
20
-3.84104
11
9.27371
21
-3.84875
0
LINE
8
BLACK
6
CONTINUOUS
10
9.27371
20
-3.84875
11
9.26465
21
-3.85481
0
LINE
8
BLACK
6
CONTINUOUS
10
9.26465
20
-3.85481
11
9.25457
21
-3.85898
0
LINE
8
BLACK
6
CONTINUOUS
10
9.25457
20
-3.85898
11
9.24388
21
-3.86111
0
LINE
8
BLACK
6
CONTINUOUS
10
9.24388
20
-3.86111
11
9.23297
21
-3.86111
0
LINE
8
BLACK
6
CONTINUOUS
10
9.23297
20
-3.86111
11
9.22228
21
-3.85898
0
LINE
8
BLACK
6
CONTINUOUS
10
9.22228
20
-3.85898
11
9.2122
21
-3.85481
0
LINE
8
BLACK
6
CONTINUOUS
10
9.2122
20
-3.85481
11
9.20314
21
-3.84875
0
LINE
8
BLACK
6
CONTINUOUS
10
9.20314
20
-3.84875
11
9.19543
21
-3.84104
0
LINE
8
BLACK
6
CONTINUOUS
10
9.19543
20
-3.84104
11
9.18937
21
-3.83198
0
LINE
8
BLACK
6
CONTINUOUS
10
9.18937
20
-3.83198
11
9.1852
21
-3.8219
0
LINE
8
BLACK
6
CONTINUOUS
10
9.1852
20
-3.8219
11
9.18307
21
-3.81121
0
LINE
8
BLACK
6
CONTINUOUS
10
9.18307
20
-3.81121
11
9.18307
21
-3.8003
0
LINE
8
BLACK
6
CONTINUOUS
10
9.18307
20
-3.8003
11
9.1852
21
-3.78961
0
LINE
8
BLACK
6
CONTINUOUS
10
9.18783
20
-3.8211
11
9.1918
21
-3.83068
0
LINE
8
BLACK
6
CONTINUOUS
10
9.1918
20
-3.83068
11
9.19756
21
-3.83929
0
LINE
8
BLACK
6
CONTINUOUS
10
9.19756
20
-3.83929
11
9.20489
21
-3.84662
0
LINE
8
BLACK
6
CONTINUOUS
10
9.20489
20
-3.84662
11
9.2135
21
-3.85238
0
LINE
8
BLACK
6
CONTINUOUS
10
9.2135
20
-3.85238
11
9.22308
21
-3.85635
0
LINE
8
BLACK
6
CONTINUOUS
10
9.22308
20
-3.85635
11
9.23324
21
-3.85837
0
LINE
8
BLACK
6
CONTINUOUS
10
9.23324
20
-3.85837
11
9.24361
21
-3.85837
0
LINE
8
BLACK
6
CONTINUOUS
10
9.24361
20
-3.85837
11
9.25377
21
-3.85635
0
LINE
8
BLACK
6
CONTINUOUS
10
9.25377
20
-3.85635
11
9.26335
21
-3.85238
0
LINE
8
BLACK
6
CONTINUOUS
10
9.26335
20
-3.85238
11
9.27196
21
-3.84662
0
LINE
8
BLACK
6
CONTINUOUS
10
9.27196
20
-3.84662
11
9.27929
21
-3.83929
0
LINE
8
BLACK
6
CONTINUOUS
10
9.27929
20
-3.83929
11
9.28505
21
-3.83068
0
LINE
8
BLACK
6
CONTINUOUS
10
9.28505
20
-3.83068
11
9.28902
21
-3.8211
0
LINE
8
BLACK
6
CONTINUOUS
10
9.28902
20
-3.8211
11
9.29104
21
-3.81094
0
LINE
8
BLACK
6
CONTINUOUS
10
9.29104
20
-3.81094
11
9.29104
21
-3.80057
0
LINE
8
BLACK
6
CONTINUOUS
10
9.29104
20
-3.80057
11
9.28902
21
-3.79041
0
LINE
8
BLACK
6
CONTINUOUS
10
9.28902
20
-3.79041
11
9.28505
21
-3.78083
0
LINE
8
BLACK
6
CONTINUOUS
10
9.28505
20
-3.78083
11
9.27929
21
-3.77222
0
LINE
8
BLACK
6
CONTINUOUS
10
9.27929
20
-3.77222
11
9.27196
21
-3.76489
0
LINE
8
BLACK
6
CONTINUOUS
10
9.27196
20
-3.76489
11
9.26335
21
-3.75913
0
LINE
8
BLACK
6
CONTINUOUS
10
9.26335
20
-3.75913
11
9.25377
21
-3.75516
0
LINE
8
BLACK
6
CONTINUOUS
10
9.25377
20
-3.75516
11
9.24361
21
-3.75314
0
LINE
8
BLACK
6
CONTINUOUS
10
9.24361
20
-3.75314
11
9.23324
21
-3.75314
0
LINE
8
BLACK
6
CONTINUOUS
10
9.23324
20
-3.75314
11
9.22308
21
-3.75516
0
LINE
8
BLACK
6
CONTINUOUS
10
9.22308
20
-3.75516
11
9.2135
21
-3.75913
0
LINE
8
BLACK
6
CONTINUOUS
10
9.2135
20
-3.75913
11
9.20489
21
-3.76489
0
LINE
8
BLACK
6
CONTINUOUS
10
9.20489
20
-3.76489
11
9.19756
21
-3.77222
0
LINE
8
BLACK
6
CONTINUOUS
10
9.19756
20
-3.77222
11
9.1918
21
-3.78083
0
LINE
8
BLACK
6
CONTINUOUS
10
9.1918
20
-3.78083
11
9.18783
21
-3.79041
0
LINE
8
BLACK
6
CONTINUOUS
10
9.18783
20
-3.79041
11
9.18581
21
-3.80057
0
LINE
8
BLACK
6
CONTINUOUS
10
9.18581
20
-3.80057
11
9.18581
21
-3.81094
0
LINE
8
BLACK
6
CONTINUOUS
10
9.18581
20
-3.81094
11
9.18783
21
-3.8211
0
LINE
8
BLACK
6
CONTINUOUS
10
7.75795
20
-1.96314
11
7.76213
21
-1.95306
0
LINE
8
BLACK
6
CONTINUOUS
10
7.76213
20
-1.95306
11
7.76818
21
-1.944
0
LINE
8
BLACK
6
CONTINUOUS
10
7.76818
20
-1.944
11
7.77589
21
-1.93629
0
LINE
8
BLACK
6
CONTINUOUS
10
7.77589
20
-1.93629
11
7.78496
21
-1.93023
0
LINE
8
BLACK
6
CONTINUOUS
10
7.78496
20
-1.93023
11
7.79503
21
-1.92606
0
LINE
8
BLACK
6
CONTINUOUS
10
7.79503
20
-1.92606
11
7.80573
21
-1.92393
0
LINE
8
BLACK
6
CONTINUOUS
10
7.80573
20
-1.92393
11
7.81663
21
-1.92393
0
LINE
8
BLACK
6
CONTINUOUS
10
7.81663
20
-1.92393
11
7.82733
21
-1.92606
0
LINE
8
BLACK
6
CONTINUOUS
10
7.82733
20
-1.92606
11
7.8374
21
-1.93023
0
LINE
8
BLACK
6
CONTINUOUS
10
7.8374
20
-1.93023
11
7.84647
21
-1.93629
0
LINE
8
BLACK
6
CONTINUOUS
10
7.84647
20
-1.93629
11
7.85418
21
-1.944
0
LINE
8
BLACK
6
CONTINUOUS
10
7.85418
20
-1.944
11
7.86024
21
-1.95306
0
LINE
8
BLACK
6
CONTINUOUS
10
7.86024
20
-1.95306
11
7.86441
21
-1.96314
0
LINE
8
BLACK
6
CONTINUOUS
10
7.86441
20
-1.96314
11
7.86654
21
-1.97383
0
LINE
8
BLACK
6
CONTINUOUS
10
7.86654
20
-1.97383
11
7.86654
21
-1.98474
0
LINE
8
BLACK
6
CONTINUOUS
10
7.86654
20
-1.98474
11
7.86441
21
-1.99543
0
LINE
8
BLACK
6
CONTINUOUS
10
7.86441
20
-1.99543
11
7.86024
21
-2.00551
0
LINE
8
BLACK
6
CONTINUOUS
10
7.86024
20
-2.00551
11
7.85418
21
-2.01457
0
LINE
8
BLACK
6
CONTINUOUS
10
7.85418
20
-2.01457
11
7.84647
21
-2.02228
0
LINE
8
BLACK
6
CONTINUOUS
10
7.84647
20
-2.02228
11
7.8374
21
-2.02834
0
LINE
8
BLACK
6
CONTINUOUS
10
7.8374
20
-2.02834
11
7.82733
21
-2.03251
0
LINE
8
BLACK
6
CONTINUOUS
10
7.82733
20
-2.03251
11
7.81663
21
-2.03464
0
LINE
8
BLACK
6
CONTINUOUS
10
7.81663
20
-2.03464
11
7.80573
21
-2.03464
0
LINE
8
BLACK
6
CONTINUOUS
10
7.80573
20
-2.03464
11
7.79503
21
-2.03251
0
LINE
8
BLACK
6
CONTINUOUS
10
7.79503
20
-2.03251
11
7.78496
21
-2.02834
0
LINE
8
BLACK
6
CONTINUOUS
10
7.78496
20
-2.02834
11
7.77589
21
-2.02228
0
LINE
8
BLACK
6
CONTINUOUS
10
7.77589
20
-2.02228
11
7.76818
21
-2.01457
0
LINE
8
BLACK
6
CONTINUOUS
10
7.76818
20
-2.01457
11
7.76213
21
-2.00551
0
LINE
8
BLACK
6
CONTINUOUS
10
7.76213
20
-2.00551
11
7.75795
21
-1.99543
0
LINE
8
BLACK
6
CONTINUOUS
10
7.75795
20
-1.99543
11
7.75583
21
-1.98474
0
LINE
8
BLACK
6
CONTINUOUS
10
7.75583
20
-1.98474
11
7.75583
21
-1.97383
0
LINE
8
BLACK
6
CONTINUOUS
10
7.75583
20
-1.97383
11
7.75795
21
-1.96314
0
LINE
8
BLACK
6
CONTINUOUS
10
7.76059
20
-1.99463
11
7.76456
21
-2.00421
0
LINE
8
BLACK
6
CONTINUOUS
10
7.76456
20
-2.00421
11
7.77031
21
-2.01282
0
LINE
8
BLACK
6
CONTINUOUS
10
7.77031
20
-2.01282
11
7.77764
21
-2.02015
0
LINE
8
BLACK
6
CONTINUOUS
10
7.77764
20
-2.02015
11
7.78626
21
-2.02591
0
LINE
8
BLACK
6
CONTINUOUS
10
7.78626
20
-2.02591
11
7.79583
21
-2.02988
0
LINE
8
BLACK
6
CONTINUOUS
10
7.79583
20
-2.02988
11
7.806
21
-2.0319
0
LINE
8
BLACK
6
CONTINUOUS
10
7.806
20
-2.0319
11
7.81636
21
-2.0319
0
LINE
8
BLACK
6
CONTINUOUS
10
7.81636
20
-2.0319
11
7.82653
21
-2.02988
0
LINE
8
BLACK
6
CONTINUOUS
10
7.82653
20
-2.02988
11
7.8361
21
-2.02591
0
LINE
8
BLACK
6
CONTINUOUS
10
7.8361
20
-2.02591
11
7.84472
21
-2.02015
0
LINE
8
BLACK
6
CONTINUOUS
10
7.84472
20
-2.02015
11
7.85205
21
-2.01282
0
LINE
8
BLACK
6
CONTINUOUS
10
7.85205
20
-2.01282
11
7.85781
21
-2.00421
0
LINE
8
BLACK
6
CONTINUOUS
10
7.85781
20
-2.00421
11
7.86177
21
-1.99463
0
LINE
8
BLACK
6
CONTINUOUS
10
7.86177
20
-1.99463
11
7.86379
21
-1.98447
0
LINE
8
BLACK
6
CONTINUOUS
10
7.86379
20
-1.98447
11
7.86379
21
-1.9741
0
LINE
8
BLACK
6
CONTINUOUS
10
7.86379
20
-1.9741
11
7.86177
21
-1.96394
0
LINE
8
BLACK
6
CONTINUOUS
10
7.86177
20
-1.96394
11
7.85781
21
-1.95436
0
LINE
8
BLACK
6
CONTINUOUS
10
7.85781
20
-1.95436
11
7.85205
21
-1.94575
0
LINE
8
BLACK
6
CONTINUOUS
10
7.85205
20
-1.94575
11
7.84472
21
-1.93842
0
LINE
8
BLACK
6
CONTINUOUS
10
7.84472
20
-1.93842
11
7.8361
21
-1.93266
0
LINE
8
BLACK
6
CONTINUOUS
10
7.8361
20
-1.93266
11
7.82653
21
-1.92869
0
LINE
8
BLACK
6
CONTINUOUS
10
7.82653
20
-1.92869
11
7.81636
21
-1.92667
0
LINE
8
BLACK
6
CONTINUOUS
10
7.81636
20
-1.92667
11
7.806
21
-1.92667
0
LINE
8
BLACK
6
CONTINUOUS
10
7.806
20
-1.92667
11
7.79583
21
-1.92869
0
LINE
8
BLACK
6
CONTINUOUS
10
7.79583
20
-1.92869
11
7.78626
21
-1.93266
0
LINE
8
BLACK
6
CONTINUOUS
10
7.78626
20
-1.93266
11
7.77764
21
-1.93842
0
LINE
8
BLACK
6
CONTINUOUS
10
7.77764
20
-1.93842
11
7.77031
21
-1.94575
0
LINE
8
BLACK
6
CONTINUOUS
10
7.77031
20
-1.94575
11
7.76456
21
-1.95436
0
LINE
8
BLACK
6
CONTINUOUS
10
7.76456
20
-1.95436
11
7.76059
21
-1.96394
0
LINE
8
BLACK
6
CONTINUOUS
10
7.76059
20
-1.96394
11
7.75857
21
-1.9741
0
LINE
8
BLACK
6
CONTINUOUS
10
7.75857
20
-1.9741
11
7.75857
21
-1.98447
0
LINE
8
BLACK
6
CONTINUOUS
10
7.75857
20
-1.98447
11
7.76059
21
-1.99463
0
LINE
8
BLACK
6
CONTINUOUS
10
9.18473
20
-1.96286
11
9.1889
21
-1.95278
0
LINE
8
BLACK
6
CONTINUOUS
10
9.1889
20
-1.95278
11
9.19496
21
-1.94372
0
LINE
8
BLACK
6
CONTINUOUS
10
9.19496
20
-1.94372
11
9.20267
21
-1.93601
0
LINE
8
BLACK
6
CONTINUOUS
10
9.20267
20
-1.93601
11
9.21174
21
-1.92995
0
LINE
8
BLACK
6
CONTINUOUS
10
9.21174
20
-1.92995
11
9.22181
21
-1.92577
0
LINE
8
BLACK
6
CONTINUOUS
10
9.22181
20
-1.92577
11
9.23251
21
-1.92365
0
LINE
8
BLACK
6
CONTINUOUS
10
9.23251
20
-1.92365
11
9.24341
21
-1.92365
0
LINE
8
BLACK
6
CONTINUOUS
10
9.24341
20
-1.92365
11
9.2541
21
-1.92577
0
LINE
8
BLACK
6
CONTINUOUS
10
9.2541
20
-1.92577
11
9.26418
21
-1.92995
0
LINE
8
BLACK
6
CONTINUOUS
10
9.26418
20
-1.92995
11
9.27324
21
-1.93601
0
LINE
8
BLACK
6
CONTINUOUS
10
9.27324
20
-1.93601
11
9.28095
21
-1.94372
0
LINE
8
BLACK
6
CONTINUOUS
10
9.28095
20
-1.94372
11
9.28701
21
-1.95278
0
LINE
8
BLACK
6
CONTINUOUS
10
9.28701
20
-1.95278
11
9.29119
21
-1.96286
0
LINE
8
BLACK
6
CONTINUOUS
10
9.29119
20
-1.96286
11
9.29331
21
-1.97355
0
LINE
8
BLACK
6
CONTINUOUS
10
9.29331
20
-1.97355
11
9.29331
21
-1.98445
0
LINE
8
BLACK
6
CONTINUOUS
10
9.29331
20
-1.98445
11
9.29119
21
-1.99515
0
LINE
8
BLACK
6
CONTINUOUS
10
9.29119
20
-1.99515
11
9.28701
21
-2.00522
0
LINE
8
BLACK
6
CONTINUOUS
10
9.28701
20
-2.00522
11
9.28095
21
-2.01429
0
LINE
8
BLACK
6
CONTINUOUS
10
9.28095
20
-2.01429
11
9.27324
21
-2.022
0
LINE
8
BLACK
6
CONTINUOUS
10
9.27324
20
-2.022
11
9.26418
21
-2.02806
0
LINE
8
BLACK
6
CONTINUOUS
10
9.26418
20
-2.02806
11
9.2541
21
-2.03223
0
LINE
8
BLACK
6
CONTINUOUS
10
9.2541
20
-2.03223
11
9.24341
21
-2.03436
0
LINE
8
BLACK
6
CONTINUOUS
10
9.24341
20
-2.03436
11
9.23251
21
-2.03436
0
LINE
8
BLACK
6
CONTINUOUS
10
9.23251
20
-2.03436
11
9.22181
21
-2.03223
0
LINE
8
BLACK
6
CONTINUOUS
10
9.22181
20
-2.03223
11
9.21174
21
-2.02806
0
LINE
8
BLACK
6
CONTINUOUS
10
9.21174
20
-2.02806
11
9.20267
21
-2.022
0
LINE
8
BLACK
6
CONTINUOUS
10
9.20267
20
-2.022
11
9.19496
21
-2.01429
0
LINE
8
BLACK
6
CONTINUOUS
10
9.19496
20
-2.01429
11
9.1889
21
-2.00522
0
LINE
8
BLACK
6
CONTINUOUS
10
9.1889
20
-2.00522
11
9.18473
21
-1.99515
0
LINE
8
BLACK
6
CONTINUOUS
10
9.18473
20
-1.99515
11
9.1826
21
-1.98445
0
LINE
8
BLACK
6
CONTINUOUS
10
9.1826
20
-1.98445
11
9.1826
21
-1.97355
0
LINE
8
BLACK
6
CONTINUOUS
10
9.1826
20
-1.97355
11
9.18473
21
-1.96286
0
LINE
8
BLACK
6
CONTINUOUS
10
9.18737
20
-1.99435
11
9.19133
21
-2.00392
0
LINE
8
BLACK
6
CONTINUOUS
10
9.19133
20
-2.00392
11
9.19709
21
-2.01254
0
LINE
8
BLACK
6
CONTINUOUS
10
9.19709
20
-2.01254
11
9.20442
21
-2.01987
0
LINE
8
BLACK
6
CONTINUOUS
10
9.20442
20
-2.01987
11
9.21304
21
-2.02563
0
LINE
8
BLACK
6
CONTINUOUS
10
9.21304
20
-2.02563
11
9.22261
21
-2.02959
0
LINE
8
BLACK
6
CONTINUOUS
10
9.22261
20
-2.02959
11
9.23278
21
-2.03162
0
LINE
8
BLACK
6
CONTINUOUS
10
9.23278
20
-2.03162
11
9.24314
21
-2.03162
0
LINE
8
BLACK
6
CONTINUOUS
10
9.24314
20
-2.03162
11
9.2533
21
-2.02959
0
LINE
8
BLACK
6
CONTINUOUS
10
9.2533
20
-2.02959
11
9.26288
21
-2.02563
0
LINE
8
BLACK
6
CONTINUOUS
10
9.26288
20
-2.02563
11
9.2715
21
-2.01987
0
LINE
8
BLACK
6
CONTINUOUS
10
9.2715
20
-2.01987
11
9.27882
21
-2.01254
0
LINE
8
BLACK
6
CONTINUOUS
10
9.27882
20
-2.01254
11
9.28458
21
-2.00392
0
LINE
8
BLACK
6
CONTINUOUS
10
9.28458
20
-2.00392
11
9.28855
21
-1.99435
0
LINE
8
BLACK
6
CONTINUOUS
10
9.28855
20
-1.99435
11
9.29057
21
-1.98418
0
LINE
8
BLACK
6
CONTINUOUS
10
9.29057
20
-1.98418
11
9.29057
21
-1.97382
0
LINE
8
BLACK
6
CONTINUOUS
10
9.29057
20
-1.97382
11
9.28855
21
-1.96366
0
LINE
8
BLACK
6
CONTINUOUS
10
9.28855
20
-1.96366
11
9.28458
21
-1.95408
0
LINE
8
BLACK
6
CONTINUOUS
10
9.28458
20
-1.95408
11
9.27882
21
-1.94546
0
LINE
8
BLACK
6
CONTINUOUS
10
9.27882
20
-1.94546
11
9.2715
21
-1.93814
0
LINE
8
BLACK
6
CONTINUOUS
10
9.2715
20
-1.93814
11
9.26288
21
-1.93238
0
LINE
8
BLACK
6
CONTINUOUS
10
9.26288
20
-1.93238
11
9.2533
21
-1.92841
0
LINE
8
BLACK
6
CONTINUOUS
10
9.2533
20
-1.92841
11
9.24314
21
-1.92639
0
LINE
8
BLACK
6
CONTINUOUS
10
9.24314
20
-1.92639
11
9.23278
21
-1.92639
0
LINE
8
BLACK
6
CONTINUOUS
10
9.23278
20
-1.92639
11
9.22261
21
-1.92841
0
LINE
8
BLACK
6
CONTINUOUS
10
9.22261
20
-1.92841
11
9.21304
21
-1.93238
0
LINE
8
BLACK
6
CONTINUOUS
10
9.21304
20
-1.93238
11
9.20442
21
-1.93814
0
LINE
8
BLACK
6
CONTINUOUS
10
9.20442
20
-1.93814
11
9.19709
21
-1.94546
0
LINE
8
BLACK
6
CONTINUOUS
10
9.19709
20
-1.94546
11
9.19133
21
-1.95408
0
LINE
8
BLACK
6
CONTINUOUS
10
9.19133
20
-1.95408
11
9.18737
21
-1.96366
0
LINE
8
BLACK
6
CONTINUOUS
10
9.18737
20
-1.96366
11
9.18534
21
-1.97382
0
LINE
8
BLACK
6
CONTINUOUS
10
9.18534
20
-1.97382
11
9.18534
21
-1.98418
0
LINE
8
BLACK
6
CONTINUOUS
10
9.18534
20
-1.98418
11
9.18737
21
-1.99435
  0
ENDSEC
  0
EOF
