G04 #@! TF.GenerationSoftware,KiCad,Pcbnew,5.1.4-1.fc30*
G04 #@! TF.CreationDate,2019-09-08T13:51:55+02:00*
G04 #@! TF.ProjectId,synchro2,73796e63-6872-46f3-922e-6b696361645f,rev?*
G04 #@! TF.SameCoordinates,Original*
G04 #@! TF.FileFunction,Legend,Top*
G04 #@! TF.FilePolarity,Positive*
%FSLAX46Y46*%
G04 Gerber Fmt 4.6, Leading zero omitted, Abs format (unit mm)*
G04 Created by KiCad (PCBNEW 5.1.4-1.fc30) date 2019-09-08 13:51:55*
%MOMM*%
%LPD*%
G04 APERTURE LIST*
%ADD10C,0.120000*%
%ADD11C,0.150000*%
G04 APERTURE END LIST*
D10*
X239100000Y-116300000D02*
G75*
G03X239100000Y-116300000I-20000000J0D01*
G01*
X219638516Y-116300000D02*
G75*
G03X219638516Y-116300000I-538516J0D01*
G01*
X222050000Y-121600000D02*
X217500000Y-121600000D01*
X217500000Y-121600000D02*
X217500000Y-124000000D01*
X217500000Y-124000000D02*
X222050000Y-124000000D01*
X222050000Y-124000000D02*
X222050000Y-121600000D01*
X222050000Y-122450000D02*
X222950000Y-121850000D01*
X222950000Y-121850000D02*
X223150000Y-121850000D01*
X222050000Y-123150000D02*
X222950000Y-123750000D01*
X222950000Y-123750000D02*
X223150000Y-123750000D01*
X222160000Y-114450000D02*
X222160000Y-118150000D01*
X216040000Y-114450000D02*
X222160000Y-114450000D01*
X216040000Y-118150000D02*
X216040000Y-114450000D01*
X222160000Y-118150000D02*
X216040000Y-118150000D01*
X219900000Y-103165000D02*
X217615000Y-103165000D01*
X217615000Y-103165000D02*
X217615000Y-104635000D01*
X217615000Y-104635000D02*
X219900000Y-104635000D01*
X224037221Y-106490000D02*
X224362779Y-106490000D01*
X224037221Y-107510000D02*
X224362779Y-107510000D01*
X224037221Y-102410000D02*
X224362779Y-102410000D01*
X224037221Y-101390000D02*
X224362779Y-101390000D01*
X224024721Y-110910000D02*
X224350279Y-110910000D01*
X224024721Y-109890000D02*
X224350279Y-109890000D01*
X219900000Y-106565000D02*
X217615000Y-106565000D01*
X217615000Y-106565000D02*
X217615000Y-108035000D01*
X217615000Y-108035000D02*
X219900000Y-108035000D01*
X229990000Y-125762779D02*
X229990000Y-125437221D01*
X231010000Y-125762779D02*
X231010000Y-125437221D01*
X224024721Y-105810000D02*
X224350279Y-105810000D01*
X224024721Y-104790000D02*
X224350279Y-104790000D01*
X217627500Y-102935000D02*
X219912500Y-102935000D01*
X217627500Y-101465000D02*
X217627500Y-102935000D01*
X219912500Y-101465000D02*
X217627500Y-101465000D01*
X217615000Y-106335000D02*
X219900000Y-106335000D01*
X217615000Y-104865000D02*
X217615000Y-106335000D01*
X219900000Y-104865000D02*
X217615000Y-104865000D01*
X224037221Y-103090000D02*
X224362779Y-103090000D01*
X224037221Y-104110000D02*
X224362779Y-104110000D01*
X219912500Y-99765000D02*
X217627500Y-99765000D01*
X217627500Y-99765000D02*
X217627500Y-101235000D01*
X217627500Y-101235000D02*
X219912500Y-101235000D01*
X224790000Y-125437221D02*
X224790000Y-125762779D01*
X225810000Y-125437221D02*
X225810000Y-125762779D01*
X222687221Y-111540000D02*
X223012779Y-111540000D01*
X222687221Y-112560000D02*
X223012779Y-112560000D01*
X202403949Y-108800000D02*
X203301974Y-107901974D01*
X203301974Y-109698026D02*
X202403949Y-108800000D01*
X207002214Y-110127290D02*
X207282986Y-109846518D01*
X206464813Y-109589888D02*
X206745584Y-109309117D01*
X213406530Y-103722973D02*
X209163890Y-107965614D01*
X212869129Y-103185572D02*
X213406530Y-103722973D01*
X208626488Y-107428213D02*
X212869129Y-103185572D01*
X206116259Y-108679792D02*
X207997163Y-106798888D01*
X205253589Y-108283812D02*
X205486934Y-108050467D01*
X204716188Y-107746411D02*
X204949533Y-107513066D01*
X207297128Y-106098852D02*
X211539768Y-101856211D01*
X207212275Y-106013999D02*
X211454916Y-101771359D01*
X207127422Y-105929146D02*
X211370063Y-101686506D01*
X207042569Y-105844294D02*
X211285210Y-101601653D01*
X206957716Y-105759441D02*
X211200357Y-101516800D01*
X206872864Y-105674588D02*
X211115504Y-101431947D01*
X211610479Y-101926922D02*
X207367838Y-106169563D01*
X211073078Y-101389521D02*
X211610479Y-101926922D01*
X206830437Y-105632162D02*
X211073078Y-101389521D01*
X206158686Y-104960410D02*
X204277782Y-106841314D01*
X209835641Y-108637365D02*
X206158686Y-104960410D01*
X207954737Y-110518269D02*
X209835641Y-108637365D01*
X204277782Y-106841314D02*
X207954737Y-110518269D01*
X224024721Y-109210000D02*
X224350279Y-109210000D01*
X224024721Y-108190000D02*
X224350279Y-108190000D01*
D11*
X227650000Y-121150000D02*
X227650000Y-115175000D01*
X234550000Y-119625000D02*
X234550000Y-115175000D01*
D10*
X217615000Y-109735000D02*
X219900000Y-109735000D01*
X217615000Y-108265000D02*
X217615000Y-109735000D01*
X219900000Y-108265000D02*
X217615000Y-108265000D01*
X210460000Y-118150000D02*
X204340000Y-118150000D01*
X204340000Y-118150000D02*
X204340000Y-114450000D01*
X204340000Y-114450000D02*
X210460000Y-114450000D01*
X210460000Y-114450000D02*
X210460000Y-118150000D01*
X229862779Y-129710000D02*
X229537221Y-129710000D01*
X229862779Y-128690000D02*
X229537221Y-128690000D01*
X227610000Y-125437221D02*
X227610000Y-125762779D01*
X226590000Y-125437221D02*
X226590000Y-125762779D01*
X217627500Y-99535000D02*
X219912500Y-99535000D01*
X217627500Y-98065000D02*
X217627500Y-99535000D01*
X219912500Y-98065000D02*
X217627500Y-98065000D01*
X228290000Y-125437221D02*
X228290000Y-125762779D01*
X229310000Y-125437221D02*
X229310000Y-125762779D01*
D11*
X220623809Y-125076190D02*
X220623809Y-125552380D01*
X220290476Y-124552380D02*
X220623809Y-125076190D01*
X220957142Y-124552380D01*
X221814285Y-125552380D02*
X221242857Y-125552380D01*
X221528571Y-125552380D02*
X221528571Y-124552380D01*
X221433333Y-124695238D01*
X221338095Y-124790476D01*
X221242857Y-124838095D01*
X233438095Y-108600000D02*
X233342857Y-108552380D01*
X233200000Y-108552380D01*
X233057142Y-108600000D01*
X232961904Y-108695238D01*
X232914285Y-108790476D01*
X232866666Y-108980952D01*
X232866666Y-109123809D01*
X232914285Y-109314285D01*
X232961904Y-109409523D01*
X233057142Y-109504761D01*
X233200000Y-109552380D01*
X233295238Y-109552380D01*
X233438095Y-109504761D01*
X233485714Y-109457142D01*
X233485714Y-109123809D01*
X233295238Y-109123809D01*
X233914285Y-109552380D02*
X233914285Y-108552380D01*
X234485714Y-109552380D01*
X234485714Y-108552380D01*
X234961904Y-109552380D02*
X234961904Y-108552380D01*
X235200000Y-108552380D01*
X235342857Y-108600000D01*
X235438095Y-108695238D01*
X235485714Y-108790476D01*
X235533333Y-108980952D01*
X235533333Y-109123809D01*
X235485714Y-109314285D01*
X235438095Y-109409523D01*
X235342857Y-109504761D01*
X235200000Y-109552380D01*
X234961904Y-109552380D01*
X231709523Y-124002380D02*
X232042857Y-125002380D01*
X232376190Y-124002380D01*
X233138095Y-124954761D02*
X233042857Y-125002380D01*
X232852380Y-125002380D01*
X232757142Y-124954761D01*
X232709523Y-124907142D01*
X232661904Y-124811904D01*
X232661904Y-124526190D01*
X232709523Y-124430952D01*
X232757142Y-124383333D01*
X232852380Y-124335714D01*
X233042857Y-124335714D01*
X233138095Y-124383333D01*
X233995238Y-124954761D02*
X233900000Y-125002380D01*
X233709523Y-125002380D01*
X233614285Y-124954761D01*
X233566666Y-124907142D01*
X233519047Y-124811904D01*
X233519047Y-124526190D01*
X233566666Y-124430952D01*
X233614285Y-124383333D01*
X233709523Y-124335714D01*
X233900000Y-124335714D01*
X233995238Y-124383333D01*
X215652380Y-120402380D02*
X215319047Y-119926190D01*
X215080952Y-120402380D02*
X215080952Y-119402380D01*
X215461904Y-119402380D01*
X215557142Y-119450000D01*
X215604761Y-119497619D01*
X215652380Y-119592857D01*
X215652380Y-119735714D01*
X215604761Y-119830952D01*
X215557142Y-119878571D01*
X215461904Y-119926190D01*
X215080952Y-119926190D01*
X216033333Y-120354761D02*
X216176190Y-120402380D01*
X216414285Y-120402380D01*
X216509523Y-120354761D01*
X216557142Y-120307142D01*
X216604761Y-120211904D01*
X216604761Y-120116666D01*
X216557142Y-120021428D01*
X216509523Y-119973809D01*
X216414285Y-119926190D01*
X216223809Y-119878571D01*
X216128571Y-119830952D01*
X216080952Y-119783333D01*
X216033333Y-119688095D01*
X216033333Y-119592857D01*
X216080952Y-119497619D01*
X216128571Y-119450000D01*
X216223809Y-119402380D01*
X216461904Y-119402380D01*
X216604761Y-119450000D01*
X216890476Y-119402380D02*
X217461904Y-119402380D01*
X217176190Y-120402380D02*
X217176190Y-119402380D01*
X225204761Y-118257142D02*
X225157142Y-118304761D01*
X225014285Y-118352380D01*
X224919047Y-118352380D01*
X224776190Y-118304761D01*
X224680952Y-118209523D01*
X224633333Y-118114285D01*
X224585714Y-117923809D01*
X224585714Y-117780952D01*
X224633333Y-117590476D01*
X224680952Y-117495238D01*
X224776190Y-117400000D01*
X224919047Y-117352380D01*
X225014285Y-117352380D01*
X225157142Y-117400000D01*
X225204761Y-117447619D01*
X226109523Y-118352380D02*
X225633333Y-118352380D01*
X225633333Y-117352380D01*
X226442857Y-118352380D02*
X226442857Y-117352380D01*
X227014285Y-118352380D02*
X226585714Y-117780952D01*
X227014285Y-117352380D02*
X226442857Y-117923809D01*
X227626190Y-112802380D02*
X227626190Y-111802380D01*
X227864285Y-111802380D01*
X228007142Y-111850000D01*
X228102380Y-111945238D01*
X228150000Y-112040476D01*
X228197619Y-112230952D01*
X228197619Y-112373809D01*
X228150000Y-112564285D01*
X228102380Y-112659523D01*
X228007142Y-112754761D01*
X227864285Y-112802380D01*
X227626190Y-112802380D01*
X228626190Y-112802380D02*
X228626190Y-111802380D01*
X229292857Y-111802380D02*
X229483333Y-111802380D01*
X229578571Y-111850000D01*
X229673809Y-111945238D01*
X229721428Y-112135714D01*
X229721428Y-112469047D01*
X229673809Y-112659523D01*
X229578571Y-112754761D01*
X229483333Y-112802380D01*
X229292857Y-112802380D01*
X229197619Y-112754761D01*
X229102380Y-112659523D01*
X229054761Y-112469047D01*
X229054761Y-112135714D01*
X229102380Y-111945238D01*
X229197619Y-111850000D01*
X229292857Y-111802380D01*
X217240476Y-112652380D02*
X217478571Y-113652380D01*
X217669047Y-112938095D01*
X217859523Y-113652380D01*
X218097619Y-112652380D01*
X218430952Y-113366666D02*
X218907142Y-113366666D01*
X218335714Y-113652380D02*
X218669047Y-112652380D01*
X219002380Y-113652380D01*
X219335714Y-113652380D02*
X219335714Y-112652380D01*
X219907142Y-113652380D02*
X219478571Y-113080952D01*
X219907142Y-112652380D02*
X219335714Y-113223809D01*
X220335714Y-113128571D02*
X220669047Y-113128571D01*
X220811904Y-113652380D02*
X220335714Y-113652380D01*
X220335714Y-112652380D01*
X220811904Y-112652380D01*
X230333333Y-123602380D02*
X230000000Y-123126190D01*
X229761904Y-123602380D02*
X229761904Y-122602380D01*
X230142857Y-122602380D01*
X230238095Y-122650000D01*
X230285714Y-122697619D01*
X230333333Y-122792857D01*
X230333333Y-122935714D01*
X230285714Y-123030952D01*
X230238095Y-123078571D01*
X230142857Y-123126190D01*
X229761904Y-123126190D01*
X231285714Y-123602380D02*
X230714285Y-123602380D01*
X231000000Y-123602380D02*
X231000000Y-122602380D01*
X230904761Y-122745238D01*
X230809523Y-122840476D01*
X230714285Y-122888095D01*
X224333333Y-128502380D02*
X224000000Y-128026190D01*
X223761904Y-128502380D02*
X223761904Y-127502380D01*
X224142857Y-127502380D01*
X224238095Y-127550000D01*
X224285714Y-127597619D01*
X224333333Y-127692857D01*
X224333333Y-127835714D01*
X224285714Y-127930952D01*
X224238095Y-127978571D01*
X224142857Y-128026190D01*
X223761904Y-128026190D01*
X224714285Y-127597619D02*
X224761904Y-127550000D01*
X224857142Y-127502380D01*
X225095238Y-127502380D01*
X225190476Y-127550000D01*
X225238095Y-127597619D01*
X225285714Y-127692857D01*
X225285714Y-127788095D01*
X225238095Y-127930952D01*
X224666666Y-128502380D01*
X225285714Y-128502380D01*
X205072603Y-103942681D02*
X205577679Y-104447757D01*
X205645023Y-104582444D01*
X205645023Y-104717131D01*
X205577679Y-104851818D01*
X205510336Y-104919161D01*
X206486817Y-103942681D02*
X206082756Y-104346742D01*
X206284786Y-104144711D02*
X205577679Y-103437604D01*
X205611351Y-103605963D01*
X205611351Y-103740650D01*
X205577679Y-103841665D01*
X235288095Y-113302380D02*
X235288095Y-114111904D01*
X235335714Y-114207142D01*
X235383333Y-114254761D01*
X235478571Y-114302380D01*
X235669047Y-114302380D01*
X235764285Y-114254761D01*
X235811904Y-114207142D01*
X235859523Y-114111904D01*
X235859523Y-113302380D01*
X236288095Y-113397619D02*
X236335714Y-113350000D01*
X236430952Y-113302380D01*
X236669047Y-113302380D01*
X236764285Y-113350000D01*
X236811904Y-113397619D01*
X236859523Y-113492857D01*
X236859523Y-113588095D01*
X236811904Y-113730952D01*
X236240476Y-114302380D01*
X236859523Y-114302380D01*
X206330952Y-113554761D02*
X206473809Y-113602380D01*
X206711904Y-113602380D01*
X206807142Y-113554761D01*
X206854761Y-113507142D01*
X206902380Y-113411904D01*
X206902380Y-113316666D01*
X206854761Y-113221428D01*
X206807142Y-113173809D01*
X206711904Y-113126190D01*
X206521428Y-113078571D01*
X206426190Y-113030952D01*
X206378571Y-112983333D01*
X206330952Y-112888095D01*
X206330952Y-112792857D01*
X206378571Y-112697619D01*
X206426190Y-112650000D01*
X206521428Y-112602380D01*
X206759523Y-112602380D01*
X206902380Y-112650000D01*
X207330952Y-113078571D02*
X207664285Y-113078571D01*
X207807142Y-113602380D02*
X207330952Y-113602380D01*
X207330952Y-112602380D01*
X207807142Y-112602380D01*
X208092857Y-112602380D02*
X208664285Y-112602380D01*
X208378571Y-113602380D02*
X208378571Y-112602380D01*
X227633333Y-131357142D02*
X227585714Y-131404761D01*
X227442857Y-131452380D01*
X227347619Y-131452380D01*
X227204761Y-131404761D01*
X227109523Y-131309523D01*
X227061904Y-131214285D01*
X227014285Y-131023809D01*
X227014285Y-130880952D01*
X227061904Y-130690476D01*
X227109523Y-130595238D01*
X227204761Y-130500000D01*
X227347619Y-130452380D01*
X227442857Y-130452380D01*
X227585714Y-130500000D01*
X227633333Y-130547619D01*
X228014285Y-130547619D02*
X228061904Y-130500000D01*
X228157142Y-130452380D01*
X228395238Y-130452380D01*
X228490476Y-130500000D01*
X228538095Y-130547619D01*
X228585714Y-130642857D01*
X228585714Y-130738095D01*
X228538095Y-130880952D01*
X227966666Y-131452380D01*
X228585714Y-131452380D01*
X226583333Y-128357142D02*
X226535714Y-128404761D01*
X226392857Y-128452380D01*
X226297619Y-128452380D01*
X226154761Y-128404761D01*
X226059523Y-128309523D01*
X226011904Y-128214285D01*
X225964285Y-128023809D01*
X225964285Y-127880952D01*
X226011904Y-127690476D01*
X226059523Y-127595238D01*
X226154761Y-127500000D01*
X226297619Y-127452380D01*
X226392857Y-127452380D01*
X226535714Y-127500000D01*
X226583333Y-127547619D01*
X226916666Y-127452380D02*
X227535714Y-127452380D01*
X227202380Y-127833333D01*
X227345238Y-127833333D01*
X227440476Y-127880952D01*
X227488095Y-127928571D01*
X227535714Y-128023809D01*
X227535714Y-128261904D01*
X227488095Y-128357142D01*
X227440476Y-128404761D01*
X227345238Y-128452380D01*
X227059523Y-128452380D01*
X226964285Y-128404761D01*
X226916666Y-128357142D01*
X228683333Y-128257142D02*
X228635714Y-128304761D01*
X228492857Y-128352380D01*
X228397619Y-128352380D01*
X228254761Y-128304761D01*
X228159523Y-128209523D01*
X228111904Y-128114285D01*
X228064285Y-127923809D01*
X228064285Y-127780952D01*
X228111904Y-127590476D01*
X228159523Y-127495238D01*
X228254761Y-127400000D01*
X228397619Y-127352380D01*
X228492857Y-127352380D01*
X228635714Y-127400000D01*
X228683333Y-127447619D01*
X229540476Y-127685714D02*
X229540476Y-128352380D01*
X229302380Y-127304761D02*
X229064285Y-128019047D01*
X229683333Y-128019047D01*
M02*
