G04 #@! TF.GenerationSoftware,KiCad,Pcbnew,5.1.4-1.fc30*
G04 #@! TF.CreationDate,2019-09-08T13:51:55+02:00*
G04 #@! TF.ProjectId,synchro2,73796e63-6872-46f3-922e-6b696361645f,rev?*
G04 #@! TF.SameCoordinates,Original*
G04 #@! TF.FileFunction,Soldermask,Top*
G04 #@! TF.FilePolarity,Negative*
%FSLAX46Y46*%
G04 Gerber Fmt 4.6, Leading zero omitted, Abs format (unit mm)*
G04 Created by KiCad (PCBNEW 5.1.4-1.fc30) date 2019-09-08 13:51:55*
%MOMM*%
%LPD*%
G04 APERTURE LIST*
%ADD10C,0.100000*%
%ADD11C,0.300000*%
%ADD12C,0.200000*%
G04 APERTURE END LIST*
D10*
G36*
X226100000Y-133650000D02*
G01*
X223650000Y-133650000D01*
X223650000Y-131500000D01*
X226100000Y-131500000D01*
X226100000Y-133650000D01*
G37*
X226100000Y-133650000D02*
X223650000Y-133650000D01*
X223650000Y-131500000D01*
X226100000Y-131500000D01*
X226100000Y-133650000D01*
G36*
X222450000Y-133650000D02*
G01*
X220000000Y-133650000D01*
X220000000Y-131500000D01*
X222450000Y-131500000D01*
X222450000Y-133650000D01*
G37*
X222450000Y-133650000D02*
X220000000Y-133650000D01*
X220000000Y-131500000D01*
X222450000Y-131500000D01*
X222450000Y-133650000D01*
G36*
X218800000Y-133650000D02*
G01*
X216350000Y-133650000D01*
X216350000Y-131500000D01*
X218800000Y-131500000D01*
X218800000Y-133650000D01*
G37*
X218800000Y-133650000D02*
X216350000Y-133650000D01*
X216350000Y-131500000D01*
X218800000Y-131500000D01*
X218800000Y-133650000D01*
G36*
X215050000Y-131550000D02*
G01*
X215050000Y-133550000D01*
X211850000Y-132400000D01*
X211850000Y-129400000D01*
X215050000Y-131550000D01*
G37*
X215050000Y-131550000D02*
X215050000Y-133550000D01*
X211850000Y-132400000D01*
X211850000Y-129400000D01*
X215050000Y-131550000D01*
G36*
X210450000Y-131250000D02*
G01*
X205200000Y-126600000D01*
X210450000Y-126600000D01*
X210450000Y-131250000D01*
G37*
X210450000Y-131250000D02*
X205200000Y-126600000D01*
X210450000Y-126600000D01*
X210450000Y-131250000D01*
D11*
X205578571Y-124085714D02*
X205750000Y-124142857D01*
X206035714Y-124142857D01*
X206150000Y-124085714D01*
X206207142Y-124028571D01*
X206264285Y-123914285D01*
X206264285Y-123800000D01*
X206207142Y-123685714D01*
X206150000Y-123628571D01*
X206035714Y-123571428D01*
X205807142Y-123514285D01*
X205692857Y-123457142D01*
X205635714Y-123400000D01*
X205578571Y-123285714D01*
X205578571Y-123171428D01*
X205635714Y-123057142D01*
X205692857Y-123000000D01*
X205807142Y-122942857D01*
X206092857Y-122942857D01*
X206264285Y-123000000D01*
X207007142Y-123571428D02*
X207007142Y-124142857D01*
X206607142Y-122942857D02*
X207007142Y-123571428D01*
X207407142Y-122942857D01*
X207807142Y-124142857D02*
X207807142Y-122942857D01*
X208492857Y-124142857D01*
X208492857Y-122942857D01*
X209750000Y-124028571D02*
X209692857Y-124085714D01*
X209521428Y-124142857D01*
X209407142Y-124142857D01*
X209235714Y-124085714D01*
X209121428Y-123971428D01*
X209064285Y-123857142D01*
X209007142Y-123628571D01*
X209007142Y-123457142D01*
X209064285Y-123228571D01*
X209121428Y-123114285D01*
X209235714Y-123000000D01*
X209407142Y-122942857D01*
X209521428Y-122942857D01*
X209692857Y-123000000D01*
X209750000Y-123057142D01*
X210264285Y-124142857D02*
X210264285Y-122942857D01*
X210264285Y-123514285D02*
X210950000Y-123514285D01*
X210950000Y-124142857D02*
X210950000Y-122942857D01*
X212207142Y-124142857D02*
X211807142Y-123571428D01*
X211521428Y-124142857D02*
X211521428Y-122942857D01*
X211978571Y-122942857D01*
X212092857Y-123000000D01*
X212150000Y-123057142D01*
X212207142Y-123171428D01*
X212207142Y-123342857D01*
X212150000Y-123457142D01*
X212092857Y-123514285D01*
X211978571Y-123571428D01*
X211521428Y-123571428D01*
X212950000Y-122942857D02*
X213178571Y-122942857D01*
X213292857Y-123000000D01*
X213407142Y-123114285D01*
X213464285Y-123342857D01*
X213464285Y-123742857D01*
X213407142Y-123971428D01*
X213292857Y-124085714D01*
X213178571Y-124142857D01*
X212950000Y-124142857D01*
X212835714Y-124085714D01*
X212721428Y-123971428D01*
X212664285Y-123742857D01*
X212664285Y-123342857D01*
X212721428Y-123114285D01*
X212835714Y-123000000D01*
X212950000Y-122942857D01*
X214835714Y-123057142D02*
X214892857Y-123000000D01*
X215007142Y-122942857D01*
X215292857Y-122942857D01*
X215407142Y-123000000D01*
X215464285Y-123057142D01*
X215521428Y-123171428D01*
X215521428Y-123285714D01*
X215464285Y-123457142D01*
X214778571Y-124142857D01*
X215521428Y-124142857D01*
D12*
X212771428Y-121285714D02*
X213009523Y-121952380D01*
X213247619Y-121285714D01*
X213819047Y-120952380D02*
X213914285Y-120952380D01*
X214009523Y-121000000D01*
X214057142Y-121047619D01*
X214104761Y-121142857D01*
X214152380Y-121333333D01*
X214152380Y-121571428D01*
X214104761Y-121761904D01*
X214057142Y-121857142D01*
X214009523Y-121904761D01*
X213914285Y-121952380D01*
X213819047Y-121952380D01*
X213723809Y-121904761D01*
X213676190Y-121857142D01*
X213628571Y-121761904D01*
X213580952Y-121571428D01*
X213580952Y-121333333D01*
X213628571Y-121142857D01*
X213676190Y-121047619D01*
X213723809Y-121000000D01*
X213819047Y-120952380D01*
X214580952Y-121857142D02*
X214628571Y-121904761D01*
X214580952Y-121952380D01*
X214533333Y-121904761D01*
X214580952Y-121857142D01*
X214580952Y-121952380D01*
X215580952Y-121952380D02*
X215009523Y-121952380D01*
X215295238Y-121952380D02*
X215295238Y-120952380D01*
X215200000Y-121095238D01*
X215104761Y-121190476D01*
X215009523Y-121238095D01*
X205830952Y-121428571D02*
X205973809Y-121476190D01*
X206021428Y-121523809D01*
X206069047Y-121619047D01*
X206069047Y-121761904D01*
X206021428Y-121857142D01*
X205973809Y-121904761D01*
X205878571Y-121952380D01*
X205497619Y-121952380D01*
X205497619Y-120952380D01*
X205830952Y-120952380D01*
X205926190Y-121000000D01*
X205973809Y-121047619D01*
X206021428Y-121142857D01*
X206021428Y-121238095D01*
X205973809Y-121333333D01*
X205926190Y-121380952D01*
X205830952Y-121428571D01*
X205497619Y-121428571D01*
X206926190Y-121952380D02*
X206926190Y-121428571D01*
X206878571Y-121333333D01*
X206783333Y-121285714D01*
X206592857Y-121285714D01*
X206497619Y-121333333D01*
X206926190Y-121904761D02*
X206830952Y-121952380D01*
X206592857Y-121952380D01*
X206497619Y-121904761D01*
X206450000Y-121809523D01*
X206450000Y-121714285D01*
X206497619Y-121619047D01*
X206592857Y-121571428D01*
X206830952Y-121571428D01*
X206926190Y-121523809D01*
X207402380Y-121952380D02*
X207402380Y-121285714D01*
X207402380Y-121476190D02*
X207450000Y-121380952D01*
X207497619Y-121333333D01*
X207592857Y-121285714D01*
X207688095Y-121285714D01*
X207878571Y-121285714D02*
X208259523Y-121285714D01*
X208021428Y-120952380D02*
X208021428Y-121809523D01*
X208069047Y-121904761D01*
X208164285Y-121952380D01*
X208259523Y-121952380D01*
X208640476Y-120952380D02*
X208545238Y-121142857D01*
X209021428Y-121904761D02*
X209116666Y-121952380D01*
X209307142Y-121952380D01*
X209402380Y-121904761D01*
X209450000Y-121809523D01*
X209450000Y-121761904D01*
X209402380Y-121666666D01*
X209307142Y-121619047D01*
X209164285Y-121619047D01*
X209069047Y-121571428D01*
X209021428Y-121476190D01*
X209021428Y-121428571D01*
X209069047Y-121333333D01*
X209164285Y-121285714D01*
X209307142Y-121285714D01*
X209402380Y-121333333D01*
D10*
G36*
X230829591Y-128678085D02*
G01*
X230863569Y-128688393D01*
X230894890Y-128705134D01*
X230922339Y-128727661D01*
X230944866Y-128755110D01*
X230961607Y-128786431D01*
X230971915Y-128820409D01*
X230976000Y-128861890D01*
X230976000Y-129538110D01*
X230971915Y-129579591D01*
X230961607Y-129613569D01*
X230944866Y-129644890D01*
X230922339Y-129672339D01*
X230894890Y-129694866D01*
X230863569Y-129711607D01*
X230829591Y-129721915D01*
X230788110Y-129726000D01*
X230186890Y-129726000D01*
X230145409Y-129721915D01*
X230111431Y-129711607D01*
X230080110Y-129694866D01*
X230052661Y-129672339D01*
X230030134Y-129644890D01*
X230013393Y-129613569D01*
X230003085Y-129579591D01*
X229999000Y-129538110D01*
X229999000Y-128861890D01*
X230003085Y-128820409D01*
X230013393Y-128786431D01*
X230030134Y-128755110D01*
X230052661Y-128727661D01*
X230080110Y-128705134D01*
X230111431Y-128688393D01*
X230145409Y-128678085D01*
X230186890Y-128674000D01*
X230788110Y-128674000D01*
X230829591Y-128678085D01*
X230829591Y-128678085D01*
G37*
G36*
X229254591Y-128678085D02*
G01*
X229288569Y-128688393D01*
X229319890Y-128705134D01*
X229347339Y-128727661D01*
X229369866Y-128755110D01*
X229386607Y-128786431D01*
X229396915Y-128820409D01*
X229401000Y-128861890D01*
X229401000Y-129538110D01*
X229396915Y-129579591D01*
X229386607Y-129613569D01*
X229369866Y-129644890D01*
X229347339Y-129672339D01*
X229319890Y-129694866D01*
X229288569Y-129711607D01*
X229254591Y-129721915D01*
X229213110Y-129726000D01*
X228611890Y-129726000D01*
X228570409Y-129721915D01*
X228536431Y-129711607D01*
X228505110Y-129694866D01*
X228477661Y-129672339D01*
X228455134Y-129644890D01*
X228438393Y-129613569D01*
X228428085Y-129579591D01*
X228424000Y-129538110D01*
X228424000Y-128861890D01*
X228428085Y-128820409D01*
X228438393Y-128786431D01*
X228455134Y-128755110D01*
X228477661Y-128727661D01*
X228505110Y-128705134D01*
X228536431Y-128688393D01*
X228570409Y-128678085D01*
X228611890Y-128674000D01*
X229213110Y-128674000D01*
X229254591Y-128678085D01*
X229254591Y-128678085D01*
G37*
G36*
X234901000Y-127801000D02*
G01*
X232799000Y-127801000D01*
X232799000Y-125699000D01*
X234901000Y-125699000D01*
X234901000Y-127801000D01*
X234901000Y-127801000D01*
G37*
G36*
X227479591Y-125903085D02*
G01*
X227513569Y-125913393D01*
X227544890Y-125930134D01*
X227572339Y-125952661D01*
X227594866Y-125980110D01*
X227611607Y-126011431D01*
X227621915Y-126045409D01*
X227626000Y-126086890D01*
X227626000Y-126688110D01*
X227621915Y-126729591D01*
X227611607Y-126763569D01*
X227594866Y-126794890D01*
X227572339Y-126822339D01*
X227544890Y-126844866D01*
X227513569Y-126861607D01*
X227479591Y-126871915D01*
X227438110Y-126876000D01*
X226761890Y-126876000D01*
X226720409Y-126871915D01*
X226686431Y-126861607D01*
X226655110Y-126844866D01*
X226627661Y-126822339D01*
X226605134Y-126794890D01*
X226588393Y-126763569D01*
X226578085Y-126729591D01*
X226574000Y-126688110D01*
X226574000Y-126086890D01*
X226578085Y-126045409D01*
X226588393Y-126011431D01*
X226605134Y-125980110D01*
X226627661Y-125952661D01*
X226655110Y-125930134D01*
X226686431Y-125913393D01*
X226720409Y-125903085D01*
X226761890Y-125899000D01*
X227438110Y-125899000D01*
X227479591Y-125903085D01*
X227479591Y-125903085D01*
G37*
G36*
X225679591Y-125903085D02*
G01*
X225713569Y-125913393D01*
X225744890Y-125930134D01*
X225772339Y-125952661D01*
X225794866Y-125980110D01*
X225811607Y-126011431D01*
X225821915Y-126045409D01*
X225826000Y-126086890D01*
X225826000Y-126688110D01*
X225821915Y-126729591D01*
X225811607Y-126763569D01*
X225794866Y-126794890D01*
X225772339Y-126822339D01*
X225744890Y-126844866D01*
X225713569Y-126861607D01*
X225679591Y-126871915D01*
X225638110Y-126876000D01*
X224961890Y-126876000D01*
X224920409Y-126871915D01*
X224886431Y-126861607D01*
X224855110Y-126844866D01*
X224827661Y-126822339D01*
X224805134Y-126794890D01*
X224788393Y-126763569D01*
X224778085Y-126729591D01*
X224774000Y-126688110D01*
X224774000Y-126086890D01*
X224778085Y-126045409D01*
X224788393Y-126011431D01*
X224805134Y-125980110D01*
X224827661Y-125952661D01*
X224855110Y-125930134D01*
X224886431Y-125913393D01*
X224920409Y-125903085D01*
X224961890Y-125899000D01*
X225638110Y-125899000D01*
X225679591Y-125903085D01*
X225679591Y-125903085D01*
G37*
G36*
X229179591Y-125903085D02*
G01*
X229213569Y-125913393D01*
X229244890Y-125930134D01*
X229272339Y-125952661D01*
X229294866Y-125980110D01*
X229311607Y-126011431D01*
X229321915Y-126045409D01*
X229326000Y-126086890D01*
X229326000Y-126688110D01*
X229321915Y-126729591D01*
X229311607Y-126763569D01*
X229294866Y-126794890D01*
X229272339Y-126822339D01*
X229244890Y-126844866D01*
X229213569Y-126861607D01*
X229179591Y-126871915D01*
X229138110Y-126876000D01*
X228461890Y-126876000D01*
X228420409Y-126871915D01*
X228386431Y-126861607D01*
X228355110Y-126844866D01*
X228327661Y-126822339D01*
X228305134Y-126794890D01*
X228288393Y-126763569D01*
X228278085Y-126729591D01*
X228274000Y-126688110D01*
X228274000Y-126086890D01*
X228278085Y-126045409D01*
X228288393Y-126011431D01*
X228305134Y-125980110D01*
X228327661Y-125952661D01*
X228355110Y-125930134D01*
X228386431Y-125913393D01*
X228420409Y-125903085D01*
X228461890Y-125899000D01*
X229138110Y-125899000D01*
X229179591Y-125903085D01*
X229179591Y-125903085D01*
G37*
G36*
X230879591Y-125903085D02*
G01*
X230913569Y-125913393D01*
X230944890Y-125930134D01*
X230972339Y-125952661D01*
X230994866Y-125980110D01*
X231011607Y-126011431D01*
X231021915Y-126045409D01*
X231026000Y-126086890D01*
X231026000Y-126688110D01*
X231021915Y-126729591D01*
X231011607Y-126763569D01*
X230994866Y-126794890D01*
X230972339Y-126822339D01*
X230944890Y-126844866D01*
X230913569Y-126861607D01*
X230879591Y-126871915D01*
X230838110Y-126876000D01*
X230161890Y-126876000D01*
X230120409Y-126871915D01*
X230086431Y-126861607D01*
X230055110Y-126844866D01*
X230027661Y-126822339D01*
X230005134Y-126794890D01*
X229988393Y-126763569D01*
X229978085Y-126729591D01*
X229974000Y-126688110D01*
X229974000Y-126086890D01*
X229978085Y-126045409D01*
X229988393Y-126011431D01*
X230005134Y-125980110D01*
X230027661Y-125952661D01*
X230055110Y-125930134D01*
X230086431Y-125913393D01*
X230120409Y-125903085D01*
X230161890Y-125899000D01*
X230838110Y-125899000D01*
X230879591Y-125903085D01*
X230879591Y-125903085D01*
G37*
G36*
X227479591Y-124328085D02*
G01*
X227513569Y-124338393D01*
X227544890Y-124355134D01*
X227572339Y-124377661D01*
X227594866Y-124405110D01*
X227611607Y-124436431D01*
X227621915Y-124470409D01*
X227626000Y-124511890D01*
X227626000Y-125113110D01*
X227621915Y-125154591D01*
X227611607Y-125188569D01*
X227594866Y-125219890D01*
X227572339Y-125247339D01*
X227544890Y-125269866D01*
X227513569Y-125286607D01*
X227479591Y-125296915D01*
X227438110Y-125301000D01*
X226761890Y-125301000D01*
X226720409Y-125296915D01*
X226686431Y-125286607D01*
X226655110Y-125269866D01*
X226627661Y-125247339D01*
X226605134Y-125219890D01*
X226588393Y-125188569D01*
X226578085Y-125154591D01*
X226574000Y-125113110D01*
X226574000Y-124511890D01*
X226578085Y-124470409D01*
X226588393Y-124436431D01*
X226605134Y-124405110D01*
X226627661Y-124377661D01*
X226655110Y-124355134D01*
X226686431Y-124338393D01*
X226720409Y-124328085D01*
X226761890Y-124324000D01*
X227438110Y-124324000D01*
X227479591Y-124328085D01*
X227479591Y-124328085D01*
G37*
G36*
X225679591Y-124328085D02*
G01*
X225713569Y-124338393D01*
X225744890Y-124355134D01*
X225772339Y-124377661D01*
X225794866Y-124405110D01*
X225811607Y-124436431D01*
X225821915Y-124470409D01*
X225826000Y-124511890D01*
X225826000Y-125113110D01*
X225821915Y-125154591D01*
X225811607Y-125188569D01*
X225794866Y-125219890D01*
X225772339Y-125247339D01*
X225744890Y-125269866D01*
X225713569Y-125286607D01*
X225679591Y-125296915D01*
X225638110Y-125301000D01*
X224961890Y-125301000D01*
X224920409Y-125296915D01*
X224886431Y-125286607D01*
X224855110Y-125269866D01*
X224827661Y-125247339D01*
X224805134Y-125219890D01*
X224788393Y-125188569D01*
X224778085Y-125154591D01*
X224774000Y-125113110D01*
X224774000Y-124511890D01*
X224778085Y-124470409D01*
X224788393Y-124436431D01*
X224805134Y-124405110D01*
X224827661Y-124377661D01*
X224855110Y-124355134D01*
X224886431Y-124338393D01*
X224920409Y-124328085D01*
X224961890Y-124324000D01*
X225638110Y-124324000D01*
X225679591Y-124328085D01*
X225679591Y-124328085D01*
G37*
G36*
X230879591Y-124328085D02*
G01*
X230913569Y-124338393D01*
X230944890Y-124355134D01*
X230972339Y-124377661D01*
X230994866Y-124405110D01*
X231011607Y-124436431D01*
X231021915Y-124470409D01*
X231026000Y-124511890D01*
X231026000Y-125113110D01*
X231021915Y-125154591D01*
X231011607Y-125188569D01*
X230994866Y-125219890D01*
X230972339Y-125247339D01*
X230944890Y-125269866D01*
X230913569Y-125286607D01*
X230879591Y-125296915D01*
X230838110Y-125301000D01*
X230161890Y-125301000D01*
X230120409Y-125296915D01*
X230086431Y-125286607D01*
X230055110Y-125269866D01*
X230027661Y-125247339D01*
X230005134Y-125219890D01*
X229988393Y-125188569D01*
X229978085Y-125154591D01*
X229974000Y-125113110D01*
X229974000Y-124511890D01*
X229978085Y-124470409D01*
X229988393Y-124436431D01*
X230005134Y-124405110D01*
X230027661Y-124377661D01*
X230055110Y-124355134D01*
X230086431Y-124338393D01*
X230120409Y-124328085D01*
X230161890Y-124324000D01*
X230838110Y-124324000D01*
X230879591Y-124328085D01*
X230879591Y-124328085D01*
G37*
G36*
X229179591Y-124328085D02*
G01*
X229213569Y-124338393D01*
X229244890Y-124355134D01*
X229272339Y-124377661D01*
X229294866Y-124405110D01*
X229311607Y-124436431D01*
X229321915Y-124470409D01*
X229326000Y-124511890D01*
X229326000Y-125113110D01*
X229321915Y-125154591D01*
X229311607Y-125188569D01*
X229294866Y-125219890D01*
X229272339Y-125247339D01*
X229244890Y-125269866D01*
X229213569Y-125286607D01*
X229179591Y-125296915D01*
X229138110Y-125301000D01*
X228461890Y-125301000D01*
X228420409Y-125296915D01*
X228386431Y-125286607D01*
X228355110Y-125269866D01*
X228327661Y-125247339D01*
X228305134Y-125219890D01*
X228288393Y-125188569D01*
X228278085Y-125154591D01*
X228274000Y-125113110D01*
X228274000Y-124511890D01*
X228278085Y-124470409D01*
X228288393Y-124436431D01*
X228305134Y-124405110D01*
X228327661Y-124377661D01*
X228355110Y-124355134D01*
X228386431Y-124338393D01*
X228420409Y-124328085D01*
X228461890Y-124324000D01*
X229138110Y-124324000D01*
X229179591Y-124328085D01*
X229179591Y-124328085D01*
G37*
G36*
X224401000Y-124301000D02*
G01*
X223299000Y-124301000D01*
X223299000Y-123199000D01*
X224401000Y-123199000D01*
X224401000Y-124301000D01*
X224401000Y-124301000D01*
G37*
G36*
X224401000Y-122401000D02*
G01*
X223299000Y-122401000D01*
X223299000Y-121299000D01*
X224401000Y-121299000D01*
X224401000Y-122401000D01*
X224401000Y-122401000D01*
G37*
G36*
X234301000Y-121126000D02*
G01*
X227899000Y-121126000D01*
X227899000Y-119574000D01*
X234301000Y-119574000D01*
X234301000Y-121126000D01*
X234301000Y-121126000D01*
G37*
G36*
X220601000Y-120901000D02*
G01*
X218499000Y-120901000D01*
X218499000Y-118799000D01*
X220601000Y-118799000D01*
X220601000Y-120901000D01*
X220601000Y-120901000D01*
G37*
G36*
X223801000Y-117101000D02*
G01*
X222199000Y-117101000D01*
X222199000Y-115499000D01*
X223801000Y-115499000D01*
X223801000Y-117101000D01*
X223801000Y-117101000D01*
G37*
G36*
X204301000Y-117101000D02*
G01*
X202699000Y-117101000D01*
X202699000Y-115499000D01*
X204301000Y-115499000D01*
X204301000Y-117101000D01*
X204301000Y-117101000D01*
G37*
G36*
X212101000Y-117101000D02*
G01*
X210499000Y-117101000D01*
X210499000Y-115499000D01*
X212101000Y-115499000D01*
X212101000Y-117101000D01*
X212101000Y-117101000D01*
G37*
G36*
X216001000Y-117101000D02*
G01*
X214399000Y-117101000D01*
X214399000Y-115499000D01*
X216001000Y-115499000D01*
X216001000Y-117101000D01*
X216001000Y-117101000D01*
G37*
G36*
X227001000Y-116351000D02*
G01*
X224899000Y-116351000D01*
X224899000Y-114249000D01*
X227001000Y-114249000D01*
X227001000Y-116351000D01*
X227001000Y-116351000D01*
G37*
G36*
X234301000Y-115226000D02*
G01*
X227899000Y-115226000D01*
X227899000Y-113674000D01*
X234301000Y-113674000D01*
X234301000Y-115226000D01*
X234301000Y-115226000D01*
G37*
G36*
X226951000Y-113551000D02*
G01*
X224849000Y-113551000D01*
X224849000Y-111449000D01*
X226951000Y-111449000D01*
X226951000Y-113551000D01*
X226951000Y-113551000D01*
G37*
G36*
X222404591Y-111528085D02*
G01*
X222438569Y-111538393D01*
X222469890Y-111555134D01*
X222497339Y-111577661D01*
X222519866Y-111605110D01*
X222536607Y-111636431D01*
X222546915Y-111670409D01*
X222551000Y-111711890D01*
X222551000Y-112388110D01*
X222546915Y-112429591D01*
X222536607Y-112463569D01*
X222519866Y-112494890D01*
X222497339Y-112522339D01*
X222469890Y-112544866D01*
X222438569Y-112561607D01*
X222404591Y-112571915D01*
X222363110Y-112576000D01*
X221761890Y-112576000D01*
X221720409Y-112571915D01*
X221686431Y-112561607D01*
X221655110Y-112544866D01*
X221627661Y-112522339D01*
X221605134Y-112494890D01*
X221588393Y-112463569D01*
X221578085Y-112429591D01*
X221574000Y-112388110D01*
X221574000Y-111711890D01*
X221578085Y-111670409D01*
X221588393Y-111636431D01*
X221605134Y-111605110D01*
X221627661Y-111577661D01*
X221655110Y-111555134D01*
X221686431Y-111538393D01*
X221720409Y-111528085D01*
X221761890Y-111524000D01*
X222363110Y-111524000D01*
X222404591Y-111528085D01*
X222404591Y-111528085D01*
G37*
G36*
X223979591Y-111528085D02*
G01*
X224013569Y-111538393D01*
X224044890Y-111555134D01*
X224072339Y-111577661D01*
X224094866Y-111605110D01*
X224111607Y-111636431D01*
X224121915Y-111670409D01*
X224126000Y-111711890D01*
X224126000Y-112388110D01*
X224121915Y-112429591D01*
X224111607Y-112463569D01*
X224094866Y-112494890D01*
X224072339Y-112522339D01*
X224044890Y-112544866D01*
X224013569Y-112561607D01*
X223979591Y-112571915D01*
X223938110Y-112576000D01*
X223336890Y-112576000D01*
X223295409Y-112571915D01*
X223261431Y-112561607D01*
X223230110Y-112544866D01*
X223202661Y-112522339D01*
X223180134Y-112494890D01*
X223163393Y-112463569D01*
X223153085Y-112429591D01*
X223149000Y-112388110D01*
X223149000Y-111711890D01*
X223153085Y-111670409D01*
X223163393Y-111636431D01*
X223180134Y-111605110D01*
X223202661Y-111577661D01*
X223230110Y-111555134D01*
X223261431Y-111538393D01*
X223295409Y-111528085D01*
X223336890Y-111524000D01*
X223938110Y-111524000D01*
X223979591Y-111528085D01*
X223979591Y-111528085D01*
G37*
G36*
X236201000Y-112351000D02*
G01*
X234099000Y-112351000D01*
X234099000Y-110249000D01*
X236201000Y-110249000D01*
X236201000Y-112351000D01*
X236201000Y-112351000D01*
G37*
G36*
X206106494Y-109701570D02*
G01*
X206172678Y-109708088D01*
X206342517Y-109759608D01*
X206499042Y-109843273D01*
X206534780Y-109872603D01*
X206636237Y-109955865D01*
X206692793Y-110024780D01*
X206748829Y-110093060D01*
X206832494Y-110249585D01*
X206884014Y-110419424D01*
X206901410Y-110596051D01*
X206884014Y-110772678D01*
X206832494Y-110942517D01*
X206748829Y-111099042D01*
X206719499Y-111134780D01*
X206636237Y-111236237D01*
X206534780Y-111319499D01*
X206499042Y-111348829D01*
X206342517Y-111432494D01*
X206172678Y-111484014D01*
X206106494Y-111490532D01*
X206040311Y-111497051D01*
X205951791Y-111497051D01*
X205885608Y-111490532D01*
X205819424Y-111484014D01*
X205649585Y-111432494D01*
X205493060Y-111348829D01*
X205457322Y-111319499D01*
X205355865Y-111236237D01*
X205272603Y-111134780D01*
X205243273Y-111099042D01*
X205159608Y-110942517D01*
X205108088Y-110772678D01*
X205090692Y-110596051D01*
X205108088Y-110419424D01*
X205159608Y-110249585D01*
X205243273Y-110093060D01*
X205299309Y-110024780D01*
X205355865Y-109955865D01*
X205457322Y-109872603D01*
X205493060Y-109843273D01*
X205649585Y-109759608D01*
X205819424Y-109708088D01*
X205885608Y-109701570D01*
X205951791Y-109695051D01*
X206040311Y-109695051D01*
X206106494Y-109701570D01*
X206106494Y-109701570D01*
G37*
G36*
X225317091Y-109878085D02*
G01*
X225351069Y-109888393D01*
X225382390Y-109905134D01*
X225409839Y-109927661D01*
X225432366Y-109955110D01*
X225449107Y-109986431D01*
X225459415Y-110020409D01*
X225463500Y-110061890D01*
X225463500Y-110738110D01*
X225459415Y-110779591D01*
X225449107Y-110813569D01*
X225432366Y-110844890D01*
X225409839Y-110872339D01*
X225382390Y-110894866D01*
X225351069Y-110911607D01*
X225317091Y-110921915D01*
X225275610Y-110926000D01*
X224674390Y-110926000D01*
X224632909Y-110921915D01*
X224598931Y-110911607D01*
X224567610Y-110894866D01*
X224540161Y-110872339D01*
X224517634Y-110844890D01*
X224500893Y-110813569D01*
X224490585Y-110779591D01*
X224486500Y-110738110D01*
X224486500Y-110061890D01*
X224490585Y-110020409D01*
X224500893Y-109986431D01*
X224517634Y-109955110D01*
X224540161Y-109927661D01*
X224567610Y-109905134D01*
X224598931Y-109888393D01*
X224632909Y-109878085D01*
X224674390Y-109874000D01*
X225275610Y-109874000D01*
X225317091Y-109878085D01*
X225317091Y-109878085D01*
G37*
G36*
X223742091Y-109878085D02*
G01*
X223776069Y-109888393D01*
X223807390Y-109905134D01*
X223834839Y-109927661D01*
X223857366Y-109955110D01*
X223874107Y-109986431D01*
X223884415Y-110020409D01*
X223888500Y-110061890D01*
X223888500Y-110738110D01*
X223884415Y-110779591D01*
X223874107Y-110813569D01*
X223857366Y-110844890D01*
X223834839Y-110872339D01*
X223807390Y-110894866D01*
X223776069Y-110911607D01*
X223742091Y-110921915D01*
X223700610Y-110926000D01*
X223099390Y-110926000D01*
X223057909Y-110921915D01*
X223023931Y-110911607D01*
X222992610Y-110894866D01*
X222965161Y-110872339D01*
X222942634Y-110844890D01*
X222925893Y-110813569D01*
X222915585Y-110779591D01*
X222911500Y-110738110D01*
X222911500Y-110061890D01*
X222915585Y-110020409D01*
X222925893Y-109986431D01*
X222942634Y-109955110D01*
X222965161Y-109927661D01*
X222992610Y-109905134D01*
X223023931Y-109888393D01*
X223057909Y-109878085D01*
X223099390Y-109874000D01*
X223700610Y-109874000D01*
X223742091Y-109878085D01*
X223742091Y-109878085D01*
G37*
G36*
X205474206Y-108800000D02*
G01*
X204200000Y-110074206D01*
X202925794Y-108800000D01*
X204200000Y-107525794D01*
X205474206Y-108800000D01*
X205474206Y-108800000D01*
G37*
G36*
X218654591Y-108478085D02*
G01*
X218688569Y-108488393D01*
X218719890Y-108505134D01*
X218747339Y-108527661D01*
X218769866Y-108555110D01*
X218786607Y-108586431D01*
X218796915Y-108620409D01*
X218801000Y-108661890D01*
X218801000Y-109338110D01*
X218796915Y-109379591D01*
X218786607Y-109413569D01*
X218769866Y-109444890D01*
X218747339Y-109472339D01*
X218719890Y-109494866D01*
X218688569Y-109511607D01*
X218654591Y-109521915D01*
X218613110Y-109526000D01*
X218011890Y-109526000D01*
X217970409Y-109521915D01*
X217936431Y-109511607D01*
X217905110Y-109494866D01*
X217877661Y-109472339D01*
X217855134Y-109444890D01*
X217838393Y-109413569D01*
X217828085Y-109379591D01*
X217824000Y-109338110D01*
X217824000Y-108661890D01*
X217828085Y-108620409D01*
X217838393Y-108586431D01*
X217855134Y-108555110D01*
X217877661Y-108527661D01*
X217905110Y-108505134D01*
X217936431Y-108488393D01*
X217970409Y-108478085D01*
X218011890Y-108474000D01*
X218613110Y-108474000D01*
X218654591Y-108478085D01*
X218654591Y-108478085D01*
G37*
G36*
X220229591Y-108478085D02*
G01*
X220263569Y-108488393D01*
X220294890Y-108505134D01*
X220322339Y-108527661D01*
X220344866Y-108555110D01*
X220361607Y-108586431D01*
X220371915Y-108620409D01*
X220376000Y-108661890D01*
X220376000Y-109338110D01*
X220371915Y-109379591D01*
X220361607Y-109413569D01*
X220344866Y-109444890D01*
X220322339Y-109472339D01*
X220294890Y-109494866D01*
X220263569Y-109511607D01*
X220229591Y-109521915D01*
X220188110Y-109526000D01*
X219586890Y-109526000D01*
X219545409Y-109521915D01*
X219511431Y-109511607D01*
X219480110Y-109494866D01*
X219452661Y-109472339D01*
X219430134Y-109444890D01*
X219413393Y-109413569D01*
X219403085Y-109379591D01*
X219399000Y-109338110D01*
X219399000Y-108661890D01*
X219403085Y-108620409D01*
X219413393Y-108586431D01*
X219430134Y-108555110D01*
X219452661Y-108527661D01*
X219480110Y-108505134D01*
X219511431Y-108488393D01*
X219545409Y-108478085D01*
X219586890Y-108474000D01*
X220188110Y-108474000D01*
X220229591Y-108478085D01*
X220229591Y-108478085D01*
G37*
G36*
X223742091Y-108178085D02*
G01*
X223776069Y-108188393D01*
X223807390Y-108205134D01*
X223834839Y-108227661D01*
X223857366Y-108255110D01*
X223874107Y-108286431D01*
X223884415Y-108320409D01*
X223888500Y-108361890D01*
X223888500Y-109038110D01*
X223884415Y-109079591D01*
X223874107Y-109113569D01*
X223857366Y-109144890D01*
X223834839Y-109172339D01*
X223807390Y-109194866D01*
X223776069Y-109211607D01*
X223742091Y-109221915D01*
X223700610Y-109226000D01*
X223099390Y-109226000D01*
X223057909Y-109221915D01*
X223023931Y-109211607D01*
X222992610Y-109194866D01*
X222965161Y-109172339D01*
X222942634Y-109144890D01*
X222925893Y-109113569D01*
X222915585Y-109079591D01*
X222911500Y-109038110D01*
X222911500Y-108361890D01*
X222915585Y-108320409D01*
X222925893Y-108286431D01*
X222942634Y-108255110D01*
X222965161Y-108227661D01*
X222992610Y-108205134D01*
X223023931Y-108188393D01*
X223057909Y-108178085D01*
X223099390Y-108174000D01*
X223700610Y-108174000D01*
X223742091Y-108178085D01*
X223742091Y-108178085D01*
G37*
G36*
X225317091Y-108178085D02*
G01*
X225351069Y-108188393D01*
X225382390Y-108205134D01*
X225409839Y-108227661D01*
X225432366Y-108255110D01*
X225449107Y-108286431D01*
X225459415Y-108320409D01*
X225463500Y-108361890D01*
X225463500Y-109038110D01*
X225459415Y-109079591D01*
X225449107Y-109113569D01*
X225432366Y-109144890D01*
X225409839Y-109172339D01*
X225382390Y-109194866D01*
X225351069Y-109211607D01*
X225317091Y-109221915D01*
X225275610Y-109226000D01*
X224674390Y-109226000D01*
X224632909Y-109221915D01*
X224598931Y-109211607D01*
X224567610Y-109194866D01*
X224540161Y-109172339D01*
X224517634Y-109144890D01*
X224500893Y-109113569D01*
X224490585Y-109079591D01*
X224486500Y-109038110D01*
X224486500Y-108361890D01*
X224490585Y-108320409D01*
X224500893Y-108286431D01*
X224517634Y-108255110D01*
X224540161Y-108227661D01*
X224567610Y-108205134D01*
X224598931Y-108188393D01*
X224632909Y-108178085D01*
X224674390Y-108174000D01*
X225275610Y-108174000D01*
X225317091Y-108178085D01*
X225317091Y-108178085D01*
G37*
G36*
X220229591Y-106778085D02*
G01*
X220263569Y-106788393D01*
X220294890Y-106805134D01*
X220322339Y-106827661D01*
X220344866Y-106855110D01*
X220361607Y-106886431D01*
X220371915Y-106920409D01*
X220376000Y-106961890D01*
X220376000Y-107638110D01*
X220371915Y-107679591D01*
X220361607Y-107713569D01*
X220344866Y-107744890D01*
X220322339Y-107772339D01*
X220294890Y-107794866D01*
X220263569Y-107811607D01*
X220229591Y-107821915D01*
X220188110Y-107826000D01*
X219586890Y-107826000D01*
X219545409Y-107821915D01*
X219511431Y-107811607D01*
X219480110Y-107794866D01*
X219452661Y-107772339D01*
X219430134Y-107744890D01*
X219413393Y-107713569D01*
X219403085Y-107679591D01*
X219399000Y-107638110D01*
X219399000Y-106961890D01*
X219403085Y-106920409D01*
X219413393Y-106886431D01*
X219430134Y-106855110D01*
X219452661Y-106827661D01*
X219480110Y-106805134D01*
X219511431Y-106788393D01*
X219545409Y-106778085D01*
X219586890Y-106774000D01*
X220188110Y-106774000D01*
X220229591Y-106778085D01*
X220229591Y-106778085D01*
G37*
G36*
X218654591Y-106778085D02*
G01*
X218688569Y-106788393D01*
X218719890Y-106805134D01*
X218747339Y-106827661D01*
X218769866Y-106855110D01*
X218786607Y-106886431D01*
X218796915Y-106920409D01*
X218801000Y-106961890D01*
X218801000Y-107638110D01*
X218796915Y-107679591D01*
X218786607Y-107713569D01*
X218769866Y-107744890D01*
X218747339Y-107772339D01*
X218719890Y-107794866D01*
X218688569Y-107811607D01*
X218654591Y-107821915D01*
X218613110Y-107826000D01*
X218011890Y-107826000D01*
X217970409Y-107821915D01*
X217936431Y-107811607D01*
X217905110Y-107794866D01*
X217877661Y-107772339D01*
X217855134Y-107744890D01*
X217838393Y-107713569D01*
X217828085Y-107679591D01*
X217824000Y-107638110D01*
X217824000Y-106961890D01*
X217828085Y-106920409D01*
X217838393Y-106886431D01*
X217855134Y-106855110D01*
X217877661Y-106827661D01*
X217905110Y-106805134D01*
X217936431Y-106788393D01*
X217970409Y-106778085D01*
X218011890Y-106774000D01*
X218613110Y-106774000D01*
X218654591Y-106778085D01*
X218654591Y-106778085D01*
G37*
G36*
X225329591Y-106478085D02*
G01*
X225363569Y-106488393D01*
X225394890Y-106505134D01*
X225422339Y-106527661D01*
X225444866Y-106555110D01*
X225461607Y-106586431D01*
X225471915Y-106620409D01*
X225476000Y-106661890D01*
X225476000Y-107338110D01*
X225471915Y-107379591D01*
X225461607Y-107413569D01*
X225444866Y-107444890D01*
X225422339Y-107472339D01*
X225394890Y-107494866D01*
X225363569Y-107511607D01*
X225329591Y-107521915D01*
X225288110Y-107526000D01*
X224686890Y-107526000D01*
X224645409Y-107521915D01*
X224611431Y-107511607D01*
X224580110Y-107494866D01*
X224552661Y-107472339D01*
X224530134Y-107444890D01*
X224513393Y-107413569D01*
X224503085Y-107379591D01*
X224499000Y-107338110D01*
X224499000Y-106661890D01*
X224503085Y-106620409D01*
X224513393Y-106586431D01*
X224530134Y-106555110D01*
X224552661Y-106527661D01*
X224580110Y-106505134D01*
X224611431Y-106488393D01*
X224645409Y-106478085D01*
X224686890Y-106474000D01*
X225288110Y-106474000D01*
X225329591Y-106478085D01*
X225329591Y-106478085D01*
G37*
G36*
X223754591Y-106478085D02*
G01*
X223788569Y-106488393D01*
X223819890Y-106505134D01*
X223847339Y-106527661D01*
X223869866Y-106555110D01*
X223886607Y-106586431D01*
X223896915Y-106620409D01*
X223901000Y-106661890D01*
X223901000Y-107338110D01*
X223896915Y-107379591D01*
X223886607Y-107413569D01*
X223869866Y-107444890D01*
X223847339Y-107472339D01*
X223819890Y-107494866D01*
X223788569Y-107511607D01*
X223754591Y-107521915D01*
X223713110Y-107526000D01*
X223111890Y-107526000D01*
X223070409Y-107521915D01*
X223036431Y-107511607D01*
X223005110Y-107494866D01*
X222977661Y-107472339D01*
X222955134Y-107444890D01*
X222938393Y-107413569D01*
X222928085Y-107379591D01*
X222924000Y-107338110D01*
X222924000Y-106661890D01*
X222928085Y-106620409D01*
X222938393Y-106586431D01*
X222955134Y-106555110D01*
X222977661Y-106527661D01*
X223005110Y-106505134D01*
X223036431Y-106488393D01*
X223070409Y-106478085D01*
X223111890Y-106474000D01*
X223713110Y-106474000D01*
X223754591Y-106478085D01*
X223754591Y-106478085D01*
G37*
G36*
X218654591Y-105078085D02*
G01*
X218688569Y-105088393D01*
X218719890Y-105105134D01*
X218747339Y-105127661D01*
X218769866Y-105155110D01*
X218786607Y-105186431D01*
X218796915Y-105220409D01*
X218801000Y-105261890D01*
X218801000Y-105938110D01*
X218796915Y-105979591D01*
X218786607Y-106013569D01*
X218769866Y-106044890D01*
X218747339Y-106072339D01*
X218719890Y-106094866D01*
X218688569Y-106111607D01*
X218654591Y-106121915D01*
X218613110Y-106126000D01*
X218011890Y-106126000D01*
X217970409Y-106121915D01*
X217936431Y-106111607D01*
X217905110Y-106094866D01*
X217877661Y-106072339D01*
X217855134Y-106044890D01*
X217838393Y-106013569D01*
X217828085Y-105979591D01*
X217824000Y-105938110D01*
X217824000Y-105261890D01*
X217828085Y-105220409D01*
X217838393Y-105186431D01*
X217855134Y-105155110D01*
X217877661Y-105127661D01*
X217905110Y-105105134D01*
X217936431Y-105088393D01*
X217970409Y-105078085D01*
X218011890Y-105074000D01*
X218613110Y-105074000D01*
X218654591Y-105078085D01*
X218654591Y-105078085D01*
G37*
G36*
X220229591Y-105078085D02*
G01*
X220263569Y-105088393D01*
X220294890Y-105105134D01*
X220322339Y-105127661D01*
X220344866Y-105155110D01*
X220361607Y-105186431D01*
X220371915Y-105220409D01*
X220376000Y-105261890D01*
X220376000Y-105938110D01*
X220371915Y-105979591D01*
X220361607Y-106013569D01*
X220344866Y-106044890D01*
X220322339Y-106072339D01*
X220294890Y-106094866D01*
X220263569Y-106111607D01*
X220229591Y-106121915D01*
X220188110Y-106126000D01*
X219586890Y-106126000D01*
X219545409Y-106121915D01*
X219511431Y-106111607D01*
X219480110Y-106094866D01*
X219452661Y-106072339D01*
X219430134Y-106044890D01*
X219413393Y-106013569D01*
X219403085Y-105979591D01*
X219399000Y-105938110D01*
X219399000Y-105261890D01*
X219403085Y-105220409D01*
X219413393Y-105186431D01*
X219430134Y-105155110D01*
X219452661Y-105127661D01*
X219480110Y-105105134D01*
X219511431Y-105088393D01*
X219545409Y-105078085D01*
X219586890Y-105074000D01*
X220188110Y-105074000D01*
X220229591Y-105078085D01*
X220229591Y-105078085D01*
G37*
G36*
X223742091Y-104778085D02*
G01*
X223776069Y-104788393D01*
X223807390Y-104805134D01*
X223834839Y-104827661D01*
X223857366Y-104855110D01*
X223874107Y-104886431D01*
X223884415Y-104920409D01*
X223888500Y-104961890D01*
X223888500Y-105638110D01*
X223884415Y-105679591D01*
X223874107Y-105713569D01*
X223857366Y-105744890D01*
X223834839Y-105772339D01*
X223807390Y-105794866D01*
X223776069Y-105811607D01*
X223742091Y-105821915D01*
X223700610Y-105826000D01*
X223099390Y-105826000D01*
X223057909Y-105821915D01*
X223023931Y-105811607D01*
X222992610Y-105794866D01*
X222965161Y-105772339D01*
X222942634Y-105744890D01*
X222925893Y-105713569D01*
X222915585Y-105679591D01*
X222911500Y-105638110D01*
X222911500Y-104961890D01*
X222915585Y-104920409D01*
X222925893Y-104886431D01*
X222942634Y-104855110D01*
X222965161Y-104827661D01*
X222992610Y-104805134D01*
X223023931Y-104788393D01*
X223057909Y-104778085D01*
X223099390Y-104774000D01*
X223700610Y-104774000D01*
X223742091Y-104778085D01*
X223742091Y-104778085D01*
G37*
G36*
X225317091Y-104778085D02*
G01*
X225351069Y-104788393D01*
X225382390Y-104805134D01*
X225409839Y-104827661D01*
X225432366Y-104855110D01*
X225449107Y-104886431D01*
X225459415Y-104920409D01*
X225463500Y-104961890D01*
X225463500Y-105638110D01*
X225459415Y-105679591D01*
X225449107Y-105713569D01*
X225432366Y-105744890D01*
X225409839Y-105772339D01*
X225382390Y-105794866D01*
X225351069Y-105811607D01*
X225317091Y-105821915D01*
X225275610Y-105826000D01*
X224674390Y-105826000D01*
X224632909Y-105821915D01*
X224598931Y-105811607D01*
X224567610Y-105794866D01*
X224540161Y-105772339D01*
X224517634Y-105744890D01*
X224500893Y-105713569D01*
X224490585Y-105679591D01*
X224486500Y-105638110D01*
X224486500Y-104961890D01*
X224490585Y-104920409D01*
X224500893Y-104886431D01*
X224517634Y-104855110D01*
X224540161Y-104827661D01*
X224567610Y-104805134D01*
X224598931Y-104788393D01*
X224632909Y-104778085D01*
X224674390Y-104774000D01*
X225275610Y-104774000D01*
X225317091Y-104778085D01*
X225317091Y-104778085D01*
G37*
G36*
X220229591Y-103378085D02*
G01*
X220263569Y-103388393D01*
X220294890Y-103405134D01*
X220322339Y-103427661D01*
X220344866Y-103455110D01*
X220361607Y-103486431D01*
X220371915Y-103520409D01*
X220376000Y-103561890D01*
X220376000Y-104238110D01*
X220371915Y-104279591D01*
X220361607Y-104313569D01*
X220344866Y-104344890D01*
X220322339Y-104372339D01*
X220294890Y-104394866D01*
X220263569Y-104411607D01*
X220229591Y-104421915D01*
X220188110Y-104426000D01*
X219586890Y-104426000D01*
X219545409Y-104421915D01*
X219511431Y-104411607D01*
X219480110Y-104394866D01*
X219452661Y-104372339D01*
X219430134Y-104344890D01*
X219413393Y-104313569D01*
X219403085Y-104279591D01*
X219399000Y-104238110D01*
X219399000Y-103561890D01*
X219403085Y-103520409D01*
X219413393Y-103486431D01*
X219430134Y-103455110D01*
X219452661Y-103427661D01*
X219480110Y-103405134D01*
X219511431Y-103388393D01*
X219545409Y-103378085D01*
X219586890Y-103374000D01*
X220188110Y-103374000D01*
X220229591Y-103378085D01*
X220229591Y-103378085D01*
G37*
G36*
X218654591Y-103378085D02*
G01*
X218688569Y-103388393D01*
X218719890Y-103405134D01*
X218747339Y-103427661D01*
X218769866Y-103455110D01*
X218786607Y-103486431D01*
X218796915Y-103520409D01*
X218801000Y-103561890D01*
X218801000Y-104238110D01*
X218796915Y-104279591D01*
X218786607Y-104313569D01*
X218769866Y-104344890D01*
X218747339Y-104372339D01*
X218719890Y-104394866D01*
X218688569Y-104411607D01*
X218654591Y-104421915D01*
X218613110Y-104426000D01*
X218011890Y-104426000D01*
X217970409Y-104421915D01*
X217936431Y-104411607D01*
X217905110Y-104394866D01*
X217877661Y-104372339D01*
X217855134Y-104344890D01*
X217838393Y-104313569D01*
X217828085Y-104279591D01*
X217824000Y-104238110D01*
X217824000Y-103561890D01*
X217828085Y-103520409D01*
X217838393Y-103486431D01*
X217855134Y-103455110D01*
X217877661Y-103427661D01*
X217905110Y-103405134D01*
X217936431Y-103388393D01*
X217970409Y-103378085D01*
X218011890Y-103374000D01*
X218613110Y-103374000D01*
X218654591Y-103378085D01*
X218654591Y-103378085D01*
G37*
G36*
X223754591Y-103078085D02*
G01*
X223788569Y-103088393D01*
X223819890Y-103105134D01*
X223847339Y-103127661D01*
X223869866Y-103155110D01*
X223886607Y-103186431D01*
X223896915Y-103220409D01*
X223901000Y-103261890D01*
X223901000Y-103938110D01*
X223896915Y-103979591D01*
X223886607Y-104013569D01*
X223869866Y-104044890D01*
X223847339Y-104072339D01*
X223819890Y-104094866D01*
X223788569Y-104111607D01*
X223754591Y-104121915D01*
X223713110Y-104126000D01*
X223111890Y-104126000D01*
X223070409Y-104121915D01*
X223036431Y-104111607D01*
X223005110Y-104094866D01*
X222977661Y-104072339D01*
X222955134Y-104044890D01*
X222938393Y-104013569D01*
X222928085Y-103979591D01*
X222924000Y-103938110D01*
X222924000Y-103261890D01*
X222928085Y-103220409D01*
X222938393Y-103186431D01*
X222955134Y-103155110D01*
X222977661Y-103127661D01*
X223005110Y-103105134D01*
X223036431Y-103088393D01*
X223070409Y-103078085D01*
X223111890Y-103074000D01*
X223713110Y-103074000D01*
X223754591Y-103078085D01*
X223754591Y-103078085D01*
G37*
G36*
X225329591Y-103078085D02*
G01*
X225363569Y-103088393D01*
X225394890Y-103105134D01*
X225422339Y-103127661D01*
X225444866Y-103155110D01*
X225461607Y-103186431D01*
X225471915Y-103220409D01*
X225476000Y-103261890D01*
X225476000Y-103938110D01*
X225471915Y-103979591D01*
X225461607Y-104013569D01*
X225444866Y-104044890D01*
X225422339Y-104072339D01*
X225394890Y-104094866D01*
X225363569Y-104111607D01*
X225329591Y-104121915D01*
X225288110Y-104126000D01*
X224686890Y-104126000D01*
X224645409Y-104121915D01*
X224611431Y-104111607D01*
X224580110Y-104094866D01*
X224552661Y-104072339D01*
X224530134Y-104044890D01*
X224513393Y-104013569D01*
X224503085Y-103979591D01*
X224499000Y-103938110D01*
X224499000Y-103261890D01*
X224503085Y-103220409D01*
X224513393Y-103186431D01*
X224530134Y-103155110D01*
X224552661Y-103127661D01*
X224580110Y-103105134D01*
X224611431Y-103088393D01*
X224645409Y-103078085D01*
X224686890Y-103074000D01*
X225288110Y-103074000D01*
X225329591Y-103078085D01*
X225329591Y-103078085D01*
G37*
G36*
X218667091Y-101678085D02*
G01*
X218701069Y-101688393D01*
X218732390Y-101705134D01*
X218759839Y-101727661D01*
X218782366Y-101755110D01*
X218799107Y-101786431D01*
X218809415Y-101820409D01*
X218813500Y-101861890D01*
X218813500Y-102538110D01*
X218809415Y-102579591D01*
X218799107Y-102613569D01*
X218782366Y-102644890D01*
X218759839Y-102672339D01*
X218732390Y-102694866D01*
X218701069Y-102711607D01*
X218667091Y-102721915D01*
X218625610Y-102726000D01*
X218024390Y-102726000D01*
X217982909Y-102721915D01*
X217948931Y-102711607D01*
X217917610Y-102694866D01*
X217890161Y-102672339D01*
X217867634Y-102644890D01*
X217850893Y-102613569D01*
X217840585Y-102579591D01*
X217836500Y-102538110D01*
X217836500Y-101861890D01*
X217840585Y-101820409D01*
X217850893Y-101786431D01*
X217867634Y-101755110D01*
X217890161Y-101727661D01*
X217917610Y-101705134D01*
X217948931Y-101688393D01*
X217982909Y-101678085D01*
X218024390Y-101674000D01*
X218625610Y-101674000D01*
X218667091Y-101678085D01*
X218667091Y-101678085D01*
G37*
G36*
X220242091Y-101678085D02*
G01*
X220276069Y-101688393D01*
X220307390Y-101705134D01*
X220334839Y-101727661D01*
X220357366Y-101755110D01*
X220374107Y-101786431D01*
X220384415Y-101820409D01*
X220388500Y-101861890D01*
X220388500Y-102538110D01*
X220384415Y-102579591D01*
X220374107Y-102613569D01*
X220357366Y-102644890D01*
X220334839Y-102672339D01*
X220307390Y-102694866D01*
X220276069Y-102711607D01*
X220242091Y-102721915D01*
X220200610Y-102726000D01*
X219599390Y-102726000D01*
X219557909Y-102721915D01*
X219523931Y-102711607D01*
X219492610Y-102694866D01*
X219465161Y-102672339D01*
X219442634Y-102644890D01*
X219425893Y-102613569D01*
X219415585Y-102579591D01*
X219411500Y-102538110D01*
X219411500Y-101861890D01*
X219415585Y-101820409D01*
X219425893Y-101786431D01*
X219442634Y-101755110D01*
X219465161Y-101727661D01*
X219492610Y-101705134D01*
X219523931Y-101688393D01*
X219557909Y-101678085D01*
X219599390Y-101674000D01*
X220200610Y-101674000D01*
X220242091Y-101678085D01*
X220242091Y-101678085D01*
G37*
G36*
X223754591Y-101378085D02*
G01*
X223788569Y-101388393D01*
X223819890Y-101405134D01*
X223847339Y-101427661D01*
X223869866Y-101455110D01*
X223886607Y-101486431D01*
X223896915Y-101520409D01*
X223901000Y-101561890D01*
X223901000Y-102238110D01*
X223896915Y-102279591D01*
X223886607Y-102313569D01*
X223869866Y-102344890D01*
X223847339Y-102372339D01*
X223819890Y-102394866D01*
X223788569Y-102411607D01*
X223754591Y-102421915D01*
X223713110Y-102426000D01*
X223111890Y-102426000D01*
X223070409Y-102421915D01*
X223036431Y-102411607D01*
X223005110Y-102394866D01*
X222977661Y-102372339D01*
X222955134Y-102344890D01*
X222938393Y-102313569D01*
X222928085Y-102279591D01*
X222924000Y-102238110D01*
X222924000Y-101561890D01*
X222928085Y-101520409D01*
X222938393Y-101486431D01*
X222955134Y-101455110D01*
X222977661Y-101427661D01*
X223005110Y-101405134D01*
X223036431Y-101388393D01*
X223070409Y-101378085D01*
X223111890Y-101374000D01*
X223713110Y-101374000D01*
X223754591Y-101378085D01*
X223754591Y-101378085D01*
G37*
G36*
X225329591Y-101378085D02*
G01*
X225363569Y-101388393D01*
X225394890Y-101405134D01*
X225422339Y-101427661D01*
X225444866Y-101455110D01*
X225461607Y-101486431D01*
X225471915Y-101520409D01*
X225476000Y-101561890D01*
X225476000Y-102238110D01*
X225471915Y-102279591D01*
X225461607Y-102313569D01*
X225444866Y-102344890D01*
X225422339Y-102372339D01*
X225394890Y-102394866D01*
X225363569Y-102411607D01*
X225329591Y-102421915D01*
X225288110Y-102426000D01*
X224686890Y-102426000D01*
X224645409Y-102421915D01*
X224611431Y-102411607D01*
X224580110Y-102394866D01*
X224552661Y-102372339D01*
X224530134Y-102344890D01*
X224513393Y-102313569D01*
X224503085Y-102279591D01*
X224499000Y-102238110D01*
X224499000Y-101561890D01*
X224503085Y-101520409D01*
X224513393Y-101486431D01*
X224530134Y-101455110D01*
X224552661Y-101427661D01*
X224580110Y-101405134D01*
X224611431Y-101388393D01*
X224645409Y-101378085D01*
X224686890Y-101374000D01*
X225288110Y-101374000D01*
X225329591Y-101378085D01*
X225329591Y-101378085D01*
G37*
G36*
X220242091Y-99978085D02*
G01*
X220276069Y-99988393D01*
X220307390Y-100005134D01*
X220334839Y-100027661D01*
X220357366Y-100055110D01*
X220374107Y-100086431D01*
X220384415Y-100120409D01*
X220388500Y-100161890D01*
X220388500Y-100838110D01*
X220384415Y-100879591D01*
X220374107Y-100913569D01*
X220357366Y-100944890D01*
X220334839Y-100972339D01*
X220307390Y-100994866D01*
X220276069Y-101011607D01*
X220242091Y-101021915D01*
X220200610Y-101026000D01*
X219599390Y-101026000D01*
X219557909Y-101021915D01*
X219523931Y-101011607D01*
X219492610Y-100994866D01*
X219465161Y-100972339D01*
X219442634Y-100944890D01*
X219425893Y-100913569D01*
X219415585Y-100879591D01*
X219411500Y-100838110D01*
X219411500Y-100161890D01*
X219415585Y-100120409D01*
X219425893Y-100086431D01*
X219442634Y-100055110D01*
X219465161Y-100027661D01*
X219492610Y-100005134D01*
X219523931Y-99988393D01*
X219557909Y-99978085D01*
X219599390Y-99974000D01*
X220200610Y-99974000D01*
X220242091Y-99978085D01*
X220242091Y-99978085D01*
G37*
G36*
X218667091Y-99978085D02*
G01*
X218701069Y-99988393D01*
X218732390Y-100005134D01*
X218759839Y-100027661D01*
X218782366Y-100055110D01*
X218799107Y-100086431D01*
X218809415Y-100120409D01*
X218813500Y-100161890D01*
X218813500Y-100838110D01*
X218809415Y-100879591D01*
X218799107Y-100913569D01*
X218782366Y-100944890D01*
X218759839Y-100972339D01*
X218732390Y-100994866D01*
X218701069Y-101011607D01*
X218667091Y-101021915D01*
X218625610Y-101026000D01*
X218024390Y-101026000D01*
X217982909Y-101021915D01*
X217948931Y-101011607D01*
X217917610Y-100994866D01*
X217890161Y-100972339D01*
X217867634Y-100944890D01*
X217850893Y-100913569D01*
X217840585Y-100879591D01*
X217836500Y-100838110D01*
X217836500Y-100161890D01*
X217840585Y-100120409D01*
X217850893Y-100086431D01*
X217867634Y-100055110D01*
X217890161Y-100027661D01*
X217917610Y-100005134D01*
X217948931Y-99988393D01*
X217982909Y-99978085D01*
X218024390Y-99974000D01*
X218625610Y-99974000D01*
X218667091Y-99978085D01*
X218667091Y-99978085D01*
G37*
G36*
X218667091Y-98278085D02*
G01*
X218701069Y-98288393D01*
X218732390Y-98305134D01*
X218759839Y-98327661D01*
X218782366Y-98355110D01*
X218799107Y-98386431D01*
X218809415Y-98420409D01*
X218813500Y-98461890D01*
X218813500Y-99138110D01*
X218809415Y-99179591D01*
X218799107Y-99213569D01*
X218782366Y-99244890D01*
X218759839Y-99272339D01*
X218732390Y-99294866D01*
X218701069Y-99311607D01*
X218667091Y-99321915D01*
X218625610Y-99326000D01*
X218024390Y-99326000D01*
X217982909Y-99321915D01*
X217948931Y-99311607D01*
X217917610Y-99294866D01*
X217890161Y-99272339D01*
X217867634Y-99244890D01*
X217850893Y-99213569D01*
X217840585Y-99179591D01*
X217836500Y-99138110D01*
X217836500Y-98461890D01*
X217840585Y-98420409D01*
X217850893Y-98386431D01*
X217867634Y-98355110D01*
X217890161Y-98327661D01*
X217917610Y-98305134D01*
X217948931Y-98288393D01*
X217982909Y-98278085D01*
X218024390Y-98274000D01*
X218625610Y-98274000D01*
X218667091Y-98278085D01*
X218667091Y-98278085D01*
G37*
G36*
X220242091Y-98278085D02*
G01*
X220276069Y-98288393D01*
X220307390Y-98305134D01*
X220334839Y-98327661D01*
X220357366Y-98355110D01*
X220374107Y-98386431D01*
X220384415Y-98420409D01*
X220388500Y-98461890D01*
X220388500Y-99138110D01*
X220384415Y-99179591D01*
X220374107Y-99213569D01*
X220357366Y-99244890D01*
X220334839Y-99272339D01*
X220307390Y-99294866D01*
X220276069Y-99311607D01*
X220242091Y-99321915D01*
X220200610Y-99326000D01*
X219599390Y-99326000D01*
X219557909Y-99321915D01*
X219523931Y-99311607D01*
X219492610Y-99294866D01*
X219465161Y-99272339D01*
X219442634Y-99244890D01*
X219425893Y-99213569D01*
X219415585Y-99179591D01*
X219411500Y-99138110D01*
X219411500Y-98461890D01*
X219415585Y-98420409D01*
X219425893Y-98386431D01*
X219442634Y-98355110D01*
X219465161Y-98327661D01*
X219492610Y-98305134D01*
X219523931Y-98288393D01*
X219557909Y-98278085D01*
X219599390Y-98274000D01*
X220200610Y-98274000D01*
X220242091Y-98278085D01*
X220242091Y-98278085D01*
G37*
M02*
