G04 #@! TF.GenerationSoftware,KiCad,Pcbnew,5.1.4-1.fc30*
G04 #@! TF.CreationDate,2019-09-08T13:51:55+02:00*
G04 #@! TF.ProjectId,synchro2,73796e63-6872-46f3-922e-6b696361645f,rev?*
G04 #@! TF.SameCoordinates,Original*
G04 #@! TF.FileFunction,Legend,Bot*
G04 #@! TF.FilePolarity,Positive*
%FSLAX46Y46*%
G04 Gerber Fmt 4.6, Leading zero omitted, Abs format (unit mm)*
G04 Created by KiCad (PCBNEW 5.1.4-1.fc30) date 2019-09-08 13:51:55*
%MOMM*%
%LPD*%
G04 APERTURE LIST*
%ADD10C,0.120000*%
%ADD11C,0.150000*%
G04 APERTURE END LIST*
D10*
X227300000Y-126300000D02*
X227300000Y-106300000D01*
X239300000Y-126300000D02*
X227300000Y-126300000D01*
X227300000Y-106300000D02*
X239300000Y-106300000D01*
X239300000Y-106300000D02*
X239300000Y-126300000D01*
X210900000Y-106300000D02*
X210900000Y-126300000D01*
X198900000Y-106300000D02*
X210900000Y-106300000D01*
X210900000Y-126300000D02*
X198900000Y-126300000D01*
X198900000Y-126300000D02*
X198900000Y-106300000D01*
X227300000Y-116300000D02*
G75*
G03X227300000Y-116300000I-8200000J0D01*
G01*
X222948000Y-129564000D02*
X222948000Y-131214000D01*
X216344000Y-129563000D02*
X222948000Y-129564000D01*
X216344000Y-134863000D02*
X216344000Y-129563000D01*
X222948000Y-134897000D02*
X216344000Y-134897000D01*
X222948000Y-133230000D02*
X222948000Y-134880000D01*
X222948000Y-131230000D02*
G75*
G03X222948000Y-133230000I0J-1000000D01*
G01*
X232410000Y-128962779D02*
X232410000Y-128637221D01*
X231390000Y-128962779D02*
X231390000Y-128637221D01*
X227440000Y-104880000D02*
X228900000Y-104880000D01*
X227440000Y-101720000D02*
X229600000Y-101720000D01*
X227440000Y-101720000D02*
X227440000Y-102650000D01*
X227440000Y-104880000D02*
X227440000Y-103950000D01*
X210850000Y-124860000D02*
X208400000Y-124860000D01*
X209050000Y-121640000D02*
X210850000Y-121640000D01*
X221585000Y-98350000D02*
X221585000Y-106185000D01*
X221585000Y-106185000D02*
X216615000Y-106185000D01*
X216615000Y-106185000D02*
X216615000Y-98350000D01*
X231890000Y-105362779D02*
X231890000Y-105037221D01*
X232910000Y-105362779D02*
X232910000Y-105037221D01*
X206310000Y-121174721D02*
X206310000Y-121500279D01*
X205290000Y-121174721D02*
X205290000Y-121500279D01*
X222250000Y-128835000D02*
X215090000Y-128835000D01*
X215090000Y-128835000D02*
X215090000Y-124965000D01*
X215090000Y-124965000D02*
X222250000Y-124965000D01*
D11*
X225111904Y-131602380D02*
X225111904Y-132411904D01*
X225064285Y-132507142D01*
X225016666Y-132554761D01*
X224921428Y-132602380D01*
X224730952Y-132602380D01*
X224635714Y-132554761D01*
X224588095Y-132507142D01*
X224540476Y-132411904D01*
X224540476Y-131602380D01*
X224159523Y-131602380D02*
X223540476Y-131602380D01*
X223873809Y-131983333D01*
X223730952Y-131983333D01*
X223635714Y-132030952D01*
X223588095Y-132078571D01*
X223540476Y-132173809D01*
X223540476Y-132411904D01*
X223588095Y-132507142D01*
X223635714Y-132554761D01*
X223730952Y-132602380D01*
X224016666Y-132602380D01*
X224111904Y-132554761D01*
X224159523Y-132507142D01*
X230616666Y-131752380D02*
X230950000Y-131276190D01*
X231188095Y-131752380D02*
X231188095Y-130752380D01*
X230807142Y-130752380D01*
X230711904Y-130800000D01*
X230664285Y-130847619D01*
X230616666Y-130942857D01*
X230616666Y-131085714D01*
X230664285Y-131180952D01*
X230711904Y-131228571D01*
X230807142Y-131276190D01*
X231188095Y-131276190D01*
X230283333Y-130752380D02*
X229664285Y-130752380D01*
X229997619Y-131133333D01*
X229854761Y-131133333D01*
X229759523Y-131180952D01*
X229711904Y-131228571D01*
X229664285Y-131323809D01*
X229664285Y-131561904D01*
X229711904Y-131657142D01*
X229759523Y-131704761D01*
X229854761Y-131752380D01*
X230140476Y-131752380D01*
X230235714Y-131704761D01*
X230283333Y-131657142D01*
X228295238Y-101347619D02*
X228390476Y-101300000D01*
X228485714Y-101204761D01*
X228628571Y-101061904D01*
X228723809Y-101014285D01*
X228819047Y-101014285D01*
X228771428Y-101252380D02*
X228866666Y-101204761D01*
X228961904Y-101109523D01*
X229009523Y-100919047D01*
X229009523Y-100585714D01*
X228961904Y-100395238D01*
X228866666Y-100300000D01*
X228771428Y-100252380D01*
X228580952Y-100252380D01*
X228485714Y-100300000D01*
X228390476Y-100395238D01*
X228342857Y-100585714D01*
X228342857Y-100919047D01*
X228390476Y-101109523D01*
X228485714Y-101204761D01*
X228580952Y-101252380D01*
X228771428Y-101252380D01*
X227390476Y-101252380D02*
X227961904Y-101252380D01*
X227676190Y-101252380D02*
X227676190Y-100252380D01*
X227771428Y-100395238D01*
X227866666Y-100490476D01*
X227961904Y-100538095D01*
X207811904Y-125102380D02*
X207811904Y-125911904D01*
X207764285Y-126007142D01*
X207716666Y-126054761D01*
X207621428Y-126102380D01*
X207430952Y-126102380D01*
X207335714Y-126054761D01*
X207288095Y-126007142D01*
X207240476Y-125911904D01*
X207240476Y-125102380D01*
X206240476Y-126102380D02*
X206811904Y-126102380D01*
X206526190Y-126102380D02*
X206526190Y-125102380D01*
X206621428Y-125245238D01*
X206716666Y-125340476D01*
X206811904Y-125388095D01*
X222732380Y-101090476D02*
X221732380Y-101090476D01*
X222446666Y-101423809D01*
X221732380Y-101757142D01*
X222732380Y-101757142D01*
X222732380Y-102757142D02*
X222732380Y-102185714D01*
X222732380Y-102471428D02*
X221732380Y-102471428D01*
X221875238Y-102376190D01*
X221970476Y-102280952D01*
X222018095Y-102185714D01*
X235192857Y-108452380D02*
X235526190Y-107976190D01*
X235764285Y-108452380D02*
X235764285Y-107452380D01*
X235383333Y-107452380D01*
X235288095Y-107500000D01*
X235240476Y-107547619D01*
X235192857Y-107642857D01*
X235192857Y-107785714D01*
X235240476Y-107880952D01*
X235288095Y-107928571D01*
X235383333Y-107976190D01*
X235764285Y-107976190D01*
X234240476Y-108452380D02*
X234811904Y-108452380D01*
X234526190Y-108452380D02*
X234526190Y-107452380D01*
X234621428Y-107595238D01*
X234716666Y-107690476D01*
X234811904Y-107738095D01*
X233288095Y-108452380D02*
X233859523Y-108452380D01*
X233573809Y-108452380D02*
X233573809Y-107452380D01*
X233669047Y-107595238D01*
X233764285Y-107690476D01*
X233859523Y-107738095D01*
X203466666Y-120707142D02*
X203514285Y-120754761D01*
X203657142Y-120802380D01*
X203752380Y-120802380D01*
X203895238Y-120754761D01*
X203990476Y-120659523D01*
X204038095Y-120564285D01*
X204085714Y-120373809D01*
X204085714Y-120230952D01*
X204038095Y-120040476D01*
X203990476Y-119945238D01*
X203895238Y-119850000D01*
X203752380Y-119802380D01*
X203657142Y-119802380D01*
X203514285Y-119850000D01*
X203466666Y-119897619D01*
X202514285Y-120802380D02*
X203085714Y-120802380D01*
X202800000Y-120802380D02*
X202800000Y-119802380D01*
X202895238Y-119945238D01*
X202990476Y-120040476D01*
X203085714Y-120088095D01*
X214383333Y-124402380D02*
X214383333Y-125116666D01*
X214430952Y-125259523D01*
X214526190Y-125354761D01*
X214669047Y-125402380D01*
X214764285Y-125402380D01*
X213954761Y-124497619D02*
X213907142Y-124450000D01*
X213811904Y-124402380D01*
X213573809Y-124402380D01*
X213478571Y-124450000D01*
X213430952Y-124497619D01*
X213383333Y-124592857D01*
X213383333Y-124688095D01*
X213430952Y-124830952D01*
X214002380Y-125402380D01*
X213383333Y-125402380D01*
M02*
