G04 #@! TF.GenerationSoftware,KiCad,Pcbnew,5.1.4-1.fc30*
G04 #@! TF.CreationDate,2019-09-08T13:51:55+02:00*
G04 #@! TF.ProjectId,synchro2,73796e63-6872-46f3-922e-6b696361645f,rev?*
G04 #@! TF.SameCoordinates,Original*
G04 #@! TF.FileFunction,Soldermask,Bot*
G04 #@! TF.FilePolarity,Negative*
%FSLAX46Y46*%
G04 Gerber Fmt 4.6, Leading zero omitted, Abs format (unit mm)*
G04 Created by KiCad (PCBNEW 5.1.4-1.fc30) date 2019-09-08 13:51:55*
%MOMM*%
%LPD*%
G04 APERTURE LIST*
%ADD10C,0.100000*%
G04 APERTURE END LIST*
D10*
G36*
X221983000Y-134313000D02*
G01*
X220357000Y-134313000D01*
X220357000Y-132687000D01*
X221983000Y-132687000D01*
X221983000Y-134313000D01*
X221983000Y-134313000D01*
G37*
G36*
X218173000Y-134313000D02*
G01*
X216547000Y-134313000D01*
X216547000Y-132687000D01*
X218173000Y-132687000D01*
X218173000Y-134313000D01*
X218173000Y-134313000D01*
G37*
G36*
X221983000Y-131773000D02*
G01*
X220357000Y-131773000D01*
X220357000Y-130147000D01*
X221983000Y-130147000D01*
X221983000Y-131773000D01*
X221983000Y-131773000D01*
G37*
G36*
X218173000Y-131773000D02*
G01*
X216547000Y-131773000D01*
X216547000Y-130147000D01*
X218173000Y-130147000D01*
X218173000Y-131773000D01*
X218173000Y-131773000D01*
G37*
G36*
X232279591Y-129103085D02*
G01*
X232313569Y-129113393D01*
X232344890Y-129130134D01*
X232372339Y-129152661D01*
X232394866Y-129180110D01*
X232411607Y-129211431D01*
X232421915Y-129245409D01*
X232426000Y-129286890D01*
X232426000Y-129888110D01*
X232421915Y-129929591D01*
X232411607Y-129963569D01*
X232394866Y-129994890D01*
X232372339Y-130022339D01*
X232344890Y-130044866D01*
X232313569Y-130061607D01*
X232279591Y-130071915D01*
X232238110Y-130076000D01*
X231561890Y-130076000D01*
X231520409Y-130071915D01*
X231486431Y-130061607D01*
X231455110Y-130044866D01*
X231427661Y-130022339D01*
X231405134Y-129994890D01*
X231388393Y-129963569D01*
X231378085Y-129929591D01*
X231374000Y-129888110D01*
X231374000Y-129286890D01*
X231378085Y-129245409D01*
X231388393Y-129211431D01*
X231405134Y-129180110D01*
X231427661Y-129152661D01*
X231455110Y-129130134D01*
X231486431Y-129113393D01*
X231520409Y-129103085D01*
X231561890Y-129099000D01*
X232238110Y-129099000D01*
X232279591Y-129103085D01*
X232279591Y-129103085D01*
G37*
G36*
X222753820Y-125178103D02*
G01*
X222787985Y-125188467D01*
X222819464Y-125205293D01*
X222847060Y-125227940D01*
X222869707Y-125255536D01*
X222886533Y-125287015D01*
X222896897Y-125321180D01*
X222901000Y-125362842D01*
X222901000Y-128437158D01*
X222896897Y-128478820D01*
X222886533Y-128512985D01*
X222869707Y-128544464D01*
X222847060Y-128572060D01*
X222819464Y-128594707D01*
X222787985Y-128611533D01*
X222753820Y-128621897D01*
X222712158Y-128626000D01*
X221462842Y-128626000D01*
X221421180Y-128621897D01*
X221387015Y-128611533D01*
X221355536Y-128594707D01*
X221327940Y-128572060D01*
X221305293Y-128544464D01*
X221288467Y-128512985D01*
X221278103Y-128478820D01*
X221274000Y-128437158D01*
X221274000Y-125362842D01*
X221278103Y-125321180D01*
X221288467Y-125287015D01*
X221305293Y-125255536D01*
X221327940Y-125227940D01*
X221355536Y-125205293D01*
X221387015Y-125188467D01*
X221421180Y-125178103D01*
X221462842Y-125174000D01*
X222712158Y-125174000D01*
X222753820Y-125178103D01*
X222753820Y-125178103D01*
G37*
G36*
X216778820Y-125178103D02*
G01*
X216812985Y-125188467D01*
X216844464Y-125205293D01*
X216872060Y-125227940D01*
X216894707Y-125255536D01*
X216911533Y-125287015D01*
X216921897Y-125321180D01*
X216926000Y-125362842D01*
X216926000Y-128437158D01*
X216921897Y-128478820D01*
X216911533Y-128512985D01*
X216894707Y-128544464D01*
X216872060Y-128572060D01*
X216844464Y-128594707D01*
X216812985Y-128611533D01*
X216778820Y-128621897D01*
X216737158Y-128626000D01*
X215487842Y-128626000D01*
X215446180Y-128621897D01*
X215412015Y-128611533D01*
X215380536Y-128594707D01*
X215352940Y-128572060D01*
X215330293Y-128544464D01*
X215313467Y-128512985D01*
X215303103Y-128478820D01*
X215299000Y-128437158D01*
X215299000Y-125362842D01*
X215303103Y-125321180D01*
X215313467Y-125287015D01*
X215330293Y-125255536D01*
X215352940Y-125227940D01*
X215380536Y-125205293D01*
X215412015Y-125188467D01*
X215446180Y-125178103D01*
X215487842Y-125174000D01*
X216737158Y-125174000D01*
X216778820Y-125178103D01*
X216778820Y-125178103D01*
G37*
G36*
X232279591Y-127528085D02*
G01*
X232313569Y-127538393D01*
X232344890Y-127555134D01*
X232372339Y-127577661D01*
X232394866Y-127605110D01*
X232411607Y-127636431D01*
X232421915Y-127670409D01*
X232426000Y-127711890D01*
X232426000Y-128313110D01*
X232421915Y-128354591D01*
X232411607Y-128388569D01*
X232394866Y-128419890D01*
X232372339Y-128447339D01*
X232344890Y-128469866D01*
X232313569Y-128486607D01*
X232279591Y-128496915D01*
X232238110Y-128501000D01*
X231561890Y-128501000D01*
X231520409Y-128496915D01*
X231486431Y-128486607D01*
X231455110Y-128469866D01*
X231427661Y-128447339D01*
X231405134Y-128419890D01*
X231388393Y-128388569D01*
X231378085Y-128354591D01*
X231374000Y-128313110D01*
X231374000Y-127711890D01*
X231378085Y-127670409D01*
X231388393Y-127636431D01*
X231405134Y-127605110D01*
X231427661Y-127577661D01*
X231455110Y-127555134D01*
X231486431Y-127538393D01*
X231520409Y-127528085D01*
X231561890Y-127524000D01*
X232238110Y-127524000D01*
X232279591Y-127528085D01*
X232279591Y-127528085D01*
G37*
G36*
X211631000Y-124576000D02*
G01*
X210469000Y-124576000D01*
X210469000Y-123824000D01*
X211631000Y-123824000D01*
X211631000Y-124576000D01*
X211631000Y-124576000D01*
G37*
G36*
X209431000Y-124576000D02*
G01*
X208269000Y-124576000D01*
X208269000Y-121924000D01*
X209431000Y-121924000D01*
X209431000Y-124576000D01*
X209431000Y-124576000D01*
G37*
G36*
X211631000Y-122676000D02*
G01*
X210469000Y-122676000D01*
X210469000Y-121924000D01*
X211631000Y-121924000D01*
X211631000Y-122676000D01*
X211631000Y-122676000D01*
G37*
G36*
X206179591Y-121640585D02*
G01*
X206213569Y-121650893D01*
X206244890Y-121667634D01*
X206272339Y-121690161D01*
X206294866Y-121717610D01*
X206311607Y-121748931D01*
X206321915Y-121782909D01*
X206326000Y-121824390D01*
X206326000Y-122425610D01*
X206321915Y-122467091D01*
X206311607Y-122501069D01*
X206294866Y-122532390D01*
X206272339Y-122559839D01*
X206244890Y-122582366D01*
X206213569Y-122599107D01*
X206179591Y-122609415D01*
X206138110Y-122613500D01*
X205461890Y-122613500D01*
X205420409Y-122609415D01*
X205386431Y-122599107D01*
X205355110Y-122582366D01*
X205327661Y-122559839D01*
X205305134Y-122532390D01*
X205288393Y-122501069D01*
X205278085Y-122467091D01*
X205274000Y-122425610D01*
X205274000Y-121824390D01*
X205278085Y-121782909D01*
X205288393Y-121748931D01*
X205305134Y-121717610D01*
X205327661Y-121690161D01*
X205355110Y-121667634D01*
X205386431Y-121650893D01*
X205420409Y-121640585D01*
X205461890Y-121636500D01*
X206138110Y-121636500D01*
X206179591Y-121640585D01*
X206179591Y-121640585D01*
G37*
G36*
X206179591Y-120065585D02*
G01*
X206213569Y-120075893D01*
X206244890Y-120092634D01*
X206272339Y-120115161D01*
X206294866Y-120142610D01*
X206311607Y-120173931D01*
X206321915Y-120207909D01*
X206326000Y-120249390D01*
X206326000Y-120850610D01*
X206321915Y-120892091D01*
X206311607Y-120926069D01*
X206294866Y-120957390D01*
X206272339Y-120984839D01*
X206244890Y-121007366D01*
X206213569Y-121024107D01*
X206179591Y-121034415D01*
X206138110Y-121038500D01*
X205461890Y-121038500D01*
X205420409Y-121034415D01*
X205386431Y-121024107D01*
X205355110Y-121007366D01*
X205327661Y-120984839D01*
X205305134Y-120957390D01*
X205288393Y-120926069D01*
X205278085Y-120892091D01*
X205274000Y-120850610D01*
X205274000Y-120249390D01*
X205278085Y-120207909D01*
X205288393Y-120173931D01*
X205305134Y-120142610D01*
X205327661Y-120115161D01*
X205355110Y-120092634D01*
X205386431Y-120075893D01*
X205420409Y-120065585D01*
X205461890Y-120061500D01*
X206138110Y-120061500D01*
X206179591Y-120065585D01*
X206179591Y-120065585D01*
G37*
G36*
X206106494Y-109701570D02*
G01*
X206172678Y-109708088D01*
X206342517Y-109759608D01*
X206499042Y-109843273D01*
X206534780Y-109872603D01*
X206636237Y-109955865D01*
X206719499Y-110057322D01*
X206748829Y-110093060D01*
X206832494Y-110249585D01*
X206884014Y-110419424D01*
X206901410Y-110596051D01*
X206884014Y-110772678D01*
X206832494Y-110942517D01*
X206748829Y-111099042D01*
X206719499Y-111134780D01*
X206636237Y-111236237D01*
X206534780Y-111319499D01*
X206499042Y-111348829D01*
X206342517Y-111432494D01*
X206172678Y-111484014D01*
X206106494Y-111490532D01*
X206040311Y-111497051D01*
X205951791Y-111497051D01*
X205885608Y-111490532D01*
X205819424Y-111484014D01*
X205649585Y-111432494D01*
X205493060Y-111348829D01*
X205457322Y-111319499D01*
X205355865Y-111236237D01*
X205272603Y-111134780D01*
X205243273Y-111099042D01*
X205159608Y-110942517D01*
X205108088Y-110772678D01*
X205090692Y-110596051D01*
X205108088Y-110419424D01*
X205159608Y-110249585D01*
X205243273Y-110093060D01*
X205272603Y-110057322D01*
X205355865Y-109955865D01*
X205457322Y-109872603D01*
X205493060Y-109843273D01*
X205649585Y-109759608D01*
X205819424Y-109708088D01*
X205885608Y-109701570D01*
X205951791Y-109695051D01*
X206040311Y-109695051D01*
X206106494Y-109701570D01*
X206106494Y-109701570D01*
G37*
G36*
X205474206Y-108800000D02*
G01*
X204200000Y-110074206D01*
X202925794Y-108800000D01*
X204200000Y-107525794D01*
X205474206Y-108800000D01*
X205474206Y-108800000D01*
G37*
G36*
X232779591Y-105503085D02*
G01*
X232813569Y-105513393D01*
X232844890Y-105530134D01*
X232872339Y-105552661D01*
X232894866Y-105580110D01*
X232911607Y-105611431D01*
X232921915Y-105645409D01*
X232926000Y-105686890D01*
X232926000Y-106288110D01*
X232921915Y-106329591D01*
X232911607Y-106363569D01*
X232894866Y-106394890D01*
X232872339Y-106422339D01*
X232844890Y-106444866D01*
X232813569Y-106461607D01*
X232779591Y-106471915D01*
X232738110Y-106476000D01*
X232061890Y-106476000D01*
X232020409Y-106471915D01*
X231986431Y-106461607D01*
X231955110Y-106444866D01*
X231927661Y-106422339D01*
X231905134Y-106394890D01*
X231888393Y-106363569D01*
X231878085Y-106329591D01*
X231874000Y-106288110D01*
X231874000Y-105686890D01*
X231878085Y-105645409D01*
X231888393Y-105611431D01*
X231905134Y-105580110D01*
X231927661Y-105552661D01*
X231955110Y-105530134D01*
X231986431Y-105513393D01*
X232020409Y-105503085D01*
X232061890Y-105499000D01*
X232738110Y-105499000D01*
X232779591Y-105503085D01*
X232779591Y-105503085D01*
G37*
G36*
X221251850Y-102852554D02*
G01*
X221280647Y-102861290D01*
X221307179Y-102875471D01*
X221330439Y-102894561D01*
X221349529Y-102917821D01*
X221363710Y-102944353D01*
X221372446Y-102973150D01*
X221376000Y-103009233D01*
X221376000Y-105815767D01*
X221372446Y-105851850D01*
X221363710Y-105880647D01*
X221349529Y-105907179D01*
X221330439Y-105930439D01*
X221307179Y-105949529D01*
X221280647Y-105963710D01*
X221251850Y-105972446D01*
X221215767Y-105976000D01*
X216984233Y-105976000D01*
X216948150Y-105972446D01*
X216919353Y-105963710D01*
X216892821Y-105949529D01*
X216869561Y-105930439D01*
X216850471Y-105907179D01*
X216836290Y-105880647D01*
X216827554Y-105851850D01*
X216824000Y-105815767D01*
X216824000Y-103009233D01*
X216827554Y-102973150D01*
X216836290Y-102944353D01*
X216850471Y-102917821D01*
X216869561Y-102894561D01*
X216892821Y-102875471D01*
X216919353Y-102861290D01*
X216948150Y-102852554D01*
X216984233Y-102849000D01*
X221215767Y-102849000D01*
X221251850Y-102852554D01*
X221251850Y-102852554D01*
G37*
G36*
X232779591Y-103928085D02*
G01*
X232813569Y-103938393D01*
X232844890Y-103955134D01*
X232872339Y-103977661D01*
X232894866Y-104005110D01*
X232911607Y-104036431D01*
X232921915Y-104070409D01*
X232926000Y-104111890D01*
X232926000Y-104713110D01*
X232921915Y-104754591D01*
X232911607Y-104788569D01*
X232894866Y-104819890D01*
X232872339Y-104847339D01*
X232844890Y-104869866D01*
X232813569Y-104886607D01*
X232779591Y-104896915D01*
X232738110Y-104901000D01*
X232061890Y-104901000D01*
X232020409Y-104896915D01*
X231986431Y-104886607D01*
X231955110Y-104869866D01*
X231927661Y-104847339D01*
X231905134Y-104819890D01*
X231888393Y-104788569D01*
X231878085Y-104754591D01*
X231874000Y-104713110D01*
X231874000Y-104111890D01*
X231878085Y-104070409D01*
X231888393Y-104036431D01*
X231905134Y-104005110D01*
X231927661Y-103977661D01*
X231955110Y-103955134D01*
X231986431Y-103938393D01*
X232020409Y-103928085D01*
X232061890Y-103924000D01*
X232738110Y-103924000D01*
X232779591Y-103928085D01*
X232779591Y-103928085D01*
G37*
G36*
X229701000Y-104701000D02*
G01*
X228699000Y-104701000D01*
X228699000Y-103799000D01*
X229701000Y-103799000D01*
X229701000Y-104701000D01*
X229701000Y-104701000D01*
G37*
G36*
X227701000Y-103751000D02*
G01*
X226699000Y-103751000D01*
X226699000Y-102849000D01*
X227701000Y-102849000D01*
X227701000Y-103751000D01*
X227701000Y-103751000D01*
G37*
G36*
X229701000Y-102801000D02*
G01*
X228699000Y-102801000D01*
X228699000Y-101899000D01*
X229701000Y-101899000D01*
X229701000Y-102801000D01*
X229701000Y-102801000D01*
G37*
G36*
X221251850Y-97827554D02*
G01*
X221280647Y-97836290D01*
X221307179Y-97850471D01*
X221330439Y-97869561D01*
X221349529Y-97892821D01*
X221363710Y-97919353D01*
X221372446Y-97948150D01*
X221376000Y-97984233D01*
X221376000Y-100790767D01*
X221372446Y-100826850D01*
X221363710Y-100855647D01*
X221349529Y-100882179D01*
X221330439Y-100905439D01*
X221307179Y-100924529D01*
X221280647Y-100938710D01*
X221251850Y-100947446D01*
X221215767Y-100951000D01*
X216984233Y-100951000D01*
X216948150Y-100947446D01*
X216919353Y-100938710D01*
X216892821Y-100924529D01*
X216869561Y-100905439D01*
X216850471Y-100882179D01*
X216836290Y-100855647D01*
X216827554Y-100826850D01*
X216824000Y-100790767D01*
X216824000Y-97984233D01*
X216827554Y-97948150D01*
X216836290Y-97919353D01*
X216850471Y-97892821D01*
X216869561Y-97869561D01*
X216892821Y-97850471D01*
X216919353Y-97836290D01*
X216948150Y-97827554D01*
X216984233Y-97824000D01*
X221215767Y-97824000D01*
X221251850Y-97827554D01*
X221251850Y-97827554D01*
G37*
M02*
