  0
SECTION
  2
HEADER
  9
$ANGBASE
  50
0.0
  9
$ANGDIR
  70
1
  9
$MEASUREMENT
  70
0
  0
ENDSEC
  0
SECTION
  2
TABLES
  0
TABLE
  2
LTYPE
  70
4
  0
LTYPE
  5
40F
  2
CONTINUOUS
  70
0
  3
Solid line
  72
65
  73
0
  40
0.0
  0
LTYPE
  5
410
  2
DASHDOT
 70
0
  3
Dash Dot ____ _ ____ _
 72
65
 73
4
 40
2.0
 49
1.25
 49
-0.25
 49
0.25
 49
-0.25
  0
LTYPE
  5
411
  2
DASHED
 70
0
  3
Dashed __ __ __ __ __
 72
65
 73
2
 40
0.75
 49
0.5
 49
-0.25
  0
LTYPE
  5
43B
  2
DOTTED
 70
0
  3
Dotted .  .  .  .
 72
65
 73
2
 40
0.2
 49
0.0
 49
-0.2
  0
ENDTAB
  0
TABLE
  2
STYLE
  70
4
  0
STYLE
  2
KICAD
  70
0
  40
0
  41
1
  42
1
  50
0
  71
0
  3
isocp.shx
  0
STYLE
  2
KICADB
  70
0
  40
0
  41
1
  42
1
  50
0
  71
0
  3
isocp.shx
  0
STYLE
  2
KICADI
  70
0
  40
0
  41
1
  42
1
  50
15
  71
0
  3
isocp.shx
  0
STYLE
  2
KICADBI
  70
0
  40
0
  41
1
  42
1
  50
15
  71
0
  3
isocp.shx
  0
ENDTAB
  0
TABLE
  2
LAYER
  70
1
  0
LAYER
  2
BLACK
  70
0
  62
7
  6
CONTINUOUS
  0
ENDTAB
  0
ENDSEC
  0
SECTION
  2
ENTITIES
0
LINE
8
BLACK
6
CONTINUOUS
10
6.62452
20
-5.07086
11
6.54464
21
-5.06415
0
LINE
8
BLACK
6
CONTINUOUS
10
6.54464
20
-5.06415
11
6.54464
21
-5.06415
0
LINE
8
BLACK
6
CONTINUOUS
10
6.54464
20
-5.06415
11
6.54456
21
-5.06414
0
LINE
8
BLACK
6
CONTINUOUS
10
6.54456
20
-5.06414
11
6.46546
21
-5.05119
0
LINE
8
BLACK
6
CONTINUOUS
10
6.46546
20
-5.05119
11
6.46538
21
-5.05117
0
LINE
8
BLACK
6
CONTINUOUS
10
6.46538
20
-5.05117
11
6.46538
21
-5.05117
0
LINE
8
BLACK
6
CONTINUOUS
10
6.46538
20
-5.05117
11
6.38754
21
-5.03205
0
LINE
8
BLACK
6
CONTINUOUS
10
6.38754
20
-5.03205
11
6.38753
21
-5.03205
0
LINE
8
BLACK
6
CONTINUOUS
10
6.38753
20
-5.03205
11
6.38746
21
-5.03203
0
LINE
8
BLACK
6
CONTINUOUS
10
6.38746
20
-5.03203
11
6.31135
21
-5.00686
0
LINE
8
BLACK
6
CONTINUOUS
10
6.31135
20
-5.00686
11
6.31131
21
-5.00685
0
LINE
8
BLACK
6
CONTINUOUS
10
6.31131
20
-5.00685
11
6.31128
21
-5.00684
0
LINE
8
BLACK
6
CONTINUOUS
10
6.31128
20
-5.00684
11
6.23739
21
-4.97577
0
LINE
8
BLACK
6
CONTINUOUS
10
6.23739
20
-4.97577
11
6.23735
21
-4.97576
0
LINE
8
BLACK
6
CONTINUOUS
10
6.23735
20
-4.97576
11
6.23732
21
-4.97574
0
LINE
8
BLACK
6
CONTINUOUS
10
6.23732
20
-4.97574
11
6.17663
21
-4.94481
0
LINE
8
BLACK
6
CONTINUOUS
10
6.17663
20
-4.94481
11
6.17681
21
-5.07436
0
LINE
8
BLACK
6
CONTINUOUS
10
6.17681
20
-5.07436
11
6.17682
21
-5.07441
0
LINE
8
BLACK
6
CONTINUOUS
10
6.17682
20
-5.07441
11
6.1768
21
-5.07453
0
LINE
8
BLACK
6
CONTINUOUS
10
6.1768
20
-5.07453
11
6.1768
21
-5.0746
0
LINE
8
BLACK
6
CONTINUOUS
10
6.1768
20
-5.0746
11
6.1768
21
-5.0746
0
LINE
8
BLACK
6
CONTINUOUS
10
6.1768
20
-5.0746
11
6.1768
21
-5.0746
0
LINE
8
BLACK
6
CONTINUOUS
10
6.1768
20
-5.0746
11
6.17677
21
-5.0747
0
LINE
8
BLACK
6
CONTINUOUS
10
6.17677
20
-5.0747
11
6.17674
21
-5.07479
0
LINE
8
BLACK
6
CONTINUOUS
10
6.17674
20
-5.07479
11
6.17674
21
-5.07479
0
LINE
8
BLACK
6
CONTINUOUS
10
6.17674
20
-5.07479
11
6.17674
21
-5.07479
0
LINE
8
BLACK
6
CONTINUOUS
10
6.17674
20
-5.07479
11
6.17669
21
-5.07488
0
LINE
8
BLACK
6
CONTINUOUS
10
6.17669
20
-5.07488
11
6.17665
21
-5.07496
0
LINE
8
BLACK
6
CONTINUOUS
10
6.17665
20
-5.07496
11
6.17665
21
-5.07496
0
LINE
8
BLACK
6
CONTINUOUS
10
6.17665
20
-5.07496
11
6.17665
21
-5.07496
0
LINE
8
BLACK
6
CONTINUOUS
10
6.17665
20
-5.07496
11
6.17659
21
-5.07503
0
LINE
8
BLACK
6
CONTINUOUS
10
6.17659
20
-5.07503
11
6.17653
21
-5.07511
0
LINE
8
BLACK
6
CONTINUOUS
10
6.17653
20
-5.07511
11
6.17653
21
-5.07511
0
LINE
8
BLACK
6
CONTINUOUS
10
6.17653
20
-5.07511
11
6.17653
21
-5.07511
0
LINE
8
BLACK
6
CONTINUOUS
10
6.17653
20
-5.07511
11
6.17644
21
-5.07518
0
LINE
8
BLACK
6
CONTINUOUS
10
6.17644
20
-5.07518
11
6.17638
21
-5.07523
0
LINE
8
BLACK
6
CONTINUOUS
10
6.17638
20
-5.07523
11
6.17638
21
-5.07523
0
LINE
8
BLACK
6
CONTINUOUS
10
6.17638
20
-5.07523
11
6.17638
21
-5.07523
0
LINE
8
BLACK
6
CONTINUOUS
10
6.17638
20
-5.07523
11
6.17626
21
-5.07529
0
LINE
8
BLACK
6
CONTINUOUS
10
6.17626
20
-5.07529
11
6.17621
21
-5.07532
0
LINE
8
BLACK
6
CONTINUOUS
10
6.17621
20
-5.07532
11
6.17621
21
-5.07532
0
LINE
8
BLACK
6
CONTINUOUS
10
6.17621
20
-5.07532
11
6.17621
21
-5.07532
0
LINE
8
BLACK
6
CONTINUOUS
10
6.17621
20
-5.07532
11
6.1761
21
-5.07535
0
LINE
8
BLACK
6
CONTINUOUS
10
6.1761
20
-5.07535
11
6.17602
21
-5.07538
0
LINE
8
BLACK
6
CONTINUOUS
10
6.17602
20
-5.07538
11
6.17602
21
-5.07538
0
LINE
8
BLACK
6
CONTINUOUS
10
6.17602
20
-5.07538
11
6.17602
21
-5.07538
0
LINE
8
BLACK
6
CONTINUOUS
10
6.17602
20
-5.07538
11
6.1759
21
-5.07539
0
LINE
8
BLACK
6
CONTINUOUS
10
6.1759
20
-5.07539
11
6.17583
21
-5.0754
0
LINE
8
BLACK
6
CONTINUOUS
10
6.17583
20
-5.0754
11
6.17578
21
-5.07539
0
LINE
8
BLACK
6
CONTINUOUS
10
6.17578
20
-5.07539
11
5.97569
21
-5.07539
0
LINE
8
BLACK
6
CONTINUOUS
10
5.97569
20
-5.07539
11
5.97568
21
-5.07539
0
LINE
8
BLACK
6
CONTINUOUS
10
5.97568
20
-5.07539
11
5.9756
21
-5.07539
0
LINE
8
BLACK
6
CONTINUOUS
10
5.9756
20
-5.07539
11
5.97554
21
-5.07539
0
LINE
8
BLACK
6
CONTINUOUS
10
5.97554
20
-5.07539
11
5.97554
21
-5.07539
0
LINE
8
BLACK
6
CONTINUOUS
10
5.97554
20
-5.07539
11
5.97549
21
-5.07539
0
LINE
8
BLACK
6
CONTINUOUS
10
5.97549
20
-5.07539
11
5.97544
21
-5.07538
0
LINE
8
BLACK
6
CONTINUOUS
10
5.97544
20
-5.07538
11
5.9754
21
-5.07538
0
LINE
8
BLACK
6
CONTINUOUS
10
5.9754
20
-5.07538
11
5.97535
21
-5.07536
0
LINE
8
BLACK
6
CONTINUOUS
10
5.97535
20
-5.07536
11
5.9753
21
-5.07535
0
LINE
8
BLACK
6
CONTINUOUS
10
5.9753
20
-5.07535
11
5.97526
21
-5.07534
0
LINE
8
BLACK
6
CONTINUOUS
10
5.97526
20
-5.07534
11
5.97521
21
-5.07532
0
LINE
8
BLACK
6
CONTINUOUS
10
5.97521
20
-5.07532
11
5.97517
21
-5.0753
0
LINE
8
BLACK
6
CONTINUOUS
10
5.97517
20
-5.0753
11
5.97512
21
-5.07528
0
LINE
8
BLACK
6
CONTINUOUS
10
5.97512
20
-5.07528
11
5.97508
21
-5.07525
0
LINE
8
BLACK
6
CONTINUOUS
10
5.97508
20
-5.07525
11
5.97504
21
-5.07523
0
LINE
8
BLACK
6
CONTINUOUS
10
5.97504
20
-5.07523
11
5.975
21
-5.0752
0
LINE
8
BLACK
6
CONTINUOUS
10
5.975
20
-5.0752
11
5.97496
21
-5.07517
0
LINE
8
BLACK
6
CONTINUOUS
10
5.97496
20
-5.07517
11
5.97493
21
-5.07514
0
LINE
8
BLACK
6
CONTINUOUS
10
5.97493
20
-5.07514
11
5.97489
21
-5.07511
0
LINE
8
BLACK
6
CONTINUOUS
10
5.97489
20
-5.07511
11
5.97486
21
-5.07507
0
LINE
8
BLACK
6
CONTINUOUS
10
5.97486
20
-5.07507
11
5.97482
21
-5.07503
0
LINE
8
BLACK
6
CONTINUOUS
10
5.97482
20
-5.07503
11
5.9748
21
-5.075
0
LINE
8
BLACK
6
CONTINUOUS
10
5.9748
20
-5.075
11
5.97477
21
-5.07496
0
LINE
8
BLACK
6
CONTINUOUS
10
5.97477
20
-5.07496
11
5.97474
21
-5.07491
0
LINE
8
BLACK
6
CONTINUOUS
10
5.97474
20
-5.07491
11
5.97472
21
-5.07487
0
LINE
8
BLACK
6
CONTINUOUS
10
5.97472
20
-5.07487
11
5.9747
21
-5.07483
0
LINE
8
BLACK
6
CONTINUOUS
10
5.9747
20
-5.07483
11
5.97468
21
-5.07479
0
LINE
8
BLACK
6
CONTINUOUS
10
5.97468
20
-5.07479
11
5.97466
21
-5.07474
0
LINE
8
BLACK
6
CONTINUOUS
10
5.97466
20
-5.07474
11
5.97466
21
-5.07474
0
LINE
8
BLACK
6
CONTINUOUS
10
5.97466
20
-5.07474
11
5.97464
21
-5.07468
0
LINE
8
BLACK
6
CONTINUOUS
10
5.97464
20
-5.07468
11
5.97462
21
-5.0746
0
LINE
8
BLACK
6
CONTINUOUS
10
5.97462
20
-5.0746
11
5.97462
21
-5.0746
0
LINE
8
BLACK
6
CONTINUOUS
10
5.97462
20
-5.0746
11
5.85107
21
-4.66145
0
LINE
8
BLACK
6
CONTINUOUS
10
5.85107
20
-4.66145
11
5.80574
21
-4.59552
0
LINE
8
BLACK
6
CONTINUOUS
10
5.80574
20
-4.59552
11
5.80574
21
-4.59552
0
LINE
8
BLACK
6
CONTINUOUS
10
5.80574
20
-4.59552
11
5.8057
21
-4.59545
0
LINE
8
BLACK
6
CONTINUOUS
10
5.8057
20
-4.59545
11
5.7656
21
-4.52602
0
LINE
8
BLACK
6
CONTINUOUS
10
5.7656
20
-4.52602
11
5.76557
21
-4.52596
0
LINE
8
BLACK
6
CONTINUOUS
10
5.76557
20
-4.52596
11
5.73104
21
-4.4536
0
LINE
8
BLACK
6
CONTINUOUS
10
5.73104
20
-4.4536
11
5.73101
21
-4.45353
0
LINE
8
BLACK
6
CONTINUOUS
10
5.73101
20
-4.45353
11
5.73101
21
-4.45353
0
LINE
8
BLACK
6
CONTINUOUS
10
5.73101
20
-4.45353
11
5.70227
21
-4.37869
0
LINE
8
BLACK
6
CONTINUOUS
10
5.70227
20
-4.37869
11
5.70227
21
-4.37869
0
LINE
8
BLACK
6
CONTINUOUS
10
5.70227
20
-4.37869
11
5.70225
21
-4.37861
0
LINE
8
BLACK
6
CONTINUOUS
10
5.70225
20
-4.37861
11
5.67947
21
-4.30174
0
LINE
8
BLACK
6
CONTINUOUS
10
5.67947
20
-4.30174
11
5.67945
21
-4.30167
0
LINE
8
BLACK
6
CONTINUOUS
10
5.67945
20
-4.30167
11
5.67945
21
-4.30167
0
LINE
8
BLACK
6
CONTINUOUS
10
5.67945
20
-4.30167
11
5.66277
21
-4.22325
0
LINE
8
BLACK
6
CONTINUOUS
10
5.66277
20
-4.22325
11
5.66275
21
-4.22318
0
LINE
8
BLACK
6
CONTINUOUS
10
5.66275
20
-4.22318
11
5.65228
21
-4.14369
0
LINE
8
BLACK
6
CONTINUOUS
10
5.65228
20
-4.14369
11
5.65227
21
-4.14361
0
LINE
8
BLACK
6
CONTINUOUS
10
5.65227
20
-4.14361
11
5.64807
21
-4.06355
0
LINE
8
BLACK
6
CONTINUOUS
10
5.64807
20
-4.06355
11
5.64806
21
-4.06348
0
LINE
8
BLACK
6
CONTINUOUS
10
5.64806
20
-4.06348
11
5.65015
21
-3.98333
0
LINE
8
BLACK
6
CONTINUOUS
10
5.65015
20
-3.98333
11
5.65015
21
-3.98331
0
LINE
8
BLACK
6
CONTINUOUS
10
5.65015
20
-3.98331
11
5.65016
21
-3.98325
0
LINE
8
BLACK
6
CONTINUOUS
10
5.65016
20
-3.98325
11
5.65853
21
-3.90352
0
LINE
8
BLACK
6
CONTINUOUS
10
5.65853
20
-3.90352
11
5.65854
21
-3.90344
0
LINE
8
BLACK
6
CONTINUOUS
10
5.65854
20
-3.90344
11
5.65854
21
-3.90344
0
LINE
8
BLACK
6
CONTINUOUS
10
5.65854
20
-3.90344
11
5.67314
21
-3.82461
0
LINE
8
BLACK
6
CONTINUOUS
10
5.67314
20
-3.82461
11
5.67314
21
-3.82461
0
LINE
8
BLACK
6
CONTINUOUS
10
5.67314
20
-3.82461
11
5.67315
21
-3.82454
0
LINE
8
BLACK
6
CONTINUOUS
10
5.67315
20
-3.82454
11
5.69389
21
-3.74709
0
LINE
8
BLACK
6
CONTINUOUS
10
5.69389
20
-3.74709
11
5.69392
21
-3.74702
0
LINE
8
BLACK
6
CONTINUOUS
10
5.69392
20
-3.74702
11
5.72067
21
-3.67144
0
LINE
8
BLACK
6
CONTINUOUS
10
5.72067
20
-3.67144
11
5.7207
21
-3.67137
0
LINE
8
BLACK
6
CONTINUOUS
10
5.7207
20
-3.67137
11
5.7533
21
-3.59813
0
LINE
8
BLACK
6
CONTINUOUS
10
5.7533
20
-3.59813
11
5.75333
21
-3.59806
0
LINE
8
BLACK
6
CONTINUOUS
10
5.75333
20
-3.59806
11
5.75333
21
-3.59806
0
LINE
8
BLACK
6
CONTINUOUS
10
5.75333
20
-3.59806
11
5.79158
21
-3.5276
0
LINE
8
BLACK
6
CONTINUOUS
10
5.79158
20
-3.5276
11
5.79162
21
-3.52753
0
LINE
8
BLACK
6
CONTINUOUS
10
5.79162
20
-3.52753
11
5.83527
21
-3.46029
0
LINE
8
BLACK
6
CONTINUOUS
10
5.83527
20
-3.46029
11
5.83529
21
-3.46027
0
LINE
8
BLACK
6
CONTINUOUS
10
5.83529
20
-3.46027
11
5.8353
21
-3.46024
0
LINE
8
BLACK
6
CONTINUOUS
10
5.8353
20
-3.46024
11
5.85107
21
-3.43853
0
LINE
8
BLACK
6
CONTINUOUS
10
5.85107
20
-3.43853
11
5.97462
21
-3.0254
0
LINE
8
BLACK
6
CONTINUOUS
10
5.97462
20
-3.0254
11
5.97462
21
-3.0254
0
LINE
8
BLACK
6
CONTINUOUS
10
5.97462
20
-3.0254
11
5.97465
21
-3.02531
0
LINE
8
BLACK
6
CONTINUOUS
10
5.97465
20
-3.02531
11
5.97466
21
-3.02526
0
LINE
8
BLACK
6
CONTINUOUS
10
5.97466
20
-3.02526
11
5.97466
21
-3.02526
0
LINE
8
BLACK
6
CONTINUOUS
10
5.97466
20
-3.02526
11
5.97468
21
-3.02521
0
LINE
8
BLACK
6
CONTINUOUS
10
5.97468
20
-3.02521
11
5.9747
21
-3.02517
0
LINE
8
BLACK
6
CONTINUOUS
10
5.9747
20
-3.02517
11
5.97472
21
-3.02513
0
LINE
8
BLACK
6
CONTINUOUS
10
5.97472
20
-3.02513
11
5.97474
21
-3.02509
0
LINE
8
BLACK
6
CONTINUOUS
10
5.97474
20
-3.02509
11
5.97477
21
-3.02504
0
LINE
8
BLACK
6
CONTINUOUS
10
5.97477
20
-3.02504
11
5.9748
21
-3.025
0
LINE
8
BLACK
6
CONTINUOUS
10
5.9748
20
-3.025
11
5.97482
21
-3.02497
0
LINE
8
BLACK
6
CONTINUOUS
10
5.97482
20
-3.02497
11
5.97486
21
-3.02493
0
LINE
8
BLACK
6
CONTINUOUS
10
5.97486
20
-3.02493
11
5.97489
21
-3.02489
0
LINE
8
BLACK
6
CONTINUOUS
10
5.97489
20
-3.02489
11
5.97493
21
-3.02486
0
LINE
8
BLACK
6
CONTINUOUS
10
5.97493
20
-3.02486
11
5.97496
21
-3.02483
0
LINE
8
BLACK
6
CONTINUOUS
10
5.97496
20
-3.02483
11
5.975
21
-3.0248
0
LINE
8
BLACK
6
CONTINUOUS
10
5.975
20
-3.0248
11
5.97504
21
-3.02477
0
LINE
8
BLACK
6
CONTINUOUS
10
5.97504
20
-3.02477
11
5.97508
21
-3.02475
0
LINE
8
BLACK
6
CONTINUOUS
10
5.97508
20
-3.02475
11
5.97512
21
-3.02472
0
LINE
8
BLACK
6
CONTINUOUS
10
5.97512
20
-3.02472
11
5.97517
21
-3.0247
0
LINE
8
BLACK
6
CONTINUOUS
10
5.97517
20
-3.0247
11
5.97521
21
-3.02468
0
LINE
8
BLACK
6
CONTINUOUS
10
5.97521
20
-3.02468
11
5.97526
21
-3.02466
0
LINE
8
BLACK
6
CONTINUOUS
10
5.97526
20
-3.02466
11
5.9753
21
-3.02465
0
LINE
8
BLACK
6
CONTINUOUS
10
5.9753
20
-3.02465
11
5.97535
21
-3.02464
0
LINE
8
BLACK
6
CONTINUOUS
10
5.97535
20
-3.02464
11
5.9754
21
-3.02462
0
LINE
8
BLACK
6
CONTINUOUS
10
5.9754
20
-3.02462
11
5.97544
21
-3.02462
0
LINE
8
BLACK
6
CONTINUOUS
10
5.97544
20
-3.02462
11
5.97549
21
-3.02461
0
LINE
8
BLACK
6
CONTINUOUS
10
5.97549
20
-3.02461
11
5.97554
21
-3.02461
0
LINE
8
BLACK
6
CONTINUOUS
10
5.97554
20
-3.02461
11
5.97554
21
-3.02461
0
LINE
8
BLACK
6
CONTINUOUS
10
5.97554
20
-3.02461
11
5.9756
21
-3.02461
0
LINE
8
BLACK
6
CONTINUOUS
10
5.9756
20
-3.02461
11
5.97568
21
-3.02461
0
LINE
8
BLACK
6
CONTINUOUS
10
5.97568
20
-3.02461
11
5.97569
21
-3.02461
0
LINE
8
BLACK
6
CONTINUOUS
10
5.97569
20
-3.02461
11
6.17578
21
-3.02461
0
LINE
8
BLACK
6
CONTINUOUS
10
6.17578
20
-3.02461
11
6.17583
21
-3.0246
0
LINE
8
BLACK
6
CONTINUOUS
10
6.17583
20
-3.0246
11
6.17587
21
-3.02461
0
LINE
8
BLACK
6
CONTINUOUS
10
6.17587
20
-3.02461
11
6.17587
21
-3.02461
0
LINE
8
BLACK
6
CONTINUOUS
10
6.17587
20
-3.02461
11
6.17595
21
-3.02461
0
LINE
8
BLACK
6
CONTINUOUS
10
6.17595
20
-3.02461
11
6.17602
21
-3.02462
0
LINE
8
BLACK
6
CONTINUOUS
10
6.17602
20
-3.02462
11
6.17602
21
-3.02462
0
LINE
8
BLACK
6
CONTINUOUS
10
6.17602
20
-3.02462
11
6.17602
21
-3.02462
0
LINE
8
BLACK
6
CONTINUOUS
10
6.17602
20
-3.02462
11
6.17613
21
-3.02466
0
LINE
8
BLACK
6
CONTINUOUS
10
6.17613
20
-3.02466
11
6.1762
21
-3.02468
0
LINE
8
BLACK
6
CONTINUOUS
10
6.1762
20
-3.02468
11
6.1762
21
-3.02468
0
LINE
8
BLACK
6
CONTINUOUS
10
6.1762
20
-3.02468
11
6.17621
21
-3.02468
0
LINE
8
BLACK
6
CONTINUOUS
10
6.17621
20
-3.02468
11
6.17632
21
-3.02474
0
LINE
8
BLACK
6
CONTINUOUS
10
6.17632
20
-3.02474
11
6.17638
21
-3.02477
0
LINE
8
BLACK
6
CONTINUOUS
10
6.17638
20
-3.02477
11
6.17638
21
-3.02477
0
LINE
8
BLACK
6
CONTINUOUS
10
6.17638
20
-3.02477
11
6.17638
21
-3.02477
0
LINE
8
BLACK
6
CONTINUOUS
10
6.17638
20
-3.02477
11
6.17647
21
-3.02485
0
LINE
8
BLACK
6
CONTINUOUS
10
6.17647
20
-3.02485
11
6.17653
21
-3.02489
0
LINE
8
BLACK
6
CONTINUOUS
10
6.17653
20
-3.02489
11
6.17653
21
-3.02489
0
LINE
8
BLACK
6
CONTINUOUS
10
6.17653
20
-3.02489
11
6.17653
21
-3.02489
0
LINE
8
BLACK
6
CONTINUOUS
10
6.17653
20
-3.02489
11
6.17659
21
-3.02497
0
LINE
8
BLACK
6
CONTINUOUS
10
6.17659
20
-3.02497
11
6.17665
21
-3.02504
0
LINE
8
BLACK
6
CONTINUOUS
10
6.17665
20
-3.02504
11
6.17665
21
-3.02504
0
LINE
8
BLACK
6
CONTINUOUS
10
6.17665
20
-3.02504
11
6.17665
21
-3.02504
0
LINE
8
BLACK
6
CONTINUOUS
10
6.17665
20
-3.02504
11
6.1767
21
-3.02514
0
LINE
8
BLACK
6
CONTINUOUS
10
6.1767
20
-3.02514
11
6.17674
21
-3.02521
0
LINE
8
BLACK
6
CONTINUOUS
10
6.17674
20
-3.02521
11
6.17674
21
-3.02521
0
LINE
8
BLACK
6
CONTINUOUS
10
6.17674
20
-3.02521
11
6.17674
21
-3.02521
0
LINE
8
BLACK
6
CONTINUOUS
10
6.17674
20
-3.02521
11
6.17677
21
-3.0253
0
LINE
8
BLACK
6
CONTINUOUS
10
6.17677
20
-3.0253
11
6.1768
21
-3.0254
0
LINE
8
BLACK
6
CONTINUOUS
10
6.1768
20
-3.0254
11
6.1768
21
-3.0254
0
LINE
8
BLACK
6
CONTINUOUS
10
6.1768
20
-3.0254
11
6.1768
21
-3.0254
0
LINE
8
BLACK
6
CONTINUOUS
10
6.1768
20
-3.0254
11
6.17681
21
-3.02551
0
LINE
8
BLACK
6
CONTINUOUS
10
6.17681
20
-3.02551
11
6.17681
21
-3.02554
0
LINE
8
BLACK
6
CONTINUOUS
10
6.17681
20
-3.02554
11
6.17681
21
-3.02554
0
LINE
8
BLACK
6
CONTINUOUS
10
6.17681
20
-3.02554
11
6.17682
21
-3.02559
0
LINE
8
BLACK
6
CONTINUOUS
10
6.17682
20
-3.02559
11
6.17681
21
-3.02564
0
LINE
8
BLACK
6
CONTINUOUS
10
6.17681
20
-3.02564
11
6.17697
21
-3.1547
0
LINE
8
BLACK
6
CONTINUOUS
10
6.17697
20
-3.1547
11
6.24718
21
-3.11941
0
LINE
8
BLACK
6
CONTINUOUS
10
6.24718
20
-3.11941
11
6.24718
21
-3.11941
0
LINE
8
BLACK
6
CONTINUOUS
10
6.24718
20
-3.11941
11
6.24725
21
-3.11938
0
LINE
8
BLACK
6
CONTINUOUS
10
6.24725
20
-3.11938
11
6.3215
21
-3.08911
0
LINE
8
BLACK
6
CONTINUOUS
10
6.3215
20
-3.08911
11
6.32157
21
-3.08908
0
LINE
8
BLACK
6
CONTINUOUS
10
6.32157
20
-3.08908
11
6.39797
21
-3.06473
0
LINE
8
BLACK
6
CONTINUOUS
10
6.39797
20
-3.06473
11
6.39804
21
-3.06471
0
LINE
8
BLACK
6
CONTINUOUS
10
6.39804
20
-3.06471
11
6.47611
21
-3.04642
0
LINE
8
BLACK
6
CONTINUOUS
10
6.47611
20
-3.04642
11
6.47618
21
-3.04641
0
LINE
8
BLACK
6
CONTINUOUS
10
6.47618
20
-3.04641
11
6.47618
21
-3.04641
0
LINE
8
BLACK
6
CONTINUOUS
10
6.47618
20
-3.04641
11
6.55544
21
-3.0343
0
LINE
8
BLACK
6
CONTINUOUS
10
6.55544
20
-3.0343
11
6.55544
21
-3.0343
0
LINE
8
BLACK
6
CONTINUOUS
10
6.55544
20
-3.0343
11
6.55551
21
-3.0343
0
LINE
8
BLACK
6
CONTINUOUS
10
6.55551
20
-3.0343
11
6.55552
21
-3.03429
0
LINE
8
BLACK
6
CONTINUOUS
10
6.55552
20
-3.03429
11
6.55552
21
-3.03429
0
LINE
8
BLACK
6
CONTINUOUS
10
6.55552
20
-3.03429
11
6.63549
21
-3.02845
0
LINE
8
BLACK
6
CONTINUOUS
10
6.63549
20
-3.02845
11
6.63557
21
-3.02844
0
LINE
8
BLACK
6
CONTINUOUS
10
6.63557
20
-3.02844
11
6.63557
21
-3.02844
0
LINE
8
BLACK
6
CONTINUOUS
10
6.63557
20
-3.02844
11
6.71575
21
-3.02889
0
LINE
8
BLACK
6
CONTINUOUS
10
6.71575
20
-3.02889
11
6.71575
21
-3.02889
0
LINE
8
BLACK
6
CONTINUOUS
10
6.71575
20
-3.02889
11
6.71582
21
-3.02889
0
LINE
8
BLACK
6
CONTINUOUS
10
6.71582
20
-3.02889
11
6.79572
21
-3.03562
0
LINE
8
BLACK
6
CONTINUOUS
10
6.79572
20
-3.03562
11
6.79572
21
-3.03562
0
LINE
8
BLACK
6
CONTINUOUS
10
6.79572
20
-3.03562
11
6.7958
21
-3.03563
0
LINE
8
BLACK
6
CONTINUOUS
10
6.7958
20
-3.03563
11
6.87492
21
-3.04862
0
LINE
8
BLACK
6
CONTINUOUS
10
6.87492
20
-3.04862
11
6.87499
21
-3.04863
0
LINE
8
BLACK
6
CONTINUOUS
10
6.87499
20
-3.04863
11
6.95286
21
-3.06778
0
LINE
8
BLACK
6
CONTINUOUS
10
6.95286
20
-3.06778
11
6.95291
21
-3.0678
0
LINE
8
BLACK
6
CONTINUOUS
10
6.95291
20
-3.0678
11
6.95293
21
-3.0678
0
LINE
8
BLACK
6
CONTINUOUS
10
6.95293
20
-3.0678
11
7.02905
21
-3.093
0
LINE
8
BLACK
6
CONTINUOUS
10
7.02905
20
-3.093
11
7.02912
21
-3.09303
0
LINE
8
BLACK
6
CONTINUOUS
10
7.02912
20
-3.09303
11
7.10303
21
-3.12412
0
LINE
8
BLACK
6
CONTINUOUS
10
7.10303
20
-3.12412
11
7.10306
21
-3.12414
0
LINE
8
BLACK
6
CONTINUOUS
10
7.10306
20
-3.12414
11
7.10309
21
-3.12415
0
LINE
8
BLACK
6
CONTINUOUS
10
7.10309
20
-3.12415
11
7.16315
21
-3.15476
0
LINE
8
BLACK
6
CONTINUOUS
10
7.16315
20
-3.15476
11
7.16319
21
-3.02564
0
LINE
8
BLACK
6
CONTINUOUS
10
7.16319
20
-3.02564
11
7.16318
21
-3.02559
0
LINE
8
BLACK
6
CONTINUOUS
10
7.16318
20
-3.02559
11
7.1632
21
-3.0254
0
LINE
8
BLACK
6
CONTINUOUS
10
7.1632
20
-3.0254
11
7.16326
21
-3.02521
0
LINE
8
BLACK
6
CONTINUOUS
10
7.16326
20
-3.02521
11
7.16335
21
-3.02504
0
LINE
8
BLACK
6
CONTINUOUS
10
7.16335
20
-3.02504
11
7.16335
21
-3.02504
0
LINE
8
BLACK
6
CONTINUOUS
10
7.16335
20
-3.02504
11
7.16336
21
-3.02504
0
LINE
8
BLACK
6
CONTINUOUS
10
7.16336
20
-3.02504
11
7.16347
21
-3.02489
0
LINE
8
BLACK
6
CONTINUOUS
10
7.16347
20
-3.02489
11
7.16362
21
-3.02477
0
LINE
8
BLACK
6
CONTINUOUS
10
7.16362
20
-3.02477
11
7.16379
21
-3.02468
0
LINE
8
BLACK
6
CONTINUOUS
10
7.16379
20
-3.02468
11
7.16398
21
-3.02462
0
LINE
8
BLACK
6
CONTINUOUS
10
7.16398
20
-3.02462
11
7.16398
21
-3.02462
0
LINE
8
BLACK
6
CONTINUOUS
10
7.16398
20
-3.02462
11
7.16398
21
-3.02462
0
LINE
8
BLACK
6
CONTINUOUS
10
7.16398
20
-3.02462
11
7.16401
21
-3.02462
0
LINE
8
BLACK
6
CONTINUOUS
10
7.16401
20
-3.02462
11
7.16413
21
-3.02461
0
LINE
8
BLACK
6
CONTINUOUS
10
7.16413
20
-3.02461
11
7.16413
21
-3.02461
0
LINE
8
BLACK
6
CONTINUOUS
10
7.16413
20
-3.02461
11
7.16417
21
-3.0246
0
LINE
8
BLACK
6
CONTINUOUS
10
7.16417
20
-3.0246
11
7.16422
21
-3.02461
0
LINE
8
BLACK
6
CONTINUOUS
10
7.16422
20
-3.02461
11
7.36431
21
-3.02461
0
LINE
8
BLACK
6
CONTINUOUS
10
7.36431
20
-3.02461
11
7.36432
21
-3.02461
0
LINE
8
BLACK
6
CONTINUOUS
10
7.36432
20
-3.02461
11
7.3644
21
-3.02461
0
LINE
8
BLACK
6
CONTINUOUS
10
7.3644
20
-3.02461
11
7.36446
21
-3.02461
0
LINE
8
BLACK
6
CONTINUOUS
10
7.36446
20
-3.02461
11
7.36446
21
-3.02461
0
LINE
8
BLACK
6
CONTINUOUS
10
7.36446
20
-3.02461
11
7.36451
21
-3.02461
0
LINE
8
BLACK
6
CONTINUOUS
10
7.36451
20
-3.02461
11
7.36456
21
-3.02462
0
LINE
8
BLACK
6
CONTINUOUS
10
7.36456
20
-3.02462
11
7.3646
21
-3.02462
0
LINE
8
BLACK
6
CONTINUOUS
10
7.3646
20
-3.02462
11
7.36465
21
-3.02464
0
LINE
8
BLACK
6
CONTINUOUS
10
7.36465
20
-3.02464
11
7.3647
21
-3.02465
0
LINE
8
BLACK
6
CONTINUOUS
10
7.3647
20
-3.02465
11
7.36474
21
-3.02466
0
LINE
8
BLACK
6
CONTINUOUS
10
7.36474
20
-3.02466
11
7.36479
21
-3.02468
0
LINE
8
BLACK
6
CONTINUOUS
10
7.36479
20
-3.02468
11
7.36483
21
-3.0247
0
LINE
8
BLACK
6
CONTINUOUS
10
7.36483
20
-3.0247
11
7.36488
21
-3.02472
0
LINE
8
BLACK
6
CONTINUOUS
10
7.36488
20
-3.02472
11
7.36492
21
-3.02475
0
LINE
8
BLACK
6
CONTINUOUS
10
7.36492
20
-3.02475
11
7.36496
21
-3.02477
0
LINE
8
BLACK
6
CONTINUOUS
10
7.36496
20
-3.02477
11
7.365
21
-3.0248
0
LINE
8
BLACK
6
CONTINUOUS
10
7.365
20
-3.0248
11
7.36504
21
-3.02483
0
LINE
8
BLACK
6
CONTINUOUS
10
7.36504
20
-3.02483
11
7.36507
21
-3.02486
0
LINE
8
BLACK
6
CONTINUOUS
10
7.36507
20
-3.02486
11
7.36511
21
-3.02489
0
LINE
8
BLACK
6
CONTINUOUS
10
7.36511
20
-3.02489
11
7.36514
21
-3.02493
0
LINE
8
BLACK
6
CONTINUOUS
10
7.36514
20
-3.02493
11
7.36518
21
-3.02497
0
LINE
8
BLACK
6
CONTINUOUS
10
7.36518
20
-3.02497
11
7.3652
21
-3.025
0
LINE
8
BLACK
6
CONTINUOUS
10
7.3652
20
-3.025
11
7.36523
21
-3.02504
0
LINE
8
BLACK
6
CONTINUOUS
10
7.36523
20
-3.02504
11
7.36526
21
-3.02509
0
LINE
8
BLACK
6
CONTINUOUS
10
7.36526
20
-3.02509
11
7.36528
21
-3.02513
0
LINE
8
BLACK
6
CONTINUOUS
10
7.36528
20
-3.02513
11
7.3653
21
-3.02517
0
LINE
8
BLACK
6
CONTINUOUS
10
7.3653
20
-3.02517
11
7.36532
21
-3.02521
0
LINE
8
BLACK
6
CONTINUOUS
10
7.36532
20
-3.02521
11
7.36534
21
-3.02526
0
LINE
8
BLACK
6
CONTINUOUS
10
7.36534
20
-3.02526
11
7.36534
21
-3.02526
0
LINE
8
BLACK
6
CONTINUOUS
10
7.36534
20
-3.02526
11
7.36535
21
-3.02531
0
LINE
8
BLACK
6
CONTINUOUS
10
7.36535
20
-3.02531
11
7.36538
21
-3.0254
0
LINE
8
BLACK
6
CONTINUOUS
10
7.36538
20
-3.0254
11
7.36538
21
-3.0254
0
LINE
8
BLACK
6
CONTINUOUS
10
7.36538
20
-3.0254
11
7.48893
21
-3.43855
0
LINE
8
BLACK
6
CONTINUOUS
10
7.48893
20
-3.43855
11
7.53426
21
-3.50448
0
LINE
8
BLACK
6
CONTINUOUS
10
7.53426
20
-3.50448
11
7.53426
21
-3.50448
0
LINE
8
BLACK
6
CONTINUOUS
10
7.53426
20
-3.50448
11
7.5343
21
-3.50455
0
LINE
8
BLACK
6
CONTINUOUS
10
7.5343
20
-3.50455
11
7.5744
21
-3.57398
0
LINE
8
BLACK
6
CONTINUOUS
10
7.5744
20
-3.57398
11
7.57441
21
-3.574
0
LINE
8
BLACK
6
CONTINUOUS
10
7.57441
20
-3.574
11
7.57443
21
-3.57404
0
LINE
8
BLACK
6
CONTINUOUS
10
7.57443
20
-3.57404
11
7.60896
21
-3.6464
0
LINE
8
BLACK
6
CONTINUOUS
10
7.60896
20
-3.6464
11
7.60899
21
-3.64647
0
LINE
8
BLACK
6
CONTINUOUS
10
7.60899
20
-3.64647
11
7.60899
21
-3.64647
0
LINE
8
BLACK
6
CONTINUOUS
10
7.60899
20
-3.64647
11
7.63773
21
-3.72131
0
LINE
8
BLACK
6
CONTINUOUS
10
7.63773
20
-3.72131
11
7.63773
21
-3.72131
0
LINE
8
BLACK
6
CONTINUOUS
10
7.63773
20
-3.72131
11
7.63775
21
-3.72139
0
LINE
8
BLACK
6
CONTINUOUS
10
7.63775
20
-3.72139
11
7.66053
21
-3.79825
0
LINE
8
BLACK
6
CONTINUOUS
10
7.66053
20
-3.79825
11
7.66053
21
-3.79826
0
LINE
8
BLACK
6
CONTINUOUS
10
7.66053
20
-3.79826
11
7.66055
21
-3.79833
0
LINE
8
BLACK
6
CONTINUOUS
10
7.66055
20
-3.79833
11
7.67723
21
-3.87675
0
LINE
8
BLACK
6
CONTINUOUS
10
7.67723
20
-3.87675
11
7.67725
21
-3.87682
0
LINE
8
BLACK
6
CONTINUOUS
10
7.67725
20
-3.87682
11
7.68772
21
-3.95631
0
LINE
8
BLACK
6
CONTINUOUS
10
7.68772
20
-3.95631
11
7.68773
21
-3.95639
0
LINE
8
BLACK
6
CONTINUOUS
10
7.68773
20
-3.95639
11
7.69193
21
-4.03645
0
LINE
8
BLACK
6
CONTINUOUS
10
7.69193
20
-4.03645
11
7.69194
21
-4.03652
0
LINE
8
BLACK
6
CONTINUOUS
10
7.69194
20
-4.03652
11
7.68985
21
-4.11667
0
LINE
8
BLACK
6
CONTINUOUS
10
7.68985
20
-4.11667
11
7.68985
21
-4.11667
0
LINE
8
BLACK
6
CONTINUOUS
10
7.68985
20
-4.11667
11
7.68984
21
-4.11675
0
LINE
8
BLACK
6
CONTINUOUS
10
7.68984
20
-4.11675
11
7.68147
21
-4.19648
0
LINE
8
BLACK
6
CONTINUOUS
10
7.68147
20
-4.19648
11
7.68147
21
-4.19648
0
LINE
8
BLACK
6
CONTINUOUS
10
7.68147
20
-4.19648
11
7.68146
21
-4.19656
0
LINE
8
BLACK
6
CONTINUOUS
10
7.68146
20
-4.19656
11
7.66686
21
-4.27539
0
LINE
8
BLACK
6
CONTINUOUS
10
7.66686
20
-4.27539
11
7.66685
21
-4.27546
0
LINE
8
BLACK
6
CONTINUOUS
10
7.66685
20
-4.27546
11
7.64611
21
-4.35291
0
LINE
8
BLACK
6
CONTINUOUS
10
7.64611
20
-4.35291
11
7.64608
21
-4.35298
0
LINE
8
BLACK
6
CONTINUOUS
10
7.64608
20
-4.35298
11
7.61933
21
-4.42856
0
LINE
8
BLACK
6
CONTINUOUS
10
7.61933
20
-4.42856
11
7.61933
21
-4.42856
0
LINE
8
BLACK
6
CONTINUOUS
10
7.61933
20
-4.42856
11
7.6193
21
-4.42863
0
LINE
8
BLACK
6
CONTINUOUS
10
7.6193
20
-4.42863
11
7.5867
21
-4.50187
0
LINE
8
BLACK
6
CONTINUOUS
10
7.5867
20
-4.50187
11
7.5867
21
-4.50187
0
LINE
8
BLACK
6
CONTINUOUS
10
7.5867
20
-4.50187
11
7.58667
21
-4.50194
0
LINE
8
BLACK
6
CONTINUOUS
10
7.58667
20
-4.50194
11
7.54842
21
-4.5724
0
LINE
8
BLACK
6
CONTINUOUS
10
7.54842
20
-4.5724
11
7.54842
21
-4.5724
0
LINE
8
BLACK
6
CONTINUOUS
10
7.54842
20
-4.5724
11
7.54841
21
-4.57243
0
LINE
8
BLACK
6
CONTINUOUS
10
7.54841
20
-4.57243
11
7.54838
21
-4.57247
0
LINE
8
BLACK
6
CONTINUOUS
10
7.54838
20
-4.57247
11
7.54838
21
-4.57247
0
LINE
8
BLACK
6
CONTINUOUS
10
7.54838
20
-4.57247
11
7.50473
21
-4.63971
0
LINE
8
BLACK
6
CONTINUOUS
10
7.50473
20
-4.63971
11
7.50471
21
-4.63973
0
LINE
8
BLACK
6
CONTINUOUS
10
7.50471
20
-4.63973
11
7.5047
21
-4.63976
0
LINE
8
BLACK
6
CONTINUOUS
10
7.5047
20
-4.63976
11
7.48893
21
-4.66147
0
LINE
8
BLACK
6
CONTINUOUS
10
7.48893
20
-4.66147
11
7.36538
21
-5.0746
0
LINE
8
BLACK
6
CONTINUOUS
10
7.36538
20
-5.0746
11
7.36538
21
-5.0746
0
LINE
8
BLACK
6
CONTINUOUS
10
7.36538
20
-5.0746
11
7.36535
21
-5.07469
0
LINE
8
BLACK
6
CONTINUOUS
10
7.36535
20
-5.07469
11
7.36534
21
-5.07474
0
LINE
8
BLACK
6
CONTINUOUS
10
7.36534
20
-5.07474
11
7.36534
21
-5.07474
0
LINE
8
BLACK
6
CONTINUOUS
10
7.36534
20
-5.07474
11
7.36532
21
-5.07479
0
LINE
8
BLACK
6
CONTINUOUS
10
7.36532
20
-5.07479
11
7.3653
21
-5.07483
0
LINE
8
BLACK
6
CONTINUOUS
10
7.3653
20
-5.07483
11
7.36528
21
-5.07487
0
LINE
8
BLACK
6
CONTINUOUS
10
7.36528
20
-5.07487
11
7.36526
21
-5.07491
0
LINE
8
BLACK
6
CONTINUOUS
10
7.36526
20
-5.07491
11
7.36523
21
-5.07496
0
LINE
8
BLACK
6
CONTINUOUS
10
7.36523
20
-5.07496
11
7.3652
21
-5.075
0
LINE
8
BLACK
6
CONTINUOUS
10
7.3652
20
-5.075
11
7.36518
21
-5.07503
0
LINE
8
BLACK
6
CONTINUOUS
10
7.36518
20
-5.07503
11
7.36514
21
-5.07507
0
LINE
8
BLACK
6
CONTINUOUS
10
7.36514
20
-5.07507
11
7.36511
21
-5.07511
0
LINE
8
BLACK
6
CONTINUOUS
10
7.36511
20
-5.07511
11
7.36507
21
-5.07514
0
LINE
8
BLACK
6
CONTINUOUS
10
7.36507
20
-5.07514
11
7.36504
21
-5.07517
0
LINE
8
BLACK
6
CONTINUOUS
10
7.36504
20
-5.07517
11
7.365
21
-5.0752
0
LINE
8
BLACK
6
CONTINUOUS
10
7.365
20
-5.0752
11
7.36496
21
-5.07523
0
LINE
8
BLACK
6
CONTINUOUS
10
7.36496
20
-5.07523
11
7.36492
21
-5.07525
0
LINE
8
BLACK
6
CONTINUOUS
10
7.36492
20
-5.07525
11
7.36488
21
-5.07528
0
LINE
8
BLACK
6
CONTINUOUS
10
7.36488
20
-5.07528
11
7.36483
21
-5.0753
0
LINE
8
BLACK
6
CONTINUOUS
10
7.36483
20
-5.0753
11
7.36479
21
-5.07532
0
LINE
8
BLACK
6
CONTINUOUS
10
7.36479
20
-5.07532
11
7.36474
21
-5.07534
0
LINE
8
BLACK
6
CONTINUOUS
10
7.36474
20
-5.07534
11
7.3647
21
-5.07535
0
LINE
8
BLACK
6
CONTINUOUS
10
7.3647
20
-5.07535
11
7.36465
21
-5.07536
0
LINE
8
BLACK
6
CONTINUOUS
10
7.36465
20
-5.07536
11
7.3646
21
-5.07538
0
LINE
8
BLACK
6
CONTINUOUS
10
7.3646
20
-5.07538
11
7.36456
21
-5.07538
0
LINE
8
BLACK
6
CONTINUOUS
10
7.36456
20
-5.07538
11
7.36451
21
-5.07539
0
LINE
8
BLACK
6
CONTINUOUS
10
7.36451
20
-5.07539
11
7.36446
21
-5.07539
0
LINE
8
BLACK
6
CONTINUOUS
10
7.36446
20
-5.07539
11
7.36446
21
-5.07539
0
LINE
8
BLACK
6
CONTINUOUS
10
7.36446
20
-5.07539
11
7.3644
21
-5.07539
0
LINE
8
BLACK
6
CONTINUOUS
10
7.3644
20
-5.07539
11
7.36432
21
-5.07539
0
LINE
8
BLACK
6
CONTINUOUS
10
7.36432
20
-5.07539
11
7.36431
21
-5.07539
0
LINE
8
BLACK
6
CONTINUOUS
10
7.36431
20
-5.07539
11
7.16422
21
-5.07539
0
LINE
8
BLACK
6
CONTINUOUS
10
7.16422
20
-5.07539
11
7.16417
21
-5.0754
0
LINE
8
BLACK
6
CONTINUOUS
10
7.16417
20
-5.0754
11
7.16413
21
-5.07539
0
LINE
8
BLACK
6
CONTINUOUS
10
7.16413
20
-5.07539
11
7.16413
21
-5.07539
0
LINE
8
BLACK
6
CONTINUOUS
10
7.16413
20
-5.07539
11
7.16398
21
-5.07538
0
LINE
8
BLACK
6
CONTINUOUS
10
7.16398
20
-5.07538
11
7.16379
21
-5.07532
0
LINE
8
BLACK
6
CONTINUOUS
10
7.16379
20
-5.07532
11
7.16362
21
-5.07523
0
LINE
8
BLACK
6
CONTINUOUS
10
7.16362
20
-5.07523
11
7.16347
21
-5.07511
0
LINE
8
BLACK
6
CONTINUOUS
10
7.16347
20
-5.07511
11
7.16335
21
-5.07496
0
LINE
8
BLACK
6
CONTINUOUS
10
7.16335
20
-5.07496
11
7.16326
21
-5.07479
0
LINE
8
BLACK
6
CONTINUOUS
10
7.16326
20
-5.07479
11
7.1632
21
-5.0746
0
LINE
8
BLACK
6
CONTINUOUS
10
7.1632
20
-5.0746
11
7.16318
21
-5.07441
0
LINE
8
BLACK
6
CONTINUOUS
10
7.16318
20
-5.07441
11
7.16319
21
-5.07436
0
LINE
8
BLACK
6
CONTINUOUS
10
7.16319
20
-5.07436
11
7.16319
21
-4.9449
0
LINE
8
BLACK
6
CONTINUOUS
10
7.16319
20
-4.9449
11
7.093
21
-4.9802
0
LINE
8
BLACK
6
CONTINUOUS
10
7.093
20
-4.9802
11
7.09293
21
-4.98024
0
LINE
8
BLACK
6
CONTINUOUS
10
7.09293
20
-4.98024
11
7.01872
21
-5.01053
0
LINE
8
BLACK
6
CONTINUOUS
10
7.01872
20
-5.01053
11
7.01864
21
-5.01055
0
LINE
8
BLACK
6
CONTINUOUS
10
7.01864
20
-5.01055
11
7.01864
21
-5.01055
0
LINE
8
BLACK
6
CONTINUOUS
10
7.01864
20
-5.01055
11
6.94228
21
-5.03492
0
LINE
8
BLACK
6
CONTINUOUS
10
6.94228
20
-5.03492
11
6.94228
21
-5.03493
0
LINE
8
BLACK
6
CONTINUOUS
10
6.94228
20
-5.03493
11
6.94222
21
-5.03494
0
LINE
8
BLACK
6
CONTINUOUS
10
6.94222
20
-5.03494
11
6.94221
21
-5.03495
0
LINE
8
BLACK
6
CONTINUOUS
10
6.94221
20
-5.03495
11
6.94221
21
-5.03495
0
LINE
8
BLACK
6
CONTINUOUS
10
6.94221
20
-5.03495
11
6.86417
21
-5.05325
0
LINE
8
BLACK
6
CONTINUOUS
10
6.86417
20
-5.05325
11
6.86416
21
-5.05325
0
LINE
8
BLACK
6
CONTINUOUS
10
6.86416
20
-5.05325
11
6.8641
21
-5.05326
0
LINE
8
BLACK
6
CONTINUOUS
10
6.8641
20
-5.05326
11
6.86409
21
-5.05327
0
LINE
8
BLACK
6
CONTINUOUS
10
6.86409
20
-5.05327
11
6.86409
21
-5.05327
0
LINE
8
BLACK
6
CONTINUOUS
10
6.86409
20
-5.05327
11
6.78485
21
-5.06539
0
LINE
8
BLACK
6
CONTINUOUS
10
6.78485
20
-5.06539
11
6.78477
21
-5.0654
0
LINE
8
BLACK
6
CONTINUOUS
10
6.78477
20
-5.0654
11
6.70483
21
-5.07127
0
LINE
8
BLACK
6
CONTINUOUS
10
6.70483
20
-5.07127
11
6.70475
21
-5.07128
0
LINE
8
BLACK
6
CONTINUOUS
10
6.70475
20
-5.07128
11
6.6246
21
-5.07086
0
LINE
8
BLACK
6
CONTINUOUS
10
6.6246
20
-5.07086
11
6.6246
21
-5.07086
0
LINE
8
BLACK
6
CONTINUOUS
10
6.6246
20
-5.07086
11
6.62452
21
-5.07086
0
LINE
8
BLACK
6
CONTINUOUS
10
7.16516
20
-3.02657
11
7.16512
21
-3.15637
0
LINE
8
BLACK
6
CONTINUOUS
10
7.16512
20
-3.15637
11
7.16512
21
-3.15637
0
LINE
8
BLACK
6
CONTINUOUS
10
7.16512
20
-3.15637
11
7.16512
21
-3.15637
0
LINE
8
BLACK
6
CONTINUOUS
10
7.16512
20
-3.15637
11
7.16512
21
-3.15641
0
LINE
8
BLACK
6
CONTINUOUS
10
7.16512
20
-3.15641
11
7.16511
21
-3.15656
0
LINE
8
BLACK
6
CONTINUOUS
10
7.16511
20
-3.15656
11
7.16505
21
-3.15674
0
LINE
8
BLACK
6
CONTINUOUS
10
7.16505
20
-3.15674
11
7.16496
21
-3.15692
0
LINE
8
BLACK
6
CONTINUOUS
10
7.16496
20
-3.15692
11
7.16484
21
-3.15707
0
LINE
8
BLACK
6
CONTINUOUS
10
7.16484
20
-3.15707
11
7.16469
21
-3.15719
0
LINE
8
BLACK
6
CONTINUOUS
10
7.16469
20
-3.15719
11
7.16451
21
-3.15728
0
LINE
8
BLACK
6
CONTINUOUS
10
7.16451
20
-3.15728
11
7.16433
21
-3.15734
0
LINE
8
BLACK
6
CONTINUOUS
10
7.16433
20
-3.15734
11
7.16414
21
-3.15735
0
LINE
8
BLACK
6
CONTINUOUS
10
7.16414
20
-3.15735
11
7.16394
21
-3.15734
0
LINE
8
BLACK
6
CONTINUOUS
10
7.16394
20
-3.15734
11
7.16376
21
-3.15728
0
LINE
8
BLACK
6
CONTINUOUS
10
7.16376
20
-3.15728
11
7.16368
21
-3.15724
0
LINE
8
BLACK
6
CONTINUOUS
10
7.16368
20
-3.15724
11
7.10223
21
-3.12592
0
LINE
8
BLACK
6
CONTINUOUS
10
7.10223
20
-3.12592
11
7.02839
21
-3.09486
0
LINE
8
BLACK
6
CONTINUOUS
10
7.02839
20
-3.09486
11
6.95235
21
-3.06968
0
LINE
8
BLACK
6
CONTINUOUS
10
6.95235
20
-3.06968
11
6.87456
21
-3.05055
0
LINE
8
BLACK
6
CONTINUOUS
10
6.87456
20
-3.05055
11
6.79552
21
-3.03758
0
LINE
8
BLACK
6
CONTINUOUS
10
6.79552
20
-3.03758
11
6.7157
21
-3.03086
0
LINE
8
BLACK
6
CONTINUOUS
10
6.7157
20
-3.03086
11
6.63559
21
-3.03041
0
LINE
8
BLACK
6
CONTINUOUS
10
6.63559
20
-3.03041
11
6.5557
21
-3.03626
0
LINE
8
BLACK
6
CONTINUOUS
10
6.5557
20
-3.03626
11
6.47652
21
-3.04835
0
LINE
8
BLACK
6
CONTINUOUS
10
6.47652
20
-3.04835
11
6.39853
21
-3.06662
0
LINE
8
BLACK
6
CONTINUOUS
10
6.39853
20
-3.06662
11
6.32221
21
-3.09095
0
LINE
8
BLACK
6
CONTINUOUS
10
6.32221
20
-3.09095
11
6.24803
21
-3.12119
0
LINE
8
BLACK
6
CONTINUOUS
10
6.24803
20
-3.12119
11
6.17643
21
-3.15717
0
LINE
8
BLACK
6
CONTINUOUS
10
6.17643
20
-3.15717
11
6.17636
21
-3.15721
0
LINE
8
BLACK
6
CONTINUOUS
10
6.17636
20
-3.15721
11
6.17628
21
-3.15724
0
LINE
8
BLACK
6
CONTINUOUS
10
6.17628
20
-3.15724
11
6.17628
21
-3.15724
0
LINE
8
BLACK
6
CONTINUOUS
10
6.17628
20
-3.15724
11
6.17628
21
-3.15724
0
LINE
8
BLACK
6
CONTINUOUS
10
6.17628
20
-3.15724
11
6.17618
21
-3.15727
0
LINE
8
BLACK
6
CONTINUOUS
10
6.17618
20
-3.15727
11
6.17599
21
-3.15729
0
LINE
8
BLACK
6
CONTINUOUS
10
6.17599
20
-3.15729
11
6.17579
21
-3.15727
0
LINE
8
BLACK
6
CONTINUOUS
10
6.17579
20
-3.15727
11
6.17561
21
-3.15721
0
LINE
8
BLACK
6
CONTINUOUS
10
6.17561
20
-3.15721
11
6.17544
21
-3.15712
0
LINE
8
BLACK
6
CONTINUOUS
10
6.17544
20
-3.15712
11
6.17529
21
-3.157
0
LINE
8
BLACK
6
CONTINUOUS
10
6.17529
20
-3.157
11
6.17516
21
-3.15685
0
LINE
8
BLACK
6
CONTINUOUS
10
6.17516
20
-3.15685
11
6.17507
21
-3.15668
0
LINE
8
BLACK
6
CONTINUOUS
10
6.17507
20
-3.15668
11
6.17501
21
-3.15649
0
LINE
8
BLACK
6
CONTINUOUS
10
6.17501
20
-3.15649
11
6.175
21
-3.15635
0
LINE
8
BLACK
6
CONTINUOUS
10
6.175
20
-3.15635
11
6.17484
21
-3.02657
0
LINE
8
BLACK
6
CONTINUOUS
10
6.17484
20
-3.02657
11
5.97632
21
-3.02657
0
LINE
8
BLACK
6
CONTINUOUS
10
5.97632
20
-3.02657
11
5.8529
21
-3.4393
0
LINE
8
BLACK
6
CONTINUOUS
10
5.8529
20
-3.4393
11
5.85288
21
-3.43935
0
LINE
8
BLACK
6
CONTINUOUS
10
5.85288
20
-3.43935
11
5.85288
21
-3.43935
0
LINE
8
BLACK
6
CONTINUOUS
10
5.85288
20
-3.43935
11
5.85288
21
-3.43935
0
LINE
8
BLACK
6
CONTINUOUS
10
5.85288
20
-3.43935
11
5.85284
21
-3.43944
0
LINE
8
BLACK
6
CONTINUOUS
10
5.85284
20
-3.43944
11
5.85274
21
-3.4396
0
LINE
8
BLACK
6
CONTINUOUS
10
5.85274
20
-3.4396
11
5.85272
21
-3.43962
0
LINE
8
BLACK
6
CONTINUOUS
10
5.85272
20
-3.43962
11
5.83691
21
-3.46138
0
LINE
8
BLACK
6
CONTINUOUS
10
5.83691
20
-3.46138
11
5.79329
21
-3.52857
0
LINE
8
BLACK
6
CONTINUOUS
10
5.79329
20
-3.52857
11
5.75508
21
-3.59896
0
LINE
8
BLACK
6
CONTINUOUS
10
5.75508
20
-3.59896
11
5.72251
21
-3.67214
0
LINE
8
BLACK
6
CONTINUOUS
10
5.72251
20
-3.67214
11
5.69579
21
-3.74764
0
LINE
8
BLACK
6
CONTINUOUS
10
5.69579
20
-3.74764
11
5.67507
21
-3.82501
0
LINE
8
BLACK
6
CONTINUOUS
10
5.67507
20
-3.82501
11
5.66048
21
-3.90376
0
LINE
8
BLACK
6
CONTINUOUS
10
5.66048
20
-3.90376
11
5.65212
21
-3.98342
0
LINE
8
BLACK
6
CONTINUOUS
10
5.65212
20
-3.98342
11
5.65003
21
-4.06349
0
LINE
8
BLACK
6
CONTINUOUS
10
5.65003
20
-4.06349
11
5.65424
21
-4.14347
0
LINE
8
BLACK
6
CONTINUOUS
10
5.65424
20
-4.14347
11
5.6647
21
-4.22288
0
LINE
8
BLACK
6
CONTINUOUS
10
5.6647
20
-4.22288
11
5.68136
21
-4.30122
0
LINE
8
BLACK
6
CONTINUOUS
10
5.68136
20
-4.30122
11
5.70412
21
-4.37802
0
LINE
8
BLACK
6
CONTINUOUS
10
5.70412
20
-4.37802
11
5.73284
21
-4.45279
0
LINE
8
BLACK
6
CONTINUOUS
10
5.73284
20
-4.45279
11
5.76733
21
-4.52507
0
LINE
8
BLACK
6
CONTINUOUS
10
5.76733
20
-4.52507
11
5.80738
21
-4.59443
0
LINE
8
BLACK
6
CONTINUOUS
10
5.80738
20
-4.59443
11
5.85273
21
-4.66039
0
LINE
8
BLACK
6
CONTINUOUS
10
5.85273
20
-4.66039
11
5.85274
21
-4.6604
0
LINE
8
BLACK
6
CONTINUOUS
10
5.85274
20
-4.6604
11
5.85284
21
-4.66056
0
LINE
8
BLACK
6
CONTINUOUS
10
5.85284
20
-4.66056
11
5.8529
21
-4.6607
0
LINE
8
BLACK
6
CONTINUOUS
10
5.8529
20
-4.6607
11
5.97632
21
-5.07343
0
LINE
8
BLACK
6
CONTINUOUS
10
5.97632
20
-5.07343
11
6.17484
21
-5.07343
0
LINE
8
BLACK
6
CONTINUOUS
10
6.17484
20
-5.07343
11
6.17466
21
-4.94321
0
LINE
8
BLACK
6
CONTINUOUS
10
6.17466
20
-4.94321
11
6.17466
21
-4.94321
0
LINE
8
BLACK
6
CONTINUOUS
10
6.17466
20
-4.94321
11
6.17466
21
-4.94321
0
LINE
8
BLACK
6
CONTINUOUS
10
6.17466
20
-4.94321
11
6.17466
21
-4.94316
0
LINE
8
BLACK
6
CONTINUOUS
10
6.17466
20
-4.94316
11
6.17468
21
-4.94302
0
LINE
8
BLACK
6
CONTINUOUS
10
6.17468
20
-4.94302
11
6.17473
21
-4.94283
0
LINE
8
BLACK
6
CONTINUOUS
10
6.17473
20
-4.94283
11
6.17482
21
-4.94266
0
LINE
8
BLACK
6
CONTINUOUS
10
6.17482
20
-4.94266
11
6.17495
21
-4.94251
0
LINE
8
BLACK
6
CONTINUOUS
10
6.17495
20
-4.94251
11
6.1751
21
-4.94239
0
LINE
8
BLACK
6
CONTINUOUS
10
6.1751
20
-4.94239
11
6.17527
21
-4.94229
0
LINE
8
BLACK
6
CONTINUOUS
10
6.17527
20
-4.94229
11
6.17545
21
-4.94224
0
LINE
8
BLACK
6
CONTINUOUS
10
6.17545
20
-4.94224
11
6.17564
21
-4.94222
0
LINE
8
BLACK
6
CONTINUOUS
10
6.17564
20
-4.94222
11
6.17584
21
-4.94224
0
LINE
8
BLACK
6
CONTINUOUS
10
6.17584
20
-4.94224
11
6.17602
21
-4.94229
0
LINE
8
BLACK
6
CONTINUOUS
10
6.17602
20
-4.94229
11
6.1761
21
-4.94233
0
LINE
8
BLACK
6
CONTINUOUS
10
6.1761
20
-4.94233
11
6.23818
21
-4.97397
0
LINE
8
BLACK
6
CONTINUOUS
10
6.23818
20
-4.97397
11
6.31201
21
-5.00501
0
LINE
8
BLACK
6
CONTINUOUS
10
6.31201
20
-5.00501
11
6.38804
21
-5.03015
0
LINE
8
BLACK
6
CONTINUOUS
10
6.38804
20
-5.03015
11
6.46581
21
-5.04925
0
LINE
8
BLACK
6
CONTINUOUS
10
6.46581
20
-5.04925
11
6.54484
21
-5.06219
0
LINE
8
BLACK
6
CONTINUOUS
10
6.54484
20
-5.06219
11
6.62464
21
-5.06889
0
LINE
8
BLACK
6
CONTINUOUS
10
6.62464
20
-5.06889
11
6.70473
21
-5.06931
0
LINE
8
BLACK
6
CONTINUOUS
10
6.70473
20
-5.06931
11
6.78459
21
-5.06344
0
LINE
8
BLACK
6
CONTINUOUS
10
6.78459
20
-5.06344
11
6.86375
21
-5.05133
0
LINE
8
BLACK
6
CONTINUOUS
10
6.86375
20
-5.05133
11
6.94172
21
-5.03304
0
LINE
8
BLACK
6
CONTINUOUS
10
6.94172
20
-5.03304
11
7.01801
21
-5.00869
0
LINE
8
BLACK
6
CONTINUOUS
10
7.01801
20
-5.00869
11
7.09215
21
-4.97843
0
LINE
8
BLACK
6
CONTINUOUS
10
7.09215
20
-4.97843
11
7.16372
21
-4.94243
0
LINE
8
BLACK
6
CONTINUOUS
10
7.16372
20
-4.94243
11
7.16379
21
-4.94239
0
LINE
8
BLACK
6
CONTINUOUS
10
7.16379
20
-4.94239
11
7.16398
21
-4.94234
0
LINE
8
BLACK
6
CONTINUOUS
10
7.16398
20
-4.94234
11
7.16417
21
-4.94232
0
LINE
8
BLACK
6
CONTINUOUS
10
7.16417
20
-4.94232
11
7.16437
21
-4.94234
0
LINE
8
BLACK
6
CONTINUOUS
10
7.16437
20
-4.94234
11
7.16455
21
-4.94239
0
LINE
8
BLACK
6
CONTINUOUS
10
7.16455
20
-4.94239
11
7.16472
21
-4.94248
0
LINE
8
BLACK
6
CONTINUOUS
10
7.16472
20
-4.94248
11
7.16487
21
-4.94261
0
LINE
8
BLACK
6
CONTINUOUS
10
7.16487
20
-4.94261
11
7.165
21
-4.94276
0
LINE
8
BLACK
6
CONTINUOUS
10
7.165
20
-4.94276
11
7.16509
21
-4.94293
0
LINE
8
BLACK
6
CONTINUOUS
10
7.16509
20
-4.94293
11
7.16514
21
-4.94311
0
LINE
8
BLACK
6
CONTINUOUS
10
7.16514
20
-4.94311
11
7.16516
21
-4.94326
0
LINE
8
BLACK
6
CONTINUOUS
10
7.16516
20
-4.94326
11
7.16516
21
-5.07343
0
LINE
8
BLACK
6
CONTINUOUS
10
7.16516
20
-5.07343
11
7.36368
21
-5.07343
0
LINE
8
BLACK
6
CONTINUOUS
10
7.36368
20
-5.07343
11
7.4871
21
-4.6607
0
LINE
8
BLACK
6
CONTINUOUS
10
7.4871
20
-4.6607
11
7.48712
21
-4.66065
0
LINE
8
BLACK
6
CONTINUOUS
10
7.48712
20
-4.66065
11
7.48712
21
-4.66065
0
LINE
8
BLACK
6
CONTINUOUS
10
7.48712
20
-4.66065
11
7.48712
21
-4.66065
0
LINE
8
BLACK
6
CONTINUOUS
10
7.48712
20
-4.66065
11
7.48716
21
-4.66056
0
LINE
8
BLACK
6
CONTINUOUS
10
7.48716
20
-4.66056
11
7.48726
21
-4.6604
0
LINE
8
BLACK
6
CONTINUOUS
10
7.48726
20
-4.6604
11
7.48728
21
-4.66038
0
LINE
8
BLACK
6
CONTINUOUS
10
7.48728
20
-4.66038
11
7.50309
21
-4.63862
0
LINE
8
BLACK
6
CONTINUOUS
10
7.50309
20
-4.63862
11
7.54671
21
-4.57143
0
LINE
8
BLACK
6
CONTINUOUS
10
7.54671
20
-4.57143
11
7.58492
21
-4.50104
0
LINE
8
BLACK
6
CONTINUOUS
10
7.58492
20
-4.50104
11
7.61749
21
-4.42786
0
LINE
8
BLACK
6
CONTINUOUS
10
7.61749
20
-4.42786
11
7.64421
21
-4.35236
0
LINE
8
BLACK
6
CONTINUOUS
10
7.64421
20
-4.35236
11
7.66493
21
-4.27499
0
LINE
8
BLACK
6
CONTINUOUS
10
7.66493
20
-4.27499
11
7.67952
21
-4.19624
0
LINE
8
BLACK
6
CONTINUOUS
10
7.67952
20
-4.19624
11
7.68788
21
-4.11658
0
LINE
8
BLACK
6
CONTINUOUS
10
7.68788
20
-4.11658
11
7.68997
21
-4.03651
0
LINE
8
BLACK
6
CONTINUOUS
10
7.68997
20
-4.03651
11
7.68576
21
-3.95653
0
LINE
8
BLACK
6
CONTINUOUS
10
7.68576
20
-3.95653
11
7.6753
21
-3.87712
0
LINE
8
BLACK
6
CONTINUOUS
10
7.6753
20
-3.87712
11
7.65864
21
-3.79878
0
LINE
8
BLACK
6
CONTINUOUS
10
7.65864
20
-3.79878
11
7.63588
21
-3.72198
0
LINE
8
BLACK
6
CONTINUOUS
10
7.63588
20
-3.72198
11
7.60716
21
-3.64721
0
LINE
8
BLACK
6
CONTINUOUS
10
7.60716
20
-3.64721
11
7.57267
21
-3.57493
0
LINE
8
BLACK
6
CONTINUOUS
10
7.57267
20
-3.57493
11
7.53262
21
-3.50557
0
LINE
8
BLACK
6
CONTINUOUS
10
7.53262
20
-3.50557
11
7.48727
21
-3.43961
0
LINE
8
BLACK
6
CONTINUOUS
10
7.48727
20
-3.43961
11
7.48726
21
-3.4396
0
LINE
8
BLACK
6
CONTINUOUS
10
7.48726
20
-3.4396
11
7.48716
21
-3.43944
0
LINE
8
BLACK
6
CONTINUOUS
10
7.48716
20
-3.43944
11
7.4871
21
-3.4393
0
LINE
8
BLACK
6
CONTINUOUS
10
7.4871
20
-3.4393
11
7.36368
21
-3.02657
0
LINE
8
BLACK
6
CONTINUOUS
10
7.36368
20
-3.02657
11
7.16516
21
-3.02657
0
LINE
8
BLACK
6
CONTINUOUS
10
5.98236
20
-4.94737
11
5.98653
21
-4.9373
0
LINE
8
BLACK
6
CONTINUOUS
10
5.98653
20
-4.9373
11
5.99259
21
-4.92823
0
LINE
8
BLACK
6
CONTINUOUS
10
5.99259
20
-4.92823
11
6.0003
21
-4.92052
0
LINE
8
BLACK
6
CONTINUOUS
10
6.0003
20
-4.92052
11
6.00937
21
-4.91446
0
LINE
8
BLACK
6
CONTINUOUS
10
6.00937
20
-4.91446
11
6.01944
21
-4.91029
0
LINE
8
BLACK
6
CONTINUOUS
10
6.01944
20
-4.91029
11
6.03013
21
-4.90816
0
LINE
8
BLACK
6
CONTINUOUS
10
6.03013
20
-4.90816
11
6.04104
21
-4.90816
0
LINE
8
BLACK
6
CONTINUOUS
10
6.04104
20
-4.90816
11
6.05173
21
-4.91029
0
LINE
8
BLACK
6
CONTINUOUS
10
6.05173
20
-4.91029
11
6.06181
21
-4.91446
0
LINE
8
BLACK
6
CONTINUOUS
10
6.06181
20
-4.91446
11
6.07087
21
-4.92052
0
LINE
8
BLACK
6
CONTINUOUS
10
6.07087
20
-4.92052
11
6.07858
21
-4.92823
0
LINE
8
BLACK
6
CONTINUOUS
10
6.07858
20
-4.92823
11
6.08464
21
-4.9373
0
LINE
8
BLACK
6
CONTINUOUS
10
6.08464
20
-4.9373
11
6.08881
21
-4.94737
0
LINE
8
BLACK
6
CONTINUOUS
10
6.08881
20
-4.94737
11
6.09094
21
-4.95807
0
LINE
8
BLACK
6
CONTINUOUS
10
6.09094
20
-4.95807
11
6.09094
21
-4.96897
0
LINE
8
BLACK
6
CONTINUOUS
10
6.09094
20
-4.96897
11
6.08881
21
-4.97966
0
LINE
8
BLACK
6
CONTINUOUS
10
6.08881
20
-4.97966
11
6.08464
21
-4.98974
0
LINE
8
BLACK
6
CONTINUOUS
10
6.08464
20
-4.98974
11
6.07858
21
-4.9988
0
LINE
8
BLACK
6
CONTINUOUS
10
6.07858
20
-4.9988
11
6.07087
21
-5.00651
0
LINE
8
BLACK
6
CONTINUOUS
10
6.07087
20
-5.00651
11
6.06181
21
-5.01257
0
LINE
8
BLACK
6
CONTINUOUS
10
6.06181
20
-5.01257
11
6.05173
21
-5.01675
0
LINE
8
BLACK
6
CONTINUOUS
10
6.05173
20
-5.01675
11
6.04104
21
-5.01887
0
LINE
8
BLACK
6
CONTINUOUS
10
6.04104
20
-5.01887
11
6.03013
21
-5.01887
0
LINE
8
BLACK
6
CONTINUOUS
10
6.03013
20
-5.01887
11
6.01944
21
-5.01675
0
LINE
8
BLACK
6
CONTINUOUS
10
6.01944
20
-5.01675
11
6.00937
21
-5.01257
0
LINE
8
BLACK
6
CONTINUOUS
10
6.00937
20
-5.01257
11
6.0003
21
-5.00651
0
LINE
8
BLACK
6
CONTINUOUS
10
6.0003
20
-5.00651
11
5.99259
21
-4.9988
0
LINE
8
BLACK
6
CONTINUOUS
10
5.99259
20
-4.9988
11
5.98653
21
-4.98974
0
LINE
8
BLACK
6
CONTINUOUS
10
5.98653
20
-4.98974
11
5.98236
21
-4.97966
0
LINE
8
BLACK
6
CONTINUOUS
10
5.98236
20
-4.97966
11
5.98023
21
-4.96897
0
LINE
8
BLACK
6
CONTINUOUS
10
5.98023
20
-4.96897
11
5.98023
21
-4.95807
0
LINE
8
BLACK
6
CONTINUOUS
10
5.98023
20
-4.95807
11
5.98236
21
-4.94737
0
LINE
8
BLACK
6
CONTINUOUS
10
5.98499
20
-4.97886
11
5.98896
21
-4.98844
0
LINE
8
BLACK
6
CONTINUOUS
10
5.98896
20
-4.98844
11
5.99472
21
-4.99706
0
LINE
8
BLACK
6
CONTINUOUS
10
5.99472
20
-4.99706
11
6.00205
21
-5.00438
0
LINE
8
BLACK
6
CONTINUOUS
10
6.00205
20
-5.00438
11
6.01066
21
-5.01014
0
LINE
8
BLACK
6
CONTINUOUS
10
6.01066
20
-5.01014
11
6.02024
21
-5.01411
0
LINE
8
BLACK
6
CONTINUOUS
10
6.02024
20
-5.01411
11
6.0304
21
-5.01613
0
LINE
8
BLACK
6
CONTINUOUS
10
6.0304
20
-5.01613
11
6.04077
21
-5.01613
0
LINE
8
BLACK
6
CONTINUOUS
10
6.04077
20
-5.01613
11
6.05093
21
-5.01411
0
LINE
8
BLACK
6
CONTINUOUS
10
6.05093
20
-5.01411
11
6.06051
21
-5.01014
0
LINE
8
BLACK
6
CONTINUOUS
10
6.06051
20
-5.01014
11
6.06912
21
-5.00438
0
LINE
8
BLACK
6
CONTINUOUS
10
6.06912
20
-5.00438
11
6.07645
21
-4.99706
0
LINE
8
BLACK
6
CONTINUOUS
10
6.07645
20
-4.99706
11
6.08221
21
-4.98844
0
LINE
8
BLACK
6
CONTINUOUS
10
6.08221
20
-4.98844
11
6.08618
21
-4.97886
0
LINE
8
BLACK
6
CONTINUOUS
10
6.08618
20
-4.97886
11
6.0882
21
-4.9687
0
LINE
8
BLACK
6
CONTINUOUS
10
6.0882
20
-4.9687
11
6.0882
21
-4.95834
0
LINE
8
BLACK
6
CONTINUOUS
10
6.0882
20
-4.95834
11
6.08618
21
-4.94817
0
LINE
8
BLACK
6
CONTINUOUS
10
6.08618
20
-4.94817
11
6.08221
21
-4.9386
0
LINE
8
BLACK
6
CONTINUOUS
10
6.08221
20
-4.9386
11
6.07645
21
-4.92998
0
LINE
8
BLACK
6
CONTINUOUS
10
6.07645
20
-4.92998
11
6.06912
21
-4.92265
0
LINE
8
BLACK
6
CONTINUOUS
10
6.06912
20
-4.92265
11
6.06051
21
-4.91689
0
LINE
8
BLACK
6
CONTINUOUS
10
6.06051
20
-4.91689
11
6.05093
21
-4.91293
0
LINE
8
BLACK
6
CONTINUOUS
10
6.05093
20
-4.91293
11
6.04077
21
-4.9109
0
LINE
8
BLACK
6
CONTINUOUS
10
6.04077
20
-4.9109
11
6.0304
21
-4.9109
0
LINE
8
BLACK
6
CONTINUOUS
10
6.0304
20
-4.9109
11
6.02024
21
-4.91293
0
LINE
8
BLACK
6
CONTINUOUS
10
6.02024
20
-4.91293
11
6.01066
21
-4.91689
0
LINE
8
BLACK
6
CONTINUOUS
10
6.01066
20
-4.91689
11
6.00205
21
-4.92265
0
LINE
8
BLACK
6
CONTINUOUS
10
6.00205
20
-4.92265
11
5.99472
21
-4.92998
0
LINE
8
BLACK
6
CONTINUOUS
10
5.99472
20
-4.92998
11
5.98896
21
-4.9386
0
LINE
8
BLACK
6
CONTINUOUS
10
5.98896
20
-4.9386
11
5.98499
21
-4.94817
0
LINE
8
BLACK
6
CONTINUOUS
10
5.98499
20
-4.94817
11
5.98297
21
-4.95834
0
LINE
8
BLACK
6
CONTINUOUS
10
5.98297
20
-4.95834
11
5.98297
21
-4.9687
0
LINE
8
BLACK
6
CONTINUOUS
10
5.98297
20
-4.9687
11
5.98499
21
-4.97886
0
LINE
8
BLACK
6
CONTINUOUS
10
7.25165
20
-4.94709
11
7.25583
21
-4.93701
0
LINE
8
BLACK
6
CONTINUOUS
10
7.25583
20
-4.93701
11
7.26188
21
-4.92795
0
LINE
8
BLACK
6
CONTINUOUS
10
7.26188
20
-4.92795
11
7.26959
21
-4.92024
0
LINE
8
BLACK
6
CONTINUOUS
10
7.26959
20
-4.92024
11
7.27866
21
-4.91418
0
LINE
8
BLACK
6
CONTINUOUS
10
7.27866
20
-4.91418
11
7.28874
21
-4.91001
0
LINE
8
BLACK
6
CONTINUOUS
10
7.28874
20
-4.91001
11
7.29943
21
-4.90788
0
LINE
8
BLACK
6
CONTINUOUS
10
7.29943
20
-4.90788
11
7.31033
21
-4.90788
0
LINE
8
BLACK
6
CONTINUOUS
10
7.31033
20
-4.90788
11
7.32103
21
-4.91001
0
LINE
8
BLACK
6
CONTINUOUS
10
7.32103
20
-4.91001
11
7.3311
21
-4.91418
0
LINE
8
BLACK
6
CONTINUOUS
10
7.3311
20
-4.91418
11
7.34017
21
-4.92024
0
LINE
8
BLACK
6
CONTINUOUS
10
7.34017
20
-4.92024
11
7.34788
21
-4.92795
0
LINE
8
BLACK
6
CONTINUOUS
10
7.34788
20
-4.92795
11
7.35394
21
-4.93701
0
LINE
8
BLACK
6
CONTINUOUS
10
7.35394
20
-4.93701
11
7.35811
21
-4.94709
0
LINE
8
BLACK
6
CONTINUOUS
10
7.35811
20
-4.94709
11
7.36024
21
-4.95778
0
LINE
8
BLACK
6
CONTINUOUS
10
7.36024
20
-4.95778
11
7.36024
21
-4.96869
0
LINE
8
BLACK
6
CONTINUOUS
10
7.36024
20
-4.96869
11
7.35811
21
-4.97938
0
LINE
8
BLACK
6
CONTINUOUS
10
7.35811
20
-4.97938
11
7.35394
21
-4.98946
0
LINE
8
BLACK
6
CONTINUOUS
10
7.35394
20
-4.98946
11
7.34788
21
-4.99852
0
LINE
8
BLACK
6
CONTINUOUS
10
7.34788
20
-4.99852
11
7.34017
21
-5.00623
0
LINE
8
BLACK
6
CONTINUOUS
10
7.34017
20
-5.00623
11
7.3311
21
-5.01229
0
LINE
8
BLACK
6
CONTINUOUS
10
7.3311
20
-5.01229
11
7.32103
21
-5.01646
0
LINE
8
BLACK
6
CONTINUOUS
10
7.32103
20
-5.01646
11
7.31033
21
-5.01859
0
LINE
8
BLACK
6
CONTINUOUS
10
7.31033
20
-5.01859
11
7.29943
21
-5.01859
0
LINE
8
BLACK
6
CONTINUOUS
10
7.29943
20
-5.01859
11
7.28874
21
-5.01646
0
LINE
8
BLACK
6
CONTINUOUS
10
7.28874
20
-5.01646
11
7.27866
21
-5.01229
0
LINE
8
BLACK
6
CONTINUOUS
10
7.27866
20
-5.01229
11
7.26959
21
-5.00623
0
LINE
8
BLACK
6
CONTINUOUS
10
7.26959
20
-5.00623
11
7.26188
21
-4.99852
0
LINE
8
BLACK
6
CONTINUOUS
10
7.26188
20
-4.99852
11
7.25583
21
-4.98946
0
LINE
8
BLACK
6
CONTINUOUS
10
7.25583
20
-4.98946
11
7.25165
21
-4.97938
0
LINE
8
BLACK
6
CONTINUOUS
10
7.25165
20
-4.97938
11
7.24953
21
-4.96869
0
LINE
8
BLACK
6
CONTINUOUS
10
7.24953
20
-4.96869
11
7.24953
21
-4.95778
0
LINE
8
BLACK
6
CONTINUOUS
10
7.24953
20
-4.95778
11
7.25165
21
-4.94709
0
LINE
8
BLACK
6
CONTINUOUS
10
7.25429
20
-4.97858
11
7.25826
21
-4.98816
0
LINE
8
BLACK
6
CONTINUOUS
10
7.25826
20
-4.98816
11
7.26401
21
-4.99677
0
LINE
8
BLACK
6
CONTINUOUS
10
7.26401
20
-4.99677
11
7.27134
21
-5.0041
0
LINE
8
BLACK
6
CONTINUOUS
10
7.27134
20
-5.0041
11
7.27996
21
-5.00986
0
LINE
8
BLACK
6
CONTINUOUS
10
7.27996
20
-5.00986
11
7.28954
21
-5.01383
0
LINE
8
BLACK
6
CONTINUOUS
10
7.28954
20
-5.01383
11
7.2997
21
-5.01585
0
LINE
8
BLACK
6
CONTINUOUS
10
7.2997
20
-5.01585
11
7.31006
21
-5.01585
0
LINE
8
BLACK
6
CONTINUOUS
10
7.31006
20
-5.01585
11
7.32023
21
-5.01383
0
LINE
8
BLACK
6
CONTINUOUS
10
7.32023
20
-5.01383
11
7.3298
21
-5.00986
0
LINE
8
BLACK
6
CONTINUOUS
10
7.3298
20
-5.00986
11
7.33842
21
-5.0041
0
LINE
8
BLACK
6
CONTINUOUS
10
7.33842
20
-5.0041
11
7.34575
21
-4.99677
0
LINE
8
BLACK
6
CONTINUOUS
10
7.34575
20
-4.99677
11
7.35151
21
-4.98816
0
LINE
8
BLACK
6
CONTINUOUS
10
7.35151
20
-4.98816
11
7.35547
21
-4.97858
0
LINE
8
BLACK
6
CONTINUOUS
10
7.35547
20
-4.97858
11
7.35749
21
-4.96842
0
LINE
8
BLACK
6
CONTINUOUS
10
7.35749
20
-4.96842
11
7.35749
21
-4.95805
0
LINE
8
BLACK
6
CONTINUOUS
10
7.35749
20
-4.95805
11
7.35547
21
-4.94789
0
LINE
8
BLACK
6
CONTINUOUS
10
7.35547
20
-4.94789
11
7.35151
21
-4.93831
0
LINE
8
BLACK
6
CONTINUOUS
10
7.35151
20
-4.93831
11
7.34575
21
-4.9297
0
LINE
8
BLACK
6
CONTINUOUS
10
7.34575
20
-4.9297
11
7.33842
21
-4.92237
0
LINE
8
BLACK
6
CONTINUOUS
10
7.33842
20
-4.92237
11
7.3298
21
-4.91661
0
LINE
8
BLACK
6
CONTINUOUS
10
7.3298
20
-4.91661
11
7.32023
21
-4.91264
0
LINE
8
BLACK
6
CONTINUOUS
10
7.32023
20
-4.91264
11
7.31006
21
-4.91062
0
LINE
8
BLACK
6
CONTINUOUS
10
7.31006
20
-4.91062
11
7.2997
21
-4.91062
0
LINE
8
BLACK
6
CONTINUOUS
10
7.2997
20
-4.91062
11
7.28954
21
-4.91264
0
LINE
8
BLACK
6
CONTINUOUS
10
7.28954
20
-4.91264
11
7.27996
21
-4.91661
0
LINE
8
BLACK
6
CONTINUOUS
10
7.27996
20
-4.91661
11
7.27134
21
-4.92237
0
LINE
8
BLACK
6
CONTINUOUS
10
7.27134
20
-4.92237
11
7.26401
21
-4.9297
0
LINE
8
BLACK
6
CONTINUOUS
10
7.26401
20
-4.9297
11
7.25826
21
-4.93831
0
LINE
8
BLACK
6
CONTINUOUS
10
7.25826
20
-4.93831
11
7.25429
21
-4.94789
0
LINE
8
BLACK
6
CONTINUOUS
10
7.25429
20
-4.94789
11
7.25227
21
-4.95805
0
LINE
8
BLACK
6
CONTINUOUS
10
7.25227
20
-4.95805
11
7.25227
21
-4.96842
0
LINE
8
BLACK
6
CONTINUOUS
10
7.25227
20
-4.96842
11
7.25429
21
-4.97858
0
LINE
8
BLACK
6
CONTINUOUS
10
5.97203
20
-3.91753
11
5.9875
21
-3.85276
0
LINE
8
BLACK
6
CONTINUOUS
10
5.9875
20
-3.85276
11
6.00897
21
-3.78971
0
LINE
8
BLACK
6
CONTINUOUS
10
6.00897
20
-3.78971
11
6.03625
21
-3.72896
0
LINE
8
BLACK
6
CONTINUOUS
10
6.03625
20
-3.72896
11
6.06909
21
-3.67102
0
LINE
8
BLACK
6
CONTINUOUS
10
6.06909
20
-3.67102
11
6.10722
21
-3.61642
0
LINE
8
BLACK
6
CONTINUOUS
10
6.10722
20
-3.61642
11
6.1503
21
-3.56562
0
LINE
8
BLACK
6
CONTINUOUS
10
6.1503
20
-3.56562
11
6.19794
21
-3.51908
0
LINE
8
BLACK
6
CONTINUOUS
10
6.19794
20
-3.51908
11
6.24973
21
-3.47721
0
LINE
8
BLACK
6
CONTINUOUS
10
6.24973
20
-3.47721
11
6.30521
21
-3.44037
0
LINE
8
BLACK
6
CONTINUOUS
10
6.30521
20
-3.44037
11
6.3639
21
-3.40889
0
LINE
8
BLACK
6
CONTINUOUS
10
6.3639
20
-3.40889
11
6.42528
21
-3.38305
0
LINE
8
BLACK
6
CONTINUOUS
10
6.42528
20
-3.38305
11
6.48881
21
-3.36306
0
LINE
8
BLACK
6
CONTINUOUS
10
6.48881
20
-3.36306
11
6.55393
21
-3.34911
0
LINE
8
BLACK
6
CONTINUOUS
10
6.55393
20
-3.34911
11
6.62007
21
-3.34132
0
LINE
8
BLACK
6
CONTINUOUS
10
6.62007
20
-3.34132
11
6.68665
21
-3.33976
0
LINE
8
BLACK
6
CONTINUOUS
10
6.68665
20
-3.33976
11
6.75309
21
-3.34444
0
LINE
8
BLACK
6
CONTINUOUS
10
6.75309
20
-3.34444
11
6.81879
21
-3.35532
0
LINE
8
BLACK
6
CONTINUOUS
10
6.81879
20
-3.35532
11
6.88319
21
-3.37231
0
LINE
8
BLACK
6
CONTINUOUS
10
6.88319
20
-3.37231
11
6.94571
21
-3.39525
0
LINE
8
BLACK
6
CONTINUOUS
10
6.94571
20
-3.39525
11
7.00581
21
-3.42395
0
LINE
8
BLACK
6
CONTINUOUS
10
7.00581
20
-3.42395
11
7.06296
21
-3.45814
0
LINE
8
BLACK
6
CONTINUOUS
10
7.06296
20
-3.45814
11
7.11666
21
-3.49754
0
LINE
8
BLACK
6
CONTINUOUS
10
7.11666
20
-3.49754
11
7.16643
21
-3.54179
0
LINE
8
BLACK
6
CONTINUOUS
10
7.16643
20
-3.54179
11
7.21184
21
-3.59051
0
LINE
8
BLACK
6
CONTINUOUS
10
7.21184
20
-3.59051
11
7.25248
21
-3.64327
0
LINE
8
BLACK
6
CONTINUOUS
10
7.25248
20
-3.64327
11
7.28801
21
-3.6996
0
LINE
8
BLACK
6
CONTINUOUS
10
7.28801
20
-3.6996
11
7.31811
21
-3.75901
0
LINE
8
BLACK
6
CONTINUOUS
10
7.31811
20
-3.75901
11
7.34251
21
-3.82098
0
LINE
8
BLACK
6
CONTINUOUS
10
7.34251
20
-3.82098
11
7.361
21
-3.88496
0
LINE
8
BLACK
6
CONTINUOUS
10
7.361
20
-3.88496
11
7.37342
21
-3.95039
0
LINE
8
BLACK
6
CONTINUOUS
10
7.37342
20
-3.95039
11
7.37965
21
-4.0167
0
LINE
8
BLACK
6
CONTINUOUS
10
7.37965
20
-4.0167
11
7.37965
21
-4.0833
0
LINE
8
BLACK
6
CONTINUOUS
10
7.37965
20
-4.0833
11
7.37342
21
-4.14961
0
LINE
8
BLACK
6
CONTINUOUS
10
7.37342
20
-4.14961
11
7.361
21
-4.21504
0
LINE
8
BLACK
6
CONTINUOUS
10
7.361
20
-4.21504
11
7.34251
21
-4.27902
0
LINE
8
BLACK
6
CONTINUOUS
10
7.34251
20
-4.27902
11
7.31811
21
-4.34099
0
LINE
8
BLACK
6
CONTINUOUS
10
7.31811
20
-4.34099
11
7.28801
21
-4.4004
0
LINE
8
BLACK
6
CONTINUOUS
10
7.28801
20
-4.4004
11
7.25248
21
-4.45673
0
LINE
8
BLACK
6
CONTINUOUS
10
7.25248
20
-4.45673
11
7.21184
21
-4.50949
0
LINE
8
BLACK
6
CONTINUOUS
10
7.21184
20
-4.50949
11
7.16643
21
-4.55821
0
LINE
8
BLACK
6
CONTINUOUS
10
7.16643
20
-4.55821
11
7.11666
21
-4.60246
0
LINE
8
BLACK
6
CONTINUOUS
10
7.11666
20
-4.60246
11
7.06296
21
-4.64186
0
LINE
8
BLACK
6
CONTINUOUS
10
7.06296
20
-4.64186
11
7.00581
21
-4.67605
0
LINE
8
BLACK
6
CONTINUOUS
10
7.00581
20
-4.67605
11
6.94571
21
-4.70475
0
LINE
8
BLACK
6
CONTINUOUS
10
6.94571
20
-4.70475
11
6.88319
21
-4.72769
0
LINE
8
BLACK
6
CONTINUOUS
10
6.88319
20
-4.72769
11
6.81879
21
-4.74468
0
LINE
8
BLACK
6
CONTINUOUS
10
6.81879
20
-4.74468
11
6.75309
21
-4.75556
0
LINE
8
BLACK
6
CONTINUOUS
10
6.75309
20
-4.75556
11
6.68665
21
-4.76024
0
LINE
8
BLACK
6
CONTINUOUS
10
6.68665
20
-4.76024
11
6.62007
21
-4.75868
0
LINE
8
BLACK
6
CONTINUOUS
10
6.62007
20
-4.75868
11
6.55393
21
-4.75089
0
LINE
8
BLACK
6
CONTINUOUS
10
6.55393
20
-4.75089
11
6.48881
21
-4.73694
0
LINE
8
BLACK
6
CONTINUOUS
10
6.48881
20
-4.73694
11
6.42528
21
-4.71695
0
LINE
8
BLACK
6
CONTINUOUS
10
6.42528
20
-4.71695
11
6.3639
21
-4.69111
0
LINE
8
BLACK
6
CONTINUOUS
10
6.3639
20
-4.69111
11
6.30521
21
-4.65963
0
LINE
8
BLACK
6
CONTINUOUS
10
6.30521
20
-4.65963
11
6.24973
21
-4.62279
0
LINE
8
BLACK
6
CONTINUOUS
10
6.24973
20
-4.62279
11
6.19794
21
-4.58092
0
LINE
8
BLACK
6
CONTINUOUS
10
6.19794
20
-4.58092
11
6.1503
21
-4.53438
0
LINE
8
BLACK
6
CONTINUOUS
10
6.1503
20
-4.53438
11
6.10722
21
-4.48358
0
LINE
8
BLACK
6
CONTINUOUS
10
6.10722
20
-4.48358
11
6.06909
21
-4.42898
0
LINE
8
BLACK
6
CONTINUOUS
10
6.06909
20
-4.42898
11
6.03625
21
-4.37104
0
LINE
8
BLACK
6
CONTINUOUS
10
6.03625
20
-4.37104
11
6.00897
21
-4.31029
0
LINE
8
BLACK
6
CONTINUOUS
10
6.00897
20
-4.31029
11
5.9875
21
-4.24724
0
LINE
8
BLACK
6
CONTINUOUS
10
5.9875
20
-4.24724
11
5.97203
21
-4.18247
0
LINE
8
BLACK
6
CONTINUOUS
10
5.97203
20
-4.18247
11
5.96269
21
-4.11653
0
LINE
8
BLACK
6
CONTINUOUS
10
5.96269
20
-4.11653
11
5.95957
21
-4.05
0
LINE
8
BLACK
6
CONTINUOUS
10
5.95957
20
-4.05
11
5.96269
21
-3.98347
0
LINE
8
BLACK
6
CONTINUOUS
10
5.96269
20
-3.98347
11
5.97203
21
-3.91753
0
LINE
8
BLACK
6
CONTINUOUS
10
5.97473
20
-4.18195
11
5.99015
21
-4.24648
0
LINE
8
BLACK
6
CONTINUOUS
10
5.99015
20
-4.24648
11
6.01153
21
-4.30928
0
LINE
8
BLACK
6
CONTINUOUS
10
6.01153
20
-4.30928
11
6.0387
21
-4.3698
0
LINE
8
BLACK
6
CONTINUOUS
10
6.0387
20
-4.3698
11
6.07142
21
-4.42751
0
LINE
8
BLACK
6
CONTINUOUS
10
6.07142
20
-4.42751
11
6.1094
21
-4.4819
0
LINE
8
BLACK
6
CONTINUOUS
10
6.1094
20
-4.4819
11
6.15231
21
-4.5325
0
LINE
8
BLACK
6
CONTINUOUS
10
6.15231
20
-4.5325
11
6.19977
21
-4.57886
0
LINE
8
BLACK
6
CONTINUOUS
10
6.19977
20
-4.57886
11
6.25136
21
-4.62057
0
LINE
8
BLACK
6
CONTINUOUS
10
6.25136
20
-4.62057
11
6.30663
21
-4.65726
0
LINE
8
BLACK
6
CONTINUOUS
10
6.30663
20
-4.65726
11
6.36509
21
-4.68862
0
LINE
8
BLACK
6
CONTINUOUS
10
6.36509
20
-4.68862
11
6.42623
21
-4.71437
0
LINE
8
BLACK
6
CONTINUOUS
10
6.42623
20
-4.71437
11
6.48951
21
-4.73427
0
LINE
8
BLACK
6
CONTINUOUS
10
6.48951
20
-4.73427
11
6.55438
21
-4.74817
0
LINE
8
BLACK
6
CONTINUOUS
10
6.55438
20
-4.74817
11
6.62027
21
-4.75593
0
LINE
8
BLACK
6
CONTINUOUS
10
6.62027
20
-4.75593
11
6.68659
21
-4.75748
0
LINE
8
BLACK
6
CONTINUOUS
10
6.68659
20
-4.75748
11
6.75277
21
-4.75282
0
LINE
8
BLACK
6
CONTINUOUS
10
6.75277
20
-4.75282
11
6.81822
21
-4.74198
0
LINE
8
BLACK
6
CONTINUOUS
10
6.81822
20
-4.74198
11
6.88236
21
-4.72506
0
LINE
8
BLACK
6
CONTINUOUS
10
6.88236
20
-4.72506
11
6.94464
21
-4.70221
0
LINE
8
BLACK
6
CONTINUOUS
10
6.94464
20
-4.70221
11
7.00451
21
-4.67363
0
LINE
8
BLACK
6
CONTINUOUS
10
7.00451
20
-4.67363
11
7.06144
21
-4.63956
0
LINE
8
BLACK
6
CONTINUOUS
10
7.06144
20
-4.63956
11
7.11493
21
-4.60032
0
LINE
8
BLACK
6
CONTINUOUS
10
7.11493
20
-4.60032
11
7.1645
21
-4.55623
0
LINE
8
BLACK
6
CONTINUOUS
10
7.1645
20
-4.55623
11
7.20973
21
-4.5077
0
LINE
8
BLACK
6
CONTINUOUS
10
7.20973
20
-4.5077
11
7.25022
21
-4.45515
0
LINE
8
BLACK
6
CONTINUOUS
10
7.25022
20
-4.45515
11
7.28561
21
-4.39904
0
LINE
8
BLACK
6
CONTINUOUS
10
7.28561
20
-4.39904
11
7.31559
21
-4.33986
0
LINE
8
BLACK
6
CONTINUOUS
10
7.31559
20
-4.33986
11
7.3399
21
-4.27813
0
LINE
8
BLACK
6
CONTINUOUS
10
7.3399
20
-4.27813
11
7.35832
21
-4.2144
0
LINE
8
BLACK
6
CONTINUOUS
10
7.35832
20
-4.2144
11
7.37069
21
-4.14922
0
LINE
8
BLACK
6
CONTINUOUS
10
7.37069
20
-4.14922
11
7.3769
21
-4.08317
0
LINE
8
BLACK
6
CONTINUOUS
10
7.3769
20
-4.08317
11
7.3769
21
-4.01683
0
LINE
8
BLACK
6
CONTINUOUS
10
7.3769
20
-4.01683
11
7.37069
21
-3.95078
0
LINE
8
BLACK
6
CONTINUOUS
10
7.37069
20
-3.95078
11
7.35832
21
-3.8856
0
LINE
8
BLACK
6
CONTINUOUS
10
7.35832
20
-3.8856
11
7.3399
21
-3.82187
0
LINE
8
BLACK
6
CONTINUOUS
10
7.3399
20
-3.82187
11
7.31559
21
-3.76014
0
LINE
8
BLACK
6
CONTINUOUS
10
7.31559
20
-3.76014
11
7.28561
21
-3.70096
0
LINE
8
BLACK
6
CONTINUOUS
10
7.28561
20
-3.70096
11
7.25022
21
-3.64485
0
LINE
8
BLACK
6
CONTINUOUS
10
7.25022
20
-3.64485
11
7.20973
21
-3.5923
0
LINE
8
BLACK
6
CONTINUOUS
10
7.20973
20
-3.5923
11
7.1645
21
-3.54377
0
LINE
8
BLACK
6
CONTINUOUS
10
7.1645
20
-3.54377
11
7.11493
21
-3.49968
0
LINE
8
BLACK
6
CONTINUOUS
10
7.11493
20
-3.49968
11
7.06144
21
-3.46044
0
LINE
8
BLACK
6
CONTINUOUS
10
7.06144
20
-3.46044
11
7.00451
21
-3.42637
0
LINE
8
BLACK
6
CONTINUOUS
10
7.00451
20
-3.42637
11
6.94464
21
-3.39779
0
LINE
8
BLACK
6
CONTINUOUS
10
6.94464
20
-3.39779
11
6.88236
21
-3.37494
0
LINE
8
BLACK
6
CONTINUOUS
10
6.88236
20
-3.37494
11
6.81822
21
-3.35802
0
LINE
8
BLACK
6
CONTINUOUS
10
6.81822
20
-3.35802
11
6.75277
21
-3.34718
0
LINE
8
BLACK
6
CONTINUOUS
10
6.75277
20
-3.34718
11
6.68659
21
-3.34252
0
LINE
8
BLACK
6
CONTINUOUS
10
6.68659
20
-3.34252
11
6.62027
21
-3.34407
0
LINE
8
BLACK
6
CONTINUOUS
10
6.62027
20
-3.34407
11
6.55438
21
-3.35183
0
LINE
8
BLACK
6
CONTINUOUS
10
6.55438
20
-3.35183
11
6.48951
21
-3.36573
0
LINE
8
BLACK
6
CONTINUOUS
10
6.48951
20
-3.36573
11
6.42623
21
-3.38563
0
LINE
8
BLACK
6
CONTINUOUS
10
6.42623
20
-3.38563
11
6.36509
21
-3.41138
0
LINE
8
BLACK
6
CONTINUOUS
10
6.36509
20
-3.41138
11
6.30663
21
-3.44274
0
LINE
8
BLACK
6
CONTINUOUS
10
6.30663
20
-3.44274
11
6.25136
21
-3.47943
0
LINE
8
BLACK
6
CONTINUOUS
10
6.25136
20
-3.47943
11
6.19977
21
-3.52114
0
LINE
8
BLACK
6
CONTINUOUS
10
6.19977
20
-3.52114
11
6.15231
21
-3.5675
0
LINE
8
BLACK
6
CONTINUOUS
10
6.15231
20
-3.5675
11
6.1094
21
-3.6181
0
LINE
8
BLACK
6
CONTINUOUS
10
6.1094
20
-3.6181
11
6.07142
21
-3.67249
0
LINE
8
BLACK
6
CONTINUOUS
10
6.07142
20
-3.67249
11
6.0387
21
-3.7302
0
LINE
8
BLACK
6
CONTINUOUS
10
6.0387
20
-3.7302
11
6.01153
21
-3.79072
0
LINE
8
BLACK
6
CONTINUOUS
10
6.01153
20
-3.79072
11
5.99015
21
-3.85352
0
LINE
8
BLACK
6
CONTINUOUS
10
5.99015
20
-3.85352
11
5.97473
21
-3.91805
0
LINE
8
BLACK
6
CONTINUOUS
10
5.97473
20
-3.91805
11
5.96543
21
-3.98373
0
LINE
8
BLACK
6
CONTINUOUS
10
5.96543
20
-3.98373
11
5.96232
21
-4.05
0
LINE
8
BLACK
6
CONTINUOUS
10
5.96232
20
-4.05
11
5.96543
21
-4.11627
0
LINE
8
BLACK
6
CONTINUOUS
10
5.96543
20
-4.11627
11
5.97473
21
-4.18195
0
LINE
8
BLACK
6
CONTINUOUS
10
5.98189
20
-3.12062
11
5.98606
21
-3.11054
0
LINE
8
BLACK
6
CONTINUOUS
10
5.98606
20
-3.11054
11
5.99212
21
-3.10148
0
LINE
8
BLACK
6
CONTINUOUS
10
5.99212
20
-3.10148
11
5.99983
21
-3.09377
0
LINE
8
BLACK
6
CONTINUOUS
10
5.99983
20
-3.09377
11
6.0089
21
-3.08771
0
LINE
8
BLACK
6
CONTINUOUS
10
6.0089
20
-3.08771
11
6.01897
21
-3.08354
0
LINE
8
BLACK
6
CONTINUOUS
10
6.01897
20
-3.08354
11
6.02967
21
-3.08141
0
LINE
8
BLACK
6
CONTINUOUS
10
6.02967
20
-3.08141
11
6.04057
21
-3.08141
0
LINE
8
BLACK
6
CONTINUOUS
10
6.04057
20
-3.08141
11
6.05126
21
-3.08354
0
LINE
8
BLACK
6
CONTINUOUS
10
6.05126
20
-3.08354
11
6.06134
21
-3.08771
0
LINE
8
BLACK
6
CONTINUOUS
10
6.06134
20
-3.08771
11
6.07041
21
-3.09377
0
LINE
8
BLACK
6
CONTINUOUS
10
6.07041
20
-3.09377
11
6.07812
21
-3.10148
0
LINE
8
BLACK
6
CONTINUOUS
10
6.07812
20
-3.10148
11
6.08417
21
-3.11054
0
LINE
8
BLACK
6
CONTINUOUS
10
6.08417
20
-3.11054
11
6.08835
21
-3.12062
0
LINE
8
BLACK
6
CONTINUOUS
10
6.08835
20
-3.12062
11
6.09047
21
-3.13131
0
LINE
8
BLACK
6
CONTINUOUS
10
6.09047
20
-3.13131
11
6.09047
21
-3.14222
0
LINE
8
BLACK
6
CONTINUOUS
10
6.09047
20
-3.14222
11
6.08835
21
-3.15291
0
LINE
8
BLACK
6
CONTINUOUS
10
6.08835
20
-3.15291
11
6.08417
21
-3.16299
0
LINE
8
BLACK
6
CONTINUOUS
10
6.08417
20
-3.16299
11
6.07812
21
-3.17205
0
LINE
8
BLACK
6
CONTINUOUS
10
6.07812
20
-3.17205
11
6.07041
21
-3.17976
0
LINE
8
BLACK
6
CONTINUOUS
10
6.07041
20
-3.17976
11
6.06134
21
-3.18582
0
LINE
8
BLACK
6
CONTINUOUS
10
6.06134
20
-3.18582
11
6.05126
21
-3.18999
0
LINE
8
BLACK
6
CONTINUOUS
10
6.05126
20
-3.18999
11
6.04057
21
-3.19212
0
LINE
8
BLACK
6
CONTINUOUS
10
6.04057
20
-3.19212
11
6.02967
21
-3.19212
0
LINE
8
BLACK
6
CONTINUOUS
10
6.02967
20
-3.19212
11
6.01897
21
-3.18999
0
LINE
8
BLACK
6
CONTINUOUS
10
6.01897
20
-3.18999
11
6.0089
21
-3.18582
0
LINE
8
BLACK
6
CONTINUOUS
10
6.0089
20
-3.18582
11
5.99983
21
-3.17976
0
LINE
8
BLACK
6
CONTINUOUS
10
5.99983
20
-3.17976
11
5.99212
21
-3.17205
0
LINE
8
BLACK
6
CONTINUOUS
10
5.99212
20
-3.17205
11
5.98606
21
-3.16299
0
LINE
8
BLACK
6
CONTINUOUS
10
5.98606
20
-3.16299
11
5.98189
21
-3.15291
0
LINE
8
BLACK
6
CONTINUOUS
10
5.98189
20
-3.15291
11
5.97976
21
-3.14222
0
LINE
8
BLACK
6
CONTINUOUS
10
5.97976
20
-3.14222
11
5.97976
21
-3.13131
0
LINE
8
BLACK
6
CONTINUOUS
10
5.97976
20
-3.13131
11
5.98189
21
-3.12062
0
LINE
8
BLACK
6
CONTINUOUS
10
5.98453
20
-3.15211
11
5.98849
21
-3.16169
0
LINE
8
BLACK
6
CONTINUOUS
10
5.98849
20
-3.16169
11
5.99425
21
-3.1703
0
LINE
8
BLACK
6
CONTINUOUS
10
5.99425
20
-3.1703
11
6.00158
21
-3.17763
0
LINE
8
BLACK
6
CONTINUOUS
10
6.00158
20
-3.17763
11
6.0102
21
-3.18339
0
LINE
8
BLACK
6
CONTINUOUS
10
6.0102
20
-3.18339
11
6.01977
21
-3.18736
0
LINE
8
BLACK
6
CONTINUOUS
10
6.01977
20
-3.18736
11
6.02994
21
-3.18938
0
LINE
8
BLACK
6
CONTINUOUS
10
6.02994
20
-3.18938
11
6.0403
21
-3.18938
0
LINE
8
BLACK
6
CONTINUOUS
10
6.0403
20
-3.18938
11
6.05046
21
-3.18736
0
LINE
8
BLACK
6
CONTINUOUS
10
6.05046
20
-3.18736
11
6.06004
21
-3.18339
0
LINE
8
BLACK
6
CONTINUOUS
10
6.06004
20
-3.18339
11
6.06866
21
-3.17763
0
LINE
8
BLACK
6
CONTINUOUS
10
6.06866
20
-3.17763
11
6.07599
21
-3.1703
0
LINE
8
BLACK
6
CONTINUOUS
10
6.07599
20
-3.1703
11
6.08174
21
-3.16169
0
LINE
8
BLACK
6
CONTINUOUS
10
6.08174
20
-3.16169
11
6.08571
21
-3.15211
0
LINE
8
BLACK
6
CONTINUOUS
10
6.08571
20
-3.15211
11
6.08773
21
-3.14195
0
LINE
8
BLACK
6
CONTINUOUS
10
6.08773
20
-3.14195
11
6.08773
21
-3.13158
0
LINE
8
BLACK
6
CONTINUOUS
10
6.08773
20
-3.13158
11
6.08571
21
-3.12142
0
LINE
8
BLACK
6
CONTINUOUS
10
6.08571
20
-3.12142
11
6.08174
21
-3.11184
0
LINE
8
BLACK
6
CONTINUOUS
10
6.08174
20
-3.11184
11
6.07599
21
-3.10323
0
LINE
8
BLACK
6
CONTINUOUS
10
6.07599
20
-3.10323
11
6.06866
21
-3.0959
0
LINE
8
BLACK
6
CONTINUOUS
10
6.06866
20
-3.0959
11
6.06004
21
-3.09014
0
LINE
8
BLACK
6
CONTINUOUS
10
6.06004
20
-3.09014
11
6.05046
21
-3.08617
0
LINE
8
BLACK
6
CONTINUOUS
10
6.05046
20
-3.08617
11
6.0403
21
-3.08415
0
LINE
8
BLACK
6
CONTINUOUS
10
6.0403
20
-3.08415
11
6.02994
21
-3.08415
0
LINE
8
BLACK
6
CONTINUOUS
10
6.02994
20
-3.08415
11
6.01977
21
-3.08617
0
LINE
8
BLACK
6
CONTINUOUS
10
6.01977
20
-3.08617
11
6.0102
21
-3.09014
0
LINE
8
BLACK
6
CONTINUOUS
10
6.0102
20
-3.09014
11
6.00158
21
-3.0959
0
LINE
8
BLACK
6
CONTINUOUS
10
6.00158
20
-3.0959
11
5.99425
21
-3.10323
0
LINE
8
BLACK
6
CONTINUOUS
10
5.99425
20
-3.10323
11
5.98849
21
-3.11184
0
LINE
8
BLACK
6
CONTINUOUS
10
5.98849
20
-3.11184
11
5.98453
21
-3.12142
0
LINE
8
BLACK
6
CONTINUOUS
10
5.98453
20
-3.12142
11
5.98251
21
-3.13158
0
LINE
8
BLACK
6
CONTINUOUS
10
5.98251
20
-3.13158
11
5.98251
21
-3.14195
0
LINE
8
BLACK
6
CONTINUOUS
10
5.98251
20
-3.14195
11
5.98453
21
-3.15211
0
LINE
8
BLACK
6
CONTINUOUS
10
7.25119
20
-3.12034
11
7.25536
21
-3.11026
0
LINE
8
BLACK
6
CONTINUOUS
10
7.25536
20
-3.11026
11
7.26142
21
-3.1012
0
LINE
8
BLACK
6
CONTINUOUS
10
7.26142
20
-3.1012
11
7.26913
21
-3.09349
0
LINE
8
BLACK
6
CONTINUOUS
10
7.26913
20
-3.09349
11
7.27819
21
-3.08743
0
LINE
8
BLACK
6
CONTINUOUS
10
7.27819
20
-3.08743
11
7.28827
21
-3.08325
0
LINE
8
BLACK
6
CONTINUOUS
10
7.28827
20
-3.08325
11
7.29896
21
-3.08113
0
LINE
8
BLACK
6
CONTINUOUS
10
7.29896
20
-3.08113
11
7.30987
21
-3.08113
0
LINE
8
BLACK
6
CONTINUOUS
10
7.30987
20
-3.08113
11
7.32056
21
-3.08325
0
LINE
8
BLACK
6
CONTINUOUS
10
7.32056
20
-3.08325
11
7.33063
21
-3.08743
0
LINE
8
BLACK
6
CONTINUOUS
10
7.33063
20
-3.08743
11
7.3397
21
-3.09349
0
LINE
8
BLACK
6
CONTINUOUS
10
7.3397
20
-3.09349
11
7.34741
21
-3.1012
0
LINE
8
BLACK
6
CONTINUOUS
10
7.34741
20
-3.1012
11
7.35347
21
-3.11026
0
LINE
8
BLACK
6
CONTINUOUS
10
7.35347
20
-3.11026
11
7.35764
21
-3.12034
0
LINE
8
BLACK
6
CONTINUOUS
10
7.35764
20
-3.12034
11
7.35977
21
-3.13103
0
LINE
8
BLACK
6
CONTINUOUS
10
7.35977
20
-3.13103
11
7.35977
21
-3.14193
0
LINE
8
BLACK
6
CONTINUOUS
10
7.35977
20
-3.14193
11
7.35764
21
-3.15263
0
LINE
8
BLACK
6
CONTINUOUS
10
7.35764
20
-3.15263
11
7.35347
21
-3.1627
0
LINE
8
BLACK
6
CONTINUOUS
10
7.35347
20
-3.1627
11
7.34741
21
-3.17177
0
LINE
8
BLACK
6
CONTINUOUS
10
7.34741
20
-3.17177
11
7.3397
21
-3.17948
0
LINE
8
BLACK
6
CONTINUOUS
10
7.3397
20
-3.17948
11
7.33063
21
-3.18554
0
LINE
8
BLACK
6
CONTINUOUS
10
7.33063
20
-3.18554
11
7.32056
21
-3.18971
0
LINE
8
BLACK
6
CONTINUOUS
10
7.32056
20
-3.18971
11
7.30987
21
-3.19184
0
LINE
8
BLACK
6
CONTINUOUS
10
7.30987
20
-3.19184
11
7.29896
21
-3.19184
0
LINE
8
BLACK
6
CONTINUOUS
10
7.29896
20
-3.19184
11
7.28827
21
-3.18971
0
LINE
8
BLACK
6
CONTINUOUS
10
7.28827
20
-3.18971
11
7.27819
21
-3.18554
0
LINE
8
BLACK
6
CONTINUOUS
10
7.27819
20
-3.18554
11
7.26913
21
-3.17948
0
LINE
8
BLACK
6
CONTINUOUS
10
7.26913
20
-3.17948
11
7.26142
21
-3.17177
0
LINE
8
BLACK
6
CONTINUOUS
10
7.26142
20
-3.17177
11
7.25536
21
-3.1627
0
LINE
8
BLACK
6
CONTINUOUS
10
7.25536
20
-3.1627
11
7.25119
21
-3.15263
0
LINE
8
BLACK
6
CONTINUOUS
10
7.25119
20
-3.15263
11
7.24906
21
-3.14193
0
LINE
8
BLACK
6
CONTINUOUS
10
7.24906
20
-3.14193
11
7.24906
21
-3.13103
0
LINE
8
BLACK
6
CONTINUOUS
10
7.24906
20
-3.13103
11
7.25119
21
-3.12034
0
LINE
8
BLACK
6
CONTINUOUS
10
7.25382
20
-3.15183
11
7.25779
21
-3.1614
0
LINE
8
BLACK
6
CONTINUOUS
10
7.25779
20
-3.1614
11
7.26355
21
-3.17002
0
LINE
8
BLACK
6
CONTINUOUS
10
7.26355
20
-3.17002
11
7.27088
21
-3.17735
0
LINE
8
BLACK
6
CONTINUOUS
10
7.27088
20
-3.17735
11
7.27949
21
-3.18311
0
LINE
8
BLACK
6
CONTINUOUS
10
7.27949
20
-3.18311
11
7.28907
21
-3.18707
0
LINE
8
BLACK
6
CONTINUOUS
10
7.28907
20
-3.18707
11
7.29923
21
-3.1891
0
LINE
8
BLACK
6
CONTINUOUS
10
7.29923
20
-3.1891
11
7.3096
21
-3.1891
0
LINE
8
BLACK
6
CONTINUOUS
10
7.3096
20
-3.1891
11
7.31976
21
-3.18707
0
LINE
8
BLACK
6
CONTINUOUS
10
7.31976
20
-3.18707
11
7.32934
21
-3.18311
0
LINE
8
BLACK
6
CONTINUOUS
10
7.32934
20
-3.18311
11
7.33795
21
-3.17735
0
LINE
8
BLACK
6
CONTINUOUS
10
7.33795
20
-3.17735
11
7.34528
21
-3.17002
0
LINE
8
BLACK
6
CONTINUOUS
10
7.34528
20
-3.17002
11
7.35104
21
-3.1614
0
LINE
8
BLACK
6
CONTINUOUS
10
7.35104
20
-3.1614
11
7.35501
21
-3.15183
0
LINE
8
BLACK
6
CONTINUOUS
10
7.35501
20
-3.15183
11
7.35703
21
-3.14166
0
LINE
8
BLACK
6
CONTINUOUS
10
7.35703
20
-3.14166
11
7.35703
21
-3.1313
0
LINE
8
BLACK
6
CONTINUOUS
10
7.35703
20
-3.1313
11
7.35501
21
-3.12114
0
LINE
8
BLACK
6
CONTINUOUS
10
7.35501
20
-3.12114
11
7.35104
21
-3.11156
0
LINE
8
BLACK
6
CONTINUOUS
10
7.35104
20
-3.11156
11
7.34528
21
-3.10294
0
LINE
8
BLACK
6
CONTINUOUS
10
7.34528
20
-3.10294
11
7.33795
21
-3.09562
0
LINE
8
BLACK
6
CONTINUOUS
10
7.33795
20
-3.09562
11
7.32934
21
-3.08986
0
LINE
8
BLACK
6
CONTINUOUS
10
7.32934
20
-3.08986
11
7.31976
21
-3.08589
0
LINE
8
BLACK
6
CONTINUOUS
10
7.31976
20
-3.08589
11
7.3096
21
-3.08387
0
LINE
8
BLACK
6
CONTINUOUS
10
7.3096
20
-3.08387
11
7.29923
21
-3.08387
0
LINE
8
BLACK
6
CONTINUOUS
10
7.29923
20
-3.08387
11
7.28907
21
-3.08589
0
LINE
8
BLACK
6
CONTINUOUS
10
7.28907
20
-3.08589
11
7.27949
21
-3.08986
0
LINE
8
BLACK
6
CONTINUOUS
10
7.27949
20
-3.08986
11
7.27088
21
-3.09562
0
LINE
8
BLACK
6
CONTINUOUS
10
7.27088
20
-3.09562
11
7.26355
21
-3.10294
0
LINE
8
BLACK
6
CONTINUOUS
10
7.26355
20
-3.10294
11
7.25779
21
-3.11156
0
LINE
8
BLACK
6
CONTINUOUS
10
7.25779
20
-3.11156
11
7.25382
21
-3.12114
0
LINE
8
BLACK
6
CONTINUOUS
10
7.25382
20
-3.12114
11
7.2518
21
-3.1313
0
LINE
8
BLACK
6
CONTINUOUS
10
7.2518
20
-3.1313
11
7.2518
21
-3.14166
0
LINE
8
BLACK
6
CONTINUOUS
10
7.2518
20
-3.14166
11
7.25382
21
-3.15183
  0
ENDSEC
  0
EOF
