  0
SECTION
  2
HEADER
  9
$ANGBASE
  50
0.0
  9
$ANGDIR
  70
1
  9
$MEASUREMENT
  70
0
  0
ENDSEC
  0
SECTION
  2
TABLES
  0
TABLE
  2
LTYPE
  70
4
  0
LTYPE
  5
40F
  2
CONTINUOUS
  70
0
  3
Solid line
  72
65
  73
0
  40
0.0
  0
LTYPE
  5
410
  2
DASHDOT
 70
0
  3
Dash Dot ____ _ ____ _
 72
65
 73
4
 40
2.0
 49
1.25
 49
-0.25
 49
0.25
 49
-0.25
  0
LTYPE
  5
411
  2
DASHED
 70
0
  3
Dashed __ __ __ __ __
 72
65
 73
2
 40
0.75
 49
0.5
 49
-0.25
  0
LTYPE
  5
43B
  2
DOTTED
 70
0
  3
Dotted .  .  .  .
 72
65
 73
2
 40
0.2
 49
0.0
 49
-0.2
  0
ENDTAB
  0
TABLE
  2
STYLE
  70
4
  0
STYLE
  2
KICAD
  70
0
  40
0
  41
1
  42
1
  50
0
  71
0
  3
isocp.shx
  0
STYLE
  2
KICADB
  70
0
  40
0
  41
1
  42
1
  50
0
  71
0
  3
isocp.shx
  0
STYLE
  2
KICADI
  70
0
  40
0
  41
1
  42
1
  50
15
  71
0
  3
isocp.shx
  0
STYLE
  2
KICADBI
  70
0
  40
0
  41
1
  42
1
  50
15
  71
0
  3
isocp.shx
  0
ENDTAB
  0
TABLE
  2
LAYER
  70
1
  0
LAYER
  2
BLACK
  70
0
  62
7
  6
CONTINUOUS
  0
ENDTAB
  0
ENDSEC
  0
SECTION
  2
ENTITIES
0
LINE
8
BLACK
6
CONTINUOUS
10
7.253
20
-3.02449
11
7.49149
21
-3.02461
0
LINE
8
BLACK
6
CONTINUOUS
10
7.49149
20
-3.02461
11
7.49149
21
-3.02461
0
LINE
8
BLACK
6
CONTINUOUS
10
7.49149
20
-3.02461
11
7.49158
21
-3.02461
0
LINE
8
BLACK
6
CONTINUOUS
10
7.49158
20
-3.02461
11
7.49162
21
-3.02461
0
LINE
8
BLACK
6
CONTINUOUS
10
7.49162
20
-3.02461
11
7.49163
21
-3.02461
0
LINE
8
BLACK
6
CONTINUOUS
10
7.49163
20
-3.02461
11
7.49169
21
-3.02461
0
LINE
8
BLACK
6
CONTINUOUS
10
7.49169
20
-3.02461
11
7.49173
21
-3.02462
0
LINE
8
BLACK
6
CONTINUOUS
10
7.49173
20
-3.02462
11
7.49177
21
-3.02462
0
LINE
8
BLACK
6
CONTINUOUS
10
7.49177
20
-3.02462
11
7.49182
21
-3.02464
0
LINE
8
BLACK
6
CONTINUOUS
10
7.49182
20
-3.02464
11
7.49188
21
-3.02465
0
LINE
8
BLACK
6
CONTINUOUS
10
7.49188
20
-3.02465
11
7.49191
21
-3.02466
0
LINE
8
BLACK
6
CONTINUOUS
10
7.49191
20
-3.02466
11
7.49195
21
-3.02468
0
LINE
8
BLACK
6
CONTINUOUS
10
7.49195
20
-3.02468
11
7.492
21
-3.0247
0
LINE
8
BLACK
6
CONTINUOUS
10
7.492
20
-3.0247
11
7.49205
21
-3.02473
0
LINE
8
BLACK
6
CONTINUOUS
10
7.49205
20
-3.02473
11
7.49209
21
-3.02475
0
LINE
8
BLACK
6
CONTINUOUS
10
7.49209
20
-3.02475
11
7.49212
21
-3.02477
0
LINE
8
BLACK
6
CONTINUOUS
10
7.49212
20
-3.02477
11
7.49217
21
-3.0248
0
LINE
8
BLACK
6
CONTINUOUS
10
7.49217
20
-3.0248
11
7.49221
21
-3.02484
0
LINE
8
BLACK
6
CONTINUOUS
10
7.49221
20
-3.02484
11
7.49224
21
-3.02487
0
LINE
8
BLACK
6
CONTINUOUS
10
7.49224
20
-3.02487
11
7.49227
21
-3.02489
0
LINE
8
BLACK
6
CONTINUOUS
10
7.49227
20
-3.02489
11
7.49231
21
-3.02493
0
LINE
8
BLACK
6
CONTINUOUS
10
7.49231
20
-3.02493
11
7.49235
21
-3.02497
0
LINE
8
BLACK
6
CONTINUOUS
10
7.49235
20
-3.02497
11
7.49237
21
-3.02501
0
LINE
8
BLACK
6
CONTINUOUS
10
7.49237
20
-3.02501
11
7.4924
21
-3.02504
0
LINE
8
BLACK
6
CONTINUOUS
10
7.4924
20
-3.02504
11
7.49242
21
-3.02509
0
LINE
8
BLACK
6
CONTINUOUS
10
7.49242
20
-3.02509
11
7.49245
21
-3.02514
0
LINE
8
BLACK
6
CONTINUOUS
10
7.49245
20
-3.02514
11
7.49247
21
-3.02518
0
LINE
8
BLACK
6
CONTINUOUS
10
7.49247
20
-3.02518
11
7.49249
21
-3.02521
0
LINE
8
BLACK
6
CONTINUOUS
10
7.49249
20
-3.02521
11
7.4925
21
-3.02527
0
LINE
8
BLACK
6
CONTINUOUS
10
7.4925
20
-3.02527
11
7.49253
21
-3.02532
0
LINE
8
BLACK
6
CONTINUOUS
10
7.49253
20
-3.02532
11
7.49253
21
-3.02536
0
LINE
8
BLACK
6
CONTINUOUS
10
7.49253
20
-3.02536
11
7.49254
21
-3.0254
0
LINE
8
BLACK
6
CONTINUOUS
10
7.49254
20
-3.0254
11
7.49255
21
-3.02545
0
LINE
8
BLACK
6
CONTINUOUS
10
7.49255
20
-3.02545
11
7.49255
21
-3.02546
0
LINE
8
BLACK
6
CONTINUOUS
10
7.49255
20
-3.02546
11
7.49256
21
-3.0255
0
LINE
8
BLACK
6
CONTINUOUS
10
7.49256
20
-3.0255
11
7.49256
21
-3.02559
0
LINE
8
BLACK
6
CONTINUOUS
10
7.49256
20
-3.02559
11
7.49256
21
-3.0256
0
LINE
8
BLACK
6
CONTINUOUS
10
7.49256
20
-3.0256
11
7.53269
21
-3.50285
0
LINE
8
BLACK
6
CONTINUOUS
10
7.53269
20
-3.50285
11
7.57283
21
-3.57195
0
LINE
8
BLACK
6
CONTINUOUS
10
7.57283
20
-3.57195
11
7.57287
21
-3.57202
0
LINE
8
BLACK
6
CONTINUOUS
10
7.57287
20
-3.57202
11
7.60756
21
-3.64426
0
LINE
8
BLACK
6
CONTINUOUS
10
7.60756
20
-3.64426
11
7.60756
21
-3.64426
0
LINE
8
BLACK
6
CONTINUOUS
10
7.60756
20
-3.64426
11
7.60759
21
-3.64433
0
LINE
8
BLACK
6
CONTINUOUS
10
7.60759
20
-3.64433
11
7.6365
21
-3.71907
0
LINE
8
BLACK
6
CONTINUOUS
10
7.6365
20
-3.71907
11
7.6365
21
-3.71907
0
LINE
8
BLACK
6
CONTINUOUS
10
7.6365
20
-3.71907
11
7.63653
21
-3.71914
0
LINE
8
BLACK
6
CONTINUOUS
10
7.63653
20
-3.71914
11
7.65949
21
-3.79592
0
LINE
8
BLACK
6
CONTINUOUS
10
7.65949
20
-3.79592
11
7.6595
21
-3.796
0
LINE
8
BLACK
6
CONTINUOUS
10
7.6595
20
-3.796
11
7.67637
21
-3.87434
0
LINE
8
BLACK
6
CONTINUOUS
10
7.67637
20
-3.87434
11
7.67637
21
-3.87434
0
LINE
8
BLACK
6
CONTINUOUS
10
7.67637
20
-3.87434
11
7.67638
21
-3.87442
0
LINE
8
BLACK
6
CONTINUOUS
10
7.67638
20
-3.87442
11
7.68705
21
-3.95384
0
LINE
8
BLACK
6
CONTINUOUS
10
7.68705
20
-3.95384
11
7.68706
21
-3.95392
0
LINE
8
BLACK
6
CONTINUOUS
10
7.68706
20
-3.95392
11
7.69146
21
-4.03393
0
LINE
8
BLACK
6
CONTINUOUS
10
7.69146
20
-4.03393
11
7.69146
21
-4.03393
0
LINE
8
BLACK
6
CONTINUOUS
10
7.69146
20
-4.03393
11
7.69146
21
-4.03401
0
LINE
8
BLACK
6
CONTINUOUS
10
7.69146
20
-4.03401
11
7.68957
21
-4.11413
0
LINE
8
BLACK
6
CONTINUOUS
10
7.68957
20
-4.11413
11
7.68957
21
-4.11413
0
LINE
8
BLACK
6
CONTINUOUS
10
7.68957
20
-4.11413
11
7.68957
21
-4.1142
0
LINE
8
BLACK
6
CONTINUOUS
10
7.68957
20
-4.1142
11
7.6814
21
-4.19392
0
LINE
8
BLACK
6
CONTINUOUS
10
7.6814
20
-4.19392
11
7.68139
21
-4.194
0
LINE
8
BLACK
6
CONTINUOUS
10
7.68139
20
-4.194
11
7.66699
21
-4.27283
0
LINE
8
BLACK
6
CONTINUOUS
10
7.66699
20
-4.27283
11
7.66699
21
-4.27283
0
LINE
8
BLACK
6
CONTINUOUS
10
7.66699
20
-4.27283
11
7.66697
21
-4.27291
0
LINE
8
BLACK
6
CONTINUOUS
10
7.66697
20
-4.27291
11
7.64643
21
-4.35037
0
LINE
8
BLACK
6
CONTINUOUS
10
7.64643
20
-4.35037
11
7.64641
21
-4.35044
0
LINE
8
BLACK
6
CONTINUOUS
10
7.64641
20
-4.35044
11
7.61985
21
-4.42605
0
LINE
8
BLACK
6
CONTINUOUS
10
7.61985
20
-4.42605
11
7.61982
21
-4.42612
0
LINE
8
BLACK
6
CONTINUOUS
10
7.61982
20
-4.42612
11
7.58742
21
-4.49942
0
LINE
8
BLACK
6
CONTINUOUS
10
7.58742
20
-4.49942
11
7.58739
21
-4.49949
0
LINE
8
BLACK
6
CONTINUOUS
10
7.58739
20
-4.49949
11
7.58739
21
-4.49949
0
LINE
8
BLACK
6
CONTINUOUS
10
7.58739
20
-4.49949
11
7.54933
21
-4.57001
0
LINE
8
BLACK
6
CONTINUOUS
10
7.54933
20
-4.57001
11
7.54932
21
-4.57003
0
LINE
8
BLACK
6
CONTINUOUS
10
7.54932
20
-4.57003
11
7.5493
21
-4.57006
0
LINE
8
BLACK
6
CONTINUOUS
10
7.5493
20
-4.57006
11
7.53269
21
-4.59717
0
LINE
8
BLACK
6
CONTINUOUS
10
7.53269
20
-4.59717
11
7.49256
21
-5.0744
0
LINE
8
BLACK
6
CONTINUOUS
10
7.49256
20
-5.0744
11
7.49256
21
-5.07441
0
LINE
8
BLACK
6
CONTINUOUS
10
7.49256
20
-5.07441
11
7.49256
21
-5.0745
0
LINE
8
BLACK
6
CONTINUOUS
10
7.49256
20
-5.0745
11
7.49255
21
-5.07454
0
LINE
8
BLACK
6
CONTINUOUS
10
7.49255
20
-5.07454
11
7.49255
21
-5.07455
0
LINE
8
BLACK
6
CONTINUOUS
10
7.49255
20
-5.07455
11
7.49254
21
-5.0746
0
LINE
8
BLACK
6
CONTINUOUS
10
7.49254
20
-5.0746
11
7.49253
21
-5.07464
0
LINE
8
BLACK
6
CONTINUOUS
10
7.49253
20
-5.07464
11
7.49253
21
-5.07468
0
LINE
8
BLACK
6
CONTINUOUS
10
7.49253
20
-5.07468
11
7.4925
21
-5.07473
0
LINE
8
BLACK
6
CONTINUOUS
10
7.4925
20
-5.07473
11
7.49249
21
-5.07479
0
LINE
8
BLACK
6
CONTINUOUS
10
7.49249
20
-5.07479
11
7.49247
21
-5.07482
0
LINE
8
BLACK
6
CONTINUOUS
10
7.49247
20
-5.07482
11
7.49245
21
-5.07486
0
LINE
8
BLACK
6
CONTINUOUS
10
7.49245
20
-5.07486
11
7.49242
21
-5.07491
0
LINE
8
BLACK
6
CONTINUOUS
10
7.49242
20
-5.07491
11
7.4924
21
-5.07496
0
LINE
8
BLACK
6
CONTINUOUS
10
7.4924
20
-5.07496
11
7.49237
21
-5.07499
0
LINE
8
BLACK
6
CONTINUOUS
10
7.49237
20
-5.07499
11
7.49235
21
-5.07503
0
LINE
8
BLACK
6
CONTINUOUS
10
7.49235
20
-5.07503
11
7.49231
21
-5.07507
0
LINE
8
BLACK
6
CONTINUOUS
10
7.49231
20
-5.07507
11
7.49227
21
-5.07511
0
LINE
8
BLACK
6
CONTINUOUS
10
7.49227
20
-5.07511
11
7.49224
21
-5.07513
0
LINE
8
BLACK
6
CONTINUOUS
10
7.49224
20
-5.07513
11
7.49221
21
-5.07516
0
LINE
8
BLACK
6
CONTINUOUS
10
7.49221
20
-5.07516
11
7.49217
21
-5.0752
0
LINE
8
BLACK
6
CONTINUOUS
10
7.49217
20
-5.0752
11
7.49212
21
-5.07523
0
LINE
8
BLACK
6
CONTINUOUS
10
7.49212
20
-5.07523
11
7.49209
21
-5.07525
0
LINE
8
BLACK
6
CONTINUOUS
10
7.49209
20
-5.07525
11
7.49205
21
-5.07527
0
LINE
8
BLACK
6
CONTINUOUS
10
7.49205
20
-5.07527
11
7.492
21
-5.0753
0
LINE
8
BLACK
6
CONTINUOUS
10
7.492
20
-5.0753
11
7.49195
21
-5.07532
0
LINE
8
BLACK
6
CONTINUOUS
10
7.49195
20
-5.07532
11
7.49191
21
-5.07534
0
LINE
8
BLACK
6
CONTINUOUS
10
7.49191
20
-5.07534
11
7.49188
21
-5.07535
0
LINE
8
BLACK
6
CONTINUOUS
10
7.49188
20
-5.07535
11
7.49182
21
-5.07536
0
LINE
8
BLACK
6
CONTINUOUS
10
7.49182
20
-5.07536
11
7.49177
21
-5.07538
0
LINE
8
BLACK
6
CONTINUOUS
10
7.49177
20
-5.07538
11
7.49173
21
-5.07538
0
LINE
8
BLACK
6
CONTINUOUS
10
7.49173
20
-5.07538
11
7.49169
21
-5.07539
0
LINE
8
BLACK
6
CONTINUOUS
10
7.49169
20
-5.07539
11
7.49163
21
-5.07539
0
LINE
8
BLACK
6
CONTINUOUS
10
7.49163
20
-5.07539
11
7.49162
21
-5.07539
0
LINE
8
BLACK
6
CONTINUOUS
10
7.49162
20
-5.07539
11
7.49158
21
-5.07539
0
LINE
8
BLACK
6
CONTINUOUS
10
7.49158
20
-5.07539
11
7.49149
21
-5.07539
0
LINE
8
BLACK
6
CONTINUOUS
10
7.49149
20
-5.07539
11
7.49149
21
-5.07539
0
LINE
8
BLACK
6
CONTINUOUS
10
7.49149
20
-5.07539
11
7.253
21
-5.07551
0
LINE
8
BLACK
6
CONTINUOUS
10
7.253
20
-5.07551
11
7.25295
21
-5.07551
0
LINE
8
BLACK
6
CONTINUOUS
10
7.25295
20
-5.07551
11
7.25288
21
-5.0755
0
LINE
8
BLACK
6
CONTINUOUS
10
7.25288
20
-5.0755
11
7.25276
21
-5.07549
0
LINE
8
BLACK
6
CONTINUOUS
10
7.25276
20
-5.07549
11
7.25276
21
-5.07549
0
LINE
8
BLACK
6
CONTINUOUS
10
7.25276
20
-5.07549
11
7.25275
21
-5.07549
0
LINE
8
BLACK
6
CONTINUOUS
10
7.25275
20
-5.07549
11
7.25269
21
-5.07547
0
LINE
8
BLACK
6
CONTINUOUS
10
7.25269
20
-5.07547
11
7.25257
21
-5.07543
0
LINE
8
BLACK
6
CONTINUOUS
10
7.25257
20
-5.07543
11
7.25257
21
-5.07543
0
LINE
8
BLACK
6
CONTINUOUS
10
7.25257
20
-5.07543
11
7.25257
21
-5.07543
0
LINE
8
BLACK
6
CONTINUOUS
10
7.25257
20
-5.07543
11
7.2525
21
-5.0754
0
LINE
8
BLACK
6
CONTINUOUS
10
7.2525
20
-5.0754
11
7.2524
21
-5.07534
0
LINE
8
BLACK
6
CONTINUOUS
10
7.2524
20
-5.07534
11
7.2524
21
-5.07534
0
LINE
8
BLACK
6
CONTINUOUS
10
7.2524
20
-5.07534
11
7.2524
21
-5.07534
0
LINE
8
BLACK
6
CONTINUOUS
10
7.2524
20
-5.07534
11
7.25234
21
-5.0753
0
LINE
8
BLACK
6
CONTINUOUS
10
7.25234
20
-5.0753
11
7.25225
21
-5.07522
0
LINE
8
BLACK
6
CONTINUOUS
10
7.25225
20
-5.07522
11
7.25225
21
-5.07522
0
LINE
8
BLACK
6
CONTINUOUS
10
7.25225
20
-5.07522
11
7.25225
21
-5.07522
0
LINE
8
BLACK
6
CONTINUOUS
10
7.25225
20
-5.07522
11
7.25217
21
-5.07513
0
LINE
8
BLACK
6
CONTINUOUS
10
7.25217
20
-5.07513
11
7.25213
21
-5.07507
0
LINE
8
BLACK
6
CONTINUOUS
10
7.25213
20
-5.07507
11
7.25213
21
-5.07507
0
LINE
8
BLACK
6
CONTINUOUS
10
7.25213
20
-5.07507
11
7.25213
21
-5.07507
0
LINE
8
BLACK
6
CONTINUOUS
10
7.25213
20
-5.07507
11
7.25207
21
-5.07496
0
LINE
8
BLACK
6
CONTINUOUS
10
7.25207
20
-5.07496
11
7.25203
21
-5.0749
0
LINE
8
BLACK
6
CONTINUOUS
10
7.25203
20
-5.0749
11
7.25203
21
-5.0749
0
LINE
8
BLACK
6
CONTINUOUS
10
7.25203
20
-5.0749
11
7.25203
21
-5.0749
0
LINE
8
BLACK
6
CONTINUOUS
10
7.25203
20
-5.0749
11
7.252
21
-5.07478
0
LINE
8
BLACK
6
CONTINUOUS
10
7.252
20
-5.07478
11
7.25198
21
-5.07471
0
LINE
8
BLACK
6
CONTINUOUS
10
7.25198
20
-5.07471
11
7.25198
21
-5.07471
0
LINE
8
BLACK
6
CONTINUOUS
10
7.25198
20
-5.07471
11
7.25198
21
-5.07471
0
LINE
8
BLACK
6
CONTINUOUS
10
7.25198
20
-5.07471
11
7.25196
21
-5.07457
0
LINE
8
BLACK
6
CONTINUOUS
10
7.25196
20
-5.07457
11
7.25196
21
-5.07457
0
LINE
8
BLACK
6
CONTINUOUS
10
7.25196
20
-5.07457
11
7.25196
21
-5.07452
0
LINE
8
BLACK
6
CONTINUOUS
10
7.25196
20
-5.07452
11
7.25196
21
-5.07447
0
LINE
8
BLACK
6
CONTINUOUS
10
7.25196
20
-5.07447
11
7.25201
21
-4.88999
0
LINE
8
BLACK
6
CONTINUOUS
10
7.25201
20
-4.88999
11
7.18596
21
-4.93218
0
LINE
8
BLACK
6
CONTINUOUS
10
7.18596
20
-4.93218
11
7.18596
21
-4.93218
0
LINE
8
BLACK
6
CONTINUOUS
10
7.18596
20
-4.93218
11
7.18589
21
-4.93221
0
LINE
8
BLACK
6
CONTINUOUS
10
7.18589
20
-4.93221
11
7.11516
21
-4.96994
0
LINE
8
BLACK
6
CONTINUOUS
10
7.11516
20
-4.96994
11
7.11509
21
-4.96997
0
LINE
8
BLACK
6
CONTINUOUS
10
7.11509
20
-4.96997
11
7.04161
21
-5.00203
0
LINE
8
BLACK
6
CONTINUOUS
10
7.04161
20
-5.00203
11
7.04153
21
-5.00206
0
LINE
8
BLACK
6
CONTINUOUS
10
7.04153
20
-5.00206
11
7.04153
21
-5.00206
0
LINE
8
BLACK
6
CONTINUOUS
10
7.04153
20
-5.00206
11
6.96577
21
-5.02825
0
LINE
8
BLACK
6
CONTINUOUS
10
6.96577
20
-5.02825
11
6.96569
21
-5.02827
0
LINE
8
BLACK
6
CONTINUOUS
10
6.96569
20
-5.02827
11
6.96569
21
-5.02827
0
LINE
8
BLACK
6
CONTINUOUS
10
6.96569
20
-5.02827
11
6.8881
21
-5.04844
0
LINE
8
BLACK
6
CONTINUOUS
10
6.8881
20
-5.04844
11
6.88803
21
-5.04846
0
LINE
8
BLACK
6
CONTINUOUS
10
6.88803
20
-5.04846
11
6.80909
21
-5.06247
0
LINE
8
BLACK
6
CONTINUOUS
10
6.80909
20
-5.06247
11
6.80902
21
-5.06248
0
LINE
8
BLACK
6
CONTINUOUS
10
6.80902
20
-5.06248
11
6.72923
21
-5.07027
0
LINE
8
BLACK
6
CONTINUOUS
10
6.72923
20
-5.07027
11
6.72915
21
-5.07027
0
LINE
8
BLACK
6
CONTINUOUS
10
6.72915
20
-5.07027
11
6.64899
21
-5.07177
0
LINE
8
BLACK
6
CONTINUOUS
10
6.64899
20
-5.07177
11
6.64892
21
-5.07177
0
LINE
8
BLACK
6
CONTINUOUS
10
6.64892
20
-5.07177
11
6.56889
21
-5.06697
0
LINE
8
BLACK
6
CONTINUOUS
10
6.56889
20
-5.06697
11
6.56881
21
-5.06696
0
LINE
8
BLACK
6
CONTINUOUS
10
6.56881
20
-5.06696
11
6.48941
21
-5.0559
0
LINE
8
BLACK
6
CONTINUOUS
10
6.48941
20
-5.0559
11
6.48934
21
-5.05589
0
LINE
8
BLACK
6
CONTINUOUS
10
6.48934
20
-5.05589
11
6.41105
21
-5.03863
0
LINE
8
BLACK
6
CONTINUOUS
10
6.41105
20
-5.03863
11
6.41097
21
-5.03861
0
LINE
8
BLACK
6
CONTINUOUS
10
6.41097
20
-5.03861
11
6.33428
21
-5.01527
0
LINE
8
BLACK
6
CONTINUOUS
10
6.33428
20
-5.01527
11
6.33421
21
-5.01524
0
LINE
8
BLACK
6
CONTINUOUS
10
6.33421
20
-5.01524
11
6.25958
21
-4.98595
0
LINE
8
BLACK
6
CONTINUOUS
10
6.25958
20
-4.98595
11
6.25954
21
-4.98593
0
LINE
8
BLACK
6
CONTINUOUS
10
6.25954
20
-4.98593
11
6.25951
21
-4.98592
0
LINE
8
BLACK
6
CONTINUOUS
10
6.25951
20
-4.98592
11
6.18741
21
-4.95086
0
LINE
8
BLACK
6
CONTINUOUS
10
6.18741
20
-4.95086
11
6.18734
21
-4.95083
0
LINE
8
BLACK
6
CONTINUOUS
10
6.18734
20
-4.95083
11
6.11822
21
-4.91022
0
LINE
8
BLACK
6
CONTINUOUS
10
6.11822
20
-4.91022
11
6.11819
21
-4.91021
0
LINE
8
BLACK
6
CONTINUOUS
10
6.11819
20
-4.91021
11
6.11817
21
-4.91019
0
LINE
8
BLACK
6
CONTINUOUS
10
6.11817
20
-4.91019
11
6.08799
21
-4.89003
0
LINE
8
BLACK
6
CONTINUOUS
10
6.08799
20
-4.89003
11
6.08804
21
-5.07447
0
LINE
8
BLACK
6
CONTINUOUS
10
6.08804
20
-5.07447
11
6.08804
21
-5.07452
0
LINE
8
BLACK
6
CONTINUOUS
10
6.08804
20
-5.07452
11
6.08803
21
-5.07464
0
LINE
8
BLACK
6
CONTINUOUS
10
6.08803
20
-5.07464
11
6.08802
21
-5.07471
0
LINE
8
BLACK
6
CONTINUOUS
10
6.08802
20
-5.07471
11
6.08802
21
-5.07471
0
LINE
8
BLACK
6
CONTINUOUS
10
6.08802
20
-5.07471
11
6.08802
21
-5.07471
0
LINE
8
BLACK
6
CONTINUOUS
10
6.08802
20
-5.07471
11
6.088
21
-5.07479
0
LINE
8
BLACK
6
CONTINUOUS
10
6.088
20
-5.07479
11
6.08797
21
-5.0749
0
LINE
8
BLACK
6
CONTINUOUS
10
6.08797
20
-5.0749
11
6.08797
21
-5.0749
0
LINE
8
BLACK
6
CONTINUOUS
10
6.08797
20
-5.0749
11
6.08797
21
-5.0749
0
LINE
8
BLACK
6
CONTINUOUS
10
6.08797
20
-5.0749
11
6.08793
21
-5.07496
0
LINE
8
BLACK
6
CONTINUOUS
10
6.08793
20
-5.07496
11
6.08787
21
-5.07507
0
LINE
8
BLACK
6
CONTINUOUS
10
6.08787
20
-5.07507
11
6.08787
21
-5.07507
0
LINE
8
BLACK
6
CONTINUOUS
10
6.08787
20
-5.07507
11
6.08787
21
-5.07507
0
LINE
8
BLACK
6
CONTINUOUS
10
6.08787
20
-5.07507
11
6.0878
21
-5.07516
0
LINE
8
BLACK
6
CONTINUOUS
10
6.0878
20
-5.07516
11
6.08775
21
-5.07522
0
LINE
8
BLACK
6
CONTINUOUS
10
6.08775
20
-5.07522
11
6.08775
21
-5.07522
0
LINE
8
BLACK
6
CONTINUOUS
10
6.08775
20
-5.07522
11
6.08775
21
-5.07522
0
LINE
8
BLACK
6
CONTINUOUS
10
6.08775
20
-5.07522
11
6.08765
21
-5.0753
0
LINE
8
BLACK
6
CONTINUOUS
10
6.08765
20
-5.0753
11
6.0876
21
-5.07534
0
LINE
8
BLACK
6
CONTINUOUS
10
6.0876
20
-5.07534
11
6.0876
21
-5.07534
0
LINE
8
BLACK
6
CONTINUOUS
10
6.0876
20
-5.07534
11
6.0876
21
-5.07534
0
LINE
8
BLACK
6
CONTINUOUS
10
6.0876
20
-5.07534
11
6.0875
21
-5.0754
0
LINE
8
BLACK
6
CONTINUOUS
10
6.0875
20
-5.0754
11
6.08743
21
-5.07543
0
LINE
8
BLACK
6
CONTINUOUS
10
6.08743
20
-5.07543
11
6.08743
21
-5.07543
0
LINE
8
BLACK
6
CONTINUOUS
10
6.08743
20
-5.07543
11
6.08743
21
-5.07543
0
LINE
8
BLACK
6
CONTINUOUS
10
6.08743
20
-5.07543
11
6.08731
21
-5.07547
0
LINE
8
BLACK
6
CONTINUOUS
10
6.08731
20
-5.07547
11
6.08725
21
-5.07549
0
LINE
8
BLACK
6
CONTINUOUS
10
6.08725
20
-5.07549
11
6.08724
21
-5.07549
0
LINE
8
BLACK
6
CONTINUOUS
10
6.08724
20
-5.07549
11
6.08724
21
-5.07549
0
LINE
8
BLACK
6
CONTINUOUS
10
6.08724
20
-5.07549
11
6.08712
21
-5.0755
0
LINE
8
BLACK
6
CONTINUOUS
10
6.08712
20
-5.0755
11
6.08705
21
-5.07551
0
LINE
8
BLACK
6
CONTINUOUS
10
6.08705
20
-5.07551
11
6.087
21
-5.07551
0
LINE
8
BLACK
6
CONTINUOUS
10
6.087
20
-5.07551
11
5.84851
21
-5.07539
0
LINE
8
BLACK
6
CONTINUOUS
10
5.84851
20
-5.07539
11
5.84851
21
-5.07539
0
LINE
8
BLACK
6
CONTINUOUS
10
5.84851
20
-5.07539
11
5.84842
21
-5.07539
0
LINE
8
BLACK
6
CONTINUOUS
10
5.84842
20
-5.07539
11
5.84838
21
-5.07539
0
LINE
8
BLACK
6
CONTINUOUS
10
5.84838
20
-5.07539
11
5.84837
21
-5.07539
0
LINE
8
BLACK
6
CONTINUOUS
10
5.84837
20
-5.07539
11
5.84831
21
-5.07539
0
LINE
8
BLACK
6
CONTINUOUS
10
5.84831
20
-5.07539
11
5.84827
21
-5.07538
0
LINE
8
BLACK
6
CONTINUOUS
10
5.84827
20
-5.07538
11
5.84823
21
-5.07538
0
LINE
8
BLACK
6
CONTINUOUS
10
5.84823
20
-5.07538
11
5.84818
21
-5.07536
0
LINE
8
BLACK
6
CONTINUOUS
10
5.84818
20
-5.07536
11
5.84812
21
-5.07535
0
LINE
8
BLACK
6
CONTINUOUS
10
5.84812
20
-5.07535
11
5.84809
21
-5.07533
0
LINE
8
BLACK
6
CONTINUOUS
10
5.84809
20
-5.07533
11
5.84805
21
-5.07532
0
LINE
8
BLACK
6
CONTINUOUS
10
5.84805
20
-5.07532
11
5.848
21
-5.0753
0
LINE
8
BLACK
6
CONTINUOUS
10
5.848
20
-5.0753
11
5.84795
21
-5.07527
0
LINE
8
BLACK
6
CONTINUOUS
10
5.84795
20
-5.07527
11
5.84791
21
-5.07525
0
LINE
8
BLACK
6
CONTINUOUS
10
5.84791
20
-5.07525
11
5.84788
21
-5.07523
0
LINE
8
BLACK
6
CONTINUOUS
10
5.84788
20
-5.07523
11
5.84783
21
-5.0752
0
LINE
8
BLACK
6
CONTINUOUS
10
5.84783
20
-5.0752
11
5.84779
21
-5.07516
0
LINE
8
BLACK
6
CONTINUOUS
10
5.84779
20
-5.07516
11
5.84776
21
-5.07513
0
LINE
8
BLACK
6
CONTINUOUS
10
5.84776
20
-5.07513
11
5.84773
21
-5.07511
0
LINE
8
BLACK
6
CONTINUOUS
10
5.84773
20
-5.07511
11
5.84769
21
-5.07507
0
LINE
8
BLACK
6
CONTINUOUS
10
5.84769
20
-5.07507
11
5.84765
21
-5.07503
0
LINE
8
BLACK
6
CONTINUOUS
10
5.84765
20
-5.07503
11
5.84763
21
-5.07499
0
LINE
8
BLACK
6
CONTINUOUS
10
5.84763
20
-5.07499
11
5.8476
21
-5.07496
0
LINE
8
BLACK
6
CONTINUOUS
10
5.8476
20
-5.07496
11
5.84758
21
-5.07491
0
LINE
8
BLACK
6
CONTINUOUS
10
5.84758
20
-5.07491
11
5.84755
21
-5.07486
0
LINE
8
BLACK
6
CONTINUOUS
10
5.84755
20
-5.07486
11
5.84753
21
-5.07482
0
LINE
8
BLACK
6
CONTINUOUS
10
5.84753
20
-5.07482
11
5.84751
21
-5.07479
0
LINE
8
BLACK
6
CONTINUOUS
10
5.84751
20
-5.07479
11
5.8475
21
-5.07473
0
LINE
8
BLACK
6
CONTINUOUS
10
5.8475
20
-5.07473
11
5.84747
21
-5.07468
0
LINE
8
BLACK
6
CONTINUOUS
10
5.84747
20
-5.07468
11
5.84747
21
-5.07464
0
LINE
8
BLACK
6
CONTINUOUS
10
5.84747
20
-5.07464
11
5.84746
21
-5.0746
0
LINE
8
BLACK
6
CONTINUOUS
10
5.84746
20
-5.0746
11
5.84745
21
-5.07455
0
LINE
8
BLACK
6
CONTINUOUS
10
5.84745
20
-5.07455
11
5.84745
21
-5.07454
0
LINE
8
BLACK
6
CONTINUOUS
10
5.84745
20
-5.07454
11
5.84744
21
-5.07449
0
LINE
8
BLACK
6
CONTINUOUS
10
5.84744
20
-5.07449
11
5.84744
21
-5.07441
0
LINE
8
BLACK
6
CONTINUOUS
10
5.84744
20
-5.07441
11
5.84744
21
-5.0744
0
LINE
8
BLACK
6
CONTINUOUS
10
5.84744
20
-5.0744
11
5.80731
21
-4.59715
0
LINE
8
BLACK
6
CONTINUOUS
10
5.80731
20
-4.59715
11
5.76717
21
-4.52805
0
LINE
8
BLACK
6
CONTINUOUS
10
5.76717
20
-4.52805
11
5.76713
21
-4.52798
0
LINE
8
BLACK
6
CONTINUOUS
10
5.76713
20
-4.52798
11
5.76713
21
-4.52798
0
LINE
8
BLACK
6
CONTINUOUS
10
5.76713
20
-4.52798
11
5.73244
21
-4.45574
0
LINE
8
BLACK
6
CONTINUOUS
10
5.73244
20
-4.45574
11
5.73241
21
-4.45567
0
LINE
8
BLACK
6
CONTINUOUS
10
5.73241
20
-4.45567
11
5.7035
21
-4.38093
0
LINE
8
BLACK
6
CONTINUOUS
10
5.7035
20
-4.38093
11
5.70347
21
-4.38086
0
LINE
8
BLACK
6
CONTINUOUS
10
5.70347
20
-4.38086
11
5.68051
21
-4.30408
0
LINE
8
BLACK
6
CONTINUOUS
10
5.68051
20
-4.30408
11
5.6805
21
-4.304
0
LINE
8
BLACK
6
CONTINUOUS
10
5.6805
20
-4.304
11
5.6805
21
-4.304
0
LINE
8
BLACK
6
CONTINUOUS
10
5.6805
20
-4.304
11
5.66363
21
-4.22566
0
LINE
8
BLACK
6
CONTINUOUS
10
5.66363
20
-4.22566
11
5.66362
21
-4.22558
0
LINE
8
BLACK
6
CONTINUOUS
10
5.66362
20
-4.22558
11
5.66362
21
-4.22558
0
LINE
8
BLACK
6
CONTINUOUS
10
5.66362
20
-4.22558
11
5.65295
21
-4.14616
0
LINE
8
BLACK
6
CONTINUOUS
10
5.65295
20
-4.14616
11
5.65294
21
-4.14608
0
LINE
8
BLACK
6
CONTINUOUS
10
5.65294
20
-4.14608
11
5.65294
21
-4.14608
0
LINE
8
BLACK
6
CONTINUOUS
10
5.65294
20
-4.14608
11
5.64854
21
-4.06607
0
LINE
8
BLACK
6
CONTINUOUS
10
5.64854
20
-4.06607
11
5.64854
21
-4.06599
0
LINE
8
BLACK
6
CONTINUOUS
10
5.64854
20
-4.06599
11
5.65043
21
-3.98587
0
LINE
8
BLACK
6
CONTINUOUS
10
5.65043
20
-3.98587
11
5.65043
21
-3.9858
0
LINE
8
BLACK
6
CONTINUOUS
10
5.65043
20
-3.9858
11
5.65043
21
-3.9858
0
LINE
8
BLACK
6
CONTINUOUS
10
5.65043
20
-3.9858
11
5.6586
21
-3.90608
0
LINE
8
BLACK
6
CONTINUOUS
10
5.6586
20
-3.90608
11
5.65861
21
-3.906
0
LINE
8
BLACK
6
CONTINUOUS
10
5.65861
20
-3.906
11
5.65861
21
-3.906
0
LINE
8
BLACK
6
CONTINUOUS
10
5.65861
20
-3.906
11
5.67301
21
-3.82717
0
LINE
8
BLACK
6
CONTINUOUS
10
5.67301
20
-3.82717
11
5.67303
21
-3.82709
0
LINE
8
BLACK
6
CONTINUOUS
10
5.67303
20
-3.82709
11
5.67303
21
-3.82709
0
LINE
8
BLACK
6
CONTINUOUS
10
5.67303
20
-3.82709
11
5.69357
21
-3.74963
0
LINE
8
BLACK
6
CONTINUOUS
10
5.69357
20
-3.74963
11
5.69359
21
-3.74956
0
LINE
8
BLACK
6
CONTINUOUS
10
5.69359
20
-3.74956
11
5.69359
21
-3.74956
0
LINE
8
BLACK
6
CONTINUOUS
10
5.69359
20
-3.74956
11
5.72015
21
-3.67395
0
LINE
8
BLACK
6
CONTINUOUS
10
5.72015
20
-3.67395
11
5.72018
21
-3.67388
0
LINE
8
BLACK
6
CONTINUOUS
10
5.72018
20
-3.67388
11
5.72018
21
-3.67388
0
LINE
8
BLACK
6
CONTINUOUS
10
5.72018
20
-3.67388
11
5.75258
21
-3.60058
0
LINE
8
BLACK
6
CONTINUOUS
10
5.75258
20
-3.60058
11
5.75261
21
-3.60051
0
LINE
8
BLACK
6
CONTINUOUS
10
5.75261
20
-3.60051
11
5.75261
21
-3.60051
0
LINE
8
BLACK
6
CONTINUOUS
10
5.75261
20
-3.60051
11
5.79067
21
-3.52999
0
LINE
8
BLACK
6
CONTINUOUS
10
5.79067
20
-3.52999
11
5.79068
21
-3.52996
0
LINE
8
BLACK
6
CONTINUOUS
10
5.79068
20
-3.52996
11
5.7907
21
-3.52994
0
LINE
8
BLACK
6
CONTINUOUS
10
5.7907
20
-3.52994
11
5.80766
21
-3.50227
0
LINE
8
BLACK
6
CONTINUOUS
10
5.80766
20
-3.50227
11
5.84744
21
-3.0256
0
LINE
8
BLACK
6
CONTINUOUS
10
5.84744
20
-3.0256
11
5.84744
21
-3.02559
0
LINE
8
BLACK
6
CONTINUOUS
10
5.84744
20
-3.02559
11
5.84744
21
-3.02551
0
LINE
8
BLACK
6
CONTINUOUS
10
5.84744
20
-3.02551
11
5.84745
21
-3.02546
0
LINE
8
BLACK
6
CONTINUOUS
10
5.84745
20
-3.02546
11
5.84745
21
-3.02545
0
LINE
8
BLACK
6
CONTINUOUS
10
5.84745
20
-3.02545
11
5.84746
21
-3.0254
0
LINE
8
BLACK
6
CONTINUOUS
10
5.84746
20
-3.0254
11
5.84747
21
-3.02536
0
LINE
8
BLACK
6
CONTINUOUS
10
5.84747
20
-3.02536
11
5.84747
21
-3.02532
0
LINE
8
BLACK
6
CONTINUOUS
10
5.84747
20
-3.02532
11
5.8475
21
-3.02527
0
LINE
8
BLACK
6
CONTINUOUS
10
5.8475
20
-3.02527
11
5.84751
21
-3.02521
0
LINE
8
BLACK
6
CONTINUOUS
10
5.84751
20
-3.02521
11
5.84753
21
-3.02518
0
LINE
8
BLACK
6
CONTINUOUS
10
5.84753
20
-3.02518
11
5.84755
21
-3.02514
0
LINE
8
BLACK
6
CONTINUOUS
10
5.84755
20
-3.02514
11
5.84758
21
-3.02509
0
LINE
8
BLACK
6
CONTINUOUS
10
5.84758
20
-3.02509
11
5.8476
21
-3.02504
0
LINE
8
BLACK
6
CONTINUOUS
10
5.8476
20
-3.02504
11
5.84763
21
-3.02501
0
LINE
8
BLACK
6
CONTINUOUS
10
5.84763
20
-3.02501
11
5.84765
21
-3.02497
0
LINE
8
BLACK
6
CONTINUOUS
10
5.84765
20
-3.02497
11
5.84769
21
-3.02493
0
LINE
8
BLACK
6
CONTINUOUS
10
5.84769
20
-3.02493
11
5.84773
21
-3.02489
0
LINE
8
BLACK
6
CONTINUOUS
10
5.84773
20
-3.02489
11
5.84776
21
-3.02487
0
LINE
8
BLACK
6
CONTINUOUS
10
5.84776
20
-3.02487
11
5.84779
21
-3.02484
0
LINE
8
BLACK
6
CONTINUOUS
10
5.84779
20
-3.02484
11
5.84783
21
-3.0248
0
LINE
8
BLACK
6
CONTINUOUS
10
5.84783
20
-3.0248
11
5.84788
21
-3.02477
0
LINE
8
BLACK
6
CONTINUOUS
10
5.84788
20
-3.02477
11
5.84791
21
-3.02475
0
LINE
8
BLACK
6
CONTINUOUS
10
5.84791
20
-3.02475
11
5.84795
21
-3.02473
0
LINE
8
BLACK
6
CONTINUOUS
10
5.84795
20
-3.02473
11
5.848
21
-3.0247
0
LINE
8
BLACK
6
CONTINUOUS
10
5.848
20
-3.0247
11
5.84805
21
-3.02468
0
LINE
8
BLACK
6
CONTINUOUS
10
5.84805
20
-3.02468
11
5.84809
21
-3.02466
0
LINE
8
BLACK
6
CONTINUOUS
10
5.84809
20
-3.02466
11
5.84812
21
-3.02465
0
LINE
8
BLACK
6
CONTINUOUS
10
5.84812
20
-3.02465
11
5.84818
21
-3.02464
0
LINE
8
BLACK
6
CONTINUOUS
10
5.84818
20
-3.02464
11
5.84823
21
-3.02462
0
LINE
8
BLACK
6
CONTINUOUS
10
5.84823
20
-3.02462
11
5.84827
21
-3.02462
0
LINE
8
BLACK
6
CONTINUOUS
10
5.84827
20
-3.02462
11
5.84831
21
-3.02461
0
LINE
8
BLACK
6
CONTINUOUS
10
5.84831
20
-3.02461
11
5.84837
21
-3.02461
0
LINE
8
BLACK
6
CONTINUOUS
10
5.84837
20
-3.02461
11
5.84838
21
-3.02461
0
LINE
8
BLACK
6
CONTINUOUS
10
5.84838
20
-3.02461
11
5.84842
21
-3.02461
0
LINE
8
BLACK
6
CONTINUOUS
10
5.84842
20
-3.02461
11
5.84851
21
-3.02461
0
LINE
8
BLACK
6
CONTINUOUS
10
5.84851
20
-3.02461
11
5.84851
21
-3.02461
0
LINE
8
BLACK
6
CONTINUOUS
10
5.84851
20
-3.02461
11
6.087
21
-3.02449
0
LINE
8
BLACK
6
CONTINUOUS
10
6.087
20
-3.02449
11
6.08705
21
-3.02449
0
LINE
8
BLACK
6
CONTINUOUS
10
6.08705
20
-3.02449
11
6.08712
21
-3.0245
0
LINE
8
BLACK
6
CONTINUOUS
10
6.08712
20
-3.0245
11
6.08724
21
-3.02451
0
LINE
8
BLACK
6
CONTINUOUS
10
6.08724
20
-3.02451
11
6.08724
21
-3.02451
0
LINE
8
BLACK
6
CONTINUOUS
10
6.08724
20
-3.02451
11
6.08725
21
-3.02451
0
LINE
8
BLACK
6
CONTINUOUS
10
6.08725
20
-3.02451
11
6.08731
21
-3.02453
0
LINE
8
BLACK
6
CONTINUOUS
10
6.08731
20
-3.02453
11
6.08743
21
-3.02457
0
LINE
8
BLACK
6
CONTINUOUS
10
6.08743
20
-3.02457
11
6.08743
21
-3.02457
0
LINE
8
BLACK
6
CONTINUOUS
10
6.08743
20
-3.02457
11
6.08743
21
-3.02457
0
LINE
8
BLACK
6
CONTINUOUS
10
6.08743
20
-3.02457
11
6.0875
21
-3.0246
0
LINE
8
BLACK
6
CONTINUOUS
10
6.0875
20
-3.0246
11
6.0876
21
-3.02466
0
LINE
8
BLACK
6
CONTINUOUS
10
6.0876
20
-3.02466
11
6.0876
21
-3.02466
0
LINE
8
BLACK
6
CONTINUOUS
10
6.0876
20
-3.02466
11
6.0876
21
-3.02466
0
LINE
8
BLACK
6
CONTINUOUS
10
6.0876
20
-3.02466
11
6.08765
21
-3.0247
0
LINE
8
BLACK
6
CONTINUOUS
10
6.08765
20
-3.0247
11
6.08775
21
-3.02478
0
LINE
8
BLACK
6
CONTINUOUS
10
6.08775
20
-3.02478
11
6.08775
21
-3.02478
0
LINE
8
BLACK
6
CONTINUOUS
10
6.08775
20
-3.02478
11
6.08775
21
-3.02478
0
LINE
8
BLACK
6
CONTINUOUS
10
6.08775
20
-3.02478
11
6.0878
21
-3.02483
0
LINE
8
BLACK
6
CONTINUOUS
10
6.0878
20
-3.02483
11
6.08787
21
-3.02493
0
LINE
8
BLACK
6
CONTINUOUS
10
6.08787
20
-3.02493
11
6.08787
21
-3.02493
0
LINE
8
BLACK
6
CONTINUOUS
10
6.08787
20
-3.02493
11
6.08787
21
-3.02493
0
LINE
8
BLACK
6
CONTINUOUS
10
6.08787
20
-3.02493
11
6.08793
21
-3.02503
0
LINE
8
BLACK
6
CONTINUOUS
10
6.08793
20
-3.02503
11
6.08797
21
-3.0251
0
LINE
8
BLACK
6
CONTINUOUS
10
6.08797
20
-3.0251
11
6.08797
21
-3.0251
0
LINE
8
BLACK
6
CONTINUOUS
10
6.08797
20
-3.0251
11
6.08797
21
-3.0251
0
LINE
8
BLACK
6
CONTINUOUS
10
6.08797
20
-3.0251
11
6.08799
21
-3.02519
0
LINE
8
BLACK
6
CONTINUOUS
10
6.08799
20
-3.02519
11
6.08802
21
-3.02529
0
LINE
8
BLACK
6
CONTINUOUS
10
6.08802
20
-3.02529
11
6.08802
21
-3.02529
0
LINE
8
BLACK
6
CONTINUOUS
10
6.08802
20
-3.02529
11
6.08802
21
-3.02529
0
LINE
8
BLACK
6
CONTINUOUS
10
6.08802
20
-3.02529
11
6.08803
21
-3.02536
0
LINE
8
BLACK
6
CONTINUOUS
10
6.08803
20
-3.02536
11
6.08804
21
-3.02548
0
LINE
8
BLACK
6
CONTINUOUS
10
6.08804
20
-3.02548
11
6.08804
21
-3.02553
0
LINE
8
BLACK
6
CONTINUOUS
10
6.08804
20
-3.02553
11
6.08799
21
-3.21001
0
LINE
8
BLACK
6
CONTINUOUS
10
6.08799
20
-3.21001
11
6.15404
21
-3.16782
0
LINE
8
BLACK
6
CONTINUOUS
10
6.15404
20
-3.16782
11
6.15404
21
-3.16782
0
LINE
8
BLACK
6
CONTINUOUS
10
6.15404
20
-3.16782
11
6.15411
21
-3.16779
0
LINE
8
BLACK
6
CONTINUOUS
10
6.15411
20
-3.16779
11
6.22484
21
-3.13006
0
LINE
8
BLACK
6
CONTINUOUS
10
6.22484
20
-3.13006
11
6.22484
21
-3.13006
0
LINE
8
BLACK
6
CONTINUOUS
10
6.22484
20
-3.13006
11
6.22491
21
-3.13003
0
LINE
8
BLACK
6
CONTINUOUS
10
6.22491
20
-3.13003
11
6.29839
21
-3.09797
0
LINE
8
BLACK
6
CONTINUOUS
10
6.29839
20
-3.09797
11
6.29839
21
-3.09797
0
LINE
8
BLACK
6
CONTINUOUS
10
6.29839
20
-3.09797
11
6.29847
21
-3.09794
0
LINE
8
BLACK
6
CONTINUOUS
10
6.29847
20
-3.09794
11
6.37423
21
-3.07175
0
LINE
8
BLACK
6
CONTINUOUS
10
6.37423
20
-3.07175
11
6.37431
21
-3.07173
0
LINE
8
BLACK
6
CONTINUOUS
10
6.37431
20
-3.07173
11
6.4519
21
-3.05156
0
LINE
8
BLACK
6
CONTINUOUS
10
6.4519
20
-3.05156
11
6.45197
21
-3.05154
0
LINE
8
BLACK
6
CONTINUOUS
10
6.45197
20
-3.05154
11
6.45197
21
-3.05154
0
LINE
8
BLACK
6
CONTINUOUS
10
6.45197
20
-3.05154
11
6.53091
21
-3.03753
0
LINE
8
BLACK
6
CONTINUOUS
10
6.53091
20
-3.03753
11
6.53098
21
-3.03752
0
LINE
8
BLACK
6
CONTINUOUS
10
6.53098
20
-3.03752
11
6.61077
21
-3.02973
0
LINE
8
BLACK
6
CONTINUOUS
10
6.61077
20
-3.02973
11
6.61085
21
-3.02973
0
LINE
8
BLACK
6
CONTINUOUS
10
6.61085
20
-3.02973
11
6.69101
21
-3.02823
0
LINE
8
BLACK
6
CONTINUOUS
10
6.69101
20
-3.02823
11
6.69101
21
-3.02823
0
LINE
8
BLACK
6
CONTINUOUS
10
6.69101
20
-3.02823
11
6.69108
21
-3.02823
0
LINE
8
BLACK
6
CONTINUOUS
10
6.69108
20
-3.02823
11
6.77111
21
-3.03303
0
LINE
8
BLACK
6
CONTINUOUS
10
6.77111
20
-3.03303
11
6.77119
21
-3.03304
0
LINE
8
BLACK
6
CONTINUOUS
10
6.77119
20
-3.03304
11
6.85059
21
-3.0441
0
LINE
8
BLACK
6
CONTINUOUS
10
6.85059
20
-3.0441
11
6.85059
21
-3.0441
0
LINE
8
BLACK
6
CONTINUOUS
10
6.85059
20
-3.0441
11
6.85066
21
-3.04411
0
LINE
8
BLACK
6
CONTINUOUS
10
6.85066
20
-3.04411
11
6.92895
21
-3.06137
0
LINE
8
BLACK
6
CONTINUOUS
10
6.92895
20
-3.06137
11
6.92895
21
-3.06137
0
LINE
8
BLACK
6
CONTINUOUS
10
6.92895
20
-3.06137
11
6.92903
21
-3.06139
0
LINE
8
BLACK
6
CONTINUOUS
10
6.92903
20
-3.06139
11
7.00572
21
-3.08473
0
LINE
8
BLACK
6
CONTINUOUS
10
7.00572
20
-3.08473
11
7.00579
21
-3.08476
0
LINE
8
BLACK
6
CONTINUOUS
10
7.00579
20
-3.08476
11
7.08042
21
-3.11405
0
LINE
8
BLACK
6
CONTINUOUS
10
7.08042
20
-3.11405
11
7.08049
21
-3.11408
0
LINE
8
BLACK
6
CONTINUOUS
10
7.08049
20
-3.11408
11
7.08049
21
-3.11408
0
LINE
8
BLACK
6
CONTINUOUS
10
7.08049
20
-3.11408
11
7.15259
21
-3.14914
0
LINE
8
BLACK
6
CONTINUOUS
10
7.15259
20
-3.14914
11
7.15259
21
-3.14914
0
LINE
8
BLACK
6
CONTINUOUS
10
7.15259
20
-3.14914
11
7.15262
21
-3.14915
0
LINE
8
BLACK
6
CONTINUOUS
10
7.15262
20
-3.14915
11
7.15266
21
-3.14917
0
LINE
8
BLACK
6
CONTINUOUS
10
7.15266
20
-3.14917
11
7.15266
21
-3.14917
0
LINE
8
BLACK
6
CONTINUOUS
10
7.15266
20
-3.14917
11
7.22178
21
-3.18978
0
LINE
8
BLACK
6
CONTINUOUS
10
7.22178
20
-3.18978
11
7.22181
21
-3.18979
0
LINE
8
BLACK
6
CONTINUOUS
10
7.22181
20
-3.18979
11
7.22183
21
-3.18981
0
LINE
8
BLACK
6
CONTINUOUS
10
7.22183
20
-3.18981
11
7.25201
21
-3.20997
0
LINE
8
BLACK
6
CONTINUOUS
10
7.25201
20
-3.20997
11
7.25196
21
-3.02553
0
LINE
8
BLACK
6
CONTINUOUS
10
7.25196
20
-3.02553
11
7.25196
21
-3.02548
0
LINE
8
BLACK
6
CONTINUOUS
10
7.25196
20
-3.02548
11
7.25197
21
-3.0254
0
LINE
8
BLACK
6
CONTINUOUS
10
7.25197
20
-3.0254
11
7.25198
21
-3.02529
0
LINE
8
BLACK
6
CONTINUOUS
10
7.25198
20
-3.02529
11
7.25198
21
-3.02529
0
LINE
8
BLACK
6
CONTINUOUS
10
7.25198
20
-3.02529
11
7.25198
21
-3.02529
0
LINE
8
BLACK
6
CONTINUOUS
10
7.25198
20
-3.02529
11
7.252
21
-3.02521
0
LINE
8
BLACK
6
CONTINUOUS
10
7.252
20
-3.02521
11
7.25203
21
-3.0251
0
LINE
8
BLACK
6
CONTINUOUS
10
7.25203
20
-3.0251
11
7.25203
21
-3.0251
0
LINE
8
BLACK
6
CONTINUOUS
10
7.25203
20
-3.0251
11
7.25203
21
-3.0251
0
LINE
8
BLACK
6
CONTINUOUS
10
7.25203
20
-3.0251
11
7.25207
21
-3.02504
0
LINE
8
BLACK
6
CONTINUOUS
10
7.25207
20
-3.02504
11
7.25213
21
-3.02493
0
LINE
8
BLACK
6
CONTINUOUS
10
7.25213
20
-3.02493
11
7.25213
21
-3.02493
0
LINE
8
BLACK
6
CONTINUOUS
10
7.25213
20
-3.02493
11
7.25213
21
-3.02493
0
LINE
8
BLACK
6
CONTINUOUS
10
7.25213
20
-3.02493
11
7.25217
21
-3.02487
0
LINE
8
BLACK
6
CONTINUOUS
10
7.25217
20
-3.02487
11
7.25225
21
-3.02478
0
LINE
8
BLACK
6
CONTINUOUS
10
7.25225
20
-3.02478
11
7.25225
21
-3.02478
0
LINE
8
BLACK
6
CONTINUOUS
10
7.25225
20
-3.02478
11
7.25225
21
-3.02478
0
LINE
8
BLACK
6
CONTINUOUS
10
7.25225
20
-3.02478
11
7.25234
21
-3.0247
0
LINE
8
BLACK
6
CONTINUOUS
10
7.25234
20
-3.0247
11
7.2524
21
-3.02466
0
LINE
8
BLACK
6
CONTINUOUS
10
7.2524
20
-3.02466
11
7.2524
21
-3.02466
0
LINE
8
BLACK
6
CONTINUOUS
10
7.2524
20
-3.02466
11
7.2524
21
-3.02466
0
LINE
8
BLACK
6
CONTINUOUS
10
7.2524
20
-3.02466
11
7.2525
21
-3.0246
0
LINE
8
BLACK
6
CONTINUOUS
10
7.2525
20
-3.0246
11
7.25257
21
-3.02457
0
LINE
8
BLACK
6
CONTINUOUS
10
7.25257
20
-3.02457
11
7.25257
21
-3.02457
0
LINE
8
BLACK
6
CONTINUOUS
10
7.25257
20
-3.02457
11
7.25257
21
-3.02457
0
LINE
8
BLACK
6
CONTINUOUS
10
7.25257
20
-3.02457
11
7.25269
21
-3.02453
0
LINE
8
BLACK
6
CONTINUOUS
10
7.25269
20
-3.02453
11
7.25275
21
-3.02451
0
LINE
8
BLACK
6
CONTINUOUS
10
7.25275
20
-3.02451
11
7.25276
21
-3.02451
0
LINE
8
BLACK
6
CONTINUOUS
10
7.25276
20
-3.02451
11
7.25276
21
-3.02451
0
LINE
8
BLACK
6
CONTINUOUS
10
7.25276
20
-3.02451
11
7.25288
21
-3.0245
0
LINE
8
BLACK
6
CONTINUOUS
10
7.25288
20
-3.0245
11
7.25295
21
-3.02449
0
LINE
8
BLACK
6
CONTINUOUS
10
7.25295
20
-3.02449
11
7.253
21
-3.02449
0
LINE
8
BLACK
6
CONTINUOUS
10
7.25398
20
-3.21186
11
7.25396
21
-3.212
0
LINE
8
BLACK
6
CONTINUOUS
10
7.25396
20
-3.212
11
7.25391
21
-3.21219
0
LINE
8
BLACK
6
CONTINUOUS
10
7.25391
20
-3.21219
11
7.25381
21
-3.21236
0
LINE
8
BLACK
6
CONTINUOUS
10
7.25381
20
-3.21236
11
7.25369
21
-3.21251
0
LINE
8
BLACK
6
CONTINUOUS
10
7.25369
20
-3.21251
11
7.25354
21
-3.21263
0
LINE
8
BLACK
6
CONTINUOUS
10
7.25354
20
-3.21263
11
7.25337
21
-3.21272
0
LINE
8
BLACK
6
CONTINUOUS
10
7.25337
20
-3.21272
11
7.25319
21
-3.21278
0
LINE
8
BLACK
6
CONTINUOUS
10
7.25319
20
-3.21278
11
7.25299
21
-3.2128
0
LINE
8
BLACK
6
CONTINUOUS
10
7.25299
20
-3.2128
11
7.2528
21
-3.21278
0
LINE
8
BLACK
6
CONTINUOUS
10
7.2528
20
-3.21278
11
7.25261
21
-3.21272
0
LINE
8
BLACK
6
CONTINUOUS
10
7.25261
20
-3.21272
11
7.25244
21
-3.21263
0
LINE
8
BLACK
6
CONTINUOUS
10
7.25244
20
-3.21263
11
7.25241
21
-3.2126
0
LINE
8
BLACK
6
CONTINUOUS
10
7.25241
20
-3.2126
11
7.22076
21
-3.19146
0
LINE
8
BLACK
6
CONTINUOUS
10
7.22076
20
-3.19146
11
7.15169
21
-3.15089
0
LINE
8
BLACK
6
CONTINUOUS
10
7.15169
20
-3.15089
11
7.07967
21
-3.11587
0
LINE
8
BLACK
6
CONTINUOUS
10
7.07967
20
-3.11587
11
7.00511
21
-3.0866
0
LINE
8
BLACK
6
CONTINUOUS
10
7.00511
20
-3.0866
11
6.92849
21
-3.06328
0
LINE
8
BLACK
6
CONTINUOUS
10
6.92849
20
-3.06328
11
6.85028
21
-3.04604
0
LINE
8
BLACK
6
CONTINUOUS
10
6.85028
20
-3.04604
11
6.77095
21
-3.03499
0
LINE
8
BLACK
6
CONTINUOUS
10
6.77095
20
-3.03499
11
6.691
21
-3.0302
0
LINE
8
BLACK
6
CONTINUOUS
10
6.691
20
-3.0302
11
6.61093
21
-3.0317
0
LINE
8
BLACK
6
CONTINUOUS
10
6.61093
20
-3.0317
11
6.53121
21
-3.03947
0
LINE
8
BLACK
6
CONTINUOUS
10
6.53121
20
-3.03947
11
6.45236
21
-3.05348
0
LINE
8
BLACK
6
CONTINUOUS
10
6.45236
20
-3.05348
11
6.37484
21
-3.07362
0
LINE
8
BLACK
6
CONTINUOUS
10
6.37484
20
-3.07362
11
6.29915
21
-3.09979
0
LINE
8
BLACK
6
CONTINUOUS
10
6.29915
20
-3.09979
11
6.22574
21
-3.13182
0
LINE
8
BLACK
6
CONTINUOUS
10
6.22574
20
-3.13182
11
6.15507
21
-3.1695
0
LINE
8
BLACK
6
CONTINUOUS
10
6.15507
20
-3.1695
11
6.08759
21
-3.21261
0
LINE
8
BLACK
6
CONTINUOUS
10
6.08759
20
-3.21261
11
6.08756
21
-3.21263
0
LINE
8
BLACK
6
CONTINUOUS
10
6.08756
20
-3.21263
11
6.08747
21
-3.21268
0
LINE
8
BLACK
6
CONTINUOUS
10
6.08747
20
-3.21268
11
6.08747
21
-3.21268
0
LINE
8
BLACK
6
CONTINUOUS
10
6.08747
20
-3.21268
11
6.08747
21
-3.21268
0
LINE
8
BLACK
6
CONTINUOUS
10
6.08747
20
-3.21268
11
6.08739
21
-3.21272
0
LINE
8
BLACK
6
CONTINUOUS
10
6.08739
20
-3.21272
11
6.0872
21
-3.21278
0
LINE
8
BLACK
6
CONTINUOUS
10
6.0872
20
-3.21278
11
6.08711
21
-3.21279
0
LINE
8
BLACK
6
CONTINUOUS
10
6.08711
20
-3.21279
11
6.0871
21
-3.21279
0
LINE
8
BLACK
6
CONTINUOUS
10
6.0871
20
-3.21279
11
6.0871
21
-3.21279
0
LINE
8
BLACK
6
CONTINUOUS
10
6.0871
20
-3.21279
11
6.08701
21
-3.2128
0
LINE
8
BLACK
6
CONTINUOUS
10
6.08701
20
-3.2128
11
6.08681
21
-3.21278
0
LINE
8
BLACK
6
CONTINUOUS
10
6.08681
20
-3.21278
11
6.08672
21
-3.21275
0
LINE
8
BLACK
6
CONTINUOUS
10
6.08672
20
-3.21275
11
6.08672
21
-3.21275
0
LINE
8
BLACK
6
CONTINUOUS
10
6.08672
20
-3.21275
11
6.08672
21
-3.21275
0
LINE
8
BLACK
6
CONTINUOUS
10
6.08672
20
-3.21275
11
6.08663
21
-3.21272
0
LINE
8
BLACK
6
CONTINUOUS
10
6.08663
20
-3.21272
11
6.08646
21
-3.21263
0
LINE
8
BLACK
6
CONTINUOUS
10
6.08646
20
-3.21263
11
6.08631
21
-3.21251
0
LINE
8
BLACK
6
CONTINUOUS
10
6.08631
20
-3.21251
11
6.08619
21
-3.21236
0
LINE
8
BLACK
6
CONTINUOUS
10
6.08619
20
-3.21236
11
6.08614
21
-3.21227
0
LINE
8
BLACK
6
CONTINUOUS
10
6.08614
20
-3.21227
11
6.08614
21
-3.21227
0
LINE
8
BLACK
6
CONTINUOUS
10
6.08614
20
-3.21227
11
6.08614
21
-3.21227
0
LINE
8
BLACK
6
CONTINUOUS
10
6.08614
20
-3.21227
11
6.08609
21
-3.21219
0
LINE
8
BLACK
6
CONTINUOUS
10
6.08609
20
-3.21219
11
6.08604
21
-3.212
0
LINE
8
BLACK
6
CONTINUOUS
10
6.08604
20
-3.212
11
6.08603
21
-3.21191
0
LINE
8
BLACK
6
CONTINUOUS
10
6.08603
20
-3.21191
11
6.08603
21
-3.21191
0
LINE
8
BLACK
6
CONTINUOUS
10
6.08603
20
-3.21191
11
6.08603
21
-3.21191
0
LINE
8
BLACK
6
CONTINUOUS
10
6.08603
20
-3.21191
11
6.08602
21
-3.21186
0
LINE
8
BLACK
6
CONTINUOUS
10
6.08602
20
-3.21186
11
6.08607
21
-3.02646
0
LINE
8
BLACK
6
CONTINUOUS
10
6.08607
20
-3.02646
11
5.84933
21
-3.02657
0
LINE
8
BLACK
6
CONTINUOUS
10
5.84933
20
-3.02657
11
5.8096
21
-3.50272
0
LINE
8
BLACK
6
CONTINUOUS
10
5.8096
20
-3.50272
11
5.80957
21
-3.50286
0
LINE
8
BLACK
6
CONTINUOUS
10
5.80957
20
-3.50286
11
5.8095
21
-3.50304
0
LINE
8
BLACK
6
CONTINUOUS
10
5.8095
20
-3.50304
11
5.80946
21
-3.50311
0
LINE
8
BLACK
6
CONTINUOUS
10
5.80946
20
-3.50311
11
5.79239
21
-3.53095
0
LINE
8
BLACK
6
CONTINUOUS
10
5.79239
20
-3.53095
11
5.75436
21
-3.60141
0
LINE
8
BLACK
6
CONTINUOUS
10
5.75436
20
-3.60141
11
5.72199
21
-3.67464
0
LINE
8
BLACK
6
CONTINUOUS
10
5.72199
20
-3.67464
11
5.69546
21
-3.75017
0
LINE
8
BLACK
6
CONTINUOUS
10
5.69546
20
-3.75017
11
5.67494
21
-3.82756
0
LINE
8
BLACK
6
CONTINUOUS
10
5.67494
20
-3.82756
11
5.66056
21
-3.90632
0
LINE
8
BLACK
6
CONTINUOUS
10
5.66056
20
-3.90632
11
5.6524
21
-3.98596
0
LINE
8
BLACK
6
CONTINUOUS
10
5.6524
20
-3.98596
11
5.65051
21
-4.066
0
LINE
8
BLACK
6
CONTINUOUS
10
5.65051
20
-4.066
11
5.65491
21
-4.14594
0
LINE
8
BLACK
6
CONTINUOUS
10
5.65491
20
-4.14594
11
5.66556
21
-4.22528
0
LINE
8
BLACK
6
CONTINUOUS
10
5.66556
20
-4.22528
11
5.68241
21
-4.30355
0
LINE
8
BLACK
6
CONTINUOUS
10
5.68241
20
-4.30355
11
5.70535
21
-4.38025
0
LINE
8
BLACK
6
CONTINUOUS
10
5.70535
20
-4.38025
11
5.73423
21
-4.45492
0
LINE
8
BLACK
6
CONTINUOUS
10
5.73423
20
-4.45492
11
5.76889
21
-4.52709
0
LINE
8
BLACK
6
CONTINUOUS
10
5.76889
20
-4.52709
11
5.80911
21
-4.59634
0
LINE
8
BLACK
6
CONTINUOUS
10
5.80911
20
-4.59634
11
5.80915
21
-4.5964
0
LINE
8
BLACK
6
CONTINUOUS
10
5.80915
20
-4.5964
11
5.80922
21
-4.59658
0
LINE
8
BLACK
6
CONTINUOUS
10
5.80922
20
-4.59658
11
5.80924
21
-4.59672
0
LINE
8
BLACK
6
CONTINUOUS
10
5.80924
20
-4.59672
11
5.84933
21
-5.07343
0
LINE
8
BLACK
6
CONTINUOUS
10
5.84933
20
-5.07343
11
6.08607
21
-5.07354
0
LINE
8
BLACK
6
CONTINUOUS
10
6.08607
20
-5.07354
11
6.08602
21
-4.88814
0
LINE
8
BLACK
6
CONTINUOUS
10
6.08602
20
-4.88814
11
6.08604
21
-4.888
0
LINE
8
BLACK
6
CONTINUOUS
10
6.08604
20
-4.888
11
6.08609
21
-4.88781
0
LINE
8
BLACK
6
CONTINUOUS
10
6.08609
20
-4.88781
11
6.08619
21
-4.88764
0
LINE
8
BLACK
6
CONTINUOUS
10
6.08619
20
-4.88764
11
6.08631
21
-4.88749
0
LINE
8
BLACK
6
CONTINUOUS
10
6.08631
20
-4.88749
11
6.08646
21
-4.88737
0
LINE
8
BLACK
6
CONTINUOUS
10
6.08646
20
-4.88737
11
6.08663
21
-4.88728
0
LINE
8
BLACK
6
CONTINUOUS
10
6.08663
20
-4.88728
11
6.08681
21
-4.88722
0
LINE
8
BLACK
6
CONTINUOUS
10
6.08681
20
-4.88722
11
6.08701
21
-4.8872
0
LINE
8
BLACK
6
CONTINUOUS
10
6.08701
20
-4.8872
11
6.0872
21
-4.88722
0
LINE
8
BLACK
6
CONTINUOUS
10
6.0872
20
-4.88722
11
6.08739
21
-4.88728
0
LINE
8
BLACK
6
CONTINUOUS
10
6.08739
20
-4.88728
11
6.08756
21
-4.88737
0
LINE
8
BLACK
6
CONTINUOUS
10
6.08756
20
-4.88737
11
6.08759
21
-4.8874
0
LINE
8
BLACK
6
CONTINUOUS
10
6.08759
20
-4.8874
11
6.11924
21
-4.90854
0
LINE
8
BLACK
6
CONTINUOUS
10
6.11924
20
-4.90854
11
6.18831
21
-4.94911
0
LINE
8
BLACK
6
CONTINUOUS
10
6.18831
20
-4.94911
11
6.26033
21
-4.98413
0
LINE
8
BLACK
6
CONTINUOUS
10
6.26033
20
-4.98413
11
6.33489
21
-5.0134
0
LINE
8
BLACK
6
CONTINUOUS
10
6.33489
20
-5.0134
11
6.41151
21
-5.03672
0
LINE
8
BLACK
6
CONTINUOUS
10
6.41151
20
-5.03672
11
6.48972
21
-5.05396
0
LINE
8
BLACK
6
CONTINUOUS
10
6.48972
20
-5.05396
11
6.56905
21
-5.06501
0
LINE
8
BLACK
6
CONTINUOUS
10
6.56905
20
-5.06501
11
6.649
21
-5.0698
0
LINE
8
BLACK
6
CONTINUOUS
10
6.649
20
-5.0698
11
6.72907
21
-5.0683
0
LINE
8
BLACK
6
CONTINUOUS
10
6.72907
20
-5.0683
11
6.80879
21
-5.06053
0
LINE
8
BLACK
6
CONTINUOUS
10
6.80879
20
-5.06053
11
6.88764
21
-5.04652
0
LINE
8
BLACK
6
CONTINUOUS
10
6.88764
20
-5.04652
11
6.96516
21
-5.02638
0
LINE
8
BLACK
6
CONTINUOUS
10
6.96516
20
-5.02638
11
7.04085
21
-5.00021
0
LINE
8
BLACK
6
CONTINUOUS
10
7.04085
20
-5.00021
11
7.11426
21
-4.96818
0
LINE
8
BLACK
6
CONTINUOUS
10
7.11426
20
-4.96818
11
7.18493
21
-4.9305
0
LINE
8
BLACK
6
CONTINUOUS
10
7.18493
20
-4.9305
11
7.25241
21
-4.88739
0
LINE
8
BLACK
6
CONTINUOUS
10
7.25241
20
-4.88739
11
7.25244
21
-4.88737
0
LINE
8
BLACK
6
CONTINUOUS
10
7.25244
20
-4.88737
11
7.25253
21
-4.88732
0
LINE
8
BLACK
6
CONTINUOUS
10
7.25253
20
-4.88732
11
7.25253
21
-4.88732
0
LINE
8
BLACK
6
CONTINUOUS
10
7.25253
20
-4.88732
11
7.25253
21
-4.88732
0
LINE
8
BLACK
6
CONTINUOUS
10
7.25253
20
-4.88732
11
7.25261
21
-4.88728
0
LINE
8
BLACK
6
CONTINUOUS
10
7.25261
20
-4.88728
11
7.2528
21
-4.88722
0
LINE
8
BLACK
6
CONTINUOUS
10
7.2528
20
-4.88722
11
7.25289
21
-4.88721
0
LINE
8
BLACK
6
CONTINUOUS
10
7.25289
20
-4.88721
11
7.2529
21
-4.88721
0
LINE
8
BLACK
6
CONTINUOUS
10
7.2529
20
-4.88721
11
7.2529
21
-4.88721
0
LINE
8
BLACK
6
CONTINUOUS
10
7.2529
20
-4.88721
11
7.25299
21
-4.8872
0
LINE
8
BLACK
6
CONTINUOUS
10
7.25299
20
-4.8872
11
7.25319
21
-4.88722
0
LINE
8
BLACK
6
CONTINUOUS
10
7.25319
20
-4.88722
11
7.25328
21
-4.88725
0
LINE
8
BLACK
6
CONTINUOUS
10
7.25328
20
-4.88725
11
7.25328
21
-4.88725
0
LINE
8
BLACK
6
CONTINUOUS
10
7.25328
20
-4.88725
11
7.25328
21
-4.88725
0
LINE
8
BLACK
6
CONTINUOUS
10
7.25328
20
-4.88725
11
7.25337
21
-4.88728
0
LINE
8
BLACK
6
CONTINUOUS
10
7.25337
20
-4.88728
11
7.25354
21
-4.88737
0
LINE
8
BLACK
6
CONTINUOUS
10
7.25354
20
-4.88737
11
7.25369
21
-4.88749
0
LINE
8
BLACK
6
CONTINUOUS
10
7.25369
20
-4.88749
11
7.25381
21
-4.88764
0
LINE
8
BLACK
6
CONTINUOUS
10
7.25381
20
-4.88764
11
7.25386
21
-4.88772
0
LINE
8
BLACK
6
CONTINUOUS
10
7.25386
20
-4.88772
11
7.25386
21
-4.88773
0
LINE
8
BLACK
6
CONTINUOUS
10
7.25386
20
-4.88773
11
7.25386
21
-4.88773
0
LINE
8
BLACK
6
CONTINUOUS
10
7.25386
20
-4.88773
11
7.25391
21
-4.88781
0
LINE
8
BLACK
6
CONTINUOUS
10
7.25391
20
-4.88781
11
7.25396
21
-4.888
0
LINE
8
BLACK
6
CONTINUOUS
10
7.25396
20
-4.888
11
7.25397
21
-4.88809
0
LINE
8
BLACK
6
CONTINUOUS
10
7.25397
20
-4.88809
11
7.25397
21
-4.88809
0
LINE
8
BLACK
6
CONTINUOUS
10
7.25397
20
-4.88809
11
7.25397
21
-4.88809
0
LINE
8
BLACK
6
CONTINUOUS
10
7.25397
20
-4.88809
11
7.25398
21
-4.88814
0
LINE
8
BLACK
6
CONTINUOUS
10
7.25398
20
-4.88814
11
7.25393
21
-5.07354
0
LINE
8
BLACK
6
CONTINUOUS
10
7.25393
20
-5.07354
11
7.49067
21
-5.07343
0
LINE
8
BLACK
6
CONTINUOUS
10
7.49067
20
-5.07343
11
7.53076
21
-4.59672
0
LINE
8
BLACK
6
CONTINUOUS
10
7.53076
20
-4.59672
11
7.53078
21
-4.59658
0
LINE
8
BLACK
6
CONTINUOUS
10
7.53078
20
-4.59658
11
7.53085
21
-4.5964
0
LINE
8
BLACK
6
CONTINUOUS
10
7.53085
20
-4.5964
11
7.5309
21
-4.59633
0
LINE
8
BLACK
6
CONTINUOUS
10
7.5309
20
-4.59633
11
7.54761
21
-4.56905
0
LINE
8
BLACK
6
CONTINUOUS
10
7.54761
20
-4.56905
11
7.58564
21
-4.49859
0
LINE
8
BLACK
6
CONTINUOUS
10
7.58564
20
-4.49859
11
7.61801
21
-4.42536
0
LINE
8
BLACK
6
CONTINUOUS
10
7.61801
20
-4.42536
11
7.64454
21
-4.34983
0
LINE
8
BLACK
6
CONTINUOUS
10
7.64454
20
-4.34983
11
7.66506
21
-4.27244
0
LINE
8
BLACK
6
CONTINUOUS
10
7.66506
20
-4.27244
11
7.67944
21
-4.19368
0
LINE
8
BLACK
6
CONTINUOUS
10
7.67944
20
-4.19368
11
7.6876
21
-4.11404
0
LINE
8
BLACK
6
CONTINUOUS
10
7.6876
20
-4.11404
11
7.68949
21
-4.034
0
LINE
8
BLACK
6
CONTINUOUS
10
7.68949
20
-4.034
11
7.68509
21
-3.95406
0
LINE
8
BLACK
6
CONTINUOUS
10
7.68509
20
-3.95406
11
7.67444
21
-3.87472
0
LINE
8
BLACK
6
CONTINUOUS
10
7.67444
20
-3.87472
11
7.65759
21
-3.79645
0
LINE
8
BLACK
6
CONTINUOUS
10
7.65759
20
-3.79645
11
7.63465
21
-3.71975
0
LINE
8
BLACK
6
CONTINUOUS
10
7.63465
20
-3.71975
11
7.60577
21
-3.64508
0
LINE
8
BLACK
6
CONTINUOUS
10
7.60577
20
-3.64508
11
7.57111
21
-3.57291
0
LINE
8
BLACK
6
CONTINUOUS
10
7.57111
20
-3.57291
11
7.53089
21
-3.50366
0
LINE
8
BLACK
6
CONTINUOUS
10
7.53089
20
-3.50366
11
7.53085
21
-3.5036
0
LINE
8
BLACK
6
CONTINUOUS
10
7.53085
20
-3.5036
11
7.53078
21
-3.50342
0
LINE
8
BLACK
6
CONTINUOUS
10
7.53078
20
-3.50342
11
7.53076
21
-3.50328
0
LINE
8
BLACK
6
CONTINUOUS
10
7.53076
20
-3.50328
11
7.49067
21
-3.02657
0
LINE
8
BLACK
6
CONTINUOUS
10
7.49067
20
-3.02657
11
7.25393
21
-3.02646
0
LINE
8
BLACK
6
CONTINUOUS
10
7.25393
20
-3.02646
11
7.25398
21
-3.21186
0
LINE
8
BLACK
6
CONTINUOUS
10
5.90362
20
-4.94737
11
5.90779
21
-4.9373
0
LINE
8
BLACK
6
CONTINUOUS
10
5.90779
20
-4.9373
11
5.91385
21
-4.92823
0
LINE
8
BLACK
6
CONTINUOUS
10
5.91385
20
-4.92823
11
5.92156
21
-4.92052
0
LINE
8
BLACK
6
CONTINUOUS
10
5.92156
20
-4.92052
11
5.93063
21
-4.91446
0
LINE
8
BLACK
6
CONTINUOUS
10
5.93063
20
-4.91446
11
5.9407
21
-4.91029
0
LINE
8
BLACK
6
CONTINUOUS
10
5.9407
20
-4.91029
11
5.95139
21
-4.90816
0
LINE
8
BLACK
6
CONTINUOUS
10
5.95139
20
-4.90816
11
5.9623
21
-4.90816
0
LINE
8
BLACK
6
CONTINUOUS
10
5.9623
20
-4.90816
11
5.97299
21
-4.91029
0
LINE
8
BLACK
6
CONTINUOUS
10
5.97299
20
-4.91029
11
5.98307
21
-4.91446
0
LINE
8
BLACK
6
CONTINUOUS
10
5.98307
20
-4.91446
11
5.99213
21
-4.92052
0
LINE
8
BLACK
6
CONTINUOUS
10
5.99213
20
-4.92052
11
5.99984
21
-4.92823
0
LINE
8
BLACK
6
CONTINUOUS
10
5.99984
20
-4.92823
11
6.0059
21
-4.9373
0
LINE
8
BLACK
6
CONTINUOUS
10
6.0059
20
-4.9373
11
6.01007
21
-4.94737
0
LINE
8
BLACK
6
CONTINUOUS
10
6.01007
20
-4.94737
11
6.0122
21
-4.95807
0
LINE
8
BLACK
6
CONTINUOUS
10
6.0122
20
-4.95807
11
6.0122
21
-4.96897
0
LINE
8
BLACK
6
CONTINUOUS
10
6.0122
20
-4.96897
11
6.01007
21
-4.97966
0
LINE
8
BLACK
6
CONTINUOUS
10
6.01007
20
-4.97966
11
6.0059
21
-4.98974
0
LINE
8
BLACK
6
CONTINUOUS
10
6.0059
20
-4.98974
11
5.99984
21
-4.9988
0
LINE
8
BLACK
6
CONTINUOUS
10
5.99984
20
-4.9988
11
5.99213
21
-5.00651
0
LINE
8
BLACK
6
CONTINUOUS
10
5.99213
20
-5.00651
11
5.98307
21
-5.01257
0
LINE
8
BLACK
6
CONTINUOUS
10
5.98307
20
-5.01257
11
5.97299
21
-5.01675
0
LINE
8
BLACK
6
CONTINUOUS
10
5.97299
20
-5.01675
11
5.9623
21
-5.01887
0
LINE
8
BLACK
6
CONTINUOUS
10
5.9623
20
-5.01887
11
5.95139
21
-5.01887
0
LINE
8
BLACK
6
CONTINUOUS
10
5.95139
20
-5.01887
11
5.9407
21
-5.01675
0
LINE
8
BLACK
6
CONTINUOUS
10
5.9407
20
-5.01675
11
5.93063
21
-5.01257
0
LINE
8
BLACK
6
CONTINUOUS
10
5.93063
20
-5.01257
11
5.92156
21
-5.00651
0
LINE
8
BLACK
6
CONTINUOUS
10
5.92156
20
-5.00651
11
5.91385
21
-4.9988
0
LINE
8
BLACK
6
CONTINUOUS
10
5.91385
20
-4.9988
11
5.90779
21
-4.98974
0
LINE
8
BLACK
6
CONTINUOUS
10
5.90779
20
-4.98974
11
5.90362
21
-4.97966
0
LINE
8
BLACK
6
CONTINUOUS
10
5.90362
20
-4.97966
11
5.90149
21
-4.96897
0
LINE
8
BLACK
6
CONTINUOUS
10
5.90149
20
-4.96897
11
5.90149
21
-4.95807
0
LINE
8
BLACK
6
CONTINUOUS
10
5.90149
20
-4.95807
11
5.90362
21
-4.94737
0
LINE
8
BLACK
6
CONTINUOUS
10
5.90625
20
-4.97886
11
5.91022
21
-4.98844
0
LINE
8
BLACK
6
CONTINUOUS
10
5.91022
20
-4.98844
11
5.91598
21
-4.99706
0
LINE
8
BLACK
6
CONTINUOUS
10
5.91598
20
-4.99706
11
5.92331
21
-5.00438
0
LINE
8
BLACK
6
CONTINUOUS
10
5.92331
20
-5.00438
11
5.93192
21
-5.01014
0
LINE
8
BLACK
6
CONTINUOUS
10
5.93192
20
-5.01014
11
5.9415
21
-5.01411
0
LINE
8
BLACK
6
CONTINUOUS
10
5.9415
20
-5.01411
11
5.95166
21
-5.01613
0
LINE
8
BLACK
6
CONTINUOUS
10
5.95166
20
-5.01613
11
5.96203
21
-5.01613
0
LINE
8
BLACK
6
CONTINUOUS
10
5.96203
20
-5.01613
11
5.97219
21
-5.01411
0
LINE
8
BLACK
6
CONTINUOUS
10
5.97219
20
-5.01411
11
5.98177
21
-5.01014
0
LINE
8
BLACK
6
CONTINUOUS
10
5.98177
20
-5.01014
11
5.99038
21
-5.00438
0
LINE
8
BLACK
6
CONTINUOUS
10
5.99038
20
-5.00438
11
5.99771
21
-4.99706
0
LINE
8
BLACK
6
CONTINUOUS
10
5.99771
20
-4.99706
11
6.00347
21
-4.98844
0
LINE
8
BLACK
6
CONTINUOUS
10
6.00347
20
-4.98844
11
6.00744
21
-4.97886
0
LINE
8
BLACK
6
CONTINUOUS
10
6.00744
20
-4.97886
11
6.00946
21
-4.9687
0
LINE
8
BLACK
6
CONTINUOUS
10
6.00946
20
-4.9687
11
6.00946
21
-4.95834
0
LINE
8
BLACK
6
CONTINUOUS
10
6.00946
20
-4.95834
11
6.00744
21
-4.94817
0
LINE
8
BLACK
6
CONTINUOUS
10
6.00744
20
-4.94817
11
6.00347
21
-4.9386
0
LINE
8
BLACK
6
CONTINUOUS
10
6.00347
20
-4.9386
11
5.99771
21
-4.92998
0
LINE
8
BLACK
6
CONTINUOUS
10
5.99771
20
-4.92998
11
5.99038
21
-4.92265
0
LINE
8
BLACK
6
CONTINUOUS
10
5.99038
20
-4.92265
11
5.98177
21
-4.91689
0
LINE
8
BLACK
6
CONTINUOUS
10
5.98177
20
-4.91689
11
5.97219
21
-4.91293
0
LINE
8
BLACK
6
CONTINUOUS
10
5.97219
20
-4.91293
11
5.96203
21
-4.9109
0
LINE
8
BLACK
6
CONTINUOUS
10
5.96203
20
-4.9109
11
5.95166
21
-4.9109
0
LINE
8
BLACK
6
CONTINUOUS
10
5.95166
20
-4.9109
11
5.9415
21
-4.91293
0
LINE
8
BLACK
6
CONTINUOUS
10
5.9415
20
-4.91293
11
5.93192
21
-4.91689
0
LINE
8
BLACK
6
CONTINUOUS
10
5.93192
20
-4.91689
11
5.92331
21
-4.92265
0
LINE
8
BLACK
6
CONTINUOUS
10
5.92331
20
-4.92265
11
5.91598
21
-4.92998
0
LINE
8
BLACK
6
CONTINUOUS
10
5.91598
20
-4.92998
11
5.91022
21
-4.9386
0
LINE
8
BLACK
6
CONTINUOUS
10
5.91022
20
-4.9386
11
5.90625
21
-4.94817
0
LINE
8
BLACK
6
CONTINUOUS
10
5.90625
20
-4.94817
11
5.90423
21
-4.95834
0
LINE
8
BLACK
6
CONTINUOUS
10
5.90423
20
-4.95834
11
5.90423
21
-4.9687
0
LINE
8
BLACK
6
CONTINUOUS
10
5.90423
20
-4.9687
11
5.90625
21
-4.97886
0
LINE
8
BLACK
6
CONTINUOUS
10
7.33039
20
-4.94709
11
7.33457
21
-4.93701
0
LINE
8
BLACK
6
CONTINUOUS
10
7.33457
20
-4.93701
11
7.34062
21
-4.92795
0
LINE
8
BLACK
6
CONTINUOUS
10
7.34062
20
-4.92795
11
7.34833
21
-4.92024
0
LINE
8
BLACK
6
CONTINUOUS
10
7.34833
20
-4.92024
11
7.3574
21
-4.91418
0
LINE
8
BLACK
6
CONTINUOUS
10
7.3574
20
-4.91418
11
7.36748
21
-4.91001
0
LINE
8
BLACK
6
CONTINUOUS
10
7.36748
20
-4.91001
11
7.37817
21
-4.90788
0
LINE
8
BLACK
6
CONTINUOUS
10
7.37817
20
-4.90788
11
7.38907
21
-4.90788
0
LINE
8
BLACK
6
CONTINUOUS
10
7.38907
20
-4.90788
11
7.39977
21
-4.91001
0
LINE
8
BLACK
6
CONTINUOUS
10
7.39977
20
-4.91001
11
7.40984
21
-4.91418
0
LINE
8
BLACK
6
CONTINUOUS
10
7.40984
20
-4.91418
11
7.41891
21
-4.92024
0
LINE
8
BLACK
6
CONTINUOUS
10
7.41891
20
-4.92024
11
7.42662
21
-4.92795
0
LINE
8
BLACK
6
CONTINUOUS
10
7.42662
20
-4.92795
11
7.43268
21
-4.93701
0
LINE
8
BLACK
6
CONTINUOUS
10
7.43268
20
-4.93701
11
7.43685
21
-4.94709
0
LINE
8
BLACK
6
CONTINUOUS
10
7.43685
20
-4.94709
11
7.43898
21
-4.95778
0
LINE
8
BLACK
6
CONTINUOUS
10
7.43898
20
-4.95778
11
7.43898
21
-4.96869
0
LINE
8
BLACK
6
CONTINUOUS
10
7.43898
20
-4.96869
11
7.43685
21
-4.97938
0
LINE
8
BLACK
6
CONTINUOUS
10
7.43685
20
-4.97938
11
7.43268
21
-4.98946
0
LINE
8
BLACK
6
CONTINUOUS
10
7.43268
20
-4.98946
11
7.42662
21
-4.99852
0
LINE
8
BLACK
6
CONTINUOUS
10
7.42662
20
-4.99852
11
7.41891
21
-5.00623
0
LINE
8
BLACK
6
CONTINUOUS
10
7.41891
20
-5.00623
11
7.40984
21
-5.01229
0
LINE
8
BLACK
6
CONTINUOUS
10
7.40984
20
-5.01229
11
7.39977
21
-5.01646
0
LINE
8
BLACK
6
CONTINUOUS
10
7.39977
20
-5.01646
11
7.38907
21
-5.01859
0
LINE
8
BLACK
6
CONTINUOUS
10
7.38907
20
-5.01859
11
7.37817
21
-5.01859
0
LINE
8
BLACK
6
CONTINUOUS
10
7.37817
20
-5.01859
11
7.36748
21
-5.01646
0
LINE
8
BLACK
6
CONTINUOUS
10
7.36748
20
-5.01646
11
7.3574
21
-5.01229
0
LINE
8
BLACK
6
CONTINUOUS
10
7.3574
20
-5.01229
11
7.34833
21
-5.00623
0
LINE
8
BLACK
6
CONTINUOUS
10
7.34833
20
-5.00623
11
7.34062
21
-4.99852
0
LINE
8
BLACK
6
CONTINUOUS
10
7.34062
20
-4.99852
11
7.33457
21
-4.98946
0
LINE
8
BLACK
6
CONTINUOUS
10
7.33457
20
-4.98946
11
7.33039
21
-4.97938
0
LINE
8
BLACK
6
CONTINUOUS
10
7.33039
20
-4.97938
11
7.32827
21
-4.96869
0
LINE
8
BLACK
6
CONTINUOUS
10
7.32827
20
-4.96869
11
7.32827
21
-4.95778
0
LINE
8
BLACK
6
CONTINUOUS
10
7.32827
20
-4.95778
11
7.33039
21
-4.94709
0
LINE
8
BLACK
6
CONTINUOUS
10
7.33303
20
-4.97858
11
7.337
21
-4.98816
0
LINE
8
BLACK
6
CONTINUOUS
10
7.337
20
-4.98816
11
7.34275
21
-4.99677
0
LINE
8
BLACK
6
CONTINUOUS
10
7.34275
20
-4.99677
11
7.35008
21
-5.0041
0
LINE
8
BLACK
6
CONTINUOUS
10
7.35008
20
-5.0041
11
7.3587
21
-5.00986
0
LINE
8
BLACK
6
CONTINUOUS
10
7.3587
20
-5.00986
11
7.36828
21
-5.01383
0
LINE
8
BLACK
6
CONTINUOUS
10
7.36828
20
-5.01383
11
7.37844
21
-5.01585
0
LINE
8
BLACK
6
CONTINUOUS
10
7.37844
20
-5.01585
11
7.3888
21
-5.01585
0
LINE
8
BLACK
6
CONTINUOUS
10
7.3888
20
-5.01585
11
7.39897
21
-5.01383
0
LINE
8
BLACK
6
CONTINUOUS
10
7.39897
20
-5.01383
11
7.40854
21
-5.00986
0
LINE
8
BLACK
6
CONTINUOUS
10
7.40854
20
-5.00986
11
7.41716
21
-5.0041
0
LINE
8
BLACK
6
CONTINUOUS
10
7.41716
20
-5.0041
11
7.42449
21
-4.99677
0
LINE
8
BLACK
6
CONTINUOUS
10
7.42449
20
-4.99677
11
7.43025
21
-4.98816
0
LINE
8
BLACK
6
CONTINUOUS
10
7.43025
20
-4.98816
11
7.43421
21
-4.97858
0
LINE
8
BLACK
6
CONTINUOUS
10
7.43421
20
-4.97858
11
7.43623
21
-4.96842
0
LINE
8
BLACK
6
CONTINUOUS
10
7.43623
20
-4.96842
11
7.43623
21
-4.95805
0
LINE
8
BLACK
6
CONTINUOUS
10
7.43623
20
-4.95805
11
7.43421
21
-4.94789
0
LINE
8
BLACK
6
CONTINUOUS
10
7.43421
20
-4.94789
11
7.43025
21
-4.93831
0
LINE
8
BLACK
6
CONTINUOUS
10
7.43025
20
-4.93831
11
7.42449
21
-4.9297
0
LINE
8
BLACK
6
CONTINUOUS
10
7.42449
20
-4.9297
11
7.41716
21
-4.92237
0
LINE
8
BLACK
6
CONTINUOUS
10
7.41716
20
-4.92237
11
7.40854
21
-4.91661
0
LINE
8
BLACK
6
CONTINUOUS
10
7.40854
20
-4.91661
11
7.39897
21
-4.91264
0
LINE
8
BLACK
6
CONTINUOUS
10
7.39897
20
-4.91264
11
7.3888
21
-4.91062
0
LINE
8
BLACK
6
CONTINUOUS
10
7.3888
20
-4.91062
11
7.37844
21
-4.91062
0
LINE
8
BLACK
6
CONTINUOUS
10
7.37844
20
-4.91062
11
7.36828
21
-4.91264
0
LINE
8
BLACK
6
CONTINUOUS
10
7.36828
20
-4.91264
11
7.3587
21
-4.91661
0
LINE
8
BLACK
6
CONTINUOUS
10
7.3587
20
-4.91661
11
7.35008
21
-4.92237
0
LINE
8
BLACK
6
CONTINUOUS
10
7.35008
20
-4.92237
11
7.34275
21
-4.9297
0
LINE
8
BLACK
6
CONTINUOUS
10
7.34275
20
-4.9297
11
7.337
21
-4.93831
0
LINE
8
BLACK
6
CONTINUOUS
10
7.337
20
-4.93831
11
7.33303
21
-4.94789
0
LINE
8
BLACK
6
CONTINUOUS
10
7.33303
20
-4.94789
11
7.33101
21
-4.95805
0
LINE
8
BLACK
6
CONTINUOUS
10
7.33101
20
-4.95805
11
7.33101
21
-4.96842
0
LINE
8
BLACK
6
CONTINUOUS
10
7.33101
20
-4.96842
11
7.33303
21
-4.97858
0
LINE
8
BLACK
6
CONTINUOUS
10
5.97203
20
-3.91753
11
5.9875
21
-3.85276
0
LINE
8
BLACK
6
CONTINUOUS
10
5.9875
20
-3.85276
11
6.00897
21
-3.78971
0
LINE
8
BLACK
6
CONTINUOUS
10
6.00897
20
-3.78971
11
6.03625
21
-3.72896
0
LINE
8
BLACK
6
CONTINUOUS
10
6.03625
20
-3.72896
11
6.06909
21
-3.67102
0
LINE
8
BLACK
6
CONTINUOUS
10
6.06909
20
-3.67102
11
6.10722
21
-3.61642
0
LINE
8
BLACK
6
CONTINUOUS
10
6.10722
20
-3.61642
11
6.1503
21
-3.56562
0
LINE
8
BLACK
6
CONTINUOUS
10
6.1503
20
-3.56562
11
6.19794
21
-3.51908
0
LINE
8
BLACK
6
CONTINUOUS
10
6.19794
20
-3.51908
11
6.24973
21
-3.47721
0
LINE
8
BLACK
6
CONTINUOUS
10
6.24973
20
-3.47721
11
6.30521
21
-3.44037
0
LINE
8
BLACK
6
CONTINUOUS
10
6.30521
20
-3.44037
11
6.3639
21
-3.40889
0
LINE
8
BLACK
6
CONTINUOUS
10
6.3639
20
-3.40889
11
6.42528
21
-3.38305
0
LINE
8
BLACK
6
CONTINUOUS
10
6.42528
20
-3.38305
11
6.48881
21
-3.36306
0
LINE
8
BLACK
6
CONTINUOUS
10
6.48881
20
-3.36306
11
6.55393
21
-3.34911
0
LINE
8
BLACK
6
CONTINUOUS
10
6.55393
20
-3.34911
11
6.62007
21
-3.34132
0
LINE
8
BLACK
6
CONTINUOUS
10
6.62007
20
-3.34132
11
6.68665
21
-3.33976
0
LINE
8
BLACK
6
CONTINUOUS
10
6.68665
20
-3.33976
11
6.75309
21
-3.34444
0
LINE
8
BLACK
6
CONTINUOUS
10
6.75309
20
-3.34444
11
6.81879
21
-3.35532
0
LINE
8
BLACK
6
CONTINUOUS
10
6.81879
20
-3.35532
11
6.88319
21
-3.37231
0
LINE
8
BLACK
6
CONTINUOUS
10
6.88319
20
-3.37231
11
6.94571
21
-3.39525
0
LINE
8
BLACK
6
CONTINUOUS
10
6.94571
20
-3.39525
11
7.00581
21
-3.42395
0
LINE
8
BLACK
6
CONTINUOUS
10
7.00581
20
-3.42395
11
7.06296
21
-3.45814
0
LINE
8
BLACK
6
CONTINUOUS
10
7.06296
20
-3.45814
11
7.11666
21
-3.49754
0
LINE
8
BLACK
6
CONTINUOUS
10
7.11666
20
-3.49754
11
7.16643
21
-3.54179
0
LINE
8
BLACK
6
CONTINUOUS
10
7.16643
20
-3.54179
11
7.21184
21
-3.59051
0
LINE
8
BLACK
6
CONTINUOUS
10
7.21184
20
-3.59051
11
7.25248
21
-3.64327
0
LINE
8
BLACK
6
CONTINUOUS
10
7.25248
20
-3.64327
11
7.28801
21
-3.6996
0
LINE
8
BLACK
6
CONTINUOUS
10
7.28801
20
-3.6996
11
7.31811
21
-3.75901
0
LINE
8
BLACK
6
CONTINUOUS
10
7.31811
20
-3.75901
11
7.34251
21
-3.82098
0
LINE
8
BLACK
6
CONTINUOUS
10
7.34251
20
-3.82098
11
7.361
21
-3.88496
0
LINE
8
BLACK
6
CONTINUOUS
10
7.361
20
-3.88496
11
7.37342
21
-3.95039
0
LINE
8
BLACK
6
CONTINUOUS
10
7.37342
20
-3.95039
11
7.37965
21
-4.0167
0
LINE
8
BLACK
6
CONTINUOUS
10
7.37965
20
-4.0167
11
7.37965
21
-4.0833
0
LINE
8
BLACK
6
CONTINUOUS
10
7.37965
20
-4.0833
11
7.37342
21
-4.14961
0
LINE
8
BLACK
6
CONTINUOUS
10
7.37342
20
-4.14961
11
7.361
21
-4.21504
0
LINE
8
BLACK
6
CONTINUOUS
10
7.361
20
-4.21504
11
7.34251
21
-4.27902
0
LINE
8
BLACK
6
CONTINUOUS
10
7.34251
20
-4.27902
11
7.31811
21
-4.34099
0
LINE
8
BLACK
6
CONTINUOUS
10
7.31811
20
-4.34099
11
7.28801
21
-4.4004
0
LINE
8
BLACK
6
CONTINUOUS
10
7.28801
20
-4.4004
11
7.25248
21
-4.45673
0
LINE
8
BLACK
6
CONTINUOUS
10
7.25248
20
-4.45673
11
7.21184
21
-4.50949
0
LINE
8
BLACK
6
CONTINUOUS
10
7.21184
20
-4.50949
11
7.16643
21
-4.55821
0
LINE
8
BLACK
6
CONTINUOUS
10
7.16643
20
-4.55821
11
7.11666
21
-4.60246
0
LINE
8
BLACK
6
CONTINUOUS
10
7.11666
20
-4.60246
11
7.06296
21
-4.64186
0
LINE
8
BLACK
6
CONTINUOUS
10
7.06296
20
-4.64186
11
7.00581
21
-4.67605
0
LINE
8
BLACK
6
CONTINUOUS
10
7.00581
20
-4.67605
11
6.94571
21
-4.70475
0
LINE
8
BLACK
6
CONTINUOUS
10
6.94571
20
-4.70475
11
6.88319
21
-4.72769
0
LINE
8
BLACK
6
CONTINUOUS
10
6.88319
20
-4.72769
11
6.81879
21
-4.74468
0
LINE
8
BLACK
6
CONTINUOUS
10
6.81879
20
-4.74468
11
6.75309
21
-4.75556
0
LINE
8
BLACK
6
CONTINUOUS
10
6.75309
20
-4.75556
11
6.68665
21
-4.76024
0
LINE
8
BLACK
6
CONTINUOUS
10
6.68665
20
-4.76024
11
6.62007
21
-4.75868
0
LINE
8
BLACK
6
CONTINUOUS
10
6.62007
20
-4.75868
11
6.55393
21
-4.75089
0
LINE
8
BLACK
6
CONTINUOUS
10
6.55393
20
-4.75089
11
6.48881
21
-4.73694
0
LINE
8
BLACK
6
CONTINUOUS
10
6.48881
20
-4.73694
11
6.42528
21
-4.71695
0
LINE
8
BLACK
6
CONTINUOUS
10
6.42528
20
-4.71695
11
6.3639
21
-4.69111
0
LINE
8
BLACK
6
CONTINUOUS
10
6.3639
20
-4.69111
11
6.30521
21
-4.65963
0
LINE
8
BLACK
6
CONTINUOUS
10
6.30521
20
-4.65963
11
6.24973
21
-4.62279
0
LINE
8
BLACK
6
CONTINUOUS
10
6.24973
20
-4.62279
11
6.19794
21
-4.58092
0
LINE
8
BLACK
6
CONTINUOUS
10
6.19794
20
-4.58092
11
6.1503
21
-4.53438
0
LINE
8
BLACK
6
CONTINUOUS
10
6.1503
20
-4.53438
11
6.10722
21
-4.48358
0
LINE
8
BLACK
6
CONTINUOUS
10
6.10722
20
-4.48358
11
6.06909
21
-4.42898
0
LINE
8
BLACK
6
CONTINUOUS
10
6.06909
20
-4.42898
11
6.03625
21
-4.37104
0
LINE
8
BLACK
6
CONTINUOUS
10
6.03625
20
-4.37104
11
6.00897
21
-4.31029
0
LINE
8
BLACK
6
CONTINUOUS
10
6.00897
20
-4.31029
11
5.9875
21
-4.24724
0
LINE
8
BLACK
6
CONTINUOUS
10
5.9875
20
-4.24724
11
5.97203
21
-4.18247
0
LINE
8
BLACK
6
CONTINUOUS
10
5.97203
20
-4.18247
11
5.96269
21
-4.11653
0
LINE
8
BLACK
6
CONTINUOUS
10
5.96269
20
-4.11653
11
5.95957
21
-4.05
0
LINE
8
BLACK
6
CONTINUOUS
10
5.95957
20
-4.05
11
5.96269
21
-3.98347
0
LINE
8
BLACK
6
CONTINUOUS
10
5.96269
20
-3.98347
11
5.97203
21
-3.91753
0
LINE
8
BLACK
6
CONTINUOUS
10
5.97473
20
-4.18195
11
5.99015
21
-4.24648
0
LINE
8
BLACK
6
CONTINUOUS
10
5.99015
20
-4.24648
11
6.01153
21
-4.30928
0
LINE
8
BLACK
6
CONTINUOUS
10
6.01153
20
-4.30928
11
6.0387
21
-4.3698
0
LINE
8
BLACK
6
CONTINUOUS
10
6.0387
20
-4.3698
11
6.07142
21
-4.42751
0
LINE
8
BLACK
6
CONTINUOUS
10
6.07142
20
-4.42751
11
6.1094
21
-4.4819
0
LINE
8
BLACK
6
CONTINUOUS
10
6.1094
20
-4.4819
11
6.15231
21
-4.5325
0
LINE
8
BLACK
6
CONTINUOUS
10
6.15231
20
-4.5325
11
6.19977
21
-4.57886
0
LINE
8
BLACK
6
CONTINUOUS
10
6.19977
20
-4.57886
11
6.25136
21
-4.62057
0
LINE
8
BLACK
6
CONTINUOUS
10
6.25136
20
-4.62057
11
6.30663
21
-4.65726
0
LINE
8
BLACK
6
CONTINUOUS
10
6.30663
20
-4.65726
11
6.36509
21
-4.68862
0
LINE
8
BLACK
6
CONTINUOUS
10
6.36509
20
-4.68862
11
6.42623
21
-4.71437
0
LINE
8
BLACK
6
CONTINUOUS
10
6.42623
20
-4.71437
11
6.48951
21
-4.73427
0
LINE
8
BLACK
6
CONTINUOUS
10
6.48951
20
-4.73427
11
6.55438
21
-4.74817
0
LINE
8
BLACK
6
CONTINUOUS
10
6.55438
20
-4.74817
11
6.62027
21
-4.75593
0
LINE
8
BLACK
6
CONTINUOUS
10
6.62027
20
-4.75593
11
6.68659
21
-4.75748
0
LINE
8
BLACK
6
CONTINUOUS
10
6.68659
20
-4.75748
11
6.75277
21
-4.75282
0
LINE
8
BLACK
6
CONTINUOUS
10
6.75277
20
-4.75282
11
6.81822
21
-4.74198
0
LINE
8
BLACK
6
CONTINUOUS
10
6.81822
20
-4.74198
11
6.88236
21
-4.72506
0
LINE
8
BLACK
6
CONTINUOUS
10
6.88236
20
-4.72506
11
6.94464
21
-4.70221
0
LINE
8
BLACK
6
CONTINUOUS
10
6.94464
20
-4.70221
11
7.00451
21
-4.67363
0
LINE
8
BLACK
6
CONTINUOUS
10
7.00451
20
-4.67363
11
7.06144
21
-4.63956
0
LINE
8
BLACK
6
CONTINUOUS
10
7.06144
20
-4.63956
11
7.11493
21
-4.60032
0
LINE
8
BLACK
6
CONTINUOUS
10
7.11493
20
-4.60032
11
7.1645
21
-4.55623
0
LINE
8
BLACK
6
CONTINUOUS
10
7.1645
20
-4.55623
11
7.20973
21
-4.5077
0
LINE
8
BLACK
6
CONTINUOUS
10
7.20973
20
-4.5077
11
7.25022
21
-4.45515
0
LINE
8
BLACK
6
CONTINUOUS
10
7.25022
20
-4.45515
11
7.28561
21
-4.39904
0
LINE
8
BLACK
6
CONTINUOUS
10
7.28561
20
-4.39904
11
7.31559
21
-4.33986
0
LINE
8
BLACK
6
CONTINUOUS
10
7.31559
20
-4.33986
11
7.3399
21
-4.27813
0
LINE
8
BLACK
6
CONTINUOUS
10
7.3399
20
-4.27813
11
7.35832
21
-4.2144
0
LINE
8
BLACK
6
CONTINUOUS
10
7.35832
20
-4.2144
11
7.37069
21
-4.14922
0
LINE
8
BLACK
6
CONTINUOUS
10
7.37069
20
-4.14922
11
7.3769
21
-4.08317
0
LINE
8
BLACK
6
CONTINUOUS
10
7.3769
20
-4.08317
11
7.3769
21
-4.01683
0
LINE
8
BLACK
6
CONTINUOUS
10
7.3769
20
-4.01683
11
7.37069
21
-3.95078
0
LINE
8
BLACK
6
CONTINUOUS
10
7.37069
20
-3.95078
11
7.35832
21
-3.8856
0
LINE
8
BLACK
6
CONTINUOUS
10
7.35832
20
-3.8856
11
7.3399
21
-3.82187
0
LINE
8
BLACK
6
CONTINUOUS
10
7.3399
20
-3.82187
11
7.31559
21
-3.76014
0
LINE
8
BLACK
6
CONTINUOUS
10
7.31559
20
-3.76014
11
7.28561
21
-3.70096
0
LINE
8
BLACK
6
CONTINUOUS
10
7.28561
20
-3.70096
11
7.25022
21
-3.64485
0
LINE
8
BLACK
6
CONTINUOUS
10
7.25022
20
-3.64485
11
7.20973
21
-3.5923
0
LINE
8
BLACK
6
CONTINUOUS
10
7.20973
20
-3.5923
11
7.1645
21
-3.54377
0
LINE
8
BLACK
6
CONTINUOUS
10
7.1645
20
-3.54377
11
7.11493
21
-3.49968
0
LINE
8
BLACK
6
CONTINUOUS
10
7.11493
20
-3.49968
11
7.06144
21
-3.46044
0
LINE
8
BLACK
6
CONTINUOUS
10
7.06144
20
-3.46044
11
7.00451
21
-3.42637
0
LINE
8
BLACK
6
CONTINUOUS
10
7.00451
20
-3.42637
11
6.94464
21
-3.39779
0
LINE
8
BLACK
6
CONTINUOUS
10
6.94464
20
-3.39779
11
6.88236
21
-3.37494
0
LINE
8
BLACK
6
CONTINUOUS
10
6.88236
20
-3.37494
11
6.81822
21
-3.35802
0
LINE
8
BLACK
6
CONTINUOUS
10
6.81822
20
-3.35802
11
6.75277
21
-3.34718
0
LINE
8
BLACK
6
CONTINUOUS
10
6.75277
20
-3.34718
11
6.68659
21
-3.34252
0
LINE
8
BLACK
6
CONTINUOUS
10
6.68659
20
-3.34252
11
6.62027
21
-3.34407
0
LINE
8
BLACK
6
CONTINUOUS
10
6.62027
20
-3.34407
11
6.55438
21
-3.35183
0
LINE
8
BLACK
6
CONTINUOUS
10
6.55438
20
-3.35183
11
6.48951
21
-3.36573
0
LINE
8
BLACK
6
CONTINUOUS
10
6.48951
20
-3.36573
11
6.42623
21
-3.38563
0
LINE
8
BLACK
6
CONTINUOUS
10
6.42623
20
-3.38563
11
6.36509
21
-3.41138
0
LINE
8
BLACK
6
CONTINUOUS
10
6.36509
20
-3.41138
11
6.30663
21
-3.44274
0
LINE
8
BLACK
6
CONTINUOUS
10
6.30663
20
-3.44274
11
6.25136
21
-3.47943
0
LINE
8
BLACK
6
CONTINUOUS
10
6.25136
20
-3.47943
11
6.19977
21
-3.52114
0
LINE
8
BLACK
6
CONTINUOUS
10
6.19977
20
-3.52114
11
6.15231
21
-3.5675
0
LINE
8
BLACK
6
CONTINUOUS
10
6.15231
20
-3.5675
11
6.1094
21
-3.6181
0
LINE
8
BLACK
6
CONTINUOUS
10
6.1094
20
-3.6181
11
6.07142
21
-3.67249
0
LINE
8
BLACK
6
CONTINUOUS
10
6.07142
20
-3.67249
11
6.0387
21
-3.7302
0
LINE
8
BLACK
6
CONTINUOUS
10
6.0387
20
-3.7302
11
6.01153
21
-3.79072
0
LINE
8
BLACK
6
CONTINUOUS
10
6.01153
20
-3.79072
11
5.99015
21
-3.85352
0
LINE
8
BLACK
6
CONTINUOUS
10
5.99015
20
-3.85352
11
5.97473
21
-3.91805
0
LINE
8
BLACK
6
CONTINUOUS
10
5.97473
20
-3.91805
11
5.96543
21
-3.98373
0
LINE
8
BLACK
6
CONTINUOUS
10
5.96543
20
-3.98373
11
5.96232
21
-4.05
0
LINE
8
BLACK
6
CONTINUOUS
10
5.96232
20
-4.05
11
5.96543
21
-4.11627
0
LINE
8
BLACK
6
CONTINUOUS
10
5.96543
20
-4.11627
11
5.97473
21
-4.18195
0
LINE
8
BLACK
6
CONTINUOUS
10
5.90315
20
-3.12062
11
5.90732
21
-3.11054
0
LINE
8
BLACK
6
CONTINUOUS
10
5.90732
20
-3.11054
11
5.91338
21
-3.10148
0
LINE
8
BLACK
6
CONTINUOUS
10
5.91338
20
-3.10148
11
5.92109
21
-3.09377
0
LINE
8
BLACK
6
CONTINUOUS
10
5.92109
20
-3.09377
11
5.93016
21
-3.08771
0
LINE
8
BLACK
6
CONTINUOUS
10
5.93016
20
-3.08771
11
5.94023
21
-3.08354
0
LINE
8
BLACK
6
CONTINUOUS
10
5.94023
20
-3.08354
11
5.95093
21
-3.08141
0
LINE
8
BLACK
6
CONTINUOUS
10
5.95093
20
-3.08141
11
5.96183
21
-3.08141
0
LINE
8
BLACK
6
CONTINUOUS
10
5.96183
20
-3.08141
11
5.97252
21
-3.08354
0
LINE
8
BLACK
6
CONTINUOUS
10
5.97252
20
-3.08354
11
5.9826
21
-3.08771
0
LINE
8
BLACK
6
CONTINUOUS
10
5.9826
20
-3.08771
11
5.99167
21
-3.09377
0
LINE
8
BLACK
6
CONTINUOUS
10
5.99167
20
-3.09377
11
5.99938
21
-3.10148
0
LINE
8
BLACK
6
CONTINUOUS
10
5.99938
20
-3.10148
11
6.00543
21
-3.11054
0
LINE
8
BLACK
6
CONTINUOUS
10
6.00543
20
-3.11054
11
6.00961
21
-3.12062
0
LINE
8
BLACK
6
CONTINUOUS
10
6.00961
20
-3.12062
11
6.01173
21
-3.13131
0
LINE
8
BLACK
6
CONTINUOUS
10
6.01173
20
-3.13131
11
6.01173
21
-3.14222
0
LINE
8
BLACK
6
CONTINUOUS
10
6.01173
20
-3.14222
11
6.00961
21
-3.15291
0
LINE
8
BLACK
6
CONTINUOUS
10
6.00961
20
-3.15291
11
6.00543
21
-3.16299
0
LINE
8
BLACK
6
CONTINUOUS
10
6.00543
20
-3.16299
11
5.99938
21
-3.17205
0
LINE
8
BLACK
6
CONTINUOUS
10
5.99938
20
-3.17205
11
5.99167
21
-3.17976
0
LINE
8
BLACK
6
CONTINUOUS
10
5.99167
20
-3.17976
11
5.9826
21
-3.18582
0
LINE
8
BLACK
6
CONTINUOUS
10
5.9826
20
-3.18582
11
5.97252
21
-3.18999
0
LINE
8
BLACK
6
CONTINUOUS
10
5.97252
20
-3.18999
11
5.96183
21
-3.19212
0
LINE
8
BLACK
6
CONTINUOUS
10
5.96183
20
-3.19212
11
5.95093
21
-3.19212
0
LINE
8
BLACK
6
CONTINUOUS
10
5.95093
20
-3.19212
11
5.94023
21
-3.18999
0
LINE
8
BLACK
6
CONTINUOUS
10
5.94023
20
-3.18999
11
5.93016
21
-3.18582
0
LINE
8
BLACK
6
CONTINUOUS
10
5.93016
20
-3.18582
11
5.92109
21
-3.17976
0
LINE
8
BLACK
6
CONTINUOUS
10
5.92109
20
-3.17976
11
5.91338
21
-3.17205
0
LINE
8
BLACK
6
CONTINUOUS
10
5.91338
20
-3.17205
11
5.90732
21
-3.16299
0
LINE
8
BLACK
6
CONTINUOUS
10
5.90732
20
-3.16299
11
5.90315
21
-3.15291
0
LINE
8
BLACK
6
CONTINUOUS
10
5.90315
20
-3.15291
11
5.90102
21
-3.14222
0
LINE
8
BLACK
6
CONTINUOUS
10
5.90102
20
-3.14222
11
5.90102
21
-3.13131
0
LINE
8
BLACK
6
CONTINUOUS
10
5.90102
20
-3.13131
11
5.90315
21
-3.12062
0
LINE
8
BLACK
6
CONTINUOUS
10
5.90579
20
-3.15211
11
5.90975
21
-3.16169
0
LINE
8
BLACK
6
CONTINUOUS
10
5.90975
20
-3.16169
11
5.91551
21
-3.1703
0
LINE
8
BLACK
6
CONTINUOUS
10
5.91551
20
-3.1703
11
5.92284
21
-3.17763
0
LINE
8
BLACK
6
CONTINUOUS
10
5.92284
20
-3.17763
11
5.93146
21
-3.18339
0
LINE
8
BLACK
6
CONTINUOUS
10
5.93146
20
-3.18339
11
5.94103
21
-3.18736
0
LINE
8
BLACK
6
CONTINUOUS
10
5.94103
20
-3.18736
11
5.9512
21
-3.18938
0
LINE
8
BLACK
6
CONTINUOUS
10
5.9512
20
-3.18938
11
5.96156
21
-3.18938
0
LINE
8
BLACK
6
CONTINUOUS
10
5.96156
20
-3.18938
11
5.97172
21
-3.18736
0
LINE
8
BLACK
6
CONTINUOUS
10
5.97172
20
-3.18736
11
5.9813
21
-3.18339
0
LINE
8
BLACK
6
CONTINUOUS
10
5.9813
20
-3.18339
11
5.98992
21
-3.17763
0
LINE
8
BLACK
6
CONTINUOUS
10
5.98992
20
-3.17763
11
5.99724
21
-3.1703
0
LINE
8
BLACK
6
CONTINUOUS
10
5.99724
20
-3.1703
11
6.003
21
-3.16169
0
LINE
8
BLACK
6
CONTINUOUS
10
6.003
20
-3.16169
11
6.00697
21
-3.15211
0
LINE
8
BLACK
6
CONTINUOUS
10
6.00697
20
-3.15211
11
6.00899
21
-3.14195
0
LINE
8
BLACK
6
CONTINUOUS
10
6.00899
20
-3.14195
11
6.00899
21
-3.13158
0
LINE
8
BLACK
6
CONTINUOUS
10
6.00899
20
-3.13158
11
6.00697
21
-3.12142
0
LINE
8
BLACK
6
CONTINUOUS
10
6.00697
20
-3.12142
11
6.003
21
-3.11184
0
LINE
8
BLACK
6
CONTINUOUS
10
6.003
20
-3.11184
11
5.99724
21
-3.10323
0
LINE
8
BLACK
6
CONTINUOUS
10
5.99724
20
-3.10323
11
5.98992
21
-3.0959
0
LINE
8
BLACK
6
CONTINUOUS
10
5.98992
20
-3.0959
11
5.9813
21
-3.09014
0
LINE
8
BLACK
6
CONTINUOUS
10
5.9813
20
-3.09014
11
5.97172
21
-3.08617
0
LINE
8
BLACK
6
CONTINUOUS
10
5.97172
20
-3.08617
11
5.96156
21
-3.08415
0
LINE
8
BLACK
6
CONTINUOUS
10
5.96156
20
-3.08415
11
5.9512
21
-3.08415
0
LINE
8
BLACK
6
CONTINUOUS
10
5.9512
20
-3.08415
11
5.94103
21
-3.08617
0
LINE
8
BLACK
6
CONTINUOUS
10
5.94103
20
-3.08617
11
5.93146
21
-3.09014
0
LINE
8
BLACK
6
CONTINUOUS
10
5.93146
20
-3.09014
11
5.92284
21
-3.0959
0
LINE
8
BLACK
6
CONTINUOUS
10
5.92284
20
-3.0959
11
5.91551
21
-3.10323
0
LINE
8
BLACK
6
CONTINUOUS
10
5.91551
20
-3.10323
11
5.90975
21
-3.11184
0
LINE
8
BLACK
6
CONTINUOUS
10
5.90975
20
-3.11184
11
5.90579
21
-3.12142
0
LINE
8
BLACK
6
CONTINUOUS
10
5.90579
20
-3.12142
11
5.90377
21
-3.13158
0
LINE
8
BLACK
6
CONTINUOUS
10
5.90377
20
-3.13158
11
5.90377
21
-3.14195
0
LINE
8
BLACK
6
CONTINUOUS
10
5.90377
20
-3.14195
11
5.90579
21
-3.15211
0
LINE
8
BLACK
6
CONTINUOUS
10
7.32993
20
-3.12034
11
7.3341
21
-3.11026
0
LINE
8
BLACK
6
CONTINUOUS
10
7.3341
20
-3.11026
11
7.34016
21
-3.1012
0
LINE
8
BLACK
6
CONTINUOUS
10
7.34016
20
-3.1012
11
7.34787
21
-3.09349
0
LINE
8
BLACK
6
CONTINUOUS
10
7.34787
20
-3.09349
11
7.35693
21
-3.08743
0
LINE
8
BLACK
6
CONTINUOUS
10
7.35693
20
-3.08743
11
7.36701
21
-3.08325
0
LINE
8
BLACK
6
CONTINUOUS
10
7.36701
20
-3.08325
11
7.3777
21
-3.08113
0
LINE
8
BLACK
6
CONTINUOUS
10
7.3777
20
-3.08113
11
7.38861
21
-3.08113
0
LINE
8
BLACK
6
CONTINUOUS
10
7.38861
20
-3.08113
11
7.3993
21
-3.08325
0
LINE
8
BLACK
6
CONTINUOUS
10
7.3993
20
-3.08325
11
7.40937
21
-3.08743
0
LINE
8
BLACK
6
CONTINUOUS
10
7.40937
20
-3.08743
11
7.41844
21
-3.09349
0
LINE
8
BLACK
6
CONTINUOUS
10
7.41844
20
-3.09349
11
7.42615
21
-3.1012
0
LINE
8
BLACK
6
CONTINUOUS
10
7.42615
20
-3.1012
11
7.43221
21
-3.11026
0
LINE
8
BLACK
6
CONTINUOUS
10
7.43221
20
-3.11026
11
7.43638
21
-3.12034
0
LINE
8
BLACK
6
CONTINUOUS
10
7.43638
20
-3.12034
11
7.43851
21
-3.13103
0
LINE
8
BLACK
6
CONTINUOUS
10
7.43851
20
-3.13103
11
7.43851
21
-3.14193
0
LINE
8
BLACK
6
CONTINUOUS
10
7.43851
20
-3.14193
11
7.43638
21
-3.15263
0
LINE
8
BLACK
6
CONTINUOUS
10
7.43638
20
-3.15263
11
7.43221
21
-3.1627
0
LINE
8
BLACK
6
CONTINUOUS
10
7.43221
20
-3.1627
11
7.42615
21
-3.17177
0
LINE
8
BLACK
6
CONTINUOUS
10
7.42615
20
-3.17177
11
7.41844
21
-3.17948
0
LINE
8
BLACK
6
CONTINUOUS
10
7.41844
20
-3.17948
11
7.40937
21
-3.18554
0
LINE
8
BLACK
6
CONTINUOUS
10
7.40937
20
-3.18554
11
7.3993
21
-3.18971
0
LINE
8
BLACK
6
CONTINUOUS
10
7.3993
20
-3.18971
11
7.38861
21
-3.19184
0
LINE
8
BLACK
6
CONTINUOUS
10
7.38861
20
-3.19184
11
7.3777
21
-3.19184
0
LINE
8
BLACK
6
CONTINUOUS
10
7.3777
20
-3.19184
11
7.36701
21
-3.18971
0
LINE
8
BLACK
6
CONTINUOUS
10
7.36701
20
-3.18971
11
7.35693
21
-3.18554
0
LINE
8
BLACK
6
CONTINUOUS
10
7.35693
20
-3.18554
11
7.34787
21
-3.17948
0
LINE
8
BLACK
6
CONTINUOUS
10
7.34787
20
-3.17948
11
7.34016
21
-3.17177
0
LINE
8
BLACK
6
CONTINUOUS
10
7.34016
20
-3.17177
11
7.3341
21
-3.1627
0
LINE
8
BLACK
6
CONTINUOUS
10
7.3341
20
-3.1627
11
7.32993
21
-3.15263
0
LINE
8
BLACK
6
CONTINUOUS
10
7.32993
20
-3.15263
11
7.3278
21
-3.14193
0
LINE
8
BLACK
6
CONTINUOUS
10
7.3278
20
-3.14193
11
7.3278
21
-3.13103
0
LINE
8
BLACK
6
CONTINUOUS
10
7.3278
20
-3.13103
11
7.32993
21
-3.12034
0
LINE
8
BLACK
6
CONTINUOUS
10
7.33256
20
-3.15183
11
7.33653
21
-3.1614
0
LINE
8
BLACK
6
CONTINUOUS
10
7.33653
20
-3.1614
11
7.34229
21
-3.17002
0
LINE
8
BLACK
6
CONTINUOUS
10
7.34229
20
-3.17002
11
7.34962
21
-3.17735
0
LINE
8
BLACK
6
CONTINUOUS
10
7.34962
20
-3.17735
11
7.35823
21
-3.18311
0
LINE
8
BLACK
6
CONTINUOUS
10
7.35823
20
-3.18311
11
7.36781
21
-3.18707
0
LINE
8
BLACK
6
CONTINUOUS
10
7.36781
20
-3.18707
11
7.37797
21
-3.1891
0
LINE
8
BLACK
6
CONTINUOUS
10
7.37797
20
-3.1891
11
7.38834
21
-3.1891
0
LINE
8
BLACK
6
CONTINUOUS
10
7.38834
20
-3.1891
11
7.3985
21
-3.18707
0
LINE
8
BLACK
6
CONTINUOUS
10
7.3985
20
-3.18707
11
7.40808
21
-3.18311
0
LINE
8
BLACK
6
CONTINUOUS
10
7.40808
20
-3.18311
11
7.41669
21
-3.17735
0
LINE
8
BLACK
6
CONTINUOUS
10
7.41669
20
-3.17735
11
7.42402
21
-3.17002
0
LINE
8
BLACK
6
CONTINUOUS
10
7.42402
20
-3.17002
11
7.42978
21
-3.1614
0
LINE
8
BLACK
6
CONTINUOUS
10
7.42978
20
-3.1614
11
7.43375
21
-3.15183
0
LINE
8
BLACK
6
CONTINUOUS
10
7.43375
20
-3.15183
11
7.43577
21
-3.14166
0
LINE
8
BLACK
6
CONTINUOUS
10
7.43577
20
-3.14166
11
7.43577
21
-3.1313
0
LINE
8
BLACK
6
CONTINUOUS
10
7.43577
20
-3.1313
11
7.43375
21
-3.12114
0
LINE
8
BLACK
6
CONTINUOUS
10
7.43375
20
-3.12114
11
7.42978
21
-3.11156
0
LINE
8
BLACK
6
CONTINUOUS
10
7.42978
20
-3.11156
11
7.42402
21
-3.10294
0
LINE
8
BLACK
6
CONTINUOUS
10
7.42402
20
-3.10294
11
7.41669
21
-3.09562
0
LINE
8
BLACK
6
CONTINUOUS
10
7.41669
20
-3.09562
11
7.40808
21
-3.08986
0
LINE
8
BLACK
6
CONTINUOUS
10
7.40808
20
-3.08986
11
7.3985
21
-3.08589
0
LINE
8
BLACK
6
CONTINUOUS
10
7.3985
20
-3.08589
11
7.38834
21
-3.08387
0
LINE
8
BLACK
6
CONTINUOUS
10
7.38834
20
-3.08387
11
7.37797
21
-3.08387
0
LINE
8
BLACK
6
CONTINUOUS
10
7.37797
20
-3.08387
11
7.36781
21
-3.08589
0
LINE
8
BLACK
6
CONTINUOUS
10
7.36781
20
-3.08589
11
7.35823
21
-3.08986
0
LINE
8
BLACK
6
CONTINUOUS
10
7.35823
20
-3.08986
11
7.34962
21
-3.09562
0
LINE
8
BLACK
6
CONTINUOUS
10
7.34962
20
-3.09562
11
7.34229
21
-3.10294
0
LINE
8
BLACK
6
CONTINUOUS
10
7.34229
20
-3.10294
11
7.33653
21
-3.11156
0
LINE
8
BLACK
6
CONTINUOUS
10
7.33653
20
-3.11156
11
7.33256
21
-3.12114
0
LINE
8
BLACK
6
CONTINUOUS
10
7.33256
20
-3.12114
11
7.33054
21
-3.1313
0
LINE
8
BLACK
6
CONTINUOUS
10
7.33054
20
-3.1313
11
7.33054
21
-3.14166
0
LINE
8
BLACK
6
CONTINUOUS
10
7.33054
20
-3.14166
11
7.33256
21
-3.15183
  0
ENDSEC
  0
EOF
