G04 #@! TF.GenerationSoftware,KiCad,Pcbnew,5.1.4-1.fc30*
G04 #@! TF.CreationDate,2020-05-23T11:21:09+02:00*
G04 #@! TF.ProjectId,ring,72696e67-2e6b-4696-9361-645f70636258,rev?*
G04 #@! TF.SameCoordinates,Original*
G04 #@! TF.FileFunction,Profile,NP*
%FSLAX46Y46*%
G04 Gerber Fmt 4.6, Leading zero omitted, Abs format (unit mm)*
G04 Created by KiCad (PCBNEW 5.1.4-1.fc30) date 2020-05-23 11:21:09*
%MOMM*%
%LPD*%
G04 APERTURE LIST*
%ADD10C,0.050000*%
G04 APERTURE END LIST*
D10*
X147465597Y-77982628D02*
X150240447Y-85417312D01*
X154611117Y-76847168D02*
X147465597Y-77982628D01*
X147477480Y-127764540D02*
X150238001Y-120319999D01*
X154623000Y-128900000D02*
X147477480Y-127764540D01*
X191370403Y-127757372D02*
X188594843Y-120322043D01*
X184224883Y-128892832D02*
X191370403Y-127757372D01*
X184213000Y-76840000D02*
X191358520Y-77975460D01*
X182806116Y-80662833D02*
X184213000Y-76840000D01*
X152671715Y-126073337D02*
G75*
G03X152671715Y-126073337I-1367832J0D01*
G01*
X188911832Y-126066169D02*
G75*
G03X188911832Y-126066169I-1367832J0D01*
G01*
X188899949Y-79666663D02*
G75*
G03X188899949Y-79666663I-1367832J0D01*
G01*
X152659832Y-79673831D02*
G75*
G03X152659832Y-79673831I-1367832J0D01*
G01*
X150240448Y-85417313D02*
G75*
G03X150238001Y-120319999I19177552J-17452687D01*
G01*
X156018001Y-80670001D02*
X154611117Y-76847168D01*
X188594843Y-120322043D02*
G75*
G03X188594500Y-85417580I-19176843J17452043D01*
G01*
X182817999Y-125069999D02*
X184224883Y-128892832D01*
X189733378Y-102870000D02*
G75*
G03X189733378Y-102870000I-20315378J0D01*
G01*
X156029884Y-125077167D02*
X154623000Y-128900000D01*
X156029884Y-125077167D02*
G75*
G03X182817999Y-125069999I13388116J22207167D01*
G01*
X182806116Y-80662833D02*
G75*
G03X156018001Y-80670001I-13388116J-22207167D01*
G01*
X191358520Y-77975460D02*
X188594500Y-85417580D01*
M02*
