G04 #@! TF.GenerationSoftware,KiCad,Pcbnew,5.1.4-1.fc30*
G04 #@! TF.CreationDate,2020-10-18T16:44:40+02:00*
G04 #@! TF.ProjectId,ring,72696e67-2e6b-4696-9361-645f70636258,rev?*
G04 #@! TF.SameCoordinates,Original*
G04 #@! TF.FileFunction,Legend,Top*
G04 #@! TF.FilePolarity,Positive*
%FSLAX46Y46*%
G04 Gerber Fmt 4.6, Leading zero omitted, Abs format (unit mm)*
G04 Created by KiCad (PCBNEW 5.1.4-1.fc30) date 2020-10-18 16:44:40*
%MOMM*%
%LPD*%
G04 APERTURE LIST*
%ADD10C,0.150000*%
%ADD11C,0.300000*%
%ADD12C,0.250000*%
%ADD13C,0.200000*%
G04 APERTURE END LIST*
D10*
X168203714Y-122626380D02*
X168203714Y-121626380D01*
X168537047Y-122340666D01*
X168870380Y-121626380D01*
X168870380Y-122626380D01*
X169346571Y-122626380D02*
X169346571Y-121626380D01*
X169441809Y-122245428D02*
X169727523Y-122626380D01*
X169727523Y-121959714D02*
X169346571Y-122340666D01*
X170632285Y-121626380D02*
X170156095Y-121626380D01*
X170108476Y-122102571D01*
X170156095Y-122054952D01*
X170251333Y-122007333D01*
X170489428Y-122007333D01*
X170584666Y-122054952D01*
X170632285Y-122102571D01*
X170679904Y-122197809D01*
X170679904Y-122435904D01*
X170632285Y-122531142D01*
X170584666Y-122578761D01*
X170489428Y-122626380D01*
X170251333Y-122626380D01*
X170156095Y-122578761D01*
X170108476Y-122531142D01*
X194357647Y-102870000D02*
G75*
G03X194357647Y-102870000I-24939647J0D01*
G01*
D11*
X165168000Y-81633142D02*
X165382285Y-81704571D01*
X165739428Y-81704571D01*
X165882285Y-81633142D01*
X165953714Y-81561714D01*
X166025142Y-81418857D01*
X166025142Y-81276000D01*
X165953714Y-81133142D01*
X165882285Y-81061714D01*
X165739428Y-80990285D01*
X165453714Y-80918857D01*
X165310857Y-80847428D01*
X165239428Y-80776000D01*
X165168000Y-80633142D01*
X165168000Y-80490285D01*
X165239428Y-80347428D01*
X165310857Y-80276000D01*
X165453714Y-80204571D01*
X165810857Y-80204571D01*
X166025142Y-80276000D01*
X166525142Y-80704571D02*
X166882285Y-81704571D01*
X167239428Y-80704571D02*
X166882285Y-81704571D01*
X166739428Y-82061714D01*
X166668000Y-82133142D01*
X166525142Y-82204571D01*
X167810857Y-80704571D02*
X167810857Y-81704571D01*
X167810857Y-80847428D02*
X167882285Y-80776000D01*
X168025142Y-80704571D01*
X168239428Y-80704571D01*
X168382285Y-80776000D01*
X168453714Y-80918857D01*
X168453714Y-81704571D01*
X170025142Y-81561714D02*
X169953714Y-81633142D01*
X169739428Y-81704571D01*
X169596571Y-81704571D01*
X169382285Y-81633142D01*
X169239428Y-81490285D01*
X169168000Y-81347428D01*
X169096571Y-81061714D01*
X169096571Y-80847428D01*
X169168000Y-80561714D01*
X169239428Y-80418857D01*
X169382285Y-80276000D01*
X169596571Y-80204571D01*
X169739428Y-80204571D01*
X169953714Y-80276000D01*
X170025142Y-80347428D01*
X170668000Y-81704571D02*
X170668000Y-80204571D01*
X171310857Y-81704571D02*
X171310857Y-80918857D01*
X171239428Y-80776000D01*
X171096571Y-80704571D01*
X170882285Y-80704571D01*
X170739428Y-80776000D01*
X170668000Y-80847428D01*
X172025142Y-81704571D02*
X172025142Y-80704571D01*
X172025142Y-80990285D02*
X172096571Y-80847428D01*
X172168000Y-80776000D01*
X172310857Y-80704571D01*
X172453714Y-80704571D01*
X173168000Y-81704571D02*
X173025142Y-81633142D01*
X172953714Y-81561714D01*
X172882285Y-81418857D01*
X172882285Y-80990285D01*
X172953714Y-80847428D01*
X173025142Y-80776000D01*
X173168000Y-80704571D01*
X173382285Y-80704571D01*
X173525142Y-80776000D01*
X173596571Y-80847428D01*
X173668000Y-80990285D01*
X173668000Y-81418857D01*
X173596571Y-81561714D01*
X173525142Y-81633142D01*
X173382285Y-81704571D01*
X173168000Y-81704571D01*
X147726791Y-102859840D02*
X146226791Y-102859840D01*
D12*
X145266231Y-102872540D02*
X145456707Y-102682063D01*
X145647183Y-102872540D01*
X145456707Y-103063016D01*
X145266231Y-102872540D01*
X145647183Y-102872540D01*
D11*
X158583825Y-121677779D02*
X157833825Y-122976818D01*
D12*
X157527714Y-123451819D02*
X157597433Y-123712014D01*
X157337238Y-123781733D01*
X157267518Y-123521538D01*
X157527714Y-123451819D01*
X157337238Y-123781733D01*
D11*
X180259794Y-121672699D02*
X181009794Y-122971738D01*
D12*
X181559000Y-123541065D02*
X181489281Y-123801261D01*
X181229086Y-123731541D01*
X181298805Y-123471346D01*
X181559000Y-123541065D01*
X181229086Y-123731541D01*
D11*
X158601605Y-84067300D02*
X157851605Y-82768261D01*
D12*
X157366245Y-81950759D02*
X157626441Y-82020478D01*
X157556721Y-82280673D01*
X157296526Y-82210954D01*
X157366245Y-81950759D01*
X157556721Y-82280673D01*
D10*
X174228684Y-125579604D02*
X174436596Y-126557752D01*
X171821813Y-125953197D02*
X171926341Y-126947719D01*
X183050977Y-121653076D02*
X183638762Y-122462093D01*
X186678935Y-118391498D02*
X187422080Y-119060628D01*
X184947118Y-120133475D02*
X185616248Y-120876620D01*
X192498657Y-105276353D02*
X193493179Y-105380881D01*
X176588326Y-124954320D02*
X176897343Y-125905376D01*
X178840280Y-124082289D02*
X179247016Y-124995834D01*
X192117444Y-107683224D02*
X193095592Y-107891136D01*
X191497240Y-110037786D02*
X192448296Y-110346803D01*
X190630289Y-112297360D02*
X191543834Y-112704096D01*
X188198536Y-116513137D02*
X189007553Y-117100922D01*
X146708395Y-107680684D02*
X145730247Y-107888596D01*
X146334802Y-105273813D02*
X145340280Y-105378341D01*
X150634923Y-116502977D02*
X149825906Y-117090762D01*
X153896501Y-120130935D02*
X153227371Y-120874080D01*
X152154524Y-118399118D02*
X151411379Y-119068248D01*
X167011646Y-125950657D02*
X166907118Y-126945179D01*
X147333679Y-110040326D02*
X146382623Y-110349343D01*
X148205710Y-112292280D02*
X147292165Y-112699016D01*
X164604775Y-125569444D02*
X164396863Y-126547592D01*
X162250213Y-124949240D02*
X161941196Y-125900296D01*
X159990639Y-124082289D02*
X159583903Y-124995834D01*
X155774862Y-121650536D02*
X155187077Y-122459553D01*
X164607315Y-80160395D02*
X164399403Y-79182247D01*
X167014186Y-79786802D02*
X166909658Y-78792280D01*
X155785022Y-84086923D02*
X155197237Y-83277906D01*
X152157064Y-87348501D02*
X151413919Y-86679371D01*
X153888881Y-85606524D02*
X153219751Y-84863379D01*
X146337342Y-100463646D02*
X145342820Y-100359118D01*
X162247673Y-80785679D02*
X161938656Y-79834623D01*
X159995719Y-81657710D02*
X159588983Y-80744165D01*
X146718555Y-98056775D02*
X145740407Y-97848863D01*
X147338759Y-95702213D02*
X146387703Y-95393196D01*
X148205710Y-93442639D02*
X147292165Y-93035903D01*
X150637463Y-89226862D02*
X149828446Y-88639077D01*
D12*
X169412920Y-126640411D02*
X169603396Y-126830887D01*
X169412920Y-127021363D01*
X169222443Y-126830887D01*
X169412920Y-126640411D01*
X169412920Y-127021363D01*
X190342320Y-114931914D02*
X190082125Y-115001633D01*
X190012406Y-114741438D01*
X190272601Y-114671718D01*
X190342320Y-114931914D01*
X190012406Y-114741438D01*
X148486059Y-90792845D02*
X148746254Y-90723126D01*
X148815973Y-90983321D01*
X148555778Y-91053041D01*
X148486059Y-90792845D01*
X148815973Y-90983321D01*
X148506379Y-114924294D02*
X148576098Y-114664098D01*
X148836293Y-114733818D01*
X148766574Y-114994013D01*
X148506379Y-114924294D01*
X148836293Y-114733818D01*
D11*
X169804032Y-124547891D02*
X169423080Y-124547891D01*
X169232603Y-124619320D01*
X169137365Y-124690748D01*
X168946889Y-124905034D01*
X168851651Y-125190748D01*
X168851651Y-125762177D01*
X168946889Y-125905034D01*
X169042127Y-125976462D01*
X169232603Y-126047891D01*
X169613556Y-126047891D01*
X169804032Y-125976462D01*
X169899270Y-125905034D01*
X169994508Y-125762177D01*
X169994508Y-125405034D01*
X169899270Y-125262177D01*
X169804032Y-125190748D01*
X169613556Y-125119320D01*
X169232603Y-125119320D01*
X169042127Y-125190748D01*
X168946889Y-125262177D01*
X168851651Y-125405034D01*
X150503194Y-92603711D02*
X149531765Y-92603711D01*
X150017480Y-92603711D02*
X150017480Y-91103711D01*
X149855575Y-91317997D01*
X149693670Y-91460854D01*
X149531765Y-91532282D01*
X191109208Y-102880160D02*
X192609208Y-102880160D01*
X189130892Y-113828711D02*
X189130892Y-114828711D01*
X188654701Y-113257282D02*
X188178511Y-114328711D01*
X189416606Y-114328711D01*
X188206451Y-90880808D02*
X188301689Y-90809380D01*
X188492165Y-90737951D01*
X188968356Y-90737951D01*
X189158832Y-90809380D01*
X189254070Y-90880808D01*
X189349308Y-91023665D01*
X189349308Y-91166522D01*
X189254070Y-91380808D01*
X188111213Y-92237951D01*
X189349308Y-92237951D01*
X180269954Y-84092700D02*
X181019954Y-82793661D01*
X149915903Y-114012208D02*
X149725427Y-113940780D01*
X149630189Y-113869351D01*
X149534951Y-113726494D01*
X149534951Y-113655065D01*
X149630189Y-113512208D01*
X149725427Y-113440780D01*
X149915903Y-113369351D01*
X150296856Y-113369351D01*
X150487332Y-113440780D01*
X150582570Y-113512208D01*
X150677808Y-113655065D01*
X150677808Y-113726494D01*
X150582570Y-113869351D01*
X150487332Y-113940780D01*
X150296856Y-114012208D01*
X149915903Y-114012208D01*
X149725427Y-114083637D01*
X149630189Y-114155065D01*
X149534951Y-114297922D01*
X149534951Y-114583637D01*
X149630189Y-114726494D01*
X149725427Y-114797922D01*
X149915903Y-114869351D01*
X150296856Y-114869351D01*
X150487332Y-114797922D01*
X150582570Y-114726494D01*
X150677808Y-114583637D01*
X150677808Y-114297922D01*
X150582570Y-114155065D01*
X150487332Y-114083637D01*
X150296856Y-114012208D01*
D10*
X188201076Y-89237022D02*
X189010093Y-88649237D01*
X191502320Y-95699673D02*
X192453376Y-95390656D01*
X192501197Y-100466186D02*
X193495719Y-100361658D01*
X186681475Y-87340881D02*
X187424620Y-86671751D01*
X184939498Y-85609064D02*
X185608628Y-84865919D01*
X192127604Y-98059315D02*
X193105752Y-97851403D01*
X190630289Y-93447719D02*
X191543834Y-93040983D01*
D12*
X193569768Y-102867460D02*
X193379292Y-103057936D01*
X193188816Y-102867460D01*
X193379292Y-102676983D01*
X193569768Y-102867460D01*
X193188816Y-102867460D01*
D10*
X171824353Y-79789342D02*
X171928881Y-78794820D01*
X174231224Y-80170555D02*
X174439136Y-79192407D01*
X176585786Y-80790759D02*
X176894803Y-79839703D01*
X178845360Y-81657710D02*
X179252096Y-80744165D01*
D12*
X181495154Y-81943139D02*
X181564873Y-82203334D01*
X181304678Y-82273053D01*
X181234958Y-82012858D01*
X181495154Y-81943139D01*
X181304678Y-82273053D01*
X169418000Y-78713151D02*
X169608476Y-78903627D01*
X169418000Y-79094103D01*
X169227523Y-78903627D01*
X169418000Y-78713151D01*
X169418000Y-79094103D01*
D10*
X183061137Y-84089463D02*
X183648922Y-83280446D01*
X189679580Y-102870000D02*
G75*
G03X189679580Y-102870000I-20261580J0D01*
G01*
D13*
X151059207Y-90975897D02*
X151221112Y-90975897D01*
X151383017Y-91033040D01*
X151463969Y-91090182D01*
X151544921Y-91204468D01*
X151625874Y-91433040D01*
X151625874Y-91718754D01*
X151544921Y-91947325D01*
X151463969Y-92061611D01*
X151383017Y-92118754D01*
X151221112Y-92175897D01*
X151059207Y-92175897D01*
X150897302Y-92118754D01*
X150816350Y-92061611D01*
X150735398Y-91947325D01*
X150654445Y-91718754D01*
X150654445Y-91433040D01*
X150735398Y-91204468D01*
X150816350Y-91090182D01*
X150897302Y-91033040D01*
X151059207Y-90975897D01*
D12*
X190339780Y-90795385D02*
X190270061Y-91055581D01*
X190009866Y-90985861D01*
X190079585Y-90725666D01*
X190339780Y-90795385D01*
X190009866Y-90985861D01*
M02*
