G04 #@! TF.GenerationSoftware,KiCad,Pcbnew,5.1.4-1.fc30*
G04 #@! TF.CreationDate,2020-10-18T16:44:40+02:00*
G04 #@! TF.ProjectId,ring,72696e67-2e6b-4696-9361-645f70636258,rev?*
G04 #@! TF.SameCoordinates,Original*
G04 #@! TF.FileFunction,Profile,NP*
%FSLAX46Y46*%
G04 Gerber Fmt 4.6, Leading zero omitted, Abs format (unit mm)*
G04 Created by KiCad (PCBNEW 5.1.4-1.fc30) date 2020-10-18 16:44:40*
%MOMM*%
%LPD*%
G04 APERTURE LIST*
%ADD10C,0.050000*%
G04 APERTURE END LIST*
D10*
X156866000Y-128890000D02*
X151780000Y-128890000D01*
X151780000Y-128890000D02*
X148640000Y-118390000D01*
X181970000Y-128890000D02*
X187056000Y-128890000D01*
X187056000Y-128890000D02*
X190196000Y-118390000D01*
X181970000Y-76850000D02*
X187056000Y-76850000D01*
X187056000Y-76850000D02*
X190196000Y-87350000D01*
X156870000Y-80170000D02*
X156866000Y-76850000D01*
X156866000Y-76850000D02*
X151780000Y-76850000D01*
X151780000Y-76850000D02*
X148639999Y-87350002D01*
X156861407Y-125557458D02*
X156866000Y-128890000D01*
X181970000Y-125560000D02*
X181970000Y-128890000D01*
X181969063Y-80171694D02*
X181970000Y-76850000D01*
X154671715Y-126073337D02*
G75*
G03X154671715Y-126073337I-1367832J0D01*
G01*
X186911832Y-126066169D02*
G75*
G03X186911832Y-126066169I-1367832J0D01*
G01*
X186899949Y-79666663D02*
G75*
G03X186899949Y-79666663I-1367832J0D01*
G01*
X154659832Y-79673831D02*
G75*
G03X154659832Y-79673831I-1367832J0D01*
G01*
X148639998Y-87350002D02*
G75*
G03X148640000Y-118390000I20778002J-15519998D01*
G01*
X190196000Y-118390000D02*
G75*
G03X190196000Y-87350000I-20778000J15520000D01*
G01*
X187418000Y-102870000D02*
G75*
G03X187418000Y-102870000I-18000000J0D01*
G01*
X156861407Y-125557458D02*
G75*
G03X181970000Y-125560000I12556593J22687458D01*
G01*
X181969063Y-80171694D02*
G75*
G03X156870000Y-80170000I-12551063J-22698306D01*
G01*
M02*
