G04 #@! TF.GenerationSoftware,KiCad,Pcbnew,5.1.4-1.fc30*
G04 #@! TF.CreationDate,2020-10-18T16:45:13+02:00*
G04 #@! TF.ProjectId,base,62617365-2e6b-4696-9361-645f70636258,rev?*
G04 #@! TF.SameCoordinates,Original*
G04 #@! TF.FileFunction,Profile,NP*
%FSLAX46Y46*%
G04 Gerber Fmt 4.6, Leading zero omitted, Abs format (unit mm)*
G04 Created by KiCad (PCBNEW 5.1.4-1.fc30) date 2020-10-18 16:45:13*
%MOMM*%
%LPD*%
G04 APERTURE LIST*
%ADD10C,0.050000*%
G04 APERTURE END LIST*
D10*
X234168000Y-99490000D02*
X237308000Y-88990000D01*
X234168000Y-47450000D02*
X237308000Y-57950000D01*
X229082000Y-47450000D02*
X234168000Y-47450000D01*
X198892000Y-99490000D02*
X195752000Y-88990000D01*
X229082000Y-99490000D02*
X198892000Y-99490000D01*
X229082000Y-47450000D02*
X198892000Y-47450000D01*
X198892000Y-47450000D02*
X195751999Y-57950002D01*
X229082000Y-99490000D02*
X234168000Y-99490000D01*
X237308000Y-88990000D02*
G75*
G03X237308000Y-57950000I-20778000J15520000D01*
G01*
X195751998Y-57950002D02*
G75*
G03X195752000Y-88990000I20778002J-15519998D01*
G01*
X201783715Y-96673337D02*
G75*
G03X201783715Y-96673337I-1367832J0D01*
G01*
X234023832Y-96666169D02*
G75*
G03X234023832Y-96666169I-1367832J0D01*
G01*
X234011949Y-50266663D02*
G75*
G03X234011949Y-50266663I-1367832J0D01*
G01*
X201771832Y-50273831D02*
G75*
G03X201771832Y-50273831I-1367832J0D01*
G01*
X204030000Y-51970000D02*
X229030000Y-51970000D01*
X229030000Y-49970000D02*
X229030000Y-51970000D01*
X204030000Y-51970000D02*
X204030000Y-49970000D01*
X229030000Y-49970000D02*
X204030000Y-49970000D01*
X229030000Y-94970000D02*
X204030000Y-94970000D01*
X229030000Y-94970000D02*
X229030000Y-96970000D01*
X204030000Y-96970000D02*
X229030000Y-96970000D01*
X204030000Y-96970000D02*
X204030000Y-94970000D01*
M02*
