G04 #@! TF.GenerationSoftware,KiCad,Pcbnew,5.1.4-1.fc30*
G04 #@! TF.CreationDate,2019-10-04T18:02:02+02:00*
G04 #@! TF.ProjectId,synchro2,73796e63-6872-46f3-922e-6b696361645f,rev?*
G04 #@! TF.SameCoordinates,Original*
G04 #@! TF.FileFunction,Copper,L2,Bot*
G04 #@! TF.FilePolarity,Positive*
%FSLAX46Y46*%
G04 Gerber Fmt 4.6, Leading zero omitted, Abs format (unit mm)*
G04 Created by KiCad (PCBNEW 5.1.4-1.fc30) date 2019-10-04 18:02:02*
%MOMM*%
%LPD*%
G04 APERTURE LIST*
%ADD10R,0.900000X0.800000*%
%ADD11R,1.060000X0.650000*%
%ADD12C,1.700000*%
%ADD13C,1.700000*%
%ADD14C,0.100000*%
%ADD15C,3.025000*%
%ADD16C,0.875000*%
%ADD17C,1.525000*%
%ADD18R,0.800000X0.900000*%
%ADD19C,1.500000*%
%ADD20C,0.400000*%
%ADD21C,0.254000*%
G04 APERTURE END LIST*
D10*
X227200000Y-103300000D03*
X229200000Y-104250000D03*
X229200000Y-102350000D03*
D11*
X211640000Y-128970000D03*
X211640000Y-127070000D03*
X209440000Y-127070000D03*
X209440000Y-128020000D03*
X209440000Y-128970000D03*
D12*
X205996051Y-110596051D03*
D13*
X205996051Y-110596051D02*
X205996051Y-110596051D01*
D12*
X204200000Y-108800000D03*
D14*
G36*
X204200000Y-110002082D02*
G01*
X202997918Y-108800000D01*
X204200000Y-107597918D01*
X205402082Y-108800000D01*
X204200000Y-110002082D01*
X204200000Y-110002082D01*
G37*
G36*
X221099503Y-102901204D02*
G01*
X221123772Y-102904804D01*
X221147570Y-102910765D01*
X221170670Y-102919030D01*
X221192849Y-102929520D01*
X221213892Y-102942133D01*
X221233598Y-102956748D01*
X221251776Y-102973224D01*
X221268252Y-102991402D01*
X221282867Y-103011108D01*
X221295480Y-103032151D01*
X221305970Y-103054330D01*
X221314235Y-103077430D01*
X221320196Y-103101228D01*
X221323796Y-103125497D01*
X221325000Y-103150001D01*
X221325000Y-105674999D01*
X221323796Y-105699503D01*
X221320196Y-105723772D01*
X221314235Y-105747570D01*
X221305970Y-105770670D01*
X221295480Y-105792849D01*
X221282867Y-105813892D01*
X221268252Y-105833598D01*
X221251776Y-105851776D01*
X221233598Y-105868252D01*
X221213892Y-105882867D01*
X221192849Y-105895480D01*
X221170670Y-105905970D01*
X221147570Y-105914235D01*
X221123772Y-105920196D01*
X221099503Y-105923796D01*
X221074999Y-105925000D01*
X217125001Y-105925000D01*
X217100497Y-105923796D01*
X217076228Y-105920196D01*
X217052430Y-105914235D01*
X217029330Y-105905970D01*
X217007151Y-105895480D01*
X216986108Y-105882867D01*
X216966402Y-105868252D01*
X216948224Y-105851776D01*
X216931748Y-105833598D01*
X216917133Y-105813892D01*
X216904520Y-105792849D01*
X216894030Y-105770670D01*
X216885765Y-105747570D01*
X216879804Y-105723772D01*
X216876204Y-105699503D01*
X216875000Y-105674999D01*
X216875000Y-103150001D01*
X216876204Y-103125497D01*
X216879804Y-103101228D01*
X216885765Y-103077430D01*
X216894030Y-103054330D01*
X216904520Y-103032151D01*
X216917133Y-103011108D01*
X216931748Y-102991402D01*
X216948224Y-102973224D01*
X216966402Y-102956748D01*
X216986108Y-102942133D01*
X217007151Y-102929520D01*
X217029330Y-102919030D01*
X217052430Y-102910765D01*
X217076228Y-102904804D01*
X217100497Y-102901204D01*
X217125001Y-102900000D01*
X221074999Y-102900000D01*
X221099503Y-102901204D01*
X221099503Y-102901204D01*
G37*
D15*
X219100000Y-104412500D03*
D14*
G36*
X221099503Y-97876204D02*
G01*
X221123772Y-97879804D01*
X221147570Y-97885765D01*
X221170670Y-97894030D01*
X221192849Y-97904520D01*
X221213892Y-97917133D01*
X221233598Y-97931748D01*
X221251776Y-97948224D01*
X221268252Y-97966402D01*
X221282867Y-97986108D01*
X221295480Y-98007151D01*
X221305970Y-98029330D01*
X221314235Y-98052430D01*
X221320196Y-98076228D01*
X221323796Y-98100497D01*
X221325000Y-98125001D01*
X221325000Y-100649999D01*
X221323796Y-100674503D01*
X221320196Y-100698772D01*
X221314235Y-100722570D01*
X221305970Y-100745670D01*
X221295480Y-100767849D01*
X221282867Y-100788892D01*
X221268252Y-100808598D01*
X221251776Y-100826776D01*
X221233598Y-100843252D01*
X221213892Y-100857867D01*
X221192849Y-100870480D01*
X221170670Y-100880970D01*
X221147570Y-100889235D01*
X221123772Y-100895196D01*
X221099503Y-100898796D01*
X221074999Y-100900000D01*
X217125001Y-100900000D01*
X217100497Y-100898796D01*
X217076228Y-100895196D01*
X217052430Y-100889235D01*
X217029330Y-100880970D01*
X217007151Y-100870480D01*
X216986108Y-100857867D01*
X216966402Y-100843252D01*
X216948224Y-100826776D01*
X216931748Y-100808598D01*
X216917133Y-100788892D01*
X216904520Y-100767849D01*
X216894030Y-100745670D01*
X216885765Y-100722570D01*
X216879804Y-100698772D01*
X216876204Y-100674503D01*
X216875000Y-100649999D01*
X216875000Y-98125001D01*
X216876204Y-98100497D01*
X216879804Y-98076228D01*
X216885765Y-98052430D01*
X216894030Y-98029330D01*
X216904520Y-98007151D01*
X216917133Y-97986108D01*
X216931748Y-97966402D01*
X216948224Y-97948224D01*
X216966402Y-97931748D01*
X216986108Y-97917133D01*
X217007151Y-97904520D01*
X217029330Y-97894030D01*
X217052430Y-97885765D01*
X217076228Y-97879804D01*
X217100497Y-97876204D01*
X217125001Y-97875000D01*
X221074999Y-97875000D01*
X221099503Y-97876204D01*
X221099503Y-97876204D01*
G37*
D15*
X219100000Y-99387500D03*
D14*
G36*
X232927691Y-103556053D02*
G01*
X232948926Y-103559203D01*
X232969750Y-103564419D01*
X232989962Y-103571651D01*
X233009368Y-103580830D01*
X233027781Y-103591866D01*
X233045024Y-103604654D01*
X233060930Y-103619070D01*
X233075346Y-103634976D01*
X233088134Y-103652219D01*
X233099170Y-103670632D01*
X233108349Y-103690038D01*
X233115581Y-103710250D01*
X233120797Y-103731074D01*
X233123947Y-103752309D01*
X233125000Y-103773750D01*
X233125000Y-104286250D01*
X233123947Y-104307691D01*
X233120797Y-104328926D01*
X233115581Y-104349750D01*
X233108349Y-104369962D01*
X233099170Y-104389368D01*
X233088134Y-104407781D01*
X233075346Y-104425024D01*
X233060930Y-104440930D01*
X233045024Y-104455346D01*
X233027781Y-104468134D01*
X233009368Y-104479170D01*
X232989962Y-104488349D01*
X232969750Y-104495581D01*
X232948926Y-104500797D01*
X232927691Y-104503947D01*
X232906250Y-104505000D01*
X232468750Y-104505000D01*
X232447309Y-104503947D01*
X232426074Y-104500797D01*
X232405250Y-104495581D01*
X232385038Y-104488349D01*
X232365632Y-104479170D01*
X232347219Y-104468134D01*
X232329976Y-104455346D01*
X232314070Y-104440930D01*
X232299654Y-104425024D01*
X232286866Y-104407781D01*
X232275830Y-104389368D01*
X232266651Y-104369962D01*
X232259419Y-104349750D01*
X232254203Y-104328926D01*
X232251053Y-104307691D01*
X232250000Y-104286250D01*
X232250000Y-103773750D01*
X232251053Y-103752309D01*
X232254203Y-103731074D01*
X232259419Y-103710250D01*
X232266651Y-103690038D01*
X232275830Y-103670632D01*
X232286866Y-103652219D01*
X232299654Y-103634976D01*
X232314070Y-103619070D01*
X232329976Y-103604654D01*
X232347219Y-103591866D01*
X232365632Y-103580830D01*
X232385038Y-103571651D01*
X232405250Y-103564419D01*
X232426074Y-103559203D01*
X232447309Y-103556053D01*
X232468750Y-103555000D01*
X232906250Y-103555000D01*
X232927691Y-103556053D01*
X232927691Y-103556053D01*
G37*
D16*
X232687500Y-104030000D03*
D14*
G36*
X231352691Y-103556053D02*
G01*
X231373926Y-103559203D01*
X231394750Y-103564419D01*
X231414962Y-103571651D01*
X231434368Y-103580830D01*
X231452781Y-103591866D01*
X231470024Y-103604654D01*
X231485930Y-103619070D01*
X231500346Y-103634976D01*
X231513134Y-103652219D01*
X231524170Y-103670632D01*
X231533349Y-103690038D01*
X231540581Y-103710250D01*
X231545797Y-103731074D01*
X231548947Y-103752309D01*
X231550000Y-103773750D01*
X231550000Y-104286250D01*
X231548947Y-104307691D01*
X231545797Y-104328926D01*
X231540581Y-104349750D01*
X231533349Y-104369962D01*
X231524170Y-104389368D01*
X231513134Y-104407781D01*
X231500346Y-104425024D01*
X231485930Y-104440930D01*
X231470024Y-104455346D01*
X231452781Y-104468134D01*
X231434368Y-104479170D01*
X231414962Y-104488349D01*
X231394750Y-104495581D01*
X231373926Y-104500797D01*
X231352691Y-104503947D01*
X231331250Y-104505000D01*
X230893750Y-104505000D01*
X230872309Y-104503947D01*
X230851074Y-104500797D01*
X230830250Y-104495581D01*
X230810038Y-104488349D01*
X230790632Y-104479170D01*
X230772219Y-104468134D01*
X230754976Y-104455346D01*
X230739070Y-104440930D01*
X230724654Y-104425024D01*
X230711866Y-104407781D01*
X230700830Y-104389368D01*
X230691651Y-104369962D01*
X230684419Y-104349750D01*
X230679203Y-104328926D01*
X230676053Y-104307691D01*
X230675000Y-104286250D01*
X230675000Y-103773750D01*
X230676053Y-103752309D01*
X230679203Y-103731074D01*
X230684419Y-103710250D01*
X230691651Y-103690038D01*
X230700830Y-103670632D01*
X230711866Y-103652219D01*
X230724654Y-103634976D01*
X230739070Y-103619070D01*
X230754976Y-103604654D01*
X230772219Y-103591866D01*
X230790632Y-103580830D01*
X230810038Y-103571651D01*
X230830250Y-103564419D01*
X230851074Y-103559203D01*
X230872309Y-103556053D01*
X230893750Y-103555000D01*
X231331250Y-103555000D01*
X231352691Y-103556053D01*
X231352691Y-103556053D01*
G37*
D16*
X231112500Y-104030000D03*
D14*
G36*
X207657691Y-127571053D02*
G01*
X207678926Y-127574203D01*
X207699750Y-127579419D01*
X207719962Y-127586651D01*
X207739368Y-127595830D01*
X207757781Y-127606866D01*
X207775024Y-127619654D01*
X207790930Y-127634070D01*
X207805346Y-127649976D01*
X207818134Y-127667219D01*
X207829170Y-127685632D01*
X207838349Y-127705038D01*
X207845581Y-127725250D01*
X207850797Y-127746074D01*
X207853947Y-127767309D01*
X207855000Y-127788750D01*
X207855000Y-128226250D01*
X207853947Y-128247691D01*
X207850797Y-128268926D01*
X207845581Y-128289750D01*
X207838349Y-128309962D01*
X207829170Y-128329368D01*
X207818134Y-128347781D01*
X207805346Y-128365024D01*
X207790930Y-128380930D01*
X207775024Y-128395346D01*
X207757781Y-128408134D01*
X207739368Y-128419170D01*
X207719962Y-128428349D01*
X207699750Y-128435581D01*
X207678926Y-128440797D01*
X207657691Y-128443947D01*
X207636250Y-128445000D01*
X207123750Y-128445000D01*
X207102309Y-128443947D01*
X207081074Y-128440797D01*
X207060250Y-128435581D01*
X207040038Y-128428349D01*
X207020632Y-128419170D01*
X207002219Y-128408134D01*
X206984976Y-128395346D01*
X206969070Y-128380930D01*
X206954654Y-128365024D01*
X206941866Y-128347781D01*
X206930830Y-128329368D01*
X206921651Y-128309962D01*
X206914419Y-128289750D01*
X206909203Y-128268926D01*
X206906053Y-128247691D01*
X206905000Y-128226250D01*
X206905000Y-127788750D01*
X206906053Y-127767309D01*
X206909203Y-127746074D01*
X206914419Y-127725250D01*
X206921651Y-127705038D01*
X206930830Y-127685632D01*
X206941866Y-127667219D01*
X206954654Y-127649976D01*
X206969070Y-127634070D01*
X206984976Y-127619654D01*
X207002219Y-127606866D01*
X207020632Y-127595830D01*
X207040038Y-127586651D01*
X207060250Y-127579419D01*
X207081074Y-127574203D01*
X207102309Y-127571053D01*
X207123750Y-127570000D01*
X207636250Y-127570000D01*
X207657691Y-127571053D01*
X207657691Y-127571053D01*
G37*
D16*
X207380000Y-128007500D03*
D14*
G36*
X207657691Y-125996053D02*
G01*
X207678926Y-125999203D01*
X207699750Y-126004419D01*
X207719962Y-126011651D01*
X207739368Y-126020830D01*
X207757781Y-126031866D01*
X207775024Y-126044654D01*
X207790930Y-126059070D01*
X207805346Y-126074976D01*
X207818134Y-126092219D01*
X207829170Y-126110632D01*
X207838349Y-126130038D01*
X207845581Y-126150250D01*
X207850797Y-126171074D01*
X207853947Y-126192309D01*
X207855000Y-126213750D01*
X207855000Y-126651250D01*
X207853947Y-126672691D01*
X207850797Y-126693926D01*
X207845581Y-126714750D01*
X207838349Y-126734962D01*
X207829170Y-126754368D01*
X207818134Y-126772781D01*
X207805346Y-126790024D01*
X207790930Y-126805930D01*
X207775024Y-126820346D01*
X207757781Y-126833134D01*
X207739368Y-126844170D01*
X207719962Y-126853349D01*
X207699750Y-126860581D01*
X207678926Y-126865797D01*
X207657691Y-126868947D01*
X207636250Y-126870000D01*
X207123750Y-126870000D01*
X207102309Y-126868947D01*
X207081074Y-126865797D01*
X207060250Y-126860581D01*
X207040038Y-126853349D01*
X207020632Y-126844170D01*
X207002219Y-126833134D01*
X206984976Y-126820346D01*
X206969070Y-126805930D01*
X206954654Y-126790024D01*
X206941866Y-126772781D01*
X206930830Y-126754368D01*
X206921651Y-126734962D01*
X206914419Y-126714750D01*
X206909203Y-126693926D01*
X206906053Y-126672691D01*
X206905000Y-126651250D01*
X206905000Y-126213750D01*
X206906053Y-126192309D01*
X206909203Y-126171074D01*
X206914419Y-126150250D01*
X206921651Y-126130038D01*
X206930830Y-126110632D01*
X206941866Y-126092219D01*
X206954654Y-126074976D01*
X206969070Y-126059070D01*
X206984976Y-126044654D01*
X207002219Y-126031866D01*
X207020632Y-126020830D01*
X207040038Y-126011651D01*
X207060250Y-126004419D01*
X207081074Y-125999203D01*
X207102309Y-125996053D01*
X207123750Y-125995000D01*
X207636250Y-125995000D01*
X207657691Y-125996053D01*
X207657691Y-125996053D01*
G37*
D16*
X207380000Y-126432500D03*
D14*
G36*
X216649505Y-125226204D02*
G01*
X216673773Y-125229804D01*
X216697572Y-125235765D01*
X216720671Y-125244030D01*
X216742850Y-125254520D01*
X216763893Y-125267132D01*
X216783599Y-125281747D01*
X216801777Y-125298223D01*
X216818253Y-125316401D01*
X216832868Y-125336107D01*
X216845480Y-125357150D01*
X216855970Y-125379329D01*
X216864235Y-125402428D01*
X216870196Y-125426227D01*
X216873796Y-125450495D01*
X216875000Y-125474999D01*
X216875000Y-128325001D01*
X216873796Y-128349505D01*
X216870196Y-128373773D01*
X216864235Y-128397572D01*
X216855970Y-128420671D01*
X216845480Y-128442850D01*
X216832868Y-128463893D01*
X216818253Y-128483599D01*
X216801777Y-128501777D01*
X216783599Y-128518253D01*
X216763893Y-128532868D01*
X216742850Y-128545480D01*
X216720671Y-128555970D01*
X216697572Y-128564235D01*
X216673773Y-128570196D01*
X216649505Y-128573796D01*
X216625001Y-128575000D01*
X215599999Y-128575000D01*
X215575495Y-128573796D01*
X215551227Y-128570196D01*
X215527428Y-128564235D01*
X215504329Y-128555970D01*
X215482150Y-128545480D01*
X215461107Y-128532868D01*
X215441401Y-128518253D01*
X215423223Y-128501777D01*
X215406747Y-128483599D01*
X215392132Y-128463893D01*
X215379520Y-128442850D01*
X215369030Y-128420671D01*
X215360765Y-128397572D01*
X215354804Y-128373773D01*
X215351204Y-128349505D01*
X215350000Y-128325001D01*
X215350000Y-125474999D01*
X215351204Y-125450495D01*
X215354804Y-125426227D01*
X215360765Y-125402428D01*
X215369030Y-125379329D01*
X215379520Y-125357150D01*
X215392132Y-125336107D01*
X215406747Y-125316401D01*
X215423223Y-125298223D01*
X215441401Y-125281747D01*
X215461107Y-125267132D01*
X215482150Y-125254520D01*
X215504329Y-125244030D01*
X215527428Y-125235765D01*
X215551227Y-125229804D01*
X215575495Y-125226204D01*
X215599999Y-125225000D01*
X216625001Y-125225000D01*
X216649505Y-125226204D01*
X216649505Y-125226204D01*
G37*
D17*
X216112500Y-126900000D03*
D14*
G36*
X222624505Y-125226204D02*
G01*
X222648773Y-125229804D01*
X222672572Y-125235765D01*
X222695671Y-125244030D01*
X222717850Y-125254520D01*
X222738893Y-125267132D01*
X222758599Y-125281747D01*
X222776777Y-125298223D01*
X222793253Y-125316401D01*
X222807868Y-125336107D01*
X222820480Y-125357150D01*
X222830970Y-125379329D01*
X222839235Y-125402428D01*
X222845196Y-125426227D01*
X222848796Y-125450495D01*
X222850000Y-125474999D01*
X222850000Y-128325001D01*
X222848796Y-128349505D01*
X222845196Y-128373773D01*
X222839235Y-128397572D01*
X222830970Y-128420671D01*
X222820480Y-128442850D01*
X222807868Y-128463893D01*
X222793253Y-128483599D01*
X222776777Y-128501777D01*
X222758599Y-128518253D01*
X222738893Y-128532868D01*
X222717850Y-128545480D01*
X222695671Y-128555970D01*
X222672572Y-128564235D01*
X222648773Y-128570196D01*
X222624505Y-128573796D01*
X222600001Y-128575000D01*
X221574999Y-128575000D01*
X221550495Y-128573796D01*
X221526227Y-128570196D01*
X221502428Y-128564235D01*
X221479329Y-128555970D01*
X221457150Y-128545480D01*
X221436107Y-128532868D01*
X221416401Y-128518253D01*
X221398223Y-128501777D01*
X221381747Y-128483599D01*
X221367132Y-128463893D01*
X221354520Y-128442850D01*
X221344030Y-128420671D01*
X221335765Y-128397572D01*
X221329804Y-128373773D01*
X221326204Y-128349505D01*
X221325000Y-128325001D01*
X221325000Y-125474999D01*
X221326204Y-125450495D01*
X221329804Y-125426227D01*
X221335765Y-125402428D01*
X221344030Y-125379329D01*
X221354520Y-125357150D01*
X221367132Y-125336107D01*
X221381747Y-125316401D01*
X221398223Y-125298223D01*
X221416401Y-125281747D01*
X221436107Y-125267132D01*
X221457150Y-125254520D01*
X221479329Y-125244030D01*
X221502428Y-125235765D01*
X221526227Y-125229804D01*
X221550495Y-125226204D01*
X221574999Y-125225000D01*
X222600001Y-125225000D01*
X222624505Y-125226204D01*
X222624505Y-125226204D01*
G37*
D17*
X222087500Y-126900000D03*
D18*
X218250000Y-131000000D03*
X220150000Y-131000000D03*
X219200000Y-133000000D03*
D14*
G36*
X231322691Y-105036053D02*
G01*
X231343926Y-105039203D01*
X231364750Y-105044419D01*
X231384962Y-105051651D01*
X231404368Y-105060830D01*
X231422781Y-105071866D01*
X231440024Y-105084654D01*
X231455930Y-105099070D01*
X231470346Y-105114976D01*
X231483134Y-105132219D01*
X231494170Y-105150632D01*
X231503349Y-105170038D01*
X231510581Y-105190250D01*
X231515797Y-105211074D01*
X231518947Y-105232309D01*
X231520000Y-105253750D01*
X231520000Y-105766250D01*
X231518947Y-105787691D01*
X231515797Y-105808926D01*
X231510581Y-105829750D01*
X231503349Y-105849962D01*
X231494170Y-105869368D01*
X231483134Y-105887781D01*
X231470346Y-105905024D01*
X231455930Y-105920930D01*
X231440024Y-105935346D01*
X231422781Y-105948134D01*
X231404368Y-105959170D01*
X231384962Y-105968349D01*
X231364750Y-105975581D01*
X231343926Y-105980797D01*
X231322691Y-105983947D01*
X231301250Y-105985000D01*
X230863750Y-105985000D01*
X230842309Y-105983947D01*
X230821074Y-105980797D01*
X230800250Y-105975581D01*
X230780038Y-105968349D01*
X230760632Y-105959170D01*
X230742219Y-105948134D01*
X230724976Y-105935346D01*
X230709070Y-105920930D01*
X230694654Y-105905024D01*
X230681866Y-105887781D01*
X230670830Y-105869368D01*
X230661651Y-105849962D01*
X230654419Y-105829750D01*
X230649203Y-105808926D01*
X230646053Y-105787691D01*
X230645000Y-105766250D01*
X230645000Y-105253750D01*
X230646053Y-105232309D01*
X230649203Y-105211074D01*
X230654419Y-105190250D01*
X230661651Y-105170038D01*
X230670830Y-105150632D01*
X230681866Y-105132219D01*
X230694654Y-105114976D01*
X230709070Y-105099070D01*
X230724976Y-105084654D01*
X230742219Y-105071866D01*
X230760632Y-105060830D01*
X230780038Y-105051651D01*
X230800250Y-105044419D01*
X230821074Y-105039203D01*
X230842309Y-105036053D01*
X230863750Y-105035000D01*
X231301250Y-105035000D01*
X231322691Y-105036053D01*
X231322691Y-105036053D01*
G37*
D16*
X231082500Y-105510000D03*
D14*
G36*
X232897691Y-105036053D02*
G01*
X232918926Y-105039203D01*
X232939750Y-105044419D01*
X232959962Y-105051651D01*
X232979368Y-105060830D01*
X232997781Y-105071866D01*
X233015024Y-105084654D01*
X233030930Y-105099070D01*
X233045346Y-105114976D01*
X233058134Y-105132219D01*
X233069170Y-105150632D01*
X233078349Y-105170038D01*
X233085581Y-105190250D01*
X233090797Y-105211074D01*
X233093947Y-105232309D01*
X233095000Y-105253750D01*
X233095000Y-105766250D01*
X233093947Y-105787691D01*
X233090797Y-105808926D01*
X233085581Y-105829750D01*
X233078349Y-105849962D01*
X233069170Y-105869368D01*
X233058134Y-105887781D01*
X233045346Y-105905024D01*
X233030930Y-105920930D01*
X233015024Y-105935346D01*
X232997781Y-105948134D01*
X232979368Y-105959170D01*
X232959962Y-105968349D01*
X232939750Y-105975581D01*
X232918926Y-105980797D01*
X232897691Y-105983947D01*
X232876250Y-105985000D01*
X232438750Y-105985000D01*
X232417309Y-105983947D01*
X232396074Y-105980797D01*
X232375250Y-105975581D01*
X232355038Y-105968349D01*
X232335632Y-105959170D01*
X232317219Y-105948134D01*
X232299976Y-105935346D01*
X232284070Y-105920930D01*
X232269654Y-105905024D01*
X232256866Y-105887781D01*
X232245830Y-105869368D01*
X232236651Y-105849962D01*
X232229419Y-105829750D01*
X232224203Y-105808926D01*
X232221053Y-105787691D01*
X232220000Y-105766250D01*
X232220000Y-105253750D01*
X232221053Y-105232309D01*
X232224203Y-105211074D01*
X232229419Y-105190250D01*
X232236651Y-105170038D01*
X232245830Y-105150632D01*
X232256866Y-105132219D01*
X232269654Y-105114976D01*
X232284070Y-105099070D01*
X232299976Y-105084654D01*
X232317219Y-105071866D01*
X232335632Y-105060830D01*
X232355038Y-105051651D01*
X232375250Y-105044419D01*
X232396074Y-105039203D01*
X232417309Y-105036053D01*
X232438750Y-105035000D01*
X232876250Y-105035000D01*
X232897691Y-105036053D01*
X232897691Y-105036053D01*
G37*
D16*
X232657500Y-105510000D03*
D14*
G36*
X224457691Y-103691053D02*
G01*
X224478926Y-103694203D01*
X224499750Y-103699419D01*
X224519962Y-103706651D01*
X224539368Y-103715830D01*
X224557781Y-103726866D01*
X224575024Y-103739654D01*
X224590930Y-103754070D01*
X224605346Y-103769976D01*
X224618134Y-103787219D01*
X224629170Y-103805632D01*
X224638349Y-103825038D01*
X224645581Y-103845250D01*
X224650797Y-103866074D01*
X224653947Y-103887309D01*
X224655000Y-103908750D01*
X224655000Y-104346250D01*
X224653947Y-104367691D01*
X224650797Y-104388926D01*
X224645581Y-104409750D01*
X224638349Y-104429962D01*
X224629170Y-104449368D01*
X224618134Y-104467781D01*
X224605346Y-104485024D01*
X224590930Y-104500930D01*
X224575024Y-104515346D01*
X224557781Y-104528134D01*
X224539368Y-104539170D01*
X224519962Y-104548349D01*
X224499750Y-104555581D01*
X224478926Y-104560797D01*
X224457691Y-104563947D01*
X224436250Y-104565000D01*
X223923750Y-104565000D01*
X223902309Y-104563947D01*
X223881074Y-104560797D01*
X223860250Y-104555581D01*
X223840038Y-104548349D01*
X223820632Y-104539170D01*
X223802219Y-104528134D01*
X223784976Y-104515346D01*
X223769070Y-104500930D01*
X223754654Y-104485024D01*
X223741866Y-104467781D01*
X223730830Y-104449368D01*
X223721651Y-104429962D01*
X223714419Y-104409750D01*
X223709203Y-104388926D01*
X223706053Y-104367691D01*
X223705000Y-104346250D01*
X223705000Y-103908750D01*
X223706053Y-103887309D01*
X223709203Y-103866074D01*
X223714419Y-103845250D01*
X223721651Y-103825038D01*
X223730830Y-103805632D01*
X223741866Y-103787219D01*
X223754654Y-103769976D01*
X223769070Y-103754070D01*
X223784976Y-103739654D01*
X223802219Y-103726866D01*
X223820632Y-103715830D01*
X223840038Y-103706651D01*
X223860250Y-103699419D01*
X223881074Y-103694203D01*
X223902309Y-103691053D01*
X223923750Y-103690000D01*
X224436250Y-103690000D01*
X224457691Y-103691053D01*
X224457691Y-103691053D01*
G37*
D16*
X224180000Y-104127500D03*
D14*
G36*
X224457691Y-102116053D02*
G01*
X224478926Y-102119203D01*
X224499750Y-102124419D01*
X224519962Y-102131651D01*
X224539368Y-102140830D01*
X224557781Y-102151866D01*
X224575024Y-102164654D01*
X224590930Y-102179070D01*
X224605346Y-102194976D01*
X224618134Y-102212219D01*
X224629170Y-102230632D01*
X224638349Y-102250038D01*
X224645581Y-102270250D01*
X224650797Y-102291074D01*
X224653947Y-102312309D01*
X224655000Y-102333750D01*
X224655000Y-102771250D01*
X224653947Y-102792691D01*
X224650797Y-102813926D01*
X224645581Y-102834750D01*
X224638349Y-102854962D01*
X224629170Y-102874368D01*
X224618134Y-102892781D01*
X224605346Y-102910024D01*
X224590930Y-102925930D01*
X224575024Y-102940346D01*
X224557781Y-102953134D01*
X224539368Y-102964170D01*
X224519962Y-102973349D01*
X224499750Y-102980581D01*
X224478926Y-102985797D01*
X224457691Y-102988947D01*
X224436250Y-102990000D01*
X223923750Y-102990000D01*
X223902309Y-102988947D01*
X223881074Y-102985797D01*
X223860250Y-102980581D01*
X223840038Y-102973349D01*
X223820632Y-102964170D01*
X223802219Y-102953134D01*
X223784976Y-102940346D01*
X223769070Y-102925930D01*
X223754654Y-102910024D01*
X223741866Y-102892781D01*
X223730830Y-102874368D01*
X223721651Y-102854962D01*
X223714419Y-102834750D01*
X223709203Y-102813926D01*
X223706053Y-102792691D01*
X223705000Y-102771250D01*
X223705000Y-102333750D01*
X223706053Y-102312309D01*
X223709203Y-102291074D01*
X223714419Y-102270250D01*
X223721651Y-102250038D01*
X223730830Y-102230632D01*
X223741866Y-102212219D01*
X223754654Y-102194976D01*
X223769070Y-102179070D01*
X223784976Y-102164654D01*
X223802219Y-102151866D01*
X223820632Y-102140830D01*
X223840038Y-102131651D01*
X223860250Y-102124419D01*
X223881074Y-102119203D01*
X223902309Y-102116053D01*
X223923750Y-102115000D01*
X224436250Y-102115000D01*
X224457691Y-102116053D01*
X224457691Y-102116053D01*
G37*
D16*
X224180000Y-102552500D03*
D14*
G36*
X224412691Y-105406053D02*
G01*
X224433926Y-105409203D01*
X224454750Y-105414419D01*
X224474962Y-105421651D01*
X224494368Y-105430830D01*
X224512781Y-105441866D01*
X224530024Y-105454654D01*
X224545930Y-105469070D01*
X224560346Y-105484976D01*
X224573134Y-105502219D01*
X224584170Y-105520632D01*
X224593349Y-105540038D01*
X224600581Y-105560250D01*
X224605797Y-105581074D01*
X224608947Y-105602309D01*
X224610000Y-105623750D01*
X224610000Y-106136250D01*
X224608947Y-106157691D01*
X224605797Y-106178926D01*
X224600581Y-106199750D01*
X224593349Y-106219962D01*
X224584170Y-106239368D01*
X224573134Y-106257781D01*
X224560346Y-106275024D01*
X224545930Y-106290930D01*
X224530024Y-106305346D01*
X224512781Y-106318134D01*
X224494368Y-106329170D01*
X224474962Y-106338349D01*
X224454750Y-106345581D01*
X224433926Y-106350797D01*
X224412691Y-106353947D01*
X224391250Y-106355000D01*
X223953750Y-106355000D01*
X223932309Y-106353947D01*
X223911074Y-106350797D01*
X223890250Y-106345581D01*
X223870038Y-106338349D01*
X223850632Y-106329170D01*
X223832219Y-106318134D01*
X223814976Y-106305346D01*
X223799070Y-106290930D01*
X223784654Y-106275024D01*
X223771866Y-106257781D01*
X223760830Y-106239368D01*
X223751651Y-106219962D01*
X223744419Y-106199750D01*
X223739203Y-106178926D01*
X223736053Y-106157691D01*
X223735000Y-106136250D01*
X223735000Y-105623750D01*
X223736053Y-105602309D01*
X223739203Y-105581074D01*
X223744419Y-105560250D01*
X223751651Y-105540038D01*
X223760830Y-105520632D01*
X223771866Y-105502219D01*
X223784654Y-105484976D01*
X223799070Y-105469070D01*
X223814976Y-105454654D01*
X223832219Y-105441866D01*
X223850632Y-105430830D01*
X223870038Y-105421651D01*
X223890250Y-105414419D01*
X223911074Y-105409203D01*
X223932309Y-105406053D01*
X223953750Y-105405000D01*
X224391250Y-105405000D01*
X224412691Y-105406053D01*
X224412691Y-105406053D01*
G37*
D16*
X224172500Y-105880000D03*
D14*
G36*
X225987691Y-105406053D02*
G01*
X226008926Y-105409203D01*
X226029750Y-105414419D01*
X226049962Y-105421651D01*
X226069368Y-105430830D01*
X226087781Y-105441866D01*
X226105024Y-105454654D01*
X226120930Y-105469070D01*
X226135346Y-105484976D01*
X226148134Y-105502219D01*
X226159170Y-105520632D01*
X226168349Y-105540038D01*
X226175581Y-105560250D01*
X226180797Y-105581074D01*
X226183947Y-105602309D01*
X226185000Y-105623750D01*
X226185000Y-106136250D01*
X226183947Y-106157691D01*
X226180797Y-106178926D01*
X226175581Y-106199750D01*
X226168349Y-106219962D01*
X226159170Y-106239368D01*
X226148134Y-106257781D01*
X226135346Y-106275024D01*
X226120930Y-106290930D01*
X226105024Y-106305346D01*
X226087781Y-106318134D01*
X226069368Y-106329170D01*
X226049962Y-106338349D01*
X226029750Y-106345581D01*
X226008926Y-106350797D01*
X225987691Y-106353947D01*
X225966250Y-106355000D01*
X225528750Y-106355000D01*
X225507309Y-106353947D01*
X225486074Y-106350797D01*
X225465250Y-106345581D01*
X225445038Y-106338349D01*
X225425632Y-106329170D01*
X225407219Y-106318134D01*
X225389976Y-106305346D01*
X225374070Y-106290930D01*
X225359654Y-106275024D01*
X225346866Y-106257781D01*
X225335830Y-106239368D01*
X225326651Y-106219962D01*
X225319419Y-106199750D01*
X225314203Y-106178926D01*
X225311053Y-106157691D01*
X225310000Y-106136250D01*
X225310000Y-105623750D01*
X225311053Y-105602309D01*
X225314203Y-105581074D01*
X225319419Y-105560250D01*
X225326651Y-105540038D01*
X225335830Y-105520632D01*
X225346866Y-105502219D01*
X225359654Y-105484976D01*
X225374070Y-105469070D01*
X225389976Y-105454654D01*
X225407219Y-105441866D01*
X225425632Y-105430830D01*
X225445038Y-105421651D01*
X225465250Y-105414419D01*
X225486074Y-105409203D01*
X225507309Y-105406053D01*
X225528750Y-105405000D01*
X225966250Y-105405000D01*
X225987691Y-105406053D01*
X225987691Y-105406053D01*
G37*
D16*
X225747500Y-105880000D03*
D14*
G36*
X224402691Y-107056053D02*
G01*
X224423926Y-107059203D01*
X224444750Y-107064419D01*
X224464962Y-107071651D01*
X224484368Y-107080830D01*
X224502781Y-107091866D01*
X224520024Y-107104654D01*
X224535930Y-107119070D01*
X224550346Y-107134976D01*
X224563134Y-107152219D01*
X224574170Y-107170632D01*
X224583349Y-107190038D01*
X224590581Y-107210250D01*
X224595797Y-107231074D01*
X224598947Y-107252309D01*
X224600000Y-107273750D01*
X224600000Y-107786250D01*
X224598947Y-107807691D01*
X224595797Y-107828926D01*
X224590581Y-107849750D01*
X224583349Y-107869962D01*
X224574170Y-107889368D01*
X224563134Y-107907781D01*
X224550346Y-107925024D01*
X224535930Y-107940930D01*
X224520024Y-107955346D01*
X224502781Y-107968134D01*
X224484368Y-107979170D01*
X224464962Y-107988349D01*
X224444750Y-107995581D01*
X224423926Y-108000797D01*
X224402691Y-108003947D01*
X224381250Y-108005000D01*
X223943750Y-108005000D01*
X223922309Y-108003947D01*
X223901074Y-108000797D01*
X223880250Y-107995581D01*
X223860038Y-107988349D01*
X223840632Y-107979170D01*
X223822219Y-107968134D01*
X223804976Y-107955346D01*
X223789070Y-107940930D01*
X223774654Y-107925024D01*
X223761866Y-107907781D01*
X223750830Y-107889368D01*
X223741651Y-107869962D01*
X223734419Y-107849750D01*
X223729203Y-107828926D01*
X223726053Y-107807691D01*
X223725000Y-107786250D01*
X223725000Y-107273750D01*
X223726053Y-107252309D01*
X223729203Y-107231074D01*
X223734419Y-107210250D01*
X223741651Y-107190038D01*
X223750830Y-107170632D01*
X223761866Y-107152219D01*
X223774654Y-107134976D01*
X223789070Y-107119070D01*
X223804976Y-107104654D01*
X223822219Y-107091866D01*
X223840632Y-107080830D01*
X223860038Y-107071651D01*
X223880250Y-107064419D01*
X223901074Y-107059203D01*
X223922309Y-107056053D01*
X223943750Y-107055000D01*
X224381250Y-107055000D01*
X224402691Y-107056053D01*
X224402691Y-107056053D01*
G37*
D16*
X224162500Y-107530000D03*
D14*
G36*
X225977691Y-107056053D02*
G01*
X225998926Y-107059203D01*
X226019750Y-107064419D01*
X226039962Y-107071651D01*
X226059368Y-107080830D01*
X226077781Y-107091866D01*
X226095024Y-107104654D01*
X226110930Y-107119070D01*
X226125346Y-107134976D01*
X226138134Y-107152219D01*
X226149170Y-107170632D01*
X226158349Y-107190038D01*
X226165581Y-107210250D01*
X226170797Y-107231074D01*
X226173947Y-107252309D01*
X226175000Y-107273750D01*
X226175000Y-107786250D01*
X226173947Y-107807691D01*
X226170797Y-107828926D01*
X226165581Y-107849750D01*
X226158349Y-107869962D01*
X226149170Y-107889368D01*
X226138134Y-107907781D01*
X226125346Y-107925024D01*
X226110930Y-107940930D01*
X226095024Y-107955346D01*
X226077781Y-107968134D01*
X226059368Y-107979170D01*
X226039962Y-107988349D01*
X226019750Y-107995581D01*
X225998926Y-108000797D01*
X225977691Y-108003947D01*
X225956250Y-108005000D01*
X225518750Y-108005000D01*
X225497309Y-108003947D01*
X225476074Y-108000797D01*
X225455250Y-107995581D01*
X225435038Y-107988349D01*
X225415632Y-107979170D01*
X225397219Y-107968134D01*
X225379976Y-107955346D01*
X225364070Y-107940930D01*
X225349654Y-107925024D01*
X225336866Y-107907781D01*
X225325830Y-107889368D01*
X225316651Y-107869962D01*
X225309419Y-107849750D01*
X225304203Y-107828926D01*
X225301053Y-107807691D01*
X225300000Y-107786250D01*
X225300000Y-107273750D01*
X225301053Y-107252309D01*
X225304203Y-107231074D01*
X225309419Y-107210250D01*
X225316651Y-107190038D01*
X225325830Y-107170632D01*
X225336866Y-107152219D01*
X225349654Y-107134976D01*
X225364070Y-107119070D01*
X225379976Y-107104654D01*
X225397219Y-107091866D01*
X225415632Y-107080830D01*
X225435038Y-107071651D01*
X225455250Y-107064419D01*
X225476074Y-107059203D01*
X225497309Y-107056053D01*
X225518750Y-107055000D01*
X225956250Y-107055000D01*
X225977691Y-107056053D01*
X225977691Y-107056053D01*
G37*
D16*
X225737500Y-107530000D03*
D19*
X209300000Y-118950000D03*
X226250000Y-99150000D03*
X211950000Y-106160000D03*
X216130000Y-129720000D03*
X236400000Y-116300000D03*
X235500000Y-124700000D03*
X236400000Y-118500000D03*
X213400000Y-107750000D03*
X236400000Y-120500000D03*
X211950000Y-109100000D03*
X236400000Y-122650000D03*
X234740000Y-112160000D03*
D20*
X209327500Y-127907500D02*
X209440000Y-128020000D01*
X209440000Y-128020000D02*
X213740000Y-128020000D01*
X213740000Y-128020000D02*
X213940000Y-127820000D01*
X213940000Y-127820000D02*
X213940000Y-124220000D01*
X213940000Y-124220000D02*
X214290000Y-123870000D01*
X207392500Y-128020000D02*
X207380000Y-128007500D01*
X209440000Y-128020000D02*
X207392500Y-128020000D01*
X205996051Y-110596051D02*
X209903949Y-110596051D01*
X210153949Y-105046051D02*
X210153949Y-110846051D01*
X219100000Y-104412500D02*
X210787500Y-104412500D01*
X210325000Y-111017102D02*
X210153949Y-110846051D01*
X210787500Y-104412500D02*
X210153949Y-105046051D01*
X210153949Y-110846051D02*
X209903949Y-110596051D01*
X220567500Y-105880000D02*
X219100000Y-104412500D01*
X224172500Y-105880000D02*
X220567500Y-105880000D01*
X216682001Y-130870001D02*
X211545001Y-130870001D01*
X217280001Y-130272001D02*
X216682001Y-130870001D01*
X209645000Y-128970000D02*
X209440000Y-128970000D01*
X211545001Y-130870001D02*
X209645000Y-128970000D01*
X217280001Y-128067501D02*
X217280001Y-130272001D01*
X216112500Y-126900000D02*
X217280001Y-128067501D01*
X208802500Y-126432500D02*
X209440000Y-127070000D01*
X207380000Y-126432500D02*
X208802500Y-126432500D01*
X207380000Y-125895000D02*
X205996051Y-124511051D01*
X205996051Y-124511051D02*
X205996051Y-120006051D01*
X207380000Y-126432500D02*
X207380000Y-125895000D01*
X205996051Y-110596051D02*
X205996051Y-120006051D01*
X205996051Y-120006051D02*
X205996051Y-120353949D01*
X206992440Y-128970000D02*
X208510000Y-128970000D01*
X206504990Y-128482550D02*
X206992440Y-128970000D01*
X208510000Y-128970000D02*
X209440000Y-128970000D01*
X206504990Y-126732510D02*
X206504990Y-128482550D01*
X206805000Y-126432500D02*
X206504990Y-126732510D01*
X207380000Y-126432500D02*
X206805000Y-126432500D01*
X215380001Y-128970001D02*
X216130000Y-129720000D01*
X211640000Y-128970000D02*
X215380001Y-128970001D01*
X227200000Y-102500000D02*
X227200000Y-103300000D01*
X224087500Y-99387500D02*
X227200000Y-102500000D01*
X219100000Y-99387500D02*
X224087500Y-99387500D01*
X218250000Y-131050000D02*
X218250000Y-131000000D01*
X219050000Y-131850000D02*
X218250000Y-131050000D01*
X228349999Y-131850001D02*
X219050000Y-131850000D01*
X235500000Y-124700000D02*
X228349999Y-131850001D01*
X236400000Y-109827500D02*
X236400000Y-110930000D01*
X232657500Y-106085000D02*
X236400000Y-109827500D01*
X232657500Y-105510000D02*
X232657500Y-106085000D01*
X236400000Y-116300000D02*
X236400000Y-110930000D01*
X236400000Y-110930000D02*
X236400000Y-110612500D01*
X215550000Y-107750000D02*
X213400000Y-107750000D01*
X236400000Y-118500000D02*
X226300000Y-118500000D01*
X226300000Y-118500000D02*
X215550000Y-107750000D01*
X236300000Y-120500000D02*
X225500000Y-120500000D01*
X225500000Y-120500000D02*
X218100000Y-113100000D01*
X215950000Y-113100000D02*
X211950000Y-109100000D01*
X218100000Y-113100000D02*
X215950000Y-113100000D01*
X220150000Y-131000000D02*
X226600000Y-131000000D01*
X234950000Y-122650000D02*
X236400000Y-122650000D01*
X226600000Y-131000000D02*
X234950000Y-122650000D01*
X229200000Y-102350000D02*
X229250000Y-102350000D01*
X229432500Y-102350000D02*
X231112500Y-104030000D01*
X229200000Y-102350000D02*
X229432500Y-102350000D01*
X231112500Y-105480000D02*
X231082500Y-105510000D01*
X231112500Y-104030000D02*
X231112500Y-105480000D01*
X234740000Y-112160000D02*
X230367500Y-112160000D01*
X225737500Y-105890000D02*
X225747500Y-105880000D01*
X225737500Y-107530000D02*
X225737500Y-105890000D01*
X225757500Y-105870000D02*
X225747500Y-105880000D01*
X225747500Y-105695000D02*
X224180000Y-104127500D01*
X225747500Y-105880000D02*
X225747500Y-105695000D01*
X230367500Y-112160000D02*
X225737500Y-107530000D01*
D21*
G36*
X216497039Y-97497039D02*
G01*
X216386595Y-97631614D01*
X216304529Y-97785150D01*
X216253992Y-97951747D01*
X216236928Y-98125001D01*
X216236928Y-100649999D01*
X216253992Y-100823253D01*
X216304529Y-100989850D01*
X216386595Y-101143386D01*
X216497039Y-101277961D01*
X216631614Y-101388405D01*
X216785150Y-101470471D01*
X216951747Y-101521008D01*
X217125001Y-101538072D01*
X221074999Y-101538072D01*
X221248253Y-101521008D01*
X221414850Y-101470471D01*
X221568386Y-101388405D01*
X221702961Y-101277961D01*
X221813405Y-101143386D01*
X221895471Y-100989850D01*
X221946008Y-100823253D01*
X221963072Y-100649999D01*
X221963072Y-100222500D01*
X223741633Y-100222500D01*
X226165533Y-102646401D01*
X226160498Y-102655820D01*
X226124188Y-102775518D01*
X226111928Y-102900000D01*
X226111928Y-103700000D01*
X226124188Y-103824482D01*
X226160498Y-103944180D01*
X226219463Y-104054494D01*
X226298815Y-104151185D01*
X226395506Y-104230537D01*
X226505820Y-104289502D01*
X226625518Y-104325812D01*
X226750000Y-104338072D01*
X227650000Y-104338072D01*
X227774482Y-104325812D01*
X227894180Y-104289502D01*
X228004494Y-104230537D01*
X228101185Y-104151185D01*
X228180537Y-104054494D01*
X228189143Y-104038393D01*
X228273750Y-104123000D01*
X229073000Y-104123000D01*
X229073000Y-104103000D01*
X229327000Y-104103000D01*
X229327000Y-104123000D01*
X229347000Y-104123000D01*
X229347000Y-104377000D01*
X229327000Y-104377000D01*
X229327000Y-105126250D01*
X229485750Y-105285000D01*
X229650000Y-105288072D01*
X229774482Y-105275812D01*
X229894180Y-105239502D01*
X230004494Y-105180537D01*
X230014987Y-105171925D01*
X230006928Y-105253750D01*
X230006928Y-105766250D01*
X230023392Y-105933408D01*
X230072150Y-106094142D01*
X230151329Y-106242275D01*
X230257885Y-106372115D01*
X230387725Y-106478671D01*
X230535858Y-106557850D01*
X230696592Y-106606608D01*
X230863750Y-106623072D01*
X231301250Y-106623072D01*
X231468408Y-106606608D01*
X231629142Y-106557850D01*
X231777275Y-106478671D01*
X231870000Y-106402574D01*
X231888617Y-106417853D01*
X231916583Y-106470172D01*
X231957119Y-106546008D01*
X231959865Y-106551146D01*
X232064210Y-106678291D01*
X232096074Y-106704441D01*
X235565000Y-110173368D01*
X235565001Y-110571474D01*
X235565000Y-110571481D01*
X235565000Y-110971018D01*
X235565001Y-110971028D01*
X235565001Y-111045523D01*
X235396043Y-110932629D01*
X235143989Y-110828225D01*
X234876411Y-110775000D01*
X234603589Y-110775000D01*
X234336011Y-110828225D01*
X234083957Y-110932629D01*
X233857114Y-111084201D01*
X233664201Y-111277114D01*
X233632205Y-111325000D01*
X230713369Y-111325000D01*
X226813072Y-107424705D01*
X226813072Y-107273750D01*
X226796608Y-107106592D01*
X226747850Y-106945858D01*
X226668671Y-106797725D01*
X226597574Y-106711093D01*
X226678671Y-106612275D01*
X226757850Y-106464142D01*
X226806608Y-106303408D01*
X226823072Y-106136250D01*
X226823072Y-105623750D01*
X226806608Y-105456592D01*
X226757850Y-105295858D01*
X226678671Y-105147725D01*
X226572115Y-105017885D01*
X226442275Y-104911329D01*
X226294142Y-104832150D01*
X226133408Y-104783392D01*
X226004016Y-104770648D01*
X225883368Y-104650000D01*
X228111928Y-104650000D01*
X228124188Y-104774482D01*
X228160498Y-104894180D01*
X228219463Y-105004494D01*
X228298815Y-105101185D01*
X228395506Y-105180537D01*
X228505820Y-105239502D01*
X228625518Y-105275812D01*
X228750000Y-105288072D01*
X228914250Y-105285000D01*
X229073000Y-105126250D01*
X229073000Y-104377000D01*
X228273750Y-104377000D01*
X228115000Y-104535750D01*
X228111928Y-104650000D01*
X225883368Y-104650000D01*
X225293072Y-104059704D01*
X225293072Y-103908750D01*
X225276608Y-103741592D01*
X225227850Y-103580858D01*
X225148671Y-103432725D01*
X225130900Y-103411070D01*
X225185537Y-103344494D01*
X225244502Y-103234180D01*
X225280812Y-103114482D01*
X225293072Y-102990000D01*
X225290000Y-102838250D01*
X225131250Y-102679500D01*
X224307000Y-102679500D01*
X224307000Y-102699500D01*
X224053000Y-102699500D01*
X224053000Y-102679500D01*
X223228750Y-102679500D01*
X223070000Y-102838250D01*
X223066928Y-102990000D01*
X223079188Y-103114482D01*
X223115498Y-103234180D01*
X223174463Y-103344494D01*
X223229100Y-103411070D01*
X223211329Y-103432725D01*
X223132150Y-103580858D01*
X223083392Y-103741592D01*
X223066928Y-103908750D01*
X223066928Y-104346250D01*
X223083392Y-104513408D01*
X223132150Y-104674142D01*
X223211329Y-104822275D01*
X223317885Y-104952115D01*
X223372956Y-104997310D01*
X223347885Y-105017885D01*
X223325632Y-105045000D01*
X221963072Y-105045000D01*
X221963072Y-103150001D01*
X221946008Y-102976747D01*
X221895471Y-102810150D01*
X221813405Y-102656614D01*
X221702961Y-102522039D01*
X221568386Y-102411595D01*
X221414850Y-102329529D01*
X221248253Y-102278992D01*
X221074999Y-102261928D01*
X217125001Y-102261928D01*
X216951747Y-102278992D01*
X216785150Y-102329529D01*
X216631614Y-102411595D01*
X216497039Y-102522039D01*
X216386595Y-102656614D01*
X216304529Y-102810150D01*
X216253992Y-102976747D01*
X216236928Y-103150001D01*
X216236928Y-103577500D01*
X210828507Y-103577500D01*
X210787499Y-103573461D01*
X210746491Y-103577500D01*
X210746481Y-103577500D01*
X210623811Y-103589582D01*
X210466413Y-103637328D01*
X210321354Y-103714864D01*
X210194209Y-103819209D01*
X210168058Y-103851074D01*
X209592527Y-104426605D01*
X209560658Y-104452760D01*
X209459364Y-104576188D01*
X209456313Y-104579906D01*
X209378777Y-104724965D01*
X209331031Y-104882363D01*
X209314909Y-105046051D01*
X209318949Y-105087070D01*
X209318950Y-109761051D01*
X207231844Y-109761051D01*
X207051185Y-109540917D01*
X206825065Y-109355345D01*
X206567085Y-109217452D01*
X206287162Y-109132538D01*
X206069001Y-109111051D01*
X205955841Y-109111051D01*
X205991584Y-109044180D01*
X206027893Y-108924481D01*
X206040153Y-108800000D01*
X206027893Y-108675519D01*
X205991584Y-108555820D01*
X205932620Y-108445506D01*
X205853267Y-108348815D01*
X205452109Y-107952002D01*
X205227603Y-107952002D01*
X204379605Y-108800000D01*
X204393748Y-108814143D01*
X204214143Y-108993748D01*
X204200000Y-108979605D01*
X203352002Y-109827603D01*
X203352002Y-110052109D01*
X203748815Y-110453267D01*
X203845506Y-110532620D01*
X203955820Y-110591584D01*
X204075519Y-110627893D01*
X204200000Y-110640153D01*
X204324481Y-110627893D01*
X204444180Y-110591584D01*
X204507647Y-110557660D01*
X204503866Y-110596051D01*
X204532538Y-110887162D01*
X204617452Y-111167085D01*
X204755345Y-111425065D01*
X204940917Y-111651185D01*
X205161051Y-111831845D01*
X205161052Y-119965023D01*
X205161051Y-119965033D01*
X205161051Y-120394968D01*
X205161052Y-120394977D01*
X205161051Y-124470032D01*
X205157011Y-124511051D01*
X205161051Y-124552069D01*
X205173133Y-124674739D01*
X205220879Y-124832137D01*
X205298415Y-124977196D01*
X205402760Y-125104342D01*
X205434630Y-125130497D01*
X206180383Y-125876250D01*
X205943569Y-126113064D01*
X205911699Y-126139219D01*
X205848617Y-126216086D01*
X205807354Y-126266365D01*
X205729818Y-126411424D01*
X205682072Y-126568822D01*
X205665950Y-126732510D01*
X205669990Y-126773529D01*
X205669991Y-128441522D01*
X205665950Y-128482550D01*
X205682072Y-128646238D01*
X205729818Y-128803636D01*
X205807354Y-128948695D01*
X205825505Y-128970812D01*
X205911700Y-129075841D01*
X205943564Y-129101991D01*
X206372994Y-129531421D01*
X206399149Y-129563291D01*
X206526294Y-129667636D01*
X206671353Y-129745172D01*
X206828751Y-129792918D01*
X206951421Y-129805000D01*
X206951431Y-129805000D01*
X206992439Y-129809039D01*
X207033447Y-129805000D01*
X208530482Y-129805000D01*
X208555506Y-129825537D01*
X208665820Y-129884502D01*
X208785518Y-129920812D01*
X208910000Y-129933072D01*
X209427205Y-129933072D01*
X210925560Y-131431428D01*
X210951710Y-131463292D01*
X211016112Y-131516145D01*
X211078855Y-131567637D01*
X211223914Y-131645173D01*
X211381312Y-131692919D01*
X211545000Y-131709041D01*
X211586019Y-131705001D01*
X216640983Y-131705001D01*
X216682001Y-131709041D01*
X216723019Y-131705001D01*
X216723020Y-131705001D01*
X216845690Y-131692919D01*
X217003088Y-131645173D01*
X217148147Y-131567637D01*
X217217878Y-131510411D01*
X217224188Y-131574482D01*
X217260498Y-131694180D01*
X217319463Y-131804494D01*
X217398815Y-131901185D01*
X217495506Y-131980537D01*
X217605820Y-132039502D01*
X217725518Y-132075812D01*
X217850000Y-132088072D01*
X218107204Y-132088072D01*
X218250366Y-132231234D01*
X218210498Y-132305820D01*
X218174188Y-132425518D01*
X218161928Y-132550000D01*
X218165000Y-132714250D01*
X218323750Y-132873000D01*
X219073000Y-132873000D01*
X219073000Y-132853000D01*
X219327000Y-132853000D01*
X219327000Y-132873000D01*
X220076250Y-132873000D01*
X220235000Y-132714250D01*
X220235547Y-132684999D01*
X228308980Y-132685001D01*
X228349999Y-132689041D01*
X228391017Y-132685001D01*
X228391038Y-132684999D01*
X228513687Y-132672919D01*
X228671085Y-132625173D01*
X228816144Y-132547637D01*
X228816146Y-132547635D01*
X228943289Y-132443292D01*
X228969439Y-132411428D01*
X235307104Y-126073764D01*
X235363589Y-126085000D01*
X235636411Y-126085000D01*
X235903989Y-126031775D01*
X236156043Y-125927371D01*
X236382886Y-125775799D01*
X236575799Y-125582886D01*
X236727371Y-125356043D01*
X236831775Y-125103989D01*
X236885000Y-124836411D01*
X236885000Y-124563589D01*
X236831775Y-124296011D01*
X236727371Y-124043957D01*
X236699685Y-124002522D01*
X236803989Y-123981775D01*
X237056043Y-123877371D01*
X237282886Y-123725799D01*
X237475799Y-123532886D01*
X237627371Y-123306043D01*
X237731775Y-123053989D01*
X237773000Y-122846739D01*
X237773000Y-134973000D01*
X200727000Y-134973000D01*
X200727000Y-133450000D01*
X218161928Y-133450000D01*
X218174188Y-133574482D01*
X218210498Y-133694180D01*
X218269463Y-133804494D01*
X218348815Y-133901185D01*
X218445506Y-133980537D01*
X218555820Y-134039502D01*
X218675518Y-134075812D01*
X218800000Y-134088072D01*
X218914250Y-134085000D01*
X219073000Y-133926250D01*
X219073000Y-133127000D01*
X219327000Y-133127000D01*
X219327000Y-133926250D01*
X219485750Y-134085000D01*
X219600000Y-134088072D01*
X219724482Y-134075812D01*
X219844180Y-134039502D01*
X219954494Y-133980537D01*
X220051185Y-133901185D01*
X220130537Y-133804494D01*
X220189502Y-133694180D01*
X220225812Y-133574482D01*
X220238072Y-133450000D01*
X220235000Y-133285750D01*
X220076250Y-133127000D01*
X219327000Y-133127000D01*
X219073000Y-133127000D01*
X218323750Y-133127000D01*
X218165000Y-133285750D01*
X218161928Y-133450000D01*
X200727000Y-133450000D01*
X200727000Y-108800000D01*
X202359847Y-108800000D01*
X202372107Y-108924481D01*
X202408416Y-109044180D01*
X202467380Y-109154494D01*
X202546733Y-109251185D01*
X202947891Y-109647998D01*
X203172397Y-109647998D01*
X204020395Y-108800000D01*
X203172397Y-107952002D01*
X202947891Y-107952002D01*
X202546733Y-108348815D01*
X202467380Y-108445506D01*
X202408416Y-108555820D01*
X202372107Y-108675519D01*
X202359847Y-108800000D01*
X200727000Y-108800000D01*
X200727000Y-107547891D01*
X203352002Y-107547891D01*
X203352002Y-107772397D01*
X204200000Y-108620395D01*
X205047998Y-107772397D01*
X205047998Y-107547891D01*
X204651185Y-107146733D01*
X204554494Y-107067380D01*
X204444180Y-107008416D01*
X204324481Y-106972107D01*
X204200000Y-106959847D01*
X204075519Y-106972107D01*
X203955820Y-107008416D01*
X203845506Y-107067380D01*
X203748815Y-107146733D01*
X203352002Y-107547891D01*
X200727000Y-107547891D01*
X200727000Y-102115000D01*
X223066928Y-102115000D01*
X223070000Y-102266750D01*
X223228750Y-102425500D01*
X224053000Y-102425500D01*
X224053000Y-101638750D01*
X224307000Y-101638750D01*
X224307000Y-102425500D01*
X225131250Y-102425500D01*
X225290000Y-102266750D01*
X225293072Y-102115000D01*
X225280812Y-101990518D01*
X225244502Y-101870820D01*
X225185537Y-101760506D01*
X225106185Y-101663815D01*
X225009494Y-101584463D01*
X224899180Y-101525498D01*
X224779482Y-101489188D01*
X224655000Y-101476928D01*
X224465750Y-101480000D01*
X224307000Y-101638750D01*
X224053000Y-101638750D01*
X223894250Y-101480000D01*
X223705000Y-101476928D01*
X223580518Y-101489188D01*
X223460820Y-101525498D01*
X223350506Y-101584463D01*
X223253815Y-101663815D01*
X223174463Y-101760506D01*
X223115498Y-101870820D01*
X223079188Y-101990518D01*
X223066928Y-102115000D01*
X200727000Y-102115000D01*
X200727000Y-97427000D01*
X216582381Y-97427000D01*
X216497039Y-97497039D01*
X216497039Y-97497039D01*
G37*
X216497039Y-97497039D02*
X216386595Y-97631614D01*
X216304529Y-97785150D01*
X216253992Y-97951747D01*
X216236928Y-98125001D01*
X216236928Y-100649999D01*
X216253992Y-100823253D01*
X216304529Y-100989850D01*
X216386595Y-101143386D01*
X216497039Y-101277961D01*
X216631614Y-101388405D01*
X216785150Y-101470471D01*
X216951747Y-101521008D01*
X217125001Y-101538072D01*
X221074999Y-101538072D01*
X221248253Y-101521008D01*
X221414850Y-101470471D01*
X221568386Y-101388405D01*
X221702961Y-101277961D01*
X221813405Y-101143386D01*
X221895471Y-100989850D01*
X221946008Y-100823253D01*
X221963072Y-100649999D01*
X221963072Y-100222500D01*
X223741633Y-100222500D01*
X226165533Y-102646401D01*
X226160498Y-102655820D01*
X226124188Y-102775518D01*
X226111928Y-102900000D01*
X226111928Y-103700000D01*
X226124188Y-103824482D01*
X226160498Y-103944180D01*
X226219463Y-104054494D01*
X226298815Y-104151185D01*
X226395506Y-104230537D01*
X226505820Y-104289502D01*
X226625518Y-104325812D01*
X226750000Y-104338072D01*
X227650000Y-104338072D01*
X227774482Y-104325812D01*
X227894180Y-104289502D01*
X228004494Y-104230537D01*
X228101185Y-104151185D01*
X228180537Y-104054494D01*
X228189143Y-104038393D01*
X228273750Y-104123000D01*
X229073000Y-104123000D01*
X229073000Y-104103000D01*
X229327000Y-104103000D01*
X229327000Y-104123000D01*
X229347000Y-104123000D01*
X229347000Y-104377000D01*
X229327000Y-104377000D01*
X229327000Y-105126250D01*
X229485750Y-105285000D01*
X229650000Y-105288072D01*
X229774482Y-105275812D01*
X229894180Y-105239502D01*
X230004494Y-105180537D01*
X230014987Y-105171925D01*
X230006928Y-105253750D01*
X230006928Y-105766250D01*
X230023392Y-105933408D01*
X230072150Y-106094142D01*
X230151329Y-106242275D01*
X230257885Y-106372115D01*
X230387725Y-106478671D01*
X230535858Y-106557850D01*
X230696592Y-106606608D01*
X230863750Y-106623072D01*
X231301250Y-106623072D01*
X231468408Y-106606608D01*
X231629142Y-106557850D01*
X231777275Y-106478671D01*
X231870000Y-106402574D01*
X231888617Y-106417853D01*
X231916583Y-106470172D01*
X231957119Y-106546008D01*
X231959865Y-106551146D01*
X232064210Y-106678291D01*
X232096074Y-106704441D01*
X235565000Y-110173368D01*
X235565001Y-110571474D01*
X235565000Y-110571481D01*
X235565000Y-110971018D01*
X235565001Y-110971028D01*
X235565001Y-111045523D01*
X235396043Y-110932629D01*
X235143989Y-110828225D01*
X234876411Y-110775000D01*
X234603589Y-110775000D01*
X234336011Y-110828225D01*
X234083957Y-110932629D01*
X233857114Y-111084201D01*
X233664201Y-111277114D01*
X233632205Y-111325000D01*
X230713369Y-111325000D01*
X226813072Y-107424705D01*
X226813072Y-107273750D01*
X226796608Y-107106592D01*
X226747850Y-106945858D01*
X226668671Y-106797725D01*
X226597574Y-106711093D01*
X226678671Y-106612275D01*
X226757850Y-106464142D01*
X226806608Y-106303408D01*
X226823072Y-106136250D01*
X226823072Y-105623750D01*
X226806608Y-105456592D01*
X226757850Y-105295858D01*
X226678671Y-105147725D01*
X226572115Y-105017885D01*
X226442275Y-104911329D01*
X226294142Y-104832150D01*
X226133408Y-104783392D01*
X226004016Y-104770648D01*
X225883368Y-104650000D01*
X228111928Y-104650000D01*
X228124188Y-104774482D01*
X228160498Y-104894180D01*
X228219463Y-105004494D01*
X228298815Y-105101185D01*
X228395506Y-105180537D01*
X228505820Y-105239502D01*
X228625518Y-105275812D01*
X228750000Y-105288072D01*
X228914250Y-105285000D01*
X229073000Y-105126250D01*
X229073000Y-104377000D01*
X228273750Y-104377000D01*
X228115000Y-104535750D01*
X228111928Y-104650000D01*
X225883368Y-104650000D01*
X225293072Y-104059704D01*
X225293072Y-103908750D01*
X225276608Y-103741592D01*
X225227850Y-103580858D01*
X225148671Y-103432725D01*
X225130900Y-103411070D01*
X225185537Y-103344494D01*
X225244502Y-103234180D01*
X225280812Y-103114482D01*
X225293072Y-102990000D01*
X225290000Y-102838250D01*
X225131250Y-102679500D01*
X224307000Y-102679500D01*
X224307000Y-102699500D01*
X224053000Y-102699500D01*
X224053000Y-102679500D01*
X223228750Y-102679500D01*
X223070000Y-102838250D01*
X223066928Y-102990000D01*
X223079188Y-103114482D01*
X223115498Y-103234180D01*
X223174463Y-103344494D01*
X223229100Y-103411070D01*
X223211329Y-103432725D01*
X223132150Y-103580858D01*
X223083392Y-103741592D01*
X223066928Y-103908750D01*
X223066928Y-104346250D01*
X223083392Y-104513408D01*
X223132150Y-104674142D01*
X223211329Y-104822275D01*
X223317885Y-104952115D01*
X223372956Y-104997310D01*
X223347885Y-105017885D01*
X223325632Y-105045000D01*
X221963072Y-105045000D01*
X221963072Y-103150001D01*
X221946008Y-102976747D01*
X221895471Y-102810150D01*
X221813405Y-102656614D01*
X221702961Y-102522039D01*
X221568386Y-102411595D01*
X221414850Y-102329529D01*
X221248253Y-102278992D01*
X221074999Y-102261928D01*
X217125001Y-102261928D01*
X216951747Y-102278992D01*
X216785150Y-102329529D01*
X216631614Y-102411595D01*
X216497039Y-102522039D01*
X216386595Y-102656614D01*
X216304529Y-102810150D01*
X216253992Y-102976747D01*
X216236928Y-103150001D01*
X216236928Y-103577500D01*
X210828507Y-103577500D01*
X210787499Y-103573461D01*
X210746491Y-103577500D01*
X210746481Y-103577500D01*
X210623811Y-103589582D01*
X210466413Y-103637328D01*
X210321354Y-103714864D01*
X210194209Y-103819209D01*
X210168058Y-103851074D01*
X209592527Y-104426605D01*
X209560658Y-104452760D01*
X209459364Y-104576188D01*
X209456313Y-104579906D01*
X209378777Y-104724965D01*
X209331031Y-104882363D01*
X209314909Y-105046051D01*
X209318949Y-105087070D01*
X209318950Y-109761051D01*
X207231844Y-109761051D01*
X207051185Y-109540917D01*
X206825065Y-109355345D01*
X206567085Y-109217452D01*
X206287162Y-109132538D01*
X206069001Y-109111051D01*
X205955841Y-109111051D01*
X205991584Y-109044180D01*
X206027893Y-108924481D01*
X206040153Y-108800000D01*
X206027893Y-108675519D01*
X205991584Y-108555820D01*
X205932620Y-108445506D01*
X205853267Y-108348815D01*
X205452109Y-107952002D01*
X205227603Y-107952002D01*
X204379605Y-108800000D01*
X204393748Y-108814143D01*
X204214143Y-108993748D01*
X204200000Y-108979605D01*
X203352002Y-109827603D01*
X203352002Y-110052109D01*
X203748815Y-110453267D01*
X203845506Y-110532620D01*
X203955820Y-110591584D01*
X204075519Y-110627893D01*
X204200000Y-110640153D01*
X204324481Y-110627893D01*
X204444180Y-110591584D01*
X204507647Y-110557660D01*
X204503866Y-110596051D01*
X204532538Y-110887162D01*
X204617452Y-111167085D01*
X204755345Y-111425065D01*
X204940917Y-111651185D01*
X205161051Y-111831845D01*
X205161052Y-119965023D01*
X205161051Y-119965033D01*
X205161051Y-120394968D01*
X205161052Y-120394977D01*
X205161051Y-124470032D01*
X205157011Y-124511051D01*
X205161051Y-124552069D01*
X205173133Y-124674739D01*
X205220879Y-124832137D01*
X205298415Y-124977196D01*
X205402760Y-125104342D01*
X205434630Y-125130497D01*
X206180383Y-125876250D01*
X205943569Y-126113064D01*
X205911699Y-126139219D01*
X205848617Y-126216086D01*
X205807354Y-126266365D01*
X205729818Y-126411424D01*
X205682072Y-126568822D01*
X205665950Y-126732510D01*
X205669990Y-126773529D01*
X205669991Y-128441522D01*
X205665950Y-128482550D01*
X205682072Y-128646238D01*
X205729818Y-128803636D01*
X205807354Y-128948695D01*
X205825505Y-128970812D01*
X205911700Y-129075841D01*
X205943564Y-129101991D01*
X206372994Y-129531421D01*
X206399149Y-129563291D01*
X206526294Y-129667636D01*
X206671353Y-129745172D01*
X206828751Y-129792918D01*
X206951421Y-129805000D01*
X206951431Y-129805000D01*
X206992439Y-129809039D01*
X207033447Y-129805000D01*
X208530482Y-129805000D01*
X208555506Y-129825537D01*
X208665820Y-129884502D01*
X208785518Y-129920812D01*
X208910000Y-129933072D01*
X209427205Y-129933072D01*
X210925560Y-131431428D01*
X210951710Y-131463292D01*
X211016112Y-131516145D01*
X211078855Y-131567637D01*
X211223914Y-131645173D01*
X211381312Y-131692919D01*
X211545000Y-131709041D01*
X211586019Y-131705001D01*
X216640983Y-131705001D01*
X216682001Y-131709041D01*
X216723019Y-131705001D01*
X216723020Y-131705001D01*
X216845690Y-131692919D01*
X217003088Y-131645173D01*
X217148147Y-131567637D01*
X217217878Y-131510411D01*
X217224188Y-131574482D01*
X217260498Y-131694180D01*
X217319463Y-131804494D01*
X217398815Y-131901185D01*
X217495506Y-131980537D01*
X217605820Y-132039502D01*
X217725518Y-132075812D01*
X217850000Y-132088072D01*
X218107204Y-132088072D01*
X218250366Y-132231234D01*
X218210498Y-132305820D01*
X218174188Y-132425518D01*
X218161928Y-132550000D01*
X218165000Y-132714250D01*
X218323750Y-132873000D01*
X219073000Y-132873000D01*
X219073000Y-132853000D01*
X219327000Y-132853000D01*
X219327000Y-132873000D01*
X220076250Y-132873000D01*
X220235000Y-132714250D01*
X220235547Y-132684999D01*
X228308980Y-132685001D01*
X228349999Y-132689041D01*
X228391017Y-132685001D01*
X228391038Y-132684999D01*
X228513687Y-132672919D01*
X228671085Y-132625173D01*
X228816144Y-132547637D01*
X228816146Y-132547635D01*
X228943289Y-132443292D01*
X228969439Y-132411428D01*
X235307104Y-126073764D01*
X235363589Y-126085000D01*
X235636411Y-126085000D01*
X235903989Y-126031775D01*
X236156043Y-125927371D01*
X236382886Y-125775799D01*
X236575799Y-125582886D01*
X236727371Y-125356043D01*
X236831775Y-125103989D01*
X236885000Y-124836411D01*
X236885000Y-124563589D01*
X236831775Y-124296011D01*
X236727371Y-124043957D01*
X236699685Y-124002522D01*
X236803989Y-123981775D01*
X237056043Y-123877371D01*
X237282886Y-123725799D01*
X237475799Y-123532886D01*
X237627371Y-123306043D01*
X237731775Y-123053989D01*
X237773000Y-122846739D01*
X237773000Y-134973000D01*
X200727000Y-134973000D01*
X200727000Y-133450000D01*
X218161928Y-133450000D01*
X218174188Y-133574482D01*
X218210498Y-133694180D01*
X218269463Y-133804494D01*
X218348815Y-133901185D01*
X218445506Y-133980537D01*
X218555820Y-134039502D01*
X218675518Y-134075812D01*
X218800000Y-134088072D01*
X218914250Y-134085000D01*
X219073000Y-133926250D01*
X219073000Y-133127000D01*
X219327000Y-133127000D01*
X219327000Y-133926250D01*
X219485750Y-134085000D01*
X219600000Y-134088072D01*
X219724482Y-134075812D01*
X219844180Y-134039502D01*
X219954494Y-133980537D01*
X220051185Y-133901185D01*
X220130537Y-133804494D01*
X220189502Y-133694180D01*
X220225812Y-133574482D01*
X220238072Y-133450000D01*
X220235000Y-133285750D01*
X220076250Y-133127000D01*
X219327000Y-133127000D01*
X219073000Y-133127000D01*
X218323750Y-133127000D01*
X218165000Y-133285750D01*
X218161928Y-133450000D01*
X200727000Y-133450000D01*
X200727000Y-108800000D01*
X202359847Y-108800000D01*
X202372107Y-108924481D01*
X202408416Y-109044180D01*
X202467380Y-109154494D01*
X202546733Y-109251185D01*
X202947891Y-109647998D01*
X203172397Y-109647998D01*
X204020395Y-108800000D01*
X203172397Y-107952002D01*
X202947891Y-107952002D01*
X202546733Y-108348815D01*
X202467380Y-108445506D01*
X202408416Y-108555820D01*
X202372107Y-108675519D01*
X202359847Y-108800000D01*
X200727000Y-108800000D01*
X200727000Y-107547891D01*
X203352002Y-107547891D01*
X203352002Y-107772397D01*
X204200000Y-108620395D01*
X205047998Y-107772397D01*
X205047998Y-107547891D01*
X204651185Y-107146733D01*
X204554494Y-107067380D01*
X204444180Y-107008416D01*
X204324481Y-106972107D01*
X204200000Y-106959847D01*
X204075519Y-106972107D01*
X203955820Y-107008416D01*
X203845506Y-107067380D01*
X203748815Y-107146733D01*
X203352002Y-107547891D01*
X200727000Y-107547891D01*
X200727000Y-102115000D01*
X223066928Y-102115000D01*
X223070000Y-102266750D01*
X223228750Y-102425500D01*
X224053000Y-102425500D01*
X224053000Y-101638750D01*
X224307000Y-101638750D01*
X224307000Y-102425500D01*
X225131250Y-102425500D01*
X225290000Y-102266750D01*
X225293072Y-102115000D01*
X225280812Y-101990518D01*
X225244502Y-101870820D01*
X225185537Y-101760506D01*
X225106185Y-101663815D01*
X225009494Y-101584463D01*
X224899180Y-101525498D01*
X224779482Y-101489188D01*
X224655000Y-101476928D01*
X224465750Y-101480000D01*
X224307000Y-101638750D01*
X224053000Y-101638750D01*
X223894250Y-101480000D01*
X223705000Y-101476928D01*
X223580518Y-101489188D01*
X223460820Y-101525498D01*
X223350506Y-101584463D01*
X223253815Y-101663815D01*
X223174463Y-101760506D01*
X223115498Y-101870820D01*
X223079188Y-101990518D01*
X223066928Y-102115000D01*
X200727000Y-102115000D01*
X200727000Y-97427000D01*
X216582381Y-97427000D01*
X216497039Y-97497039D01*
G36*
X211067114Y-110175799D02*
G01*
X211293957Y-110327371D01*
X211546011Y-110431775D01*
X211813589Y-110485000D01*
X212086411Y-110485000D01*
X212142897Y-110473764D01*
X215330559Y-113661427D01*
X215356709Y-113693291D01*
X215483854Y-113797636D01*
X215628913Y-113875172D01*
X215786311Y-113922918D01*
X215908981Y-113935000D01*
X215908983Y-113935000D01*
X215949999Y-113939040D01*
X215991015Y-113935000D01*
X217754133Y-113935000D01*
X224880559Y-121061427D01*
X224906709Y-121093291D01*
X225033854Y-121197636D01*
X225178913Y-121275172D01*
X225336311Y-121322918D01*
X225458981Y-121335000D01*
X225458991Y-121335000D01*
X225499999Y-121339039D01*
X225541007Y-121335000D01*
X235292205Y-121335000D01*
X235324201Y-121382886D01*
X235516315Y-121575000D01*
X235324201Y-121767114D01*
X235292205Y-121815000D01*
X234991015Y-121815000D01*
X234949999Y-121810960D01*
X234908983Y-121815000D01*
X234908981Y-121815000D01*
X234786311Y-121827082D01*
X234628913Y-121874828D01*
X234483854Y-121952364D01*
X234356709Y-122056709D01*
X234330559Y-122088573D01*
X226254133Y-130165000D01*
X221055501Y-130165000D01*
X221001185Y-130098815D01*
X220904494Y-130019463D01*
X220794180Y-129960498D01*
X220674482Y-129924188D01*
X220550000Y-129911928D01*
X219750000Y-129911928D01*
X219625518Y-129924188D01*
X219505820Y-129960498D01*
X219395506Y-130019463D01*
X219298815Y-130098815D01*
X219219463Y-130195506D01*
X219200000Y-130231918D01*
X219180537Y-130195506D01*
X219101185Y-130098815D01*
X219004494Y-130019463D01*
X218894180Y-129960498D01*
X218774482Y-129924188D01*
X218650000Y-129911928D01*
X218115001Y-129911928D01*
X218115001Y-128575000D01*
X220686928Y-128575000D01*
X220699188Y-128699482D01*
X220735498Y-128819180D01*
X220794463Y-128929494D01*
X220873815Y-129026185D01*
X220970506Y-129105537D01*
X221080820Y-129164502D01*
X221200518Y-129200812D01*
X221325000Y-129213072D01*
X221801750Y-129210000D01*
X221960500Y-129051250D01*
X221960500Y-127027000D01*
X222214500Y-127027000D01*
X222214500Y-129051250D01*
X222373250Y-129210000D01*
X222850000Y-129213072D01*
X222974482Y-129200812D01*
X223094180Y-129164502D01*
X223204494Y-129105537D01*
X223301185Y-129026185D01*
X223380537Y-128929494D01*
X223439502Y-128819180D01*
X223475812Y-128699482D01*
X223488072Y-128575000D01*
X223485000Y-127185750D01*
X223326250Y-127027000D01*
X222214500Y-127027000D01*
X221960500Y-127027000D01*
X220848750Y-127027000D01*
X220690000Y-127185750D01*
X220686928Y-128575000D01*
X218115001Y-128575000D01*
X218115001Y-128108519D01*
X218119041Y-128067501D01*
X218115001Y-128026482D01*
X218102919Y-127903812D01*
X218055173Y-127746414D01*
X217977637Y-127601355D01*
X217873292Y-127474210D01*
X217841434Y-127448065D01*
X217513072Y-127119704D01*
X217513072Y-125474999D01*
X217496008Y-125301745D01*
X217472728Y-125225000D01*
X220686928Y-125225000D01*
X220690000Y-126614250D01*
X220848750Y-126773000D01*
X221960500Y-126773000D01*
X221960500Y-124748750D01*
X222214500Y-124748750D01*
X222214500Y-126773000D01*
X223326250Y-126773000D01*
X223485000Y-126614250D01*
X223488072Y-125225000D01*
X223475812Y-125100518D01*
X223439502Y-124980820D01*
X223380537Y-124870506D01*
X223301185Y-124773815D01*
X223204494Y-124694463D01*
X223094180Y-124635498D01*
X222974482Y-124599188D01*
X222850000Y-124586928D01*
X222373250Y-124590000D01*
X222214500Y-124748750D01*
X221960500Y-124748750D01*
X221801750Y-124590000D01*
X221325000Y-124586928D01*
X221200518Y-124599188D01*
X221080820Y-124635498D01*
X220970506Y-124694463D01*
X220873815Y-124773815D01*
X220794463Y-124870506D01*
X220735498Y-124980820D01*
X220699188Y-125100518D01*
X220686928Y-125225000D01*
X217472728Y-125225000D01*
X217445472Y-125135149D01*
X217363405Y-124981613D01*
X217252962Y-124847038D01*
X217118387Y-124736595D01*
X216964851Y-124654528D01*
X216798255Y-124603992D01*
X216625001Y-124586928D01*
X215599999Y-124586928D01*
X215426745Y-124603992D01*
X215260149Y-124654528D01*
X215106613Y-124736595D01*
X214972038Y-124847038D01*
X214861595Y-124981613D01*
X214779528Y-125135149D01*
X214728992Y-125301745D01*
X214711928Y-125474999D01*
X214711928Y-128135002D01*
X212549519Y-128135000D01*
X212524494Y-128114463D01*
X212414180Y-128055498D01*
X212297159Y-128020000D01*
X212414180Y-127984502D01*
X212524494Y-127925537D01*
X212621185Y-127846185D01*
X212700537Y-127749494D01*
X212759502Y-127639180D01*
X212795812Y-127519482D01*
X212808072Y-127395000D01*
X212808072Y-126745000D01*
X212795812Y-126620518D01*
X212759502Y-126500820D01*
X212700537Y-126390506D01*
X212621185Y-126293815D01*
X212524494Y-126214463D01*
X212414180Y-126155498D01*
X212294482Y-126119188D01*
X212170000Y-126106928D01*
X211110000Y-126106928D01*
X210985518Y-126119188D01*
X210865820Y-126155498D01*
X210755506Y-126214463D01*
X210658815Y-126293815D01*
X210579463Y-126390506D01*
X210540000Y-126464335D01*
X210500537Y-126390506D01*
X210421185Y-126293815D01*
X210324494Y-126214463D01*
X210214180Y-126155498D01*
X210094482Y-126119188D01*
X209970000Y-126106928D01*
X209657795Y-126106928D01*
X209421946Y-125871078D01*
X209395791Y-125839209D01*
X209268646Y-125734864D01*
X209123587Y-125657328D01*
X208966189Y-125609582D01*
X208843519Y-125597500D01*
X208843518Y-125597500D01*
X208802500Y-125593460D01*
X208761482Y-125597500D01*
X208229461Y-125597500D01*
X208119579Y-125507323D01*
X208077636Y-125428854D01*
X207973291Y-125301709D01*
X207941426Y-125275558D01*
X206831051Y-124165184D01*
X206831051Y-111831844D01*
X207051185Y-111651185D01*
X207231844Y-111431051D01*
X209553855Y-111431051D01*
X209560659Y-111439342D01*
X209592522Y-111465491D01*
X209763571Y-111636541D01*
X209858855Y-111714738D01*
X210003914Y-111792274D01*
X210161312Y-111840020D01*
X210325000Y-111856142D01*
X210488688Y-111840020D01*
X210646086Y-111792274D01*
X210791145Y-111714738D01*
X210918291Y-111610393D01*
X211022636Y-111483247D01*
X211100172Y-111338188D01*
X211147918Y-111180790D01*
X211164040Y-111017102D01*
X211147918Y-110853414D01*
X211100172Y-110696016D01*
X211022636Y-110550957D01*
X210988949Y-110509909D01*
X210988949Y-110097634D01*
X211067114Y-110175799D01*
X211067114Y-110175799D01*
G37*
X211067114Y-110175799D02*
X211293957Y-110327371D01*
X211546011Y-110431775D01*
X211813589Y-110485000D01*
X212086411Y-110485000D01*
X212142897Y-110473764D01*
X215330559Y-113661427D01*
X215356709Y-113693291D01*
X215483854Y-113797636D01*
X215628913Y-113875172D01*
X215786311Y-113922918D01*
X215908981Y-113935000D01*
X215908983Y-113935000D01*
X215949999Y-113939040D01*
X215991015Y-113935000D01*
X217754133Y-113935000D01*
X224880559Y-121061427D01*
X224906709Y-121093291D01*
X225033854Y-121197636D01*
X225178913Y-121275172D01*
X225336311Y-121322918D01*
X225458981Y-121335000D01*
X225458991Y-121335000D01*
X225499999Y-121339039D01*
X225541007Y-121335000D01*
X235292205Y-121335000D01*
X235324201Y-121382886D01*
X235516315Y-121575000D01*
X235324201Y-121767114D01*
X235292205Y-121815000D01*
X234991015Y-121815000D01*
X234949999Y-121810960D01*
X234908983Y-121815000D01*
X234908981Y-121815000D01*
X234786311Y-121827082D01*
X234628913Y-121874828D01*
X234483854Y-121952364D01*
X234356709Y-122056709D01*
X234330559Y-122088573D01*
X226254133Y-130165000D01*
X221055501Y-130165000D01*
X221001185Y-130098815D01*
X220904494Y-130019463D01*
X220794180Y-129960498D01*
X220674482Y-129924188D01*
X220550000Y-129911928D01*
X219750000Y-129911928D01*
X219625518Y-129924188D01*
X219505820Y-129960498D01*
X219395506Y-130019463D01*
X219298815Y-130098815D01*
X219219463Y-130195506D01*
X219200000Y-130231918D01*
X219180537Y-130195506D01*
X219101185Y-130098815D01*
X219004494Y-130019463D01*
X218894180Y-129960498D01*
X218774482Y-129924188D01*
X218650000Y-129911928D01*
X218115001Y-129911928D01*
X218115001Y-128575000D01*
X220686928Y-128575000D01*
X220699188Y-128699482D01*
X220735498Y-128819180D01*
X220794463Y-128929494D01*
X220873815Y-129026185D01*
X220970506Y-129105537D01*
X221080820Y-129164502D01*
X221200518Y-129200812D01*
X221325000Y-129213072D01*
X221801750Y-129210000D01*
X221960500Y-129051250D01*
X221960500Y-127027000D01*
X222214500Y-127027000D01*
X222214500Y-129051250D01*
X222373250Y-129210000D01*
X222850000Y-129213072D01*
X222974482Y-129200812D01*
X223094180Y-129164502D01*
X223204494Y-129105537D01*
X223301185Y-129026185D01*
X223380537Y-128929494D01*
X223439502Y-128819180D01*
X223475812Y-128699482D01*
X223488072Y-128575000D01*
X223485000Y-127185750D01*
X223326250Y-127027000D01*
X222214500Y-127027000D01*
X221960500Y-127027000D01*
X220848750Y-127027000D01*
X220690000Y-127185750D01*
X220686928Y-128575000D01*
X218115001Y-128575000D01*
X218115001Y-128108519D01*
X218119041Y-128067501D01*
X218115001Y-128026482D01*
X218102919Y-127903812D01*
X218055173Y-127746414D01*
X217977637Y-127601355D01*
X217873292Y-127474210D01*
X217841434Y-127448065D01*
X217513072Y-127119704D01*
X217513072Y-125474999D01*
X217496008Y-125301745D01*
X217472728Y-125225000D01*
X220686928Y-125225000D01*
X220690000Y-126614250D01*
X220848750Y-126773000D01*
X221960500Y-126773000D01*
X221960500Y-124748750D01*
X222214500Y-124748750D01*
X222214500Y-126773000D01*
X223326250Y-126773000D01*
X223485000Y-126614250D01*
X223488072Y-125225000D01*
X223475812Y-125100518D01*
X223439502Y-124980820D01*
X223380537Y-124870506D01*
X223301185Y-124773815D01*
X223204494Y-124694463D01*
X223094180Y-124635498D01*
X222974482Y-124599188D01*
X222850000Y-124586928D01*
X222373250Y-124590000D01*
X222214500Y-124748750D01*
X221960500Y-124748750D01*
X221801750Y-124590000D01*
X221325000Y-124586928D01*
X221200518Y-124599188D01*
X221080820Y-124635498D01*
X220970506Y-124694463D01*
X220873815Y-124773815D01*
X220794463Y-124870506D01*
X220735498Y-124980820D01*
X220699188Y-125100518D01*
X220686928Y-125225000D01*
X217472728Y-125225000D01*
X217445472Y-125135149D01*
X217363405Y-124981613D01*
X217252962Y-124847038D01*
X217118387Y-124736595D01*
X216964851Y-124654528D01*
X216798255Y-124603992D01*
X216625001Y-124586928D01*
X215599999Y-124586928D01*
X215426745Y-124603992D01*
X215260149Y-124654528D01*
X215106613Y-124736595D01*
X214972038Y-124847038D01*
X214861595Y-124981613D01*
X214779528Y-125135149D01*
X214728992Y-125301745D01*
X214711928Y-125474999D01*
X214711928Y-128135002D01*
X212549519Y-128135000D01*
X212524494Y-128114463D01*
X212414180Y-128055498D01*
X212297159Y-128020000D01*
X212414180Y-127984502D01*
X212524494Y-127925537D01*
X212621185Y-127846185D01*
X212700537Y-127749494D01*
X212759502Y-127639180D01*
X212795812Y-127519482D01*
X212808072Y-127395000D01*
X212808072Y-126745000D01*
X212795812Y-126620518D01*
X212759502Y-126500820D01*
X212700537Y-126390506D01*
X212621185Y-126293815D01*
X212524494Y-126214463D01*
X212414180Y-126155498D01*
X212294482Y-126119188D01*
X212170000Y-126106928D01*
X211110000Y-126106928D01*
X210985518Y-126119188D01*
X210865820Y-126155498D01*
X210755506Y-126214463D01*
X210658815Y-126293815D01*
X210579463Y-126390506D01*
X210540000Y-126464335D01*
X210500537Y-126390506D01*
X210421185Y-126293815D01*
X210324494Y-126214463D01*
X210214180Y-126155498D01*
X210094482Y-126119188D01*
X209970000Y-126106928D01*
X209657795Y-126106928D01*
X209421946Y-125871078D01*
X209395791Y-125839209D01*
X209268646Y-125734864D01*
X209123587Y-125657328D01*
X208966189Y-125609582D01*
X208843519Y-125597500D01*
X208843518Y-125597500D01*
X208802500Y-125593460D01*
X208761482Y-125597500D01*
X208229461Y-125597500D01*
X208119579Y-125507323D01*
X208077636Y-125428854D01*
X207973291Y-125301709D01*
X207941426Y-125275558D01*
X206831051Y-124165184D01*
X206831051Y-111831844D01*
X207051185Y-111651185D01*
X207231844Y-111431051D01*
X209553855Y-111431051D01*
X209560659Y-111439342D01*
X209592522Y-111465491D01*
X209763571Y-111636541D01*
X209858855Y-111714738D01*
X210003914Y-111792274D01*
X210161312Y-111840020D01*
X210325000Y-111856142D01*
X210488688Y-111840020D01*
X210646086Y-111792274D01*
X210791145Y-111714738D01*
X210918291Y-111610393D01*
X211022636Y-111483247D01*
X211100172Y-111338188D01*
X211147918Y-111180790D01*
X211164040Y-111017102D01*
X211147918Y-110853414D01*
X211100172Y-110696016D01*
X211022636Y-110550957D01*
X210988949Y-110509909D01*
X210988949Y-110097634D01*
X211067114Y-110175799D01*
G36*
X208433750Y-127893000D02*
G01*
X208515859Y-127893000D01*
X208555506Y-127925537D01*
X208665820Y-127984502D01*
X208782841Y-128020000D01*
X208665820Y-128055498D01*
X208555506Y-128114463D01*
X208530482Y-128135000D01*
X208331750Y-128135000D01*
X208331250Y-128134500D01*
X207507000Y-128134500D01*
X207507000Y-128135000D01*
X207339990Y-128135000D01*
X207339990Y-127860500D01*
X207507000Y-127860500D01*
X207507000Y-127880500D01*
X208331250Y-127880500D01*
X208376250Y-127835500D01*
X208433750Y-127893000D01*
X208433750Y-127893000D01*
G37*
X208433750Y-127893000D02*
X208515859Y-127893000D01*
X208555506Y-127925537D01*
X208665820Y-127984502D01*
X208782841Y-128020000D01*
X208665820Y-128055498D01*
X208555506Y-128114463D01*
X208530482Y-128135000D01*
X208331750Y-128135000D01*
X208331250Y-128134500D01*
X207507000Y-128134500D01*
X207507000Y-128135000D01*
X207339990Y-128135000D01*
X207339990Y-127860500D01*
X207507000Y-127860500D01*
X207507000Y-127880500D01*
X208331250Y-127880500D01*
X208376250Y-127835500D01*
X208433750Y-127893000D01*
G36*
X216236928Y-105674999D02*
G01*
X216253992Y-105848253D01*
X216304529Y-106014850D01*
X216386595Y-106168386D01*
X216497039Y-106302961D01*
X216631614Y-106413405D01*
X216785150Y-106495471D01*
X216951747Y-106546008D01*
X217125001Y-106563072D01*
X220083608Y-106563072D01*
X220101354Y-106577636D01*
X220246413Y-106655172D01*
X220403811Y-106702918D01*
X220526481Y-106715000D01*
X220526491Y-106715000D01*
X220567499Y-106719039D01*
X220608507Y-106715000D01*
X223186716Y-106715000D01*
X223135498Y-106810820D01*
X223099188Y-106930518D01*
X223086928Y-107055000D01*
X223090000Y-107244250D01*
X223248750Y-107403000D01*
X224035500Y-107403000D01*
X224035500Y-107383000D01*
X224289500Y-107383000D01*
X224289500Y-107403000D01*
X224309500Y-107403000D01*
X224309500Y-107657000D01*
X224289500Y-107657000D01*
X224289500Y-108481250D01*
X224448250Y-108640000D01*
X224600000Y-108643072D01*
X224724482Y-108630812D01*
X224844180Y-108594502D01*
X224954494Y-108535537D01*
X225021070Y-108480900D01*
X225042725Y-108498671D01*
X225190858Y-108577850D01*
X225351592Y-108626608D01*
X225518750Y-108643072D01*
X225669705Y-108643072D01*
X229748063Y-112721432D01*
X229774209Y-112753291D01*
X229806068Y-112779437D01*
X229806070Y-112779439D01*
X229901354Y-112857636D01*
X230046413Y-112935172D01*
X230203811Y-112982918D01*
X230367500Y-112999040D01*
X230408518Y-112995000D01*
X233632205Y-112995000D01*
X233664201Y-113042886D01*
X233857114Y-113235799D01*
X234083957Y-113387371D01*
X234336011Y-113491775D01*
X234603589Y-113545000D01*
X234876411Y-113545000D01*
X235143989Y-113491775D01*
X235396043Y-113387371D01*
X235565001Y-113274477D01*
X235565000Y-115192204D01*
X235517114Y-115224201D01*
X235324201Y-115417114D01*
X235172629Y-115643957D01*
X235068225Y-115896011D01*
X235015000Y-116163589D01*
X235015000Y-116436411D01*
X235068225Y-116703989D01*
X235172629Y-116956043D01*
X235324201Y-117182886D01*
X235517114Y-117375799D01*
X235553333Y-117400000D01*
X235517114Y-117424201D01*
X235324201Y-117617114D01*
X235292205Y-117665000D01*
X226645869Y-117665000D01*
X216985868Y-108005000D01*
X223086928Y-108005000D01*
X223099188Y-108129482D01*
X223135498Y-108249180D01*
X223194463Y-108359494D01*
X223273815Y-108456185D01*
X223370506Y-108535537D01*
X223480820Y-108594502D01*
X223600518Y-108630812D01*
X223725000Y-108643072D01*
X223876750Y-108640000D01*
X224035500Y-108481250D01*
X224035500Y-107657000D01*
X223248750Y-107657000D01*
X223090000Y-107815750D01*
X223086928Y-108005000D01*
X216985868Y-108005000D01*
X216169446Y-107188579D01*
X216143291Y-107156709D01*
X216016146Y-107052364D01*
X215871087Y-106974828D01*
X215713689Y-106927082D01*
X215591019Y-106915000D01*
X215591018Y-106915000D01*
X215550000Y-106910960D01*
X215508982Y-106915000D01*
X214507795Y-106915000D01*
X214475799Y-106867114D01*
X214282886Y-106674201D01*
X214056043Y-106522629D01*
X213803989Y-106418225D01*
X213536411Y-106365000D01*
X213263589Y-106365000D01*
X212996011Y-106418225D01*
X212743957Y-106522629D01*
X212517114Y-106674201D01*
X212324201Y-106867114D01*
X212172629Y-107093957D01*
X212068225Y-107346011D01*
X212015000Y-107613589D01*
X212015000Y-107715000D01*
X211813589Y-107715000D01*
X211546011Y-107768225D01*
X211293957Y-107872629D01*
X211067114Y-108024201D01*
X210988949Y-108102366D01*
X210988949Y-105391918D01*
X211133368Y-105247500D01*
X216236928Y-105247500D01*
X216236928Y-105674999D01*
X216236928Y-105674999D01*
G37*
X216236928Y-105674999D02*
X216253992Y-105848253D01*
X216304529Y-106014850D01*
X216386595Y-106168386D01*
X216497039Y-106302961D01*
X216631614Y-106413405D01*
X216785150Y-106495471D01*
X216951747Y-106546008D01*
X217125001Y-106563072D01*
X220083608Y-106563072D01*
X220101354Y-106577636D01*
X220246413Y-106655172D01*
X220403811Y-106702918D01*
X220526481Y-106715000D01*
X220526491Y-106715000D01*
X220567499Y-106719039D01*
X220608507Y-106715000D01*
X223186716Y-106715000D01*
X223135498Y-106810820D01*
X223099188Y-106930518D01*
X223086928Y-107055000D01*
X223090000Y-107244250D01*
X223248750Y-107403000D01*
X224035500Y-107403000D01*
X224035500Y-107383000D01*
X224289500Y-107383000D01*
X224289500Y-107403000D01*
X224309500Y-107403000D01*
X224309500Y-107657000D01*
X224289500Y-107657000D01*
X224289500Y-108481250D01*
X224448250Y-108640000D01*
X224600000Y-108643072D01*
X224724482Y-108630812D01*
X224844180Y-108594502D01*
X224954494Y-108535537D01*
X225021070Y-108480900D01*
X225042725Y-108498671D01*
X225190858Y-108577850D01*
X225351592Y-108626608D01*
X225518750Y-108643072D01*
X225669705Y-108643072D01*
X229748063Y-112721432D01*
X229774209Y-112753291D01*
X229806068Y-112779437D01*
X229806070Y-112779439D01*
X229901354Y-112857636D01*
X230046413Y-112935172D01*
X230203811Y-112982918D01*
X230367500Y-112999040D01*
X230408518Y-112995000D01*
X233632205Y-112995000D01*
X233664201Y-113042886D01*
X233857114Y-113235799D01*
X234083957Y-113387371D01*
X234336011Y-113491775D01*
X234603589Y-113545000D01*
X234876411Y-113545000D01*
X235143989Y-113491775D01*
X235396043Y-113387371D01*
X235565001Y-113274477D01*
X235565000Y-115192204D01*
X235517114Y-115224201D01*
X235324201Y-115417114D01*
X235172629Y-115643957D01*
X235068225Y-115896011D01*
X235015000Y-116163589D01*
X235015000Y-116436411D01*
X235068225Y-116703989D01*
X235172629Y-116956043D01*
X235324201Y-117182886D01*
X235517114Y-117375799D01*
X235553333Y-117400000D01*
X235517114Y-117424201D01*
X235324201Y-117617114D01*
X235292205Y-117665000D01*
X226645869Y-117665000D01*
X216985868Y-108005000D01*
X223086928Y-108005000D01*
X223099188Y-108129482D01*
X223135498Y-108249180D01*
X223194463Y-108359494D01*
X223273815Y-108456185D01*
X223370506Y-108535537D01*
X223480820Y-108594502D01*
X223600518Y-108630812D01*
X223725000Y-108643072D01*
X223876750Y-108640000D01*
X224035500Y-108481250D01*
X224035500Y-107657000D01*
X223248750Y-107657000D01*
X223090000Y-107815750D01*
X223086928Y-108005000D01*
X216985868Y-108005000D01*
X216169446Y-107188579D01*
X216143291Y-107156709D01*
X216016146Y-107052364D01*
X215871087Y-106974828D01*
X215713689Y-106927082D01*
X215591019Y-106915000D01*
X215591018Y-106915000D01*
X215550000Y-106910960D01*
X215508982Y-106915000D01*
X214507795Y-106915000D01*
X214475799Y-106867114D01*
X214282886Y-106674201D01*
X214056043Y-106522629D01*
X213803989Y-106418225D01*
X213536411Y-106365000D01*
X213263589Y-106365000D01*
X212996011Y-106418225D01*
X212743957Y-106522629D01*
X212517114Y-106674201D01*
X212324201Y-106867114D01*
X212172629Y-107093957D01*
X212068225Y-107346011D01*
X212015000Y-107613589D01*
X212015000Y-107715000D01*
X211813589Y-107715000D01*
X211546011Y-107768225D01*
X211293957Y-107872629D01*
X211067114Y-108024201D01*
X210988949Y-108102366D01*
X210988949Y-105391918D01*
X211133368Y-105247500D01*
X216236928Y-105247500D01*
X216236928Y-105674999D01*
G36*
X237773000Y-116103261D02*
G01*
X237731775Y-115896011D01*
X237627371Y-115643957D01*
X237475799Y-115417114D01*
X237282886Y-115224201D01*
X237235000Y-115192205D01*
X237235000Y-109868507D01*
X237239039Y-109827499D01*
X237235000Y-109786491D01*
X237235000Y-109786481D01*
X237222918Y-109663811D01*
X237175172Y-109506413D01*
X237097636Y-109361354D01*
X236993291Y-109234209D01*
X236961428Y-109208060D01*
X233709665Y-105956297D01*
X233716608Y-105933408D01*
X233733072Y-105766250D01*
X233733072Y-105253750D01*
X233716608Y-105086592D01*
X233667850Y-104925858D01*
X233641512Y-104876583D01*
X233655537Y-104859494D01*
X233714502Y-104749180D01*
X233750812Y-104629482D01*
X233763072Y-104505000D01*
X233760000Y-104315750D01*
X233601250Y-104157000D01*
X232814500Y-104157000D01*
X232814500Y-104177000D01*
X232560500Y-104177000D01*
X232560500Y-104157000D01*
X232540500Y-104157000D01*
X232540500Y-103903000D01*
X232560500Y-103903000D01*
X232560500Y-103078750D01*
X232814500Y-103078750D01*
X232814500Y-103903000D01*
X233601250Y-103903000D01*
X233760000Y-103744250D01*
X233763072Y-103555000D01*
X233750812Y-103430518D01*
X233714502Y-103310820D01*
X233655537Y-103200506D01*
X233576185Y-103103815D01*
X233479494Y-103024463D01*
X233369180Y-102965498D01*
X233249482Y-102929188D01*
X233125000Y-102916928D01*
X232973250Y-102920000D01*
X232814500Y-103078750D01*
X232560500Y-103078750D01*
X232401750Y-102920000D01*
X232250000Y-102916928D01*
X232125518Y-102929188D01*
X232005820Y-102965498D01*
X231895506Y-103024463D01*
X231828930Y-103079100D01*
X231807275Y-103061329D01*
X231659142Y-102982150D01*
X231498408Y-102933392D01*
X231331250Y-102916928D01*
X231180296Y-102916928D01*
X230288072Y-102024705D01*
X230288072Y-101950000D01*
X230275812Y-101825518D01*
X230239502Y-101705820D01*
X230180537Y-101595506D01*
X230101185Y-101498815D01*
X230004494Y-101419463D01*
X229894180Y-101360498D01*
X229774482Y-101324188D01*
X229650000Y-101311928D01*
X228750000Y-101311928D01*
X228625518Y-101324188D01*
X228505820Y-101360498D01*
X228395506Y-101419463D01*
X228298815Y-101498815D01*
X228219463Y-101595506D01*
X228160498Y-101705820D01*
X228124188Y-101825518D01*
X228111928Y-101950000D01*
X228111928Y-102461905D01*
X228101185Y-102448815D01*
X228028090Y-102388828D01*
X228022918Y-102336312D01*
X228020861Y-102329529D01*
X227975172Y-102178913D01*
X227897636Y-102033854D01*
X227793291Y-101906709D01*
X227761433Y-101880564D01*
X224706946Y-98826079D01*
X224680791Y-98794209D01*
X224553646Y-98689864D01*
X224408587Y-98612328D01*
X224251189Y-98564582D01*
X224128519Y-98552500D01*
X224128518Y-98552500D01*
X224087500Y-98548460D01*
X224046482Y-98552500D01*
X221963072Y-98552500D01*
X221963072Y-98125001D01*
X221946008Y-97951747D01*
X221895471Y-97785150D01*
X221813405Y-97631614D01*
X221702961Y-97497039D01*
X221617619Y-97427000D01*
X237773000Y-97427000D01*
X237773000Y-116103261D01*
X237773000Y-116103261D01*
G37*
X237773000Y-116103261D02*
X237731775Y-115896011D01*
X237627371Y-115643957D01*
X237475799Y-115417114D01*
X237282886Y-115224201D01*
X237235000Y-115192205D01*
X237235000Y-109868507D01*
X237239039Y-109827499D01*
X237235000Y-109786491D01*
X237235000Y-109786481D01*
X237222918Y-109663811D01*
X237175172Y-109506413D01*
X237097636Y-109361354D01*
X236993291Y-109234209D01*
X236961428Y-109208060D01*
X233709665Y-105956297D01*
X233716608Y-105933408D01*
X233733072Y-105766250D01*
X233733072Y-105253750D01*
X233716608Y-105086592D01*
X233667850Y-104925858D01*
X233641512Y-104876583D01*
X233655537Y-104859494D01*
X233714502Y-104749180D01*
X233750812Y-104629482D01*
X233763072Y-104505000D01*
X233760000Y-104315750D01*
X233601250Y-104157000D01*
X232814500Y-104157000D01*
X232814500Y-104177000D01*
X232560500Y-104177000D01*
X232560500Y-104157000D01*
X232540500Y-104157000D01*
X232540500Y-103903000D01*
X232560500Y-103903000D01*
X232560500Y-103078750D01*
X232814500Y-103078750D01*
X232814500Y-103903000D01*
X233601250Y-103903000D01*
X233760000Y-103744250D01*
X233763072Y-103555000D01*
X233750812Y-103430518D01*
X233714502Y-103310820D01*
X233655537Y-103200506D01*
X233576185Y-103103815D01*
X233479494Y-103024463D01*
X233369180Y-102965498D01*
X233249482Y-102929188D01*
X233125000Y-102916928D01*
X232973250Y-102920000D01*
X232814500Y-103078750D01*
X232560500Y-103078750D01*
X232401750Y-102920000D01*
X232250000Y-102916928D01*
X232125518Y-102929188D01*
X232005820Y-102965498D01*
X231895506Y-103024463D01*
X231828930Y-103079100D01*
X231807275Y-103061329D01*
X231659142Y-102982150D01*
X231498408Y-102933392D01*
X231331250Y-102916928D01*
X231180296Y-102916928D01*
X230288072Y-102024705D01*
X230288072Y-101950000D01*
X230275812Y-101825518D01*
X230239502Y-101705820D01*
X230180537Y-101595506D01*
X230101185Y-101498815D01*
X230004494Y-101419463D01*
X229894180Y-101360498D01*
X229774482Y-101324188D01*
X229650000Y-101311928D01*
X228750000Y-101311928D01*
X228625518Y-101324188D01*
X228505820Y-101360498D01*
X228395506Y-101419463D01*
X228298815Y-101498815D01*
X228219463Y-101595506D01*
X228160498Y-101705820D01*
X228124188Y-101825518D01*
X228111928Y-101950000D01*
X228111928Y-102461905D01*
X228101185Y-102448815D01*
X228028090Y-102388828D01*
X228022918Y-102336312D01*
X228020861Y-102329529D01*
X227975172Y-102178913D01*
X227897636Y-102033854D01*
X227793291Y-101906709D01*
X227761433Y-101880564D01*
X224706946Y-98826079D01*
X224680791Y-98794209D01*
X224553646Y-98689864D01*
X224408587Y-98612328D01*
X224251189Y-98564582D01*
X224128519Y-98552500D01*
X224128518Y-98552500D01*
X224087500Y-98548460D01*
X224046482Y-98552500D01*
X221963072Y-98552500D01*
X221963072Y-98125001D01*
X221946008Y-97951747D01*
X221895471Y-97785150D01*
X221813405Y-97631614D01*
X221702961Y-97497039D01*
X221617619Y-97427000D01*
X237773000Y-97427000D01*
X237773000Y-116103261D01*
M02*
