G04 #@! TF.GenerationSoftware,KiCad,Pcbnew,5.1.4-1.fc30*
G04 #@! TF.CreationDate,2020-10-18T16:52:28+02:00*
G04 #@! TF.ProjectId,synchro2,73796e63-6872-46f3-922e-6b696361645f,rev?*
G04 #@! TF.SameCoordinates,Original*
G04 #@! TF.FileFunction,Soldermask,Bot*
G04 #@! TF.FilePolarity,Negative*
%FSLAX46Y46*%
G04 Gerber Fmt 4.6, Leading zero omitted, Abs format (unit mm)*
G04 Created by KiCad (PCBNEW 5.1.4-1.fc30) date 2020-10-18 16:52:28*
%MOMM*%
%LPD*%
G04 APERTURE LIST*
%ADD10C,0.100000*%
G04 APERTURE END LIST*
D10*
G36*
X219651000Y-133501000D02*
G01*
X218749000Y-133501000D01*
X218749000Y-132499000D01*
X219651000Y-132499000D01*
X219651000Y-133501000D01*
X219651000Y-133501000D01*
G37*
G36*
X220601000Y-131501000D02*
G01*
X219699000Y-131501000D01*
X219699000Y-130499000D01*
X220601000Y-130499000D01*
X220601000Y-131501000D01*
X220601000Y-131501000D01*
G37*
G36*
X218701000Y-131501000D02*
G01*
X217799000Y-131501000D01*
X217799000Y-130499000D01*
X218701000Y-130499000D01*
X218701000Y-131501000D01*
X218701000Y-131501000D01*
G37*
G36*
X212221000Y-129346000D02*
G01*
X211059000Y-129346000D01*
X211059000Y-128594000D01*
X212221000Y-128594000D01*
X212221000Y-129346000D01*
X212221000Y-129346000D01*
G37*
G36*
X210021000Y-129346000D02*
G01*
X208859000Y-129346000D01*
X208859000Y-126694000D01*
X210021000Y-126694000D01*
X210021000Y-129346000D01*
X210021000Y-129346000D01*
G37*
G36*
X207759591Y-127523085D02*
G01*
X207793569Y-127533393D01*
X207824890Y-127550134D01*
X207852339Y-127572661D01*
X207874866Y-127600110D01*
X207891607Y-127631431D01*
X207901915Y-127665409D01*
X207906000Y-127706890D01*
X207906000Y-128308110D01*
X207901915Y-128349591D01*
X207891607Y-128383569D01*
X207874866Y-128414890D01*
X207852339Y-128442339D01*
X207824890Y-128464866D01*
X207793569Y-128481607D01*
X207759591Y-128491915D01*
X207718110Y-128496000D01*
X207041890Y-128496000D01*
X207000409Y-128491915D01*
X206966431Y-128481607D01*
X206935110Y-128464866D01*
X206907661Y-128442339D01*
X206885134Y-128414890D01*
X206868393Y-128383569D01*
X206858085Y-128349591D01*
X206854000Y-128308110D01*
X206854000Y-127706890D01*
X206858085Y-127665409D01*
X206868393Y-127631431D01*
X206885134Y-127600110D01*
X206907661Y-127572661D01*
X206935110Y-127550134D01*
X206966431Y-127533393D01*
X207000409Y-127523085D01*
X207041890Y-127519000D01*
X207718110Y-127519000D01*
X207759591Y-127523085D01*
X207759591Y-127523085D01*
G37*
G36*
X218548604Y-126278347D02*
G01*
X218585144Y-126289432D01*
X218618821Y-126307433D01*
X218648341Y-126331659D01*
X218672567Y-126361179D01*
X218690568Y-126394856D01*
X218701653Y-126431396D01*
X218706000Y-126475538D01*
X218706000Y-127924462D01*
X218701653Y-127968604D01*
X218690568Y-128005144D01*
X218672567Y-128038821D01*
X218648341Y-128068341D01*
X218618821Y-128092567D01*
X218585144Y-128110568D01*
X218548604Y-128121653D01*
X218504462Y-128126000D01*
X217555538Y-128126000D01*
X217511396Y-128121653D01*
X217474856Y-128110568D01*
X217441179Y-128092567D01*
X217411659Y-128068341D01*
X217387433Y-128038821D01*
X217369432Y-128005144D01*
X217358347Y-127968604D01*
X217354000Y-127924462D01*
X217354000Y-126475538D01*
X217358347Y-126431396D01*
X217369432Y-126394856D01*
X217387433Y-126361179D01*
X217411659Y-126331659D01*
X217441179Y-126307433D01*
X217474856Y-126289432D01*
X217511396Y-126278347D01*
X217555538Y-126274000D01*
X218504462Y-126274000D01*
X218548604Y-126278347D01*
X218548604Y-126278347D01*
G37*
G36*
X215748604Y-126278347D02*
G01*
X215785144Y-126289432D01*
X215818821Y-126307433D01*
X215848341Y-126331659D01*
X215872567Y-126361179D01*
X215890568Y-126394856D01*
X215901653Y-126431396D01*
X215906000Y-126475538D01*
X215906000Y-127924462D01*
X215901653Y-127968604D01*
X215890568Y-128005144D01*
X215872567Y-128038821D01*
X215848341Y-128068341D01*
X215818821Y-128092567D01*
X215785144Y-128110568D01*
X215748604Y-128121653D01*
X215704462Y-128126000D01*
X214755538Y-128126000D01*
X214711396Y-128121653D01*
X214674856Y-128110568D01*
X214641179Y-128092567D01*
X214611659Y-128068341D01*
X214587433Y-128038821D01*
X214569432Y-128005144D01*
X214558347Y-127968604D01*
X214554000Y-127924462D01*
X214554000Y-126475538D01*
X214558347Y-126431396D01*
X214569432Y-126394856D01*
X214587433Y-126361179D01*
X214611659Y-126331659D01*
X214641179Y-126307433D01*
X214674856Y-126289432D01*
X214711396Y-126278347D01*
X214755538Y-126274000D01*
X215704462Y-126274000D01*
X215748604Y-126278347D01*
X215748604Y-126278347D01*
G37*
G36*
X212221000Y-127446000D02*
G01*
X211059000Y-127446000D01*
X211059000Y-126694000D01*
X212221000Y-126694000D01*
X212221000Y-127446000D01*
X212221000Y-127446000D01*
G37*
G36*
X207759591Y-125948085D02*
G01*
X207793569Y-125958393D01*
X207824890Y-125975134D01*
X207852339Y-125997661D01*
X207874866Y-126025110D01*
X207891607Y-126056431D01*
X207901915Y-126090409D01*
X207906000Y-126131890D01*
X207906000Y-126733110D01*
X207901915Y-126774591D01*
X207891607Y-126808569D01*
X207874866Y-126839890D01*
X207852339Y-126867339D01*
X207824890Y-126889866D01*
X207793569Y-126906607D01*
X207759591Y-126916915D01*
X207718110Y-126921000D01*
X207041890Y-126921000D01*
X207000409Y-126916915D01*
X206966431Y-126906607D01*
X206935110Y-126889866D01*
X206907661Y-126867339D01*
X206885134Y-126839890D01*
X206868393Y-126808569D01*
X206858085Y-126774591D01*
X206854000Y-126733110D01*
X206854000Y-126131890D01*
X206858085Y-126090409D01*
X206868393Y-126056431D01*
X206885134Y-126025110D01*
X206907661Y-125997661D01*
X206935110Y-125975134D01*
X206966431Y-125958393D01*
X207000409Y-125948085D01*
X207041890Y-125944000D01*
X207718110Y-125944000D01*
X207759591Y-125948085D01*
X207759591Y-125948085D01*
G37*
G36*
X206106494Y-109701570D02*
G01*
X206172678Y-109708088D01*
X206342517Y-109759608D01*
X206499042Y-109843273D01*
X206534780Y-109872603D01*
X206636237Y-109955865D01*
X206719499Y-110057322D01*
X206748829Y-110093060D01*
X206832494Y-110249585D01*
X206884014Y-110419424D01*
X206901410Y-110596051D01*
X206884014Y-110772678D01*
X206832494Y-110942517D01*
X206748829Y-111099042D01*
X206719499Y-111134780D01*
X206636237Y-111236237D01*
X206534780Y-111319499D01*
X206499042Y-111348829D01*
X206342517Y-111432494D01*
X206172678Y-111484014D01*
X206106494Y-111490532D01*
X206040311Y-111497051D01*
X205951791Y-111497051D01*
X205885608Y-111490532D01*
X205819424Y-111484014D01*
X205649585Y-111432494D01*
X205493060Y-111348829D01*
X205457322Y-111319499D01*
X205355865Y-111236237D01*
X205272603Y-111134780D01*
X205243273Y-111099042D01*
X205159608Y-110942517D01*
X205108088Y-110772678D01*
X205090692Y-110596051D01*
X205108088Y-110419424D01*
X205159608Y-110249585D01*
X205243273Y-110093060D01*
X205272603Y-110057322D01*
X205355865Y-109955865D01*
X205457322Y-109872603D01*
X205493060Y-109843273D01*
X205649585Y-109759608D01*
X205819424Y-109708088D01*
X205885608Y-109701570D01*
X205951791Y-109695051D01*
X206040311Y-109695051D01*
X206106494Y-109701570D01*
X206106494Y-109701570D01*
G37*
G36*
X205474206Y-108800000D02*
G01*
X204200000Y-110074206D01*
X202925794Y-108800000D01*
X204200000Y-107525794D01*
X205474206Y-108800000D01*
X205474206Y-108800000D01*
G37*
G36*
X226079591Y-107008085D02*
G01*
X226113569Y-107018393D01*
X226144890Y-107035134D01*
X226172339Y-107057661D01*
X226194866Y-107085110D01*
X226211607Y-107116431D01*
X226221915Y-107150409D01*
X226226000Y-107191890D01*
X226226000Y-107868110D01*
X226221915Y-107909591D01*
X226211607Y-107943569D01*
X226194866Y-107974890D01*
X226172339Y-108002339D01*
X226144890Y-108024866D01*
X226113569Y-108041607D01*
X226079591Y-108051915D01*
X226038110Y-108056000D01*
X225436890Y-108056000D01*
X225395409Y-108051915D01*
X225361431Y-108041607D01*
X225330110Y-108024866D01*
X225302661Y-108002339D01*
X225280134Y-107974890D01*
X225263393Y-107943569D01*
X225253085Y-107909591D01*
X225249000Y-107868110D01*
X225249000Y-107191890D01*
X225253085Y-107150409D01*
X225263393Y-107116431D01*
X225280134Y-107085110D01*
X225302661Y-107057661D01*
X225330110Y-107035134D01*
X225361431Y-107018393D01*
X225395409Y-107008085D01*
X225436890Y-107004000D01*
X226038110Y-107004000D01*
X226079591Y-107008085D01*
X226079591Y-107008085D01*
G37*
G36*
X224504591Y-107008085D02*
G01*
X224538569Y-107018393D01*
X224569890Y-107035134D01*
X224597339Y-107057661D01*
X224619866Y-107085110D01*
X224636607Y-107116431D01*
X224646915Y-107150409D01*
X224651000Y-107191890D01*
X224651000Y-107868110D01*
X224646915Y-107909591D01*
X224636607Y-107943569D01*
X224619866Y-107974890D01*
X224597339Y-108002339D01*
X224569890Y-108024866D01*
X224538569Y-108041607D01*
X224504591Y-108051915D01*
X224463110Y-108056000D01*
X223861890Y-108056000D01*
X223820409Y-108051915D01*
X223786431Y-108041607D01*
X223755110Y-108024866D01*
X223727661Y-108002339D01*
X223705134Y-107974890D01*
X223688393Y-107943569D01*
X223678085Y-107909591D01*
X223674000Y-107868110D01*
X223674000Y-107191890D01*
X223678085Y-107150409D01*
X223688393Y-107116431D01*
X223705134Y-107085110D01*
X223727661Y-107057661D01*
X223755110Y-107035134D01*
X223786431Y-107018393D01*
X223820409Y-107008085D01*
X223861890Y-107004000D01*
X224463110Y-107004000D01*
X224504591Y-107008085D01*
X224504591Y-107008085D01*
G37*
G36*
X224514591Y-105358085D02*
G01*
X224548569Y-105368393D01*
X224579890Y-105385134D01*
X224607339Y-105407661D01*
X224629866Y-105435110D01*
X224646607Y-105466431D01*
X224656915Y-105500409D01*
X224661000Y-105541890D01*
X224661000Y-106218110D01*
X224656915Y-106259591D01*
X224646607Y-106293569D01*
X224629866Y-106324890D01*
X224607339Y-106352339D01*
X224579890Y-106374866D01*
X224548569Y-106391607D01*
X224514591Y-106401915D01*
X224473110Y-106406000D01*
X223871890Y-106406000D01*
X223830409Y-106401915D01*
X223796431Y-106391607D01*
X223765110Y-106374866D01*
X223737661Y-106352339D01*
X223715134Y-106324890D01*
X223698393Y-106293569D01*
X223688085Y-106259591D01*
X223684000Y-106218110D01*
X223684000Y-105541890D01*
X223688085Y-105500409D01*
X223698393Y-105466431D01*
X223715134Y-105435110D01*
X223737661Y-105407661D01*
X223765110Y-105385134D01*
X223796431Y-105368393D01*
X223830409Y-105358085D01*
X223871890Y-105354000D01*
X224473110Y-105354000D01*
X224514591Y-105358085D01*
X224514591Y-105358085D01*
G37*
G36*
X226089591Y-105358085D02*
G01*
X226123569Y-105368393D01*
X226154890Y-105385134D01*
X226182339Y-105407661D01*
X226204866Y-105435110D01*
X226221607Y-105466431D01*
X226231915Y-105500409D01*
X226236000Y-105541890D01*
X226236000Y-106218110D01*
X226231915Y-106259591D01*
X226221607Y-106293569D01*
X226204866Y-106324890D01*
X226182339Y-106352339D01*
X226154890Y-106374866D01*
X226123569Y-106391607D01*
X226089591Y-106401915D01*
X226048110Y-106406000D01*
X225446890Y-106406000D01*
X225405409Y-106401915D01*
X225371431Y-106391607D01*
X225340110Y-106374866D01*
X225312661Y-106352339D01*
X225290134Y-106324890D01*
X225273393Y-106293569D01*
X225263085Y-106259591D01*
X225259000Y-106218110D01*
X225259000Y-105541890D01*
X225263085Y-105500409D01*
X225273393Y-105466431D01*
X225290134Y-105435110D01*
X225312661Y-105407661D01*
X225340110Y-105385134D01*
X225371431Y-105368393D01*
X225405409Y-105358085D01*
X225446890Y-105354000D01*
X226048110Y-105354000D01*
X226089591Y-105358085D01*
X226089591Y-105358085D01*
G37*
G36*
X231424591Y-104988085D02*
G01*
X231458569Y-104998393D01*
X231489890Y-105015134D01*
X231517339Y-105037661D01*
X231539866Y-105065110D01*
X231556607Y-105096431D01*
X231566915Y-105130409D01*
X231571000Y-105171890D01*
X231571000Y-105848110D01*
X231566915Y-105889591D01*
X231556607Y-105923569D01*
X231539866Y-105954890D01*
X231517339Y-105982339D01*
X231489890Y-106004866D01*
X231458569Y-106021607D01*
X231424591Y-106031915D01*
X231383110Y-106036000D01*
X230781890Y-106036000D01*
X230740409Y-106031915D01*
X230706431Y-106021607D01*
X230675110Y-106004866D01*
X230647661Y-105982339D01*
X230625134Y-105954890D01*
X230608393Y-105923569D01*
X230598085Y-105889591D01*
X230594000Y-105848110D01*
X230594000Y-105171890D01*
X230598085Y-105130409D01*
X230608393Y-105096431D01*
X230625134Y-105065110D01*
X230647661Y-105037661D01*
X230675110Y-105015134D01*
X230706431Y-104998393D01*
X230740409Y-104988085D01*
X230781890Y-104984000D01*
X231383110Y-104984000D01*
X231424591Y-104988085D01*
X231424591Y-104988085D01*
G37*
G36*
X232999591Y-104988085D02*
G01*
X233033569Y-104998393D01*
X233064890Y-105015134D01*
X233092339Y-105037661D01*
X233114866Y-105065110D01*
X233131607Y-105096431D01*
X233141915Y-105130409D01*
X233146000Y-105171890D01*
X233146000Y-105848110D01*
X233141915Y-105889591D01*
X233131607Y-105923569D01*
X233114866Y-105954890D01*
X233092339Y-105982339D01*
X233064890Y-106004866D01*
X233033569Y-106021607D01*
X232999591Y-106031915D01*
X232958110Y-106036000D01*
X232356890Y-106036000D01*
X232315409Y-106031915D01*
X232281431Y-106021607D01*
X232250110Y-106004866D01*
X232222661Y-105982339D01*
X232200134Y-105954890D01*
X232183393Y-105923569D01*
X232173085Y-105889591D01*
X232169000Y-105848110D01*
X232169000Y-105171890D01*
X232173085Y-105130409D01*
X232183393Y-105096431D01*
X232200134Y-105065110D01*
X232222661Y-105037661D01*
X232250110Y-105015134D01*
X232281431Y-104998393D01*
X232315409Y-104988085D01*
X232356890Y-104984000D01*
X232958110Y-104984000D01*
X232999591Y-104988085D01*
X232999591Y-104988085D01*
G37*
G36*
X229701000Y-104701000D02*
G01*
X228699000Y-104701000D01*
X228699000Y-103799000D01*
X229701000Y-103799000D01*
X229701000Y-104701000D01*
X229701000Y-104701000D01*
G37*
G36*
X224559591Y-103643085D02*
G01*
X224593569Y-103653393D01*
X224624890Y-103670134D01*
X224652339Y-103692661D01*
X224674866Y-103720110D01*
X224691607Y-103751431D01*
X224701915Y-103785409D01*
X224706000Y-103826890D01*
X224706000Y-104428110D01*
X224701915Y-104469591D01*
X224691607Y-104503569D01*
X224674866Y-104534890D01*
X224652339Y-104562339D01*
X224624890Y-104584866D01*
X224593569Y-104601607D01*
X224559591Y-104611915D01*
X224518110Y-104616000D01*
X223841890Y-104616000D01*
X223800409Y-104611915D01*
X223766431Y-104601607D01*
X223735110Y-104584866D01*
X223707661Y-104562339D01*
X223685134Y-104534890D01*
X223668393Y-104503569D01*
X223658085Y-104469591D01*
X223654000Y-104428110D01*
X223654000Y-103826890D01*
X223658085Y-103785409D01*
X223668393Y-103751431D01*
X223685134Y-103720110D01*
X223707661Y-103692661D01*
X223735110Y-103670134D01*
X223766431Y-103653393D01*
X223800409Y-103643085D01*
X223841890Y-103639000D01*
X224518110Y-103639000D01*
X224559591Y-103643085D01*
X224559591Y-103643085D01*
G37*
G36*
X231454591Y-103508085D02*
G01*
X231488569Y-103518393D01*
X231519890Y-103535134D01*
X231547339Y-103557661D01*
X231569866Y-103585110D01*
X231586607Y-103616431D01*
X231596915Y-103650409D01*
X231601000Y-103691890D01*
X231601000Y-104368110D01*
X231596915Y-104409591D01*
X231586607Y-104443569D01*
X231569866Y-104474890D01*
X231547339Y-104502339D01*
X231519890Y-104524866D01*
X231488569Y-104541607D01*
X231454591Y-104551915D01*
X231413110Y-104556000D01*
X230811890Y-104556000D01*
X230770409Y-104551915D01*
X230736431Y-104541607D01*
X230705110Y-104524866D01*
X230677661Y-104502339D01*
X230655134Y-104474890D01*
X230638393Y-104443569D01*
X230628085Y-104409591D01*
X230624000Y-104368110D01*
X230624000Y-103691890D01*
X230628085Y-103650409D01*
X230638393Y-103616431D01*
X230655134Y-103585110D01*
X230677661Y-103557661D01*
X230705110Y-103535134D01*
X230736431Y-103518393D01*
X230770409Y-103508085D01*
X230811890Y-103504000D01*
X231413110Y-103504000D01*
X231454591Y-103508085D01*
X231454591Y-103508085D01*
G37*
G36*
X233029591Y-103508085D02*
G01*
X233063569Y-103518393D01*
X233094890Y-103535134D01*
X233122339Y-103557661D01*
X233144866Y-103585110D01*
X233161607Y-103616431D01*
X233171915Y-103650409D01*
X233176000Y-103691890D01*
X233176000Y-104368110D01*
X233171915Y-104409591D01*
X233161607Y-104443569D01*
X233144866Y-104474890D01*
X233122339Y-104502339D01*
X233094890Y-104524866D01*
X233063569Y-104541607D01*
X233029591Y-104551915D01*
X232988110Y-104556000D01*
X232386890Y-104556000D01*
X232345409Y-104551915D01*
X232311431Y-104541607D01*
X232280110Y-104524866D01*
X232252661Y-104502339D01*
X232230134Y-104474890D01*
X232213393Y-104443569D01*
X232203085Y-104409591D01*
X232199000Y-104368110D01*
X232199000Y-103691890D01*
X232203085Y-103650409D01*
X232213393Y-103616431D01*
X232230134Y-103585110D01*
X232252661Y-103557661D01*
X232280110Y-103535134D01*
X232311431Y-103518393D01*
X232345409Y-103508085D01*
X232386890Y-103504000D01*
X232988110Y-103504000D01*
X233029591Y-103508085D01*
X233029591Y-103508085D01*
G37*
G36*
X216768604Y-102698347D02*
G01*
X216805144Y-102709432D01*
X216838821Y-102727433D01*
X216868341Y-102751659D01*
X216892567Y-102781179D01*
X216910568Y-102814856D01*
X216921653Y-102851396D01*
X216926000Y-102895538D01*
X216926000Y-103844462D01*
X216921653Y-103888604D01*
X216910568Y-103925144D01*
X216892567Y-103958821D01*
X216868341Y-103988341D01*
X216838821Y-104012567D01*
X216805144Y-104030568D01*
X216768604Y-104041653D01*
X216724462Y-104046000D01*
X215275538Y-104046000D01*
X215231396Y-104041653D01*
X215194856Y-104030568D01*
X215161179Y-104012567D01*
X215131659Y-103988341D01*
X215107433Y-103958821D01*
X215089432Y-103925144D01*
X215078347Y-103888604D01*
X215074000Y-103844462D01*
X215074000Y-102895538D01*
X215078347Y-102851396D01*
X215089432Y-102814856D01*
X215107433Y-102781179D01*
X215131659Y-102751659D01*
X215161179Y-102727433D01*
X215194856Y-102709432D01*
X215231396Y-102698347D01*
X215275538Y-102694000D01*
X216724462Y-102694000D01*
X216768604Y-102698347D01*
X216768604Y-102698347D01*
G37*
G36*
X219868604Y-102628347D02*
G01*
X219905144Y-102639432D01*
X219938821Y-102657433D01*
X219968341Y-102681659D01*
X219992567Y-102711179D01*
X220010568Y-102744856D01*
X220021653Y-102781396D01*
X220026000Y-102825538D01*
X220026000Y-103774462D01*
X220021653Y-103818604D01*
X220010568Y-103855144D01*
X219992567Y-103888821D01*
X219968341Y-103918341D01*
X219938821Y-103942567D01*
X219905144Y-103960568D01*
X219868604Y-103971653D01*
X219824462Y-103976000D01*
X218375538Y-103976000D01*
X218331396Y-103971653D01*
X218294856Y-103960568D01*
X218261179Y-103942567D01*
X218231659Y-103918341D01*
X218207433Y-103888821D01*
X218189432Y-103855144D01*
X218178347Y-103818604D01*
X218174000Y-103774462D01*
X218174000Y-102825538D01*
X218178347Y-102781396D01*
X218189432Y-102744856D01*
X218207433Y-102711179D01*
X218231659Y-102681659D01*
X218261179Y-102657433D01*
X218294856Y-102639432D01*
X218331396Y-102628347D01*
X218375538Y-102624000D01*
X219824462Y-102624000D01*
X219868604Y-102628347D01*
X219868604Y-102628347D01*
G37*
G36*
X227701000Y-103751000D02*
G01*
X226699000Y-103751000D01*
X226699000Y-102849000D01*
X227701000Y-102849000D01*
X227701000Y-103751000D01*
X227701000Y-103751000D01*
G37*
G36*
X224559591Y-102068085D02*
G01*
X224593569Y-102078393D01*
X224624890Y-102095134D01*
X224652339Y-102117661D01*
X224674866Y-102145110D01*
X224691607Y-102176431D01*
X224701915Y-102210409D01*
X224706000Y-102251890D01*
X224706000Y-102853110D01*
X224701915Y-102894591D01*
X224691607Y-102928569D01*
X224674866Y-102959890D01*
X224652339Y-102987339D01*
X224624890Y-103009866D01*
X224593569Y-103026607D01*
X224559591Y-103036915D01*
X224518110Y-103041000D01*
X223841890Y-103041000D01*
X223800409Y-103036915D01*
X223766431Y-103026607D01*
X223735110Y-103009866D01*
X223707661Y-102987339D01*
X223685134Y-102959890D01*
X223668393Y-102928569D01*
X223658085Y-102894591D01*
X223654000Y-102853110D01*
X223654000Y-102251890D01*
X223658085Y-102210409D01*
X223668393Y-102176431D01*
X223685134Y-102145110D01*
X223707661Y-102117661D01*
X223735110Y-102095134D01*
X223766431Y-102078393D01*
X223800409Y-102068085D01*
X223841890Y-102064000D01*
X224518110Y-102064000D01*
X224559591Y-102068085D01*
X224559591Y-102068085D01*
G37*
G36*
X229701000Y-102801000D02*
G01*
X228699000Y-102801000D01*
X228699000Y-101899000D01*
X229701000Y-101899000D01*
X229701000Y-102801000D01*
X229701000Y-102801000D01*
G37*
G36*
X216768604Y-99898347D02*
G01*
X216805144Y-99909432D01*
X216838821Y-99927433D01*
X216868341Y-99951659D01*
X216892567Y-99981179D01*
X216910568Y-100014856D01*
X216921653Y-100051396D01*
X216926000Y-100095538D01*
X216926000Y-101044462D01*
X216921653Y-101088604D01*
X216910568Y-101125144D01*
X216892567Y-101158821D01*
X216868341Y-101188341D01*
X216838821Y-101212567D01*
X216805144Y-101230568D01*
X216768604Y-101241653D01*
X216724462Y-101246000D01*
X215275538Y-101246000D01*
X215231396Y-101241653D01*
X215194856Y-101230568D01*
X215161179Y-101212567D01*
X215131659Y-101188341D01*
X215107433Y-101158821D01*
X215089432Y-101125144D01*
X215078347Y-101088604D01*
X215074000Y-101044462D01*
X215074000Y-100095538D01*
X215078347Y-100051396D01*
X215089432Y-100014856D01*
X215107433Y-99981179D01*
X215131659Y-99951659D01*
X215161179Y-99927433D01*
X215194856Y-99909432D01*
X215231396Y-99898347D01*
X215275538Y-99894000D01*
X216724462Y-99894000D01*
X216768604Y-99898347D01*
X216768604Y-99898347D01*
G37*
G36*
X219868604Y-99828347D02*
G01*
X219905144Y-99839432D01*
X219938821Y-99857433D01*
X219968341Y-99881659D01*
X219992567Y-99911179D01*
X220010568Y-99944856D01*
X220021653Y-99981396D01*
X220026000Y-100025538D01*
X220026000Y-100974462D01*
X220021653Y-101018604D01*
X220010568Y-101055144D01*
X219992567Y-101088821D01*
X219968341Y-101118341D01*
X219938821Y-101142567D01*
X219905144Y-101160568D01*
X219868604Y-101171653D01*
X219824462Y-101176000D01*
X218375538Y-101176000D01*
X218331396Y-101171653D01*
X218294856Y-101160568D01*
X218261179Y-101142567D01*
X218231659Y-101118341D01*
X218207433Y-101088821D01*
X218189432Y-101055144D01*
X218178347Y-101018604D01*
X218174000Y-100974462D01*
X218174000Y-100025538D01*
X218178347Y-99981396D01*
X218189432Y-99944856D01*
X218207433Y-99911179D01*
X218231659Y-99881659D01*
X218261179Y-99857433D01*
X218294856Y-99839432D01*
X218331396Y-99828347D01*
X218375538Y-99824000D01*
X219824462Y-99824000D01*
X219868604Y-99828347D01*
X219868604Y-99828347D01*
G37*
M02*
