G04 #@! TF.GenerationSoftware,KiCad,Pcbnew,5.1.4-1.fc30*
G04 #@! TF.CreationDate,2020-10-18T16:45:13+02:00*
G04 #@! TF.ProjectId,base,62617365-2e6b-4696-9361-645f70636258,rev?*
G04 #@! TF.SameCoordinates,Original*
G04 #@! TF.FileFunction,Legend,Bot*
G04 #@! TF.FilePolarity,Positive*
%FSLAX46Y46*%
G04 Gerber Fmt 4.6, Leading zero omitted, Abs format (unit mm)*
G04 Created by KiCad (PCBNEW 5.1.4-1.fc30) date 2020-10-18 16:45:13*
%MOMM*%
%LPD*%
G04 APERTURE LIST*
%ADD10C,0.150000*%
%ADD11C,0.300000*%
G04 APERTURE END LIST*
D10*
X226199047Y-76257380D02*
X226199047Y-75257380D01*
X225960952Y-75257380D01*
X225818095Y-75305000D01*
X225722857Y-75400238D01*
X225675238Y-75495476D01*
X225627619Y-75685952D01*
X225627619Y-75828809D01*
X225675238Y-76019285D01*
X225722857Y-76114523D01*
X225818095Y-76209761D01*
X225960952Y-76257380D01*
X226199047Y-76257380D01*
X224818095Y-76209761D02*
X224913333Y-76257380D01*
X225103809Y-76257380D01*
X225199047Y-76209761D01*
X225246666Y-76114523D01*
X225246666Y-75733571D01*
X225199047Y-75638333D01*
X225103809Y-75590714D01*
X224913333Y-75590714D01*
X224818095Y-75638333D01*
X224770476Y-75733571D01*
X224770476Y-75828809D01*
X225246666Y-75924047D01*
X224389523Y-76209761D02*
X224294285Y-76257380D01*
X224103809Y-76257380D01*
X224008571Y-76209761D01*
X223960952Y-76114523D01*
X223960952Y-76066904D01*
X224008571Y-75971666D01*
X224103809Y-75924047D01*
X224246666Y-75924047D01*
X224341904Y-75876428D01*
X224389523Y-75781190D01*
X224389523Y-75733571D01*
X224341904Y-75638333D01*
X224246666Y-75590714D01*
X224103809Y-75590714D01*
X224008571Y-75638333D01*
X223532380Y-76257380D02*
X223532380Y-75590714D01*
X223532380Y-75257380D02*
X223580000Y-75305000D01*
X223532380Y-75352619D01*
X223484761Y-75305000D01*
X223532380Y-75257380D01*
X223532380Y-75352619D01*
X222627619Y-75590714D02*
X222627619Y-76400238D01*
X222675238Y-76495476D01*
X222722857Y-76543095D01*
X222818095Y-76590714D01*
X222960952Y-76590714D01*
X223056190Y-76543095D01*
X222627619Y-76209761D02*
X222722857Y-76257380D01*
X222913333Y-76257380D01*
X223008571Y-76209761D01*
X223056190Y-76162142D01*
X223103809Y-76066904D01*
X223103809Y-75781190D01*
X223056190Y-75685952D01*
X223008571Y-75638333D01*
X222913333Y-75590714D01*
X222722857Y-75590714D01*
X222627619Y-75638333D01*
X222151428Y-75590714D02*
X222151428Y-76257380D01*
X222151428Y-75685952D02*
X222103809Y-75638333D01*
X222008571Y-75590714D01*
X221865714Y-75590714D01*
X221770476Y-75638333D01*
X221722857Y-75733571D01*
X221722857Y-76257380D01*
X220865714Y-76209761D02*
X220960952Y-76257380D01*
X221151428Y-76257380D01*
X221246666Y-76209761D01*
X221294285Y-76114523D01*
X221294285Y-75733571D01*
X221246666Y-75638333D01*
X221151428Y-75590714D01*
X220960952Y-75590714D01*
X220865714Y-75638333D01*
X220818095Y-75733571D01*
X220818095Y-75828809D01*
X221294285Y-75924047D01*
X219960952Y-76257380D02*
X219960952Y-75257380D01*
X219960952Y-76209761D02*
X220056190Y-76257380D01*
X220246666Y-76257380D01*
X220341904Y-76209761D01*
X220389523Y-76162142D01*
X220437142Y-76066904D01*
X220437142Y-75781190D01*
X220389523Y-75685952D01*
X220341904Y-75638333D01*
X220246666Y-75590714D01*
X220056190Y-75590714D01*
X219960952Y-75638333D01*
X224841904Y-77907380D02*
X224841904Y-76907380D01*
X224841904Y-77288333D02*
X224746666Y-77240714D01*
X224556190Y-77240714D01*
X224460952Y-77288333D01*
X224413333Y-77335952D01*
X224365714Y-77431190D01*
X224365714Y-77716904D01*
X224413333Y-77812142D01*
X224460952Y-77859761D01*
X224556190Y-77907380D01*
X224746666Y-77907380D01*
X224841904Y-77859761D01*
X224032380Y-77240714D02*
X223794285Y-77907380D01*
X223556190Y-77240714D02*
X223794285Y-77907380D01*
X223889523Y-78145476D01*
X223937142Y-78193095D01*
X224032380Y-78240714D01*
X222080000Y-77383571D02*
X221937142Y-77431190D01*
X221889523Y-77478809D01*
X221841904Y-77574047D01*
X221841904Y-77716904D01*
X221889523Y-77812142D01*
X221937142Y-77859761D01*
X222032380Y-77907380D01*
X222413333Y-77907380D01*
X222413333Y-76907380D01*
X222080000Y-76907380D01*
X221984761Y-76955000D01*
X221937142Y-77002619D01*
X221889523Y-77097857D01*
X221889523Y-77193095D01*
X221937142Y-77288333D01*
X221984761Y-77335952D01*
X222080000Y-77383571D01*
X222413333Y-77383571D01*
X220984761Y-77907380D02*
X220984761Y-77383571D01*
X221032380Y-77288333D01*
X221127619Y-77240714D01*
X221318095Y-77240714D01*
X221413333Y-77288333D01*
X220984761Y-77859761D02*
X221080000Y-77907380D01*
X221318095Y-77907380D01*
X221413333Y-77859761D01*
X221460952Y-77764523D01*
X221460952Y-77669285D01*
X221413333Y-77574047D01*
X221318095Y-77526428D01*
X221080000Y-77526428D01*
X220984761Y-77478809D01*
X220508571Y-77907380D02*
X220508571Y-77240714D01*
X220508571Y-77431190D02*
X220460952Y-77335952D01*
X220413333Y-77288333D01*
X220318095Y-77240714D01*
X220222857Y-77240714D01*
X220032380Y-77240714D02*
X219651428Y-77240714D01*
X219889523Y-76907380D02*
X219889523Y-77764523D01*
X219841904Y-77859761D01*
X219746666Y-77907380D01*
X219651428Y-77907380D01*
D11*
X226443333Y-71839523D02*
X226157619Y-71934761D01*
X225681428Y-71934761D01*
X225490952Y-71839523D01*
X225395714Y-71744285D01*
X225300476Y-71553809D01*
X225300476Y-71363333D01*
X225395714Y-71172857D01*
X225490952Y-71077619D01*
X225681428Y-70982380D01*
X226062380Y-70887142D01*
X226252857Y-70791904D01*
X226348095Y-70696666D01*
X226443333Y-70506190D01*
X226443333Y-70315714D01*
X226348095Y-70125238D01*
X226252857Y-70030000D01*
X226062380Y-69934761D01*
X225586190Y-69934761D01*
X225300476Y-70030000D01*
X224633809Y-70601428D02*
X224157619Y-71934761D01*
X223681428Y-70601428D02*
X224157619Y-71934761D01*
X224348095Y-72410952D01*
X224443333Y-72506190D01*
X224633809Y-72601428D01*
X222919523Y-70601428D02*
X222919523Y-71934761D01*
X222919523Y-70791904D02*
X222824285Y-70696666D01*
X222633809Y-70601428D01*
X222348095Y-70601428D01*
X222157619Y-70696666D01*
X222062380Y-70887142D01*
X222062380Y-71934761D01*
X219967142Y-71744285D02*
X220062380Y-71839523D01*
X220348095Y-71934761D01*
X220538571Y-71934761D01*
X220824285Y-71839523D01*
X221014761Y-71649047D01*
X221110000Y-71458571D01*
X221205238Y-71077619D01*
X221205238Y-70791904D01*
X221110000Y-70410952D01*
X221014761Y-70220476D01*
X220824285Y-70030000D01*
X220538571Y-69934761D01*
X220348095Y-69934761D01*
X220062380Y-70030000D01*
X219967142Y-70125238D01*
X219110000Y-71934761D02*
X219110000Y-69934761D01*
X218252857Y-71934761D02*
X218252857Y-70887142D01*
X218348095Y-70696666D01*
X218538571Y-70601428D01*
X218824285Y-70601428D01*
X219014761Y-70696666D01*
X219110000Y-70791904D01*
X217300476Y-71934761D02*
X217300476Y-70601428D01*
X217300476Y-70982380D02*
X217205238Y-70791904D01*
X217110000Y-70696666D01*
X216919523Y-70601428D01*
X216729047Y-70601428D01*
X215776666Y-71934761D02*
X215967142Y-71839523D01*
X216062380Y-71744285D01*
X216157619Y-71553809D01*
X216157619Y-70982380D01*
X216062380Y-70791904D01*
X215967142Y-70696666D01*
X215776666Y-70601428D01*
X215490952Y-70601428D01*
X215300476Y-70696666D01*
X215205238Y-70791904D01*
X215110000Y-70982380D01*
X215110000Y-71553809D01*
X215205238Y-71744285D01*
X215300476Y-71839523D01*
X215490952Y-71934761D01*
X215776666Y-71934761D01*
X212729047Y-71934761D02*
X212729047Y-69934761D01*
X212062380Y-71363333D01*
X211395714Y-69934761D01*
X211395714Y-71934761D01*
X210443333Y-71934761D02*
X210443333Y-69934761D01*
X210252857Y-71172857D02*
X209681428Y-71934761D01*
X209681428Y-70601428D02*
X210443333Y-71363333D01*
X207871904Y-69934761D02*
X208824285Y-69934761D01*
X208919523Y-70887142D01*
X208824285Y-70791904D01*
X208633809Y-70696666D01*
X208157619Y-70696666D01*
X207967142Y-70791904D01*
X207871904Y-70887142D01*
X207776666Y-71077619D01*
X207776666Y-71553809D01*
X207871904Y-71744285D01*
X207967142Y-71839523D01*
X208157619Y-71934761D01*
X208633809Y-71934761D01*
X208824285Y-71839523D01*
X208919523Y-71744285D01*
M02*
