<?xml version="1.0" standalone="no"?>
 <!DOCTYPE svg PUBLIC "-//W3C//DTD SVG 1.1//EN" 
 "http://www.w3.org/Graphics/SVG/1.1/DTD/svg11.dtd"> 
<svg xmlns="http://www.w3.org/2000/svg" version="1.1" 
    width="29.7002cm" height="21.0007cm" viewBox="0 0 116930 82680 ">
<title>SVG Picture created as base-F_SilkS.svg date 2019/11/02 16:20:07 </title>
  <desc>Picture generated by PCBNEW </desc>
<g style="fill:#000000; fill-opacity:1;stroke:#000000; stroke-opacity:1;
stroke-linecap:round; stroke-linejoin:round; "
 transform="translate(0 0) scale(1 1)">
</g>
<g style="fill:#000000; fill-opacity:0.0; 
stroke:#000000; stroke-width:-0.000393701; stroke-opacity:1; 
stroke-linecap:round; stroke-linejoin:round;">
</g>
<g style="fill:#000000; fill-opacity:0.0; 
stroke:#000000; stroke-width:39.3701; stroke-opacity:1; 
stroke-linecap:round; stroke-linejoin:round;">
</g>
<g style="fill:#000000; fill-opacity:0.0; 
stroke:#000000; stroke-width:59.0551; stroke-opacity:1; 
stroke-linecap:round; stroke-linejoin:round;">
<rect x="69685.9" y="65357.2" width="42519.7" height="12598.4" rx="0" />
</g>
<g style="fill:#000000; fill-opacity:0.0; 
stroke:#000000; stroke-width:39.3701; stroke-opacity:1; 
stroke-linecap:round; stroke-linejoin:round;">
</g>
<g style="fill:#000000; fill-opacity:0.0; 
stroke:#000000; stroke-width:59.0551; stroke-opacity:1; 
stroke-linecap:round; stroke-linejoin:round;">
<rect x="3937.01" y="3937.01" width="109056" height="74806" rx="0" />
</g>
<g style="fill:#000000; fill-opacity:0.0; 
stroke:#000000; stroke-width:39.3701; stroke-opacity:1; 
stroke-linecap:round; stroke-linejoin:round;">
</g>
<g style="fill:#000000; fill-opacity:0.0; 
stroke:#000000; stroke-width:59.0551; stroke-opacity:1; 
stroke-linecap:round; stroke-linejoin:round;">
<rect x="4724.41" y="4724.41" width="107481" height="73231.2" rx="0" />
</g>
<g style="fill:#000000; fill-opacity:0.0; 
stroke:#000000; stroke-width:39.3701; stroke-opacity:1; 
stroke-linecap:round; stroke-linejoin:round;">
</g>
<g style="fill:#000000; fill-opacity:0.0; 
stroke:#000000; stroke-width:59.0551; stroke-opacity:1; 
stroke-linecap:round; stroke-linejoin:round;">
<path d="M23622 4724
L23622 3937
" />
</g>
<g style="fill:#000000; fill-opacity:0.0; 
stroke:#000000; stroke-width:39.3701; stroke-opacity:1; 
stroke-linecap:round; stroke-linejoin:round;">
</g>
<g style="fill:#000000; fill-opacity:0.0; 
stroke:#000000; stroke-width:59.0551; stroke-opacity:1; 
stroke-linecap:round; stroke-linejoin:round;">
<path d="M43307 4724
L43307 3937
" />
</g>
<g style="fill:#000000; fill-opacity:0.0; 
stroke:#000000; stroke-width:39.3701; stroke-opacity:1; 
stroke-linecap:round; stroke-linejoin:round;">
</g>
<g style="fill:#000000; fill-opacity:0.0; 
stroke:#000000; stroke-width:59.0551; stroke-opacity:1; 
stroke-linecap:round; stroke-linejoin:round;">
<path d="M62992 4724
L62992 3937
" />
</g>
<g style="fill:#000000; fill-opacity:0.0; 
stroke:#000000; stroke-width:39.3701; stroke-opacity:1; 
stroke-linecap:round; stroke-linejoin:round;">
</g>
<g style="fill:#000000; fill-opacity:0.0; 
stroke:#000000; stroke-width:59.0551; stroke-opacity:1; 
stroke-linecap:round; stroke-linejoin:round;">
<path d="M82677 4724
L82677 3937
" />
</g>
<g style="fill:#000000; fill-opacity:0.0; 
stroke:#000000; stroke-width:39.3701; stroke-opacity:1; 
stroke-linecap:round; stroke-linejoin:round;">
</g>
<g style="fill:#000000; fill-opacity:0.0; 
stroke:#000000; stroke-width:59.0551; stroke-opacity:1; 
stroke-linecap:round; stroke-linejoin:round;">
<path d="M102362 4724
L102362 3937
" />
</g>
<g style="fill:#000000; fill-opacity:0.0; 
stroke:#000000; stroke-width:39.3701; stroke-opacity:1; 
stroke-linecap:round; stroke-linejoin:round;">
</g>
<g style="fill:#000000; fill-opacity:0.0; 
stroke:#000000; stroke-width:59.0551; stroke-opacity:1; 
stroke-linecap:round; stroke-linejoin:round;">
<path d="M14199 4562
L13906 4562
" />
<path d="M14052 4562
L14052 4050
L14004 4123
L13955 4172
L13906 4196
" />
</g>
<g style="fill:#000000; fill-opacity:0.0; 
stroke:#000000; stroke-width:39.3701; stroke-opacity:1; 
stroke-linecap:round; stroke-linejoin:round;">
</g>
<g style="fill:#000000; fill-opacity:0.0; 
stroke:#000000; stroke-width:59.0551; stroke-opacity:1; 
stroke-linecap:round; stroke-linejoin:round;">
<path d="M33591 4099
L33615 4074
L33664 4050
L33786 4050
L33835 4074
L33859 4099
L33884 4147
L33884 4196
L33859 4269
L33567 4562
L33884 4562
" />
</g>
<g style="fill:#000000; fill-opacity:0.0; 
stroke:#000000; stroke-width:39.3701; stroke-opacity:1; 
stroke-linecap:round; stroke-linejoin:round;">
</g>
<g style="fill:#000000; fill-opacity:0.0; 
stroke:#000000; stroke-width:59.0551; stroke-opacity:1; 
stroke-linecap:round; stroke-linejoin:round;">
<path d="M53252 4050
L53569 4050
L53398 4245
L53471 4245
L53520 4269
L53544 4294
L53569 4342
L53569 4464
L53544 4513
L53520 4537
L53471 4562
L53325 4562
L53276 4537
L53252 4513
" />
</g>
<g style="fill:#000000; fill-opacity:0.0; 
stroke:#000000; stroke-width:39.3701; stroke-opacity:1; 
stroke-linecap:round; stroke-linejoin:round;">
</g>
<g style="fill:#000000; fill-opacity:0.0; 
stroke:#000000; stroke-width:59.0551; stroke-opacity:1; 
stroke-linecap:round; stroke-linejoin:round;">
<path d="M73205 4221
L73205 4562
" />
<path d="M73083 4026
L72961 4391
L73278 4391
" />
</g>
<g style="fill:#000000; fill-opacity:0.0; 
stroke:#000000; stroke-width:39.3701; stroke-opacity:1; 
stroke-linecap:round; stroke-linejoin:round;">
</g>
<g style="fill:#000000; fill-opacity:0.0; 
stroke:#000000; stroke-width:59.0551; stroke-opacity:1; 
stroke-linecap:round; stroke-linejoin:round;">
<path d="M92914 4050
L92671 4050
L92646 4294
L92671 4269
L92719 4245
L92841 4245
L92890 4269
L92914 4294
L92939 4342
L92939 4464
L92914 4513
L92890 4537
L92841 4562
L92719 4562
L92671 4537
L92646 4513
" />
</g>
<g style="fill:#000000; fill-opacity:0.0; 
stroke:#000000; stroke-width:39.3701; stroke-opacity:1; 
stroke-linecap:round; stroke-linejoin:round;">
</g>
<g style="fill:#000000; fill-opacity:0.0; 
stroke:#000000; stroke-width:59.0551; stroke-opacity:1; 
stroke-linecap:round; stroke-linejoin:round;">
<path d="M112575 4050
L112477 4050
L112429 4074
L112404 4099
L112356 4172
L112331 4269
L112331 4464
L112356 4513
L112380 4537
L112429 4562
L112526 4562
L112575 4537
L112599 4513
L112624 4464
L112624 4342
L112599 4294
L112575 4269
L112526 4245
L112429 4245
L112380 4269
L112356 4294
L112331 4342
" />
</g>
<g style="fill:#000000; fill-opacity:0.0; 
stroke:#000000; stroke-width:39.3701; stroke-opacity:1; 
stroke-linecap:round; stroke-linejoin:round;">
</g>
<g style="fill:#000000; fill-opacity:0.0; 
stroke:#000000; stroke-width:59.0551; stroke-opacity:1; 
stroke-linecap:round; stroke-linejoin:round;">
<path d="M23622 77955
L23622 78742
" />
</g>
<g style="fill:#000000; fill-opacity:0.0; 
stroke:#000000; stroke-width:39.3701; stroke-opacity:1; 
stroke-linecap:round; stroke-linejoin:round;">
</g>
<g style="fill:#000000; fill-opacity:0.0; 
stroke:#000000; stroke-width:59.0551; stroke-opacity:1; 
stroke-linecap:round; stroke-linejoin:round;">
<path d="M43307 77955
L43307 78742
" />
</g>
<g style="fill:#000000; fill-opacity:0.0; 
stroke:#000000; stroke-width:39.3701; stroke-opacity:1; 
stroke-linecap:round; stroke-linejoin:round;">
</g>
<g style="fill:#000000; fill-opacity:0.0; 
stroke:#000000; stroke-width:59.0551; stroke-opacity:1; 
stroke-linecap:round; stroke-linejoin:round;">
<path d="M62992 77955
L62992 78742
" />
</g>
<g style="fill:#000000; fill-opacity:0.0; 
stroke:#000000; stroke-width:39.3701; stroke-opacity:1; 
stroke-linecap:round; stroke-linejoin:round;">
</g>
<g style="fill:#000000; fill-opacity:0.0; 
stroke:#000000; stroke-width:59.0551; stroke-opacity:1; 
stroke-linecap:round; stroke-linejoin:round;">
<path d="M82677 77955
L82677 78742
" />
</g>
<g style="fill:#000000; fill-opacity:0.0; 
stroke:#000000; stroke-width:39.3701; stroke-opacity:1; 
stroke-linecap:round; stroke-linejoin:round;">
</g>
<g style="fill:#000000; fill-opacity:0.0; 
stroke:#000000; stroke-width:59.0551; stroke-opacity:1; 
stroke-linecap:round; stroke-linejoin:round;">
<path d="M102362 77955
L102362 78742
" />
</g>
<g style="fill:#000000; fill-opacity:0.0; 
stroke:#000000; stroke-width:39.3701; stroke-opacity:1; 
stroke-linecap:round; stroke-linejoin:round;">
</g>
<g style="fill:#000000; fill-opacity:0.0; 
stroke:#000000; stroke-width:59.0551; stroke-opacity:1; 
stroke-linecap:round; stroke-linejoin:round;">
<path d="M14199 78580
L13906 78580
" />
<path d="M14052 78580
L14052 78069
L14004 78142
L13955 78190
L13906 78215
" />
</g>
<g style="fill:#000000; fill-opacity:0.0; 
stroke:#000000; stroke-width:39.3701; stroke-opacity:1; 
stroke-linecap:round; stroke-linejoin:round;">
</g>
<g style="fill:#000000; fill-opacity:0.0; 
stroke:#000000; stroke-width:59.0551; stroke-opacity:1; 
stroke-linecap:round; stroke-linejoin:round;">
<path d="M33591 78117
L33615 78093
L33664 78069
L33786 78069
L33835 78093
L33859 78117
L33884 78166
L33884 78215
L33859 78288
L33567 78580
L33884 78580
" />
</g>
<g style="fill:#000000; fill-opacity:0.0; 
stroke:#000000; stroke-width:39.3701; stroke-opacity:1; 
stroke-linecap:round; stroke-linejoin:round;">
</g>
<g style="fill:#000000; fill-opacity:0.0; 
stroke:#000000; stroke-width:59.0551; stroke-opacity:1; 
stroke-linecap:round; stroke-linejoin:round;">
<path d="M53252 78069
L53569 78069
L53398 78263
L53471 78263
L53520 78288
L53544 78312
L53569 78361
L53569 78483
L53544 78532
L53520 78556
L53471 78580
L53325 78580
L53276 78556
L53252 78532
" />
</g>
<g style="fill:#000000; fill-opacity:0.0; 
stroke:#000000; stroke-width:39.3701; stroke-opacity:1; 
stroke-linecap:round; stroke-linejoin:round;">
</g>
<g style="fill:#000000; fill-opacity:0.0; 
stroke:#000000; stroke-width:59.0551; stroke-opacity:1; 
stroke-linecap:round; stroke-linejoin:round;">
<path d="M73205 78239
L73205 78580
" />
<path d="M73083 78044
L72961 78410
L73278 78410
" />
</g>
<g style="fill:#000000; fill-opacity:0.0; 
stroke:#000000; stroke-width:39.3701; stroke-opacity:1; 
stroke-linecap:round; stroke-linejoin:round;">
</g>
<g style="fill:#000000; fill-opacity:0.0; 
stroke:#000000; stroke-width:59.0551; stroke-opacity:1; 
stroke-linecap:round; stroke-linejoin:round;">
<path d="M92914 78069
L92671 78069
L92646 78312
L92671 78288
L92719 78263
L92841 78263
L92890 78288
L92914 78312
L92939 78361
L92939 78483
L92914 78532
L92890 78556
L92841 78580
L92719 78580
L92671 78556
L92646 78532
" />
</g>
<g style="fill:#000000; fill-opacity:0.0; 
stroke:#000000; stroke-width:39.3701; stroke-opacity:1; 
stroke-linecap:round; stroke-linejoin:round;">
</g>
<g style="fill:#000000; fill-opacity:0.0; 
stroke:#000000; stroke-width:59.0551; stroke-opacity:1; 
stroke-linecap:round; stroke-linejoin:round;">
<path d="M112575 78069
L112477 78069
L112429 78093
L112404 78117
L112356 78190
L112331 78288
L112331 78483
L112356 78532
L112380 78556
L112429 78580
L112526 78580
L112575 78556
L112599 78532
L112624 78483
L112624 78361
L112599 78312
L112575 78288
L112526 78263
L112429 78263
L112380 78288
L112356 78312
L112331 78361
" />
</g>
<g style="fill:#000000; fill-opacity:0.0; 
stroke:#000000; stroke-width:39.3701; stroke-opacity:1; 
stroke-linecap:round; stroke-linejoin:round;">
</g>
<g style="fill:#000000; fill-opacity:0.0; 
stroke:#000000; stroke-width:59.0551; stroke-opacity:1; 
stroke-linecap:round; stroke-linejoin:round;">
<path d="M3937 23622
L4724 23622
" />
</g>
<g style="fill:#000000; fill-opacity:0.0; 
stroke:#000000; stroke-width:39.3701; stroke-opacity:1; 
stroke-linecap:round; stroke-linejoin:round;">
</g>
<g style="fill:#000000; fill-opacity:0.0; 
stroke:#000000; stroke-width:59.0551; stroke-opacity:1; 
stroke-linecap:round; stroke-linejoin:round;">
<path d="M3937 43307
L4724 43307
" />
</g>
<g style="fill:#000000; fill-opacity:0.0; 
stroke:#000000; stroke-width:39.3701; stroke-opacity:1; 
stroke-linecap:round; stroke-linejoin:round;">
</g>
<g style="fill:#000000; fill-opacity:0.0; 
stroke:#000000; stroke-width:59.0551; stroke-opacity:1; 
stroke-linecap:round; stroke-linejoin:round;">
<path d="M3937 62992
L4724 62992
" />
</g>
<g style="fill:#000000; fill-opacity:0.0; 
stroke:#000000; stroke-width:39.3701; stroke-opacity:1; 
stroke-linecap:round; stroke-linejoin:round;">
</g>
<g style="fill:#000000; fill-opacity:0.0; 
stroke:#000000; stroke-width:59.0551; stroke-opacity:1; 
stroke-linecap:round; stroke-linejoin:round;">
<path d="M4208 13864
L4452 13864
" />
<path d="M4160 14011
L4330 13499
L4501 14011
" />
</g>
<g style="fill:#000000; fill-opacity:0.0; 
stroke:#000000; stroke-width:39.3701; stroke-opacity:1; 
stroke-linecap:round; stroke-linejoin:round;">
</g>
<g style="fill:#000000; fill-opacity:0.0; 
stroke:#000000; stroke-width:59.0551; stroke-opacity:1; 
stroke-linecap:round; stroke-linejoin:round;">
<path d="M4367 33428
L4440 33452
L4464 33476
L4489 33525
L4489 33598
L4464 33647
L4440 33671
L4391 33696
L4196 33696
L4196 33184
L4367 33184
L4416 33208
L4440 33233
L4464 33281
L4464 33330
L4440 33379
L4416 33403
L4367 33428
L4196 33428
" />
</g>
<g style="fill:#000000; fill-opacity:0.0; 
stroke:#000000; stroke-width:39.3701; stroke-opacity:1; 
stroke-linecap:round; stroke-linejoin:round;">
</g>
<g style="fill:#000000; fill-opacity:0.0; 
stroke:#000000; stroke-width:59.0551; stroke-opacity:1; 
stroke-linecap:round; stroke-linejoin:round;">
<path d="M4489 53332
L4464 53356
L4391 53381
L4342 53381
L4269 53356
L4221 53308
L4196 53259
L4172 53161
L4172 53088
L4196 52991
L4221 52942
L4269 52893
L4342 52869
L4391 52869
L4464 52893
L4489 52918
" />
</g>
<g style="fill:#000000; fill-opacity:0.0; 
stroke:#000000; stroke-width:39.3701; stroke-opacity:1; 
stroke-linecap:round; stroke-linejoin:round;">
</g>
<g style="fill:#000000; fill-opacity:0.0; 
stroke:#000000; stroke-width:59.0551; stroke-opacity:1; 
stroke-linecap:round; stroke-linejoin:round;">
<path d="M4196 73066
L4196 72554
L4318 72554
L4391 72578
L4440 72627
L4464 72676
L4489 72773
L4489 72846
L4464 72944
L4440 72993
L4391 73041
L4318 73066
L4196 73066
" />
</g>
<g style="fill:#000000; fill-opacity:0.0; 
stroke:#000000; stroke-width:39.3701; stroke-opacity:1; 
stroke-linecap:round; stroke-linejoin:round;">
</g>
<g style="fill:#000000; fill-opacity:0.0; 
stroke:#000000; stroke-width:59.0551; stroke-opacity:1; 
stroke-linecap:round; stroke-linejoin:round;">
<path d="M112992 23622
L112205 23622
" />
</g>
<g style="fill:#000000; fill-opacity:0.0; 
stroke:#000000; stroke-width:39.3701; stroke-opacity:1; 
stroke-linecap:round; stroke-linejoin:round;">
</g>
<g style="fill:#000000; fill-opacity:0.0; 
stroke:#000000; stroke-width:59.0551; stroke-opacity:1; 
stroke-linecap:round; stroke-linejoin:round;">
<path d="M112992 43307
L112205 43307
" />
</g>
<g style="fill:#000000; fill-opacity:0.0; 
stroke:#000000; stroke-width:39.3701; stroke-opacity:1; 
stroke-linecap:round; stroke-linejoin:round;">
</g>
<g style="fill:#000000; fill-opacity:0.0; 
stroke:#000000; stroke-width:59.0551; stroke-opacity:1; 
stroke-linecap:round; stroke-linejoin:round;">
<path d="M112992 62992
L112205 62992
" />
</g>
<g style="fill:#000000; fill-opacity:0.0; 
stroke:#000000; stroke-width:39.3701; stroke-opacity:1; 
stroke-linecap:round; stroke-linejoin:round;">
</g>
<g style="fill:#000000; fill-opacity:0.0; 
stroke:#000000; stroke-width:59.0551; stroke-opacity:1; 
stroke-linecap:round; stroke-linejoin:round;">
<path d="M112477 13864
L112721 13864
" />
<path d="M112428 14011
L112599 13499
L112769 14011
" />
</g>
<g style="fill:#000000; fill-opacity:0.0; 
stroke:#000000; stroke-width:39.3701; stroke-opacity:1; 
stroke-linecap:round; stroke-linejoin:round;">
</g>
<g style="fill:#000000; fill-opacity:0.0; 
stroke:#000000; stroke-width:59.0551; stroke-opacity:1; 
stroke-linecap:round; stroke-linejoin:round;">
<path d="M112635 33428
L112708 33452
L112733 33476
L112757 33525
L112757 33598
L112733 33647
L112708 33671
L112660 33696
L112465 33696
L112465 33184
L112635 33184
L112684 33208
L112708 33233
L112733 33281
L112733 33330
L112708 33379
L112684 33403
L112635 33428
L112465 33428
" />
</g>
<g style="fill:#000000; fill-opacity:0.0; 
stroke:#000000; stroke-width:39.3701; stroke-opacity:1; 
stroke-linecap:round; stroke-linejoin:round;">
</g>
<g style="fill:#000000; fill-opacity:0.0; 
stroke:#000000; stroke-width:59.0551; stroke-opacity:1; 
stroke-linecap:round; stroke-linejoin:round;">
<path d="M112757 53332
L112733 53356
L112660 53381
L112611 53381
L112538 53356
L112489 53308
L112465 53259
L112440 53161
L112440 53088
L112465 52991
L112489 52942
L112538 52893
L112611 52869
L112660 52869
L112733 52893
L112757 52918
" />
</g>
<g style="fill:#000000; fill-opacity:0.0; 
stroke:#000000; stroke-width:39.3701; stroke-opacity:1; 
stroke-linecap:round; stroke-linejoin:round;">
</g>
<g style="fill:#000000; fill-opacity:0.0; 
stroke:#000000; stroke-width:59.0551; stroke-opacity:1; 
stroke-linecap:round; stroke-linejoin:round;">
<path d="M112465 73066
L112465 72554
L112587 72554
L112660 72578
L112708 72627
L112733 72676
L112757 72773
L112757 72846
L112733 72944
L112708 72993
L112660 73041
L112587 73066
L112465 73066
" />
</g>
<g style="fill:#000000; fill-opacity:0.0; 
stroke:#000000; stroke-width:39.3701; stroke-opacity:1; 
stroke-linecap:round; stroke-linejoin:round;">
</g>
<g style="fill:#000000; fill-opacity:0.0; 
stroke:#000000; stroke-width:59.0551; stroke-opacity:1; 
stroke-linecap:round; stroke-linejoin:round;">
<path d="M78911 76293
L78911 75703
L79051 75703
L79136 75731
L79192 75787
L79220 75843
L79248 75956
L79248 76040
L79220 76153
L79192 76209
L79136 76265
L79051 76293
L78911 76293
" />
<path d="M79754 76293
L79754 75984
L79726 75928
L79670 75899
L79557 75899
L79501 75928
" />
<path d="M79754 76265
L79698 76293
L79557 76293
L79501 76265
L79473 76209
L79473 76153
L79501 76096
L79557 76068
L79698 76068
L79754 76040
" />
<path d="M79951 75899
L80176 75899
" />
<path d="M80036 75703
L80036 76209
L80064 76265
L80120 76293
L80176 76293
" />
<path d="M80598 76265
L80542 76293
L80429 76293
L80373 76265
L80345 76209
L80345 75984
L80373 75928
L80429 75899
L80542 75899
L80598 75928
L80626 75984
L80626 76040
L80345 76096
" />
<path d="M80879 76237
L80907 76265
L80879 76293
L80851 76265
L80879 76237
L80879 76293
" />
<path d="M80879 75928
L80907 75956
L80879 75984
L80851 75956
L80879 75928
L80879 75984
" />
</g>
<g style="fill:#000000; fill-opacity:0.0; 
stroke:#000000; stroke-width:39.3701; stroke-opacity:1; 
stroke-linecap:round; stroke-linejoin:round;">
</g>
<g style="fill:#000000; fill-opacity:0.0; 
stroke:#000000; stroke-width:59.0551; stroke-opacity:1; 
stroke-linecap:round; stroke-linejoin:round;">
<path d="M69685 76577
L112205 76577
" />
</g>
<g style="fill:#000000; fill-opacity:0.0; 
stroke:#000000; stroke-width:39.3701; stroke-opacity:1; 
stroke-linecap:round; stroke-linejoin:round;">
</g>
<g style="fill:#000000; fill-opacity:0.0; 
stroke:#000000; stroke-width:59.0551; stroke-opacity:1; 
stroke-linecap:round; stroke-linejoin:round;">
<path d="M70249 77395
L70249 76805
" />
<path d="M70587 77395
L70334 77058
" />
<path d="M70587 76805
L70249 77142
" />
<path d="M70840 77395
L70840 77002
" />
<path d="M70840 76805
L70812 76833
L70840 76861
L70868 76833
L70840 76805
L70840 76861
" />
<path d="M71458 77339
L71430 77367
L71346 77395
L71290 77395
L71205 77367
L71149 77311
L71121 77255
L71093 77142
L71093 77058
L71121 76946
L71149 76889
L71205 76833
L71290 76805
L71346 76805
L71430 76833
L71458 76861
" />
<path d="M71965 77395
L71965 77086
L71937 77030
L71880 77002
L71768 77002
L71712 77030
" />
<path d="M71965 77367
L71908 77395
L71768 77395
L71712 77367
L71683 77311
L71683 77255
L71712 77199
L71768 77171
L71908 77171
L71965 77142
" />
<path d="M72499 77395
L72499 76805
" />
<path d="M72499 77367
L72443 77395
L72330 77395
L72274 77367
L72246 77339
L72218 77283
L72218 77114
L72246 77058
L72274 77030
L72330 77002
L72443 77002
L72499 77030
" />
<path d="M73230 77086
L73427 77086
" />
<path d="M73511 77395
L73230 77395
L73230 76805
L73511 76805
" />
<path d="M73764 77339
L73793 77367
L73764 77395
L73736 77367
L73764 77339
L73764 77395
" />
<path d="M74046 77395
L74046 76805
L74186 76805
L74271 76833
L74327 76889
L74355 76946
L74383 77058
L74383 77142
L74355 77255
L74327 77311
L74271 77367
L74186 77395
L74046 77395
" />
<path d="M74636 77339
L74664 77367
L74636 77395
L74608 77367
L74636 77339
L74636 77395
" />
<path d="M74889 77227
L75171 77227
" />
<path d="M74833 77395
L75030 76805
L75227 77395
" />
<path d="M75424 77339
L75452 77367
L75424 77395
L75395 77367
L75424 77339
L75424 77395
" />
<path d="M76605 77002
L76605 77592
" />
<path d="M76605 77030
L76661 77002
L76773 77002
L76830 77030
L76858 77058
L76886 77114
L76886 77283
L76858 77339
L76830 77367
L76773 77395
L76661 77395
L76605 77367
" />
<path d="M77392 77367
L77336 77395
L77223 77395
L77167 77367
L77139 77339
L77111 77283
L77111 77114
L77139 77058
L77167 77030
L77223 77002
L77336 77002
L77392 77030
" />
<path d="M77645 77395
L77645 76805
" />
<path d="M77645 77030
L77701 77002
L77814 77002
L77870 77030
L77898 77058
L77926 77114
L77926 77283
L77898 77339
L77870 77367
L77814 77395
L77701 77395
L77645 77367
" />
<path d="M78180 77002
L78180 77395
" />
<path d="M78180 77058
L78208 77030
L78264 77002
L78348 77002
L78404 77030
L78433 77086
L78433 77395
" />
<path d="M78939 77367
L78883 77395
L78770 77395
L78714 77367
L78686 77311
L78686 77086
L78714 77030
L78770 77002
L78883 77002
L78939 77030
L78967 77086
L78967 77142
L78686 77199
" />
<path d="M79164 77002
L79276 77395
L79389 77114
L79501 77395
L79614 77002
" />
<path d="M80570 76805
L80289 76805
L80260 77086
L80289 77058
L80345 77030
L80485 77030
L80542 77058
L80570 77086
L80598 77142
L80598 77283
L80570 77339
L80542 77367
L80485 77395
L80345 77395
L80289 77367
L80260 77339
" />
<path d="M80851 77339
L80879 77367
L80851 77395
L80823 77367
L80851 77339
L80851 77395
" />
<path d="M81442 77395
L81104 77395
" />
<path d="M81273 77395
L81273 76805
L81217 76889
L81160 76946
L81104 76974
" />
<path d="M81695 77339
L81723 77367
L81695 77395
L81667 77367
L81695 77339
L81695 77395
" />
<path d="M82229 77002
L82229 77395
" />
<path d="M82088 76777
L81948 77199
L82313 77199
" />
<path d="M82538 77171
L82988 77171
" />
<path d="M83579 77395
L83241 77395
" />
<path d="M83410 77395
L83410 76805
L83354 76889
L83298 76946
L83241 76974
" />
<path d="M83832 77339
L83860 77367
L83832 77395
L83804 77367
L83832 77339
L83832 77395
" />
<path d="M84029 77002
L84254 77002
" />
<path d="M84113 77395
L84113 76889
L84141 76833
L84197 76805
L84254 76805
" />
<path d="M84704 77367
L84647 77395
L84535 77395
L84479 77367
L84451 77339
L84422 77283
L84422 77114
L84451 77058
L84479 77030
L84535 77002
L84647 77002
L84704 77030
" />
<path d="M84901 76805
L85266 76805
L85069 77030
L85154 77030
L85210 77058
L85238 77086
L85266 77142
L85266 77283
L85238 77339
L85210 77367
L85154 77395
L84985 77395
L84929 77367
L84901 77339
" />
<path d="M85632 76805
L85688 76805
L85744 76833
L85772 76861
L85800 76917
L85829 77030
L85829 77171
L85800 77283
L85772 77339
L85744 77367
L85688 77395
L85632 77395
L85575 77367
L85547 77339
L85519 77283
L85491 77171
L85491 77030
L85519 76917
L85547 76861
L85575 76833
L85632 76805
" />
</g>
<g style="fill:#000000; fill-opacity:0.0; 
stroke:#000000; stroke-width:39.3701; stroke-opacity:1; 
stroke-linecap:round; stroke-linejoin:round;">
</g>
<g style="fill:#000000; fill-opacity:0.0; 
stroke:#000000; stroke-width:59.0551; stroke-opacity:1; 
stroke-linecap:round; stroke-linejoin:round;">
<path d="M69685 75396
L112205 75396
" />
</g>
<g style="fill:#000000; fill-opacity:0.0; 
stroke:#000000; stroke-width:39.3701; stroke-opacity:1; 
stroke-linecap:round; stroke-linejoin:round;">
</g>
<g style="fill:#000000; fill-opacity:0.0; 
stroke:#000000; stroke-width:118.11; stroke-opacity:1; 
stroke-linecap:round; stroke-linejoin:round;">
<path d="M104099 76293
L103902 76012
" />
<path d="M103761 76293
L103761 75703
L103986 75703
L104042 75731
L104070 75759
L104099 75815
L104099 75899
L104070 75956
L104042 75984
L103986 76012
L103761 76012
" />
<path d="M104577 76265
L104520 76293
L104408 76293
L104352 76265
L104323 76209
L104323 75984
L104352 75928
L104408 75899
L104520 75899
L104577 75928
L104605 75984
L104605 76040
L104323 76096
" />
<path d="M104802 75899
L104942 76293
L105083 75899
" />
<path d="M105308 76237
L105336 76265
L105308 76293
L105280 76265
L105308 76237
L105308 76293
" />
<path d="M105308 75928
L105336 75956
L105308 75984
L105280 75956
L105308 75928
L105308 75984
" />
</g>
<g style="fill:#000000; fill-opacity:0.0; 
stroke:#000000; stroke-width:39.3701; stroke-opacity:1; 
stroke-linecap:round; stroke-linejoin:round;">
</g>
<g style="fill:#000000; fill-opacity:0.0; 
stroke:#000000; stroke-width:59.0551; stroke-opacity:1; 
stroke-linecap:round; stroke-linejoin:round;">
<path d="M70221 76265
L70305 76293
L70446 76293
L70502 76265
L70530 76237
L70559 76181
L70559 76124
L70530 76068
L70502 76040
L70446 76012
L70334 75984
L70277 75956
L70249 75928
L70221 75871
L70221 75815
L70249 75759
L70277 75731
L70334 75703
L70474 75703
L70559 75731
" />
<path d="M70812 76293
L70812 75899
" />
<path d="M70812 75703
L70784 75731
L70812 75759
L70840 75731
L70812 75703
L70812 75759
" />
<path d="M71037 75899
L71346 75899
L71037 76293
L71346 76293
" />
<path d="M71796 76265
L71740 76293
L71627 76293
L71571 76265
L71543 76209
L71543 75984
L71571 75928
L71627 75899
L71740 75899
L71796 75928
L71824 75984
L71824 76040
L71543 76096
" />
<path d="M72077 76237
L72105 76265
L72077 76293
L72049 76265
L72077 76237
L72077 76293
" />
<path d="M72077 75928
L72105 75956
L72077 75984
L72049 75956
L72077 75928
L72077 75984
" />
<path d="M72780 76124
L73061 76124
" />
<path d="M72724 76293
L72921 75703
L73118 76293
" />
<path d="M73568 75899
L73568 76293
" />
<path d="M73427 75674
L73286 76096
L73652 76096
" />
</g>
<g style="fill:#000000; fill-opacity:0.0; 
stroke:#000000; stroke-width:39.3701; stroke-opacity:1; 
stroke-linecap:round; stroke-linejoin:round;">
</g>
<g style="fill:#000000; fill-opacity:0.0; 
stroke:#000000; stroke-width:59.0551; stroke-opacity:1; 
stroke-linecap:round; stroke-linejoin:round;">
<path d="M103714 77395
L103714 76805
" />
<path d="M104248 77395
L104248 76805
" />
<path d="M104248 77367
L104192 77395
L104079 77395
L104023 77367
L103995 77339
L103967 77283
L103967 77114
L103995 77058
L104023 77030
L104079 77002
L104192 77002
L104248 77030
" />
<path d="M104529 77339
L104557 77367
L104529 77395
L104501 77367
L104529 77339
L104529 77395
" />
<path d="M104529 77030
L104557 77058
L104529 77086
L104501 77058
L104529 77030
L104529 77086
" />
<path d="M105570 77395
L105232 77395
" />
<path d="M105401 77395
L105401 76805
L105345 76889
L105289 76946
L105232 76974
" />
<path d="M106245 76777
L105739 77536
" />
<path d="M106751 77395
L106413 77395
" />
<path d="M106582 77395
L106582 76805
L106526 76889
L106470 76946
L106413 76974
" />
</g>
<g style="fill:#000000; fill-opacity:0.0; 
stroke:#000000; stroke-width:39.3701; stroke-opacity:1; 
stroke-linecap:round; stroke-linejoin:round;">
</g>
<g style="fill:#000000; fill-opacity:0.0; 
stroke:#000000; stroke-width:59.0551; stroke-opacity:1; 
stroke-linecap:round; stroke-linejoin:round;">
<path d="M69685 73821
L112205 73821
" />
</g>
<g style="fill:#000000; fill-opacity:0.0; 
stroke:#000000; stroke-width:39.3701; stroke-opacity:1; 
stroke-linecap:round; stroke-linejoin:round;">
</g>
<g style="fill:#000000; fill-opacity:0.0; 
stroke:#000000; stroke-width:157.48; stroke-opacity:1; 
stroke-linecap:round; stroke-linejoin:round;">
<path d="M70360 74099
L70810 74099
" />
<path d="M70486 74886
L70585 74099
" />
<path d="M70974 74886
L71039 74361
" />
<path d="M71072 74099
L71030 74136
L71063 74174
L71105 74136
L71072 74099
L71063 74174
" />
<path d="M71302 74361
L71602 74361
" />
<path d="M71447 74099
L71363 74774
L71391 74849
L71461 74886
L71536 74886
" />
<path d="M71911 74886
L71841 74849
L71813 74774
L71897 74099
" />
<path d="M72516 74849
L72436 74886
L72286 74886
L72216 74849
L72187 74774
L72225 74474
L72272 74399
L72352 74361
L72501 74361
L72572 74399
L72600 74474
L72591 74549
L72206 74624
" />
<path d="M72895 74811
L72928 74849
L72886 74886
L72853 74849
L72895 74811
L72886 74886
" />
<path d="M72947 74399
L72980 74436
L72937 74474
L72905 74436
L72947 74399
L72937 74474
" />
</g>
<g style="fill:#000000; fill-opacity:0.0; 
stroke:#000000; stroke-width:39.3701; stroke-opacity:1; 
stroke-linecap:round; stroke-linejoin:round;">
</g>
<g style="fill:#000000; fill-opacity:0.0; 
stroke:#000000; stroke-width:59.0551; stroke-opacity:1; 
stroke-linecap:round; stroke-linejoin:round;">
<path d="M70446 73070
L70249 73070
" />
<path d="M70249 73380
L70249 72789
L70530 72789
" />
<path d="M70755 73380
L70755 72986
" />
<path d="M70755 72789
L70727 72817
L70755 72845
L70784 72817
L70755 72789
L70755 72845
" />
<path d="M71121 73380
L71065 73352
L71037 73295
L71037 72789
" />
<path d="M71571 73352
L71515 73380
L71402 73380
L71346 73352
L71318 73295
L71318 73070
L71346 73014
L71402 72986
L71515 72986
L71571 73014
L71599 73070
L71599 73127
L71318 73183
" />
<path d="M71852 73323
L71880 73352
L71852 73380
L71824 73352
L71852 73323
L71852 73380
" />
<path d="M71852 73014
L71880 73042
L71852 73070
L71824 73042
L71852 73014
L71852 73070
" />
<path d="M72583 73380
L72583 72789
" />
<path d="M72583 73014
L72640 72986
L72752 72986
L72808 73014
L72836 73042
L72865 73099
L72865 73267
L72836 73323
L72808 73352
L72752 73380
L72640 73380
L72583 73352
" />
<path d="M73371 73380
L73371 73070
L73343 73014
L73286 72986
L73174 72986
L73118 73014
" />
<path d="M73371 73352
L73314 73380
L73174 73380
L73118 73352
L73090 73295
L73090 73239
L73118 73183
L73174 73155
L73314 73155
L73371 73127
" />
<path d="M73624 73352
L73680 73380
L73793 73380
L73849 73352
L73877 73295
L73877 73267
L73849 73211
L73793 73183
L73708 73183
L73652 73155
L73624 73099
L73624 73070
L73652 73014
L73708 72986
L73793 72986
L73849 73014
" />
<path d="M74355 73352
L74299 73380
L74186 73380
L74130 73352
L74102 73295
L74102 73070
L74130 73014
L74186 72986
L74299 72986
L74355 73014
L74383 73070
L74383 73127
L74102 73183
" />
<path d="M74636 73323
L74664 73352
L74636 73380
L74608 73352
L74636 73323
L74636 73380
" />
<path d="M74917 73380
L74917 72789
" />
<path d="M74974 73155
L75142 73380
" />
<path d="M75142 72986
L74917 73211
" />
<path d="M75395 73380
L75395 72986
" />
<path d="M75395 72789
L75367 72817
L75395 72845
L75424 72817
L75395 72789
L75395 72845
" />
<path d="M75930 73352
L75874 73380
L75761 73380
L75705 73352
L75677 73323
L75649 73267
L75649 73099
L75677 73042
L75705 73014
L75761 72986
L75874 72986
L75930 73014
" />
<path d="M76436 73380
L76436 73070
L76408 73014
L76352 72986
L76239 72986
L76183 73014
" />
<path d="M76436 73352
L76380 73380
L76239 73380
L76183 73352
L76155 73295
L76155 73239
L76183 73183
L76239 73155
L76380 73155
L76436 73127
" />
<path d="M76970 73380
L76970 72789
" />
<path d="M76970 73352
L76914 73380
L76802 73380
L76745 73352
L76717 73323
L76689 73267
L76689 73099
L76717 73042
L76745 73014
L76802 72986
L76914 72986
L76970 73014
" />
<path d="M77111 73436
L77561 73436
" />
<path d="M77701 72986
L77701 73577
" />
<path d="M77701 73014
L77758 72986
L77870 72986
L77926 73014
L77955 73042
L77983 73099
L77983 73267
L77955 73323
L77926 73352
L77870 73380
L77758 73380
L77701 73352
" />
<path d="M78489 73352
L78433 73380
L78320 73380
L78264 73352
L78236 73323
L78208 73267
L78208 73099
L78236 73042
L78264 73014
L78320 72986
L78433 72986
L78489 73014
" />
<path d="M78742 73380
L78742 72789
" />
<path d="M78742 73014
L78798 72986
L78911 72986
L78967 73014
L78995 73042
L79023 73099
L79023 73267
L78995 73323
L78967 73352
L78911 73380
L78798 73380
L78742 73352
" />
</g>
<g style="fill:#000000; fill-opacity:0.0; 
stroke:#000000; stroke-width:39.3701; stroke-opacity:1; 
stroke-linecap:round; stroke-linejoin:round;">
</g>
<g style="fill:#000000; fill-opacity:0.0; 
stroke:#000000; stroke-width:59.0551; stroke-opacity:1; 
stroke-linecap:round; stroke-linejoin:round;">
<path d="M69685 71459
L112205 71459
" />
</g>
<g style="fill:#000000; fill-opacity:0.0; 
stroke:#000000; stroke-width:39.3701; stroke-opacity:1; 
stroke-linecap:round; stroke-linejoin:round;">
</g>
<g style="fill:#000000; fill-opacity:0.0; 
stroke:#000000; stroke-width:59.0551; stroke-opacity:1; 
stroke-linecap:round; stroke-linejoin:round;">
<path d="M70221 72289
L70305 72317
L70446 72317
L70502 72289
L70530 72260
L70559 72204
L70559 72148
L70530 72092
L70502 72064
L70446 72036
L70334 72007
L70277 71979
L70249 71951
L70221 71895
L70221 71839
L70249 71782
L70277 71754
L70334 71726
L70474 71726
L70559 71754
" />
<path d="M70812 72317
L70812 71726
" />
<path d="M71065 72317
L71065 72007
L71037 71951
L70980 71923
L70896 71923
L70840 71951
L70812 71979
" />
<path d="M71571 72289
L71515 72317
L71402 72317
L71346 72289
L71318 72232
L71318 72007
L71346 71951
L71402 71923
L71515 71923
L71571 71951
L71599 72007
L71599 72064
L71318 72120
" />
<path d="M72077 72289
L72021 72317
L71908 72317
L71852 72289
L71824 72232
L71824 72007
L71852 71951
L71908 71923
L72021 71923
L72077 71951
L72105 72007
L72105 72064
L71824 72120
" />
<path d="M72274 71923
L72499 71923
" />
<path d="M72358 71726
L72358 72232
L72386 72289
L72443 72317
L72499 72317
" />
<path d="M72696 72260
L72724 72289
L72696 72317
L72668 72289
L72696 72260
L72696 72317
" />
<path d="M72696 71951
L72724 71979
L72696 72007
L72668 71979
L72696 71951
L72696 72007
" />
</g>
<g style="fill:#000000; fill-opacity:0.0; 
stroke:#000000; stroke-width:39.3701; stroke-opacity:1; 
stroke-linecap:round; stroke-linejoin:round;">
</g>
<g style="fill:#000000; fill-opacity:0.0; 
stroke:#000000; stroke-width:59.0551; stroke-opacity:1; 
stroke-linecap:round; stroke-linejoin:round;">
<path d="M77559 75396
L77559 76577
" />
</g>
<g style="fill:#000000; fill-opacity:0.0; 
stroke:#000000; stroke-width:39.3701; stroke-opacity:1; 
stroke-linecap:round; stroke-linejoin:round;">
</g>
<g style="fill:#000000; fill-opacity:0.0; 
stroke:#000000; stroke-width:59.0551; stroke-opacity:1; 
stroke-linecap:round; stroke-linejoin:round;">
<path d="M102756 75396
L102756 77955
" />
</g>
<g style="fill:#008484; fill-opacity:0.0; 
stroke:#008484; stroke-width:-0.000393701; stroke-opacity:1; 
stroke-linecap:round; stroke-linejoin:round;">
</g>
<g style="fill:#008484; fill-opacity:0.0; 
stroke:#008484; stroke-width:59.0551; stroke-opacity:1; 
stroke-linecap:round; stroke-linejoin:round;">
<path d="M34975 25898
L34900 25898
L34863 25879
L34844 25861
L34807 25804
L34788 25729
L34788 25579
L34807 25542
L34825 25523
L34863 25504
L34938 25504
L34975 25523
L34994 25542
L35013 25579
L35013 25673
L34994 25711
L34975 25729
L34938 25748
L34863 25748
L34825 25729
L34807 25711
L34788 25673
" />
<path d="M34600 25879
L34600 25898
L34619 25936
L34638 25954
" />
<path d="M34244 25504
L34432 25504
L34450 25692
L34432 25673
L34394 25654
L34300 25654
L34263 25673
L34244 25692
L34225 25729
L34225 25823
L34244 25861
L34263 25879
L34300 25898
L34394 25898
L34432 25879
L34450 25861
" />
<path d="M34038 25898
L33963 25898
L33925 25879
L33907 25861
L33869 25804
L33850 25729
L33850 25579
L33869 25542
L33888 25523
L33925 25504
L34000 25504
L34038 25523
L34057 25542
L34075 25579
L34075 25673
L34057 25711
L34038 25729
L34000 25748
L33925 25748
L33888 25729
L33869 25711
L33850 25673
" />
<path d="M33607 25504
L33569 25504
L33532 25523
L33513 25542
L33494 25579
L33476 25654
L33476 25748
L33494 25823
L33513 25861
L33532 25879
L33569 25898
L33607 25898
L33644 25879
L33663 25861
L33682 25823
L33700 25748
L33700 25654
L33682 25579
L33663 25542
L33644 25523
L33607 25504
" />
<path d="M33007 25898
L33007 25636
" />
<path d="M33007 25673
L32988 25654
L32951 25636
L32894 25636
L32857 25654
L32838 25692
L32838 25898
" />
<path d="M32838 25692
L32819 25654
L32782 25636
L32726 25636
L32688 25654
L32669 25692
L32669 25898
" />
<path d="M32482 25898
L32482 25636
" />
<path d="M32482 25673
L32463 25654
L32426 25636
L32369 25636
L32332 25654
L32313 25692
L32313 25898
" />
<path d="M32313 25692
L32294 25654
L32257 25636
L32201 25636
L32163 25654
L32144 25692
L32144 25898
" />
</g>
<g style="fill:#008484; fill-opacity:0.0; 
stroke:#008484; stroke-width:47.2441; stroke-opacity:1; 
stroke-linecap:round; stroke-linejoin:round;">
<path d="M31681 26220
L35457 26220
" />
<path d="M31681 28925
L31681 25989
" />
<path d="M35457 28925
L35457 25989
" />
<path d="M35457 26220
L35014 25989
" />
<path d="M35457 26220
L35014 26451
" />
<path d="M31681 26220
L32125 25989
" />
<path d="M31681 26220
L32125 26451
" />
</g>
<g style="fill:#008484; fill-opacity:0.0; 
stroke:#008484; stroke-width:59.0551; stroke-opacity:1; 
stroke-linecap:round; stroke-linejoin:round;">
<path d="M25614 19410
L25595 19429
L25576 19467
L25576 19560
L25595 19598
L25614 19616
L25651 19635
L25689 19635
L25745 19616
L25970 19392
L25970 19635
" />
<path d="M25951 19823
L25970 19823
L26007 19804
L26026 19785
" />
<path d="M25576 20066
L25576 20104
L25595 20141
L25614 20160
L25651 20179
L25726 20198
L25820 20198
L25895 20179
L25932 20160
L25951 20141
L25970 20104
L25970 20066
L25951 20029
L25932 20010
L25895 19991
L25820 19973
L25726 19973
L25651 19991
L25614 20010
L25595 20029
L25576 20066
" />
<path d="M25576 20441
L25576 20479
L25595 20516
L25614 20535
L25651 20554
L25726 20573
L25820 20573
L25895 20554
L25932 20535
L25951 20516
L25970 20479
L25970 20441
L25951 20404
L25932 20385
L25895 20366
L25820 20348
L25726 20348
L25651 20366
L25614 20385
L25595 20404
L25576 20441
" />
<path d="M25576 20816
L25576 20854
L25595 20891
L25614 20910
L25651 20929
L25726 20948
L25820 20948
L25895 20929
L25932 20910
L25951 20891
L25970 20854
L25970 20816
L25951 20779
L25932 20760
L25895 20741
L25820 20723
L25726 20723
L25651 20741
L25614 20760
L25595 20779
L25576 20816
" />
<path d="M25970 21416
L25707 21416
" />
<path d="M25745 21416
L25726 21435
L25707 21473
L25707 21529
L25726 21566
L25764 21585
L25970 21585
" />
<path d="M25764 21585
L25726 21604
L25707 21641
L25707 21697
L25726 21735
L25764 21754
L25970 21754
" />
<path d="M25970 21941
L25707 21941
" />
<path d="M25745 21941
L25726 21960
L25707 21997
L25707 22054
L25726 22091
L25764 22110
L25970 22110
" />
<path d="M25764 22110
L25726 22129
L25707 22166
L25707 22222
L25726 22260
L25764 22279
L25970 22279
" />
</g>
<g style="fill:#008484; fill-opacity:0.0; 
stroke:#008484; stroke-width:47.2441; stroke-opacity:1; 
stroke-linecap:round; stroke-linejoin:round;">
<path d="M26292 20460
L26292 21248
" />
<path d="M26760 20460
L26061 20460
" />
<path d="M26760 21248
L26061 21248
" />
<path d="M26292 21248
L26523 20804
" />
<path d="M26292 21248
L26061 20804
" />
<path d="M26292 20460
L26523 20904
" />
<path d="M26292 20460
L26061 20904
" />
</g>
<g style="fill:#008484; fill-opacity:0.0; 
stroke:#008484; stroke-width:59.0551; stroke-opacity:1; 
stroke-linecap:round; stroke-linejoin:round;">
<path d="M40849 36133
L41112 36133
" />
<path d="M40699 36039
L40980 35946
L40980 36189
" />
<path d="M41093 36358
L41112 36358
L41149 36339
L41168 36321
" />
<path d="M40718 36602
L40718 36639
L40737 36677
L40755 36696
L40793 36714
L40868 36733
L40962 36733
L41037 36714
L41074 36696
L41093 36677
L41112 36639
L41112 36602
L41093 36564
L41074 36546
L41037 36527
L40962 36508
L40868 36508
L40793 36527
L40755 36546
L40737 36564
L40718 36602
" />
<path d="M40718 36977
L40718 37014
L40737 37052
L40755 37071
L40793 37089
L40868 37108
L40962 37108
L41037 37089
L41074 37071
L41093 37052
L41112 37014
L41112 36977
L41093 36939
L41074 36921
L41037 36902
L40962 36883
L40868 36883
L40793 36902
L40755 36921
L40737 36939
L40718 36977
" />
<path d="M40718 37352
L40718 37389
L40737 37427
L40755 37446
L40793 37464
L40868 37483
L40962 37483
L41037 37464
L41074 37446
L41093 37427
L41112 37389
L41112 37352
L41093 37314
L41074 37296
L41037 37277
L40962 37258
L40868 37258
L40793 37277
L40755 37296
L40737 37314
L40718 37352
" />
<path d="M41112 37952
L40849 37952
" />
<path d="M40887 37952
L40868 37970
L40849 38008
L40849 38064
L40868 38102
L40905 38120
L41112 38120
" />
<path d="M40905 38120
L40868 38139
L40849 38177
L40849 38233
L40868 38270
L40905 38289
L41112 38289
" />
<path d="M41112 38477
L40849 38477
" />
<path d="M40887 38477
L40868 38495
L40849 38533
L40849 38589
L40868 38627
L40905 38645
L41112 38645
" />
<path d="M40905 38645
L40868 38664
L40849 38702
L40849 38758
L40868 38795
L40905 38814
L41112 38814
" />
</g>
<g style="fill:#008484; fill-opacity:0.0; 
stroke:#008484; stroke-width:47.2441; stroke-opacity:1; 
stroke-linecap:round; stroke-linejoin:round;">
<path d="M40433 36602
L40433 38177
" />
<path d="M36603 36602
L40664 36602
" />
<path d="M36603 38177
L40664 38177
" />
<path d="M40433 38177
L40664 37733
" />
<path d="M40433 38177
L40203 37733
" />
<path d="M40433 36602
L40664 37045
" />
<path d="M40433 36602
L40203 37045
" />
</g>
<g style="fill:#008484; fill-opacity:0.0; 
stroke:#008484; stroke-width:59.0551; stroke-opacity:1; 
stroke-linecap:round; stroke-linejoin:round;">
<path d="M33313 39711
L33294 39692
L33256 39674
L33163 39674
L33125 39692
L33106 39711
L33088 39749
L33088 39786
L33106 39842
L33331 40067
L33088 40067
" />
<path d="M32731 39674
L32919 39674
L32938 39861
L32919 39842
L32881 39824
L32788 39824
L32750 39842
L32731 39861
L32713 39899
L32713 39992
L32731 40030
L32750 40049
L32788 40067
L32881 40067
L32919 40049
L32938 40030
" />
<path d="M32525 40049
L32525 40067
L32544 40105
L32563 40124
" />
<path d="M32281 39674
L32244 39674
L32206 39692
L32188 39711
L32169 39749
L32150 39824
L32150 39917
L32169 39992
L32188 40030
L32206 40049
L32244 40067
L32281 40067
L32319 40049
L32338 40030
L32356 39992
L32375 39917
L32375 39824
L32356 39749
L32338 39711
L32319 39692
L32281 39674
" />
<path d="M31906 39674
L31869 39674
L31831 39692
L31813 39711
L31794 39749
L31775 39824
L31775 39917
L31794 39992
L31813 40030
L31831 40049
L31869 40067
L31906 40067
L31944 40049
L31963 40030
L31981 39992
L32000 39917
L32000 39824
L31981 39749
L31963 39711
L31944 39692
L31906 39674
" />
<path d="M31531 39674
L31494 39674
L31456 39692
L31438 39711
L31419 39749
L31400 39824
L31400 39917
L31419 39992
L31438 40030
L31456 40049
L31494 40067
L31531 40067
L31569 40049
L31588 40030
L31606 39992
L31625 39917
L31625 39824
L31606 39749
L31588 39711
L31569 39692
L31531 39674
" />
<path d="M30932 40067
L30932 39805
" />
<path d="M30932 39842
L30913 39824
L30875 39805
L30819 39805
L30782 39824
L30763 39861
L30763 40067
" />
<path d="M30763 39861
L30744 39824
L30707 39805
L30650 39805
L30613 39824
L30594 39861
L30594 40067
" />
<path d="M30407 40067
L30407 39805
" />
<path d="M30407 39842
L30388 39824
L30350 39805
L30294 39805
L30257 39824
L30238 39861
L30238 40067
" />
<path d="M30238 39861
L30219 39824
L30182 39805
L30125 39805
L30088 39824
L30069 39861
L30069 40067
" />
</g>
<g style="fill:#008484; fill-opacity:0.0; 
stroke:#008484; stroke-width:47.2441; stroke-opacity:1; 
stroke-linecap:round; stroke-linejoin:round;">
<path d="M36603 39389
L26760 39389
" />
<path d="M36603 37389
L36603 39620
" />
<path d="M26760 37389
L26760 39620
" />
<path d="M26760 39389
L27204 39620
" />
<path d="M26760 39389
L27204 39158
" />
<path d="M36603 39389
L36159 39620
" />
<path d="M36603 39389
L36159 39158
" />
</g>
<g style="fill:#008484; fill-opacity:0.0; 
stroke:#008484; stroke-width:59.0551; stroke-opacity:1; 
stroke-linecap:round; stroke-linejoin:round;">
<path d="M38998 21813
L38736 21813
" />
<path d="M39148 21906
L38867 22000
L38867 21756
" />
<path d="M38754 21588
L38736 21588
L38698 21606
L38679 21625
" />
<path d="M39129 21232
L39129 21419
L38942 21438
L38961 21419
L38979 21381
L38979 21288
L38961 21250
L38942 21232
L38904 21213
L38811 21213
L38773 21232
L38754 21250
L38736 21288
L38736 21381
L38754 21419
L38773 21438
" />
<path d="M38736 20838
L38736 21063
" />
<path d="M38736 20950
L39129 20950
L39073 20988
L39036 21025
L39017 21063
" />
<path d="M39129 20594
L39129 20557
L39111 20519
L39092 20500
L39054 20482
L38979 20463
L38886 20463
L38811 20482
L38773 20500
L38754 20519
L38736 20557
L38736 20594
L38754 20632
L38773 20650
L38811 20669
L38886 20688
L38979 20688
L39054 20669
L39092 20650
L39111 20632
L39129 20594
" />
<path d="M38736 19994
L38998 19994
" />
<path d="M38961 19994
L38979 19975
L38998 19938
L38998 19882
L38979 19844
L38942 19825
L38736 19825
" />
<path d="M38942 19825
L38979 19807
L38998 19769
L38998 19713
L38979 19675
L38942 19657
L38736 19657
" />
<path d="M38736 19469
L38998 19469
" />
<path d="M38961 19469
L38979 19450
L38998 19413
L38998 19357
L38979 19319
L38942 19300
L38736 19300
" />
<path d="M38942 19300
L38979 19282
L38998 19244
L38998 19188
L38979 19151
L38942 19132
L38736 19132
" />
</g>
<g style="fill:#008484; fill-opacity:0.0; 
stroke:#008484; stroke-width:47.2441; stroke-opacity:1; 
stroke-linecap:round; stroke-linejoin:round;">
<path d="M38414 21444
L38414 19669
" />
<path d="M38178 21444
L38645 21444
" />
<path d="M38178 19669
L38645 19669
" />
<path d="M38414 19669
L38183 20112
" />
<path d="M38414 19669
L38645 20112
" />
<path d="M38414 21444
L38183 21001
" />
<path d="M38414 21444
L38645 21001
" />
</g>
<g style="fill:#008484; fill-opacity:0.0; 
stroke:#008484; stroke-width:59.0551; stroke-opacity:1; 
stroke-linecap:round; stroke-linejoin:round;">
<path d="M40033 20668
L40033 20443
" />
<path d="M40033 20556
L39639 20556
L39695 20518
L39733 20481
L39752 20443
" />
<path d="M39677 20818
L39658 20837
L39639 20874
L39639 20968
L39658 21006
L39677 21024
L39714 21043
L39752 21043
L39808 21024
L40033 20799
L40033 21043
" />
<path d="M40014 21231
L40033 21231
L40070 21212
L40089 21193
" />
<path d="M39677 21381
L39658 21399
L39639 21437
L39639 21531
L39658 21568
L39677 21587
L39714 21606
L39752 21606
L39808 21587
L40033 21362
L40033 21606
" />
<path d="M39639 21849
L39639 21887
L39658 21924
L39677 21943
L39714 21962
L39789 21981
L39883 21981
L39958 21962
L39995 21943
L40014 21924
L40033 21887
L40033 21849
L40014 21812
L39995 21793
L39958 21774
L39883 21756
L39789 21756
L39714 21774
L39677 21793
L39658 21812
L39639 21849
" />
<path d="M39639 22224
L39639 22262
L39658 22299
L39677 22318
L39714 22337
L39789 22356
L39883 22356
L39958 22337
L39995 22318
L40014 22299
L40033 22262
L40033 22224
L40014 22187
L39995 22168
L39958 22149
L39883 22131
L39789 22131
L39714 22149
L39677 22168
L39658 22187
L39639 22224
" />
<path d="M40033 22824
L39770 22824
" />
<path d="M39808 22824
L39789 22843
L39770 22880
L39770 22937
L39789 22974
L39827 22993
L40033 22993
" />
<path d="M39827 22993
L39789 23012
L39770 23049
L39770 23105
L39789 23143
L39827 23162
L40033 23162
" />
<path d="M40033 23349
L39770 23349
" />
<path d="M39808 23349
L39789 23368
L39770 23405
L39770 23462
L39789 23499
L39827 23518
L40033 23518
" />
<path d="M39827 23518
L39789 23537
L39770 23574
L39770 23630
L39789 23668
L39827 23687
L40033 23687
" />
</g>
<g style="fill:#008484; fill-opacity:0.0; 
stroke:#008484; stroke-width:47.2441; stroke-opacity:1; 
stroke-linecap:round; stroke-linejoin:round;">
<path d="M39355 19673
L39355 24476
" />
<path d="M37390 19673
L39586 19673
" />
<path d="M37390 24476
L39586 24476
" />
<path d="M39355 24476
L39586 24032
" />
<path d="M39355 24476
L39124 24032
" />
<path d="M39355 19673
L39586 20116
" />
<path d="M39355 19673
L39124 20116
" />
</g>
<g style="fill:#008484; fill-opacity:0.0; 
stroke:#008484; stroke-width:59.0551; stroke-opacity:1; 
stroke-linecap:round; stroke-linejoin:round;">
<path d="M33331 14654
L33088 14654
L33219 14804
L33163 14804
L33125 14823
L33106 14841
L33088 14879
L33088 14973
L33106 15010
L33125 15029
L33163 15048
L33275 15048
L33313 15029
L33331 15010
" />
<path d="M32956 14654
L32713 14654
L32844 14804
L32788 14804
L32750 14823
L32731 14841
L32713 14879
L32713 14973
L32731 15010
L32750 15029
L32788 15048
L32900 15048
L32938 15029
L32956 15010
" />
<path d="M32525 15029
L32525 15048
L32544 15085
L32563 15104
" />
<path d="M32281 14654
L32244 14654
L32206 14673
L32188 14691
L32169 14729
L32150 14804
L32150 14898
L32169 14973
L32188 15010
L32206 15029
L32244 15048
L32281 15048
L32319 15029
L32338 15010
L32356 14973
L32375 14898
L32375 14804
L32356 14729
L32338 14691
L32319 14673
L32281 14654
" />
<path d="M31906 14654
L31869 14654
L31831 14673
L31813 14691
L31794 14729
L31775 14804
L31775 14898
L31794 14973
L31813 15010
L31831 15029
L31869 15048
L31906 15048
L31944 15029
L31963 15010
L31981 14973
L32000 14898
L32000 14804
L31981 14729
L31963 14691
L31944 14673
L31906 14654
" />
<path d="M31531 14654
L31494 14654
L31456 14673
L31438 14691
L31419 14729
L31400 14804
L31400 14898
L31419 14973
L31438 15010
L31456 15029
L31494 15048
L31531 15048
L31569 15029
L31588 15010
L31606 14973
L31625 14898
L31625 14804
L31606 14729
L31588 14691
L31569 14673
L31531 14654
" />
<path d="M30932 15048
L30932 14785
" />
<path d="M30932 14823
L30913 14804
L30875 14785
L30819 14785
L30782 14804
L30763 14841
L30763 15048
" />
<path d="M30763 14841
L30744 14804
L30707 14785
L30650 14785
L30613 14804
L30594 14841
L30594 15048
" />
<path d="M30407 15048
L30407 14785
" />
<path d="M30407 14823
L30388 14804
L30350 14785
L30294 14785
L30257 14804
L30238 14841
L30238 15048
" />
<path d="M30238 14841
L30219 14804
L30182 14785
L30125 14785
L30088 14804
L30069 14841
L30069 15048
" />
</g>
<g style="fill:#008484; fill-opacity:0.0; 
stroke:#008484; stroke-width:47.2441; stroke-opacity:1; 
stroke-linecap:round; stroke-linejoin:round;">
<path d="M38178 15370
L25185 15370
" />
<path d="M38178 21444
L38178 15139
" />
<path d="M25185 21444
L25185 15139
" />
<path d="M25185 15370
L25629 15600
" />
<path d="M25185 15370
L25629 15139
" />
<path d="M38178 15370
L37734 15600
" />
<path d="M38178 15370
L37734 15139
" />
</g>
<g style="fill:#008484; fill-opacity:0.0; 
stroke:#008484; stroke-width:59.0551; stroke-opacity:1; 
stroke-linecap:round; stroke-linejoin:round;">
<path d="M21825 30368
L21562 30368
" />
<path d="M21975 30462
L21694 30556
L21694 30312
" />
<path d="M21956 30200
L21956 29937
L21562 30106
" />
<path d="M21581 29768
L21562 29768
L21525 29787
L21506 29806
" />
<path d="M21956 29525
L21956 29487
L21937 29450
L21919 29431
L21881 29412
L21806 29393
L21712 29393
L21637 29412
L21600 29431
L21581 29450
L21562 29487
L21562 29525
L21581 29562
L21600 29581
L21637 29600
L21712 29618
L21806 29618
L21881 29600
L21919 29581
L21937 29562
L21956 29525
" />
<path d="M21956 29150
L21956 29112
L21937 29075
L21919 29056
L21881 29037
L21806 29018
L21712 29018
L21637 29037
L21600 29056
L21581 29075
L21562 29112
L21562 29150
L21581 29187
L21600 29206
L21637 29225
L21712 29243
L21806 29243
L21881 29225
L21919 29206
L21937 29187
L21956 29150
" />
<path d="M21956 28775
L21956 28737
L21937 28700
L21919 28681
L21881 28662
L21806 28643
L21712 28643
L21637 28662
L21600 28681
L21581 28700
L21562 28737
L21562 28775
L21581 28812
L21600 28831
L21637 28850
L21712 28868
L21806 28868
L21881 28850
L21919 28831
L21937 28812
L21956 28775
" />
<path d="M21562 28175
L21825 28175
" />
<path d="M21787 28175
L21806 28156
L21825 28119
L21825 28062
L21806 28025
L21769 28006
L21562 28006
" />
<path d="M21769 28006
L21806 27987
L21825 27950
L21825 27894
L21806 27856
L21769 27837
L21562 27837
" />
<path d="M21562 27650
L21825 27650
" />
<path d="M21787 27650
L21806 27631
L21825 27594
L21825 27537
L21806 27500
L21769 27481
L21562 27481
" />
<path d="M21769 27481
L21806 27462
L21825 27425
L21825 27369
L21806 27331
L21769 27312
L21562 27312
" />
</g>
<g style="fill:#008484; fill-opacity:0.0; 
stroke:#008484; stroke-width:47.2441; stroke-opacity:1; 
stroke-linecap:round; stroke-linejoin:round;">
<path d="M22241 38177
L22241 19673
" />
<path d="M25973 38177
L22010 38177
" />
<path d="M25973 19673
L22010 19673
" />
<path d="M22241 19673
L22010 20116
" />
<path d="M22241 19673
L22471 20116
" />
<path d="M22241 38177
L22010 37733
" />
<path d="M22241 38177
L22471 37733
" />
<path d="M26485 32594
L32390 32594
" />
<path d="M26485 36531
L26485 32594
" />
<path d="M32390 32594
L32390 36531
" />
<path d="M32390 36531
L26485 36531
" />
<circle cx="31682" cy="28925.2" r="137.344" /> 
<path d="M30973 21318
L36878 21318
" />
<path d="M30973 25255
L30973 21318
" />
<path d="M36878 25255
L30973 25255
" />
<path d="M36878 21318
L36878 25255
" />
<circle cx="31682" cy="28925.2" r="3503.94" /> 
<g >
</g>
</g>
<g style="fill:#000000; fill-opacity:0.0; 
stroke:#000000; stroke-width:47.2441; stroke-opacity:1; 
stroke-linecap:round; stroke-linejoin:round;">
</g>
<g style="fill:#C2C200; fill-opacity:0.0; 
stroke:#C2C200; stroke-width:47.2441; stroke-opacity:1; 
stroke-linecap:round; stroke-linejoin:round;">
</g>
<g style="fill:#C2C200; fill-opacity:0.0; 
stroke:#C2C200; stroke-width:19.685; stroke-opacity:1; 
stroke-linecap:round; stroke-linejoin:round;">
<path d="M25185 33374
L25185 36405
" />
<path d="M25185.9 33374 A4998.82 4998.82 0.0 0 0 25185.9 24476.4 " />
<path d="M38178 36405
L38178 33374
" />
<path d="M38178 24476.4 A4998.82 4998.82 0.0 0 0 38178 33374 " />
<path d="M25973 19673
L25185 21444
" />
<path d="M37390 19673
L38178 21444
" />
<path d="M25185 36405
L25973 38177
" />
<path d="M38178 36405
L37390 38177
" />
<path d="M36603 20460
L26760 20460
" />
<path d="M26760 20460
L26760 21248
" />
<path d="M36603 21248
L36603 20460
" />
<path d="M26760 21248
L36603 21248
" />
<path d="M26760 37389
L36603 37389
" />
<path d="M26760 36602
L26760 37389
" />
<path d="M36603 36602
L26760 36602
" />
<path d="M36603 37389
L36603 36602
" />
<path d="M25973 19673
L37390 19673
" />
<path d="M25185 24476
L25185 21444
" />
<path d="M37390 38177
L25973 38177
" />
<path d="M38178 21444
L38178 24476
" />
<g >
</g>
</g> 
</svg>
