G04 #@! TF.GenerationSoftware,KiCad,Pcbnew,5.1.4-1.fc30*
G04 #@! TF.CreationDate,2019-09-08T13:51:55+02:00*
G04 #@! TF.ProjectId,synchro2,73796e63-6872-46f3-922e-6b696361645f,rev?*
G04 #@! TF.SameCoordinates,Original*
G04 #@! TF.FileFunction,Copper,L2,Bot*
G04 #@! TF.FilePolarity,Positive*
%FSLAX46Y46*%
G04 Gerber Fmt 4.6, Leading zero omitted, Abs format (unit mm)*
G04 Created by KiCad (PCBNEW 5.1.4-1.fc30) date 2019-09-08 13:51:55*
%MOMM*%
%LPD*%
G04 APERTURE LIST*
%ADD10R,1.524000X1.524000*%
%ADD11C,0.100000*%
%ADD12C,0.875000*%
%ADD13R,0.900000X0.800000*%
%ADD14R,1.060000X0.650000*%
%ADD15C,1.700000*%
%ADD16C,1.700000*%
%ADD17C,3.025000*%
%ADD18C,1.525000*%
%ADD19C,1.500000*%
%ADD20C,0.400000*%
%ADD21C,0.254000*%
G04 APERTURE END LIST*
D10*
X217360000Y-130960000D03*
X221170000Y-130960000D03*
X217360000Y-133500000D03*
X221170000Y-133500000D03*
D11*
G36*
X232177691Y-129151053D02*
G01*
X232198926Y-129154203D01*
X232219750Y-129159419D01*
X232239962Y-129166651D01*
X232259368Y-129175830D01*
X232277781Y-129186866D01*
X232295024Y-129199654D01*
X232310930Y-129214070D01*
X232325346Y-129229976D01*
X232338134Y-129247219D01*
X232349170Y-129265632D01*
X232358349Y-129285038D01*
X232365581Y-129305250D01*
X232370797Y-129326074D01*
X232373947Y-129347309D01*
X232375000Y-129368750D01*
X232375000Y-129806250D01*
X232373947Y-129827691D01*
X232370797Y-129848926D01*
X232365581Y-129869750D01*
X232358349Y-129889962D01*
X232349170Y-129909368D01*
X232338134Y-129927781D01*
X232325346Y-129945024D01*
X232310930Y-129960930D01*
X232295024Y-129975346D01*
X232277781Y-129988134D01*
X232259368Y-129999170D01*
X232239962Y-130008349D01*
X232219750Y-130015581D01*
X232198926Y-130020797D01*
X232177691Y-130023947D01*
X232156250Y-130025000D01*
X231643750Y-130025000D01*
X231622309Y-130023947D01*
X231601074Y-130020797D01*
X231580250Y-130015581D01*
X231560038Y-130008349D01*
X231540632Y-129999170D01*
X231522219Y-129988134D01*
X231504976Y-129975346D01*
X231489070Y-129960930D01*
X231474654Y-129945024D01*
X231461866Y-129927781D01*
X231450830Y-129909368D01*
X231441651Y-129889962D01*
X231434419Y-129869750D01*
X231429203Y-129848926D01*
X231426053Y-129827691D01*
X231425000Y-129806250D01*
X231425000Y-129368750D01*
X231426053Y-129347309D01*
X231429203Y-129326074D01*
X231434419Y-129305250D01*
X231441651Y-129285038D01*
X231450830Y-129265632D01*
X231461866Y-129247219D01*
X231474654Y-129229976D01*
X231489070Y-129214070D01*
X231504976Y-129199654D01*
X231522219Y-129186866D01*
X231540632Y-129175830D01*
X231560038Y-129166651D01*
X231580250Y-129159419D01*
X231601074Y-129154203D01*
X231622309Y-129151053D01*
X231643750Y-129150000D01*
X232156250Y-129150000D01*
X232177691Y-129151053D01*
X232177691Y-129151053D01*
G37*
D12*
X231900000Y-129587500D03*
D11*
G36*
X232177691Y-127576053D02*
G01*
X232198926Y-127579203D01*
X232219750Y-127584419D01*
X232239962Y-127591651D01*
X232259368Y-127600830D01*
X232277781Y-127611866D01*
X232295024Y-127624654D01*
X232310930Y-127639070D01*
X232325346Y-127654976D01*
X232338134Y-127672219D01*
X232349170Y-127690632D01*
X232358349Y-127710038D01*
X232365581Y-127730250D01*
X232370797Y-127751074D01*
X232373947Y-127772309D01*
X232375000Y-127793750D01*
X232375000Y-128231250D01*
X232373947Y-128252691D01*
X232370797Y-128273926D01*
X232365581Y-128294750D01*
X232358349Y-128314962D01*
X232349170Y-128334368D01*
X232338134Y-128352781D01*
X232325346Y-128370024D01*
X232310930Y-128385930D01*
X232295024Y-128400346D01*
X232277781Y-128413134D01*
X232259368Y-128424170D01*
X232239962Y-128433349D01*
X232219750Y-128440581D01*
X232198926Y-128445797D01*
X232177691Y-128448947D01*
X232156250Y-128450000D01*
X231643750Y-128450000D01*
X231622309Y-128448947D01*
X231601074Y-128445797D01*
X231580250Y-128440581D01*
X231560038Y-128433349D01*
X231540632Y-128424170D01*
X231522219Y-128413134D01*
X231504976Y-128400346D01*
X231489070Y-128385930D01*
X231474654Y-128370024D01*
X231461866Y-128352781D01*
X231450830Y-128334368D01*
X231441651Y-128314962D01*
X231434419Y-128294750D01*
X231429203Y-128273926D01*
X231426053Y-128252691D01*
X231425000Y-128231250D01*
X231425000Y-127793750D01*
X231426053Y-127772309D01*
X231429203Y-127751074D01*
X231434419Y-127730250D01*
X231441651Y-127710038D01*
X231450830Y-127690632D01*
X231461866Y-127672219D01*
X231474654Y-127654976D01*
X231489070Y-127639070D01*
X231504976Y-127624654D01*
X231522219Y-127611866D01*
X231540632Y-127600830D01*
X231560038Y-127591651D01*
X231580250Y-127584419D01*
X231601074Y-127579203D01*
X231622309Y-127576053D01*
X231643750Y-127575000D01*
X232156250Y-127575000D01*
X232177691Y-127576053D01*
X232177691Y-127576053D01*
G37*
D12*
X231900000Y-128012500D03*
D13*
X227200000Y-103300000D03*
X229200000Y-104250000D03*
X229200000Y-102350000D03*
D14*
X211050000Y-124200000D03*
X211050000Y-122300000D03*
X208850000Y-122300000D03*
X208850000Y-123250000D03*
X208850000Y-124200000D03*
D15*
X205996051Y-110596051D03*
D16*
X205996051Y-110596051D02*
X205996051Y-110596051D01*
D15*
X204200000Y-108800000D03*
D11*
G36*
X204200000Y-110002082D02*
G01*
X202997918Y-108800000D01*
X204200000Y-107597918D01*
X205402082Y-108800000D01*
X204200000Y-110002082D01*
X204200000Y-110002082D01*
G37*
G36*
X221099503Y-102901204D02*
G01*
X221123772Y-102904804D01*
X221147570Y-102910765D01*
X221170670Y-102919030D01*
X221192849Y-102929520D01*
X221213892Y-102942133D01*
X221233598Y-102956748D01*
X221251776Y-102973224D01*
X221268252Y-102991402D01*
X221282867Y-103011108D01*
X221295480Y-103032151D01*
X221305970Y-103054330D01*
X221314235Y-103077430D01*
X221320196Y-103101228D01*
X221323796Y-103125497D01*
X221325000Y-103150001D01*
X221325000Y-105674999D01*
X221323796Y-105699503D01*
X221320196Y-105723772D01*
X221314235Y-105747570D01*
X221305970Y-105770670D01*
X221295480Y-105792849D01*
X221282867Y-105813892D01*
X221268252Y-105833598D01*
X221251776Y-105851776D01*
X221233598Y-105868252D01*
X221213892Y-105882867D01*
X221192849Y-105895480D01*
X221170670Y-105905970D01*
X221147570Y-105914235D01*
X221123772Y-105920196D01*
X221099503Y-105923796D01*
X221074999Y-105925000D01*
X217125001Y-105925000D01*
X217100497Y-105923796D01*
X217076228Y-105920196D01*
X217052430Y-105914235D01*
X217029330Y-105905970D01*
X217007151Y-105895480D01*
X216986108Y-105882867D01*
X216966402Y-105868252D01*
X216948224Y-105851776D01*
X216931748Y-105833598D01*
X216917133Y-105813892D01*
X216904520Y-105792849D01*
X216894030Y-105770670D01*
X216885765Y-105747570D01*
X216879804Y-105723772D01*
X216876204Y-105699503D01*
X216875000Y-105674999D01*
X216875000Y-103150001D01*
X216876204Y-103125497D01*
X216879804Y-103101228D01*
X216885765Y-103077430D01*
X216894030Y-103054330D01*
X216904520Y-103032151D01*
X216917133Y-103011108D01*
X216931748Y-102991402D01*
X216948224Y-102973224D01*
X216966402Y-102956748D01*
X216986108Y-102942133D01*
X217007151Y-102929520D01*
X217029330Y-102919030D01*
X217052430Y-102910765D01*
X217076228Y-102904804D01*
X217100497Y-102901204D01*
X217125001Y-102900000D01*
X221074999Y-102900000D01*
X221099503Y-102901204D01*
X221099503Y-102901204D01*
G37*
D17*
X219100000Y-104412500D03*
D11*
G36*
X221099503Y-97876204D02*
G01*
X221123772Y-97879804D01*
X221147570Y-97885765D01*
X221170670Y-97894030D01*
X221192849Y-97904520D01*
X221213892Y-97917133D01*
X221233598Y-97931748D01*
X221251776Y-97948224D01*
X221268252Y-97966402D01*
X221282867Y-97986108D01*
X221295480Y-98007151D01*
X221305970Y-98029330D01*
X221314235Y-98052430D01*
X221320196Y-98076228D01*
X221323796Y-98100497D01*
X221325000Y-98125001D01*
X221325000Y-100649999D01*
X221323796Y-100674503D01*
X221320196Y-100698772D01*
X221314235Y-100722570D01*
X221305970Y-100745670D01*
X221295480Y-100767849D01*
X221282867Y-100788892D01*
X221268252Y-100808598D01*
X221251776Y-100826776D01*
X221233598Y-100843252D01*
X221213892Y-100857867D01*
X221192849Y-100870480D01*
X221170670Y-100880970D01*
X221147570Y-100889235D01*
X221123772Y-100895196D01*
X221099503Y-100898796D01*
X221074999Y-100900000D01*
X217125001Y-100900000D01*
X217100497Y-100898796D01*
X217076228Y-100895196D01*
X217052430Y-100889235D01*
X217029330Y-100880970D01*
X217007151Y-100870480D01*
X216986108Y-100857867D01*
X216966402Y-100843252D01*
X216948224Y-100826776D01*
X216931748Y-100808598D01*
X216917133Y-100788892D01*
X216904520Y-100767849D01*
X216894030Y-100745670D01*
X216885765Y-100722570D01*
X216879804Y-100698772D01*
X216876204Y-100674503D01*
X216875000Y-100649999D01*
X216875000Y-98125001D01*
X216876204Y-98100497D01*
X216879804Y-98076228D01*
X216885765Y-98052430D01*
X216894030Y-98029330D01*
X216904520Y-98007151D01*
X216917133Y-97986108D01*
X216931748Y-97966402D01*
X216948224Y-97948224D01*
X216966402Y-97931748D01*
X216986108Y-97917133D01*
X217007151Y-97904520D01*
X217029330Y-97894030D01*
X217052430Y-97885765D01*
X217076228Y-97879804D01*
X217100497Y-97876204D01*
X217125001Y-97875000D01*
X221074999Y-97875000D01*
X221099503Y-97876204D01*
X221099503Y-97876204D01*
G37*
D17*
X219100000Y-99387500D03*
D11*
G36*
X232677691Y-103976053D02*
G01*
X232698926Y-103979203D01*
X232719750Y-103984419D01*
X232739962Y-103991651D01*
X232759368Y-104000830D01*
X232777781Y-104011866D01*
X232795024Y-104024654D01*
X232810930Y-104039070D01*
X232825346Y-104054976D01*
X232838134Y-104072219D01*
X232849170Y-104090632D01*
X232858349Y-104110038D01*
X232865581Y-104130250D01*
X232870797Y-104151074D01*
X232873947Y-104172309D01*
X232875000Y-104193750D01*
X232875000Y-104631250D01*
X232873947Y-104652691D01*
X232870797Y-104673926D01*
X232865581Y-104694750D01*
X232858349Y-104714962D01*
X232849170Y-104734368D01*
X232838134Y-104752781D01*
X232825346Y-104770024D01*
X232810930Y-104785930D01*
X232795024Y-104800346D01*
X232777781Y-104813134D01*
X232759368Y-104824170D01*
X232739962Y-104833349D01*
X232719750Y-104840581D01*
X232698926Y-104845797D01*
X232677691Y-104848947D01*
X232656250Y-104850000D01*
X232143750Y-104850000D01*
X232122309Y-104848947D01*
X232101074Y-104845797D01*
X232080250Y-104840581D01*
X232060038Y-104833349D01*
X232040632Y-104824170D01*
X232022219Y-104813134D01*
X232004976Y-104800346D01*
X231989070Y-104785930D01*
X231974654Y-104770024D01*
X231961866Y-104752781D01*
X231950830Y-104734368D01*
X231941651Y-104714962D01*
X231934419Y-104694750D01*
X231929203Y-104673926D01*
X231926053Y-104652691D01*
X231925000Y-104631250D01*
X231925000Y-104193750D01*
X231926053Y-104172309D01*
X231929203Y-104151074D01*
X231934419Y-104130250D01*
X231941651Y-104110038D01*
X231950830Y-104090632D01*
X231961866Y-104072219D01*
X231974654Y-104054976D01*
X231989070Y-104039070D01*
X232004976Y-104024654D01*
X232022219Y-104011866D01*
X232040632Y-104000830D01*
X232060038Y-103991651D01*
X232080250Y-103984419D01*
X232101074Y-103979203D01*
X232122309Y-103976053D01*
X232143750Y-103975000D01*
X232656250Y-103975000D01*
X232677691Y-103976053D01*
X232677691Y-103976053D01*
G37*
D12*
X232400000Y-104412500D03*
D11*
G36*
X232677691Y-105551053D02*
G01*
X232698926Y-105554203D01*
X232719750Y-105559419D01*
X232739962Y-105566651D01*
X232759368Y-105575830D01*
X232777781Y-105586866D01*
X232795024Y-105599654D01*
X232810930Y-105614070D01*
X232825346Y-105629976D01*
X232838134Y-105647219D01*
X232849170Y-105665632D01*
X232858349Y-105685038D01*
X232865581Y-105705250D01*
X232870797Y-105726074D01*
X232873947Y-105747309D01*
X232875000Y-105768750D01*
X232875000Y-106206250D01*
X232873947Y-106227691D01*
X232870797Y-106248926D01*
X232865581Y-106269750D01*
X232858349Y-106289962D01*
X232849170Y-106309368D01*
X232838134Y-106327781D01*
X232825346Y-106345024D01*
X232810930Y-106360930D01*
X232795024Y-106375346D01*
X232777781Y-106388134D01*
X232759368Y-106399170D01*
X232739962Y-106408349D01*
X232719750Y-106415581D01*
X232698926Y-106420797D01*
X232677691Y-106423947D01*
X232656250Y-106425000D01*
X232143750Y-106425000D01*
X232122309Y-106423947D01*
X232101074Y-106420797D01*
X232080250Y-106415581D01*
X232060038Y-106408349D01*
X232040632Y-106399170D01*
X232022219Y-106388134D01*
X232004976Y-106375346D01*
X231989070Y-106360930D01*
X231974654Y-106345024D01*
X231961866Y-106327781D01*
X231950830Y-106309368D01*
X231941651Y-106289962D01*
X231934419Y-106269750D01*
X231929203Y-106248926D01*
X231926053Y-106227691D01*
X231925000Y-106206250D01*
X231925000Y-105768750D01*
X231926053Y-105747309D01*
X231929203Y-105726074D01*
X231934419Y-105705250D01*
X231941651Y-105685038D01*
X231950830Y-105665632D01*
X231961866Y-105647219D01*
X231974654Y-105629976D01*
X231989070Y-105614070D01*
X232004976Y-105599654D01*
X232022219Y-105586866D01*
X232040632Y-105575830D01*
X232060038Y-105566651D01*
X232080250Y-105559419D01*
X232101074Y-105554203D01*
X232122309Y-105551053D01*
X232143750Y-105550000D01*
X232656250Y-105550000D01*
X232677691Y-105551053D01*
X232677691Y-105551053D01*
G37*
D12*
X232400000Y-105987500D03*
D11*
G36*
X206077691Y-121688553D02*
G01*
X206098926Y-121691703D01*
X206119750Y-121696919D01*
X206139962Y-121704151D01*
X206159368Y-121713330D01*
X206177781Y-121724366D01*
X206195024Y-121737154D01*
X206210930Y-121751570D01*
X206225346Y-121767476D01*
X206238134Y-121784719D01*
X206249170Y-121803132D01*
X206258349Y-121822538D01*
X206265581Y-121842750D01*
X206270797Y-121863574D01*
X206273947Y-121884809D01*
X206275000Y-121906250D01*
X206275000Y-122343750D01*
X206273947Y-122365191D01*
X206270797Y-122386426D01*
X206265581Y-122407250D01*
X206258349Y-122427462D01*
X206249170Y-122446868D01*
X206238134Y-122465281D01*
X206225346Y-122482524D01*
X206210930Y-122498430D01*
X206195024Y-122512846D01*
X206177781Y-122525634D01*
X206159368Y-122536670D01*
X206139962Y-122545849D01*
X206119750Y-122553081D01*
X206098926Y-122558297D01*
X206077691Y-122561447D01*
X206056250Y-122562500D01*
X205543750Y-122562500D01*
X205522309Y-122561447D01*
X205501074Y-122558297D01*
X205480250Y-122553081D01*
X205460038Y-122545849D01*
X205440632Y-122536670D01*
X205422219Y-122525634D01*
X205404976Y-122512846D01*
X205389070Y-122498430D01*
X205374654Y-122482524D01*
X205361866Y-122465281D01*
X205350830Y-122446868D01*
X205341651Y-122427462D01*
X205334419Y-122407250D01*
X205329203Y-122386426D01*
X205326053Y-122365191D01*
X205325000Y-122343750D01*
X205325000Y-121906250D01*
X205326053Y-121884809D01*
X205329203Y-121863574D01*
X205334419Y-121842750D01*
X205341651Y-121822538D01*
X205350830Y-121803132D01*
X205361866Y-121784719D01*
X205374654Y-121767476D01*
X205389070Y-121751570D01*
X205404976Y-121737154D01*
X205422219Y-121724366D01*
X205440632Y-121713330D01*
X205460038Y-121704151D01*
X205480250Y-121696919D01*
X205501074Y-121691703D01*
X205522309Y-121688553D01*
X205543750Y-121687500D01*
X206056250Y-121687500D01*
X206077691Y-121688553D01*
X206077691Y-121688553D01*
G37*
D12*
X205800000Y-122125000D03*
D11*
G36*
X206077691Y-120113553D02*
G01*
X206098926Y-120116703D01*
X206119750Y-120121919D01*
X206139962Y-120129151D01*
X206159368Y-120138330D01*
X206177781Y-120149366D01*
X206195024Y-120162154D01*
X206210930Y-120176570D01*
X206225346Y-120192476D01*
X206238134Y-120209719D01*
X206249170Y-120228132D01*
X206258349Y-120247538D01*
X206265581Y-120267750D01*
X206270797Y-120288574D01*
X206273947Y-120309809D01*
X206275000Y-120331250D01*
X206275000Y-120768750D01*
X206273947Y-120790191D01*
X206270797Y-120811426D01*
X206265581Y-120832250D01*
X206258349Y-120852462D01*
X206249170Y-120871868D01*
X206238134Y-120890281D01*
X206225346Y-120907524D01*
X206210930Y-120923430D01*
X206195024Y-120937846D01*
X206177781Y-120950634D01*
X206159368Y-120961670D01*
X206139962Y-120970849D01*
X206119750Y-120978081D01*
X206098926Y-120983297D01*
X206077691Y-120986447D01*
X206056250Y-120987500D01*
X205543750Y-120987500D01*
X205522309Y-120986447D01*
X205501074Y-120983297D01*
X205480250Y-120978081D01*
X205460038Y-120970849D01*
X205440632Y-120961670D01*
X205422219Y-120950634D01*
X205404976Y-120937846D01*
X205389070Y-120923430D01*
X205374654Y-120907524D01*
X205361866Y-120890281D01*
X205350830Y-120871868D01*
X205341651Y-120852462D01*
X205334419Y-120832250D01*
X205329203Y-120811426D01*
X205326053Y-120790191D01*
X205325000Y-120768750D01*
X205325000Y-120331250D01*
X205326053Y-120309809D01*
X205329203Y-120288574D01*
X205334419Y-120267750D01*
X205341651Y-120247538D01*
X205350830Y-120228132D01*
X205361866Y-120209719D01*
X205374654Y-120192476D01*
X205389070Y-120176570D01*
X205404976Y-120162154D01*
X205422219Y-120149366D01*
X205440632Y-120138330D01*
X205460038Y-120129151D01*
X205480250Y-120121919D01*
X205501074Y-120116703D01*
X205522309Y-120113553D01*
X205543750Y-120112500D01*
X206056250Y-120112500D01*
X206077691Y-120113553D01*
X206077691Y-120113553D01*
G37*
D12*
X205800000Y-120550000D03*
D11*
G36*
X216649505Y-125226204D02*
G01*
X216673773Y-125229804D01*
X216697572Y-125235765D01*
X216720671Y-125244030D01*
X216742850Y-125254520D01*
X216763893Y-125267132D01*
X216783599Y-125281747D01*
X216801777Y-125298223D01*
X216818253Y-125316401D01*
X216832868Y-125336107D01*
X216845480Y-125357150D01*
X216855970Y-125379329D01*
X216864235Y-125402428D01*
X216870196Y-125426227D01*
X216873796Y-125450495D01*
X216875000Y-125474999D01*
X216875000Y-128325001D01*
X216873796Y-128349505D01*
X216870196Y-128373773D01*
X216864235Y-128397572D01*
X216855970Y-128420671D01*
X216845480Y-128442850D01*
X216832868Y-128463893D01*
X216818253Y-128483599D01*
X216801777Y-128501777D01*
X216783599Y-128518253D01*
X216763893Y-128532868D01*
X216742850Y-128545480D01*
X216720671Y-128555970D01*
X216697572Y-128564235D01*
X216673773Y-128570196D01*
X216649505Y-128573796D01*
X216625001Y-128575000D01*
X215599999Y-128575000D01*
X215575495Y-128573796D01*
X215551227Y-128570196D01*
X215527428Y-128564235D01*
X215504329Y-128555970D01*
X215482150Y-128545480D01*
X215461107Y-128532868D01*
X215441401Y-128518253D01*
X215423223Y-128501777D01*
X215406747Y-128483599D01*
X215392132Y-128463893D01*
X215379520Y-128442850D01*
X215369030Y-128420671D01*
X215360765Y-128397572D01*
X215354804Y-128373773D01*
X215351204Y-128349505D01*
X215350000Y-128325001D01*
X215350000Y-125474999D01*
X215351204Y-125450495D01*
X215354804Y-125426227D01*
X215360765Y-125402428D01*
X215369030Y-125379329D01*
X215379520Y-125357150D01*
X215392132Y-125336107D01*
X215406747Y-125316401D01*
X215423223Y-125298223D01*
X215441401Y-125281747D01*
X215461107Y-125267132D01*
X215482150Y-125254520D01*
X215504329Y-125244030D01*
X215527428Y-125235765D01*
X215551227Y-125229804D01*
X215575495Y-125226204D01*
X215599999Y-125225000D01*
X216625001Y-125225000D01*
X216649505Y-125226204D01*
X216649505Y-125226204D01*
G37*
D18*
X216112500Y-126900000D03*
D11*
G36*
X222624505Y-125226204D02*
G01*
X222648773Y-125229804D01*
X222672572Y-125235765D01*
X222695671Y-125244030D01*
X222717850Y-125254520D01*
X222738893Y-125267132D01*
X222758599Y-125281747D01*
X222776777Y-125298223D01*
X222793253Y-125316401D01*
X222807868Y-125336107D01*
X222820480Y-125357150D01*
X222830970Y-125379329D01*
X222839235Y-125402428D01*
X222845196Y-125426227D01*
X222848796Y-125450495D01*
X222850000Y-125474999D01*
X222850000Y-128325001D01*
X222848796Y-128349505D01*
X222845196Y-128373773D01*
X222839235Y-128397572D01*
X222830970Y-128420671D01*
X222820480Y-128442850D01*
X222807868Y-128463893D01*
X222793253Y-128483599D01*
X222776777Y-128501777D01*
X222758599Y-128518253D01*
X222738893Y-128532868D01*
X222717850Y-128545480D01*
X222695671Y-128555970D01*
X222672572Y-128564235D01*
X222648773Y-128570196D01*
X222624505Y-128573796D01*
X222600001Y-128575000D01*
X221574999Y-128575000D01*
X221550495Y-128573796D01*
X221526227Y-128570196D01*
X221502428Y-128564235D01*
X221479329Y-128555970D01*
X221457150Y-128545480D01*
X221436107Y-128532868D01*
X221416401Y-128518253D01*
X221398223Y-128501777D01*
X221381747Y-128483599D01*
X221367132Y-128463893D01*
X221354520Y-128442850D01*
X221344030Y-128420671D01*
X221335765Y-128397572D01*
X221329804Y-128373773D01*
X221326204Y-128349505D01*
X221325000Y-128325001D01*
X221325000Y-125474999D01*
X221326204Y-125450495D01*
X221329804Y-125426227D01*
X221335765Y-125402428D01*
X221344030Y-125379329D01*
X221354520Y-125357150D01*
X221367132Y-125336107D01*
X221381747Y-125316401D01*
X221398223Y-125298223D01*
X221416401Y-125281747D01*
X221436107Y-125267132D01*
X221457150Y-125254520D01*
X221479329Y-125244030D01*
X221502428Y-125235765D01*
X221526227Y-125229804D01*
X221550495Y-125226204D01*
X221574999Y-125225000D01*
X222600001Y-125225000D01*
X222624505Y-125226204D01*
X222624505Y-125226204D01*
G37*
D18*
X222087500Y-126900000D03*
D19*
X209300000Y-118950000D03*
X226250000Y-99150000D03*
X212700000Y-126550000D03*
X236400000Y-116300000D03*
X235500000Y-124700000D03*
X236400000Y-118500000D03*
X213400000Y-107750000D03*
X236400000Y-120500000D03*
X211950000Y-109100000D03*
X236400000Y-122650000D03*
D20*
X219900000Y-130960000D02*
X217360000Y-133500000D01*
X221170000Y-130960000D02*
X219900000Y-130960000D01*
X208737500Y-123137500D02*
X208850000Y-123250000D01*
X206925000Y-123250000D02*
X208850000Y-123250000D01*
X205800000Y-122125000D02*
X206925000Y-123250000D01*
X208850000Y-123250000D02*
X213150000Y-123250000D01*
X213150000Y-123250000D02*
X213350000Y-123050000D01*
X213350000Y-123050000D02*
X213350000Y-119450000D01*
X213350000Y-119450000D02*
X213700000Y-119100000D01*
X205996051Y-110596051D02*
X209903949Y-110596051D01*
X210153949Y-105046051D02*
X210153949Y-110846051D01*
X219100000Y-104412500D02*
X210787500Y-104412500D01*
X210325000Y-111017102D02*
X210153949Y-110846051D01*
X210787500Y-104412500D02*
X210153949Y-105046051D01*
X210153949Y-110846051D02*
X209903949Y-110596051D01*
X205996051Y-120353949D02*
X205800000Y-120550000D01*
X205996051Y-110596051D02*
X205996051Y-120353949D01*
X208850000Y-121575000D02*
X208850000Y-122300000D01*
X207825000Y-120550000D02*
X208850000Y-121575000D01*
X205800000Y-120550000D02*
X207825000Y-120550000D01*
X204150000Y-123200000D02*
X205150000Y-124200000D01*
X205150000Y-124200000D02*
X208850000Y-124200000D01*
X204150000Y-121350000D02*
X204150000Y-123200000D01*
X205800000Y-120550000D02*
X204950000Y-120550000D01*
X204950000Y-120550000D02*
X204150000Y-121350000D01*
X214262500Y-128750000D02*
X216112500Y-126900000D01*
X210550000Y-128750000D02*
X214262500Y-128750000D01*
X208850000Y-124200000D02*
X208850000Y-127050000D01*
X208850000Y-127050000D02*
X210550000Y-128750000D01*
X211050000Y-124900000D02*
X212700000Y-126550000D01*
X211050000Y-124200000D02*
X211050000Y-124900000D01*
X227200000Y-102500000D02*
X227200000Y-103300000D01*
X224087500Y-99387500D02*
X227200000Y-102500000D01*
X219100000Y-99387500D02*
X224087500Y-99387500D01*
X229200000Y-102787500D02*
X229200000Y-102350000D01*
X232400000Y-105987500D02*
X229200000Y-102787500D01*
X232400000Y-112300000D02*
X236400000Y-116300000D01*
X232400000Y-105987500D02*
X232400000Y-112300000D01*
X232187500Y-128012500D02*
X231900000Y-128012500D01*
X235500000Y-124700000D02*
X232187500Y-128012500D01*
X221170000Y-133500000D02*
X227987500Y-133500000D01*
X229500000Y-131987500D02*
X231900000Y-129587500D01*
X227987500Y-133500000D02*
X229500000Y-131987500D01*
X215550000Y-107750000D02*
X213400000Y-107750000D01*
X236400000Y-118500000D02*
X226300000Y-118500000D01*
X226300000Y-118500000D02*
X215550000Y-107750000D01*
X236300000Y-120500000D02*
X225500000Y-120500000D01*
X225500000Y-120500000D02*
X218100000Y-113100000D01*
X215950000Y-113100000D02*
X211950000Y-109100000D01*
X218100000Y-113100000D02*
X215950000Y-113100000D01*
X234912440Y-122650000D02*
X236400000Y-122650000D01*
X217360000Y-130960000D02*
X218522000Y-130960000D01*
X228562440Y-129000000D02*
X234912440Y-122650000D01*
X220032000Y-129450000D02*
X227950000Y-129450000D01*
X227950000Y-129450000D02*
X228400000Y-129000000D01*
X218522000Y-130960000D02*
X220032000Y-129450000D01*
X228400000Y-129000000D02*
X228562440Y-129000000D01*
D21*
G36*
X216497039Y-97497039D02*
G01*
X216386595Y-97631614D01*
X216304529Y-97785150D01*
X216253992Y-97951747D01*
X216236928Y-98125001D01*
X216236928Y-100649999D01*
X216253992Y-100823253D01*
X216304529Y-100989850D01*
X216386595Y-101143386D01*
X216497039Y-101277961D01*
X216631614Y-101388405D01*
X216785150Y-101470471D01*
X216951747Y-101521008D01*
X217125001Y-101538072D01*
X221074999Y-101538072D01*
X221248253Y-101521008D01*
X221414850Y-101470471D01*
X221568386Y-101388405D01*
X221702961Y-101277961D01*
X221813405Y-101143386D01*
X221895471Y-100989850D01*
X221946008Y-100823253D01*
X221963072Y-100649999D01*
X221963072Y-100222500D01*
X223741633Y-100222500D01*
X226165533Y-102646401D01*
X226160498Y-102655820D01*
X226124188Y-102775518D01*
X226111928Y-102900000D01*
X226111928Y-103700000D01*
X226124188Y-103824482D01*
X226160498Y-103944180D01*
X226219463Y-104054494D01*
X226298815Y-104151185D01*
X226395506Y-104230537D01*
X226505820Y-104289502D01*
X226625518Y-104325812D01*
X226750000Y-104338072D01*
X227650000Y-104338072D01*
X227774482Y-104325812D01*
X227894180Y-104289502D01*
X228004494Y-104230537D01*
X228101185Y-104151185D01*
X228180537Y-104054494D01*
X228189143Y-104038393D01*
X228273750Y-104123000D01*
X229073000Y-104123000D01*
X229073000Y-104103000D01*
X229327000Y-104103000D01*
X229327000Y-104123000D01*
X229347000Y-104123000D01*
X229347000Y-104377000D01*
X229327000Y-104377000D01*
X229327000Y-105126250D01*
X229485750Y-105285000D01*
X229650000Y-105288072D01*
X229774482Y-105275812D01*
X229894180Y-105239502D01*
X230004494Y-105180537D01*
X230101185Y-105101185D01*
X230180537Y-105004494D01*
X230199901Y-104968268D01*
X231286928Y-106055296D01*
X231286928Y-106206250D01*
X231303392Y-106373408D01*
X231352150Y-106534142D01*
X231431329Y-106682275D01*
X231537885Y-106812115D01*
X231565000Y-106834368D01*
X231565001Y-112258972D01*
X231560960Y-112300000D01*
X231577082Y-112463688D01*
X231624828Y-112621086D01*
X231702364Y-112766145D01*
X231712843Y-112778914D01*
X231806710Y-112893291D01*
X231838574Y-112919441D01*
X235026236Y-116107104D01*
X235015000Y-116163589D01*
X235015000Y-116436411D01*
X235068225Y-116703989D01*
X235172629Y-116956043D01*
X235324201Y-117182886D01*
X235517114Y-117375799D01*
X235553333Y-117400000D01*
X235517114Y-117424201D01*
X235324201Y-117617114D01*
X235292205Y-117665000D01*
X226645869Y-117665000D01*
X216169446Y-107188579D01*
X216143291Y-107156709D01*
X216016146Y-107052364D01*
X215871087Y-106974828D01*
X215713689Y-106927082D01*
X215591019Y-106915000D01*
X215591018Y-106915000D01*
X215550000Y-106910960D01*
X215508982Y-106915000D01*
X214507795Y-106915000D01*
X214475799Y-106867114D01*
X214282886Y-106674201D01*
X214056043Y-106522629D01*
X213803989Y-106418225D01*
X213536411Y-106365000D01*
X213263589Y-106365000D01*
X212996011Y-106418225D01*
X212743957Y-106522629D01*
X212517114Y-106674201D01*
X212324201Y-106867114D01*
X212172629Y-107093957D01*
X212068225Y-107346011D01*
X212015000Y-107613589D01*
X212015000Y-107715000D01*
X211813589Y-107715000D01*
X211546011Y-107768225D01*
X211293957Y-107872629D01*
X211067114Y-108024201D01*
X210988949Y-108102366D01*
X210988949Y-105391918D01*
X211133368Y-105247500D01*
X216236928Y-105247500D01*
X216236928Y-105674999D01*
X216253992Y-105848253D01*
X216304529Y-106014850D01*
X216386595Y-106168386D01*
X216497039Y-106302961D01*
X216631614Y-106413405D01*
X216785150Y-106495471D01*
X216951747Y-106546008D01*
X217125001Y-106563072D01*
X221074999Y-106563072D01*
X221248253Y-106546008D01*
X221414850Y-106495471D01*
X221568386Y-106413405D01*
X221702961Y-106302961D01*
X221813405Y-106168386D01*
X221895471Y-106014850D01*
X221946008Y-105848253D01*
X221963072Y-105674999D01*
X221963072Y-104650000D01*
X228111928Y-104650000D01*
X228124188Y-104774482D01*
X228160498Y-104894180D01*
X228219463Y-105004494D01*
X228298815Y-105101185D01*
X228395506Y-105180537D01*
X228505820Y-105239502D01*
X228625518Y-105275812D01*
X228750000Y-105288072D01*
X228914250Y-105285000D01*
X229073000Y-105126250D01*
X229073000Y-104377000D01*
X228273750Y-104377000D01*
X228115000Y-104535750D01*
X228111928Y-104650000D01*
X221963072Y-104650000D01*
X221963072Y-103150001D01*
X221946008Y-102976747D01*
X221895471Y-102810150D01*
X221813405Y-102656614D01*
X221702961Y-102522039D01*
X221568386Y-102411595D01*
X221414850Y-102329529D01*
X221248253Y-102278992D01*
X221074999Y-102261928D01*
X217125001Y-102261928D01*
X216951747Y-102278992D01*
X216785150Y-102329529D01*
X216631614Y-102411595D01*
X216497039Y-102522039D01*
X216386595Y-102656614D01*
X216304529Y-102810150D01*
X216253992Y-102976747D01*
X216236928Y-103150001D01*
X216236928Y-103577500D01*
X210828507Y-103577500D01*
X210787499Y-103573461D01*
X210746491Y-103577500D01*
X210746481Y-103577500D01*
X210623811Y-103589582D01*
X210466413Y-103637328D01*
X210321354Y-103714864D01*
X210194209Y-103819209D01*
X210168058Y-103851074D01*
X209592527Y-104426605D01*
X209560658Y-104452760D01*
X209459363Y-104576189D01*
X209456313Y-104579906D01*
X209378777Y-104724965D01*
X209331031Y-104882363D01*
X209314909Y-105046051D01*
X209318949Y-105087070D01*
X209318950Y-109761051D01*
X207231844Y-109761051D01*
X207051185Y-109540917D01*
X206825065Y-109355345D01*
X206567085Y-109217452D01*
X206287162Y-109132538D01*
X206069001Y-109111051D01*
X205955841Y-109111051D01*
X205991584Y-109044180D01*
X206027893Y-108924481D01*
X206040153Y-108800000D01*
X206027893Y-108675519D01*
X205991584Y-108555820D01*
X205932620Y-108445506D01*
X205853267Y-108348815D01*
X205452109Y-107952002D01*
X205227603Y-107952002D01*
X204379605Y-108800000D01*
X204393748Y-108814143D01*
X204214143Y-108993748D01*
X204200000Y-108979605D01*
X203352002Y-109827603D01*
X203352002Y-110052109D01*
X203748815Y-110453267D01*
X203845506Y-110532620D01*
X203955820Y-110591584D01*
X204075519Y-110627893D01*
X204200000Y-110640153D01*
X204324481Y-110627893D01*
X204444180Y-110591584D01*
X204507647Y-110557660D01*
X204503866Y-110596051D01*
X204532538Y-110887162D01*
X204617452Y-111167085D01*
X204755345Y-111425065D01*
X204940917Y-111651185D01*
X205161051Y-111831845D01*
X205161052Y-119568945D01*
X205067725Y-119618829D01*
X204954877Y-119711440D01*
X204950000Y-119710960D01*
X204908981Y-119715000D01*
X204786311Y-119727082D01*
X204628913Y-119774828D01*
X204483854Y-119852364D01*
X204356709Y-119956709D01*
X204330563Y-119988568D01*
X203588578Y-120730555D01*
X203556709Y-120756709D01*
X203462843Y-120871086D01*
X203452364Y-120883855D01*
X203374828Y-121028914D01*
X203327082Y-121186312D01*
X203310960Y-121350000D01*
X203315000Y-121391019D01*
X203315001Y-123158972D01*
X203310960Y-123200000D01*
X203327082Y-123363688D01*
X203374828Y-123521086D01*
X203437625Y-123638570D01*
X203452365Y-123666146D01*
X203556710Y-123793291D01*
X203588574Y-123819441D01*
X204530563Y-124761432D01*
X204556709Y-124793291D01*
X204683854Y-124897636D01*
X204828913Y-124975172D01*
X204986311Y-125022918D01*
X205108981Y-125035000D01*
X205108982Y-125035000D01*
X205150000Y-125039040D01*
X205191018Y-125035000D01*
X207940482Y-125035000D01*
X207965506Y-125055537D01*
X208015000Y-125081993D01*
X208015001Y-127008972D01*
X208010960Y-127050000D01*
X208027082Y-127213688D01*
X208074828Y-127371086D01*
X208125485Y-127465858D01*
X208152365Y-127516146D01*
X208256710Y-127643291D01*
X208288574Y-127669441D01*
X209930559Y-129311426D01*
X209956709Y-129343291D01*
X210083854Y-129447636D01*
X210228913Y-129525172D01*
X210386311Y-129572918D01*
X210549999Y-129589040D01*
X210591018Y-129585000D01*
X214221482Y-129585000D01*
X214262500Y-129589040D01*
X214303518Y-129585000D01*
X214303519Y-129585000D01*
X214426189Y-129572918D01*
X214583587Y-129525172D01*
X214728646Y-129447636D01*
X214855791Y-129343291D01*
X214881946Y-129311421D01*
X215121829Y-129071538D01*
X215260149Y-129145472D01*
X215426745Y-129196008D01*
X215599999Y-129213072D01*
X216625001Y-129213072D01*
X216798255Y-129196008D01*
X216964851Y-129145472D01*
X217118387Y-129063405D01*
X217252962Y-128952962D01*
X217363405Y-128818387D01*
X217445472Y-128664851D01*
X217496008Y-128498255D01*
X217513072Y-128325001D01*
X217513072Y-125474999D01*
X217496008Y-125301745D01*
X217472728Y-125225000D01*
X220686928Y-125225000D01*
X220690000Y-126614250D01*
X220848750Y-126773000D01*
X221960500Y-126773000D01*
X221960500Y-124748750D01*
X222214500Y-124748750D01*
X222214500Y-126773000D01*
X223326250Y-126773000D01*
X223485000Y-126614250D01*
X223488072Y-125225000D01*
X223475812Y-125100518D01*
X223439502Y-124980820D01*
X223380537Y-124870506D01*
X223301185Y-124773815D01*
X223204494Y-124694463D01*
X223094180Y-124635498D01*
X222974482Y-124599188D01*
X222850000Y-124586928D01*
X222373250Y-124590000D01*
X222214500Y-124748750D01*
X221960500Y-124748750D01*
X221801750Y-124590000D01*
X221325000Y-124586928D01*
X221200518Y-124599188D01*
X221080820Y-124635498D01*
X220970506Y-124694463D01*
X220873815Y-124773815D01*
X220794463Y-124870506D01*
X220735498Y-124980820D01*
X220699188Y-125100518D01*
X220686928Y-125225000D01*
X217472728Y-125225000D01*
X217445472Y-125135149D01*
X217363405Y-124981613D01*
X217252962Y-124847038D01*
X217118387Y-124736595D01*
X216964851Y-124654528D01*
X216798255Y-124603992D01*
X216625001Y-124586928D01*
X215599999Y-124586928D01*
X215426745Y-124603992D01*
X215260149Y-124654528D01*
X215106613Y-124736595D01*
X214972038Y-124847038D01*
X214861595Y-124981613D01*
X214779528Y-125135149D01*
X214728992Y-125301745D01*
X214711928Y-125474999D01*
X214711928Y-127119704D01*
X213916633Y-127915000D01*
X212936957Y-127915000D01*
X213103989Y-127881775D01*
X213356043Y-127777371D01*
X213582886Y-127625799D01*
X213775799Y-127432886D01*
X213927371Y-127206043D01*
X214031775Y-126953989D01*
X214085000Y-126686411D01*
X214085000Y-126413589D01*
X214031775Y-126146011D01*
X213927371Y-125893957D01*
X213775799Y-125667114D01*
X213582886Y-125474201D01*
X213356043Y-125322629D01*
X213103989Y-125218225D01*
X212836411Y-125165000D01*
X212563589Y-125165000D01*
X212507103Y-125176236D01*
X212145309Y-124814442D01*
X212169502Y-124769180D01*
X212205812Y-124649482D01*
X212218072Y-124525000D01*
X212218072Y-123875000D01*
X212205812Y-123750518D01*
X212169502Y-123630820D01*
X212110537Y-123520506D01*
X212031185Y-123423815D01*
X211934494Y-123344463D01*
X211824180Y-123285498D01*
X211707159Y-123250000D01*
X211824180Y-123214502D01*
X211934494Y-123155537D01*
X212031185Y-123076185D01*
X212110537Y-122979494D01*
X212169502Y-122869180D01*
X212205812Y-122749482D01*
X212218072Y-122625000D01*
X212218072Y-121975000D01*
X212205812Y-121850518D01*
X212169502Y-121730820D01*
X212110537Y-121620506D01*
X212031185Y-121523815D01*
X211934494Y-121444463D01*
X211824180Y-121385498D01*
X211704482Y-121349188D01*
X211580000Y-121336928D01*
X210520000Y-121336928D01*
X210395518Y-121349188D01*
X210275820Y-121385498D01*
X210165506Y-121444463D01*
X210068815Y-121523815D01*
X209989463Y-121620506D01*
X209950000Y-121694335D01*
X209910537Y-121620506D01*
X209831185Y-121523815D01*
X209734494Y-121444463D01*
X209672943Y-121411563D01*
X209672918Y-121411311D01*
X209625172Y-121253913D01*
X209547636Y-121108854D01*
X209469439Y-121013570D01*
X209469437Y-121013568D01*
X209443291Y-120981709D01*
X209411433Y-120955564D01*
X208444445Y-119988578D01*
X208418291Y-119956709D01*
X208291146Y-119852364D01*
X208146087Y-119774828D01*
X207988689Y-119727082D01*
X207866019Y-119715000D01*
X207866018Y-119715000D01*
X207825000Y-119710960D01*
X207783982Y-119715000D01*
X206831051Y-119715000D01*
X206831051Y-111831844D01*
X207051185Y-111651185D01*
X207231844Y-111431051D01*
X209553855Y-111431051D01*
X209560659Y-111439342D01*
X209592522Y-111465491D01*
X209763571Y-111636541D01*
X209858855Y-111714738D01*
X210003914Y-111792274D01*
X210161312Y-111840020D01*
X210325000Y-111856142D01*
X210488688Y-111840020D01*
X210646086Y-111792274D01*
X210791145Y-111714738D01*
X210918291Y-111610393D01*
X211022636Y-111483247D01*
X211100172Y-111338188D01*
X211147918Y-111180790D01*
X211164040Y-111017102D01*
X211147918Y-110853414D01*
X211100172Y-110696016D01*
X211022636Y-110550957D01*
X210988949Y-110509909D01*
X210988949Y-110097634D01*
X211067114Y-110175799D01*
X211293957Y-110327371D01*
X211546011Y-110431775D01*
X211813589Y-110485000D01*
X212086411Y-110485000D01*
X212142897Y-110473764D01*
X215330559Y-113661427D01*
X215356709Y-113693291D01*
X215483854Y-113797636D01*
X215628913Y-113875172D01*
X215786311Y-113922918D01*
X215908981Y-113935000D01*
X215908983Y-113935000D01*
X215949999Y-113939040D01*
X215991015Y-113935000D01*
X217754133Y-113935000D01*
X224880559Y-121061427D01*
X224906709Y-121093291D01*
X225033854Y-121197636D01*
X225178913Y-121275172D01*
X225336311Y-121322918D01*
X225458981Y-121335000D01*
X225458991Y-121335000D01*
X225499999Y-121339039D01*
X225541007Y-121335000D01*
X235292205Y-121335000D01*
X235324201Y-121382886D01*
X235516315Y-121575000D01*
X235324201Y-121767114D01*
X235292205Y-121815000D01*
X234953458Y-121815000D01*
X234912439Y-121810960D01*
X234748751Y-121827082D01*
X234591353Y-121874828D01*
X234446294Y-121952364D01*
X234319149Y-122056709D01*
X234292999Y-122088573D01*
X228190635Y-128190937D01*
X228078913Y-128224828D01*
X227933854Y-128302364D01*
X227806709Y-128406709D01*
X227780554Y-128438579D01*
X227604133Y-128615000D01*
X223484132Y-128615000D01*
X223488072Y-128575000D01*
X223485000Y-127185750D01*
X223326250Y-127027000D01*
X222214500Y-127027000D01*
X222214500Y-127047000D01*
X221960500Y-127047000D01*
X221960500Y-127027000D01*
X220848750Y-127027000D01*
X220690000Y-127185750D01*
X220686928Y-128575000D01*
X220690868Y-128615000D01*
X220073007Y-128615000D01*
X220031999Y-128610961D01*
X219990991Y-128615000D01*
X219990981Y-128615000D01*
X219868311Y-128627082D01*
X219710913Y-128674828D01*
X219565854Y-128752364D01*
X219438709Y-128856709D01*
X219412561Y-128888571D01*
X218562822Y-129738310D01*
X218476494Y-129667463D01*
X218366180Y-129608498D01*
X218246482Y-129572188D01*
X218122000Y-129559928D01*
X216598000Y-129559928D01*
X216473518Y-129572188D01*
X216353820Y-129608498D01*
X216243506Y-129667463D01*
X216146815Y-129746815D01*
X216067463Y-129843506D01*
X216008498Y-129953820D01*
X215972188Y-130073518D01*
X215959928Y-130198000D01*
X215959928Y-131722000D01*
X215972188Y-131846482D01*
X216008498Y-131966180D01*
X216067463Y-132076494D01*
X216146815Y-132173185D01*
X216216044Y-132230000D01*
X216146815Y-132286815D01*
X216067463Y-132383506D01*
X216008498Y-132493820D01*
X215972188Y-132613518D01*
X215959928Y-132738000D01*
X215963000Y-133214250D01*
X216121750Y-133373000D01*
X217233000Y-133373000D01*
X217233000Y-133353000D01*
X217487000Y-133353000D01*
X217487000Y-133373000D01*
X218598250Y-133373000D01*
X218757000Y-133214250D01*
X218760072Y-132738000D01*
X218747812Y-132613518D01*
X218711502Y-132493820D01*
X218652537Y-132383506D01*
X218573185Y-132286815D01*
X218503956Y-132230000D01*
X218573185Y-132173185D01*
X218652537Y-132076494D01*
X218711502Y-131966180D01*
X218747812Y-131846482D01*
X218756178Y-131761535D01*
X218843087Y-131735172D01*
X218988146Y-131657636D01*
X219115291Y-131553291D01*
X219141446Y-131521421D01*
X219880809Y-130782059D01*
X219931750Y-130833000D01*
X221043000Y-130833000D01*
X221043000Y-130813000D01*
X221297000Y-130813000D01*
X221297000Y-130833000D01*
X222408250Y-130833000D01*
X222567000Y-130674250D01*
X222569511Y-130285000D01*
X227908982Y-130285000D01*
X227950000Y-130289040D01*
X227991018Y-130285000D01*
X227991019Y-130285000D01*
X228113689Y-130272918D01*
X228271087Y-130225172D01*
X228416146Y-130147636D01*
X228543291Y-130043291D01*
X228569446Y-130011421D01*
X228771804Y-129809063D01*
X228883527Y-129775172D01*
X229028586Y-129697636D01*
X229155731Y-129593291D01*
X229181886Y-129561421D01*
X230786928Y-127956379D01*
X230786928Y-128231250D01*
X230803392Y-128398408D01*
X230852150Y-128559142D01*
X230931329Y-128707275D01*
X231007426Y-128800000D01*
X230931329Y-128892725D01*
X230852150Y-129040858D01*
X230803392Y-129201592D01*
X230786928Y-129368750D01*
X230786928Y-129519703D01*
X228938575Y-131368058D01*
X228938570Y-131368062D01*
X227641633Y-132665000D01*
X222562882Y-132665000D01*
X222557812Y-132613518D01*
X222521502Y-132493820D01*
X222462537Y-132383506D01*
X222383185Y-132286815D01*
X222313956Y-132230000D01*
X222383185Y-132173185D01*
X222462537Y-132076494D01*
X222521502Y-131966180D01*
X222557812Y-131846482D01*
X222570072Y-131722000D01*
X222567000Y-131245750D01*
X222408250Y-131087000D01*
X221297000Y-131087000D01*
X221297000Y-131107000D01*
X221043000Y-131107000D01*
X221043000Y-131087000D01*
X219931750Y-131087000D01*
X219773000Y-131245750D01*
X219769928Y-131722000D01*
X219782188Y-131846482D01*
X219818498Y-131966180D01*
X219877463Y-132076494D01*
X219956815Y-132173185D01*
X220026044Y-132230000D01*
X219956815Y-132286815D01*
X219877463Y-132383506D01*
X219818498Y-132493820D01*
X219782188Y-132613518D01*
X219769928Y-132738000D01*
X219769928Y-134262000D01*
X219782188Y-134386482D01*
X219818498Y-134506180D01*
X219877463Y-134616494D01*
X219956815Y-134713185D01*
X220053506Y-134792537D01*
X220163820Y-134851502D01*
X220283518Y-134887812D01*
X220408000Y-134900072D01*
X221932000Y-134900072D01*
X222056482Y-134887812D01*
X222176180Y-134851502D01*
X222286494Y-134792537D01*
X222383185Y-134713185D01*
X222462537Y-134616494D01*
X222521502Y-134506180D01*
X222557812Y-134386482D01*
X222562882Y-134335000D01*
X227946482Y-134335000D01*
X227987500Y-134339040D01*
X228028518Y-134335000D01*
X228028519Y-134335000D01*
X228151189Y-134322918D01*
X228308587Y-134275172D01*
X228453646Y-134197636D01*
X228580791Y-134093291D01*
X228606946Y-134061421D01*
X230119438Y-132548930D01*
X230119442Y-132548925D01*
X232005297Y-130663072D01*
X232156250Y-130663072D01*
X232323408Y-130646608D01*
X232484142Y-130597850D01*
X232632275Y-130518671D01*
X232762115Y-130412115D01*
X232868671Y-130282275D01*
X232947850Y-130134142D01*
X232996608Y-129973408D01*
X233013072Y-129806250D01*
X233013072Y-129368750D01*
X232996608Y-129201592D01*
X232947850Y-129040858D01*
X232868671Y-128892725D01*
X232792574Y-128800000D01*
X232868671Y-128707275D01*
X232947850Y-128559142D01*
X232996608Y-128398408D01*
X232998154Y-128382713D01*
X235307104Y-126073764D01*
X235363589Y-126085000D01*
X235636411Y-126085000D01*
X235903989Y-126031775D01*
X236156043Y-125927371D01*
X236382886Y-125775799D01*
X236575799Y-125582886D01*
X236727371Y-125356043D01*
X236831775Y-125103989D01*
X236885000Y-124836411D01*
X236885000Y-124563589D01*
X236831775Y-124296011D01*
X236727371Y-124043957D01*
X236699685Y-124002522D01*
X236803989Y-123981775D01*
X237056043Y-123877371D01*
X237282886Y-123725799D01*
X237475799Y-123532886D01*
X237627371Y-123306043D01*
X237731775Y-123053989D01*
X237773000Y-122846739D01*
X237773000Y-134973000D01*
X200727000Y-134973000D01*
X200727000Y-134262000D01*
X215959928Y-134262000D01*
X215972188Y-134386482D01*
X216008498Y-134506180D01*
X216067463Y-134616494D01*
X216146815Y-134713185D01*
X216243506Y-134792537D01*
X216353820Y-134851502D01*
X216473518Y-134887812D01*
X216598000Y-134900072D01*
X217074250Y-134897000D01*
X217233000Y-134738250D01*
X217233000Y-133627000D01*
X217487000Y-133627000D01*
X217487000Y-134738250D01*
X217645750Y-134897000D01*
X218122000Y-134900072D01*
X218246482Y-134887812D01*
X218366180Y-134851502D01*
X218476494Y-134792537D01*
X218573185Y-134713185D01*
X218652537Y-134616494D01*
X218711502Y-134506180D01*
X218747812Y-134386482D01*
X218760072Y-134262000D01*
X218757000Y-133785750D01*
X218598250Y-133627000D01*
X217487000Y-133627000D01*
X217233000Y-133627000D01*
X216121750Y-133627000D01*
X215963000Y-133785750D01*
X215959928Y-134262000D01*
X200727000Y-134262000D01*
X200727000Y-108800000D01*
X202359847Y-108800000D01*
X202372107Y-108924481D01*
X202408416Y-109044180D01*
X202467380Y-109154494D01*
X202546733Y-109251185D01*
X202947891Y-109647998D01*
X203172397Y-109647998D01*
X204020395Y-108800000D01*
X203172397Y-107952002D01*
X202947891Y-107952002D01*
X202546733Y-108348815D01*
X202467380Y-108445506D01*
X202408416Y-108555820D01*
X202372107Y-108675519D01*
X202359847Y-108800000D01*
X200727000Y-108800000D01*
X200727000Y-107547891D01*
X203352002Y-107547891D01*
X203352002Y-107772397D01*
X204200000Y-108620395D01*
X205047998Y-107772397D01*
X205047998Y-107547891D01*
X204651185Y-107146733D01*
X204554494Y-107067380D01*
X204444180Y-107008416D01*
X204324481Y-106972107D01*
X204200000Y-106959847D01*
X204075519Y-106972107D01*
X203955820Y-107008416D01*
X203845506Y-107067380D01*
X203748815Y-107146733D01*
X203352002Y-107547891D01*
X200727000Y-107547891D01*
X200727000Y-97427000D01*
X216582381Y-97427000D01*
X216497039Y-97497039D01*
X216497039Y-97497039D01*
G37*
X216497039Y-97497039D02*
X216386595Y-97631614D01*
X216304529Y-97785150D01*
X216253992Y-97951747D01*
X216236928Y-98125001D01*
X216236928Y-100649999D01*
X216253992Y-100823253D01*
X216304529Y-100989850D01*
X216386595Y-101143386D01*
X216497039Y-101277961D01*
X216631614Y-101388405D01*
X216785150Y-101470471D01*
X216951747Y-101521008D01*
X217125001Y-101538072D01*
X221074999Y-101538072D01*
X221248253Y-101521008D01*
X221414850Y-101470471D01*
X221568386Y-101388405D01*
X221702961Y-101277961D01*
X221813405Y-101143386D01*
X221895471Y-100989850D01*
X221946008Y-100823253D01*
X221963072Y-100649999D01*
X221963072Y-100222500D01*
X223741633Y-100222500D01*
X226165533Y-102646401D01*
X226160498Y-102655820D01*
X226124188Y-102775518D01*
X226111928Y-102900000D01*
X226111928Y-103700000D01*
X226124188Y-103824482D01*
X226160498Y-103944180D01*
X226219463Y-104054494D01*
X226298815Y-104151185D01*
X226395506Y-104230537D01*
X226505820Y-104289502D01*
X226625518Y-104325812D01*
X226750000Y-104338072D01*
X227650000Y-104338072D01*
X227774482Y-104325812D01*
X227894180Y-104289502D01*
X228004494Y-104230537D01*
X228101185Y-104151185D01*
X228180537Y-104054494D01*
X228189143Y-104038393D01*
X228273750Y-104123000D01*
X229073000Y-104123000D01*
X229073000Y-104103000D01*
X229327000Y-104103000D01*
X229327000Y-104123000D01*
X229347000Y-104123000D01*
X229347000Y-104377000D01*
X229327000Y-104377000D01*
X229327000Y-105126250D01*
X229485750Y-105285000D01*
X229650000Y-105288072D01*
X229774482Y-105275812D01*
X229894180Y-105239502D01*
X230004494Y-105180537D01*
X230101185Y-105101185D01*
X230180537Y-105004494D01*
X230199901Y-104968268D01*
X231286928Y-106055296D01*
X231286928Y-106206250D01*
X231303392Y-106373408D01*
X231352150Y-106534142D01*
X231431329Y-106682275D01*
X231537885Y-106812115D01*
X231565000Y-106834368D01*
X231565001Y-112258972D01*
X231560960Y-112300000D01*
X231577082Y-112463688D01*
X231624828Y-112621086D01*
X231702364Y-112766145D01*
X231712843Y-112778914D01*
X231806710Y-112893291D01*
X231838574Y-112919441D01*
X235026236Y-116107104D01*
X235015000Y-116163589D01*
X235015000Y-116436411D01*
X235068225Y-116703989D01*
X235172629Y-116956043D01*
X235324201Y-117182886D01*
X235517114Y-117375799D01*
X235553333Y-117400000D01*
X235517114Y-117424201D01*
X235324201Y-117617114D01*
X235292205Y-117665000D01*
X226645869Y-117665000D01*
X216169446Y-107188579D01*
X216143291Y-107156709D01*
X216016146Y-107052364D01*
X215871087Y-106974828D01*
X215713689Y-106927082D01*
X215591019Y-106915000D01*
X215591018Y-106915000D01*
X215550000Y-106910960D01*
X215508982Y-106915000D01*
X214507795Y-106915000D01*
X214475799Y-106867114D01*
X214282886Y-106674201D01*
X214056043Y-106522629D01*
X213803989Y-106418225D01*
X213536411Y-106365000D01*
X213263589Y-106365000D01*
X212996011Y-106418225D01*
X212743957Y-106522629D01*
X212517114Y-106674201D01*
X212324201Y-106867114D01*
X212172629Y-107093957D01*
X212068225Y-107346011D01*
X212015000Y-107613589D01*
X212015000Y-107715000D01*
X211813589Y-107715000D01*
X211546011Y-107768225D01*
X211293957Y-107872629D01*
X211067114Y-108024201D01*
X210988949Y-108102366D01*
X210988949Y-105391918D01*
X211133368Y-105247500D01*
X216236928Y-105247500D01*
X216236928Y-105674999D01*
X216253992Y-105848253D01*
X216304529Y-106014850D01*
X216386595Y-106168386D01*
X216497039Y-106302961D01*
X216631614Y-106413405D01*
X216785150Y-106495471D01*
X216951747Y-106546008D01*
X217125001Y-106563072D01*
X221074999Y-106563072D01*
X221248253Y-106546008D01*
X221414850Y-106495471D01*
X221568386Y-106413405D01*
X221702961Y-106302961D01*
X221813405Y-106168386D01*
X221895471Y-106014850D01*
X221946008Y-105848253D01*
X221963072Y-105674999D01*
X221963072Y-104650000D01*
X228111928Y-104650000D01*
X228124188Y-104774482D01*
X228160498Y-104894180D01*
X228219463Y-105004494D01*
X228298815Y-105101185D01*
X228395506Y-105180537D01*
X228505820Y-105239502D01*
X228625518Y-105275812D01*
X228750000Y-105288072D01*
X228914250Y-105285000D01*
X229073000Y-105126250D01*
X229073000Y-104377000D01*
X228273750Y-104377000D01*
X228115000Y-104535750D01*
X228111928Y-104650000D01*
X221963072Y-104650000D01*
X221963072Y-103150001D01*
X221946008Y-102976747D01*
X221895471Y-102810150D01*
X221813405Y-102656614D01*
X221702961Y-102522039D01*
X221568386Y-102411595D01*
X221414850Y-102329529D01*
X221248253Y-102278992D01*
X221074999Y-102261928D01*
X217125001Y-102261928D01*
X216951747Y-102278992D01*
X216785150Y-102329529D01*
X216631614Y-102411595D01*
X216497039Y-102522039D01*
X216386595Y-102656614D01*
X216304529Y-102810150D01*
X216253992Y-102976747D01*
X216236928Y-103150001D01*
X216236928Y-103577500D01*
X210828507Y-103577500D01*
X210787499Y-103573461D01*
X210746491Y-103577500D01*
X210746481Y-103577500D01*
X210623811Y-103589582D01*
X210466413Y-103637328D01*
X210321354Y-103714864D01*
X210194209Y-103819209D01*
X210168058Y-103851074D01*
X209592527Y-104426605D01*
X209560658Y-104452760D01*
X209459363Y-104576189D01*
X209456313Y-104579906D01*
X209378777Y-104724965D01*
X209331031Y-104882363D01*
X209314909Y-105046051D01*
X209318949Y-105087070D01*
X209318950Y-109761051D01*
X207231844Y-109761051D01*
X207051185Y-109540917D01*
X206825065Y-109355345D01*
X206567085Y-109217452D01*
X206287162Y-109132538D01*
X206069001Y-109111051D01*
X205955841Y-109111051D01*
X205991584Y-109044180D01*
X206027893Y-108924481D01*
X206040153Y-108800000D01*
X206027893Y-108675519D01*
X205991584Y-108555820D01*
X205932620Y-108445506D01*
X205853267Y-108348815D01*
X205452109Y-107952002D01*
X205227603Y-107952002D01*
X204379605Y-108800000D01*
X204393748Y-108814143D01*
X204214143Y-108993748D01*
X204200000Y-108979605D01*
X203352002Y-109827603D01*
X203352002Y-110052109D01*
X203748815Y-110453267D01*
X203845506Y-110532620D01*
X203955820Y-110591584D01*
X204075519Y-110627893D01*
X204200000Y-110640153D01*
X204324481Y-110627893D01*
X204444180Y-110591584D01*
X204507647Y-110557660D01*
X204503866Y-110596051D01*
X204532538Y-110887162D01*
X204617452Y-111167085D01*
X204755345Y-111425065D01*
X204940917Y-111651185D01*
X205161051Y-111831845D01*
X205161052Y-119568945D01*
X205067725Y-119618829D01*
X204954877Y-119711440D01*
X204950000Y-119710960D01*
X204908981Y-119715000D01*
X204786311Y-119727082D01*
X204628913Y-119774828D01*
X204483854Y-119852364D01*
X204356709Y-119956709D01*
X204330563Y-119988568D01*
X203588578Y-120730555D01*
X203556709Y-120756709D01*
X203462843Y-120871086D01*
X203452364Y-120883855D01*
X203374828Y-121028914D01*
X203327082Y-121186312D01*
X203310960Y-121350000D01*
X203315000Y-121391019D01*
X203315001Y-123158972D01*
X203310960Y-123200000D01*
X203327082Y-123363688D01*
X203374828Y-123521086D01*
X203437625Y-123638570D01*
X203452365Y-123666146D01*
X203556710Y-123793291D01*
X203588574Y-123819441D01*
X204530563Y-124761432D01*
X204556709Y-124793291D01*
X204683854Y-124897636D01*
X204828913Y-124975172D01*
X204986311Y-125022918D01*
X205108981Y-125035000D01*
X205108982Y-125035000D01*
X205150000Y-125039040D01*
X205191018Y-125035000D01*
X207940482Y-125035000D01*
X207965506Y-125055537D01*
X208015000Y-125081993D01*
X208015001Y-127008972D01*
X208010960Y-127050000D01*
X208027082Y-127213688D01*
X208074828Y-127371086D01*
X208125485Y-127465858D01*
X208152365Y-127516146D01*
X208256710Y-127643291D01*
X208288574Y-127669441D01*
X209930559Y-129311426D01*
X209956709Y-129343291D01*
X210083854Y-129447636D01*
X210228913Y-129525172D01*
X210386311Y-129572918D01*
X210549999Y-129589040D01*
X210591018Y-129585000D01*
X214221482Y-129585000D01*
X214262500Y-129589040D01*
X214303518Y-129585000D01*
X214303519Y-129585000D01*
X214426189Y-129572918D01*
X214583587Y-129525172D01*
X214728646Y-129447636D01*
X214855791Y-129343291D01*
X214881946Y-129311421D01*
X215121829Y-129071538D01*
X215260149Y-129145472D01*
X215426745Y-129196008D01*
X215599999Y-129213072D01*
X216625001Y-129213072D01*
X216798255Y-129196008D01*
X216964851Y-129145472D01*
X217118387Y-129063405D01*
X217252962Y-128952962D01*
X217363405Y-128818387D01*
X217445472Y-128664851D01*
X217496008Y-128498255D01*
X217513072Y-128325001D01*
X217513072Y-125474999D01*
X217496008Y-125301745D01*
X217472728Y-125225000D01*
X220686928Y-125225000D01*
X220690000Y-126614250D01*
X220848750Y-126773000D01*
X221960500Y-126773000D01*
X221960500Y-124748750D01*
X222214500Y-124748750D01*
X222214500Y-126773000D01*
X223326250Y-126773000D01*
X223485000Y-126614250D01*
X223488072Y-125225000D01*
X223475812Y-125100518D01*
X223439502Y-124980820D01*
X223380537Y-124870506D01*
X223301185Y-124773815D01*
X223204494Y-124694463D01*
X223094180Y-124635498D01*
X222974482Y-124599188D01*
X222850000Y-124586928D01*
X222373250Y-124590000D01*
X222214500Y-124748750D01*
X221960500Y-124748750D01*
X221801750Y-124590000D01*
X221325000Y-124586928D01*
X221200518Y-124599188D01*
X221080820Y-124635498D01*
X220970506Y-124694463D01*
X220873815Y-124773815D01*
X220794463Y-124870506D01*
X220735498Y-124980820D01*
X220699188Y-125100518D01*
X220686928Y-125225000D01*
X217472728Y-125225000D01*
X217445472Y-125135149D01*
X217363405Y-124981613D01*
X217252962Y-124847038D01*
X217118387Y-124736595D01*
X216964851Y-124654528D01*
X216798255Y-124603992D01*
X216625001Y-124586928D01*
X215599999Y-124586928D01*
X215426745Y-124603992D01*
X215260149Y-124654528D01*
X215106613Y-124736595D01*
X214972038Y-124847038D01*
X214861595Y-124981613D01*
X214779528Y-125135149D01*
X214728992Y-125301745D01*
X214711928Y-125474999D01*
X214711928Y-127119704D01*
X213916633Y-127915000D01*
X212936957Y-127915000D01*
X213103989Y-127881775D01*
X213356043Y-127777371D01*
X213582886Y-127625799D01*
X213775799Y-127432886D01*
X213927371Y-127206043D01*
X214031775Y-126953989D01*
X214085000Y-126686411D01*
X214085000Y-126413589D01*
X214031775Y-126146011D01*
X213927371Y-125893957D01*
X213775799Y-125667114D01*
X213582886Y-125474201D01*
X213356043Y-125322629D01*
X213103989Y-125218225D01*
X212836411Y-125165000D01*
X212563589Y-125165000D01*
X212507103Y-125176236D01*
X212145309Y-124814442D01*
X212169502Y-124769180D01*
X212205812Y-124649482D01*
X212218072Y-124525000D01*
X212218072Y-123875000D01*
X212205812Y-123750518D01*
X212169502Y-123630820D01*
X212110537Y-123520506D01*
X212031185Y-123423815D01*
X211934494Y-123344463D01*
X211824180Y-123285498D01*
X211707159Y-123250000D01*
X211824180Y-123214502D01*
X211934494Y-123155537D01*
X212031185Y-123076185D01*
X212110537Y-122979494D01*
X212169502Y-122869180D01*
X212205812Y-122749482D01*
X212218072Y-122625000D01*
X212218072Y-121975000D01*
X212205812Y-121850518D01*
X212169502Y-121730820D01*
X212110537Y-121620506D01*
X212031185Y-121523815D01*
X211934494Y-121444463D01*
X211824180Y-121385498D01*
X211704482Y-121349188D01*
X211580000Y-121336928D01*
X210520000Y-121336928D01*
X210395518Y-121349188D01*
X210275820Y-121385498D01*
X210165506Y-121444463D01*
X210068815Y-121523815D01*
X209989463Y-121620506D01*
X209950000Y-121694335D01*
X209910537Y-121620506D01*
X209831185Y-121523815D01*
X209734494Y-121444463D01*
X209672943Y-121411563D01*
X209672918Y-121411311D01*
X209625172Y-121253913D01*
X209547636Y-121108854D01*
X209469439Y-121013570D01*
X209469437Y-121013568D01*
X209443291Y-120981709D01*
X209411433Y-120955564D01*
X208444445Y-119988578D01*
X208418291Y-119956709D01*
X208291146Y-119852364D01*
X208146087Y-119774828D01*
X207988689Y-119727082D01*
X207866019Y-119715000D01*
X207866018Y-119715000D01*
X207825000Y-119710960D01*
X207783982Y-119715000D01*
X206831051Y-119715000D01*
X206831051Y-111831844D01*
X207051185Y-111651185D01*
X207231844Y-111431051D01*
X209553855Y-111431051D01*
X209560659Y-111439342D01*
X209592522Y-111465491D01*
X209763571Y-111636541D01*
X209858855Y-111714738D01*
X210003914Y-111792274D01*
X210161312Y-111840020D01*
X210325000Y-111856142D01*
X210488688Y-111840020D01*
X210646086Y-111792274D01*
X210791145Y-111714738D01*
X210918291Y-111610393D01*
X211022636Y-111483247D01*
X211100172Y-111338188D01*
X211147918Y-111180790D01*
X211164040Y-111017102D01*
X211147918Y-110853414D01*
X211100172Y-110696016D01*
X211022636Y-110550957D01*
X210988949Y-110509909D01*
X210988949Y-110097634D01*
X211067114Y-110175799D01*
X211293957Y-110327371D01*
X211546011Y-110431775D01*
X211813589Y-110485000D01*
X212086411Y-110485000D01*
X212142897Y-110473764D01*
X215330559Y-113661427D01*
X215356709Y-113693291D01*
X215483854Y-113797636D01*
X215628913Y-113875172D01*
X215786311Y-113922918D01*
X215908981Y-113935000D01*
X215908983Y-113935000D01*
X215949999Y-113939040D01*
X215991015Y-113935000D01*
X217754133Y-113935000D01*
X224880559Y-121061427D01*
X224906709Y-121093291D01*
X225033854Y-121197636D01*
X225178913Y-121275172D01*
X225336311Y-121322918D01*
X225458981Y-121335000D01*
X225458991Y-121335000D01*
X225499999Y-121339039D01*
X225541007Y-121335000D01*
X235292205Y-121335000D01*
X235324201Y-121382886D01*
X235516315Y-121575000D01*
X235324201Y-121767114D01*
X235292205Y-121815000D01*
X234953458Y-121815000D01*
X234912439Y-121810960D01*
X234748751Y-121827082D01*
X234591353Y-121874828D01*
X234446294Y-121952364D01*
X234319149Y-122056709D01*
X234292999Y-122088573D01*
X228190635Y-128190937D01*
X228078913Y-128224828D01*
X227933854Y-128302364D01*
X227806709Y-128406709D01*
X227780554Y-128438579D01*
X227604133Y-128615000D01*
X223484132Y-128615000D01*
X223488072Y-128575000D01*
X223485000Y-127185750D01*
X223326250Y-127027000D01*
X222214500Y-127027000D01*
X222214500Y-127047000D01*
X221960500Y-127047000D01*
X221960500Y-127027000D01*
X220848750Y-127027000D01*
X220690000Y-127185750D01*
X220686928Y-128575000D01*
X220690868Y-128615000D01*
X220073007Y-128615000D01*
X220031999Y-128610961D01*
X219990991Y-128615000D01*
X219990981Y-128615000D01*
X219868311Y-128627082D01*
X219710913Y-128674828D01*
X219565854Y-128752364D01*
X219438709Y-128856709D01*
X219412561Y-128888571D01*
X218562822Y-129738310D01*
X218476494Y-129667463D01*
X218366180Y-129608498D01*
X218246482Y-129572188D01*
X218122000Y-129559928D01*
X216598000Y-129559928D01*
X216473518Y-129572188D01*
X216353820Y-129608498D01*
X216243506Y-129667463D01*
X216146815Y-129746815D01*
X216067463Y-129843506D01*
X216008498Y-129953820D01*
X215972188Y-130073518D01*
X215959928Y-130198000D01*
X215959928Y-131722000D01*
X215972188Y-131846482D01*
X216008498Y-131966180D01*
X216067463Y-132076494D01*
X216146815Y-132173185D01*
X216216044Y-132230000D01*
X216146815Y-132286815D01*
X216067463Y-132383506D01*
X216008498Y-132493820D01*
X215972188Y-132613518D01*
X215959928Y-132738000D01*
X215963000Y-133214250D01*
X216121750Y-133373000D01*
X217233000Y-133373000D01*
X217233000Y-133353000D01*
X217487000Y-133353000D01*
X217487000Y-133373000D01*
X218598250Y-133373000D01*
X218757000Y-133214250D01*
X218760072Y-132738000D01*
X218747812Y-132613518D01*
X218711502Y-132493820D01*
X218652537Y-132383506D01*
X218573185Y-132286815D01*
X218503956Y-132230000D01*
X218573185Y-132173185D01*
X218652537Y-132076494D01*
X218711502Y-131966180D01*
X218747812Y-131846482D01*
X218756178Y-131761535D01*
X218843087Y-131735172D01*
X218988146Y-131657636D01*
X219115291Y-131553291D01*
X219141446Y-131521421D01*
X219880809Y-130782059D01*
X219931750Y-130833000D01*
X221043000Y-130833000D01*
X221043000Y-130813000D01*
X221297000Y-130813000D01*
X221297000Y-130833000D01*
X222408250Y-130833000D01*
X222567000Y-130674250D01*
X222569511Y-130285000D01*
X227908982Y-130285000D01*
X227950000Y-130289040D01*
X227991018Y-130285000D01*
X227991019Y-130285000D01*
X228113689Y-130272918D01*
X228271087Y-130225172D01*
X228416146Y-130147636D01*
X228543291Y-130043291D01*
X228569446Y-130011421D01*
X228771804Y-129809063D01*
X228883527Y-129775172D01*
X229028586Y-129697636D01*
X229155731Y-129593291D01*
X229181886Y-129561421D01*
X230786928Y-127956379D01*
X230786928Y-128231250D01*
X230803392Y-128398408D01*
X230852150Y-128559142D01*
X230931329Y-128707275D01*
X231007426Y-128800000D01*
X230931329Y-128892725D01*
X230852150Y-129040858D01*
X230803392Y-129201592D01*
X230786928Y-129368750D01*
X230786928Y-129519703D01*
X228938575Y-131368058D01*
X228938570Y-131368062D01*
X227641633Y-132665000D01*
X222562882Y-132665000D01*
X222557812Y-132613518D01*
X222521502Y-132493820D01*
X222462537Y-132383506D01*
X222383185Y-132286815D01*
X222313956Y-132230000D01*
X222383185Y-132173185D01*
X222462537Y-132076494D01*
X222521502Y-131966180D01*
X222557812Y-131846482D01*
X222570072Y-131722000D01*
X222567000Y-131245750D01*
X222408250Y-131087000D01*
X221297000Y-131087000D01*
X221297000Y-131107000D01*
X221043000Y-131107000D01*
X221043000Y-131087000D01*
X219931750Y-131087000D01*
X219773000Y-131245750D01*
X219769928Y-131722000D01*
X219782188Y-131846482D01*
X219818498Y-131966180D01*
X219877463Y-132076494D01*
X219956815Y-132173185D01*
X220026044Y-132230000D01*
X219956815Y-132286815D01*
X219877463Y-132383506D01*
X219818498Y-132493820D01*
X219782188Y-132613518D01*
X219769928Y-132738000D01*
X219769928Y-134262000D01*
X219782188Y-134386482D01*
X219818498Y-134506180D01*
X219877463Y-134616494D01*
X219956815Y-134713185D01*
X220053506Y-134792537D01*
X220163820Y-134851502D01*
X220283518Y-134887812D01*
X220408000Y-134900072D01*
X221932000Y-134900072D01*
X222056482Y-134887812D01*
X222176180Y-134851502D01*
X222286494Y-134792537D01*
X222383185Y-134713185D01*
X222462537Y-134616494D01*
X222521502Y-134506180D01*
X222557812Y-134386482D01*
X222562882Y-134335000D01*
X227946482Y-134335000D01*
X227987500Y-134339040D01*
X228028518Y-134335000D01*
X228028519Y-134335000D01*
X228151189Y-134322918D01*
X228308587Y-134275172D01*
X228453646Y-134197636D01*
X228580791Y-134093291D01*
X228606946Y-134061421D01*
X230119438Y-132548930D01*
X230119442Y-132548925D01*
X232005297Y-130663072D01*
X232156250Y-130663072D01*
X232323408Y-130646608D01*
X232484142Y-130597850D01*
X232632275Y-130518671D01*
X232762115Y-130412115D01*
X232868671Y-130282275D01*
X232947850Y-130134142D01*
X232996608Y-129973408D01*
X233013072Y-129806250D01*
X233013072Y-129368750D01*
X232996608Y-129201592D01*
X232947850Y-129040858D01*
X232868671Y-128892725D01*
X232792574Y-128800000D01*
X232868671Y-128707275D01*
X232947850Y-128559142D01*
X232996608Y-128398408D01*
X232998154Y-128382713D01*
X235307104Y-126073764D01*
X235363589Y-126085000D01*
X235636411Y-126085000D01*
X235903989Y-126031775D01*
X236156043Y-125927371D01*
X236382886Y-125775799D01*
X236575799Y-125582886D01*
X236727371Y-125356043D01*
X236831775Y-125103989D01*
X236885000Y-124836411D01*
X236885000Y-124563589D01*
X236831775Y-124296011D01*
X236727371Y-124043957D01*
X236699685Y-124002522D01*
X236803989Y-123981775D01*
X237056043Y-123877371D01*
X237282886Y-123725799D01*
X237475799Y-123532886D01*
X237627371Y-123306043D01*
X237731775Y-123053989D01*
X237773000Y-122846739D01*
X237773000Y-134973000D01*
X200727000Y-134973000D01*
X200727000Y-134262000D01*
X215959928Y-134262000D01*
X215972188Y-134386482D01*
X216008498Y-134506180D01*
X216067463Y-134616494D01*
X216146815Y-134713185D01*
X216243506Y-134792537D01*
X216353820Y-134851502D01*
X216473518Y-134887812D01*
X216598000Y-134900072D01*
X217074250Y-134897000D01*
X217233000Y-134738250D01*
X217233000Y-133627000D01*
X217487000Y-133627000D01*
X217487000Y-134738250D01*
X217645750Y-134897000D01*
X218122000Y-134900072D01*
X218246482Y-134887812D01*
X218366180Y-134851502D01*
X218476494Y-134792537D01*
X218573185Y-134713185D01*
X218652537Y-134616494D01*
X218711502Y-134506180D01*
X218747812Y-134386482D01*
X218760072Y-134262000D01*
X218757000Y-133785750D01*
X218598250Y-133627000D01*
X217487000Y-133627000D01*
X217233000Y-133627000D01*
X216121750Y-133627000D01*
X215963000Y-133785750D01*
X215959928Y-134262000D01*
X200727000Y-134262000D01*
X200727000Y-108800000D01*
X202359847Y-108800000D01*
X202372107Y-108924481D01*
X202408416Y-109044180D01*
X202467380Y-109154494D01*
X202546733Y-109251185D01*
X202947891Y-109647998D01*
X203172397Y-109647998D01*
X204020395Y-108800000D01*
X203172397Y-107952002D01*
X202947891Y-107952002D01*
X202546733Y-108348815D01*
X202467380Y-108445506D01*
X202408416Y-108555820D01*
X202372107Y-108675519D01*
X202359847Y-108800000D01*
X200727000Y-108800000D01*
X200727000Y-107547891D01*
X203352002Y-107547891D01*
X203352002Y-107772397D01*
X204200000Y-108620395D01*
X205047998Y-107772397D01*
X205047998Y-107547891D01*
X204651185Y-107146733D01*
X204554494Y-107067380D01*
X204444180Y-107008416D01*
X204324481Y-106972107D01*
X204200000Y-106959847D01*
X204075519Y-106972107D01*
X203955820Y-107008416D01*
X203845506Y-107067380D01*
X203748815Y-107146733D01*
X203352002Y-107547891D01*
X200727000Y-107547891D01*
X200727000Y-97427000D01*
X216582381Y-97427000D01*
X216497039Y-97497039D01*
G36*
X207763399Y-121669267D02*
G01*
X207730498Y-121730820D01*
X207694188Y-121850518D01*
X207681928Y-121975000D01*
X207681928Y-122625000D01*
X207694188Y-122749482D01*
X207701929Y-122775000D01*
X207694188Y-122800518D01*
X207681928Y-122925000D01*
X207685000Y-122964250D01*
X207843750Y-123123000D01*
X207925859Y-123123000D01*
X207965506Y-123155537D01*
X208075820Y-123214502D01*
X208192841Y-123250000D01*
X208075820Y-123285498D01*
X207965506Y-123344463D01*
X207940482Y-123365000D01*
X205495868Y-123365000D01*
X205331337Y-123200469D01*
X205514250Y-123197500D01*
X205673000Y-123038750D01*
X205673000Y-122252000D01*
X205927000Y-122252000D01*
X205927000Y-123038750D01*
X206085750Y-123197500D01*
X206275000Y-123200572D01*
X206399482Y-123188312D01*
X206519180Y-123152002D01*
X206629494Y-123093037D01*
X206726185Y-123013685D01*
X206805537Y-122916994D01*
X206864502Y-122806680D01*
X206900812Y-122686982D01*
X206913072Y-122562500D01*
X206910000Y-122410750D01*
X206751250Y-122252000D01*
X205927000Y-122252000D01*
X205673000Y-122252000D01*
X205653000Y-122252000D01*
X205653000Y-121998000D01*
X205673000Y-121998000D01*
X205673000Y-121978000D01*
X205927000Y-121978000D01*
X205927000Y-121998000D01*
X206751250Y-121998000D01*
X206910000Y-121839250D01*
X206913072Y-121687500D01*
X206900812Y-121563018D01*
X206864502Y-121443320D01*
X206833329Y-121385000D01*
X207479132Y-121385000D01*
X207763399Y-121669267D01*
X207763399Y-121669267D01*
G37*
X207763399Y-121669267D02*
X207730498Y-121730820D01*
X207694188Y-121850518D01*
X207681928Y-121975000D01*
X207681928Y-122625000D01*
X207694188Y-122749482D01*
X207701929Y-122775000D01*
X207694188Y-122800518D01*
X207681928Y-122925000D01*
X207685000Y-122964250D01*
X207843750Y-123123000D01*
X207925859Y-123123000D01*
X207965506Y-123155537D01*
X208075820Y-123214502D01*
X208192841Y-123250000D01*
X208075820Y-123285498D01*
X207965506Y-123344463D01*
X207940482Y-123365000D01*
X205495868Y-123365000D01*
X205331337Y-123200469D01*
X205514250Y-123197500D01*
X205673000Y-123038750D01*
X205673000Y-122252000D01*
X205927000Y-122252000D01*
X205927000Y-123038750D01*
X206085750Y-123197500D01*
X206275000Y-123200572D01*
X206399482Y-123188312D01*
X206519180Y-123152002D01*
X206629494Y-123093037D01*
X206726185Y-123013685D01*
X206805537Y-122916994D01*
X206864502Y-122806680D01*
X206900812Y-122686982D01*
X206913072Y-122562500D01*
X206910000Y-122410750D01*
X206751250Y-122252000D01*
X205927000Y-122252000D01*
X205673000Y-122252000D01*
X205653000Y-122252000D01*
X205653000Y-121998000D01*
X205673000Y-121998000D01*
X205673000Y-121978000D01*
X205927000Y-121978000D01*
X205927000Y-121998000D01*
X206751250Y-121998000D01*
X206910000Y-121839250D01*
X206913072Y-121687500D01*
X206900812Y-121563018D01*
X206864502Y-121443320D01*
X206833329Y-121385000D01*
X207479132Y-121385000D01*
X207763399Y-121669267D01*
G36*
X237773000Y-116103261D02*
G01*
X237731775Y-115896011D01*
X237627371Y-115643957D01*
X237475799Y-115417114D01*
X237282886Y-115224201D01*
X237056043Y-115072629D01*
X236803989Y-114968225D01*
X236536411Y-114915000D01*
X236263589Y-114915000D01*
X236207104Y-114926236D01*
X233235000Y-111954133D01*
X233235000Y-106834368D01*
X233262115Y-106812115D01*
X233368671Y-106682275D01*
X233447850Y-106534142D01*
X233496608Y-106373408D01*
X233513072Y-106206250D01*
X233513072Y-105768750D01*
X233496608Y-105601592D01*
X233447850Y-105440858D01*
X233368671Y-105292725D01*
X233350900Y-105271070D01*
X233405537Y-105204494D01*
X233464502Y-105094180D01*
X233500812Y-104974482D01*
X233513072Y-104850000D01*
X233510000Y-104698250D01*
X233351250Y-104539500D01*
X232527000Y-104539500D01*
X232527000Y-104559500D01*
X232273000Y-104559500D01*
X232273000Y-104539500D01*
X232253000Y-104539500D01*
X232253000Y-104285500D01*
X232273000Y-104285500D01*
X232273000Y-103498750D01*
X232527000Y-103498750D01*
X232527000Y-104285500D01*
X233351250Y-104285500D01*
X233510000Y-104126750D01*
X233513072Y-103975000D01*
X233500812Y-103850518D01*
X233464502Y-103730820D01*
X233405537Y-103620506D01*
X233326185Y-103523815D01*
X233229494Y-103444463D01*
X233119180Y-103385498D01*
X232999482Y-103349188D01*
X232875000Y-103336928D01*
X232685750Y-103340000D01*
X232527000Y-103498750D01*
X232273000Y-103498750D01*
X232114250Y-103340000D01*
X231925000Y-103336928D01*
X231800518Y-103349188D01*
X231680820Y-103385498D01*
X231570506Y-103444463D01*
X231473815Y-103523815D01*
X231394463Y-103620506D01*
X231335498Y-103730820D01*
X231332866Y-103739498D01*
X230288072Y-102694705D01*
X230288072Y-101950000D01*
X230275812Y-101825518D01*
X230239502Y-101705820D01*
X230180537Y-101595506D01*
X230101185Y-101498815D01*
X230004494Y-101419463D01*
X229894180Y-101360498D01*
X229774482Y-101324188D01*
X229650000Y-101311928D01*
X228750000Y-101311928D01*
X228625518Y-101324188D01*
X228505820Y-101360498D01*
X228395506Y-101419463D01*
X228298815Y-101498815D01*
X228219463Y-101595506D01*
X228160498Y-101705820D01*
X228124188Y-101825518D01*
X228111928Y-101950000D01*
X228111928Y-102461905D01*
X228101185Y-102448815D01*
X228028090Y-102388828D01*
X228022918Y-102336312D01*
X228020861Y-102329529D01*
X227975172Y-102178913D01*
X227897636Y-102033854D01*
X227793291Y-101906709D01*
X227761433Y-101880564D01*
X224706946Y-98826079D01*
X224680791Y-98794209D01*
X224553646Y-98689864D01*
X224408587Y-98612328D01*
X224251189Y-98564582D01*
X224128519Y-98552500D01*
X224128518Y-98552500D01*
X224087500Y-98548460D01*
X224046482Y-98552500D01*
X221963072Y-98552500D01*
X221963072Y-98125001D01*
X221946008Y-97951747D01*
X221895471Y-97785150D01*
X221813405Y-97631614D01*
X221702961Y-97497039D01*
X221617619Y-97427000D01*
X237773000Y-97427000D01*
X237773000Y-116103261D01*
X237773000Y-116103261D01*
G37*
X237773000Y-116103261D02*
X237731775Y-115896011D01*
X237627371Y-115643957D01*
X237475799Y-115417114D01*
X237282886Y-115224201D01*
X237056043Y-115072629D01*
X236803989Y-114968225D01*
X236536411Y-114915000D01*
X236263589Y-114915000D01*
X236207104Y-114926236D01*
X233235000Y-111954133D01*
X233235000Y-106834368D01*
X233262115Y-106812115D01*
X233368671Y-106682275D01*
X233447850Y-106534142D01*
X233496608Y-106373408D01*
X233513072Y-106206250D01*
X233513072Y-105768750D01*
X233496608Y-105601592D01*
X233447850Y-105440858D01*
X233368671Y-105292725D01*
X233350900Y-105271070D01*
X233405537Y-105204494D01*
X233464502Y-105094180D01*
X233500812Y-104974482D01*
X233513072Y-104850000D01*
X233510000Y-104698250D01*
X233351250Y-104539500D01*
X232527000Y-104539500D01*
X232527000Y-104559500D01*
X232273000Y-104559500D01*
X232273000Y-104539500D01*
X232253000Y-104539500D01*
X232253000Y-104285500D01*
X232273000Y-104285500D01*
X232273000Y-103498750D01*
X232527000Y-103498750D01*
X232527000Y-104285500D01*
X233351250Y-104285500D01*
X233510000Y-104126750D01*
X233513072Y-103975000D01*
X233500812Y-103850518D01*
X233464502Y-103730820D01*
X233405537Y-103620506D01*
X233326185Y-103523815D01*
X233229494Y-103444463D01*
X233119180Y-103385498D01*
X232999482Y-103349188D01*
X232875000Y-103336928D01*
X232685750Y-103340000D01*
X232527000Y-103498750D01*
X232273000Y-103498750D01*
X232114250Y-103340000D01*
X231925000Y-103336928D01*
X231800518Y-103349188D01*
X231680820Y-103385498D01*
X231570506Y-103444463D01*
X231473815Y-103523815D01*
X231394463Y-103620506D01*
X231335498Y-103730820D01*
X231332866Y-103739498D01*
X230288072Y-102694705D01*
X230288072Y-101950000D01*
X230275812Y-101825518D01*
X230239502Y-101705820D01*
X230180537Y-101595506D01*
X230101185Y-101498815D01*
X230004494Y-101419463D01*
X229894180Y-101360498D01*
X229774482Y-101324188D01*
X229650000Y-101311928D01*
X228750000Y-101311928D01*
X228625518Y-101324188D01*
X228505820Y-101360498D01*
X228395506Y-101419463D01*
X228298815Y-101498815D01*
X228219463Y-101595506D01*
X228160498Y-101705820D01*
X228124188Y-101825518D01*
X228111928Y-101950000D01*
X228111928Y-102461905D01*
X228101185Y-102448815D01*
X228028090Y-102388828D01*
X228022918Y-102336312D01*
X228020861Y-102329529D01*
X227975172Y-102178913D01*
X227897636Y-102033854D01*
X227793291Y-101906709D01*
X227761433Y-101880564D01*
X224706946Y-98826079D01*
X224680791Y-98794209D01*
X224553646Y-98689864D01*
X224408587Y-98612328D01*
X224251189Y-98564582D01*
X224128519Y-98552500D01*
X224128518Y-98552500D01*
X224087500Y-98548460D01*
X224046482Y-98552500D01*
X221963072Y-98552500D01*
X221963072Y-98125001D01*
X221946008Y-97951747D01*
X221895471Y-97785150D01*
X221813405Y-97631614D01*
X221702961Y-97497039D01*
X221617619Y-97427000D01*
X237773000Y-97427000D01*
X237773000Y-116103261D01*
M02*
